<?xml version="1.0" encoding="utf-8"?>
<!-- Generator: Adobe Illustrator 16.0.0, SVG Export Plug-In . SVG Version: 6.00 Build 0)  -->
<!DOCTYPE svg PUBLIC "-//W3C//DTD SVG 1.1//EN" "http://www.w3.org/Graphics/SVG/1.1/DTD/svg11.dtd">
<svg version="1.1" id="agilite-valeur" xmlns="http://www.w3.org/2000/svg" xmlns:xlink="http://www.w3.org/1999/xlink" x="0px"
	 y="0px" width="393.98px" height="269.898px" viewBox="0 0 393.98 269.898" enable-background="new 0 0 393.98 269.898"
	 xml:space="preserve">
<g id="full">
	<g>
		<g id="a-plan">
			
				<line fill="none" stroke="#CECECE" stroke-width="4" stroke-miterlimit="10" x1="57.582" y1="238.398" x2="384.582" y2="238.398"/>
			<g>
				<polygon fill="#CECECE" points="382.582,244.98 393.98,238.398 382.582,231.817 				"/>
			</g>
		</g>
	</g>
	<g>
		<g id="a-plan-2">
			<line fill="none" stroke="#CECECE" stroke-width="4" stroke-miterlimit="10" x1="56.582" y1="240.398" x2="56.582" y2="9.398"/>
			<g>
				<polygon fill="#CECECE" points="63.164,11.398 56.583,0 50.001,11.398 				"/>
			</g>
		</g>
	</g>
	
		<text id="a-valeur" transform="matrix(-4.371139e-008 -1 1 -4.371139e-008 39.8425 106.3235)" fill="#919191" font-family="'MyriadPro-Regular'" font-size="16.5">adaptabilité</text>
	<g id="a-scales" opacity="0.3">
		<line id="a-scale-1" fill="none" stroke="#CECECE" stroke-miterlimit="10" x1="56.582" y1="126.898" x2="388.582" y2="126.898"/>
		<line id="a-scale-2" fill="none" stroke="#CECECE" stroke-miterlimit="10" x1="56.582" y1="73.898" x2="388.582" y2="73.898"/>
		<line id="a-scale-3" fill="none" stroke="#CECECE" stroke-miterlimit="10" x1="56.582" y1="182.898" x2="388.582" y2="182.898"/>
		<line id="a-scale-4" fill="none" stroke="#CECECE" stroke-miterlimit="10" x1="56.582" y1="21.898" x2="388.582" y2="21.898"/>
	</g>
	<path id="a-time" fill="#CECECE" d="M369.948,264.532l-4.116-4.116v-5.517h2.5v4.481l3.386,3.386L369.948,264.532z
		 M367.082,249.898c-5.521,0-10,4.477-10,10c0,5.521,4.479,10,10,10c5.523,0,10-4.479,10-10
		C377.082,254.375,372.605,249.898,367.082,249.898z M367.082,267.398c-4.142,0-7.5-3.358-7.5-7.5c0-4.144,3.358-7.5,7.5-7.5
		c4.144,0,7.5,3.356,7.5,7.5C374.582,264.04,371.224,267.398,367.082,267.398z"/>
	<g>
		<g>
			<g>
				<path id="a-old-gris" fill="none" stroke="#C6C6C6" stroke-width="4" stroke-linecap="round" stroke-miterlimit="10" d="
					M64.582,21.398c18.018,136.718,83.608,206.664,310.518,206.664"/>
			</g>
		</g>
	</g>
	<g>
		<g>
			<g>
				<path id="a-courbe-bleue" fill="none" stroke="#009884" stroke-width="4" stroke-linecap="round" stroke-miterlimit="10" d="
					M64.582,21.398c0,0,4.125,88.051,310.518,88.051"/>
			</g>
		</g>
	</g>
</g>
</svg>
