<?xml version="1.0" encoding="utf-8"?>
<!-- Generator: Adobe Illustrator 17.0.0, SVG Export Plug-In . SVG Version: 6.00 Build 0)  -->
<!DOCTYPE svg PUBLIC "-//W3C//DTD SVG 1.1//EN" "http://www.w3.org/Graphics/SVG/1.1/DTD/svg11.dtd">
<svg version="1.1" id="Calque_1" xmlns="http://www.w3.org/2000/svg" xmlns:xlink="http://www.w3.org/1999/xlink" x="0px" y="0px"
	 width="346.144px" height="271.201px" viewBox="0 0 346.144 271.201" enable-background="new 0 0 346.144 271.201"
	 xml:space="preserve">
<g opacity="0.4">
	<g>
		<g enable-background="new    ">
			<g enable-background="new    ">
				<defs>
					<path id="SVGID_1_" enable-background="new    " d="M292.541,50.398l-0.014,4.891c0.026-9.208-6.208-17.983-17.699-24.617
						c-23.438-13.532-61.456-13.532-84.742,0c-11.567,6.722-17.356,15.537-17.381,24.366l0.014-4.891
						c0.025-8.829,5.814-17.644,17.381-24.366c23.286-13.532,61.304-13.532,84.742,0C286.333,32.415,292.567,41.19,292.541,50.398z"
						/>
				</defs>
				<clipPath id="SVGID_2_">
					<use xlink:href="#SVGID_1_"  overflow="visible"/>
				</clipPath>
				<g clip-path="url(#SVGID_2_)" enable-background="new    ">
					<path fill="#858585" d="M292.541,50.398l-0.014,4.891c0.026-9.208-6.208-17.983-17.699-24.617
						c-2.693-1.555-5.578-2.931-8.611-4.128l0.014-4.891c3.033,1.197,5.918,2.574,8.611,4.128
						C286.333,32.415,292.567,41.19,292.541,50.398"/>
					<path fill="#8A8A8A" d="M266.23,21.652l-0.014,4.891c-2.341-0.924-4.769-1.742-7.265-2.453l0.014-4.891
						C261.461,19.91,263.89,20.728,266.23,21.652"/>
					<path fill="#8F8F8F" d="M258.965,19.199l-0.014,4.891c-2.042-0.582-4.129-1.092-6.25-1.532l0.014-4.891
						C254.836,18.107,256.923,18.617,258.965,19.199"/>
					<path fill="#949494" d="M252.715,17.667l-0.014,4.891c-1.957-0.405-3.942-0.75-5.948-1.035l0.014-4.891
						C248.772,16.917,250.758,17.262,252.715,17.667"/>
					<path fill="#999999" d="M246.766,16.633l-0.014,4.891c-1.93-0.274-3.879-0.491-5.839-0.653l0.014-4.891
						C242.887,16.142,244.836,16.359,246.766,16.633"/>
					<path fill="#9E9E9E" d="M240.927,15.98l-0.014,4.891c-1.964-0.162-3.94-0.267-5.919-0.317l0.014-4.891
						C236.987,15.713,238.963,15.818,240.927,15.98"/>
					<path fill="#A3A3A3" d="M235.009,15.664l-0.014,4.891c-2.051-0.051-4.106-0.042-6.155,0.029l0.014-4.891
						C230.903,15.622,232.958,15.613,235.009,15.664"/>
					<path fill="#A8A8A8" d="M228.854,15.692l-0.014,4.891c-2.231,0.076-4.456,0.224-6.664,0.444l0.014-4.891
						C224.397,15.916,226.622,15.768,228.854,15.692"/>
					<path fill="#ADADAD" d="M222.19,16.136l-0.014,4.891c-2.582,0.257-5.14,0.612-7.655,1.066l0.014-4.891
						C217.05,16.749,219.608,16.393,222.19,16.136"/>
					<path fill="#B3B3B3" d="M214.535,17.202l-0.014,4.891c-3.907,0.704-7.711,1.646-11.346,2.824l0.014-4.891
						C206.824,18.848,210.628,17.907,214.535,17.202"/>
					<path fill="#B8B8B8" d="M203.189,20.026l-0.014,4.891c-4.696,1.523-9.108,3.441-13.09,5.754
						c-0.248,0.144-0.493,0.289-0.735,0.435l0.014-4.891c0.242-0.146,0.488-0.291,0.735-0.435
						C194.081,23.467,198.493,21.549,203.189,20.026"/>
					<path fill="#B3B3B3" d="M189.364,26.215l-0.014,4.891c-2.906,1.749-5.432,3.633-7.577,5.616l0.014-4.891
						C183.932,29.848,186.458,27.964,189.364,26.215"/>
					<path fill="#ADADAD" d="M181.788,31.832l-0.014,4.891c-1.39,1.285-2.619,2.612-3.689,3.972l0.014-4.891
						C179.168,34.444,180.398,33.117,181.788,31.832"/>
					<path fill="#A8A8A8" d="M178.098,35.803l-0.014,4.891c-0.922,1.171-1.726,2.367-2.41,3.58l0.014-4.891
						C176.373,38.17,177.176,36.975,178.098,35.803"/>
					<path fill="#A3A3A3" d="M175.688,39.383l-0.014,4.891c-0.633,1.121-1.165,2.258-1.595,3.405l0.014-4.891
						C174.523,41.641,175.055,40.505,175.688,39.383"/>
					<path fill="#9E9E9E" d="M174.092,42.788l-0.014,4.891c-0.42,1.119-0.743,2.247-0.971,3.381l0.014-4.891
						C173.349,45.035,173.673,43.907,174.092,42.788"/>
					<path fill="#999999" d="M173.122,46.17l-0.014,4.891c-0.23,1.146-0.361,2.297-0.394,3.45l0.014-4.891
						C172.76,48.467,172.892,47.315,173.122,46.17"/>
					<path fill="#949494" d="M172.727,49.619l-0.014,4.891c-0.005,0.176-0.008,0.352-0.008,0.527l0.014-4.891
						C172.719,49.971,172.722,49.795,172.727,49.619"/>
				</g>
			</g>
			<g enable-background="new    ">
				<defs>
					<path id="SVGID_3_" enable-background="new    " d="M319.552,50.436l-0.014,4.891c-0.007,2.304-0.283,4.627-0.838,6.957
						c-0.237,0.994-0.526,1.982-0.864,2.963l0.014-4.891c0.338-0.981,0.626-1.969,0.864-2.963
						C319.268,55.064,319.545,52.741,319.552,50.436z"/>
				</defs>
				<clipPath id="SVGID_4_">
					<use xlink:href="#SVGID_3_"  overflow="visible"/>
				</clipPath>
				<g clip-path="url(#SVGID_4_)" enable-background="new    ">
					<path fill="#949494" d="M319.552,50.436l-0.014,4.891c-0.001,0.258-0.005,0.517-0.012,0.775l0.014-4.891
						C319.547,50.953,319.551,50.695,319.552,50.436"/>
					<path fill="#999999" d="M319.539,51.212l-0.014,4.891c-0.049,1.68-0.241,3.369-0.58,5.062l0.014-4.891
						C319.298,54.58,319.49,52.891,319.539,51.212"/>
					<path fill="#9E9E9E" d="M318.959,56.274l-0.014,4.891c-0.075,0.373-0.156,0.746-0.245,1.119
						c-0.237,0.994-0.526,1.982-0.864,2.963l0.014-4.891c0.338-0.981,0.626-1.969,0.864-2.963
						C318.803,57.02,318.885,56.647,318.959,56.274"/>
				</g>
			</g>
			<g>
				<polygon fill="#A8A8A8" points="317.85,60.356 317.836,65.247 291.329,62.206 291.343,57.315 				"/>
			</g>
			<g enable-background="new    ">
				<defs>
					<path id="SVGID_5_" enable-background="new    " d="M190.368,79.754c-1.169-0.675-2.28-1.371-3.333-2.086l0.014-4.891
						c1.053,0.715,2.164,1.412,3.333,2.086C190.378,76.33,190.373,78.286,190.368,79.754z"/>
				</defs>
				<clipPath id="SVGID_6_">
					<use xlink:href="#SVGID_5_"  overflow="visible"/>
				</clipPath>
				<g clip-path="url(#SVGID_6_)" enable-background="new    ">
					<path fill="#858585" d="M190.382,74.863l-0.014,4.891c-1.169-0.675-2.28-1.371-3.333-2.086l0.014-4.891
						C188.102,73.491,189.213,74.188,190.382,74.863"/>
				</g>
			</g>
			<g>
				<polygon fill="#DCDCDC" points="335.721,62.406 299.234,76.576 274.645,55.399 291.343,57.315 317.85,60.356 				"/>
			</g>
			<g>
				<polygon fill="#C5C5C5" points="335.721,62.406 335.707,67.297 299.22,81.467 299.234,76.576 				"/>
			</g>
			<g>
				<polygon fill="#828282" points="299.234,76.576 299.22,81.467 274.632,60.29 274.645,55.399 				"/>
			</g>
			<g enable-background="new    ">
				<defs>
					<path id="SVGID_7_" enable-background="new    " d="M145.719,54.96l0.014-4.891c-0.029,10.233,5.28,20.479,15.917,29.198
						c2.851,2.337,6.086,4.566,9.703,6.654l-0.014,4.891c-3.617-2.088-6.852-4.317-9.703-6.654
						C150.999,75.439,145.69,65.193,145.719,54.96z"/>
				</defs>
				<clipPath id="SVGID_8_">
					<use xlink:href="#SVGID_7_"  overflow="visible"/>
				</clipPath>
				<g clip-path="url(#SVGID_8_)" enable-background="new    ">
					<path fill="#858585" d="M171.353,85.921l-0.014,4.891c-3.617-2.088-6.852-4.317-9.703-6.654
						c-10.637-8.719-15.946-18.965-15.917-29.198l0.014-4.891c-0.029,10.233,5.28,20.479,15.917,29.198
						C164.501,81.605,167.736,83.833,171.353,85.921"/>
				</g>
			</g>
			<g>
				<path fill="#DCDCDC" d="M293.871,14.722c19.556,11.291,28.611,26.843,24.843,42.671c-0.237,0.994-0.526,1.982-0.864,2.963
					l-26.507-3.041c0.242-0.698,0.449-1.402,0.617-2.111c2.605-10.915-3.641-21.642-17.119-29.423
					c-23.438-13.532-61.456-13.532-84.742,0c-22.125,12.857-23.111,33.374-3.051,46.996c1.053,0.715,2.164,1.412,3.333,2.086
					l-19.029,11.059c-3.617-2.088-6.852-4.317-9.703-6.654c-23.951-19.633-20.888-47.004,9.296-64.545
					C204.723-4.907,259.873-4.907,293.871,14.722z"/>
			</g>
			<g>
				<polygon fill="#C5C5C5" points="190.382,74.863 190.368,79.754 171.339,90.812 171.353,85.921 				"/>
			</g>
			<g>
				<polygon fill="#B2B2B2" points="130.945,127.712 130.932,132.603 103.369,132.603 103.383,127.712 				"/>
			</g>
			<g enable-background="new    ">
				<defs>
					<path id="SVGID_9_" enable-background="new    " d="M319.158,140.702l-0.014,4.891c0.04-14.236-9.336-28.494-28.108-39.332
						c-37.299-21.535-97.795-21.534-134.858,0.004c-12.672,7.364-21.283,16.376-25.246,26.338l0.014-4.891
						c3.963-9.962,12.574-18.974,25.246-26.338c37.063-21.539,97.558-21.539,134.858-0.004
						C309.822,112.208,319.198,126.466,319.158,140.702z"/>
				</defs>
				<clipPath id="SVGID_10_">
					<use xlink:href="#SVGID_9_"  overflow="visible"/>
				</clipPath>
				<g clip-path="url(#SVGID_10_)" enable-background="new    ">
					<path fill="#858585" d="M319.158,140.702l-0.014,4.891c0.04-14.236-9.336-28.494-28.108-39.332
						c-4.286-2.474-8.877-4.664-13.705-6.57l0.014-4.891c4.827,1.906,9.419,4.096,13.705,6.57
						C309.822,112.208,319.198,126.466,319.158,140.702"/>
					<path fill="#8A8A8A" d="M277.345,94.8l-0.014,4.891c-3.725-1.47-7.589-2.771-11.562-3.903l0.014-4.891
						C269.756,92.028,273.62,93.329,277.345,94.8"/>
					<path fill="#8F8F8F" d="M265.783,90.896l-0.014,4.891c-3.249-0.926-6.57-1.738-9.945-2.438l0.014-4.891
						C259.213,89.158,262.534,89.971,265.783,90.896"/>
					<path fill="#949494" d="M255.838,88.459l-0.014,4.891c-3.113-0.645-6.273-1.194-9.465-1.646l0.014-4.891
						C249.565,87.265,252.724,87.814,255.838,88.459"/>
					<path fill="#999999" d="M246.373,86.813l-0.014,4.891c-3.071-0.435-6.172-0.781-9.291-1.038l0.014-4.891
						C240.201,86.031,243.302,86.377,246.373,86.813"/>
					<path fill="#9E9E9E" d="M237.082,85.774l-0.014,4.891c-3.126-0.258-6.269-0.425-9.417-0.504l0.014-4.891
						C230.813,85.349,233.956,85.517,237.082,85.774"/>
					<path fill="#A3A3A3" d="M227.665,85.271l-0.014,4.891c-3.264-0.081-6.533-0.066-9.794,0.045l0.014-4.891
						C221.132,85.205,224.401,85.189,227.665,85.271"/>
					<path fill="#A8A8A8" d="M217.871,85.316l-0.014,4.891c-3.551,0.121-7.091,0.357-10.603,0.707l0.014-4.891
						C210.78,85.673,214.321,85.437,217.871,85.316"/>
					<path fill="#ADADAD" d="M207.268,86.023l-0.014,4.891c-4.109,0.409-8.179,0.975-12.182,1.696l0.014-4.891
						C199.089,86.997,203.159,86.432,207.268,86.023"/>
					<path fill="#B3B3B3" d="M195.086,87.719l-0.014,4.891c-6.218,1.121-12.273,2.619-18.057,4.495l0.014-4.891
						C182.813,90.338,188.868,88.84,195.086,87.719"/>
					<path fill="#B8B8B8" d="M177.029,92.214l-0.014,4.891c-7.475,2.424-14.499,5.477-20.837,9.16
						c-0.47,0.273-0.935,0.549-1.394,0.827l0.014-4.891c0.459-0.278,0.924-0.553,1.394-0.827
						C162.53,97.691,169.553,94.637,177.029,92.214"/>
					<path fill="#B3B3B3" d="M154.798,102.201l-0.014,4.891c-4.566,2.763-8.576,5.747-12,8.917l0.014-4.891
						C146.222,107.948,150.232,104.964,154.798,102.201"/>
					<path fill="#ADADAD" d="M142.798,111.118l-0.014,4.891c-2.182,2.02-4.126,4.116-5.825,6.278l0.014-4.891
						C138.672,115.234,140.616,113.138,142.798,111.118"/>
					<path fill="#A8A8A8" d="M136.973,117.396l-0.014,4.891c-1.431,1.821-2.688,3.69-3.765,5.6l0.014-4.891
						C134.286,121.086,135.542,119.217,136.973,117.396"/>
					<path fill="#A3A3A3" d="M133.208,122.996l-0.014,4.891c-0.872,1.546-1.627,3.119-2.263,4.716l0.014-4.891
						C131.581,126.115,132.336,124.542,133.208,122.996"/>
				</g>
			</g>
			<g>
				<polygon fill="#898989" points="116.171,145.734 116.157,150.625 84.942,132.603 84.956,127.712 				"/>
			</g>
			<g>
				<polygon fill="#DCDCDC" points="147.182,127.712 116.171,145.734 84.956,127.712 103.383,127.712 130.945,127.712 				"/>
			</g>
			<g>
				<polygon fill="#C5C5C5" points="147.182,127.712 147.169,132.603 116.157,150.625 116.171,145.734 				"/>
			</g>
			<g>
				<polygon fill="#DCDCDC" points="97.785,145.73 78.756,156.789 0.014,111.327 19.043,100.269 				"/>
			</g>
			<g>
				<polygon fill="#898989" points="78.756,156.789 78.742,161.68 0,116.218 0.014,111.327 				"/>
			</g>
			<g>
				<polygon fill="#C5C5C5" points="97.785,145.73 97.771,150.621 78.742,161.68 78.756,156.789 				"/>
			</g>
			<g>
				<polygon fill="#C5C5C5" points="156.441,179.595 156.427,184.486 137.588,195.435 137.602,190.544 				"/>
			</g>
			<g enable-background="new    ">
				<defs>
					<path id="SVGID_11_" enable-background="new    " d="M346.144,140.779l-0.014,4.891c-0.051,18.033-11.877,36.038-35.501,49.767
						c-27.245,15.833-64.367,22.594-100.106,20.282c-26.633-1.723-52.497-8.484-72.936-20.284l0.014-4.891
						c20.439,11.8,46.303,18.561,72.936,20.284c35.739,2.312,72.86-4.448,100.106-20.282
						C334.267,176.818,346.093,158.812,346.144,140.779z"/>
				</defs>
				<clipPath id="SVGID_12_">
					<use xlink:href="#SVGID_11_"  overflow="visible"/>
				</clipPath>
				<g clip-path="url(#SVGID_12_)" enable-background="new    ">
					<path fill="#949494" d="M346.144,140.779l-0.014,4.891c-0.001,0.359-0.007,0.719-0.017,1.078l0.014-4.891
						C346.137,141.498,346.143,141.138,346.144,140.779"/>
					<path fill="#999999" d="M346.127,141.857l-0.014,4.891c-0.068,2.352-0.336,4.701-0.805,7.039l0.014-4.891
						C345.791,146.558,346.059,144.209,346.127,141.857"/>
					<path fill="#9E9E9E" d="M345.323,148.896l-0.014,4.891c-0.464,2.316-1.124,4.62-1.981,6.904l0.014-4.891
						C344.198,153.516,344.859,151.212,345.323,148.896"/>
					<path fill="#A3A3A3" d="M343.341,155.801l-0.014,4.891c-0.881,2.347-1.969,4.673-3.265,6.968l0.014-4.891
						C341.372,160.474,342.461,158.148,343.341,155.801"/>
					<path fill="#A8A8A8" d="M340.077,162.769l-0.014,4.891c-1.4,2.478-3.041,4.92-4.925,7.313l0.014-4.891
						C337.035,167.689,338.677,165.247,340.077,162.769"/>
					<path fill="#ADADAD" d="M335.151,170.081l-0.014,4.891c-2.198,2.791-4.725,5.516-7.583,8.154l0.014-4.891
						C330.426,175.597,332.954,172.873,335.151,170.081"/>
					<path fill="#B3B3B3" d="M327.569,178.235l-0.014,4.891c-4.374,4.038-9.521,7.873-15.441,11.433l0.014-4.891
						C318.048,186.108,323.195,182.273,327.569,178.235"/>
					<path fill="#B8B8B8" d="M312.128,189.668l-0.014,4.891c-0.49,0.295-0.985,0.587-1.485,0.878
						c-8.265,4.803-17.439,8.771-27.208,11.905l0.014-4.891c9.769-3.133,18.942-7.101,27.208-11.905
						C311.143,190.256,311.638,189.963,312.128,189.668"/>
					<path fill="#B3B3B3" d="M283.436,202.451l-0.014,4.891c-7.27,2.332-14.87,4.201-22.669,5.608l0.014-4.891
						C268.566,206.653,276.165,204.783,283.436,202.451"/>
					<path fill="#ADADAD" d="M260.766,208.06l-0.014,4.891c-5.157,0.93-10.401,1.658-15.695,2.184l0.014-4.891
						C250.365,209.718,255.609,208.99,260.766,208.06"/>
					<path fill="#A8A8A8" d="M245.071,210.244l-0.014,4.891c-4.503,0.447-9.043,0.748-13.595,0.903l0.014-4.891
						C236.028,210.992,240.568,210.691,245.071,210.244"/>
					<path fill="#A3A3A3" d="M231.476,211.147l-0.014,4.891c-4.18,0.142-8.371,0.161-12.554,0.056l0.014-4.891
						C223.105,211.308,227.296,211.289,231.476,211.147"/>
					<path fill="#9E9E9E" d="M218.921,211.203l-0.014,4.891c-2.799-0.07-5.596-0.195-8.384-0.375
						c-1.229-0.079-2.456-0.17-3.682-0.271l0.014-4.891c1.225,0.101,2.453,0.191,3.682,0.271
						C213.326,211.008,216.122,211.134,218.921,211.203"/>
					<path fill="#999999" d="M206.856,210.557l-0.014,4.891c-3.995-0.329-7.968-0.772-11.903-1.33l0.014-4.891
						C198.888,209.785,202.861,210.228,206.856,210.557"/>
					<path fill="#949494" d="M194.953,209.227l-0.014,4.891c-4.079-0.578-8.117-1.278-12.096-2.101l0.014-4.891
						C186.836,207.949,190.874,208.65,194.953,209.227"/>
					<path fill="#8F8F8F" d="M182.857,207.126l-0.014,4.891c-4.352-0.9-8.634-1.947-12.822-3.14l0.014-4.891
						C174.223,205.18,178.505,206.226,182.857,207.126"/>
					<path fill="#8A8A8A" d="M170.035,203.987l-0.014,4.891c-5.052-1.439-9.968-3.092-14.708-4.957l0.014-4.891
						C160.067,200.895,164.983,202.547,170.035,203.987"/>
					<path fill="#858585" d="M155.327,199.029l-0.014,4.891c-6.245-2.458-12.184-5.287-17.725-8.486l0.014-4.891
						C143.143,193.742,149.082,196.571,155.327,199.029"/>
				</g>
			</g>
			<g>
				<path fill="#DCDCDC" d="M310.079,90.311c47.866,27.635,48.119,72.6,0.564,100.236c-27.245,15.833-64.367,22.594-100.106,20.282
					c-26.633-1.723-52.497-8.484-72.936-20.284l18.839-10.948c37.496,21.428,97.991,21.428,135.048-0.108
					c37.063-21.539,36.866-56.58-0.44-78.118c-37.299-21.535-97.795-21.534-134.858,0.004
					c-12.672,7.364-21.283,16.376-25.246,26.338l-27.562,0c4.344-14.215,15.882-27.069,33.655-37.397
					c7.529-4.375,15.813-8.058,24.612-11.048c2.851,2.337,6.086,4.566,9.703,6.654l19.029-11.059
					c-1.169-0.675-2.28-1.371-3.333-2.086C229.028,65.231,276.764,71.076,310.079,90.311z"/>
			</g>
			<g>
				<polygon fill="#C5C5C5" points="275.173,248.145 275.159,253.036 255.958,263.996 255.972,259.105 				"/>
			</g>
			<g>
				<polygon fill="#898989" points="255.972,259.105 255.958,263.996 92.935,169.875 92.949,164.984 				"/>
			</g>
			<g>
				<path fill="#DCDCDC" d="M275.173,248.145l-19.2,10.96L92.949,164.984l19.029-11.059l44.463,25.671l-18.839,10.948
					c20.439,11.8,46.303,18.561,72.936,20.284L275.173,248.145z"/>
			</g>
			<g>
				<polygon fill="#DCDCDC" points="287.115,241.328 287.262,266.309 243.351,266.31 255.972,259.105 275.173,248.145 				"/>
			</g>
			<g>
				<polygon fill="#B2B2B2" points="287.262,266.309 287.248,271.2 243.337,271.201 243.351,266.31 				"/>
			</g>
		</g>
	</g>
</g>
</svg>
