<?xml version="1.0" encoding="utf-8"?>
<!-- Generator: Adobe Illustrator 17.0.0, SVG Export Plug-In . SVG Version: 6.00 Build 0)  -->
<!DOCTYPE svg PUBLIC "-//W3C//DTD SVG 1.1//EN" "http://www.w3.org/Graphics/SVG/1.1/DTD/svg11.dtd">
<svg version="1.1" id="Calque_1" xmlns="http://www.w3.org/2000/svg" xmlns:xlink="http://www.w3.org/1999/xlink" x="0px" y="0px"
	 width="392.903px" height="345.827px" viewBox="0 0 392.903 345.827" enable-background="new 0 0 392.903 345.827"
	 xml:space="preserve">
<g opacity="0.8">
	<g>
		
			<rect x="8.718" y="298.276" fill="none" stroke="#FFFFFF" stroke-width="6" stroke-linecap="round" stroke-linejoin="round" stroke-miterlimit="10" width="106.342" height="25.867"/>
	</g>
	<path fill="none" stroke="#FFFFFF" stroke-width="6" stroke-linecap="round" stroke-linejoin="round" stroke-miterlimit="10" d="
		M383.977,307.396l-29.215-27.299l-0.145,18.01h-87.249c26.911-22,44.284-56.493,44.284-93.536
		c0-64.639-52.739-118.184-117.377-118.184c-44.994,0-84.142,25.006-103.785,62.295c-29.536-2.285-52.836-27.302-52.836-57.453
		c0-31.652,25.809-57.523,57.461-57.523c18.206,0,34.966,8.297,45.931,22.867c0.711,0.944,1.397,1.883,2.046,2.866l-13.532,9.044
		l41.353,8.189l8.199-41.353l-14.51,9.709c-0.915-1.379-1.859-2.741-2.857-4.068C145.846,19.836,121.581,7.72,95.172,7.72
		c-45.916,0-83.386,37.355-83.386,83.27c0,41.113,29.802,75.357,69.049,82.072c-2.469,9.457-3.787,19.374-3.787,29.594
		c0,24.155,7.188,48.689,20.814,68.308l-12.501,14.144H124v-45.44l-9.228,10.986c-8.926-14.372-12.735-30.77-12.735-47.997
		c0-50.376,41.423-91.359,91.799-91.359s91.441,42.484,91.441,92.859S244,298.107,194,298.107l0,0h-63v26h223.384l-0.153,15.018
		L383.977,307.396z"/>
</g>
</svg>
