<?xml version="1.0" encoding="utf-8"?>
<!-- Generator: Adobe Illustrator 15.0.0, SVG Export Plug-In . SVG Version: 6.00 Build 0)  -->
<!DOCTYPE svg PUBLIC "-//W3C//DTD SVG 1.1//EN" "http://www.w3.org/Graphics/SVG/1.1/DTD/svg11.dtd">
<svg version="1.1" id="AMELIO-F1" xmlns="http://www.w3.org/2000/svg" xmlns:xlink="http://www.w3.org/1999/xlink" x="0px" y="0px"
	 width="1600px" height="900px" viewBox="0 0 1600 900" enable-background="new 0 0 1600 900" xml:space="preserve">
<g id="F1">
	<g id="roue-back-left">
		<path fill="#575756" d="M674.459,181.537c0.102-36.688-25.688-81.364-57.619-99.791c-15.68-9.055-29.914-10.078-40.363-4.443
			l-0.022-0.04l-66.143,38.506l12.07,19.53c-0.005,0.296-0.022,0.581-0.022,0.88c-0.102,36.687,25.691,81.363,57.62,99.791
			c2.283,1.319,4.533,2.448,6.747,3.431l9.133,14.778l32.919-18.726c0.211-0.116,0.42-0.23,0.626-0.351l28.464-16.656l-0.006-0.009
			C668.08,212.343,674.408,199.601,674.459,181.537z"/>
		<g>
			<path fill="#868686" d="M551.728,119.628c-31.925-18.437-57.89-3.641-57.993,33.047c-0.104,36.686,25.689,81.362,57.62,99.791
				c31.926,18.432,57.891,3.638,57.993-33.048C609.452,182.728,583.658,138.053,551.728,119.628"/>
		</g>
		<g>
			<path fill="#C6C6C5" d="M551.643,150.61c-17.036-9.838-30.886-1.94-30.941,17.636c-0.056,19.569,13.707,43.403,30.741,53.234
				c17.029,9.833,30.886,1.94,30.941-17.631C582.438,184.277,568.677,160.442,551.643,150.61"/>
		</g>
		<path fill="#D9D9D9" d="M582.383,203.849c-0.011,3.87-0.569,7.281-1.58,10.192c-2.721-0.658-5.597-1.808-8.579-3.529
			c-17.03-9.831-30.795-33.665-30.739-53.233c0.011-3.896,0.59-7.3,1.622-10.209c2.71,0.669,5.572,1.831,8.535,3.542
			C568.677,160.442,582.438,184.277,582.383,203.849z"/>
	</g>
	<g id="roue-front-left">
		<path fill="#575756" d="M1299.696,542.897c0.103-36.69-25.687-81.364-57.618-99.792c-15.68-9.055-29.914-10.078-40.363-4.442
			l-0.021-0.041l-66.145,38.508l12.069,19.529c-0.005,0.295-0.021,0.579-0.021,0.877c-0.103,36.688,25.692,81.365,57.621,99.793
			c2.283,1.319,4.532,2.45,6.749,3.432l9.13,14.779l32.92-18.727c0.209-0.116,0.422-0.229,0.627-0.352l28.464-16.656l-0.005-0.01
			C1293.319,573.703,1299.648,560.96,1299.696,542.897z"/>
		<g>
			<path fill="#868686" d="M1176.969,480.986c-31.928-18.437-57.893-3.638-57.996,33.049c-0.103,36.686,25.689,81.362,57.62,99.791
				c31.925,18.431,57.89,3.638,57.993-33.047C1234.688,544.089,1208.896,499.413,1176.969,480.986"/>
		</g>
		<g>
			<path fill="#C6C6C5" d="M1176.881,511.969c-17.035-9.837-30.886-1.94-30.941,17.637c-0.055,19.568,13.707,43.402,30.741,53.234
				c17.029,9.832,30.886,1.94,30.94-17.632C1207.676,545.637,1193.914,521.802,1176.881,511.969"/>
		</g>
		<path fill="#D9D9D9" d="M1207.621,565.208c-0.01,3.871-0.568,7.281-1.576,10.191c-2.725-0.657-5.6-1.807-8.584-3.528
			c-17.029-9.829-30.794-33.663-30.737-53.234c0.011-3.896,0.59-7.301,1.621-10.209c2.712,0.671,5.574,1.831,8.536,3.541
			C1193.914,521.802,1207.676,545.637,1207.621,565.208z"/>
	</g>
	<g id="aileron-front">
		<g>
			<polygon fill="#C6C6C5" points="1415.607,651.872 1340.771,608.666 1340.771,654.949 1415.607,698.157 		"/>
			<polygon fill="#B1B1B1" points="1415.607,651.872 1426.873,645.304 1426.873,691.589 1415.607,698.157 		"/>
			<g>
				<polygon fill="#D9D9D9" points="1426.873,645.304 1351.795,602.099 1340.771,608.666 1415.607,651.872 			"/>
			</g>
		</g>
		<g>
			<polygon fill="#C6C6C5" points="1097.134,870.178 1022.299,826.971 1022.299,839.009 1097.134,882.217 		"/>
			<polygon fill="#B1B1B1" points="1097.134,870.178 1415.607,686.125 1415.607,698.163 1256.291,790.236 1097.134,882.217 		"/>
			<g>
				<polygon fill="#ECECEC" points="1415.607,686.125 1340.529,642.919 1022.299,826.971 1097.134,870.178 			"/>
			</g>
		</g>
		<g>
			<polygon fill="#C6C6C5" points="1085.867,842.479 1011.031,799.274 1011.031,845.557 1085.867,888.765 		"/>
			<polygon fill="#B1B1B1" points="1085.867,842.479 1097.134,835.911 1097.134,882.197 1085.867,888.765 		"/>
			<g>
				<polygon fill="#D9D9D9" points="1097.134,835.911 1022.056,792.704 1011.031,799.274 1085.867,842.479 			"/>
			</g>
		</g>
		<g>
			<polygon fill="#C6C6C5" points="1263.172,727.972 1227.34,707.317 1227.34,753.602 1263.172,774.255 		"/>
			<polygon fill="#B1B1B1" points="1263.172,727.972 1271.731,722.996 1271.731,769.281 1263.172,774.255 		"/>
			<g>
				<polygon fill="#D9D9D9" points="1271.731,722.996 1235.658,702.342 1227.34,707.317 1263.172,727.972 			"/>
			</g>
		</g>
		<g>
			<polygon fill="#C6C6C5" points="1240.441,735.81 1204.61,715.156 1204.61,766.724 1240.441,787.378 		"/>
			<polygon fill="#B1B1B1" points="1240.441,735.81 1249.001,730.836 1249.001,782.403 1240.441,787.378 		"/>
			<g>
				<polygon fill="#D9D9D9" points="1249.001,730.836 1212.929,710.182 1204.61,715.156 1240.441,735.81 			"/>
			</g>
		</g>
	</g>
	<g id="carrosserie">
		<polygon fill="#9C9B9B" points="953.303,445.941 953.303,353.352 898.121,385.421 898.121,478.011 	"/>
		<polygon fill="#C6C6C5" points="314.273,231.758 314.273,324.348 473.66,416.376 473.66,323.786 	"/>
		<polygon fill="#D9D9D9" points="557.917,556.763 557.917,464.172 473.66,323.786 473.66,416.376 	"/>
		<polygon fill="#C6C6C5" points="660.598,616.049 660.598,523.46 557.917,464.172 557.917,556.763 	"/>
		<polygon fill="#9C9B9B" points="715.779,583.979 715.779,491.389 660.598,523.46 660.598,616.049 	"/>
		<polygon fill="#B1B1B1" points="861.648,604.476 861.648,525.58 715.779,491.389 715.779,583.979 	"/>
		<polygon fill="#C6C6C5" points="727.229,344.668 727.229,450.023 895.182,546.993 895.182,441.644 	"/>
		<polygon fill="#C6C6C5" points="1311.312,764.038 1311.312,752.538 861.648,525.58 861.648,604.476 	"/>
		<polygon fill="#B1B1B1" points="1338.068,756.561 1338.068,745.06 1311.312,752.538 1311.312,764.038 	"/>
		<polygon fill="#868686" points="727.229,344.668 643.483,393.339 643.483,498.375 727.229,450.023 	"/>
		<polygon fill="#9C9B9B" points="1350.891,741.039 1350.891,729.538 1338.068,745.06 1338.068,756.561 	"/>
		<path fill="#ECECEC" d="M957.616,469.807l-59.495-84.386l55.182-32.069l-102.68-59.289L608.01,245.707l-159.382-92.025
			l-67.178,39.038l-67.177,39.039l159.387,92.028l84.257,140.386l102.682,59.288l55.181-32.071l145.869,34.191l449.664,226.958
			l26.756-7.479l12.822-15.521L957.616,469.807z M835.113,454.61l-42.619,24.767l-149.011-86.038l83.745-48.671l149.012,86.04
			L835.113,454.61z"/>
	</g>
	<g id="prise-air">
		<g>
			<polygon fill="#C6C6C5" points="590.325,247.906 447.033,246.164 439.028,258.426 582.321,341.128 		"/>
			<g>
				<polygon fill="#F5F5F5" points="627.694,226.176 484.463,224.436 447.033,246.164 590.325,247.906 			"/>
			</g>
		</g>
		<g>
			<polygon fill="#C6C6C5" points="653.574,284.422 590.325,247.906 582.321,341.14 645.57,377.656 		"/>
			<polygon fill="#B1B1B1" points="653.574,284.422 691.209,262.694 699.214,346.686 673.843,361.333 645.57,377.656 		"/>
			<g>
				<polygon fill="#D9D9D9" points="691.209,262.694 627.755,226.176 590.325,247.906 653.574,284.422 			"/>
			</g>
		</g>
	</g>
	<g id="siege-pilote">
		<defs>
			<polygon id="SVGID_1_" points="643.483,393.339 792.494,479.377 876.24,430.708 895.182,260.396 643.483,259.002 		"/>
		</defs>
		<clipPath id="SVGID_2_">
			<use xlink:href="#SVGID_1_"  overflow="visible"/>
		</clipPath>
		<g id="siege_2_" clip-path="url(#SVGID_2_)">
			<g>
				<g>
					<polygon fill="#B1B1B1" points="669.25,393.577 733.858,356.214 753.953,455.851 753.953,467.372 698.735,499.313 				"/>
					<polygon fill="#C6C6C5" points="669.25,393.577 659.387,390.37 689.922,495.279 698.735,499.313 698.735,487.818 				"/>
					<g>
						<polygon fill="#F5F5F5" points="733.858,356.214 723.72,353.005 659.387,390.37 669.25,393.577 					"/>
					</g>
				</g>
				<g>
					<polygon fill="#C6C6C5" points="759.648,516.995 698.735,487.82 698.735,499.301 759.648,528.477 				"/>
					<polygon fill="#B1B1B1" points="759.648,516.995 824.257,479.633 824.257,491.115 759.648,528.477 				"/>
					<g>
						<polygon fill="#F5F5F5" points="824.257,479.633 753.677,455.88 698.735,487.82 759.648,516.995 					"/>
					</g>
				</g>
			</g>
		</g>
		<g id="pilote" clip-path="url(#SVGID_2_)">
			<g>
				<polygon fill="#C6C6C5" points="692.251,387.842 761.082,346.113 765.772,380.638 764.344,411.12 772.304,431.274 
					775.152,449.687 757.286,479.617 732.618,471.975 724.339,439.532 709.656,410.891 			"/>
				<polygon fill="#C6C6C5" points="692.251,387.842 709.656,410.891 724.339,439.532 732.494,471.49 707.267,495.812 
					699.73,471.073 671.667,415.703 667.579,385.623 			"/>
				<polygon fill="#F5F5F5" points="692.251,387.842 667.579,385.623 686.083,355.259 707.592,341.893 736.99,337.898 
					761.082,346.113 			"/>
			</g>
			<g>
				<polygon fill="#ECECEC" points="883.344,539.53 894.459,526.531 918.33,525.371 920.36,533.276 905.066,543.71 			"/>
				<polygon fill="#B1B1B1" points="920.36,533.276 928.452,535.832 918.33,525.371 			"/>
				<polygon fill="#9C9B9B" points="905.066,543.71 920.36,533.276 928.452,535.832 913.623,549.684 			"/>
				<polygon fill="#C6C6C5" points="883.344,539.53 870.139,537.146 882.373,552.118 913.623,549.684 905.066,543.71 			"/>
				<polygon fill="#D9D9D9" points="835.005,480.683 815.103,488.396 830.667,508.953 851.702,507.487 			"/>
				<polygon fill="#B1B1B1" points="883.344,539.53 851.702,507.487 830.667,508.953 870.139,537.146 			"/>
				<polygon fill="#C6C6C5" points="894.459,526.531 849.727,469.07 835.005,480.683 851.702,507.487 883.344,539.53 			"/>
				<polygon fill="#D9D9D9" points="816.205,469.623 835.005,480.683 849.727,469.07 835.005,452.676 			"/>
				<polygon fill="#9C9B9B" points="755.715,452.676 816.205,469.623 835.005,480.683 815.103,488.396 763.454,484.001 			"/>
				<polygon fill="#ECECEC" points="772.304,431.274 835.005,452.676 816.205,469.623 755.715,452.676 			"/>
			</g>
			<g>
				<polygon fill="#D9D9D9" points="790.654,415.07 808.757,407.387 761.082,346.113 765.772,380.638 			"/>
				<polygon fill="#ECECEC" points="822.54,439.043 838.136,435.888 808.757,407.387 790.654,415.07 			"/>
				<polygon fill="#C6C6C5" points="790.654,415.07 822.54,439.043 815.652,451.445 785.509,426.917 			"/>
				<polygon fill="#9C9B9B" points="765.772,380.638 764.862,400.054 785.509,426.917 790.654,415.07 			"/>
				<polyline fill="#B1B1B1" points="838.136,435.888 840.259,439.024 836.692,452.676 829.425,459.237 819.912,455.016 
					815.652,451.445 822.54,439.043 			"/>
			</g>
			<polygon fill="#C6C6C5" points="824.671,443.018 819.915,451.445 822.877,455.315 833.109,459.237 841.335,451.128 
				841.335,440.301 836.316,440.301 		"/>
			<g>
				<polygon fill="#ECECEC" points="825.354,573.771 838.517,560.842 854.969,566.267 840.858,575.145 			"/>
				<polygon fill="#9C9B9B" points="840.166,590.558 840.858,575.145 854.969,566.267 860.87,574.536 			"/>
				<polygon fill="#C6C6C5" points="822.39,592.974 813.854,571.154 825.354,573.771 840.858,575.145 840.166,590.558 			"/>
				<polygon fill="#C6C6C5" points="780.329,514.206 790.572,531.3 825.354,573.771 838.517,560.842 797.134,496.955 			"/>
				<polygon fill="#D9D9D9" points="762.4,518.037 780.329,514.206 790.572,531.3 774.915,537.781 			"/>
				<polygon fill="#B1B1B1" points="825.354,573.771 790.572,531.3 774.915,537.781 813.854,571.154 			"/>
				<polygon fill="#D9D9D9" points="767.227,497.188 784.092,481.496 797.134,496.955 780.329,514.206 			"/>
				<polygon fill="#C6C6C5" points="699.73,471.073 767.227,497.188 780.329,514.206 762.4,518.037 707.267,495.812 			"/>
				<polygon fill="#ECECEC" points="767.227,497.188 784.092,481.496 749.647,458.127 699.73,471.073 			"/>
			</g>
			<g>
				<path fill="#ECECEC" d="M795.361,462.364l21.97-24.313l21.305-9.544l8.422-1.373l3.119-0.108l-5.897-4.631h-0.006
					c-3.729-3.056-10.646-2.845-19.697,1.36c-17.204,7.989-35.589,27.358-41.065,43.261c-2.454,7.131-1.888,12.345,1.026,15.216
					l-0.01,0.005l0.07,0.053c0.37,0.358,0.776,0.681,1.221,0.964l5.762,4.537L795.361,462.364z"/>
				<path fill="#ECECEC" d="M814.662,480.941l19.305-14.153l13.392-19.556v-11.91c0,0-0.131-2.915-0.048-4.129l-7.197-0.698
					c1.16,2.434,1.102,5.966-0.438,10.437c-4.397,12.768-19.159,28.321-32.973,34.736c-6.136,2.85-11.046,3.413-14.231,2.045
					l3.022,6.71c0.735-0.132,7.801,0.714,7.801,0.714L814.662,480.941z"/>
				<g>
					<path fill="#B1B1B1" d="M812.511,480.229c-13.812,6.415-21.448,1.266-17.052-11.503c4.396-12.771,19.156-28.32,32.971-34.735
						c13.811-6.415,21.449-1.267,17.053,11.503C841.088,458.261,826.326,473.812,812.511,480.229 M830.385,428.314
						c-17.204,7.989-35.589,27.357-41.064,43.263c-5.473,15.899,4.036,22.315,21.239,14.325
						c17.203-7.989,35.587-27.359,41.061-43.259C857.096,426.739,847.587,420.325,830.385,428.314"/>
				</g>
			</g>
			<polygon fill="#ECECEC" points="771.659,463.432 777.759,464.483 780.509,463.542 785.43,462.364 783.691,466.506 
				786.821,467.559 790.942,467.559 797.012,464.961 798.354,462.364 801.162,463.984 800.306,473.555 798.107,479.871 
				792.472,483.708 786.917,485.137 773.858,482.654 765.538,479.617 		"/>
			<polygon fill="#C6C6C5" points="777.11,471.343 786.293,471.992 792.472,470.536 795.761,468.69 790.942,467.559 797.012,464.961 
				798.354,462.364 801.162,463.984 800.306,473.555 798.107,479.871 792.472,483.708 786.917,485.137 773.858,482.654 
				767.227,480.234 770.798,463.145 776.66,464.295 775.523,470.909 		"/>
			<g>
				<polygon fill="#D9D9D9" points="721.451,457.307 692.251,387.842 709.656,410.891 731.108,450.448 			"/>
				<polygon fill="#ECECEC" points="721.451,457.307 731.108,450.448 774.564,461.542 772.363,471.343 			"/>
				<polygon fill="#D9D9D9" points="702.12,466.2 721.451,457.307 715.423,476.051 			"/>
				<polygon fill="#ECECEC" points="667.579,385.623 692.251,387.842 721.451,457.307 702.12,466.2 671.667,415.703 			"/>
				<polygon fill="#C6C6C5" points="715.423,476.051 721.451,457.307 772.363,471.343 768.927,486.679 			"/>
			</g>
			<polygon fill="#D9D9D9" points="689.633,358.427 677.55,341.875 673.675,319.303 677.037,302.71 689.027,292.142 702.417,285.85 
				715.71,287.838 727.324,294.916 736.333,303.918 740.768,317.009 744.656,337.769 744.146,349.423 740.29,359.473 728.83,366.358 
				709.597,367.219 		"/>
			<polygon fill="#C6C6C5" points="739.715,342.066 724.796,349.526 701.077,348.187 696.881,350.146 677.55,341.875 
				689.633,358.427 709.597,367.219 728.83,366.358 740.29,359.473 744.146,349.423 744.656,337.769 740.768,317.009 		"/>
			<polygon fill="#9C9B9B" points="740.768,317.009 736.719,327.691 725.364,334.606 708.511,335.084 694.218,331.307 
				690.222,334.988 690.222,342.041 696.881,350.146 710.536,356.167 729.483,355.314 740.457,348.952 744.656,337.769 		"/>
			<polygon fill="#ECECEC" points="673.675,319.303 692.251,324.741 717.438,320.643 732.494,313.374 736.333,303.918 
				727.324,294.916 715.71,287.838 702.417,285.85 689.027,292.142 677.037,302.71 		"/>
			<polygon fill="#C6C6C5" points="839.805,447.166 835.501,457.816 843.439,461.342 847.358,460.339 853.769,445.752 
				851.829,442.014 850.518,445.274 		"/>
			<polygon fill="#ECECEC" points="824.671,443.018 826.548,449.1 834.208,451.445 835.642,449.087 839.467,448.96 845.78,448.751 
				847.468,445.675 846.114,444.017 842.336,443.347 839.28,442.014 840.259,439.024 834.713,438.111 		"/>
			<polygon fill="#C6C6C5" points="824.671,443.018 829.186,446.026 834.542,443.018 840.259,444.88 847.468,445.675 845.78,448.751 
				835.642,449.087 834.208,451.445 826.548,449.1 		"/>
		</g>
	</g>
	<g id="aileron-back">
		<g>
			<polygon fill="#C6C6C5" points="513.366,54.894 438.531,11.688 438.531,147.957 471.531,167.009 513.366,146.269 		"/>
			<polygon fill="#B1B1B1" points="513.366,54.894 518.951,51.607 518.951,142.982 513.366,146.269 		"/>
			<g>
				<polygon fill="#D9D9D9" points="518.951,51.607 443.873,8.4 438.531,11.688 513.366,54.894 			"/>
			</g>
		</g>
		<g>
			<polygon fill="#B1B1B1" points="367.238,162.107 503.875,83.038 503.875,89.929 435.477,129.51 367.238,168.998 		"/>
			<g>
				<polygon fill="#ECECEC" points="503.875,83.038 447.738,50.767 311.344,129.836 367.238,162.107 			"/>
			</g>
		</g>
		<g>
			<polygon fill="#B1B1B1" points="330.88,122.081 467.516,43.01 467.516,49.901 399.118,89.482 330.88,128.971 		"/>
			<g>
				<polygon fill="#D9D9D9" points="467.516,43.01 438.51,11.725 302.116,90.794 330.88,122.081 			"/>
			</g>
		</g>
		<g>
			<polygon fill="#C6C6C5" points="371.126,137.103 296.291,93.897 296.291,230.166 329.291,249.218 371.126,228.478 		"/>
			<polygon fill="#B1B1B1" points="371.126,137.103 376.711,133.816 376.711,225.19 371.126,228.478 		"/>
			<g>
				<polygon fill="#D9D9D9" points="376.711,133.816 301.633,90.609 296.291,93.897 371.126,137.103 			"/>
			</g>
		</g>
	</g>
	<g id="roue-front-right">
		<path fill="#575756" d="M1016.268,704.924c0.104-36.689-25.686-81.364-57.618-99.791c-15.68-9.058-29.913-10.079-40.362-4.444
			l-0.021-0.04l-66.144,38.508l12.07,19.529c-0.007,0.295-0.024,0.579-0.024,0.879c-0.1,36.687,25.693,81.363,57.62,99.792
			c2.286,1.317,4.534,2.447,6.75,3.43l9.131,14.779l32.921-18.726c0.208-0.115,0.42-0.23,0.626-0.351l28.463-16.654l-0.006-0.012
			C1009.891,735.729,1016.219,722.987,1016.268,704.924z"/>
		<g>
			<path fill="#868686" d="M893.538,643.011c-31.926-18.435-57.891-3.639-57.994,33.051c-0.103,36.686,25.688,81.36,57.62,99.791
				c31.925,18.43,57.892,3.638,57.994-33.05C951.262,706.114,925.467,661.438,893.538,643.011"/>
		</g>
		<g>
			<path fill="#C6C6C5" d="M893.453,673.994c-17.036-9.837-30.885-1.939-30.942,17.638c-0.055,19.568,13.707,43.403,30.741,53.234
				c17.03,9.832,30.886,1.94,30.942-17.632C924.247,707.661,910.486,683.826,893.453,673.994"/>
		</g>
		<path fill="#D9D9D9" d="M924.194,727.234c-0.013,3.87-0.569,7.28-1.579,10.191c-2.723-0.659-5.598-1.809-8.581-3.529
			c-17.03-9.831-30.796-33.665-30.737-53.234c0.009-3.896,0.588-7.298,1.621-10.208c2.709,0.67,5.571,1.831,8.535,3.54
			C910.486,683.826,924.247,707.661,924.194,727.234z"/>
	</g>
	<g id="roue-back-right">
		<path fill="#575756" d="M391.031,343.562c0.101-36.689-25.688-81.363-57.62-99.791c-15.679-9.055-29.912-10.077-40.362-4.441
			l-0.023-0.041l-66.144,38.507l12.071,19.53c-0.005,0.295-0.022,0.58-0.022,0.879c-0.103,36.687,25.691,81.363,57.62,99.791
			c2.283,1.318,4.533,2.449,6.748,3.43l9.132,14.778l32.919-18.725c0.211-0.116,0.421-0.23,0.627-0.35l28.464-16.657l-0.005-0.01
			C384.651,374.369,390.98,361.626,391.031,343.562z"/>
		<g>
			<path fill="#868686" d="M268.3,281.653c-31.926-18.436-57.89-3.64-57.994,33.048c-0.103,36.685,25.689,81.361,57.62,99.791
				c31.926,18.431,57.892,3.639,57.993-33.048C326.022,344.754,300.229,300.079,268.3,281.653"/>
		</g>
		<g>
			<path fill="#C6C6C5" d="M268.213,312.635c-17.035-9.837-30.885-1.94-30.941,17.637c-0.055,19.568,13.708,43.402,30.741,53.233
				c17.03,9.833,30.885,1.941,30.942-17.63C299.009,346.303,285.249,322.467,268.213,312.635"/>
		</g>
		<path fill="#D9D9D9" d="M298.955,365.875c-0.01,3.869-0.57,7.28-1.58,10.191c-2.722-0.659-5.597-1.808-8.58-3.53
			c-17.03-9.83-30.795-33.665-30.739-53.234c0.012-3.896,0.59-7.299,1.621-10.209c2.711,0.67,5.573,1.832,8.536,3.542
			C285.249,322.467,299.009,346.303,298.955,365.875z"/>
	</g>
</g>
</svg>
