<?xml version="1.0" encoding="utf-8"?>
<!-- Generator: Adobe Illustrator 17.1.0, SVG Export Plug-In . SVG Version: 6.00 Build 0)  -->
<!DOCTYPE svg PUBLIC "-//W3C//DTD SVG 1.1//EN" "http://www.w3.org/Graphics/SVG/1.1/DTD/svg11.dtd">
<svg version="1.1" id="Calque_1" xmlns="http://www.w3.org/2000/svg" xmlns:xlink="http://www.w3.org/1999/xlink" x="0px" y="0px"
	 viewBox="-17 73 612 612" enable-background="new -17 73 612 612" xml:space="preserve">
<circle opacity="0.2" cx="289" cy="379" r="307"/>
<circle fill="#8CBAB9" cx="289" cy="379" r="300"/>
<circle opacity="0.1" cx="289" cy="379" r="281"/>
<rect x="30.5" y="205" fill="none" width="512.4" height="395.5"/>
<g opacity="0">
	<text transform="matrix(1 0 0 1 108.2031 303.584)" fill="#333333" font-family="'SourceSansPro-Bold'" font-size="154.9411">KILIX</text>
	<text transform="matrix(1 0 0 1 107.3281 404.3066)" fill="#333333" font-family="'SourceSansPro-Bold'" font-size="115.3738">WANTS</text>
	<text transform="matrix(1 0 0 1 117.5195 548.7549)" fill="#333333" font-family="'SourceSansPro-Bold'" font-size="190.519">YOU</text>
</g>
<g>
	<g enable-background="new    ">
		<path fill="#333333" d="M135.8,213.8h21.5v38.7h0.4l28.3-38.7h23.3l-28.6,37.7l33.9,56.8h-23.5l-22.9-39.9l-11,14.5v25.4h-21.5
			V213.8z"/>
		<path fill="#333333" d="M224.7,213.8h21.5v94.5h-21.5V213.8z"/>
		<path fill="#333333" d="M268.2,213.8h21.5v76.5h37.3v18h-58.7V213.8z"/>
		<path fill="#333333" d="M343,213.8h21.5v94.5H343V213.8z"/>
		<path fill="#333333" d="M403.1,259.7l-24.6-45.9h23.9l8.1,17.8c2.2,4.3,4.2,9.3,7,15.2h0.6c2.2-5.9,4.1-10.9,5.9-15.2l7.5-17.8
			h22.8l-24.5,47l26.1,47.5h-23.8l-9.3-19.3c-2.5-4.9-4.6-9.7-7.1-15.5h-0.6c-2.3,5.8-4.3,10.6-6.5,15.5l-8.8,19.3H377L403.1,259.7z
			"/>
	</g>
	<g enable-background="new    ">
		<path fill="#333333" d="M125.4,332.2h16.3l4.9,32.9c1,7.3,1.9,14.8,2.9,22.2h0.4c1.3-7.4,2.7-14.9,4.1-22.2l7.6-32.9H175l7.7,32.9
			c1.4,7.1,2.8,14.7,4.2,22.2h0.4c0.9-7.6,1.8-15,2.8-22.2l4.9-32.9h15.2l-12.5,70.4h-20l-6.9-31.9c-1.1-5.4-2.1-11.1-2.8-16.3h-0.4
			c-0.9,5.2-1.7,10.9-2.8,16.3l-6.7,31.9h-19.6L125.4,332.2z"/>
		<path fill="#333333" d="M253,385.8h-21.6l-4.3,16.7h-16.2l22.1-70.4h19l22.1,70.4h-16.8L253,385.8z M249.7,373.4l-1.7-6.5
			c-1.9-7-3.8-15.3-5.7-22.7h-0.4c-1.6,7.4-3.6,15.7-5.5,22.7l-1.7,6.5H249.7z"/>
		<path fill="#333333" d="M281.5,332.2h16.3l18.3,35l7,15.5h0.4c-0.8-7.4-2.1-17.4-2.1-25.7v-24.8h15.1v70.4h-16.3L302,367.5
			l-6.9-15.3h-0.4c0.8,7.8,2.1,17.2,2.1,25.5v24.9h-15.2V332.2z"/>
		<path fill="#333333" d="M367,345.5h-19.4v-13.4h54.6v13.4h-19.3v57H367V345.5z"/>
		<path fill="#333333" d="M415,382.8c5,4.3,11.4,7.3,17.3,7.3c6.6,0,9.8-2.6,9.8-6.8c0-4.4-4-5.8-10.1-8.4l-9.1-3.9
			c-7.3-2.9-14.2-9-14.2-19.2c0-11.7,10.5-20.9,25-20.9c8.1,0,16.6,3.2,22.7,9.3l-8,10c-4.6-3.6-9.1-5.6-14.7-5.6
			c-5.4,0-9,2.4-9,6.4c0,4.3,4.6,5.8,10.8,8.3l9,3.7c8.5,3.5,13.9,9.2,13.9,19.1c0,11.7-9.7,21.8-26.4,21.8
			c-9.2,0-18.9-3.5-26.1-10.1L415,382.8z"/>
	</g>
	<g enable-background="new    ">
		<path fill="#333333" d="M167,496.3l-34.9-74.9h28l10.5,26.7c3,8.7,6.1,16.8,9.4,25.7h0.7c3.2-8.9,6.6-16.9,9.8-25.7l10.3-26.7
			h27.4l-35.1,74.9v41.4H167V496.3z"/>
		<path fill="#333333" d="M231.7,479c0-38,21.6-59.7,52.8-59.7c31.4,0,52.8,21.9,52.8,59.7c0,38-21.4,60.8-52.8,60.8
			C253.3,539.8,231.7,517,231.7,479z M310.3,479c0-23.2-10-37.1-25.8-37.1c-15.7,0-25.8,13.9-25.8,37.1c0,23.3,10.2,38.1,25.8,38.1
			C300.4,517.2,310.3,502.4,310.3,479z"/>
		<path fill="#333333" d="M358.5,421.5h26.2v65.1c0,22.8,7.1,30.7,20.1,30.7s20.7-7.8,20.7-30.7v-65.1h25.3v62.4c0,39-15.9,56-46,56
			s-46.3-16.9-46.3-56V421.5z"/>
	</g>
</g>
</svg>
