<?xml version="1.0" encoding="utf-8"?>
<!-- Generator: Adobe Illustrator 17.0.0, SVG Export Plug-In . SVG Version: 6.00 Build 0)  -->
<!DOCTYPE svg PUBLIC "-//W3C//DTD SVG 1.1//EN" "http://www.w3.org/Graphics/SVG/1.1/DTD/svg11.dtd">
<svg version="1.1" id="VALEUR-dispatch-green" xmlns="http://www.w3.org/2000/svg" xmlns:xlink="http://www.w3.org/1999/xlink"
	 x="0px" y="0px" width="1600px" height="900px" viewBox="0 0 1600 900" enable-background="new 0 0 1600 900" xml:space="preserve"
	>
<polygon id="carenage-right-vert" fill="#95C11F" points="584.148,470.168 555.334,487 555.334,530.455 649.965,585.09 
	679.087,568.26 679.087,524.805 "/>
<polygon id="carenage-left" fill="#95C11F" points="932.842,267.794 904.027,284.626 904.027,328.08 998.658,382.717 
	1027.781,365.885 1027.781,322.431 "/>
<polygon id="siege-vert" fill="#95C11F" points="768.762,386.072 768.762,385.941 747.015,278.108 736.042,274.635 666.417,315.073 
	699.463,428.613 709.002,432.979 709.016,432.971 774.926,464.541 844.851,424.105 844.851,411.68 "/>
<path id="roue-back-left-vert" fill="#95C11F" d="M1028.052,211.063c0.051-18.529-12.975-41.092-29.1-50.398
	c-7.92-4.574-15.107-5.089-20.385-2.243l-0.012-0.021l-33.088,19.263c-0.061,0.034-0.12,0.07-0.181,0.105l-0.137,0.08l0.003,0.004
	c-5.155,3.08-8.35,9.514-8.375,18.633c-0.052,18.528,12.976,41.091,29.101,50.398c9.023,5.21,17.102,5.161,22.478,0.863l0.001,0.002
	l31.315-18.046l-0.002-0.005C1024.829,226.622,1028.026,220.187,1028.052,211.063z"/>
<path id="roue-front-left-vert" fill="#95C11F" d="M1215.606,319.557c0.051-18.529-12.975-41.092-29.1-50.399
	c-7.92-4.573-15.107-5.089-20.385-2.243l-0.012-0.021l-33.1,19.271c-0.05,0.028-0.1,0.058-0.149,0.087l-0.155,0.09l0.003,0.005
	c-5.155,3.08-8.35,9.514-8.376,18.634c-0.051,18.527,12.975,41.09,29.102,50.398c9.022,5.209,17.1,5.16,22.476,0.863l0.001,0.002
	l31.318-18.047l-0.004-0.004C1212.384,335.113,1215.581,328.68,1215.606,319.557z"/>
<path id="roue-back-right-vert" fill="#95C11F" d="M468.417,533.822c0.052-18.529-12.974-41.092-29.1-50.397
	c-7.919-4.574-15.107-5.09-20.384-2.243l-0.011-0.021l-33.086,19.263c-0.062,0.034-0.123,0.071-0.185,0.107l-0.134,0.078
	l0.002,0.004c-5.155,3.08-8.349,9.515-8.375,18.634c-0.052,18.529,12.975,41.092,29.101,50.398c9.022,5.21,17.1,5.161,22.476,0.863
	l0.001,0.002l31.317-18.047l-0.003-0.004C465.195,549.381,468.392,542.945,468.417,533.822z"/>
<path id="roue-front-right-vert" fill="#95C11F" d="M655.972,642.314c0.051-18.527-12.974-41.09-29.1-50.396
	c-7.919-4.574-15.107-5.09-20.385-2.244l-0.011-0.021l-33.089,19.266c-0.059,0.033-0.117,0.068-0.176,0.102l-0.14,0.082l0.003,0.004
	c-5.155,3.081-8.35,9.515-8.375,18.635c-0.052,18.527,12.975,41.09,29.101,50.396c9.022,5.21,17.101,5.162,22.477,0.864v0.001
	l31.318-18.045l-0.004-0.006C652.749,657.873,655.946,651.438,655.972,642.314z"/>
<g id="moteur-elec-green">
	<path fill="#95C11F" d="M607.283,235.622l-38.872,22.515v25.538c-2.732-3.664-6.009-6.776-9.54-8.814
		c-4.7-2.713-8.967-3.019-12.099-1.331l-0.007-0.013c0,0-39.097,22.655-39.096,22.654c0,0,0.015-0.008,0.022-0.012
		c0.016-0.009-4.693,2.722-4.693,2.722c-0.036,0.02-0.071,0.041-0.106,0.062l-0.084,0.049l0.002,0.003
		c-3.06,1.828-4.956,5.646-4.971,11.059c-0.014,4.912,1.528,10.298,4.083,15.251l-3.97,2.295c-0.002,0.001-0.004,0.002-0.007,0.004
		l-0.009,0.005l0.001,0.001c-0.256,0.153-0.416,0.471-0.416,0.924c-0.003,0.919,0.644,2.04,1.443,2.501
		c0.449,0.259,0.845,0.249,1.112,0.035l0.005,0.008l3.883-2.241c3.007,4.662,6.893,8.675,11.147,11.13
		c5.355,3.092,10.149,3.063,13.34,0.513v0.001l5.021-2.896c-0.002,0.001-0.003,0.003-0.005,0.005l25.09-14.469l-0.001-0.002
		c0.009-0.005,0.018-0.013,0.027-0.019l12.586-7.261l-0.001-0.003c3.062-1.826,4.959-5.646,4.974-11.062
		c0.014-4.781-1.443-10.014-3.877-14.857l21.925,12.659l38.998-22.516v-29.554L607.283,235.622z"/>
</g>
<polygon id="carenage-front-vert" fill="#95C11F" points="1172.073,543.736 1161.866,589.75 1132.13,607.032 1091.981,555.494 
	1084.897,537.955 1042.603,491.604 1021.011,504.152 1020.421,504.492 998.829,517.043 998.829,525.566 1041.124,571.92 
	1059.88,582.676 1103.583,623.622 1079.368,637.695 1024.731,629.367 973.949,673.225 973.949,698.045 1107.091,689.377 
	1208.325,630.543 1222.856,553.391 1222.856,528.57 "/>
</svg>
