<?xml version="1.0" encoding="utf-8"?>
<!-- Generator: Adobe Illustrator 17.0.0, SVG Export Plug-In . SVG Version: 6.00 Build 0)  -->
<!DOCTYPE svg PUBLIC "-//W3C//DTD SVG 1.1//EN" "http://www.w3.org/Graphics/SVG/1.1/DTD/svg11.dtd">
<svg version="1.1" id="AMELIO-F1" xmlns="http://www.w3.org/2000/svg" xmlns:xlink="http://www.w3.org/1999/xlink" x="0px" y="0px"
	 width="1600px" height="900px" viewBox="0 0 1600 900" enable-background="new 0 0 1600 900" xml:space="preserve">
<g id="F1">
	<g id="contour-f1">
		<path fill="#D9D9D9" stroke="#DB4C14" stroke-width="10" stroke-linejoin="round" stroke-miterlimit="10" d="M1176.593,613.993
			c17.864,10.313,33.857,10.217,44.502,1.711l0.002,0.003l32.92-18.727c0.209-0.116,0.422-0.229,0.627-0.352l28.464-16.656
			l-0.005-0.01c10.216-6.092,16.545-18.835,16.593-36.898c0.103-36.69-25.687-81.364-57.618-99.792
			c-15.68-9.055-29.914-10.078-40.363-4.442l-0.021-0.041l-65.549,38.161c-0.091,0.051-0.18,0.105-0.27,0.157l-0.325,0.189
			l0.006,0.01c-10.207,6.099-16.531,18.839-16.582,36.895C1118.87,550.888,1144.662,595.564,1176.593,613.993z"/>
		<path fill="#D9D9D9" stroke="#DB4C14" stroke-width="10" stroke-linejoin="round" stroke-miterlimit="10" d="M1351.795,602.266
			l-11.024,6.567v15.61l-0.242-0.139l-79.56,46.014L957.616,469.974l-13.189-18.707l8.876-5.159V353.52l0,0l0,0l0,0l0,0
			l-102.68-59.289l-160.489-31.988l-53.857-30.995l21.592-12.635l-0.006-0.009c10.217-6.094,16.545-18.836,16.596-36.9
			c0.102-36.688-25.688-81.364-57.619-99.791c-15.68-9.055-29.914-10.078-40.363-4.443l-0.022-0.04l-57.504,33.477V51.775
			L443.873,8.568l-5.342,3.288v0.06l-0.021-0.023L302.116,90.961l0.182,0.197l-0.665-0.382l-5.342,3.288v136.269l9.893,5.711
			c-4.822,0.18-9.242,1.353-13.135,3.453l-0.023-0.041l-65.556,38.165c-0.084,0.048-0.167,0.098-0.251,0.146l-0.337,0.196
			l0.007,0.011c-10.207,6.099-16.531,18.838-16.583,36.894c-0.103,36.685,25.689,81.361,57.62,99.791
			c17.865,10.313,33.859,10.217,44.504,1.71l0.001,0.002l32.919-18.725c0.211-0.116,0.421-0.23,0.627-0.35l28.464-16.657
			l-0.005-0.01c5.198-3.101,9.383-7.932,12.253-14.302l86.971,50.216l84.257,140.387l102.681,59.286l55.181-32.07l145.869,20.497
			l31.094,11.034l-39.975,23.273c-0.134,0.075-0.266,0.154-0.398,0.232l-0.245,0.143l0.005,0.008
			c-10.208,6.099-16.533,18.839-16.584,36.897c-0.103,36.686,25.688,81.36,57.62,99.791c17.864,10.313,33.858,10.217,44.504,1.709
			l0.002,0.004l32.921-18.726c0.208-0.115,0.42-0.23,0.626-0.351l28.463-16.654l-0.006-0.012
			c10.217-6.094,16.545-18.836,16.594-36.899c0.046-16.194-4.958-33.94-13.302-50.302l176.54,62.645l-143.907,83.231l-13.542-7.793
			l-11.025,6.57v46.283l74.836,43.208l11.25-6.558l0.017,0.01l159.157-91.981l49.017-28.328l2.505,0.889l3.498,1.718v-0.477
			l26.756-7.477l12.823-15.522v-5.475l64.716-37.401v-0.006l11.266-6.568v-46.285L1351.795,602.266z M498.654,182.734
			l-27.027-15.605l22.17-10.991C494.127,164.77,495.836,173.778,498.654,182.734z M448.538,153.902l-67.088,38.986l-4.739,2.754
			v-31.958l58.766-34.006l3.054-1.767v20.214L448.538,153.902z M727.228,344.836l-83.746,48.671L727.228,344.836L727.228,344.836z"
			/>
	</g>
	<g id="roue-back-left">
		<path fill="#575756" d="M674.459,181.537c0.102-36.688-25.688-81.364-57.619-99.791c-15.68-9.055-29.914-10.078-40.363-4.443
			l-0.022-0.04l-66.143,38.506l12.07,19.53c-0.005,0.296-0.022,0.581-0.022,0.88c-0.102,36.687,25.691,81.363,57.62,99.791
			c2.283,1.319,4.533,2.448,6.747,3.431l9.133,14.778l32.919-18.726c0.211-0.116,0.42-0.23,0.626-0.351l28.464-16.656l-0.006-0.009
			C668.08,212.343,674.408,199.601,674.459,181.537z"/>
		<g>
			<path fill="#868686" d="M551.728,119.628c-31.925-18.437-57.89-3.641-57.993,33.047c-0.104,36.686,25.689,81.362,57.62,99.791
				c31.926,18.432,57.891,3.638,57.993-33.048C609.452,182.728,583.658,138.053,551.728,119.628"/>
		</g>
		<g>
			<path fill="#C6C6C5" d="M551.643,150.61c-17.036-9.838-30.886-1.94-30.941,17.636c-0.056,19.569,13.707,43.403,30.741,53.234
				c17.029,9.833,30.886,1.94,30.941-17.631C582.438,184.277,568.677,160.442,551.643,150.61"/>
		</g>
		<path fill="#D9D9D9" d="M582.383,203.849c-0.011,3.87-0.569,7.281-1.58,10.192c-2.721-0.658-5.597-1.808-8.579-3.529
			c-17.03-9.831-30.795-33.665-30.739-53.233c0.011-3.896,0.59-7.3,1.622-10.209c2.71,0.669,5.572,1.831,8.535,3.542
			C568.677,160.442,582.438,184.277,582.383,203.849z"/>
	</g>
	<g id="roue-front-left">
		<path fill="#575756" d="M1299.696,542.897c0.103-36.69-25.687-81.364-57.618-99.792c-15.68-9.055-29.914-10.078-40.363-4.442
			l-0.021-0.041l-66.145,38.508l12.069,19.529c-0.005,0.295-0.021,0.579-0.021,0.877c-0.103,36.688,25.692,81.365,57.621,99.793
			c2.283,1.319,4.532,2.45,6.749,3.432l9.13,14.779l32.92-18.727c0.209-0.116,0.422-0.229,0.627-0.352l28.464-16.656l-0.005-0.01
			C1293.319,573.703,1299.648,560.96,1299.696,542.897z"/>
		<g>
			<path fill="#868686" d="M1176.969,480.986c-31.928-18.437-57.893-3.638-57.996,33.049c-0.103,36.686,25.689,81.362,57.62,99.791
				c31.925,18.431,57.89,3.638,57.993-33.047C1234.688,544.089,1208.896,499.413,1176.969,480.986"/>
		</g>
		<g>
			<path fill="#C6C6C5" d="M1176.881,511.969c-17.035-9.837-30.886-1.94-30.941,17.637c-0.055,19.568,13.707,43.402,30.741,53.234
				c17.029,9.832,30.886,1.94,30.94-17.632C1207.676,545.637,1193.914,521.802,1176.881,511.969"/>
		</g>
		<path fill="#D9D9D9" d="M1207.621,565.208c-0.01,3.871-0.568,7.281-1.576,10.191c-2.725-0.657-5.6-1.807-8.584-3.528
			c-17.029-9.829-30.794-33.663-30.737-53.234c0.011-3.896,0.59-7.301,1.621-10.209c2.712,0.671,5.574,1.831,8.536,3.541
			C1193.914,521.802,1207.676,545.637,1207.621,565.208z"/>
	</g>
	<g id="aileron-front">
		<g>
			<polygon fill="#C6C6C5" points="1415.607,651.872 1340.771,608.666 1340.771,654.949 1415.607,698.157 			"/>
			<polygon fill="#B1B1B1" points="1415.607,651.872 1426.873,645.304 1426.873,691.589 1415.607,698.157 			"/>
			<g>
				<polygon fill="#D9D9D9" points="1426.873,645.304 1351.795,602.099 1340.771,608.666 1415.607,651.872 				"/>
			</g>
		</g>
		<g>
			<polygon fill="#C6C6C5" points="1097.134,870.178 1022.299,826.971 1022.299,839.009 1097.134,882.217 			"/>
			<polygon fill="#B1B1B1" points="1097.134,870.178 1415.607,686.125 1415.607,698.163 1256.291,790.236 1097.134,882.217 			"/>
			<g>
				<polygon fill="#ECECEC" points="1415.607,686.125 1340.529,642.919 1022.299,826.971 1097.134,870.178 				"/>
			</g>
		</g>
		<g>
			<polygon fill="#C6C6C5" points="1097.134,851.396 1022.299,808.189 1022.299,820.227 1097.134,863.435 			"/>
			<polygon fill="#B1B1B1" points="1097.134,851.396 1415.607,667.343 1415.607,679.381 1256.291,771.454 1097.134,863.435 			"/>
			<g>
				<polygon fill="#ECECEC" points="1415.607,667.343 1340.529,624.137 1022.299,808.189 1097.134,851.396 				"/>
			</g>
		</g>
		<g>
			<polygon fill="#C6C6C5" points="1085.867,842.479 1011.031,799.274 1011.031,845.557 1085.867,888.765 			"/>
			<polygon fill="#B1B1B1" points="1085.867,842.479 1097.134,835.911 1097.134,882.197 1085.867,888.765 			"/>
			<g>
				<polygon fill="#D9D9D9" points="1097.134,835.911 1022.056,792.704 1011.031,799.274 1085.867,842.479 				"/>
			</g>
		</g>
		<g>
			<polygon fill="#C6C6C5" points="1263.172,729.972 1227.34,709.317 1227.34,734.602 1263.172,755.255 			"/>
			<polygon fill="#B1B1B1" points="1263.172,729.972 1271.731,724.996 1271.731,750.281 1263.172,755.255 			"/>
			<g>
				<polygon fill="#D9D9D9" points="1271.731,724.996 1235.658,704.342 1227.34,709.317 1263.172,729.972 				"/>
			</g>
		</g>
		<g>
			<polygon fill="#C6C6C5" points="1240.441,738.81 1204.61,718.156 1204.61,747.724 1240.441,768.378 			"/>
			<polygon fill="#B1B1B1" points="1240.441,738.81 1249.001,733.836 1249.001,763.403 1240.441,768.378 			"/>
			<g>
				<polygon fill="#D9D9D9" points="1249.001,733.836 1212.929,713.182 1204.61,718.156 1240.441,738.81 				"/>
			</g>
		</g>
	</g>
	<g id="carrosserie">
		<polygon fill="#9C9B9B" points="953.303,445.941 953.303,353.352 898.121,385.421 898.121,478.011 		"/>
		<polygon fill="#C6C6C5" points="314.273,231.758 314.273,324.348 473.66,416.376 473.66,323.786 		"/>
		<polygon fill="#D9D9D9" points="557.917,556.763 557.917,464.172 473.66,323.786 473.66,416.376 		"/>
		<polygon fill="#C6C6C5" points="660.598,616.049 660.598,523.46 557.917,464.172 557.917,556.763 		"/>
		<polygon fill="#9C9B9B" points="715.779,583.979 715.779,491.389 660.598,523.46 660.598,616.049 		"/>
		<polygon fill="#B1B1B1" points="861.648,604.476 861.648,525.58 715.779,491.389 715.779,583.979 		"/>
		<polygon fill="#C6C6C5" points="727.229,344.668 727.229,450.023 895.182,546.993 895.182,441.644 		"/>
		<polygon fill="#C6C6C5" points="1311.312,764.038 1311.312,752.538 861.648,525.58 861.648,604.476 		"/>
		<g>
			<polygon fill="#FA604B" points="314.273,232.235 314.273,258.825 473.66,350.853 473.66,324.263 			"/>
			<polygon fill="#FB806F" points="557.917,491.24 557.917,464.649 473.66,324.263 473.66,350.853 			"/>
			<polygon fill="#FA604B" points="660.598,550.526 660.598,523.937 557.917,464.649 557.917,491.24 			"/>
			<polygon fill="#BB4838" points="715.779,518.456 715.779,491.866 660.598,523.937 660.598,550.526 			"/>
			<polygon fill="#FA604B" points="861.648,543.639 861.648,526.057 715.779,491.866 715.779,518.456 			"/>
			<polygon fill="#FA604B" points="1311.312,764.515 1311.312,753.015 861.648,526.057 861.648,543.639 			"/>
		</g>
		<polygon fill="#FB806F" points="1338.068,756.561 1338.068,745.06 1311.312,752.538 1311.312,764.038 		"/>
		<polygon fill="#868686" points="727.229,344.668 643.483,393.339 643.483,498.375 727.229,450.023 		"/>
		<polygon fill="#BB4838" points="1350.891,741.039 1350.891,729.538 1338.068,745.06 1338.068,756.561 		"/>
		<path fill="#ECECEC" d="M957.616,469.807l-59.495-84.386l55.182-32.069l-102.68-59.289L608.01,245.707l-159.382-92.025
			L381.45,192.72l-67.177,39.039l159.387,92.028l84.257,140.386l102.682,59.288l55.181-32.071l145.869,34.191l449.664,226.958
			l26.756-7.479l12.822-15.521L957.616,469.807z M835.113,454.61l-42.619,24.767l-149.011-86.038l83.745-48.671l149.012,86.04
			L835.113,454.61z"/>
		<g>
			<g>
				<path fill="#384047" d="M965.262,494.707c3.92,2.263,6.528,5.5,2.443,7.874l-23.597,13.713l3.843,2.219l22.031-0.396
					l9.884,5.706l-7.363,4.279l-3.433-1.982l-17.448,0.2l-1.713,11.176l3.225,1.862l-7.366,4.281l-9.816-5.668l2.247-13.713
					l-3.911-2.258l-5.591,3.249l3.225,1.862l-7.366,4.281l-13.042-7.53l41.872-24.333c0.096-0.056,1.912-1.111-1.246-2.934
					l7.296-4.24C961.296,492.798,963.424,493.645,965.262,494.707z"/>
			</g>
			<g>
				<path fill="#384047" d="M1009.746,523.72c2.59,1.496,2.604,3.919,0.031,5.414c-2.571,1.494-10.793,1.112-11.226,1.092
					c-0.036-0.251-0.723-5.012,1.848-6.506C1002.972,522.224,1007.155,522.224,1009.746,523.72z"/>
			</g>
			<g enable-background="new    ">
				<g>
					<polygon fill="#FFD462" points="1052.814,566.254 1061.544,571.317 1053.097,585.205 					"/>
				</g>
				<g>
					<polygon fill="#FFDB6C" points="1061.544,571.317 1059.86,582.134 1053.097,585.205 					"/>
				</g>
				<g>
					<polygon fill="#FFE69F" points="1052.814,566.254 1053.097,585.205 1048.194,572.272 1045.317,570.611 					"/>
				</g>
				<g>
					<polygon fill="#9CBFE2" points="1078.631,581.159 1058.626,586.796 1059.86,582.134 					"/>
				</g>
				<g>
					<polygon fill="#75ABD8" points="1076.921,588.773 1076.724,588.785 1058.696,589.818 1053.79,589.769 1058.626,586.796 					
						"/>
				</g>
				<g>
					<polygon fill="#4B9BD1" points="1058.626,586.796 1087.253,586.137 1079.756,590.494 1076.887,588.803 1076.724,588.785 
						1076.921,588.773 					"/>
				</g>
				<g>
					<polygon fill="#028BC1" points="1087.253,586.137 1058.626,586.796 1078.631,581.159 					"/>
				</g>
				<g>
					<polygon fill="#FFC33E" points="1059.86,582.134 1058.626,586.796 1053.097,585.205 					"/>
				</g>
				<g>
					<polygon fill="#FB8878" points="1050.244,587.722 1018.102,586.427 1025.605,582.066 1028.6,583.795 					"/>
				</g>
				<g>
					<polygon fill="#FFA933" points="1058.626,586.796 1050.244,587.722 1053.097,585.205 					"/>
				</g>
				<g>
					<polygon fill="#FDAFA5" points="1046.565,582.814 1050.244,587.722 1028.6,583.795 					"/>
				</g>
				<g>
					<polygon fill="#FFD469" points="1048.194,572.272 1053.097,585.205 1050.244,587.722 1046.565,582.814 					"/>
				</g>
				<g>
					<polygon fill="#FFBE66" points="1058.626,586.796 1053.79,589.769 1045.41,590.532 1050.244,587.722 					"/>
				</g>
				<g>
					<polygon fill="#FB8878" points="1050.244,587.722 1045.41,590.532 1026.857,591.481 					"/>
				</g>
				<g>
					<polygon fill="#FA604B" points="1050.244,587.722 1026.857,591.481 1018.102,586.427 					"/>
				</g>
				<g>
					<polygon fill="#8DC4BC" points="1058.696,589.818 1057.074,600.235 1053.79,589.769 					"/>
				</g>
				<g>
					<polygon fill="#26A89C" points="1053.79,589.769 1043.919,601.332 1045.41,590.532 					"/>
				</g>
				<g>
					<polygon fill="#7BBAB1" points="1053.79,589.769 1052.541,606.31 1043.919,601.332 					"/>
				</g>
				<g>
					<polygon fill="#53B0A5" points="1053.79,589.769 1057.074,600.235 1060.044,601.95 1052.541,606.31 					"/>
				</g>
			</g>
			<g enable-background="new    ">
				<g>
					<path fill="#384047" d="M999.362,535.079l-24.619,14.307c-1.024,0.673-1.703,1.465,1.112,3.09l-7.366,4.281
						c-1.86-0.443-3.994-1.294-5.841-2.361c-3.94-2.274-6.58-5.53-2.494-7.904l22.029-12.802l-3.225-1.862l7.363-4.279
						L999.362,535.079z"/>
				</g>
				<g>
					<path fill="#384047" d="M1031.796,533.042c3.938,2.274,6.578,5.528,2.495,7.901l-39.078,22.709l3.225,1.862l-7.366,4.281
						l-13.042-7.53l41.601-24.176c2.123-1.234-0.69-2.927-1.013-3.114l7.334-4.296
						C1027.811,531.123,1029.947,531.974,1031.796,533.042z"/>
				</g>
				<g>
					<path fill="#384047" d="M1043.979,560.84l-24.619,14.307c-1.024,0.673-1.703,1.465,1.112,3.09l-7.366,4.281
						c-1.859-0.443-3.994-1.294-5.841-2.361c-3.94-2.274-6.58-5.53-2.494-7.904l22.029-12.802l-3.225-1.862l7.363-4.279
						L1043.979,560.84z"/>
				</g>
			</g>
			<g>
				<path fill="#384047" d="M1054.052,549.3c2.588,1.494,2.601,3.917,0.028,5.413c-2.571,1.494-10.791,1.113-11.223,1.093
					c-0.036-0.251-0.723-5.012,1.848-6.506C1047.278,547.804,1051.461,547.804,1054.052,549.3z"/>
			</g>
		</g>
	</g>
	<g id="prise-air">
		<g>
			<polygon fill="#C6C6C5" points="590.325,247.906 447.033,246.164 439.028,258.426 582.321,341.128 			"/>
			<g>
				<polygon fill="#F5F5F5" points="627.694,226.176 484.463,224.436 447.033,246.164 590.325,247.906 				"/>
			</g>
		</g>
		<g>
			<polygon fill="#C6C6C5" points="653.574,284.422 590.325,247.906 582.321,341.14 645.57,377.656 			"/>
			<polygon fill="#B1B1B1" points="653.574,284.422 691.209,262.694 699.214,346.686 673.843,361.333 645.57,377.656 			"/>
			<g>
				<polygon fill="#D9D9D9" points="691.209,262.694 627.755,226.176 590.325,247.906 653.574,284.422 				"/>
			</g>
		</g>
		<g id="extia_prise">
			<g>
				<path fill="#384047" d="M595.158,315.597l0.176,5.046c0.001,0.05-0.014,0.091-0.04,0.112c-0.024,0.024-0.057,0.034-0.098,0.038
					c-0.084,0.005-0.212-0.014-0.452-0.094c-0.48-0.163-1.406-0.577-3.25-1.592c-0.628-0.346-1.272-0.702-1.92-1.076
					c-1.578-0.911-3.171-1.929-4.589-3.192c-1.417-1.263-2.666-2.781-3.521-4.676c-0.896-1.982-1.507-3.797-1.89-5.607
					c-0.385-1.812-0.54-3.617-0.535-5.589c0.007-2.593,0.294-5.477,0.718-9.052c0.047-0.399,0.093-0.788,0.139-1.169
					c0.109,0.025,0.22,0.05,0.33,0.076c-0.051,0.429-0.103,0.868-0.157,1.319c-0.423,3.572-0.708,6.444-0.715,9.008
					c-0.005,1.95,0.149,3.719,0.524,5.485c0.373,1.763,0.966,3.526,1.844,5.469c0.804,1.778,1.975,3.211,3.348,4.435
					c1.372,1.222,2.939,2.227,4.506,3.131c0.643,0.371,1.285,0.726,1.913,1.072c2.113,1.164,3.008,1.526,3.365,1.617
					c0.081,0.022,0.133,0.029,0.163,0.03l-0.166-4.752c-0.392-0.163-1.455-0.63-3.368-1.646c-0.21-0.113-0.413-0.227-0.613-0.343
					c-1.872-1.081-3.414-2.311-4.616-3.883c-1.202-1.571-2.04-3.471-2.508-5.823c-0.313-1.57-0.464-3.345-0.458-5.384
					c0.005-1.868,0.143-3.957,0.415-6.31c0.095-0.819,0.186-1.606,0.275-2.363c0.108,0.036,0.218,0.072,0.327,0.109
					c-0.093,0.792-0.189,1.618-0.288,2.479c-0.271,2.341-0.408,4.418-0.413,6.266c-0.006,2.27,0.186,4.197,0.571,5.847
					c0.384,1.652,0.957,3.022,1.716,4.206c0.506,0.789,1.097,1.498,1.779,2.15c0.908,0.869,1.975,1.634,3.202,2.342
					c0.197,0.114,0.398,0.226,0.601,0.335c2.321,1.23,3.376,1.649,3.493,1.693c0.074,0.038,0.108,0.072,0.136,0.115
					C595.134,315.482,595.155,315.542,595.158,315.597z"/>
			</g>
			<g enable-background="new    ">
				<g>
					<path fill="#394148" d="M555.009,274.245c0.749,1.87,1.074,3.83,1.07,5.464c-0.003,1.678-0.363,3.01-0.935,3.548l-0.157,0.195
						l-0.143,0.112c-0.3,0.324-0.759,0.46-1.348,0.446c-0.883-0.021-2.051-0.382-3.326-0.93c-1.274-0.548-2.656-1.28-3.971-2.039
						c-2.421-1.398-4.616-2.882-5.54-3.475c-0.049-0.028-0.091-0.033-0.121-0.014c-0.033,0.019-0.049,0.062-0.044,0.117
						c0.082,1.18,0.276,2.384,0.599,3.543c0.322,1.159,0.773,2.272,1.37,3.262c0.667,1.107,1.52,2.007,2.379,2.732
						c0.856,0.723,1.719,1.274,2.418,1.677l0.078,0.047c0.114,0.071,0.226,0.137,0.337,0.201c0.543,0.313,1.05,0.548,1.52,0.72
						c-0.695,0.819-1.62,2.015-2.222,3.224c-2.569-1.496-4.866-3.92-6.72-7.068c-2.244-3.807-3.628-8.161-3.687-11.977
						c-0.004-0.242-0.004-0.478-0.004-0.71c0.008-2.962,0.372-5.158,0.989-6.741c0.927-2.374,2.419-3.376,4.16-3.516
						c1.741-0.14,3.738,0.587,5.663,1.699C550.369,266.489,553.424,270.274,555.009,274.245z M551.893,278.566
						c0.045-0.219,0.084-0.612,0.086-1.127c0.003-0.917-0.113-2.208-0.586-3.454c-0.213-0.558-0.494-1.431-1.154-2.402
						c-0.66-0.97-1.692-2.026-3.379-3c-0.397-0.229-0.928-0.452-1.524-0.564c-0.894-0.166-1.934-0.082-2.829,0.648
						c-0.897,0.726-1.644,2.095-1.963,4.476c-0.007,0.048,0.007,0.108,0.036,0.167c0.03,0.056,0.074,0.105,0.119,0.131
						c0.349,0.202,0.686,0.396,1.014,0.585c4.415,2.549,6.849,3.949,8.232,4.593c0.692,0.321,1.125,0.46,1.425,0.444
						c0.149-0.009,0.265-0.061,0.347-0.149C551.803,278.825,551.854,278.704,551.893,278.566"/>
				</g>
				<g>
					<path fill="#384047" d="M550.239,271.584c0.66,0.971,0.941,1.844,1.154,2.402c0.473,1.246,0.589,2.537,0.586,3.454
						c-0.001,0.516-0.041,0.908-0.083,1.117c-0.042,0.148-0.093,0.268-0.177,0.357c-0.083,0.088-0.198,0.141-0.347,0.149
						c-0.3,0.016-0.734-0.123-1.425-0.444c-1.384-0.644-3.818-2.044-8.232-4.593c-0.328-0.189-0.665-0.384-1.014-0.585
						c-0.045-0.026-0.089-0.074-0.119-0.131c-0.03-0.058-0.044-0.118-0.037-0.167c0.318-2.381,1.066-3.75,1.963-4.476
						c0.895-0.73,1.935-0.815,2.829-0.648c0.596,0.112,1.127,0.335,1.515,0.559C548.547,269.558,549.578,270.614,550.239,271.584z
						 M551.589,278.295c0.035-0.178,0.073-0.554,0.074-1.038c0.004-0.879-0.116-2.125-0.546-3.25
						c-0.223-0.586-0.475-1.368-1.073-2.247c-0.598-0.878-1.549-1.867-3.195-2.819c-0.349-0.202-0.851-0.414-1.414-0.519
						c-0.563-0.106-1.19-0.105-1.798,0.112c-1.191,0.427-2.316,1.683-2.755,4.65c0.284,0.164,0.561,0.324,0.831,0.48
						c2.535,1.463,4.416,2.548,5.817,3.325c1.399,0.778,2.318,1.248,2.916,1.481c0.399,0.157,0.654,0.204,0.813,0.183
						c0.091-0.013,0.152-0.048,0.201-0.098C551.516,278.496,551.556,278.411,551.589,278.295"/>
				</g>
				<g>
					<path fill="#F26E25" d="M597.494,291.314c0.085,0.052,0.153,0.173,0.153,0.271l-0.027,4.61
						c-0.698-0.236-1.227-0.55-1.753-0.853c-4.233-2.443-8.081-4.171-11.565-5.346c-0.109-0.037-0.219-0.073-0.327-0.109
						c-1.302-0.429-2.55-0.78-3.749-1.063c-0.11-0.026-0.221-0.052-0.33-0.077c-4.525-1.028-8.317-1.071-11.427-0.607
						c-0.089,0.013-0.178,0.027-0.266,0.041c-1.146,0.184-2.197,0.437-3.156,0.733c-0.084,0.026-0.168,0.052-0.25,0.079
						c-0.775,0.25-1.488,0.529-2.141,0.822c-6.296,2.827-8.001,7.583-8.095,7.858c-0.026,0.077-0.087,0.092-0.155,0.053
						l-5.701-3.292c-0.053-0.03-0.101-0.088-0.13-0.154c-0.028-0.067-0.035-0.133-0.015-0.179c0.01-0.02,0.03-0.061,0.064-0.13
						c0.034-0.067,0.083-0.156,0.144-0.268c0.123-0.222,0.302-0.529,0.534-0.899c0.466-0.741,1.15-1.739,2.056-2.829
						c1.811-2.181,4.504-4.733,8.093-6.345c0.828-0.372,1.682-0.7,2.562-0.981c0.083-0.027,0.167-0.053,0.251-0.079
						c1.019-0.313,2.072-0.564,3.158-0.747c0.088-0.015,0.177-0.029,0.266-0.043c2.585-0.407,5.354-0.433,8.294-0.013
						c2.063,0.295,4.266,0.823,6.568,1.555c0.109,0.035,0.218,0.07,0.328,0.105c1.212,0.394,2.45,0.845,3.709,1.347
						c0.108,0.043,0.216,0.087,0.325,0.131c3.446,1.396,7.041,3.179,10.661,5.269C596.21,290.547,596.852,290.926,597.494,291.314z
						 M597.305,295.828l0.025-4.248c-0.588-0.356-1.175-0.702-1.762-1.04c-7.678-4.433-15.24-7.474-21.478-8.365
						c-5.423-0.774-10.262-0.023-14.432,1.848c-6.522,2.93-10.082,9.006-10.711,10.191l5.344,3.086
						c0.276-0.739,2.152-5.179,8.154-7.876c5.892-2.649,16.689-4.107,33.422,5.556C596.343,295.254,596.822,295.536,597.305,295.828
						"/>
				</g>
				<g>
					<path fill="#F26E25" d="M578.678,311.458c0.032,0.074,0.037,0.149,0.008,0.191c-0.027,0.045-0.081,0.05-0.139,0.016l-5-2.887
						c-0.053-0.03-0.101-0.088-0.13-0.154l-8.62-19.631c0.083-0.027,0.166-0.053,0.25-0.079l8.584,19.549l4.62,2.667l-10.048-22.95
						c0.088-0.014,0.177-0.028,0.266-0.041L578.678,311.458z"/>
				</g>
				<g>
					<path fill="#F26E25" d="M568.202,288.181l10.048,22.95l-4.62-2.667l-8.584-19.549
						C566.006,288.618,567.057,288.365,568.202,288.181z"/>
				</g>
				<g>
					<path fill="#F26E25" d="M560.34,270.223l5.08,11.604c-1.086,0.183-2.139,0.433-3.158,0.747l-5.937-13.522L560.34,270.223z"/>
				</g>
				<g>
					<path fill="#F26E25" d="M560.34,270.223l-4.015-1.172l5.937,13.522c-0.084,0.026-0.168,0.052-0.251,0.079l-6.076-13.837
						c-0.028-0.065-0.035-0.131-0.017-0.176c0.019-0.045,0.06-0.063,0.11-0.048l4.343,1.269c0.012,0.004,0.025,0.009,0.038,0.016
						c0.052,0.03,0.102,0.088,0.131,0.156l5.145,11.751c-0.089,0.014-0.177,0.028-0.266,0.043L560.34,270.223z"/>
				</g>
				<g>
					<path fill="#394148" d="M594.85,315.637l0.166,4.752c-0.03-0.001-0.082-0.008-0.163-0.03c-0.357-0.092-1.252-0.453-3.365-1.617
						c-0.628-0.346-1.27-0.7-1.913-1.072c-1.566-0.904-3.134-1.909-4.506-3.131c-1.373-1.224-2.544-2.657-3.348-4.435
						c-0.878-1.943-1.47-3.706-1.844-5.469c-0.375-1.766-0.529-3.535-0.524-5.485c0.007-2.563,0.293-5.435,0.715-9.008
						c0.054-0.451,0.106-0.89,0.157-1.319c1.199,0.283,2.447,0.634,3.749,1.063c-0.089,0.757-0.18,1.544-0.275,2.363
						c-0.271,2.352-0.409,4.441-0.415,6.31c-0.006,2.038,0.146,3.814,0.458,5.384c0.468,2.353,1.306,4.252,2.508,5.823
						c1.202,1.571,2.744,2.802,4.616,3.883c0.2,0.116,0.403,0.23,0.611,0.341C593.395,315.007,594.458,315.474,594.85,315.637z"/>
				</g>
				<g>
					<path fill="#F26E25" d="M569.872,266.61c2.653,1.531,4.795,5.243,4.787,8.291c-0.009,3.048-2.166,4.277-4.818,2.746
						c-2.651-1.531-4.795-5.243-4.787-8.291C565.063,266.308,567.221,265.079,569.872,266.61z M573.02,277.608
						c0.815-0.466,1.32-1.464,1.324-2.889c0.004-1.424-0.494-3.001-1.303-4.404c-0.81-1.402-1.93-2.626-3.169-3.342
						c-1.238-0.715-2.362-0.787-3.177-0.322c-0.815,0.464-1.32,1.462-1.324,2.887s0.494,3.001,1.303,4.405
						c0.81,1.402,1.93,2.626,3.168,3.341C571.082,278,572.205,278.072,573.02,277.608"/>
				</g>
				<g>
					<path fill="#F26E25" d="M569.871,266.974c1.24,0.716,2.36,1.939,3.169,3.342c0.81,1.402,1.307,2.979,1.303,4.404
						s-0.509,2.422-1.324,2.889c-0.815,0.464-1.938,0.393-3.178-0.323c-1.238-0.715-2.358-1.939-3.168-3.341
						c-0.81-1.404-1.307-2.981-1.303-4.405c0.004-1.424,0.509-2.423,1.324-2.887S568.633,266.259,569.871,266.974z"/>
				</g>
				<g>
					<path fill="#384047" d="M582.018,274.462c-0.222,1.609-0.578,4.339-1.142,8.969c-0.11-0.036-0.218-0.071-0.328-0.105
						c0.864-7.088,1.243-9.772,1.406-10.791c0.069-0.431,0.098-0.564,0.114-0.617c0.004-0.016,0.007-0.024,0.013-0.038
						c0.004-0.007,0.009-0.015,0.023-0.028c0.03-0.025,0.074-0.024,0.122,0.004l3.891,2.255c0.047,0.027,0.089,0.075,0.119,0.133
						c0.03,0.058,0.044,0.118,0.036,0.167c0,0.002-0.012,0.08-0.036,0.242c-0.023,0.165-0.06,0.413-0.106,0.753
						c-0.094,0.679-0.237,1.72-0.426,3.165c-0.208,1.599-0.473,3.692-0.796,6.34c-0.108-0.044-0.216-0.087-0.325-0.131
						c0.784-6.445,1.235-9.634,1.348-10.413l-3.583-2.076c-0.008,0.042-0.018,0.098-0.032,0.174
						C582.266,272.752,582.175,273.329,582.018,274.462z"/>
				</g>
				<g>
					<path fill="#394148" d="M585.932,274.365c-0.113,0.779-0.564,3.968-1.348,10.413c-1.259-0.502-2.497-0.953-3.709-1.347
						c0.565-4.63,0.92-7.36,1.142-8.969c0.157-1.134,0.248-1.71,0.299-2c0.014-0.076,0.024-0.132,0.032-0.174L585.932,274.365z"/>
				</g>
				<g>
					<path fill="#F26E25" d="M595.569,290.539c0.586,0.339,1.174,0.685,1.762,1.04l-0.025,4.248
						c-0.483-0.292-0.962-0.574-1.438-0.848c-16.733-9.663-27.53-8.205-33.422-5.556c-6.002,2.696-7.877,7.136-8.154,7.876
						l-5.344-3.086c0.63-1.185,4.189-7.26,10.711-10.191c4.17-1.871,9.009-2.622,14.432-1.848
						C580.328,283.066,587.891,286.106,595.569,290.539z"/>
				</g>
			</g>
			<g>
				<path fill="#384047" d="M603.576,304.406l0.063,21.563c0.001,0.05-0.016,0.086-0.046,0.104c-0.03,0.017-0.07,0.012-0.112-0.013
					l-4.19-2.419c-0.087-0.05-0.157-0.171-0.157-0.272l0.058-21.493c0-0.047,0.017-0.085,0.046-0.101
					c0.03-0.017,0.071-0.013,0.112,0.011l4.068,2.349C603.504,304.185,603.575,304.306,603.576,304.406z M599.448,323.37
					l3.874,2.237l-0.063-21.2l-3.755-2.168L599.448,323.37"/>
			</g>
			<g>
				<polygon fill="#394148" points="603.26,304.407 603.323,325.607 599.448,323.37 599.505,302.239 				"/>
			</g>
			<g>
				<path fill="#384047" d="M627.361,321.2c0.129,2.129,0.168,4.578,0.161,6.872c-0.011,3.866-0.147,7.283-0.182,7.956
					c-0.029,0.547-0.047,0.941-0.077,1.232c-0.032,0.289-0.073,0.484-0.167,0.61c-0.063,0.085-0.148,0.128-0.248,0.145
					c-0.105,0.016-0.236,0.003-0.38-0.023c-0.142-0.025-0.297-0.065-0.439-0.105c-0.253-0.074-0.47-0.151-0.517-0.168
					c-1.876-0.542-4.704-1.851-6.805-2.874c-0.553-0.268-1.111-0.561-1.667-0.883c-2.511-1.451-5.015-3.477-6.901-6.446
					c-0.86-1.353-1.507-2.759-1.937-4.206c-0.431-1.445-0.643-2.927-0.639-4.434c0.001-0.228,0.006-0.458,0.016-0.687
					c0.091-1.976,0.62-3.411,1.564-4.262c0.944-0.852,2.3-1.117,4.026-0.784c0.883,0.171,2.073,0.725,3.389,1.485
					c2.027,1.17,4.35,2.835,6.26,4.38c0.007-0.183,0.012-0.391,0.012-0.615c0.001-0.449-0.014-0.96-0.06-1.448
					c-0.046-0.489-0.124-0.959-0.241-1.309c-0.082-0.258-0.301-0.635-0.641-1.081c-0.34-0.448-0.798-0.969-1.348-1.537
					c-1.102-1.138-2.573-2.471-4.235-3.864c-3.325-2.787-7.415-5.819-10.872-8.067c-0.084-0.055-0.149-0.173-0.147-0.268
					l0.044-4.432c0-0.049,0.017-0.086,0.049-0.101c0.03-0.016,0.07-0.01,0.111,0.013c2.861,1.804,6.225,4.184,9.436,6.78
					s6.266,5.402,8.508,8.068c1.493,1.777,2.631,3.495,3.203,5.067c0.193,0.535,0.338,1.241,0.455,2.088
					C627.209,319.151,627.297,320.135,627.361,321.2z M627.025,335.825c0.035-0.662,0.169-4.08,0.18-7.935
					c0.011-3.431-0.079-7.216-0.425-9.702c-0.113-0.825-0.257-1.51-0.423-1.963c-0.522-1.441-1.608-3.101-3.073-4.84
					c-1.464-1.743-3.301-3.563-5.309-5.348c-3.958-3.519-8.579-6.895-12.334-9.276l-0.04,4.073
					c4.537,2.965,10.091,7.215,13.646,10.536c1.199,1.12,2.17,2.134,2.811,2.976c0.366,0.484,0.628,0.911,0.757,1.3
					c0.14,0.429,0.219,0.926,0.268,1.438c0.047,0.511,0.063,1.033,0.061,1.492c-0.001,0.32-0.01,0.609-0.021,0.841
					c-0.003,0.051-0.024,0.087-0.061,0.099c-0.029,0.009-0.063,0.001-0.098-0.019c-1.953-1.592-4.346-3.315-6.408-4.506
					c-1.31-0.756-2.468-1.285-3.289-1.444c-1.68-0.325-2.975-0.064-3.877,0.748c-0.9,0.813-1.409,2.179-1.498,4.095
					c-0.009,0.224-0.016,0.447-0.016,0.669c-0.004,1.467,0.202,2.895,0.615,4.281c0.411,1.383,1.029,2.724,1.853,4.022
					c1.801,2.836,4.224,4.81,6.694,6.236c0.548,0.316,1.098,0.606,1.643,0.872c2.092,1.02,4.916,2.323,6.752,2.852
					c0.153,0.054,0.232,0.08,0.321,0.109c0.182,0.058,0.414,0.124,0.61,0.159c0.129,0.024,0.245,0.033,0.31,0.02
					c0.071-0.011,0.112-0.035,0.15-0.082c0.036-0.048,0.066-0.125,0.09-0.255C626.966,337.012,626.987,336.557,627.025,335.825"/>
			</g>
			<g>
				<path fill="#384047" d="M623.172,323.877c0.06,0.057,0.101,0.143,0.105,0.217c0.069,1.124,0.096,2.144,0.094,3.066
					c-0.006,2.09-0.165,3.673-0.341,4.795c-0.01,0.064-0.056,0.095-0.115,0.08c-1.416-0.374-3.434-1.182-5.129-2.082
					c-0.517-0.274-0.984-0.522-1.419-0.773c-0.64-0.37-1.208-0.745-1.749-1.219c-0.542-0.475-1.052-1.047-1.568-1.794
					c-0.358-0.519-0.688-1.211-0.932-1.975c-0.244-0.765-0.399-1.6-0.399-2.402c0-0.085,0.003-0.168,0.006-0.251
					c0.053-1.138,0.313-2.001,0.829-2.527c0.516-0.524,1.286-0.702,2.33-0.5c0.752,0.147,1.597,0.478,2.543,0.937
					c0.125,0.062,0.261,0.135,0.405,0.217c0.74,0.427,1.716,1.13,2.69,1.901C621.495,322.34,622.46,323.177,623.172,323.877z
					 M622.734,331.611c0.167-1.099,0.315-2.629,0.321-4.632c0.003-0.88-0.023-1.85-0.085-2.915c-0.682-0.66-1.593-1.448-2.506-2.172
					c-0.954-0.757-1.913-1.446-2.619-1.854c-0.15-0.087-0.277-0.155-0.392-0.212c-0.93-0.454-1.753-0.773-2.469-0.913
					c-0.995-0.192-1.698-0.019-2.172,0.459c-0.474,0.48-0.719,1.276-0.771,2.366c-0.003,0.078-0.005,0.156-0.005,0.234
					c-0.002,0.746,0.144,1.528,0.369,2.235c0.226,0.707,0.531,1.341,0.836,1.78c0.487,0.705,0.954,1.227,1.456,1.668
					c0.504,0.441,1.043,0.8,1.671,1.162c0.425,0.245,0.889,0.492,1.407,0.767C619.4,330.449,621.352,331.234,622.734,331.611"/>
			</g>
			<g>
				<path fill="#394148" d="M626.781,318.188c0.346,2.486,0.436,6.271,0.425,9.702c-0.011,3.856-0.146,7.274-0.18,7.935
					c-0.038,0.732-0.059,1.187-0.108,1.448c-0.025,0.13-0.055,0.207-0.09,0.255c-0.037,0.047-0.078,0.071-0.15,0.082
					c-0.065,0.013-0.181,0.004-0.31-0.02c-0.196-0.035-0.428-0.102-0.61-0.159c-0.09-0.029-0.168-0.054-0.223-0.073
					c-1.934-0.564-4.758-1.868-6.85-2.888c-0.545-0.266-1.095-0.555-1.643-0.872c-2.471-1.427-4.893-3.4-6.694-6.236
					c-0.824-1.298-1.442-2.638-1.853-4.022c-0.413-1.386-0.619-2.814-0.615-4.281c0.001-0.222,0.007-0.445,0.016-0.669
					c0.089-1.916,0.598-3.283,1.498-4.095c0.901-0.812,2.196-1.072,3.877-0.748c0.821,0.159,1.979,0.688,3.266,1.431
					c2.084,1.204,4.478,2.927,6.399,4.497c0.067,0.042,0.101,0.049,0.129,0.04c0.037-0.011,0.058-0.048,0.061-0.099
					c0.011-0.232,0.02-0.521,0.021-0.841c0.001-0.459-0.014-0.981-0.061-1.492c-0.048-0.512-0.128-1.009-0.268-1.437
					c-0.13-0.389-0.392-0.816-0.757-1.3c-0.641-0.842-1.612-1.856-2.811-2.976c-3.556-3.322-9.109-7.572-13.646-10.536l0.04-4.073
					c3.755,2.381,8.376,5.757,12.334,9.276c2.008,1.785,3.844,3.605,5.309,5.348c1.464,1.739,2.551,3.4,3.073,4.84
					C626.523,316.678,626.668,317.362,626.781,318.188z M623.029,331.955c0.175-1.121,0.335-2.704,0.341-4.795
					c0.003-0.922-0.024-1.943-0.094-3.066c-0.004-0.074-0.045-0.16-0.105-0.217c-0.712-0.7-1.677-1.537-2.649-2.309
					c-0.974-0.771-1.95-1.474-2.69-1.901c-0.143-0.083-0.28-0.155-0.405-0.217c-0.946-0.46-1.791-0.791-2.543-0.937
					c-1.043-0.202-1.813-0.024-2.33,0.5c-0.516,0.526-0.776,1.389-0.829,2.527c-0.003,0.083-0.006,0.166-0.006,0.251
					c-0.001,0.802,0.155,1.637,0.399,2.402c0.244,0.764,0.573,1.455,0.932,1.975c0.516,0.747,1.026,1.32,1.568,1.794
					c0.541,0.474,1.108,0.849,1.749,1.219c0.435,0.251,0.902,0.499,1.419,0.773c1.694,0.9,3.713,1.707,5.129,2.082
					C622.974,332.051,623.019,332.02,623.029,331.955"/>
			</g>
			<g>
				<path fill="#394148" d="M599.222,292.495c1.38,0.836,2.763,1.69,4.341,2.674l-0.013,4.654c-1.42-0.929-2.872-1.781-4.321-2.651
					L599.222,292.495z"/>
			</g>
			<g>
				<path fill="#384047" d="M603.616,294.865c0.169,0.106,0.264,0.293,0.263,0.487l-0.013,4.654c0,0.101,0.002,0.199-0.062,0.231
					c-0.058,0.028-0.097,0.042-0.176-0.004l-0.021-0.012c-1.183-0.773-2.364-1.479-3.506-2.161
					c-0.273-0.164-0.547-0.327-0.821-0.492c-0.17-0.102-0.306-0.335-0.309-0.533l-0.027-4.683c0-0.098,0.035-0.16,0.096-0.193
					c0.058-0.033,0.138,0.003,0.222,0.051C600.648,293.009,602.044,293.884,603.616,294.865z M603.549,299.823l0.013-4.654
					c-1.577-0.984-2.96-1.838-4.341-2.674l0.007,4.677C600.677,298.042,602.129,298.893,603.549,299.823"/>
			</g>
			<g>
				<path fill="#384047" d="M555.279,274.213c0.785,1.965,1.119,3.989,1.115,5.677c-0.006,1.735-0.364,3.122-0.998,3.731
					l-0.148,0.186l-0.158,0.128c-0.334,0.355-0.84,0.495-1.458,0.48c-0.623-0.016-1.361-0.187-2.166-0.463
					c-1.613-0.554-3.5-1.529-5.267-2.549c-2.286-1.32-4.372-2.717-5.374-3.367c0.087,1.08,0.273,2.173,0.563,3.214
					c0.31,1.112,0.739,2.164,1.293,3.083c0.61,1.016,1.411,1.866,2.234,2.56c0.809,0.683,1.64,1.216,2.319,1.608l0.115,0.069
					c0.112,0.07,0.221,0.134,0.328,0.196c0.666,0.384,1.277,0.646,1.827,0.816c0.086,0.045,0.135,0.102,0.165,0.168
					c0.037,0.083,0.038,0.164,0.001,0.205c-0.719,0.824-1.803,2.179-2.449,3.515c-0.025,0.053-0.082,0.062-0.144,0.026
					c-0.055-0.033-0.11-0.064-0.168-0.1c-2.587-1.506-4.969-4.021-6.875-7.259c-2.303-3.909-3.72-8.368-3.781-12.285
					c-0.004-0.242-0.006-0.482-0.005-0.717c0.008-2.994,0.376-5.232,1.009-6.854c0.632-1.623,1.531-2.63,2.595-3.163
					c2.129-1.067,4.908-0.233,7.526,1.279C550.487,266.196,553.631,270.092,555.279,274.213z M555.137,283.265
					c0.579-0.547,0.938-1.879,0.942-3.557c0.005-1.633-0.321-3.593-1.07-5.464c-1.585-3.97-4.64-7.755-7.628-9.48
					c-1.933-1.116-3.929-1.844-5.67-1.703c-1.741,0.14-3.233,1.142-4.16,3.516c-0.617,1.583-0.981,3.78-0.989,6.741
					c-0.001,0.232,0,0.467,0.004,0.71c0.059,3.816,1.443,8.17,3.687,11.977c1.854,3.148,4.152,5.573,6.661,7.033
					c0.662-1.174,1.587-2.37,2.282-3.189c-0.47-0.173-0.977-0.407-1.52-0.72c-0.111-0.064-0.223-0.13-0.337-0.201l-0.078-0.047
					c-0.698-0.403-1.562-0.954-2.417-1.677c-0.859-0.724-1.712-1.624-2.379-2.732c-0.597-0.99-1.048-2.104-1.37-3.262
					c-0.322-1.159-0.517-2.363-0.599-3.543c-0.004-0.055,0.012-0.098,0.044-0.117c0.03-0.019,0.072-0.014,0.116,0.011
					c0.93,0.596,3.124,2.08,5.545,3.478c1.315,0.759,2.697,1.492,3.971,2.039c1.274,0.548,2.442,0.908,3.326,0.93
					c0.589,0.015,1.049-0.122,1.34-0.438l0.151-0.12L555.137,283.265"/>
			</g>
		</g>
		<g>
			<polygon fill="#FA604B" points="583.404,328.523 447.033,246.164 439.028,258.426 582.321,341.128 			"/>
			<polygon fill="#FA604B" points="646.853,362.716 583.404,328.523 582.321,341.14 645.57,377.656 			"/>
			<polygon fill="#BB4838" points="646.853,362.716 697.986,333.799 699.214,346.686 673.843,361.333 645.57,377.656 			"/>
		</g>
	</g>
	<g id="siege-pilote">
		<g>
			<g>
				<defs>
					<polygon id="SVGID_1_" points="643.483,393.339 792.494,479.377 876.24,430.708 895.182,260.396 643.483,259.002 					"/>
				</defs>
				<clipPath id="SVGID_2_">
					<use xlink:href="#SVGID_1_"  overflow="visible"/>
				</clipPath>
				<g id="siege_2_" clip-path="url(#SVGID_2_)">
					<g>
						<g>
							<polygon fill="#B1B1B1" points="669.25,393.577 733.858,356.214 753.953,455.851 753.953,467.372 698.735,499.313 							"/>
							<polygon fill="#C6C6C5" points="669.25,393.577 659.387,390.37 689.922,495.279 698.735,499.313 698.735,487.818 							"/>
							<g>
								<polygon fill="#F5F5F5" points="733.858,356.214 723.72,353.005 659.387,390.37 669.25,393.577 								"/>
							</g>
						</g>
						<g>
							<polygon fill="#C6C6C5" points="759.648,516.995 698.735,487.82 698.735,499.301 759.648,528.477 							"/>
							<polygon fill="#B1B1B1" points="759.648,516.995 824.257,479.633 824.257,491.115 759.648,528.477 							"/>
							<g>
								<polygon fill="#F5F5F5" points="824.257,479.633 753.677,455.88 698.735,487.82 759.648,516.995 								"/>
							</g>
						</g>
					</g>
				</g>
			</g>
		</g>
		<g>
			<g>
				<defs>
					<polygon id="SVGID_3_" points="643.483,393.339 792.494,479.377 876.24,430.708 895.182,260.396 643.483,259.002 					"/>
				</defs>
				<clipPath id="SVGID_4_">
					<use xlink:href="#SVGID_3_"  overflow="visible"/>
				</clipPath>
				
					<path id="contourpilote" clip-path="url(#SVGID_4_)" fill="#1E1E1E" stroke="#1996F4" stroke-width="11" stroke-linejoin="round" stroke-miterlimit="10" d="
					M918.244,525.4l-23.871,1.16l-44.732-57.461l-7.372-8.21l1.084,0.482l3.919-1.003l6.411-14.587l-1.94-3.738l-0.03,0.075
					c2.344-7.177,1.577-12.359-1.623-15.063l0.001,0l-5.897-4.631h-0.006c-3.628-2.974-10.281-2.843-18.975,1.04l-16.542-16.048
					l-47.675-61.274l-16.544-5.641l0.118-2.703l-3.888-20.76l-4.435-13.091l-9.009-9.002l-11.614-7.078l-13.293-1.988l-13.39,6.292
					l-11.99,10.568l-3.362,16.593l3.875,22.572l9.384,12.855l-0.851,0.529l-18.504,30.364l4.088,30.08l28.063,55.37l7.537,24.739
					l55.133,22.225l12.515,19.744l38.939,33.373l8.536,21.82l17.776-2.416l20.704-16.022l-5.901-8.269l-16.452-5.425l-41.383-63.887
					l-9.169-10.868l1.628,0.138l0.912,0.718c0.321,0.299,0.665,0.575,1.04,0.819l0.037,0.029l0.001-0.006
					c3.189,2.055,8.254,2.118,14.702-0.139l8.819,0.75l15.564,20.557l39.472,28.193l12.234,14.972l31.25-2.434l14.829-13.852
					L918.244,525.4z M764.258,411.149l0.518-11.066l20.647,26.863l16.319,13.28c-0.289,0.286-0.579,0.571-0.864,0.86l-28.661-9.783
					L764.258,411.149z M840.167,439.045l-2.117-3.128l-4.09-3.968c2.449-0.645,4.6-0.826,6.402-0.573
					C841.02,433.359,840.988,435.938,840.167,439.045z"/>
				<g id="pilote" clip-path="url(#SVGID_4_)">
					<g>
						<polygon fill="#C6C6C5" points="692.251,387.842 761.082,346.113 765.772,380.638 764.344,411.12 772.304,431.274 
							775.152,449.687 757.286,479.617 732.618,471.975 724.339,439.532 709.656,410.891 						"/>
						<polygon fill="#C6C6C5" points="692.251,387.842 709.656,410.891 724.339,439.532 732.494,471.49 707.267,495.812 
							699.73,471.073 671.667,415.703 667.579,385.623 						"/>
						<polygon fill="#F5F5F5" points="692.251,387.842 667.579,385.623 686.083,355.259 707.592,341.893 736.99,337.898 
							761.082,346.113 						"/>
					</g>
					<g>
						<polygon fill="#ECECEC" points="883.344,539.53 894.459,526.531 918.33,525.371 920.36,533.276 905.066,543.71 						"/>
						<polygon fill="#B1B1B1" points="920.36,533.276 928.452,535.832 918.33,525.371 						"/>
						<polygon fill="#9C9B9B" points="905.066,543.71 920.36,533.276 928.452,535.832 913.623,549.684 						"/>
						<polygon fill="#C6C6C5" points="883.344,539.53 870.139,537.146 882.373,552.118 913.623,549.684 905.066,543.71 						"/>
						<polygon fill="#D9D9D9" points="835.005,480.683 815.103,488.396 830.667,508.953 851.702,507.487 						"/>
						<polygon fill="#B1B1B1" points="883.344,539.53 851.702,507.487 830.667,508.953 870.139,537.146 						"/>
						<polygon fill="#C6C6C5" points="894.459,526.531 849.727,469.07 835.005,480.683 851.702,507.487 883.344,539.53 						"/>
						<polygon fill="#D9D9D9" points="816.205,469.623 835.005,480.683 849.727,469.07 835.005,452.676 						"/>
						<polygon fill="#9C9B9B" points="755.715,452.676 816.205,469.623 835.005,480.683 815.103,488.396 763.454,484.001 						"/>
						<polygon fill="#ECECEC" points="772.304,431.274 835.005,452.676 816.205,469.623 755.715,452.676 						"/>
					</g>
					<g>
						<polygon fill="#D9D9D9" points="790.654,415.07 808.757,407.387 761.082,346.113 765.772,380.638 						"/>
						<polygon fill="#ECECEC" points="822.54,439.043 838.136,435.888 808.757,407.387 790.654,415.07 						"/>
						<polygon fill="#C6C6C5" points="790.654,415.07 822.54,439.043 815.652,451.445 785.509,426.917 						"/>
						<polygon fill="#9C9B9B" points="765.772,380.638 764.862,400.054 785.509,426.917 790.654,415.07 						"/>
						<polyline fill="#B1B1B1" points="838.136,435.888 840.259,439.024 836.692,452.676 829.425,459.237 819.912,455.016 
							815.652,451.445 822.54,439.043 						"/>
					</g>
					<g>
						<polygon fill="#ECECEC" points="825.354,573.771 838.517,560.842 854.969,566.267 840.858,575.145 						"/>
						<polygon fill="#9C9B9B" points="840.166,590.558 840.858,575.145 854.969,566.267 860.87,574.536 						"/>
						<polygon fill="#C6C6C5" points="822.39,592.974 813.854,571.154 825.354,573.771 840.858,575.145 840.166,590.558 						"/>
						<polygon fill="#C6C6C5" points="780.329,514.206 790.572,531.3 825.354,573.771 838.517,560.842 797.134,496.955 						"/>
						<polygon fill="#D9D9D9" points="762.4,518.037 780.329,514.206 790.572,531.3 774.915,537.781 						"/>
						<polygon fill="#B1B1B1" points="825.354,573.771 790.572,531.3 774.915,537.781 813.854,571.154 						"/>
						<polygon fill="#D9D9D9" points="767.227,497.188 784.092,481.496 797.134,496.955 780.329,514.206 						"/>
						<polygon fill="#C6C6C5" points="699.73,471.073 767.227,497.188 780.329,514.206 762.4,518.037 707.267,495.812 						"/>
						<polygon fill="#ECECEC" points="767.227,497.188 784.092,481.496 749.647,458.127 699.73,471.073 						"/>
					</g>
					<g>
						<path fill="#ECECEC" d="M795.361,462.364l21.97-24.313l21.305-9.544l8.422-1.373l3.119-0.108l-5.897-4.631h-0.006
							c-3.729-3.056-10.646-2.845-19.697,1.36c-17.204,7.989-35.589,27.358-41.065,43.261c-2.454,7.131-1.888,12.345,1.026,15.216
							l-0.01,0.005l0.07,0.053c0.37,0.358,0.776,0.681,1.221,0.964l5.762,4.537L795.361,462.364z"/>
						<path fill="#ECECEC" d="M814.662,480.941l19.305-14.153l13.392-19.556v-11.91c0,0-0.131-2.915-0.048-4.129l-7.197-0.698
							c1.16,2.434,1.102,5.966-0.438,10.437c-4.397,12.768-19.159,28.321-32.973,34.736c-6.136,2.85-11.046,3.413-14.231,2.045
							l3.022,6.71c0.735-0.132,7.801,0.714,7.801,0.714L814.662,480.941z"/>
						<g>
							<path fill="#B1B1B1" d="M812.511,480.229c-13.812,6.415-21.448,1.266-17.052-11.503c4.396-12.771,19.156-28.32,32.971-34.735
								c13.811-6.415,21.449-1.267,17.053,11.503C841.088,458.261,826.326,473.812,812.511,480.229 M830.385,428.314
								c-17.204,7.989-35.589,27.357-41.064,43.263c-5.473,15.899,4.036,22.315,21.239,14.325
								c17.203-7.989,35.587-27.359,41.061-43.259C857.096,426.739,847.587,420.325,830.385,428.314"/>
						</g>
					</g>
					<g id="amelio-f1-gant1">
						<polygon fill="#ECECEC" points="771.659,463.432 777.759,464.483 780.509,463.542 785.43,462.364 783.691,466.506 
							786.821,467.559 790.942,467.559 797.012,464.961 798.354,462.364 801.162,463.984 800.306,473.555 798.107,479.871 
							792.472,483.708 786.917,485.137 773.858,482.654 765.538,479.617 						"/>
						<polygon fill="#C6C6C5" points="777.11,471.343 786.293,471.992 792.472,470.536 795.761,468.69 790.942,467.559 
							797.012,464.961 798.354,462.364 801.162,463.984 800.306,473.555 798.107,479.871 792.472,483.708 786.917,485.137 
							773.858,482.654 767.227,480.234 770.798,463.145 776.66,464.295 775.523,470.909 						"/>
					</g>
					<g>
						<polygon fill="#D9D9D9" points="721.451,457.307 692.251,387.842 709.656,410.891 731.108,450.448 						"/>
						<polygon fill="#ECECEC" points="721.451,457.307 731.108,450.448 774.564,461.542 772.363,471.343 						"/>
						<polygon fill="#D9D9D9" points="702.12,466.2 721.451,457.307 715.423,476.051 						"/>
						<polygon fill="#ECECEC" points="667.579,385.623 692.251,387.842 721.451,457.307 702.12,466.2 671.667,415.703 						"/>
						<polygon fill="#C6C6C5" points="715.423,476.051 721.451,457.307 772.363,471.343 768.927,486.679 						"/>
					</g>
					<g id="amelio-casque2">
						<polygon fill="#D9D9D9" points="689.633,358.427 677.55,341.875 673.675,319.303 677.037,302.71 689.027,292.142 
							702.417,285.85 715.71,287.838 727.324,294.916 736.333,303.918 740.768,317.009 744.656,337.769 744.146,349.423 
							740.29,359.473 728.83,366.358 709.597,367.219 						"/>
						<polygon fill="#C6C6C5" points="739.715,342.066 724.796,349.526 701.077,348.187 696.881,350.146 677.55,341.875 
							689.633,358.427 709.597,367.219 728.83,366.358 740.29,359.473 744.146,349.423 744.656,337.769 740.768,317.009 						"/>
						<polygon fill="#9C9B9B" points="740.768,317.009 736.719,327.691 725.364,334.606 708.511,335.084 694.218,331.307 
							690.222,334.988 690.222,342.041 696.881,350.146 710.536,356.167 729.483,355.314 740.457,348.952 744.656,337.769 						"/>
						<polygon fill="#ECECEC" points="673.675,319.303 692.251,324.741 717.438,320.643 732.494,313.374 736.333,303.918 
							727.324,294.916 715.71,287.838 702.417,285.85 689.027,292.142 677.037,302.71 						"/>
					</g>
					<g id="amelio-f1-gant2">
						<polygon fill="#C6C6C5" points="824.671,443.018 819.915,451.445 822.877,455.315 833.109,459.237 841.335,451.128 
							841.335,440.301 836.316,440.301 						"/>
						<polygon fill="#C6C6C5" points="839.805,447.166 835.501,457.816 843.439,461.342 847.358,460.339 853.769,445.752 
							851.829,442.014 850.518,445.274 						"/>
						<polygon fill="#ECECEC" points="824.671,443.018 826.548,449.1 834.208,451.445 835.642,449.087 839.467,448.96 
							845.78,448.751 847.468,445.675 846.114,444.017 842.336,443.347 839.28,442.014 840.259,439.024 834.713,438.111 						"/>
						<polygon fill="#C6C6C5" points="824.671,443.018 829.186,446.026 834.542,443.018 840.259,444.88 847.468,445.675 
							845.78,448.751 835.642,449.087 834.208,451.445 826.548,449.1 						"/>
					</g>
				</g>
			</g>
		</g>
	</g>
	<g id="aileron-back">
		<g>
			<polygon fill="#C6C6C5" points="513.366,54.894 438.531,11.688 438.531,147.957 471.531,167.009 513.366,146.269 			"/>
			<polygon fill="#B1B1B1" points="513.366,54.894 518.951,51.607 518.951,142.982 513.366,146.269 			"/>
			<g>
				<polygon fill="#D9D9D9" points="518.951,51.607 443.873,8.4 438.531,11.688 513.366,54.894 				"/>
			</g>
		</g>
		<g>
			<polygon fill="#B1B1B1" points="367.238,162.107 503.875,83.038 503.875,89.929 435.477,129.51 367.238,168.998 			"/>
			<g>
				<polygon fill="#ECECEC" points="503.875,83.038 447.738,50.767 311.344,129.836 367.238,162.107 				"/>
			</g>
		</g>
		<g>
			<polygon fill="#B1B1B1" points="330.88,122.081 467.516,43.01 467.516,49.901 399.118,89.482 330.88,128.971 			"/>
			<g>
				<polygon fill="#D9D9D9" points="467.516,43.01 438.51,11.725 302.116,90.794 330.88,122.081 				"/>
			</g>
		</g>
		<g>
			<polygon fill="#C6C6C5" points="371.126,137.103 296.291,93.897 296.291,230.166 329.291,249.218 371.126,228.478 			"/>
			<polygon fill="#B1B1B1" points="371.126,137.103 376.711,133.816 376.711,225.19 371.126,228.478 			"/>
			<g>
				<polygon fill="#D9D9D9" points="376.711,133.816 301.633,90.609 296.291,93.897 371.126,137.103 				"/>
			</g>
		</g>
		<g>
			<g enable-background="new    ">
				<g>
					<polygon fill="#9CBFE2" points="446.48,80.69 452.119,87.371 447.484,86.952 					"/>
				</g>
				<g>
					<polygon fill="#028BC1" points="451.412,77.824 452.119,87.371 446.48,80.69 					"/>
				</g>
				<g>
					<polygon fill="#4B9BD1" points="454.051,81.274 452.119,87.371 451.412,77.824 455.757,80.332 454.08,81.286 454.063,81.34 
											"/>
				</g>
				<g>
					<polygon fill="#75ABD8" points="454.051,81.274 454.063,81.34 455.122,87.353 455.083,88.989 452.119,87.371 					"/>
				</g>
				<g>
					<polygon fill="#8DC4BC" points="465.481,87.914 455.083,88.989 455.122,87.353 					"/>
				</g>
				<g>
					<polygon fill="#FFDB6C" points="447.484,86.952 450.547,89.212 436.728,86.37 					"/>
				</g>
				<g>
					<polygon fill="#FFC33E" points="452.119,87.371 450.547,89.212 447.484,86.952 					"/>
				</g>
				<g>
					<polygon fill="#FFD462" points="450.547,89.212 431.713,89.271 436.728,86.37 					"/>
				</g>
				<g>
					<polygon fill="#53B0A5" points="471.526,89.436 455.083,88.989 465.481,87.914 467.18,86.927 					"/>
				</g>
				<g>
					<polygon fill="#FFA933" points="452.119,87.371 453.055,90.168 450.547,89.212 					"/>
				</g>
				<g>
					<polygon fill="#FFD469" points="453.055,90.168 448.185,91.385 437.703,90.823 450.547,89.212 					"/>
				</g>
				<g>
					<polygon fill="#FFBE66" points="455.083,88.989 455.858,91.786 453.055,90.168 452.119,87.371 					"/>
				</g>
				<g>
					<polygon fill="#FFE69F" points="450.547,89.212 437.703,90.823 436.058,91.78 431.713,89.271 					"/>
				</g>
				<g>
					<polygon fill="#26A89C" points="466.594,92.303 455.858,91.786 455.083,88.989 					"/>
				</g>
				<g>
					<polygon fill="#7BBAB1" points="471.526,89.436 466.594,92.303 455.083,88.989 					"/>
				</g>
				<g>
					<polygon fill="#FDAFA5" points="453.055,90.168 449.194,97.379 448.185,91.385 					"/>
				</g>
				<g>
					<polygon fill="#FB8878" points="455.858,91.786 456.835,97.974 453.055,90.168 					"/>
				</g>
				<g>
					<polygon fill="#FB8878" points="453.055,90.168 451.827,100.884 447.481,98.375 449.194,97.379 					"/>
				</g>
				<g>
					<polygon fill="#FA604B" points="453.055,90.168 456.835,97.974 451.827,100.884 					"/>
				</g>
				<g>
					<path fill="#FFFFFF" d="M447.952,102.544c-1.368,1.94-6.709,4.768-10.187,2.761L425,97.934l-1.845,1.072l-4.269-2.465
						l7.46-4.335l14.268,8.238c0.671,0.343,1.459,0.571,3.069-0.365L447.952,102.544z"/>
				</g>
				<g>
					<path fill="#FFFFFF" d="M394.898,103.555c1.49,0.86,1.125,3.602,1.106,3.746c-0.249,0.012-4.979,0.231-6.469-0.629
						c-1.491-0.861-1.499-2.256-0.019-3.116C390.998,102.694,393.406,102.694,394.898,103.555z"/>
				</g>
				<g>
					<path fill="#FFFFFF" d="M435.348,109.868l-7.46,4.335l-24.108-13.919c-1.304-0.753-3.019,0.287-3.11,0.342l-4.269-2.465
						c1.368-1.94,6.709-4.769,10.187-2.761l22.646,13.074l1.845-1.072L435.348,109.868z"/>
				</g>
				<g>
					<path fill="#FFFFFF" d="M422.431,117.375c-1.368,1.94-6.709,4.769-10.187,2.761l-12.766-7.37l-1.845,1.072l-4.269-2.465
						l7.46-4.335l14.268,8.238c0.671,0.343,1.461,0.57,3.069-0.365L422.431,117.375z"/>
				</g>
			</g>
			<g>
				<path fill="#FFFFFF" d="M409.435,124.928l-5.615,3.263l-13.633-0.776l-2.239,1.301l3.24,1.871l1.845-1.072l4.269,2.465
					l-7.46,4.335l-24.266-14.01c-0.055-0.032-1.106-0.639-2.913,0.411l-4.228-2.441c1.368-1.94,6.669-4.747,10.148-2.738
					l13.673,7.894l2.198-1.278l-0.435-7.348l5.654-3.285l4.269,2.465l-1.964,1.141l0.229,5.818l11.114,0.593l1.845-1.072
					L409.435,124.928z"/>
			</g>
			<g>
				<path fill="#FFFFFF" d="M420.241,88.827c1.49,0.86,1.125,3.602,1.106,3.746c-0.249,0.012-4.981,0.232-6.47-0.628
					c-1.491-0.861-1.499-2.256-0.018-3.117C416.339,87.967,418.749,87.966,420.241,88.827z"/>
			</g>
		</g>
	</g>
	<g id="roue-front-right">
		<path fill="#575756" d="M1016.268,704.924c0.104-36.689-25.686-81.364-57.618-99.791c-15.68-9.058-29.913-10.079-40.362-4.444
			l-0.021-0.04l-66.144,38.508l12.07,19.529c-0.007,0.295-0.024,0.579-0.024,0.879c-0.1,36.687,25.693,81.363,57.62,99.792
			c2.286,1.317,4.534,2.447,6.75,3.43l9.131,14.779l32.921-18.726c0.208-0.115,0.42-0.23,0.626-0.351l28.463-16.654l-0.006-0.012
			C1009.891,735.729,1016.219,722.987,1016.268,704.924z"/>
		<g>
			<path fill="#868686" d="M893.538,643.011c-31.926-18.435-57.891-3.639-57.994,33.051c-0.103,36.686,25.688,81.36,57.62,99.791
				c31.925,18.43,57.892,3.638,57.994-33.05C951.262,706.114,925.467,661.438,893.538,643.011"/>
		</g>
		<g>
			<path fill="#C6C6C5" d="M893.453,673.994c-17.036-9.837-30.885-1.939-30.942,17.638c-0.055,19.568,13.707,43.403,30.741,53.234
				c17.03,9.832,30.886,1.94,30.942-17.632C924.247,707.661,910.486,683.826,893.453,673.994"/>
		</g>
		<path fill="#D9D9D9" d="M924.194,727.234c-0.013,3.87-0.569,7.28-1.579,10.191c-2.723-0.659-5.598-1.809-8.581-3.529
			c-17.03-9.831-30.796-33.665-30.737-53.234c0.009-3.896,0.588-7.298,1.621-10.208c2.709,0.67,5.571,1.831,8.535,3.54
			C910.486,683.826,924.247,707.661,924.194,727.234z"/>
	</g>
	<g id="roue-back-right">
		<path fill="#575756" d="M391.031,343.562c0.101-36.689-25.688-81.363-57.62-99.791c-15.679-9.055-29.912-10.077-40.362-4.441
			l-0.023-0.041l-66.144,38.507l12.071,19.53c-0.005,0.295-0.022,0.58-0.022,0.879c-0.103,36.687,25.691,81.363,57.62,99.791
			c2.283,1.318,4.533,2.449,6.748,3.43l9.132,14.778l32.919-18.725c0.211-0.116,0.421-0.23,0.627-0.35l28.464-16.657l-0.005-0.01
			C384.651,374.369,390.98,361.626,391.031,343.562z"/>
		<g>
			<path fill="#868686" d="M268.3,281.653c-31.926-18.436-57.89-3.64-57.994,33.048c-0.103,36.685,25.689,81.361,57.62,99.791
				c31.926,18.431,57.892,3.639,57.993-33.048C326.022,344.754,300.229,300.079,268.3,281.653"/>
		</g>
		<g>
			<path fill="#C6C6C5" d="M268.213,312.635c-17.035-9.837-30.885-1.94-30.941,17.637c-0.055,19.568,13.708,43.402,30.741,53.233
				c17.03,9.833,30.885,1.941,30.942-17.63C299.009,346.303,285.249,322.467,268.213,312.635"/>
		</g>
		<path fill="#D9D9D9" d="M298.955,365.875c-0.01,3.869-0.57,7.28-1.58,10.191c-2.722-0.659-5.597-1.808-8.58-3.53
			c-17.03-9.83-30.795-33.665-30.739-53.234c0.012-3.896,0.59-7.299,1.621-10.209c2.711,0.67,5.573,1.832,8.536,3.542
			C285.249,322.467,299.009,346.303,298.955,365.875z"/>
	</g>
	<g id="reload" opacity="0.8">
		<circle fill="#384047" cx="438.531" cy="687.388" r="59.787"/>
		<path fill="#FFFFFF" d="M446.418,716.838c3.039-0.923,4.756-4.135,3.832-7.173c-0.923-3.039-4.135-4.752-7.173-3.832l-0.059,0.006
			c-9.9,2.699-20.22-2.943-23.237-12.825c-3.076-10.07,2.594-20.727,12.661-23.802c9.888-3.02,20.338,2.393,23.623,12.124
			l-10.719,3.273l21.499,15.456l9.19-24.831l-8.952,2.736c-5.148-15.814-22.036-24.648-38.007-19.769
			c-16.15,4.935-25.244,22.027-20.31,38.18c4.873,15.946,21.591,25.013,37.559,20.492L446.418,716.838z"/>
	</g>
	<g id="Moustache">
		<path d="M740.742,342.029c1.413-0.816,3.142-1.254,5.192-0.816c0.188,0.085,3.763,1.691,6.827-0.078
			c1.059-0.611,2.034-1.636,2.742-3.286c0.018-0.097,0.359-1.945-0.938-1.196c-0.403,0.232-0.965,0.724-1.747,1.614
			c-0.054,0.031-1.073,0.619-0.54-0.923c0.054-0.112,1.078-2.245,2.665-3.161c1.034-0.597,2.285-0.631,3.596,0.883
			c0.072,0.246,1.446,4.926-6.323,12.087c-0.111,0.092-2.226,1.844-5.115,3.512c-3.785,2.186-8.709,4.069-11.256,1.104l-0.363,0.21
			c-2.522,5.891-7.441,9.69-11.226,11.876c-2.889,1.668-5.006,2.359-5.117,2.396c-7.784,1.819-6.441-4.43-6.37-4.759
			c1.298-3.021,2.544-4.428,3.578-5.025c1.588-0.917,2.62,0.029,2.674,0.078c0.541,0.922-0.479,1.511-0.533,1.542
			c-0.784,0.014-1.347,0.172-1.75,0.405c-1.297,0.749-0.947,2.198-0.928,2.274c0.715,0.828,1.694,0.725,2.753,0.114
			c3.065-1.769,6.618-7.491,6.805-7.792c1.955-2.683,3.651-4.209,5.07-5.028c3.371-1.946,5.086-0.005,5.177,0.098l0.398-0.597
			C736.093,347.372,737.585,343.851,740.742,342.029z"/>
	</g>
	<g id="infos-kilix">
		<polyline fill="none" stroke="#1996F4" stroke-width="6" stroke-linejoin="round" stroke-miterlimit="10" points="737.75,304.771 
			829.101,178.824 1043.679,178.824 		"/>
		<text transform="matrix(1 0 0 1 890.7402 164.6195)" font-family="'Lato-Bold'" font-size="39.5101">Le client</text>
	</g>
	<g id="infos-client">
		<polyline fill="none" stroke="#DB4C14" stroke-width="6" stroke-miterlimit="10" points="982.585,485.757 1073.936,359.81 
			1366.5,359.81 		"/>
		<text transform="matrix(1 0 0 1 1135.5746 345.6058)" font-family="'Lato-Bold'" font-size="39.5101">Lquipe Kilix</text>
	</g>
</g>
</svg>
