<?xml version="1.0" encoding="utf-8"?>
<!-- Generator: Adobe Illustrator 15.0.0, SVG Export Plug-In . SVG Version: 6.00 Build 0)  -->
<!DOCTYPE svg PUBLIC "-//W3C//DTD SVG 1.1//EN" "http://www.w3.org/Graphics/SVG/1.1/DTD/svg11.dtd">
<svg version="1.1" xmlns="http://www.w3.org/2000/svg" xmlns:xlink="http://www.w3.org/1999/xlink" x="0px" y="0px" width="1600px"
	 height="900px" viewBox="0 0 1600 900" enable-background="new 0 0 1600 900" xml:space="preserve">

<g id="RISQUE-obstacle">
	<g id="plot">
		<g>
			<polygon fill="#C6C6C5" points="830.278,704.025 802.328,687.888 802.328,690.775 830.278,706.912 			"/>
			<polygon fill="#B1B1B1" points="830.278,704.025 858.229,687.888 858.229,690.775 830.278,706.912 			"/>
			<g>
				<polygon fill="#ECECEC" points="858.229,687.888 830.188,671.751 802.328,687.888 830.278,704.025 				"/>
			</g>
		</g>
		<path fill="#D9D9D9" d="M824.577,638.859l-10.133,48.802l0,0c0.014,2.346,1.573,4.693,4.678,6.484c6.2,3.58,16.224,3.585,22.392,0
			c3.079-1.789,4.611-4.137,4.598-6.484h0.002l-10.134-48.802H824.577z"/>
		<g>
			<path fill="#B1B1B1" d="M834.297,636.524c-2.236-1.29-5.844-1.289-8.062,0c-2.22,1.291-2.208,3.379,0.027,4.67
				c2.232,1.289,5.841,1.29,8.062,0C836.541,639.905,836.529,637.813,834.297,636.524"/>
		</g>
	</g>
	<g id="trou">
		<polygon fill="#868686" points="1475.517,361.802 1437.21,346.777 1437.787,328.194 1399.438,306.052 1389.272,319.099 
			1347.58,309.215 1314.118,306.448 1309.479,331.357 1276.024,329.379 1254.589,334.697 1253.691,363.778 1268.113,379.198 
			1289.924,373.662 1310.494,390.271 1291.455,409.267 1325.563,425.017 1381.147,431.766 1387.146,426.645 1417.838,422.297 
			1436.146,401.341 1466.905,408.852 		"/>
		<polygon fill="#B1B1B1" points="1471.528,383.591 1451.917,368.06 1384.052,339.899 1308.637,333.204 1263.435,374.195 
			1268.113,379.198 1289.924,373.662 1310.494,390.271 1291.455,409.267 1366.766,444.042 1387.146,426.645 1417.838,422.297 
			1436.146,401.341 1466.905,408.852 		"/>
		<polygon fill="#D9D9D9" points="1384.052,377.976 1308.637,371.281 1298.434,380.533 1310.494,390.271 1291.455,409.267 
			1366.766,444.042 1387.146,426.645 1417.838,422.297 1436.146,401.341 1446.383,403.84 		"/>
		<polygon fill="#C6C6C5" points="1384.052,394.765 1308.637,388.069 1308.228,388.44 1310.494,390.271 1291.455,409.267 
			1366.766,444.042 1387.146,426.645 1417.838,422.297 1426.503,412.379 		"/>
	</g>
	<g id="tree">
		<polygon fill="#D9D9D9" points="193.534,762.126 228.552,720.061 359.183,720.061 431.242,784.839 297.482,812.144 		"/>
		<polygon fill="#D9D9D9" points="249.2,747.771 258.828,696.025 258.828,625.329 264.978,567.542 284.305,566.33 279.912,625.329 
			278.155,694.269 274.641,762.126 		"/>
		<polygon fill="#B1B1B1" points="297.482,755.518 291.333,692.512 294.408,617.169 297.482,566.33 284.305,566.33 279.912,625.329 
			278.155,694.269 274.641,762.126 		"/>
		<g>
			<polygon fill="#C6C6C5" points="194.484,579.608 282.783,536.255 174.322,480.543 			"/>
			<polygon fill="#D9D9D9" points="259.46,442.802 174.322,480.543 282.783,536.255 			"/>
			<polygon fill="#C6C6C5" points="342.094,470.958 342.094,422.014 259.46,442.802 282.783,536.255 			"/>
			<polygon fill="#9C9B9B" points="342.094,600.01 194.484,579.608 282.783,536.255 			"/>
			<polygon fill="#9C9B9B" points="394.287,530.058 342.094,470.958 342.094,600.01 			"/>
			<polygon fill="#B1B1B1" points="342.094,422.014 394.287,530.058 342.094,470.958 			"/>
			<polygon fill="#B1B1B1" points="342.094,600.01 342.094,470.958 282.783,536.255 			"/>
		</g>
		<polygon fill="#DADADA" points="342.094,470.958 259.46,442.802 342.094,422.014 		"/>
		<polygon fill="#EDEDED" points="174.322,480.543 259.46,442.802 231.46,406.839 		"/>
		<polygon fill="#F6F6F6" points="342.094,422.014 259.46,442.802 231.46,406.839 		"/>
	</g>
	<g id="rocks">
		<g>
			<polygon fill="#C6C6C5" points="439.707,392.329 487.63,352.086 428.763,355.636 			"/>
			<polygon fill="#D9D9D9" points="472.536,308.645 428.763,355.636 487.63,352.086 			"/>
			<polygon fill="#C6C6C5" points="519.822,352.086 525.965,319.588 472.536,308.645 487.63,352.086 			"/>
			<polygon fill="#9C9B9B" points="522.747,404.879 439.707,392.329 487.63,352.086 			"/>
			<polygon fill="#9C9B9B" points="548.149,373.976 519.822,352.086 522.747,404.879 			"/>
			<polygon fill="#B1B1B1" points="525.965,319.588 548.149,373.976 519.822,352.086 			"/>
			<polygon fill="#B1B1B1" points="522.747,404.879 519.822,352.086 487.63,352.086 			"/>
		</g>
		<g>
			<polygon fill="#C6C6C5" points="392.1,442.502 432.379,420.162 393.827,425.252 			"/>
			<polygon fill="#D9D9D9" points="418.071,414.206 393.827,425.252 432.379,420.162 			"/>
			<polygon fill="#DADADA" points="463.125,424.002 454.875,409.958 432.379,420.162 			"/>
			<polygon fill="#B2B2B2" points="444.042,457.377 392.1,442.502 432.379,420.162 			"/>
			<polygon fill="#9D9D9C" points="485.101,439.231 463.125,424.002 444.042,457.377 			"/>
			<polygon fill="#B1B1B1" points="454.875,409.958 485.101,439.231 463.125,424.002 			"/>
			<polygon fill="#C6C6C6" points="444.042,457.377 463.125,424.002 432.379,420.162 			"/>
			<polygon fill="#EDEDED" points="432.379,420.162 454.875,409.958 418.071,414.206 			"/>
		</g>
		<g>
			<polygon fill="#C6C6C5" points="358.749,392.948 384.999,372.323 364.624,376.994 			"/>
			<polygon fill="#D9D9D9" points="378.249,365.698 364.624,376.994 384.999,372.323 			"/>
			<polygon fill="#DADADA" points="400.582,376.994 409.624,373.323 384.999,372.323 			"/>
			<polygon fill="#B2B2B2" points="402.224,406.632 358.749,392.948 384.999,372.323 			"/>
			<polygon fill="#9C9B9B" points="416.485,389.283 400.582,376.994 402.224,406.632 			"/>
			<polygon fill="#B1B1B1" points="409.624,373.323 416.485,389.283 400.582,376.994 			"/>
			<polygon fill="#C6C6C6" points="402.224,406.632 400.582,376.994 384.999,372.323 			"/>
			<polygon fill="#EDEDED" points="378.249,365.698 384.999,372.323 409.624,373.323 			"/>
		</g>
	</g>
	<g id="fence">
		<g>
			<polygon fill="#C6C6C5" points="563.76,715.941 557.534,712.347 557.534,787.072 563.76,790.667 			"/>
			<polygon fill="#B1B1B1" points="563.76,715.941 569.986,712.347 569.986,787.072 563.76,790.667 			"/>
			<g>
				<polygon fill="#D9D9D9" points="569.986,712.347 563.74,708.752 557.534,712.347 563.76,715.941 				"/>
			</g>
		</g>
		<g>
			<polygon fill="#C6C6C5" points="678.217,782.023 671.99,778.429 671.99,853.154 678.217,856.749 			"/>
			<polygon fill="#B1B1B1" points="678.217,782.023 684.443,778.429 684.443,853.154 678.217,856.749 			"/>
			<g>
				<polygon fill="#D9D9D9" points="684.443,778.429 678.197,774.834 671.99,778.429 678.217,782.023 				"/>
			</g>
		</g>
		<g>
			<polygon fill="#EDEDED" points="672.786,801.231 665.971,797.298 617.979,882.787 624.793,886.722 			"/>
			<polygon fill="#B1B1B1" points="672.786,801.231 679.6,797.298 631.607,882.787 624.793,886.722 			"/>
			<g>
				<polygon fill="#D9D9D9" points="679.6,797.298 672.763,793.363 665.971,797.298 672.786,801.231 				"/>
			</g>
		</g>
		<g>
			<polygon fill="#EDEDED" points="556.946,734.481 550.131,730.548 502.139,816.037 508.954,819.972 			"/>
			<polygon fill="#B1B1B1" points="556.946,734.481 563.76,730.548 515.768,816.037 508.954,819.972 			"/>
			<g>
				<polygon fill="#D9D9D9" points="563.76,730.548 556.923,726.613 550.131,730.548 556.946,734.481 				"/>
			</g>
		</g>
		<g>
			<g>
				<polyline fill="#D9D9D9" points="682.938,799.245 546.085,720.235 546.085,728.218 682.938,807.228 682.938,799.245 				"/>
			</g>
			<g>
				<polyline fill="#B1B1B1" points="682.938,799.245 689.889,795.235 689.889,803.218 682.938,807.228 682.938,799.245 				"/>
			</g>
			<g>
				<polyline fill="#ECECEC" points="689.886,795.235 552.986,716.225 546.085,720.235 682.936,799.246 689.886,795.235 				"/>
			</g>
		</g>
	</g>
</g>
<g id="RISQUE-kart">
	<g id="kart3">
		<g id="moteur-elec_1_">
			<g>
				<g>
					<polygon fill="#C6C6C5" points="763.392,195.277 774.382,188.932 774.382,201.53 763.392,207.875 					"/>
					<polygon fill="#B1B1B1" points="763.392,195.277 746.768,185.679 746.768,198.277 763.392,207.875 					"/>
					<g>
						<polygon fill="#D9D9D9" points="746.768,185.679 757.812,179.334 774.382,188.932 763.392,195.277 						"/>
					</g>
				</g>
				<g>
					<path fill="#F6F6F6" d="M754.326,191.531l0.757,4.529l-2.338-3.483l1.526,7.138l-0.745-0.484l1.53,2.793l0.448-2.14
						l-0.68-0.029l-0.577-4.143l1.988,3.009l-0.395-5.546L754.326,191.531"/>
				</g>
				<g>
					<g>
						<path fill="#B1B1B1" d="M767.33,188.297v2.003l0,0c-0.002,0.179-0.121,0.358-0.357,0.494c-0.473,0.273-1.238,0.274-1.709,0
							c-0.234-0.136-0.352-0.315-0.351-0.494h-0.001v-2.003H767.33z"/>
						<g>
							<path fill="#ECECEC" d="M765.27,187.802c0.474-0.273,1.238-0.273,1.708,0c0.472,0.273,0.469,0.717-0.005,0.989
								c-0.473,0.274-1.238,0.274-1.709,0C764.793,188.519,764.796,188.075,765.27,187.802"/>
						</g>
					</g>
					<g>
						<path fill="#B1B1B1" d="M756.4,181.987v2.003l0,0c-0.001,0.179-0.12,0.357-0.356,0.494c-0.474,0.273-1.238,0.273-1.71,0
							c-0.234-0.137-0.352-0.315-0.351-0.494l0,0v-2.003H756.4z"/>
						<g>
							<path fill="#ECECEC" d="M754.34,181.492c0.474-0.273,1.238-0.273,1.709,0s0.468,0.716-0.005,0.989
								c-0.474,0.273-1.238,0.273-1.71,0C753.864,182.208,753.867,181.765,754.34,181.492"/>
						</g>
					</g>
				</g>
				<g>
					<polyline fill="#9C9B9B" points="762.022,191.66 762.496,191.387 763.466,191.95 764.442,191.387 764.912,191.66 
						763.937,192.224 764.906,192.787 764.433,193.061 763.464,192.497 762.487,193.061 762.016,192.787 762.992,192.224 
						762.022,191.66 					"/>
				</g>
				<polyline fill="#9C9B9B" points="750.621,185.077 751.094,184.804 753.505,186.204 753.03,186.478 750.621,185.077 				"/>
			</g>
			<g>
				<path fill="#D9D9D9" d="M771.086,208.812c-0.014-4.688,3.282-10.396,7.362-12.751c2.003-1.157,3.822-1.287,5.157-0.567
					l0.004-0.006l18.737,10.859l-10.932,17.687l-18.21-10.505l0.001-0.001C771.9,212.749,771.092,211.121,771.086,208.812z"/>
				<g>
					<path fill="#C6C6C6" d="M797.055,206.841c4.08-2.356,7.397-0.465,7.41,4.223c0.014,4.688-3.282,10.396-7.362,12.751
						c-4.079,2.355-7.397,0.466-7.41-4.223C789.679,214.904,792.975,209.195,797.055,206.841"/>
				</g>
				<path fill="#B2B2B2" d="M776.462,211.916c-0.014-4.688,3.282-10.396,7.362-12.751c2.004-1.156,3.822-1.287,5.158-0.567
					l0.003-0.005l11.164,6.479l0.162,0.095c0,0-2.226-1.405-5.407,0.433c-4.08,2.354-7.376,8.062-7.362,12.751
					c0.005,2.072,0.657,3.597,1.735,4.45l-10.695-6.168v-0.001C777.277,215.854,776.468,214.226,776.462,211.916z"/>
				<g>
					<path fill="#D9D9D9" d="M800.276,205.146c0.021,0.013,0.035,0.021,0.035,0.021L800.276,205.146z"/>
					<path fill="#D9D9D9" d="M781.492,200.951c0.323-0.311,0.654-0.6,0.995-0.868l11.107,6.413
						c-0.342,0.268-0.676,0.556-0.999,0.865L781.492,200.951z"/>
					<path fill="#D9D9D9" d="M783.824,199.165c0.439-0.253,0.866-0.448,1.284-0.604l11.135,6.429
						c-0.424,0.145-0.869,0.339-1.339,0.61c-0.017,0.009-0.032,0.021-0.049,0.03l-11.109-6.414
						C783.772,199.199,783.798,199.181,783.824,199.165z"/>
					<path fill="#D9D9D9" d="M778.582,216.632c-0.521-0.311-0.959-0.764-1.304-1.336l11.046,6.377
						c0.262,0.451,0.58,0.833,0.953,1.128L778.582,216.632L778.582,216.632z"/>
					<path fill="#D9D9D9" d="M787.178,198.16c0.664,0.007,1.273,0.151,1.805,0.438l0.003-0.005l11.164,6.479l0.127,0.074
						c-0.149-0.085-0.812-0.429-1.839-0.485L787.178,198.16z"/>
					<path fill="#D9D9D9" d="M779.724,202.967c0.253-0.342,0.52-0.667,0.794-0.984l11.101,6.409
						c-0.274,0.316-0.541,0.643-0.795,0.983L779.724,202.967z"/>
					<path fill="#D9D9D9" d="M776.59,210.267c0.062-0.428,0.149-0.859,0.258-1.293l11.088,6.402
						c-0.108,0.432-0.199,0.863-0.263,1.29L776.59,210.267z"/>
					<path fill="#D9D9D9" d="M787.649,219.688l-11.069-6.391c-0.071-0.431-0.116-0.887-0.118-1.382c0-0.041,0.005-0.084,0.005-0.126
						l11.081,6.398c0,0.054-0.007,0.108-0.006,0.162C787.543,218.827,787.582,219.271,787.649,219.688z"/>
					<path fill="#D9D9D9" d="M778.322,205.194c0.196-0.368,0.405-0.729,0.626-1.081l11.096,6.406
						c-0.221,0.353-0.43,0.713-0.627,1.08L778.322,205.194z"/>
					<path fill="#D9D9D9" d="M777.256,207.614c0.138-0.395,0.287-0.789,0.457-1.178l11.093,6.405
						c-0.171,0.389-0.321,0.781-0.46,1.176L777.256,207.614z"/>
				</g>
				<g>
					<path fill="#D9D9D9" d="M796.666,215.783c-0.001-0.392,0.274-0.869,0.615-1.065c0.169-0.098,0.32-0.108,0.432-0.048v-0.001
						l6.711,3.878l-0.129,0.208c0,0.004,0,0.007,0,0.01c0,0.393-0.274,0.87-0.615,1.066c-0.025,0.014-0.049,0.026-0.073,0.036
						l-0.097,0.158l-6.666-3.848l0,0C796.734,216.112,796.667,215.977,796.666,215.783z"/>
					<g>
						<path fill="#C6C6C6" d="M803.98,218.588c0.342-0.197,0.619-0.039,0.62,0.354c0.001,0.392-0.274,0.869-0.615,1.066
							c-0.342,0.197-0.619,0.039-0.62-0.354C803.364,219.263,803.64,218.785,803.98,218.588"/>
					</g>
				</g>
			</g>
		</g>
		<g id="roue-back-right_5_">
			<path fill="#575756" d="M798.55,231.853c-0.022-7.898,5.53-17.517,12.404-21.483c3.376-1.95,6.44-2.17,8.69-0.956l0.004-0.009
				l14.24,8.29l-18.418,29.798l-13.35-7.693l0.001-0.002C799.923,238.485,798.561,235.742,798.55,231.853z"/>
			<g>
				<path fill="#868686" d="M824.972,218.524c6.874-3.97,12.464-0.784,12.486,7.114c0.021,7.899-5.531,17.518-12.405,21.484
					c-6.873,3.969-12.464,0.783-12.485-7.115C812.545,232.11,818.098,222.492,824.972,218.524"/>
			</g>
			<g>
				<path fill="#C6C6C5" d="M824.991,225.194c3.667-2.118,6.648-0.418,6.661,3.797c0.012,4.213-2.951,9.345-6.618,11.461
					c-3.667,2.117-6.649,0.418-6.662-3.796C818.361,232.443,821.323,227.311,824.991,225.194"/>
			</g>
			<path fill="#D9D9D9" d="M818.372,236.656c0.002,0.834,0.123,1.567,0.341,2.194c0.586-0.142,1.205-0.39,1.846-0.76
				c3.667-2.117,6.631-7.248,6.619-11.461c-0.003-0.839-0.127-1.571-0.35-2.198c-0.584,0.145-1.199,0.395-1.837,0.763
				C821.323,227.311,818.361,232.443,818.372,236.656z"/>
		</g>
		<g id="roue-back-left_5_">
			<path fill="#575756" d="M707.655,179.522c-0.021-7.898,5.53-17.517,12.404-21.484c3.376-1.949,6.44-2.169,8.689-0.956
				l0.006-0.009l14.239,8.291l-18.418,29.798l-13.35-7.693l0.001-0.002C709.029,186.155,707.666,183.411,707.655,179.522z"/>
			<g>
				<path fill="#868686" d="M734.077,166.194c6.874-3.97,12.464-0.784,12.486,7.114c0.021,7.898-5.531,17.517-12.405,21.484
					c-6.873,3.969-12.463,0.784-12.484-7.115C721.65,179.779,727.203,170.161,734.077,166.194"/>
			</g>
			<g>
				<path fill="#C6C6C5" d="M734.097,172.864c3.667-2.118,6.649-0.418,6.661,3.797c0.012,4.213-2.951,9.345-6.618,11.461
					c-3.667,2.117-6.649,0.418-6.662-3.796C727.467,180.112,730.429,174.981,734.097,172.864"/>
			</g>
			<path fill="#D9D9D9" d="M727.478,184.326c0.003,0.833,0.123,1.567,0.341,2.194c0.586-0.142,1.205-0.39,1.847-0.76
				c3.666-2.116,6.63-7.248,6.618-11.461c-0.003-0.839-0.127-1.571-0.35-2.198c-0.584,0.144-1.199,0.395-1.837,0.763
				C730.429,174.981,727.467,180.112,727.478,184.326z"/>
		</g>
		<g id="carenage-right_5_">
			<polygon fill="#C6C6C5" points="767.305,261.826 807.645,238.536 807.645,257.061 767.305,280.35 			"/>
			<polygon fill="#B1B1B1" points="767.305,261.826 754.891,254.651 754.891,273.176 767.305,280.35 			"/>
			<g>
				<polygon fill="#ECECEC" points="754.891,254.651 795.361,231.36 807.645,238.536 767.305,261.826 				"/>
			</g>
		</g>
		<g id="carenage-left_5_">
			<polygon fill="#C6C6C5" points="674.039,207.528 714.378,184.238 714.378,202.762 674.039,226.053 			"/>
			<polygon fill="#B1B1B1" points="674.039,207.528 661.624,200.354 661.624,218.878 674.039,226.053 			"/>
			<g>
				<polygon fill="#ECECEC" points="661.624,200.354 702.095,177.063 714.378,184.238 674.039,207.528 				"/>
			</g>
		</g>
		<g id="roue-front-right_5_">
			<path fill="#575756" d="M718.598,278.102c-0.021-7.898,5.53-17.517,12.405-21.483c3.376-1.95,6.439-2.17,8.689-0.957l0.005-0.009
				l14.24,8.291L735.52,293.74l-13.351-7.692l0.002-0.002C719.972,284.733,718.608,281.99,718.598,278.102z"/>
			<g>
				<path fill="#868686" d="M745.021,264.773c6.873-3.969,12.464-0.784,12.485,7.115c0.022,7.897-5.531,17.516-12.405,21.483
					c-6.873,3.969-12.463,0.784-12.485-7.115C732.594,278.358,738.146,268.74,745.021,264.773"/>
			</g>
			<g>
				<path fill="#C6C6C5" d="M745.039,271.443c3.667-2.117,6.649-0.417,6.661,3.797c0.013,4.213-2.951,9.345-6.618,11.461
					c-3.666,2.117-6.649,0.418-6.662-3.796C738.409,278.691,741.372,273.561,745.039,271.443"/>
			</g>
			<path fill="#D9D9D9" d="M738.42,282.905c0.003,0.833,0.123,1.567,0.341,2.194c0.586-0.142,1.205-0.39,1.847-0.76
				c3.667-2.116,6.63-7.248,6.618-11.462c-0.003-0.838-0.127-1.57-0.349-2.196c-0.584,0.144-1.2,0.394-1.838,0.762
				C741.372,273.561,738.409,278.691,738.42,282.905z"/>
		</g>
		<g id="roue-front-left_5_">
			<path fill="#575756" d="M627.703,225.771c-0.021-7.898,5.531-17.517,12.405-21.484c3.376-1.949,6.439-2.169,8.689-0.956
				l0.005-0.009l14.24,8.29l-18.418,29.799l-13.351-7.693l0.002-0.002C629.077,232.403,627.714,229.66,627.703,225.771z"/>
			<g>
				<path fill="#868686" d="M654.126,212.442c6.873-3.969,12.464-0.783,12.486,7.115c0.021,7.898-5.531,17.517-12.406,21.484
					c-6.873,3.968-12.463,0.783-12.484-7.115C641.699,226.028,647.252,216.41,654.126,212.442"/>
			</g>
			<g>
				<path fill="#C6C6C5" d="M654.145,219.113c3.668-2.118,6.65-0.418,6.662,3.797c0.012,4.213-2.952,9.344-6.618,11.46
					c-3.667,2.117-6.65,0.418-6.662-3.796C647.515,226.361,650.478,221.229,654.145,219.113"/>
			</g>
			<path fill="#D9D9D9" d="M647.526,230.574c0.003,0.834,0.122,1.568,0.34,2.195c0.586-0.142,1.206-0.39,1.848-0.761
				c3.666-2.116,6.63-7.247,6.617-11.46c-0.002-0.84-0.127-1.572-0.349-2.198c-0.584,0.145-1.199,0.394-1.838,0.763
				C650.478,221.229,647.515,226.361,647.526,230.574z"/>
		</g>
		<g id="siege_5_">
			<g>
				<g>
					<polygon fill="#B1B1B1" points="783.43,182.712 753.622,165.474 744.352,211.441 744.352,216.757 769.826,231.493 					"/>
					<polygon fill="#C6C6C5" points="783.43,182.712 787.98,181.231 773.893,229.632 769.826,231.493 769.826,226.19 					"/>
					<g>
						<polygon fill="#F5F5F5" points="753.622,165.474 758.3,163.994 787.98,181.231 783.43,182.712 						"/>
					</g>
				</g>
				<g>
					<polygon fill="#C6C6C5" points="741.724,239.65 769.826,226.191 769.826,231.487 741.724,244.947 					"/>
					<polygon fill="#B1B1B1" points="741.724,239.65 711.916,222.414 711.916,227.711 741.724,244.947 					"/>
					<g>
						<polygon fill="#F5F5F5" points="711.916,222.414 744.479,211.455 769.826,226.191 741.724,239.65 						"/>
					</g>
				</g>
			</g>
		</g>
		<g id="pilote_5_">
			<g>
				<polygon fill="#C6C6C5" points="772.817,180.065 741.062,160.813 738.898,176.742 739.558,190.805 735.885,200.104 
					734.57,208.598 742.813,222.406 754.194,218.88 758.015,203.913 764.787,190.699 				"/>
				<polygon fill="#C6C6C5" points="772.817,180.065 764.787,190.699 758.015,203.913 754.251,218.657 765.89,229.878 
					769.367,218.465 782.314,192.919 784.2,179.042 				"/>
				<polygon fill="#F5F5F5" points="772.817,180.065 784.2,179.042 775.663,165.033 765.74,158.867 752.177,157.024 
					741.062,160.813 				"/>
			</g>
			<g>
				<polygon fill="#ECECEC" points="684.656,250.047 679.528,244.05 668.516,243.515 667.579,247.162 674.635,251.976 				"/>
				<polygon fill="#B1B1B1" points="667.579,247.162 663.846,248.341 668.516,243.515 				"/>
				<polygon fill="#9C9B9B" points="674.635,251.976 667.579,247.162 663.846,248.341 670.688,254.731 				"/>
				<polygon fill="#C6C6C5" points="684.656,250.047 690.749,248.947 685.104,255.855 670.688,254.731 674.635,251.976 				"/>
				<polygon fill="#D9D9D9" points="706.958,222.898 716.14,226.457 708.96,235.94 699.254,235.265 				"/>
				<polygon fill="#B1B1B1" points="684.656,250.047 699.254,235.265 708.96,235.94 690.749,248.947 				"/>
				<polygon fill="#C6C6C5" points="679.528,244.05 700.166,217.541 706.958,222.898 699.254,235.265 684.656,250.047 				"/>
				<polygon fill="#D9D9D9" points="715.631,217.795 706.958,222.898 700.166,217.541 706.958,209.977 				"/>
				<polygon fill="#9C9B9B" points="743.538,209.977 715.631,217.795 706.958,222.898 716.14,226.457 739.968,224.429 				"/>
				<polygon fill="#ECECEC" points="735.885,200.104 706.958,209.977 715.631,217.795 743.538,209.977 				"/>
			</g>
			<g>
				<polygon fill="#D9D9D9" points="727.419,192.627 719.067,189.083 741.062,160.813 738.898,176.742 				"/>
				<polygon fill="#ECECEC" points="712.709,203.688 705.514,202.231 719.067,189.083 727.419,192.627 				"/>
				<polygon fill="#C6C6C5" points="727.419,192.627 712.709,203.688 715.886,209.409 729.793,198.094 				"/>
				<polygon fill="#9C9B9B" points="738.898,176.742 739.318,185.699 729.793,198.094 727.419,192.627 				"/>
				<polyline fill="#B1B1B1" points="705.514,202.231 704.534,203.679 706.179,209.977 709.532,213.004 713.921,211.057 
					715.886,209.409 712.709,203.688 				"/>
			</g>
			<polygon fill="#C6C6C5" points="711.726,205.521 713.92,209.409 712.553,211.195 707.832,213.004 704.037,209.263 
				704.037,204.268 706.353,204.268 			"/>
			<g>
				<polygon fill="#ECECEC" points="711.411,265.845 705.338,259.879 697.747,262.382 704.257,266.479 				"/>
				<polygon fill="#9C9B9B" points="704.577,273.589 704.257,266.479 697.747,262.382 695.024,266.197 				"/>
				<polygon fill="#C6C6C5" points="712.778,274.703 716.715,264.638 711.411,265.845 704.257,266.479 704.577,273.589 				"/>
				<polygon fill="#C6C6C5" points="732.183,238.364 727.457,246.251 711.411,265.845 705.338,259.879 724.43,230.405 				"/>
				<polygon fill="#D9D9D9" points="740.454,240.131 732.183,238.364 727.457,246.251 734.681,249.24 				"/>
				<polygon fill="#B1B1B1" points="711.411,265.845 727.457,246.251 734.681,249.24 716.715,264.638 				"/>
				<polygon fill="#D9D9D9" points="738.228,230.513 730.446,223.272 724.43,230.405 732.183,238.364 				"/>
				<polygon fill="#C6C6C5" points="769.367,218.465 738.228,230.513 732.183,238.364 740.454,240.131 765.89,229.878 				"/>
				<polygon fill="#ECECEC" points="738.228,230.513 730.446,223.272 746.338,212.491 769.367,218.465 				"/>
			</g>
			<g>
				<path fill="#ECECEC" d="M725.248,214.446l-10.137-11.217l-9.828-4.403l-3.886-0.633l-1.438-0.05l2.721-2.137h0.002
					c1.721-1.41,4.912-1.312,9.088,0.627c7.938,3.686,16.419,12.621,18.945,19.959c1.132,3.289,0.871,5.695-0.474,7.02l0.005,0.002
					l-0.032,0.025c-0.171,0.164-0.358,0.313-0.563,0.444l-2.658,2.093L725.248,214.446z"/>
				<path fill="#ECECEC" d="M716.343,223.018l-8.906-6.53l-6.178-9.022v-5.494c0,0,0.061-1.345,0.022-1.905l3.32-0.321
					c-0.536,1.122-0.508,2.752,0.202,4.814c2.028,5.891,8.839,13.066,15.211,16.026c2.831,1.314,5.097,1.574,6.566,0.942
					l-1.395,3.096c-0.339-0.061-3.599,0.33-3.599,0.33L716.343,223.018z"/>
				<g>
					<path fill="#B1B1B1" d="M717.336,222.688c-6.374-2.96-13.185-10.135-15.212-16.025c-2.028-5.892,1.495-8.267,7.867-5.307
						c6.374,2.96,13.184,10.133,15.212,16.025C727.23,223.272,723.708,225.648,717.336,222.688 M709.09,198.737
						c-7.937-3.686-12.323-0.727-9.797,6.611c2.524,7.335,11.007,16.271,18.942,19.957c7.938,3.687,12.324,0.728,9.8-6.608
						C725.509,211.359,717.026,202.424,709.09,198.737"/>
				</g>
			</g>
			<polygon fill="#ECECEC" points="736.183,214.939 733.368,215.425 732.1,214.989 729.829,214.446 730.632,216.357 
				729.188,216.843 727.286,216.843 724.486,215.645 723.866,214.446 722.571,215.194 722.967,219.609 723.98,222.523 
				726.581,224.294 729.144,224.953 735.168,223.809 739.006,222.406 			"/>
			<polygon fill="#C6C6C5" points="733.668,218.589 729.432,218.889 726.581,218.217 725.063,217.365 727.286,216.843 
				724.486,215.645 723.866,214.446 722.571,215.194 722.967,219.609 723.98,222.523 726.581,224.294 729.144,224.953 
				735.168,223.809 738.228,222.69 736.579,214.807 733.875,215.337 734.399,218.389 			"/>
			<g>
				<polygon fill="#D9D9D9" points="759.346,212.113 772.817,180.065 764.787,190.699 754.891,208.949 				"/>
				<polygon fill="#ECECEC" points="759.346,212.113 754.891,208.949 734.843,214.067 735.857,218.589 				"/>
				<polygon fill="#D9D9D9" points="768.265,216.217 759.346,212.113 762.127,220.761 				"/>
				<polygon fill="#ECECEC" points="784.2,179.042 772.817,180.065 759.346,212.113 768.265,216.217 782.314,192.919 				"/>
				<polygon fill="#C6C6C5" points="762.127,220.761 759.346,212.113 735.857,218.589 737.443,225.664 				"/>
			</g>
			<polygon fill="#D9D9D9" points="774.025,166.495 779.6,158.858 781.388,148.445 779.836,140.79 774.306,135.914 768.128,133.012 
				761.995,133.929 756.637,137.193 752.48,141.348 750.435,147.387 748.641,156.964 748.876,162.341 750.655,166.978 
				755.942,170.154 764.814,170.551 			"/>
			<polygon fill="#C6C6C5" points="750.92,158.946 757.803,162.389 768.745,161.771 770.682,162.675 779.6,158.858 774.025,166.495 
				764.814,170.551 755.942,170.154 750.655,166.978 748.876,162.341 748.641,156.964 750.435,147.387 			"/>
			<polygon fill="#9C9B9B" points="750.435,147.387 752.302,152.314 757.541,155.505 765.316,155.726 771.91,153.983 
				773.754,155.682 773.754,158.936 770.682,162.675 764.382,165.452 755.641,165.059 750.578,162.124 748.641,156.964 			"/>
			<polygon fill="#ECECEC" points="781.388,148.445 772.817,150.954 761.197,149.063 754.251,145.71 752.48,141.348 
				756.637,137.193 761.995,133.929 768.128,133.012 774.306,135.914 779.836,140.79 			"/>
			<polygon fill="#C6C6C5" points="704.743,207.435 706.729,212.349 703.066,213.975 701.259,213.513 698.302,206.782 
				699.196,205.058 699.802,206.562 			"/>
			<polygon fill="#ECECEC" points="711.726,205.521 710.859,208.327 707.325,209.409 706.664,208.32 704.899,208.263 
				701.987,208.166 701.208,206.747 701.833,205.982 703.575,205.673 704.985,205.058 704.534,203.679 707.093,203.257 			"/>
			<polygon fill="#C6C6C5" points="711.726,205.521 709.643,206.909 707.171,205.521 704.534,206.38 701.208,206.747 
				701.987,208.166 706.664,208.32 707.325,209.409 710.859,208.327 			"/>
		</g>
		<g id="carenage-front_5_">
			<g>
				<polygon fill="#D9D9D9" points="680.403,241.091 683.423,233.614 701.452,213.855 710.656,219.205 710.908,219.35 
					720.112,224.7 702.083,244.46 694.087,249.045 667.307,274.136 663.08,271.679 662.829,271.533 658.603,269.076 				"/>
				<polygon fill="#B1B1B1" points="720.112,224.7 720.112,228.333 702.083,248.093 702.083,244.46 				"/>
				<polygon fill="#9C9B9B" points="694.087,252.678 694.087,249.045 702.083,244.46 702.083,248.093 				"/>
				<polygon fill="#B1B1B1" points="667.307,274.136 667.307,277.769 694.087,252.678 694.087,249.045 				"/>
			</g>
			<g>
				<g>
					<polygon fill="#ECECEC" points="624.613,229.614 646.261,236.079 650.612,255.693 668.197,265.914 685.779,276.132 
						709.07,272.582 730.718,291.277 673.962,292.872 652.387,280.334 630.808,267.793 					"/>
				</g>
				<polygon fill="#B1B1B1" points="630.808,273.083 630.808,267.793 624.613,229.614 624.613,240.194 				"/>
				<polygon fill="#9C9B9B" points="673.962,298.163 673.962,292.872 630.808,267.793 630.808,273.083 				"/>
				<polygon fill="#B1B1B1" points="673.962,298.163 673.962,292.872 730.718,291.277 730.718,301.858 				"/>
				<polygon fill="#C6C6C5" points="673.962,292.872 685.779,276.132 709.07,272.582 730.718,291.277 				"/>
				<polygon fill="#D9D9D9" points="630.808,267.793 650.612,255.693 685.779,276.132 673.962,292.872 				"/>
				<polygon fill="#C6C6C5" points="630.808,267.793 624.613,229.614 646.261,236.079 650.612,255.693 				"/>
			</g>
		</g>
	</g>
	<g id="kart2">
		<g id="moteur-elec_2_">
			<g>
				<g>
					<polygon fill="#C6C6C5" points="979.898,320.277 990.889,313.932 990.889,326.53 979.898,332.875 					"/>
					<polygon fill="#B1B1B1" points="979.898,320.277 963.274,310.679 963.274,323.277 979.898,332.875 					"/>
					<g>
						<polygon fill="#D9D9D9" points="963.274,310.679 974.318,304.334 990.889,313.932 979.898,320.277 						"/>
					</g>
				</g>
				<g>
					<path fill="#F6F6F6" d="M970.833,316.531l0.757,4.529l-2.338-3.483l1.526,7.138l-0.745-0.484l1.53,2.793l0.448-2.14
						l-0.68-0.029l-0.577-4.143l1.988,3.009l-0.395-5.546L970.833,316.531"/>
				</g>
				<g>
					<g>
						<path fill="#B1B1B1" d="M983.837,313.297v2.003l0,0c-0.002,0.179-0.121,0.358-0.357,0.494c-0.473,0.273-1.238,0.274-1.709,0
							c-0.234-0.136-0.352-0.315-0.351-0.494h-0.001v-2.003H983.837z"/>
						<g>
							<path fill="#ECECEC" d="M981.776,312.802c0.474-0.273,1.238-0.273,1.708,0c0.472,0.273,0.469,0.717-0.005,0.989
								c-0.473,0.274-1.238,0.274-1.709,0C981.3,313.519,981.303,313.075,981.776,312.802"/>
						</g>
					</g>
					<g>
						<path fill="#B1B1B1" d="M972.907,306.987v2.003l0,0c-0.001,0.179-0.12,0.357-0.356,0.494c-0.474,0.273-1.238,0.273-1.71,0
							c-0.234-0.137-0.352-0.315-0.351-0.494l0,0v-2.003H972.907z"/>
						<g>
							<path fill="#ECECEC" d="M970.847,306.492c0.474-0.273,1.238-0.273,1.709,0s0.468,0.716-0.005,0.989
								c-0.474,0.273-1.238,0.273-1.71,0C970.371,307.208,970.374,306.765,970.847,306.492"/>
						</g>
					</g>
				</g>
				<g>
					<polyline fill="#9C9B9B" points="978.529,316.66 979.003,316.387 979.973,316.95 980.949,316.387 981.419,316.66 
						980.443,317.224 981.413,317.787 980.939,318.061 979.971,317.497 978.994,318.061 978.522,317.787 979.499,317.224 
						978.529,316.66 					"/>
				</g>
				<polyline fill="#9C9B9B" points="967.128,310.077 967.601,309.804 970.012,311.204 969.537,311.478 967.128,310.077 				"/>
			</g>
			<g>
				<path fill="#D9D9D9" d="M987.593,333.812c-0.014-4.688,3.282-10.396,7.362-12.751c2.003-1.157,3.822-1.287,5.157-0.567
					l0.004-0.006l18.737,10.859l-10.932,17.687l-18.21-10.505l0.001-0.001C988.407,337.749,987.599,336.121,987.593,333.812z"/>
				<g>
					<path fill="#C6C6C6" d="M1013.562,331.841c4.08-2.356,7.397-0.465,7.41,4.223c0.014,4.688-3.282,10.396-7.362,12.751
						c-4.079,2.355-7.397,0.466-7.41-4.223C1006.186,339.904,1009.481,334.195,1013.562,331.841"/>
				</g>
				<path fill="#B2B2B2" d="M992.969,336.916c-0.014-4.688,3.282-10.396,7.362-12.751c2.004-1.156,3.822-1.287,5.158-0.567
					l0.003-0.005l11.164,6.479l0.162,0.095c0,0-2.226-1.405-5.407,0.433c-4.08,2.354-7.376,8.062-7.362,12.751
					c0.005,2.072,0.657,3.597,1.735,4.45l-10.695-6.168v-0.001C993.784,340.854,992.975,339.226,992.969,336.916z"/>
				<g>
					<path fill="#D9D9D9" d="M1016.783,330.146c0.021,0.013,0.035,0.021,0.035,0.021L1016.783,330.146z"/>
					<path fill="#D9D9D9" d="M997.999,325.951c0.323-0.311,0.654-0.6,0.995-0.868l11.107,6.413
						c-0.342,0.268-0.676,0.556-0.999,0.865L997.999,325.951z"/>
					<path fill="#D9D9D9" d="M1000.331,324.165c0.439-0.253,0.866-0.448,1.284-0.604l11.135,6.429
						c-0.424,0.145-0.869,0.339-1.339,0.61c-0.017,0.009-0.032,0.021-0.049,0.03l-11.109-6.414
						C1000.279,324.199,1000.305,324.181,1000.331,324.165z"/>
					<path fill="#D9D9D9" d="M995.089,341.632c-0.521-0.311-0.959-0.764-1.304-1.336l11.046,6.377
						c0.262,0.451,0.58,0.833,0.953,1.128L995.089,341.632L995.089,341.632z"/>
					<path fill="#D9D9D9" d="M1003.685,323.16c0.664,0.007,1.273,0.151,1.805,0.438l0.003-0.005l11.164,6.479l0.127,0.074
						c-0.149-0.085-0.812-0.429-1.839-0.485L1003.685,323.16z"/>
					<path fill="#D9D9D9" d="M996.23,327.967c0.253-0.342,0.52-0.667,0.794-0.984l11.101,6.409
						c-0.274,0.316-0.541,0.643-0.795,0.983L996.23,327.967z"/>
					<path fill="#D9D9D9" d="M993.097,335.267c0.062-0.428,0.149-0.859,0.258-1.293l11.088,6.402
						c-0.108,0.432-0.199,0.863-0.263,1.29L993.097,335.267z"/>
					<path fill="#D9D9D9" d="M1004.156,344.688l-11.069-6.391c-0.071-0.431-0.116-0.887-0.118-1.382
						c0-0.041,0.005-0.084,0.005-0.126l11.081,6.398c0,0.054-0.007,0.108-0.006,0.162
						C1004.05,343.827,1004.089,344.271,1004.156,344.688z"/>
					<path fill="#D9D9D9" d="M994.829,330.194c0.196-0.368,0.405-0.729,0.626-1.081l11.096,6.406
						c-0.221,0.353-0.43,0.713-0.627,1.08L994.829,330.194z"/>
					<path fill="#D9D9D9" d="M993.763,332.614c0.138-0.395,0.287-0.789,0.457-1.178l11.093,6.405
						c-0.171,0.389-0.321,0.781-0.46,1.176L993.763,332.614z"/>
				</g>
				<g>
					<path fill="#D9D9D9" d="M1013.173,340.783c-0.001-0.392,0.274-0.869,0.615-1.065c0.169-0.098,0.32-0.108,0.432-0.048v-0.001
						l6.711,3.878l-0.129,0.208c0,0.004,0,0.007,0,0.01c0,0.393-0.274,0.87-0.615,1.066c-0.025,0.014-0.049,0.026-0.073,0.036
						l-0.097,0.158l-6.666-3.848l0,0C1013.241,341.112,1013.174,340.977,1013.173,340.783z"/>
					<g>
						<path fill="#C6C6C6" d="M1020.487,343.588c0.342-0.197,0.619-0.039,0.62,0.354c0.001,0.392-0.274,0.869-0.615,1.066
							c-0.342,0.197-0.619,0.039-0.62-0.354C1019.871,344.263,1020.146,343.785,1020.487,343.588"/>
					</g>
				</g>
			</g>
		</g>
		<g id="roue-back-right_1_">
			<path fill="#575756" d="M1015.057,356.853c-0.022-7.898,5.53-17.517,12.404-21.483c3.375-1.95,6.439-2.17,8.689-0.956
				l0.004-0.009l14.24,8.29l-18.418,29.798l-13.349-7.693l0.001-0.002C1016.43,363.485,1015.067,360.742,1015.057,356.853z"/>
			<g>
				<path fill="#868686" d="M1041.479,343.524c6.873-3.97,12.463-0.784,12.486,7.114c0.021,7.899-5.531,17.518-12.406,21.484
					c-6.873,3.969-12.463,0.783-12.484-7.115C1029.051,357.11,1034.604,347.492,1041.479,343.524"/>
			</g>
			<g>
				<path fill="#C6C6C5" d="M1041.498,350.194c3.666-2.118,6.648-0.418,6.66,3.797c0.012,4.213-2.951,9.345-6.617,11.461
					c-3.668,2.117-6.65,0.418-6.662-3.796C1034.867,357.443,1037.83,352.311,1041.498,350.194"/>
			</g>
			<path fill="#D9D9D9" d="M1034.879,361.656c0.002,0.834,0.123,1.567,0.34,2.194c0.586-0.142,1.205-0.39,1.846-0.76
				c3.668-2.117,6.631-7.248,6.619-11.461c-0.002-0.839-0.127-1.571-0.35-2.198c-0.584,0.145-1.199,0.395-1.836,0.763
				C1037.83,352.311,1034.867,357.443,1034.879,361.656z"/>
		</g>
		<g id="roue-back-left_1_">
			<path fill="#575756" d="M924.162,304.522c-0.021-7.898,5.53-17.517,12.404-21.484c3.376-1.949,6.44-2.169,8.689-0.956
				l0.006-0.009l14.239,8.291l-18.418,29.798l-13.35-7.693l0.001-0.002C925.536,311.155,924.173,308.411,924.162,304.522z"/>
			<g>
				<path fill="#868686" d="M950.584,291.194c6.874-3.97,12.464-0.784,12.486,7.114c0.021,7.898-5.531,17.517-12.405,21.484
					c-6.873,3.969-12.463,0.784-12.484-7.115C938.157,304.779,943.71,295.161,950.584,291.194"/>
			</g>
			<g>
				<path fill="#C6C6C5" d="M950.604,297.864c3.667-2.118,6.649-0.418,6.661,3.797c0.012,4.213-2.951,9.345-6.618,11.461
					c-3.667,2.117-6.649,0.418-6.662-3.796C943.974,305.112,946.936,299.981,950.604,297.864"/>
			</g>
			<path fill="#D9D9D9" d="M943.984,309.326c0.003,0.833,0.123,1.567,0.341,2.194c0.586-0.142,1.205-0.39,1.847-0.76
				c3.666-2.116,6.63-7.248,6.618-11.461c-0.003-0.839-0.127-1.571-0.35-2.198c-0.584,0.144-1.199,0.395-1.837,0.763
				C946.936,299.981,943.974,305.112,943.984,309.326z"/>
		</g>
		<g id="carenage-right_1_">
			<polygon fill="#C6C6C5" points="983.812,386.826 1024.15,363.536 1024.15,382.061 983.812,405.35 			"/>
			<polygon fill="#B1B1B1" points="983.812,386.826 971.397,379.651 971.397,398.176 983.812,405.35 			"/>
			<g>
				<polygon fill="#ECECEC" points="971.397,379.651 1011.868,356.36 1024.15,363.536 983.812,386.826 				"/>
			</g>
		</g>
		<g id="carenage-left_1_">
			<polygon fill="#C6C6C5" points="890.546,332.528 930.885,309.238 930.885,327.762 890.546,351.053 			"/>
			<polygon fill="#B1B1B1" points="890.546,332.528 878.131,325.354 878.131,343.878 890.546,351.053 			"/>
			<g>
				<polygon fill="#ECECEC" points="878.131,325.354 918.602,302.063 930.885,309.238 890.546,332.528 				"/>
			</g>
		</g>
		<g id="roue-front-right_1_">
			<path fill="#575756" d="M935.104,403.102c-0.021-7.898,5.53-17.517,12.405-21.483c3.376-1.95,6.439-2.17,8.689-0.957l0.005-0.009
				l14.24,8.291l-18.418,29.797l-13.351-7.692l0.002-0.002C936.479,409.733,935.115,406.99,935.104,403.102z"/>
			<g>
				<path fill="#868686" d="M961.527,389.773c6.873-3.969,12.464-0.784,12.485,7.115c0.022,7.897-5.531,17.516-12.405,21.483
					c-6.873,3.969-12.463,0.784-12.485-7.115C949.101,403.358,954.653,393.74,961.527,389.773"/>
			</g>
			<g>
				<path fill="#C6C6C5" d="M961.546,396.443c3.667-2.117,6.649-0.417,6.661,3.797c0.013,4.213-2.951,9.345-6.618,11.461
					c-3.666,2.117-6.649,0.418-6.662-3.796C954.916,403.691,957.879,398.561,961.546,396.443"/>
			</g>
			<path fill="#D9D9D9" d="M954.927,407.905c0.003,0.833,0.123,1.567,0.341,2.194c0.586-0.142,1.205-0.39,1.847-0.76
				c3.667-2.116,6.63-7.248,6.618-11.462c-0.003-0.838-0.127-1.57-0.349-2.196c-0.584,0.144-1.2,0.394-1.838,0.762
				C957.879,398.561,954.916,403.691,954.927,407.905z"/>
		</g>
		<g id="roue-front-left_1_">
			<path fill="#575756" d="M844.21,350.771c-0.021-7.898,5.531-17.517,12.405-21.484c3.376-1.949,6.439-2.169,8.689-0.956
				l0.005-0.009l14.24,8.29l-18.418,29.799l-13.351-7.693l0.002-0.002C845.584,357.403,844.221,354.66,844.21,350.771z"/>
			<g>
				<path fill="#868686" d="M870.633,337.442c6.873-3.969,12.464-0.783,12.486,7.115c0.021,7.898-5.531,17.517-12.406,21.484
					c-6.873,3.968-12.463,0.783-12.484-7.115C858.206,351.028,863.759,341.41,870.633,337.442"/>
			</g>
			<g>
				<path fill="#C6C6C5" d="M870.651,344.113c3.668-2.118,6.65-0.418,6.662,3.797c0.012,4.213-2.952,9.344-6.618,11.46
					c-3.667,2.117-6.65,0.418-6.662-3.796C864.021,351.361,866.984,346.229,870.651,344.113"/>
			</g>
			<path fill="#D9D9D9" d="M864.033,355.574c0.003,0.834,0.122,1.568,0.34,2.195c0.586-0.142,1.206-0.39,1.848-0.761
				c3.666-2.116,6.63-7.247,6.617-11.46c-0.002-0.84-0.127-1.572-0.349-2.198c-0.584,0.145-1.199,0.394-1.838,0.763
				C866.984,346.229,864.021,351.361,864.033,355.574z"/>
		</g>
		<g id="siege_1_">
			<g>
				<g>
					<polygon fill="#B1B1B1" points="999.937,307.712 970.129,290.474 960.858,336.441 960.858,341.757 986.333,356.493 					"/>
					<polygon fill="#C6C6C5" points="999.937,307.712 1004.487,306.231 990.399,354.632 986.333,356.493 986.333,351.19 					"/>
					<g>
						<polygon fill="#F5F5F5" points="970.129,290.474 974.807,288.994 1004.487,306.231 999.937,307.712 						"/>
					</g>
				</g>
				<g>
					<polygon fill="#C6C6C5" points="958.23,364.65 986.333,351.191 986.333,356.487 958.23,369.947 					"/>
					<polygon fill="#B1B1B1" points="958.23,364.65 928.423,347.414 928.423,352.711 958.23,369.947 					"/>
					<g>
						<polygon fill="#F5F5F5" points="928.423,347.414 960.985,336.455 986.333,351.191 958.23,364.65 						"/>
					</g>
				</g>
			</g>
		</g>
		<g id="pilote_1_">
			<g>
				<polygon fill="#C6C6C5" points="989.324,305.065 957.569,285.813 955.405,301.742 956.064,315.805 952.392,325.104 
					951.077,333.598 959.32,347.406 970.701,343.88 974.521,328.913 981.294,315.699 				"/>
				<polygon fill="#C6C6C5" points="989.324,305.065 981.294,315.699 974.521,328.913 970.758,343.657 982.396,354.878 
					985.874,343.465 998.821,317.919 1000.707,304.042 				"/>
				<polygon fill="#F5F5F5" points="989.324,305.065 1000.707,304.042 992.17,290.033 982.247,283.867 968.684,282.024 
					957.569,285.813 				"/>
			</g>
			<g>
				<polygon fill="#ECECEC" points="901.163,375.047 896.035,369.05 885.022,368.515 884.086,372.162 891.142,376.976 				"/>
				<polygon fill="#B1B1B1" points="884.086,372.162 880.353,373.341 885.022,368.515 				"/>
				<polygon fill="#9C9B9B" points="891.142,376.976 884.086,372.162 880.353,373.341 887.194,379.731 				"/>
				<polygon fill="#C6C6C5" points="901.163,375.047 907.256,373.947 901.611,380.855 887.194,379.731 891.142,376.976 				"/>
				<polygon fill="#D9D9D9" points="923.465,347.898 932.646,351.457 925.467,360.94 915.761,360.265 				"/>
				<polygon fill="#B1B1B1" points="901.163,375.047 915.761,360.265 925.467,360.94 907.256,373.947 				"/>
				<polygon fill="#C6C6C5" points="896.035,369.05 916.673,342.541 923.465,347.898 915.761,360.265 901.163,375.047 				"/>
				<polygon fill="#D9D9D9" points="932.138,342.795 923.465,347.898 916.673,342.541 923.465,334.977 				"/>
				<polygon fill="#9C9B9B" points="960.045,334.977 932.138,342.795 923.465,347.898 932.646,351.457 956.475,349.429 				"/>
				<polygon fill="#ECECEC" points="952.392,325.104 923.465,334.977 932.138,342.795 960.045,334.977 				"/>
			</g>
			<g>
				<polygon fill="#D9D9D9" points="943.926,317.627 935.574,314.083 957.569,285.813 955.405,301.742 				"/>
				<polygon fill="#ECECEC" points="929.216,328.688 922.021,327.231 935.574,314.083 943.926,317.627 				"/>
				<polygon fill="#C6C6C5" points="943.926,317.627 929.216,328.688 932.393,334.409 946.3,323.094 				"/>
				<polygon fill="#9C9B9B" points="955.405,301.742 955.825,310.699 946.3,323.094 943.926,317.627 				"/>
				<polyline fill="#B1B1B1" points="922.021,327.231 921.041,328.679 922.686,334.977 926.039,338.004 930.428,336.057 
					932.393,334.409 929.216,328.688 				"/>
			</g>
			<polygon fill="#C6C6C5" points="928.232,330.521 930.427,334.409 929.06,336.195 924.339,338.004 920.544,334.263 
				920.544,329.268 922.859,329.268 			"/>
			<g>
				<polygon fill="#ECECEC" points="927.918,390.845 921.845,384.879 914.254,387.382 920.764,391.479 				"/>
				<polygon fill="#9C9B9B" points="921.084,398.589 920.764,391.479 914.254,387.382 911.531,391.197 				"/>
				<polygon fill="#C6C6C5" points="929.285,399.703 933.222,389.638 927.918,390.845 920.764,391.479 921.084,398.589 				"/>
				<polygon fill="#C6C6C5" points="948.689,363.364 943.964,371.251 927.918,390.845 921.845,384.879 940.937,355.405 				"/>
				<polygon fill="#D9D9D9" points="956.961,365.131 948.689,363.364 943.964,371.251 951.188,374.24 				"/>
				<polygon fill="#B1B1B1" points="927.918,390.845 943.964,371.251 951.188,374.24 933.222,389.638 				"/>
				<polygon fill="#D9D9D9" points="954.734,355.513 946.953,348.272 940.937,355.405 948.689,363.364 				"/>
				<polygon fill="#C6C6C5" points="985.874,343.465 954.734,355.513 948.689,363.364 956.961,365.131 982.396,354.878 				"/>
				<polygon fill="#ECECEC" points="954.734,355.513 946.953,348.272 962.845,337.491 985.874,343.465 				"/>
			</g>
			<g>
				<path fill="#ECECEC" d="M941.755,339.446l-10.137-11.217l-9.828-4.403l-3.886-0.633l-1.438-0.05l2.721-2.137h0.002
					c1.721-1.41,4.912-1.312,9.088,0.627c7.938,3.686,16.419,12.621,18.945,19.959c1.132,3.289,0.871,5.695-0.474,7.02l0.005,0.002
					l-0.032,0.025c-0.171,0.164-0.358,0.313-0.563,0.444l-2.658,2.093L941.755,339.446z"/>
				<path fill="#ECECEC" d="M932.85,348.018l-8.906-6.53l-6.178-9.022v-5.494c0,0,0.061-1.345,0.022-1.905l3.32-0.321
					c-0.536,1.122-0.508,2.752,0.202,4.814c2.028,5.891,8.839,13.066,15.211,16.026c2.831,1.314,5.097,1.574,6.566,0.942
					l-1.395,3.096c-0.339-0.061-3.599,0.33-3.599,0.33L932.85,348.018z"/>
				<g>
					<path fill="#B1B1B1" d="M933.843,347.688c-6.374-2.96-13.185-10.135-15.212-16.025c-2.028-5.892,1.495-8.267,7.867-5.307
						c6.374,2.96,13.184,10.133,15.212,16.025C943.737,348.272,940.215,350.648,933.843,347.688 M925.597,323.737
						c-7.937-3.686-12.323-0.727-9.797,6.611c2.524,7.335,11.007,16.271,18.942,19.957c7.938,3.687,12.324,0.728,9.8-6.608
						C942.016,336.359,933.533,327.424,925.597,323.737"/>
				</g>
			</g>
			<polygon fill="#ECECEC" points="952.689,339.939 949.875,340.425 948.606,339.989 946.336,339.446 947.139,341.357 
				945.694,341.843 943.793,341.843 940.993,340.645 940.373,339.446 939.078,340.194 939.474,344.609 940.487,347.523 
				943.088,349.294 945.65,349.953 951.675,348.809 955.513,347.406 			"/>
			<polygon fill="#C6C6C5" points="950.175,343.589 945.938,343.889 943.088,343.217 941.57,342.365 943.793,341.843 
				940.993,340.645 940.373,339.446 939.078,340.194 939.474,344.609 940.487,347.523 943.088,349.294 945.65,349.953 
				951.675,348.809 954.734,347.69 953.086,339.807 950.382,340.337 950.906,343.389 			"/>
			<g>
				<polygon fill="#D9D9D9" points="975.853,337.113 989.324,305.065 981.294,315.699 971.397,333.949 				"/>
				<polygon fill="#ECECEC" points="975.853,337.113 971.397,333.949 951.35,339.067 952.364,343.589 				"/>
				<polygon fill="#D9D9D9" points="984.771,341.217 975.853,337.113 978.634,345.761 				"/>
				<polygon fill="#ECECEC" points="1000.707,304.042 989.324,305.065 975.853,337.113 984.771,341.217 998.821,317.919 				"/>
				<polygon fill="#C6C6C5" points="978.634,345.761 975.853,337.113 952.364,343.589 953.95,350.664 				"/>
			</g>
			<polygon fill="#D9D9D9" points="990.532,291.495 996.106,283.858 997.895,273.445 996.343,265.79 990.812,260.914 
				984.635,258.012 978.502,258.929 973.144,262.193 968.987,266.348 966.941,272.387 965.147,281.964 965.383,287.341 
				967.162,291.978 972.449,295.154 981.321,295.551 			"/>
			<polygon fill="#C6C6C5" points="967.427,283.946 974.31,287.389 985.252,286.771 987.188,287.675 996.106,283.858 
				990.532,291.495 981.321,295.551 972.449,295.154 967.162,291.978 965.383,287.341 965.147,281.964 966.941,272.387 			"/>
			<polygon fill="#9C9B9B" points="966.941,272.387 968.809,277.314 974.048,280.505 981.823,280.726 988.417,278.983 
				990.261,280.682 990.261,283.936 987.188,287.675 980.889,290.452 972.147,290.059 967.085,287.124 965.147,281.964 			"/>
			<polygon fill="#ECECEC" points="997.895,273.445 989.324,275.954 977.704,274.063 970.758,270.71 968.987,266.348 
				973.144,262.193 978.502,258.929 984.635,258.012 990.812,260.914 996.343,265.79 			"/>
			<polygon fill="#C6C6C5" points="921.25,332.435 923.236,337.349 919.573,338.975 917.766,338.513 914.809,331.782 
				915.703,330.058 916.309,331.562 			"/>
			<polygon fill="#ECECEC" points="928.232,330.521 927.366,333.327 923.832,334.409 923.171,333.32 921.406,333.263 
				918.494,333.166 917.715,331.747 918.34,330.982 920.082,330.673 921.492,330.058 921.041,328.679 923.6,328.257 			"/>
			<polygon fill="#C6C6C5" points="928.232,330.521 926.149,331.909 923.678,330.521 921.041,331.38 917.715,331.747 
				918.494,333.166 923.171,333.32 923.832,334.409 927.366,333.327 			"/>
		</g>
		<g id="carenage-front_1_">
			<g>
				<polygon fill="#D9D9D9" points="896.91,366.091 899.93,358.614 917.959,338.855 927.163,344.205 927.415,344.35 936.619,349.7 
					918.59,369.46 910.594,374.045 883.813,399.136 879.587,396.679 879.336,396.533 875.109,394.076 				"/>
				<polygon fill="#B1B1B1" points="936.619,349.7 936.619,353.333 918.59,373.093 918.59,369.46 				"/>
				<polygon fill="#9C9B9B" points="910.594,377.678 910.594,374.045 918.59,369.46 918.59,373.093 				"/>
				<polygon fill="#B1B1B1" points="883.813,399.136 883.813,402.769 910.594,377.678 910.594,374.045 				"/>
			</g>
			<g>
				<g>
					<polygon fill="#ECECEC" points="841.12,354.614 862.768,361.079 867.119,380.693 884.704,390.914 902.286,401.132 
						925.577,397.582 947.225,416.277 890.469,417.872 868.894,405.334 847.314,392.793 					"/>
				</g>
				<polygon fill="#B1B1B1" points="847.314,398.083 847.314,392.793 841.12,354.614 841.12,365.194 				"/>
				<polygon fill="#9C9B9B" points="890.469,423.163 890.469,417.872 847.314,392.793 847.314,398.083 				"/>
				<polygon fill="#B1B1B1" points="890.469,423.163 890.469,417.872 947.225,416.277 947.225,426.858 				"/>
				<polygon fill="#C6C6C5" points="890.469,417.872 902.286,401.132 925.577,397.582 947.225,416.277 				"/>
				<polygon fill="#D9D9D9" points="847.314,392.793 867.119,380.693 902.286,401.132 890.469,417.872 				"/>
				<polygon fill="#C6C6C5" points="847.314,392.793 841.12,354.614 862.768,361.079 867.119,380.693 				"/>
			</g>
		</g>
	</g>
	<g id="kart1">
		<g id="moteur-elec_3_">
			<g>
				<g>
					<polygon fill="#C6C6C5" points="1196.404,445.277 1207.395,438.932 1207.395,451.53 1196.404,457.875 					"/>
					<polygon fill="#B1B1B1" points="1196.404,445.277 1179.779,435.679 1179.779,448.277 1196.404,457.875 					"/>
					<g>
						<polygon fill="#D9D9D9" points="1179.779,435.679 1190.824,429.334 1207.395,438.932 1196.404,445.277 						"/>
					</g>
				</g>
				<g>
					<path fill="#F6F6F6" d="M1187.338,441.531l0.758,4.529l-2.338-3.483l1.525,7.138l-0.744-0.484l1.529,2.793l0.449-2.14
						l-0.68-0.029l-0.578-4.143l1.988,3.009l-0.395-5.546L1187.338,441.531"/>
				</g>
				<g>
					<g>
						<path fill="#B1B1B1" d="M1200.342,438.297v2.003l0,0c-0.002,0.179-0.121,0.358-0.357,0.494c-0.473,0.273-1.238,0.274-1.709,0
							c-0.234-0.136-0.352-0.315-0.35-0.494h-0.002v-2.003H1200.342z"/>
						<g>
							<path fill="#ECECEC" d="M1198.281,437.802c0.475-0.273,1.238-0.273,1.709,0s0.469,0.717-0.006,0.989
								c-0.473,0.274-1.238,0.274-1.709,0C1197.805,438.519,1197.809,438.075,1198.281,437.802"/>
						</g>
					</g>
					<g>
						<path fill="#B1B1B1" d="M1189.412,431.987v2.003l0,0c0,0.179-0.119,0.357-0.355,0.494c-0.475,0.273-1.238,0.273-1.711,0
							c-0.234-0.137-0.352-0.315-0.35-0.494l0,0v-2.003H1189.412z"/>
						<g>
							<path fill="#ECECEC" d="M1187.352,431.492c0.475-0.273,1.238-0.273,1.709,0s0.469,0.716-0.004,0.989
								c-0.475,0.273-1.238,0.273-1.711,0C1186.877,432.208,1186.879,431.765,1187.352,431.492"/>
						</g>
					</g>
				</g>
				<g>
					<polyline fill="#9C9B9B" points="1195.035,441.66 1195.508,441.387 1196.479,441.95 1197.455,441.387 1197.924,441.66 
						1196.949,442.224 1197.918,442.787 1197.445,443.061 1196.477,442.497 1195.5,443.061 1195.027,442.787 1196.004,442.224 
						1195.035,441.66 					"/>
				</g>
				<polyline fill="#9C9B9B" points="1183.633,435.077 1184.105,434.804 1186.518,436.204 1186.043,436.478 1183.633,435.077 				
					"/>
			</g>
			<g>
				<path fill="#D9D9D9" d="M1204.098,458.812c-0.014-4.688,3.283-10.396,7.363-12.751c2.002-1.157,3.822-1.287,5.156-0.567
					l0.004-0.006l18.738,10.859l-10.932,17.687l-18.211-10.505l0.002-0.001C1204.912,462.749,1204.104,461.121,1204.098,458.812z"/>
				<g>
					<path fill="#C6C6C6" d="M1230.066,456.841c4.08-2.356,7.398-0.465,7.41,4.223c0.014,4.688-3.281,10.396-7.361,12.751
						c-4.08,2.355-7.398,0.466-7.41-4.223C1222.691,464.904,1225.986,459.195,1230.066,456.841"/>
				</g>
				<path fill="#B2B2B2" d="M1209.475,461.916c-0.014-4.688,3.281-10.396,7.361-12.751c2.004-1.156,3.822-1.287,5.158-0.567
					l0.004-0.005l11.164,6.479l0.162,0.095c0,0-2.227-1.405-5.408,0.433c-4.08,2.354-7.375,8.062-7.361,12.751
					c0.004,2.072,0.656,3.597,1.734,4.45l-10.695-6.168v-0.001C1210.289,465.854,1209.48,464.226,1209.475,461.916z"/>
				<g>
					<path fill="#D9D9D9" d="M1233.289,455.146c0.021,0.013,0.035,0.021,0.035,0.021L1233.289,455.146z"/>
					<path fill="#D9D9D9" d="M1214.504,450.951c0.324-0.311,0.654-0.6,0.996-0.868l11.107,6.413c-0.342,0.268-0.676,0.556-1,0.865
						L1214.504,450.951z"/>
					<path fill="#D9D9D9" d="M1216.836,449.165c0.439-0.253,0.867-0.448,1.285-0.604l11.135,6.429
						c-0.424,0.145-0.869,0.339-1.34,0.61c-0.016,0.009-0.031,0.021-0.049,0.03l-11.109-6.414
						C1216.785,449.199,1216.811,449.181,1216.836,449.165z"/>
					<path fill="#D9D9D9" d="M1211.594,466.632c-0.521-0.311-0.959-0.764-1.303-1.336l11.045,6.377
						c0.262,0.451,0.58,0.833,0.953,1.128L1211.594,466.632L1211.594,466.632z"/>
					<path fill="#D9D9D9" d="M1220.189,448.16c0.664,0.007,1.273,0.151,1.805,0.438l0.004-0.005l11.164,6.479l0.127,0.074
						c-0.15-0.085-0.812-0.429-1.84-0.485L1220.189,448.16z"/>
					<path fill="#D9D9D9" d="M1212.736,452.967c0.252-0.342,0.52-0.667,0.793-0.984l11.102,6.409
						c-0.275,0.316-0.541,0.643-0.795,0.983L1212.736,452.967z"/>
					<path fill="#D9D9D9" d="M1209.602,460.267c0.062-0.428,0.15-0.859,0.258-1.293l11.088,6.402
						c-0.107,0.432-0.199,0.863-0.262,1.29L1209.602,460.267z"/>
					<path fill="#D9D9D9" d="M1220.662,469.688l-11.07-6.391c-0.07-0.431-0.115-0.887-0.117-1.382c0-0.041,0.004-0.084,0.004-0.126
						l11.082,6.398c0,0.054-0.008,0.108-0.006,0.162C1220.555,468.827,1220.594,469.271,1220.662,469.688z"/>
					<path fill="#D9D9D9" d="M1211.334,455.194c0.197-0.368,0.406-0.729,0.627-1.081l11.096,6.406
						c-0.221,0.353-0.43,0.713-0.627,1.08L1211.334,455.194z"/>
					<path fill="#D9D9D9" d="M1210.268,457.614c0.139-0.395,0.287-0.789,0.457-1.178l11.094,6.405
						c-0.172,0.389-0.322,0.781-0.461,1.176L1210.268,457.614z"/>
				</g>
				<g>
					<path fill="#D9D9D9" d="M1229.678,465.783c0-0.392,0.275-0.869,0.615-1.065c0.17-0.098,0.32-0.108,0.432-0.048v-0.001
						l6.711,3.878l-0.129,0.208c0,0.004,0,0.007,0,0.01c0,0.393-0.273,0.87-0.615,1.066c-0.025,0.014-0.049,0.026-0.072,0.036
						l-0.098,0.158l-6.666-3.848l0,0C1229.746,466.112,1229.68,465.977,1229.678,465.783z"/>
					<g>
						<path fill="#C6C6C6" d="M1236.992,468.588c0.342-0.197,0.619-0.039,0.621,0.354c0,0.392-0.275,0.869-0.615,1.066
							c-0.342,0.197-0.619,0.039-0.621-0.354C1236.377,469.263,1236.652,468.785,1236.992,468.588"/>
					</g>
				</g>
			</g>
		</g>
		<g id="roue-back-right_6_">
			<path fill="#575756" d="M1231.562,481.853c-0.023-7.898,5.529-17.517,12.404-21.483c3.375-1.95,6.439-2.17,8.689-0.956
				l0.004-0.009l14.24,8.29l-18.418,29.798l-13.35-7.693l0.002-0.002C1232.936,488.485,1231.572,485.742,1231.562,481.853z"/>
			<g>
				<path fill="#868686" d="M1257.984,468.524c6.873-3.97,12.463-0.784,12.486,7.114c0.021,7.899-5.531,17.518-12.406,21.484
					c-6.873,3.969-12.463,0.783-12.484-7.115C1245.557,482.11,1251.109,472.492,1257.984,468.524"/>
			</g>
			<g>
				<path fill="#C6C6C5" d="M1258.004,475.194c3.666-2.118,6.648-0.418,6.66,3.797c0.012,4.213-2.951,9.345-6.617,11.461
					c-3.668,2.117-6.65,0.418-6.662-3.796C1251.373,482.443,1254.336,477.311,1258.004,475.194"/>
			</g>
			<path fill="#D9D9D9" d="M1251.385,486.656c0.002,0.834,0.123,1.567,0.34,2.194c0.586-0.142,1.205-0.39,1.846-0.76
				c3.668-2.117,6.631-7.248,6.619-11.461c-0.002-0.839-0.127-1.571-0.35-2.198c-0.584,0.145-1.199,0.395-1.836,0.763
				C1254.336,477.311,1251.373,482.443,1251.385,486.656z"/>
		</g>
		<g id="roue-back-left_6_">
			<path fill="#575756" d="M1140.668,429.522c-0.021-7.898,5.529-17.517,12.404-21.484c3.375-1.949,6.439-2.169,8.689-0.956
				l0.006-0.009l14.238,8.291l-18.418,29.798l-13.35-7.693l0.002-0.002C1142.041,436.155,1140.678,433.411,1140.668,429.522z"/>
			<g>
				<path fill="#868686" d="M1167.09,416.194c6.873-3.97,12.463-0.784,12.486,7.114c0.021,7.898-5.531,17.517-12.406,21.484
					c-6.873,3.969-12.463,0.784-12.484-7.115C1154.662,429.779,1160.215,420.161,1167.09,416.194"/>
			</g>
			<g>
				<path fill="#C6C6C5" d="M1167.109,422.864c3.666-2.118,6.648-0.418,6.66,3.797c0.012,4.213-2.951,9.345-6.617,11.461
					c-3.668,2.117-6.65,0.418-6.662-3.796S1163.441,424.981,1167.109,422.864"/>
			</g>
			<path fill="#D9D9D9" d="M1160.49,434.326c0.002,0.833,0.123,1.567,0.34,2.194c0.586-0.142,1.205-0.39,1.848-0.76
				c3.666-2.116,6.629-7.248,6.617-11.461c-0.002-0.839-0.127-1.571-0.35-2.198c-0.584,0.144-1.199,0.395-1.836,0.763
				C1163.441,424.981,1160.479,430.112,1160.49,434.326z"/>
		</g>
		<g id="carenage-right_6_">
			<polygon fill="#C6C6C5" points="1200.316,511.826 1240.656,488.536 1240.656,507.061 1200.316,530.35 			"/>
			<polygon fill="#B1B1B1" points="1200.316,511.826 1187.902,504.651 1187.902,523.176 1200.316,530.35 			"/>
			<g>
				<polygon fill="#ECECEC" points="1187.902,504.651 1228.373,481.36 1240.656,488.536 1200.316,511.826 				"/>
			</g>
		</g>
		<g id="carenage-left_6_">
			<polygon fill="#C6C6C5" points="1107.051,457.528 1147.391,434.238 1147.391,452.762 1107.051,476.053 			"/>
			<polygon fill="#B1B1B1" points="1107.051,457.528 1094.637,450.354 1094.637,468.878 1107.051,476.053 			"/>
			<g>
				<polygon fill="#ECECEC" points="1094.637,450.354 1135.107,427.063 1147.391,434.238 1107.051,457.528 				"/>
			</g>
		</g>
		<g id="roue-front-right_6_">
			<path fill="#575756" d="M1151.609,528.102c-0.021-7.898,5.531-17.517,12.406-21.483c3.375-1.95,6.439-2.17,8.689-0.957
				l0.004-0.009l14.24,8.291l-18.418,29.797l-13.35-7.692l0.002-0.002C1152.984,534.733,1151.621,531.99,1151.609,528.102z"/>
			<g>
				<path fill="#868686" d="M1178.033,514.773c6.873-3.969,12.463-0.784,12.484,7.115c0.023,7.897-5.531,17.516-12.404,21.483
					c-6.873,3.969-12.463,0.784-12.486-7.115C1165.605,528.358,1171.158,518.74,1178.033,514.773"/>
			</g>
			<g>
				<path fill="#C6C6C5" d="M1178.051,521.443c3.668-2.117,6.65-0.417,6.662,3.797c0.012,4.213-2.951,9.345-6.619,11.461
					c-3.666,2.117-6.648,0.418-6.662-3.796C1171.422,528.691,1174.385,523.561,1178.051,521.443"/>
			</g>
			<path fill="#D9D9D9" d="M1171.432,532.905c0.004,0.833,0.123,1.567,0.342,2.194c0.586-0.142,1.205-0.39,1.846-0.76
				c3.668-2.116,6.631-7.248,6.619-11.462c-0.004-0.838-0.127-1.57-0.35-2.196c-0.584,0.144-1.199,0.394-1.838,0.762
				C1174.385,523.561,1171.422,528.691,1171.432,532.905z"/>
		</g>
		<g id="roue-front-left_6_">
			<path fill="#575756" d="M1060.715,475.771c-0.021-7.898,5.531-17.517,12.406-21.484c3.375-1.949,6.439-2.169,8.689-0.956
				l0.004-0.009l14.24,8.29l-18.418,29.799l-13.35-7.693l0.002-0.002C1062.09,482.403,1060.727,479.66,1060.715,475.771z"/>
			<g>
				<path fill="#868686" d="M1087.139,462.442c6.873-3.969,12.463-0.783,12.486,7.115c0.021,7.898-5.531,17.517-12.406,21.484
					c-6.873,3.968-12.463,0.783-12.484-7.115C1074.711,476.028,1080.264,466.41,1087.139,462.442"/>
			</g>
			<g>
				<path fill="#C6C6C5" d="M1087.156,469.113c3.668-2.118,6.65-0.418,6.662,3.797c0.012,4.213-2.951,9.344-6.617,11.46
					c-3.668,2.117-6.65,0.418-6.662-3.796C1080.527,476.361,1083.49,471.229,1087.156,469.113"/>
			</g>
			<path fill="#D9D9D9" d="M1080.539,480.574c0.002,0.834,0.121,1.568,0.34,2.195c0.586-0.142,1.205-0.39,1.848-0.761
				c3.666-2.116,6.629-7.247,6.617-11.46c-0.002-0.84-0.127-1.572-0.35-2.198c-0.584,0.145-1.199,0.394-1.838,0.763
				C1083.49,471.229,1080.527,476.361,1080.539,480.574z"/>
		</g>
		<g id="siege_6_">
			<g>
				<g>
					<polygon fill="#B1B1B1" points="1216.441,432.712 1186.635,415.474 1177.363,461.441 1177.363,466.757 1202.838,481.493 					
						"/>
					<polygon fill="#C6C6C5" points="1216.441,432.712 1220.992,431.231 1206.904,479.632 1202.838,481.493 1202.838,476.19 					
						"/>
					<g>
						<polygon fill="#F5F5F5" points="1186.635,415.474 1191.312,413.994 1220.992,431.231 1216.441,432.712 						"/>
					</g>
				</g>
				<g>
					<polygon fill="#C6C6C5" points="1174.736,489.65 1202.838,476.191 1202.838,481.487 1174.736,494.947 					"/>
					<polygon fill="#B1B1B1" points="1174.736,489.65 1144.928,472.414 1144.928,477.711 1174.736,494.947 					"/>
					<g>
						<polygon fill="#F5F5F5" points="1144.928,472.414 1177.49,461.455 1202.838,476.191 1174.736,489.65 						"/>
					</g>
				</g>
			</g>
		</g>
		<g id="pilote_6_">
			<g>
				<polygon fill="#C6C6C5" points="1205.83,430.065 1174.074,410.813 1171.91,426.742 1172.57,440.805 1168.896,450.104 
					1167.582,458.598 1175.826,472.406 1187.207,468.88 1191.027,453.913 1197.799,440.699 				"/>
				<polygon fill="#C6C6C5" points="1205.83,430.065 1197.799,440.699 1191.027,453.913 1187.264,468.657 1198.902,479.878 
					1202.379,468.465 1215.326,442.919 1217.213,429.042 				"/>
				<polygon fill="#F5F5F5" points="1205.83,430.065 1217.213,429.042 1208.676,415.033 1198.752,408.867 1185.189,407.024 
					1174.074,410.813 				"/>
			</g>
			<g>
				<polygon fill="#ECECEC" points="1117.668,500.047 1112.541,494.05 1101.527,493.515 1100.592,497.162 1107.646,501.976 				"/>
				<polygon fill="#B1B1B1" points="1100.592,497.162 1096.857,498.341 1101.527,493.515 				"/>
				<polygon fill="#9C9B9B" points="1107.646,501.976 1100.592,497.162 1096.857,498.341 1103.699,504.731 				"/>
				<polygon fill="#C6C6C5" points="1117.668,500.047 1123.762,498.947 1118.117,505.855 1103.699,504.731 1107.646,501.976 				"/>
				<polygon fill="#D9D9D9" points="1139.971,472.898 1149.152,476.457 1141.973,485.94 1132.266,485.265 				"/>
				<polygon fill="#B1B1B1" points="1117.668,500.047 1132.266,485.265 1141.973,485.94 1123.762,498.947 				"/>
				<polygon fill="#C6C6C5" points="1112.541,494.05 1133.178,467.541 1139.971,472.898 1132.266,485.265 1117.668,500.047 				"/>
				<polygon fill="#D9D9D9" points="1148.643,467.795 1139.971,472.898 1133.178,467.541 1139.971,459.977 				"/>
				<polygon fill="#9C9B9B" points="1176.551,459.977 1148.643,467.795 1139.971,472.898 1149.152,476.457 1172.98,474.429 				"/>
				<polygon fill="#ECECEC" points="1168.896,450.104 1139.971,459.977 1148.643,467.795 1176.551,459.977 				"/>
			</g>
			<g>
				<polygon fill="#D9D9D9" points="1160.432,442.627 1152.08,439.083 1174.074,410.813 1171.91,426.742 				"/>
				<polygon fill="#ECECEC" points="1145.721,453.688 1138.525,452.231 1152.08,439.083 1160.432,442.627 				"/>
				<polygon fill="#C6C6C5" points="1160.432,442.627 1145.721,453.688 1148.898,459.409 1162.805,448.094 				"/>
				<polygon fill="#9C9B9B" points="1171.91,426.742 1172.33,435.699 1162.805,448.094 1160.432,442.627 				"/>
				<polyline fill="#B1B1B1" points="1138.525,452.231 1137.547,453.679 1139.191,459.977 1142.545,463.004 1146.934,461.057 
					1148.898,459.409 1145.721,453.688 				"/>
			</g>
			<polygon fill="#C6C6C5" points="1144.738,455.521 1146.932,459.409 1145.564,461.195 1140.844,463.004 1137.049,459.263 
				1137.049,454.268 1139.365,454.268 			"/>
			<g>
				<polygon fill="#ECECEC" points="1144.424,515.845 1138.35,509.879 1130.76,512.382 1137.27,516.479 				"/>
				<polygon fill="#9C9B9B" points="1137.59,523.589 1137.27,516.479 1130.76,512.382 1128.037,516.197 				"/>
				<polygon fill="#C6C6C5" points="1145.791,524.703 1149.727,514.638 1144.424,515.845 1137.27,516.479 1137.59,523.589 				"/>
				<polygon fill="#C6C6C5" points="1165.195,488.364 1160.469,496.251 1144.424,515.845 1138.35,509.879 1157.441,480.405 				"/>
				<polygon fill="#D9D9D9" points="1173.467,490.131 1165.195,488.364 1160.469,496.251 1167.693,499.24 				"/>
				<polygon fill="#B1B1B1" points="1144.424,515.845 1160.469,496.251 1167.693,499.24 1149.727,514.638 				"/>
				<polygon fill="#D9D9D9" points="1171.24,480.513 1163.459,473.272 1157.441,480.405 1165.195,488.364 				"/>
				<polygon fill="#C6C6C5" points="1202.379,468.465 1171.24,480.513 1165.195,488.364 1173.467,490.131 1198.902,479.878 				"/>
				<polygon fill="#ECECEC" points="1171.24,480.513 1163.459,473.272 1179.35,462.491 1202.379,468.465 				"/>
			</g>
			<g>
				<path fill="#ECECEC" d="M1158.26,464.446l-10.137-11.217l-9.828-4.403l-3.885-0.633l-1.439-0.05l2.721-2.137h0.002
					c1.721-1.41,4.912-1.312,9.088,0.627c7.938,3.686,16.42,12.621,18.945,19.959c1.133,3.289,0.871,5.695-0.473,7.02l0.004,0.002
					l-0.031,0.025c-0.172,0.164-0.359,0.313-0.564,0.444l-2.658,2.093L1158.26,464.446z"/>
				<path fill="#ECECEC" d="M1149.355,473.018l-8.906-6.53l-6.178-9.022v-5.494c0,0,0.061-1.345,0.021-1.905l3.32-0.321
					c-0.535,1.122-0.508,2.752,0.203,4.814c2.027,5.891,8.838,13.066,15.211,16.026c2.83,1.314,5.096,1.574,6.566,0.942
					l-1.395,3.096c-0.34-0.061-3.6,0.33-3.6,0.33L1149.355,473.018z"/>
				<g>
					<path fill="#B1B1B1" d="M1150.348,472.688c-6.373-2.96-13.184-10.135-15.211-16.025c-2.029-5.892,1.494-8.267,7.867-5.307
						s13.184,10.133,15.211,16.025C1160.242,473.272,1156.721,475.648,1150.348,472.688 M1142.102,448.737
						c-7.936-3.686-12.322-0.727-9.797,6.611c2.525,7.335,11.008,16.271,18.943,19.957c7.938,3.687,12.324,0.728,9.799-6.608
						C1158.521,461.359,1150.039,452.424,1142.102,448.737"/>
				</g>
			</g>
			<polygon fill="#ECECEC" points="1169.195,464.939 1166.381,465.425 1165.111,464.989 1162.842,464.446 1163.645,466.357 
				1162.199,466.843 1160.299,466.843 1157.498,465.645 1156.879,464.446 1155.584,465.194 1155.979,469.609 1156.992,472.523 
				1159.594,474.294 1162.156,474.953 1168.18,473.809 1172.018,472.406 			"/>
			<polygon fill="#C6C6C5" points="1166.68,468.589 1162.443,468.889 1159.594,468.217 1158.076,467.365 1160.299,466.843 
				1157.498,465.645 1156.879,464.446 1155.584,465.194 1155.979,469.609 1156.992,472.523 1159.594,474.294 1162.156,474.953 
				1168.18,473.809 1171.24,472.69 1169.592,464.807 1166.887,465.337 1167.412,468.389 			"/>
			<g>
				<polygon fill="#D9D9D9" points="1192.357,462.113 1205.83,430.065 1197.799,440.699 1187.902,458.949 				"/>
				<polygon fill="#ECECEC" points="1192.357,462.113 1187.902,458.949 1167.855,464.067 1168.869,468.589 				"/>
				<polygon fill="#D9D9D9" points="1201.277,466.217 1192.357,462.113 1195.139,470.761 				"/>
				<polygon fill="#ECECEC" points="1217.213,429.042 1205.83,430.065 1192.357,462.113 1201.277,466.217 1215.326,442.919 				"/>
				<polygon fill="#C6C6C5" points="1195.139,470.761 1192.357,462.113 1168.869,468.589 1170.455,475.664 				"/>
			</g>
			<polygon fill="#D9D9D9" points="1207.037,416.495 1212.611,408.858 1214.4,398.445 1212.848,390.79 1207.318,385.914 
				1201.141,383.012 1195.008,383.929 1189.648,387.193 1185.492,391.348 1183.447,397.387 1181.652,406.964 1181.889,412.341 
				1183.668,416.978 1188.955,420.154 1197.826,420.551 			"/>
			<polygon fill="#C6C6C5" points="1183.932,408.946 1190.814,412.389 1201.758,411.771 1203.693,412.675 1212.611,408.858 
				1207.037,416.495 1197.826,420.551 1188.955,420.154 1183.668,416.978 1181.889,412.341 1181.652,406.964 1183.447,397.387 			
				"/>
			<polygon fill="#9C9B9B" points="1183.447,397.387 1185.314,402.314 1190.553,405.505 1198.328,405.726 1204.922,403.983 
				1206.766,405.682 1206.766,408.936 1203.693,412.675 1197.395,415.452 1188.652,415.059 1183.59,412.124 1181.652,406.964 			"/>
			<polygon fill="#ECECEC" points="1214.4,398.445 1205.83,400.954 1194.209,399.063 1187.264,395.71 1185.492,391.348 
				1189.648,387.193 1195.008,383.929 1201.141,383.012 1207.318,385.914 1212.848,390.79 			"/>
			<polygon fill="#C6C6C5" points="1137.756,457.435 1139.742,462.349 1136.078,463.975 1134.271,463.513 1131.314,456.782 
				1132.209,455.058 1132.814,456.562 			"/>
			<polygon fill="#ECECEC" points="1144.738,455.521 1143.871,458.327 1140.338,459.409 1139.676,458.32 1137.912,458.263 
				1135,458.166 1134.221,456.747 1134.846,455.982 1136.588,455.673 1137.998,455.058 1137.547,453.679 1140.105,453.257 			"/>
			<polygon fill="#C6C6C5" points="1144.738,455.521 1142.654,456.909 1140.184,455.521 1137.547,456.38 1134.221,456.747 
				1135,458.166 1139.676,458.32 1140.338,459.409 1143.871,458.327 			"/>
		</g>
		<g id="carenage-front_6_">
			<g>
				<polygon fill="#D9D9D9" points="1113.416,491.091 1116.436,483.614 1134.465,463.855 1143.668,469.205 1143.92,469.35 
					1153.125,474.7 1135.096,494.46 1127.1,499.045 1100.318,524.136 1096.092,521.679 1095.842,521.533 1091.615,519.076 				"/>
				<polygon fill="#B1B1B1" points="1153.125,474.7 1153.125,478.333 1135.096,498.093 1135.096,494.46 				"/>
				<polygon fill="#9C9B9B" points="1127.1,502.678 1127.1,499.045 1135.096,494.46 1135.096,498.093 				"/>
				<polygon fill="#B1B1B1" points="1100.318,524.136 1100.318,527.769 1127.1,502.678 1127.1,499.045 				"/>
			</g>
			<g>
				<g>
					<polygon fill="#ECECEC" points="1057.625,479.614 1079.273,486.079 1083.625,505.693 1101.209,515.914 1118.791,526.132 
						1142.082,522.582 1163.73,541.277 1106.975,542.872 1085.398,530.334 1063.82,517.793 					"/>
				</g>
				<polygon fill="#B1B1B1" points="1063.82,523.083 1063.82,517.793 1057.625,479.614 1057.625,490.194 				"/>
				<polygon fill="#9C9B9B" points="1106.975,548.163 1106.975,542.872 1063.82,517.793 1063.82,523.083 				"/>
				<polygon fill="#B1B1B1" points="1106.975,548.163 1106.975,542.872 1163.73,541.277 1163.73,551.858 				"/>
				<polygon fill="#C6C6C5" points="1106.975,542.872 1118.791,526.132 1142.082,522.582 1163.73,541.277 				"/>
				<polygon fill="#D9D9D9" points="1063.82,517.793 1083.625,505.693 1118.791,526.132 1106.975,542.872 				"/>
				<polygon fill="#C6C6C5" points="1063.82,517.793 1057.625,479.614 1079.273,486.079 1083.625,505.693 				"/>
			</g>
		</g>
	</g>
</g>
</svg>
