<?xml version="1.0" encoding="utf-8"?>
<!-- Generator: Adobe Illustrator 15.0.0, SVG Export Plug-In . SVG Version: 6.00 Build 0)  -->
<!DOCTYPE svg PUBLIC "-//W3C//DTD SVG 1.1//EN" "http://www.w3.org/Graphics/SVG/1.1/DTD/svg11.dtd">
<svg version="1.1" id="VALEUR-final_-_copie" xmlns="http://www.w3.org/2000/svg" xmlns:xlink="http://www.w3.org/1999/xlink"
	 x="0px" y="0px" width="1600px" height="900px" viewBox="0 0 1600 900" enable-background="new 0 0 1600 900" xml:space="preserve"
	>
<g id="Moteur-elec_1_">
	<g>
		<g>
			<polygon fill="#C6C6C5" points="724.096,348.021 698.315,333.137 698.315,362.69 724.096,377.575 			"/>
			<polygon fill="#B1B1B1" points="724.096,348.021 763.094,325.506 763.094,355.06 724.096,377.575 			"/>
			<g>
				<polygon fill="#D9D9D9" points="763.094,325.506 737.187,310.622 698.315,333.137 724.096,348.021 				"/>
			</g>
		</g>
		<g>
			<path fill="#F6F6F6" d="M745.362,339.233l-3.554,3.856l-0.925,13.01l4.662-7.059l-1.353,9.719l-1.595,0.068l1.053,5.02
				l3.589-6.552l-1.749,1.138l3.583-16.745l-5.484,8.172L745.362,339.233"/>
		</g>
		<g>
			<g>
				<path fill="#B1B1B1" d="M714.858,331.647v4.698l0,0c0.003,0.42,0.282,0.84,0.838,1.16c1.109,0.641,2.904,0.643,4.009,0
					c0.551-0.32,0.825-0.74,0.822-1.16h0.001v-4.698H714.858z"/>
				<g>
					<path fill="#ECECEC" d="M719.692,330.485c-1.113-0.641-2.905-0.641-4.009,0c-1.105,0.642-1.098,1.681,0.013,2.321
						c1.109,0.643,2.904,0.643,4.009,0C720.808,332.166,720.802,331.126,719.692,330.485"/>
				</g>
			</g>
			<g>
				<path fill="#B1B1B1" d="M740.498,316.845v4.698l0,0c0.002,0.42,0.281,0.84,0.836,1.16c1.111,0.641,2.904,0.643,4.009,0
					c0.551-0.32,0.825-0.74,0.822-1.16h0.001v-4.698H740.498z"/>
				<g>
					<path fill="#ECECEC" d="M745.331,315.683c-1.112-0.641-2.905-0.641-4.008,0c-1.105,0.643-1.099,1.679,0.012,2.321
						c1.111,0.641,2.904,0.643,4.009,0C746.446,317.364,746.44,316.324,745.331,315.683"/>
				</g>
			</g>
		</g>
		<g>
			<polyline fill="#9C9B9B" points="727.308,339.536 726.196,338.896 723.922,340.216 721.632,338.894 720.529,339.536 
				722.817,340.859 720.543,342.18 721.654,342.822 723.928,341.5 726.218,342.822 727.323,342.18 725.033,340.859 727.308,339.536 
							"/>
		</g>
		<polyline fill="#9C9B9B" points="754.055,324.093 752.944,323.453 747.289,326.738 748.402,327.379 754.055,324.093 		"/>
	</g>
	<g>
		<path fill="#D9D9D9" d="M706.047,379.773c0.031-10.997-7.7-24.388-17.271-29.912c-4.7-2.713-8.967-3.019-12.099-1.331
			l-0.007-0.013l-43.957,25.475l3.618,5.854c-0.001,0.089-0.007,0.175-0.007,0.265c-0.03,10.997,7.701,24.388,17.273,29.912
			c0.684,0.396,1.358,0.733,2.022,1.028l2.738,4.43l42.718-24.643l-0.001-0.003C704.136,389.009,706.033,385.189,706.047,379.773z"
			/>
		<g>
			<path fill="#C6C6C6" d="M645.128,375.148c-9.57-5.527-17.353-1.091-17.384,9.906c-0.032,10.998,7.701,24.39,17.272,29.913
				c9.569,5.525,17.353,1.092,17.383-9.906C662.431,394.063,654.7,380.672,645.128,375.148"/>
		</g>
		<g>
			<defs>
				<path id="SVGID_1_" d="M693.435,387.055c0.031-10.997-7.7-24.388-17.271-29.912c-4.7-2.713-8.967-3.019-12.099-1.331
					l-0.007-0.013L637.87,371l-0.381,0.222c0,0,5.221-3.296,12.685,1.014c9.572,5.524,17.303,18.916,17.271,29.912
					c-0.013,4.862-1.543,8.438-4.071,10.441l25.09-14.469l-0.001-0.002C691.524,396.291,693.421,392.471,693.435,387.055z"/>
			</defs>
			<defs>
				<path id="SVGID_2_" d="M693.435,387.055c0.031-10.997-7.7-24.388-17.271-29.912c-4.7-2.713-8.967-3.019-12.099-1.331
					l-0.007-0.013L637.87,371l-0.381,0.222c0,0,5.221-3.296,12.685,1.014c9.572,5.524,17.303,18.916,17.271,29.912
					c-0.013,4.862-1.543,8.438-4.071,10.441l25.09-14.469l-0.001-0.002C691.524,396.291,693.421,392.471,693.435,387.055z"/>
			</defs>
			<use xlink:href="#SVGID_1_"  overflow="visible" fill="#B2B2B2"/>
			<clipPath id="SVGID_3_">
				<use xlink:href="#SVGID_1_"  overflow="visible"/>
			</clipPath>
			<clipPath id="SVGID_4_" clip-path="url(#SVGID_3_)">
				<use xlink:href="#SVGID_2_"  overflow="visible"/>
			</clipPath>
			<g clip-path="url(#SVGID_4_)">
				
					<line fill="none" stroke="#DADADA" stroke-width="2.9294" stroke-miterlimit="10" x1="589.639" y1="505.363" x2="834.512" y2="363.977"/>
				
					<line fill="none" stroke="#DADADA" stroke-width="2.9294" stroke-miterlimit="10" x1="585.122" y1="500.848" x2="829.996" y2="359.46"/>
				
					<line fill="none" stroke="#DADADA" stroke-width="2.9294" stroke-miterlimit="10" x1="580.606" y1="496.332" x2="825.48" y2="354.945"/>
				
					<line fill="none" stroke="#DADADA" stroke-width="2.9294" stroke-miterlimit="10" x1="576.09" y1="491.814" x2="820.965" y2="350.428"/>
				
					<line fill="none" stroke="#DADADA" stroke-width="2.9294" stroke-miterlimit="10" x1="571.575" y1="487.299" x2="816.449" y2="345.911"/>
				
					<line fill="none" stroke="#DADADA" stroke-width="2.9294" stroke-miterlimit="10" x1="567.058" y1="482.783" x2="811.934" y2="341.396"/>
				
					<line fill="none" stroke="#DADADA" stroke-width="2.9294" stroke-miterlimit="10" x1="562.542" y1="478.266" x2="807.417" y2="336.88"/>
				
					<line fill="none" stroke="#DADADA" stroke-width="2.9294" stroke-miterlimit="10" x1="558.026" y1="473.75" x2="802.9" y2="332.364"/>
				
					<line fill="none" stroke="#DADADA" stroke-width="2.9294" stroke-miterlimit="10" x1="553.51" y1="469.234" x2="798.384" y2="327.848"/>
				
					<line fill="none" stroke="#DADADA" stroke-width="2.9294" stroke-miterlimit="10" x1="548.994" y1="464.719" x2="793.869" y2="323.332"/>
				
					<line fill="none" stroke="#DADADA" stroke-width="2.9294" stroke-miterlimit="10" x1="544.478" y1="460.203" x2="789.352" y2="318.815"/>
				
					<line fill="none" stroke="#DADADA" stroke-width="2.9294" stroke-miterlimit="10" x1="539.962" y1="455.686" x2="784.836" y2="314.3"/>
				
					<line fill="none" stroke="#DADADA" stroke-width="2.9294" stroke-miterlimit="10" x1="535.445" y1="451.17" x2="780.321" y2="309.784"/>
				
					<line fill="none" stroke="#DADADA" stroke-width="2.9294" stroke-miterlimit="10" x1="530.93" y1="446.654" x2="775.804" y2="305.268"/>
				
					<line fill="none" stroke="#DADADA" stroke-width="2.9294" stroke-miterlimit="10" x1="526.414" y1="442.139" x2="771.288" y2="300.752"/>
				
					<line fill="none" stroke="#DADADA" stroke-width="2.9294" stroke-miterlimit="10" x1="521.897" y1="437.623" x2="766.772" y2="296.236"/>
				
					<line fill="none" stroke="#DADADA" stroke-width="2.9294" stroke-miterlimit="10" x1="517.382" y1="433.105" x2="762.256" y2="291.72"/>
				
					<line fill="none" stroke="#DADADA" stroke-width="2.9294" stroke-miterlimit="10" x1="512.865" y1="428.59" x2="757.74" y2="287.204"/>
				
					<line fill="none" stroke="#DADADA" stroke-width="2.9294" stroke-miterlimit="10" x1="508.349" y1="424.074" x2="753.223" y2="282.687"/>
				
					<line fill="none" stroke="#DADADA" stroke-width="2.9294" stroke-miterlimit="10" x1="503.833" y1="419.559" x2="748.708" y2="278.171"/>
				
					<line fill="none" stroke="#DADADA" stroke-width="2.9294" stroke-miterlimit="10" x1="499.317" y1="415.043" x2="744.192" y2="273.655"/>
				
					<line fill="none" stroke="#DADADA" stroke-width="2.9294" stroke-miterlimit="10" x1="494.801" y1="410.526" x2="739.676" y2="269.139"/>
				
					<line fill="none" stroke="#DADADA" stroke-width="2.9294" stroke-miterlimit="10" x1="490.286" y1="406.01" x2="735.16" y2="264.623"/>
			</g>
		</g>
		<g>
			<path fill="#D9D9D9" d="M646.04,396.126c0.002-0.919-0.643-2.04-1.444-2.5c-0.394-0.228-0.75-0.253-1.013-0.112v-0.001
				l-15.741,9.097l0.303,0.489c0,0.008-0.001,0.016-0.001,0.022c-0.001,0.921,0.644,2.04,1.445,2.502
				c0.057,0.032,0.114,0.062,0.169,0.085l0.229,0.371l15.637-9.026l0,0C645.88,396.898,646.038,396.58,646.04,396.126z"/>
			<g>
				<path fill="#C6C6C6" d="M628.88,402.705c-0.801-0.463-1.452-0.092-1.454,0.829c-0.003,0.919,0.644,2.04,1.443,2.501
					c0.801,0.463,1.452,0.092,1.454-0.828C630.327,404.288,629.681,403.167,628.88,402.705"/>
			</g>
		</g>
	</g>
</g>
<g id="roue-back-right_4_">
	<path fill="#575756" d="M641.622,433.822c0.052-18.529-12.974-41.092-29.1-50.397c-7.919-4.574-15.107-5.09-20.384-2.243
		l-0.011-0.021l-33.405,19.448l6.096,9.862c-0.003,0.15-0.011,0.295-0.011,0.445c-0.052,18.527,12.975,41.092,29.1,50.398
		c1.153,0.666,2.29,1.236,3.409,1.73l4.612,7.465l16.625-9.457c0.107-0.059,0.213-0.115,0.316-0.178l14.376-8.412l-0.003-0.004
		C638.4,449.381,641.597,442.945,641.622,433.822z"/>
	<g>
		<path fill="#868686" d="M579.638,402.556c-16.124-9.311-29.238-1.839-29.29,16.69s12.975,41.092,29.101,50.398
			c16.123,9.311,29.237,1.838,29.289-16.691C608.79,434.426,595.764,411.863,579.638,402.556"/>
	</g>
	<g>
		<path fill="#C6C6C5" d="M579.594,418.203c-8.603-4.969-15.599-0.98-15.626,8.906c-0.028,9.883,6.923,21.922,15.525,26.887
			c8.601,4.967,15.599,0.98,15.627-8.906C595.147,435.207,588.198,423.168,579.594,418.203"/>
	</g>
	<path fill="#D9D9D9" d="M595.121,445.09c-0.006,1.957-0.288,3.678-0.798,5.148c-1.375-0.332-2.827-0.914-4.333-1.781
		c-8.601-4.967-15.553-17.004-15.525-26.887c0.006-1.967,0.298-3.686,0.818-5.156c1.37,0.338,2.814,0.926,4.311,1.789
		C588.198,423.168,595.147,435.207,595.121,445.09z"/>
</g>
<g id="roue-back-left_4_">
	<path fill="#575756" d="M854.847,311.063c0.051-18.529-12.975-41.092-29.1-50.398c-7.92-4.574-15.107-5.089-20.385-2.243
		l-0.012-0.021l-33.405,19.448l6.096,9.862c-0.003,0.15-0.011,0.294-0.011,0.445c-0.052,18.528,12.975,41.092,29.101,50.399
		c1.153,0.666,2.289,1.236,3.408,1.731l4.613,7.464l16.624-9.457c0.107-0.058,0.213-0.117,0.316-0.178l14.375-8.412l-0.002-0.005
		C851.624,326.622,854.821,320.187,854.847,311.063z"/>
	<g>
		<path fill="#868686" d="M792.863,279.796c-16.124-9.311-29.238-1.839-29.29,16.69c-0.052,18.528,12.975,41.091,29.101,50.398
			c16.124,9.31,29.237,1.839,29.288-16.691C822.015,311.666,808.989,289.103,792.863,279.796"/>
	</g>
	<g>
		<path fill="#C6C6C5" d="M792.819,295.444c-8.603-4.969-15.599-0.98-15.626,8.906c-0.028,9.883,6.923,21.922,15.525,26.886
			c8.602,4.967,15.6,0.981,15.628-8.905C808.372,312.448,801.423,300.41,792.819,295.444"/>
	</g>
	<path fill="#D9D9D9" d="M808.346,322.331c-0.006,1.956-0.288,3.678-0.799,5.148c-1.374-0.332-2.826-0.914-4.332-1.782
		c-8.602-4.965-15.554-17.002-15.525-26.886c0.006-1.968,0.298-3.686,0.818-5.156c1.37,0.338,2.814,0.925,4.311,1.789
		C801.423,300.41,808.372,312.448,808.346,322.331z"/>
</g>
<g id="carenage-right_4_">
	<polygon fill="#C6C6C5" points="714.917,504.135 620.286,449.5 620.286,492.955 714.917,547.59 	"/>
	<polygon fill="#B1B1B1" points="714.917,504.135 744.039,487.305 744.039,530.76 714.917,547.59 	"/>
	<g>
		<polygon fill="#ECECEC" points="744.039,487.305 649.1,432.668 620.286,449.5 714.917,504.135 		"/>
	</g>
</g>
<g id="carenage-left_4_">
	<polygon fill="#C6C6C5" points="933.706,376.761 839.075,322.126 839.075,365.58 933.706,420.217 	"/>
	<polygon fill="#B1B1B1" points="933.706,376.761 962.829,359.931 962.829,403.385 933.706,420.217 	"/>
	<g>
		<polygon fill="#ECECEC" points="962.829,359.931 867.89,305.294 839.075,322.126 933.706,376.761 		"/>
	</g>
</g>
<g id="roue-front-right_4_">
	<path fill="#575756" d="M829.177,542.314c0.051-18.527-12.974-41.09-29.1-50.396c-7.919-4.574-15.107-5.09-20.385-2.244
		l-0.011-0.021l-33.405,19.449l6.097,9.861c-0.003,0.15-0.012,0.295-0.012,0.445c-0.052,18.527,12.975,41.092,29.1,50.398
		c1.153,0.666,2.29,1.236,3.409,1.732l4.612,7.463l16.626-9.455c0.106-0.059,0.212-0.117,0.315-0.178l14.377-8.412l-0.004-0.006
		C825.954,557.873,829.151,551.438,829.177,542.314z"/>
	<g>
		<path fill="#868686" d="M767.193,511.049c-16.124-9.311-29.238-1.84-29.29,16.691c-0.052,18.527,12.975,41.09,29.101,50.396
			c16.123,9.311,29.237,1.84,29.289-16.689S783.319,520.355,767.193,511.049"/>
	</g>
	<g>
		<path fill="#C6C6C5" d="M767.149,526.695c-8.603-4.967-15.599-0.979-15.626,8.908c-0.028,9.883,6.923,21.92,15.525,26.885
			c8.601,4.967,15.599,0.98,15.627-8.904C782.702,543.699,775.752,531.662,767.149,526.695"/>
	</g>
	<path fill="#D9D9D9" d="M782.675,553.584c-0.006,1.955-0.288,3.676-0.798,5.148c-1.375-0.334-2.827-0.914-4.333-1.783
		c-8.601-4.965-15.553-17.002-15.524-26.887c0.005-1.967,0.297-3.686,0.818-5.154c1.37,0.338,2.814,0.924,4.311,1.787
		C775.752,531.662,782.702,543.699,782.675,553.584z"/>
</g>
<g id="roue-front-left_4_">
	<path fill="#575756" d="M1042.401,419.557c0.051-18.529-12.975-41.092-29.1-50.399c-7.92-4.573-15.107-5.089-20.385-2.243
		l-0.012-0.021l-33.404,19.448l6.096,9.863c-0.004,0.149-0.012,0.293-0.012,0.445c-0.051,18.528,12.975,41.091,29.1,50.397
		c1.154,0.666,2.289,1.236,3.408,1.732l4.613,7.465l16.625-9.457c0.107-0.059,0.213-0.117,0.316-0.178l14.377-8.412l-0.004-0.004
		C1039.179,435.113,1042.376,428.68,1042.401,419.557z"/>
	<g>
		<path fill="#868686" d="M980.417,388.29c-16.123-9.311-29.236-1.839-29.289,16.691c-0.051,18.527,12.975,41.09,29.102,50.398
			c16.123,9.309,29.236,1.838,29.287-16.691C1009.569,420.158,996.544,397.595,980.417,388.29"/>
	</g>
	<g>
		<path fill="#C6C6C5" d="M980.374,403.938c-8.604-4.969-15.6-0.98-15.627,8.906c-0.027,9.883,6.924,21.92,15.525,26.885
			c8.602,4.967,15.6,0.98,15.627-8.904S988.978,408.902,980.374,403.938"/>
	</g>
	<path fill="#D9D9D9" d="M995.899,430.824c-0.006,1.955-0.287,3.678-0.797,5.148c-1.375-0.332-2.828-0.914-4.334-1.783
		c-8.6-4.965-15.553-17.002-15.523-26.885c0.006-1.969,0.297-3.688,0.818-5.156c1.369,0.338,2.812,0.924,4.311,1.789
		C988.978,408.902,995.927,420.939,995.899,430.824z"/>
</g>
<g id="siege_4_">
	<g>
		<g>
			<polygon fill="#B1B1B1" points="677.091,318.544 747.015,278.108 768.762,385.941 768.762,398.411 709.002,432.979 			"/>
			<polygon fill="#C6C6C5" points="677.091,318.544 666.417,315.073 699.463,428.613 709.002,432.979 709.002,420.539 			"/>
			<g>
				<polygon fill="#F5F5F5" points="747.015,278.108 736.042,274.635 666.417,315.073 677.091,318.544 				"/>
			</g>
		</g>
		<g>
			<polygon fill="#C6C6C5" points="774.926,452.115 709.002,420.541 709.002,432.965 774.926,464.541 			"/>
			<polygon fill="#B1B1B1" points="774.926,452.115 844.851,411.68 844.851,424.105 774.926,464.541 			"/>
			<g>
				<polygon fill="#F5F5F5" points="844.851,411.68 768.464,385.972 709.002,420.541 774.926,452.115 				"/>
			</g>
		</g>
	</g>
</g>
<g id="pilote_4_">
	<g>
		<polygon fill="#C6C6C5" points="701.985,312.337 776.477,267.176 781.554,304.541 780.008,337.53 788.624,359.342 
			791.706,379.269 772.37,411.662 745.672,403.391 736.711,368.28 720.822,337.282 		"/>
		<polygon fill="#C6C6C5" points="701.985,312.337 720.822,337.282 736.711,368.28 745.539,402.867 718.236,429.189 
			710.078,402.416 679.707,342.49 675.283,309.936 		"/>
		<polygon fill="#F5F5F5" points="701.985,312.337 675.283,309.936 695.309,277.074 718.587,262.608 750.404,258.286 
			776.477,267.176 		"/>
	</g>
	<g>
		<polygon fill="#ECECEC" points="908.798,476.504 920.827,462.436 946.661,461.18 948.858,469.736 932.308,481.027 		"/>
		<polygon fill="#B1B1B1" points="948.858,469.736 957.616,472.502 946.661,461.18 		"/>
		<polygon fill="#9C9B9B" points="932.308,481.027 948.858,469.736 957.616,472.502 941.567,487.492 		"/>
		<polygon fill="#C6C6C5" points="908.798,476.504 894.507,473.924 907.747,490.129 941.567,487.492 932.308,481.027 		"/>
		<polygon fill="#D9D9D9" points="856.481,412.816 834.942,421.164 851.786,443.412 874.554,441.826 		"/>
		<polygon fill="#B1B1B1" points="908.798,476.504 874.554,441.826 851.786,443.412 894.507,473.924 		"/>
		<polygon fill="#C6C6C5" points="920.827,462.436 872.415,400.248 856.481,412.816 874.554,441.826 908.798,476.504 		"/>
		<polygon fill="#D9D9D9" points="836.136,400.846 856.481,412.816 872.415,400.248 856.481,382.504 		"/>
		<polygon fill="#9C9B9B" points="770.67,382.504 836.136,400.846 856.481,412.816 834.942,421.164 779.044,416.406 		"/>
		<polygon fill="#ECECEC" points="788.624,359.342 856.481,382.504 836.136,400.846 770.67,382.504 		"/>
	</g>
	<g>
		<polygon fill="#D9D9D9" points="808.483,341.805 828.075,333.491 776.477,267.176 781.554,304.541 		"/>
		<polygon fill="#ECECEC" points="842.991,367.751 859.87,364.336 828.075,333.491 808.483,341.805 		"/>
		<polygon fill="#C6C6C5" points="808.483,341.805 842.991,367.751 835.538,381.173 802.914,354.628 		"/>
		<polygon fill="#9C9B9B" points="781.554,304.541 780.569,325.554 802.914,354.628 808.483,341.805 		"/>
		<polyline fill="#B1B1B1" points="859.87,364.336 862.167,367.73 858.31,382.504 850.442,389.606 840.147,385.037 835.538,381.173 
			842.991,367.751 		"/>
	</g>
	<polygon fill="#C6C6C5" points="845.298,372.053 840.151,381.173 843.356,385.362 854.431,389.606 863.333,380.829 
		863.333,369.112 857.901,369.112 	"/>
	<g>
		<polygon fill="#ECECEC" points="846.036,513.562 860.282,499.568 878.089,505.439 862.817,515.049 		"/>
		<polygon fill="#9C9B9B" points="862.067,531.729 862.817,515.049 878.089,505.439 884.476,514.389 		"/>
		<polygon fill="#C6C6C5" points="842.829,534.344 833.593,510.73 846.036,513.562 862.817,515.049 862.067,531.729 		"/>
		<polygon fill="#C6C6C5" points="797.309,449.098 808.394,467.598 846.036,513.562 860.282,499.568 815.495,430.426 		"/>
		<polygon fill="#D9D9D9" points="777.904,453.242 797.309,449.098 808.394,467.598 791.448,474.611 		"/>
		<polygon fill="#B1B1B1" points="846.036,513.562 808.394,467.598 791.448,474.611 833.593,510.73 		"/>
		<polygon fill="#D9D9D9" points="783.128,430.68 801.381,413.695 815.495,430.426 797.309,449.098 		"/>
		<polygon fill="#C6C6C5" points="710.078,402.416 783.128,430.68 797.309,449.098 777.904,453.242 718.236,429.189 		"/>
		<polygon fill="#ECECEC" points="783.128,430.68 801.381,413.695 764.102,388.404 710.078,402.416 		"/>
	</g>
	<g>
		<path fill="#ECECEC" d="M872.901,354.745l-6.383-5.012h-0.006c-4.035-3.307-11.521-3.079-21.318,1.472
			c-18.619,8.646-38.516,29.608-44.442,46.821c-2.656,7.715-2.043,13.36,1.11,16.467l-0.01,0.004l0.075,0.059
			c0.401,0.387,0.841,0.736,1.322,1.043l6.235,4.91l1.024-3.283c3.683-0.143,8.142-1.334,13.229-3.695
			c18.617-8.646,38.516-29.609,44.438-46.818c1.646-4.781,2.037-8.766,1.35-11.849L872.901,354.745z M861.536,369.795
			c-4.758,13.818-20.734,30.65-35.684,37.594c-7.189,3.34-12.826,3.775-16.219,1.801l7.123-20.776l20.598-21.737l23.057-10.33
			C863.147,358.791,863.733,363.41,861.536,369.795z"/>
		<path fill="#ECECEC" d="M834.466,413.096l20.893-15.318l11.377-14.847l1.01-2.46l2.107-16.747l-0.727-0.234
			c0.367-1.511,0.584-2.92,0.674-4.234l-7.789-0.755c1.256,2.633,1.191,6.456-0.475,11.295
			c-4.758,13.818-20.734,30.65-35.684,37.594c-6.641,3.084-11.956,3.693-15.403,2.213l3.271,7.262
			c0.796-0.143,1.617-0.324,2.467-0.549l5.976,1.322l4.434-0.77L834.466,413.096z"/>
		<g>
			<path fill="#B1B1B1" d="M832.138,412.324c-14.949,6.943-23.213,1.369-18.456-12.449c4.759-13.821,20.733-30.65,35.685-37.593
				c14.947-6.942,23.213-1.371,18.455,12.449C863.065,388.549,847.089,405.381,832.138,412.324 M851.481,356.139
				c-18.619,8.647-38.517,29.609-44.442,46.822c-5.923,17.209,4.368,24.15,22.987,15.504c18.617-8.646,38.514-29.61,44.438-46.818
				C880.39,354.434,870.099,347.493,851.481,356.139"/>
		</g>
	</g>
	<polygon fill="#ECECEC" points="787.925,394.146 794.527,395.285 797.502,394.264 802.829,392.99 800.947,397.473 804.335,398.611 
		808.795,398.611 815.363,395.8 816.817,392.99 819.854,394.744 818.929,405.102 816.549,411.938 810.449,416.09 804.438,417.637 
		790.306,414.951 781.3,411.662 	"/>
	<polygon fill="#C6C6C5" points="793.825,402.707 803.762,403.41 810.449,401.834 814.009,399.838 808.795,398.611 815.363,395.8 
		816.817,392.99 819.854,394.744 818.929,405.102 816.549,411.938 810.449,416.09 804.438,417.637 790.306,414.951 783.128,412.33 
		786.994,393.835 793.337,395.079 792.107,402.238 	"/>
	<g>
		<polygon fill="#D9D9D9" points="733.587,387.518 701.985,312.337 720.822,337.282 744.038,380.094 		"/>
		<polygon fill="#ECECEC" points="733.587,387.518 744.038,380.094 791.069,392.101 788.688,402.707 		"/>
		<polygon fill="#D9D9D9" points="712.666,397.142 733.587,387.518 727.063,407.803 		"/>
		<polygon fill="#ECECEC" points="675.283,309.936 701.985,312.337 733.587,387.518 712.666,397.142 679.707,342.49 		"/>
		<polygon fill="#C6C6C5" points="727.063,407.803 733.587,387.518 788.688,402.707 784.968,419.305 		"/>
	</g>
	<polygon fill="#D9D9D9" points="699.151,280.502 686.074,262.588 681.88,238.161 685.519,220.202 698.495,208.765 712.986,201.955 
		727.374,204.107 739.943,211.767 749.692,221.51 754.492,235.677 758.7,258.145 758.147,270.758 753.975,281.634 741.572,289.086 
		720.758,290.018 	"/>
	<polygon fill="#C6C6C5" points="753.354,262.795 737.207,270.869 711.537,269.42 706.996,271.54 686.074,262.588 699.151,280.502 
		720.758,290.018 741.572,289.086 753.975,281.634 758.147,270.758 758.7,258.145 754.492,235.677 	"/>
	<polygon fill="#9C9B9B" points="754.492,235.677 750.111,247.238 737.821,254.722 719.582,255.239 704.113,251.152 
		699.788,255.136 699.788,262.769 706.996,271.54 721.773,278.057 742.28,277.133 754.156,270.248 758.7,258.145 	"/>
	<polygon fill="#ECECEC" points="681.88,238.161 701.985,244.045 729.244,239.61 745.539,231.743 749.692,221.51 739.943,211.767 
		727.374,204.107 712.986,201.955 698.495,208.765 685.519,220.202 	"/>
	<polygon fill="#C6C6C5" points="861.677,376.542 857.019,388.068 865.61,391.883 869.853,390.799 876.788,375.012 874.69,370.966 
		873.271,374.494 	"/>
	<polygon fill="#ECECEC" points="845.298,372.053 847.329,378.634 855.62,381.173 857.171,378.62 861.312,378.483 868.144,378.257 
		869.97,374.928 868.505,373.134 864.417,372.409 861.108,370.966 862.167,367.73 856.165,366.742 	"/>
	<polygon fill="#C6C6C5" points="845.298,372.053 850.185,375.308 855.981,372.053 862.167,374.068 869.97,374.928 868.144,378.257 
		857.171,378.62 855.62,381.173 847.329,378.634 	"/>
</g>
<g id="carenage-front_4_">
	<g>
		<polygon fill="#9C9B9B" points="918.776,464.02 911.692,446.48 869.397,400.127 847.806,412.676 847.216,413.018 825.624,425.566 
			867.919,471.92 886.675,482.676 949.497,541.535 959.413,535.771 960.003,535.43 969.917,529.668 		"/>
		<polygon fill="#D9D9D9" points="918.776,455.494 911.692,437.955 869.397,391.604 847.806,404.152 847.216,404.492 
			825.624,417.043 867.919,463.396 886.675,474.152 949.497,533.012 959.413,527.248 960.003,526.906 969.917,521.143 		"/>
		<polygon fill="#B1B1B1" points="825.624,417.043 825.624,425.566 867.919,471.92 867.919,463.396 		"/>
		<polygon fill="#9C9B9B" points="886.675,482.676 886.675,474.152 867.919,463.396 867.919,471.92 		"/>
		<polygon fill="#B1B1B1" points="949.497,533.012 949.497,541.535 886.675,482.676 886.675,474.152 		"/>
	</g>
	<g>
		<g>
			<polygon fill="#D9D9D9" points="1049.651,453.391 1035.12,530.543 984.497,559.963 933.886,589.377 800.745,598.045 
				851.526,568.533 906.163,562.516 947.409,538.547 988.661,514.57 998.868,482.904 			"/>
		</g>
		<g>
			<polygon fill="#ECECEC" points="1049.651,428.57 998.868,443.736 988.661,489.75 947.409,513.725 906.163,537.695 
				851.526,529.367 800.745,573.225 933.886,576.965 984.497,547.553 1035.12,518.133 			"/>
		</g>
		<polygon fill="#B1B1B1" points="1035.12,530.543 1035.12,518.133 1049.651,428.57 1049.651,453.391 		"/>
		<polygon fill="#9C9B9B" points="933.886,589.377 933.886,576.965 1035.12,518.133 1035.12,530.543 		"/>
		<polygon fill="#B1B1B1" points="933.886,589.377 933.886,576.965 800.745,573.225 800.745,598.045 		"/>
		<polygon fill="#C6C6C5" points="933.886,576.965 906.163,537.695 851.526,529.367 800.745,573.225 		"/>
		<polygon fill="#D9D9D9" points="1035.12,518.133 988.661,489.75 906.163,537.695 933.886,576.965 		"/>
		<polygon fill="#C6C6C5" points="1035.12,518.133 1049.651,428.57 998.868,443.736 988.661,489.75 		"/>
	</g>
</g>
</svg>
