<?xml version="1.0" encoding="utf-8"?>
<!-- Generator: Adobe Illustrator 15.0.0, SVG Export Plug-In . SVG Version: 6.00 Build 0)  -->
<!DOCTYPE svg PUBLIC "-//W3C//DTD SVG 1.1//EN" "http://www.w3.org/Graphics/SVG/1.1/DTD/svg11.dtd">
<svg version="1.1" id="VALEUR-dispatch" xmlns="http://www.w3.org/2000/svg" xmlns:xlink="http://www.w3.org/1999/xlink" x="0px"
	 y="0px" width="1600px" height="900px" viewBox="0 0 1600 900" enable-background="new 0 0 1600 900" xml:space="preserve">
<g id="roue-back-right">
	<path fill="#575756" d="M468.417,533.822c0.052-18.529-12.974-41.092-29.1-50.397c-7.919-4.574-15.107-5.09-20.384-2.243
		l-0.011-0.021l-33.405,19.448l6.096,9.862c-0.003,0.15-0.011,0.295-0.011,0.445c-0.052,18.527,12.975,41.092,29.1,50.398
		c1.153,0.666,2.29,1.236,3.409,1.73l4.612,7.465l16.625-9.457c0.107-0.059,0.213-0.115,0.316-0.178l14.376-8.412l-0.003-0.004
		C465.195,549.381,468.392,542.945,468.417,533.822z"/>
	<g>
		<path fill="#868686" d="M406.433,502.556c-16.124-9.312-29.238-1.839-29.29,16.69s12.975,41.092,29.101,50.398
			c16.123,9.311,29.237,1.838,29.289-16.691C435.585,534.426,422.559,511.863,406.433,502.556"/>
	</g>
	<g>
		<path fill="#C6C6C5" d="M406.389,518.203c-8.603-4.969-15.599-0.98-15.626,8.906c-0.028,9.883,6.923,21.922,15.525,26.887
			c8.601,4.967,15.599,0.98,15.627-8.906C421.942,535.207,414.993,523.168,406.389,518.203"/>
	</g>
	<path fill="#D9D9D9" d="M421.916,545.09c-0.006,1.957-0.288,3.678-0.798,5.148c-1.375-0.332-2.827-0.914-4.333-1.781
		c-8.601-4.967-15.553-17.004-15.525-26.887c0.006-1.967,0.298-3.686,0.818-5.156c1.37,0.338,2.814,0.926,4.311,1.789
		C414.993,523.168,421.942,535.207,421.916,545.09z"/>
</g>
<g id="roue-back-left">
	<path fill="#575756" d="M1028.052,211.063c0.051-18.529-12.975-41.092-29.1-50.398c-7.92-4.574-15.107-5.089-20.385-2.243
		l-0.012-0.021l-33.405,19.448l6.096,9.862c-0.002,0.15-0.011,0.294-0.011,0.445c-0.052,18.528,12.976,41.092,29.101,50.399
		c1.153,0.666,2.289,1.236,3.408,1.731l4.613,7.464l16.624-9.457c0.107-0.058,0.213-0.117,0.316-0.178l14.375-8.412l-0.002-0.005
		C1024.829,226.622,1028.026,220.187,1028.052,211.063z"/>
	<g>
		<path fill="#868686" d="M966.068,179.796c-16.125-9.311-29.238-1.839-29.29,16.69c-0.052,18.528,12.976,41.091,29.101,50.398
			c16.124,9.31,29.237,1.839,29.288-16.691C995.22,211.666,982.194,189.103,966.068,179.796"/>
	</g>
	<g>
		<path fill="#C6C6C5" d="M966.023,195.444c-8.603-4.969-15.598-0.98-15.626,8.906c-0.028,9.883,6.923,21.922,15.525,26.886
			c8.602,4.967,15.6,0.981,15.628-8.905C981.577,212.448,974.628,200.41,966.023,195.444"/>
	</g>
	<path fill="#D9D9D9" d="M981.551,222.331c-0.006,1.956-0.288,3.678-0.799,5.148c-1.374-0.332-2.826-0.914-4.332-1.782
		c-8.602-4.965-15.554-17.002-15.525-26.886c0.006-1.968,0.298-3.686,0.818-5.156c1.37,0.338,2.814,0.925,4.311,1.789
		C974.628,200.41,981.577,212.448,981.551,222.331z"/>
</g>
<g id="carenage-right">
	<polygon fill="#C6C6C5" points="649.965,541.635 555.334,487 555.334,530.455 649.965,585.09 	"/>
	<polygon fill="#B1B1B1" points="649.965,541.635 679.087,524.805 679.087,568.26 649.965,585.09 	"/>
	<g>
		<polygon fill="#ECECEC" points="679.087,524.805 584.148,470.168 555.334,487 649.965,541.635 		"/>
	</g>
</g>
<g id="carenage-left">
	<polygon fill="#C6C6C5" points="998.658,339.261 904.027,284.626 904.027,328.08 998.658,382.717 	"/>
	<polygon fill="#B1B1B1" points="998.658,339.261 1027.781,322.431 1027.781,365.885 998.658,382.717 	"/>
	<g>
		<polygon fill="#ECECEC" points="1027.781,322.431 932.842,267.794 904.027,284.626 998.658,339.261 		"/>
	</g>
</g>
<g id="roue-front-right">
	<path fill="#575756" d="M655.972,642.314c0.051-18.527-12.974-41.09-29.1-50.396c-7.919-4.574-15.107-5.09-20.385-2.244
		l-0.011-0.021l-33.405,19.449l6.097,9.861c-0.003,0.15-0.012,0.295-0.012,0.445c-0.052,18.527,12.975,41.092,29.1,50.398
		c1.153,0.666,2.29,1.236,3.409,1.732l4.612,7.463l16.626-9.455c0.106-0.059,0.212-0.117,0.315-0.178l14.377-8.412l-0.004-0.006
		C652.749,657.873,655.946,651.438,655.972,642.314z"/>
	<g>
		<path fill="#868686" d="M593.988,611.049c-16.124-9.311-29.238-1.84-29.29,16.691c-0.052,18.527,12.975,41.09,29.101,50.396
			c16.123,9.311,29.237,1.84,29.289-16.689S610.114,620.355,593.988,611.049"/>
	</g>
	<g>
		<path fill="#C6C6C5" d="M593.944,626.695c-8.603-4.967-15.599-0.979-15.626,8.908c-0.028,9.883,6.923,21.92,15.525,26.885
			c8.601,4.967,15.599,0.98,15.627-8.904C609.497,643.699,602.547,631.662,593.944,626.695"/>
	</g>
	<path fill="#D9D9D9" d="M609.47,653.584c-0.006,1.955-0.288,3.676-0.798,5.148c-1.375-0.334-2.827-0.914-4.333-1.783
		c-8.601-4.965-15.553-17.002-15.524-26.887c0.005-1.967,0.297-3.686,0.818-5.154c1.37,0.338,2.814,0.924,4.311,1.787
		C602.547,631.662,609.497,643.699,609.47,653.584z"/>
</g>
<g id="roue-front-left">
	<path fill="#575756" d="M1215.606,319.557c0.051-18.529-12.975-41.092-29.1-50.399c-7.92-4.573-15.107-5.089-20.385-2.243
		l-0.012-0.021l-33.404,19.448l6.096,9.863c-0.004,0.149-0.012,0.293-0.012,0.445c-0.051,18.528,12.975,41.091,29.1,50.397
		c1.154,0.666,2.289,1.236,3.408,1.732l4.613,7.465l16.625-9.457c0.107-0.059,0.213-0.117,0.316-0.178l14.377-8.412l-0.004-0.004
		C1212.384,335.113,1215.581,328.68,1215.606,319.557z"/>
	<g>
		<path fill="#868686" d="M1153.622,288.29c-16.123-9.311-29.236-1.839-29.289,16.691c-0.051,18.527,12.975,41.09,29.102,50.398
			c16.123,9.309,29.236,1.838,29.287-16.691C1182.774,320.158,1169.749,297.595,1153.622,288.29"/>
	</g>
	<g>
		<path fill="#C6C6C5" d="M1153.579,303.938c-8.604-4.969-15.6-0.98-15.627,8.906c-0.027,9.883,6.924,21.92,15.525,26.885
			c8.602,4.967,15.6,0.98,15.627-8.904S1162.183,308.902,1153.579,303.938"/>
	</g>
	<path fill="#D9D9D9" d="M1169.104,330.824c-0.006,1.955-0.287,3.678-0.797,5.148c-1.375-0.332-2.828-0.914-4.334-1.783
		c-8.6-4.965-15.553-17.002-15.523-26.885c0.006-1.969,0.297-3.688,0.818-5.156c1.369,0.338,2.812,0.924,4.311,1.789
		C1162.183,308.902,1169.132,320.939,1169.104,330.824z"/>
</g>
<g id="moteur">
	<g>
		<path fill="#D9D9D9" d="M509.732,198.382c0.006-2.303-1.612-5.107-3.616-6.264c-0.984-0.567-1.877-0.632-2.533-0.278
			l-16.378,9.441l-0.672,0.393l0.758,1.226c0,0.019-0.001,0.037-0.001,0.055c-0.007,2.304,1.613,5.107,3.616,6.265
			c0.144,0.084,0.284,0.154,0.424,0.215l0.573,0.928l16.736-9.633c0.014-0.007,0.026-0.014,0.039-0.022l-16.361,9.438l16.374-9.445
			C509.333,200.317,509.729,199.516,509.732,198.382z"/>
		<path fill="#D9D9D9" d="M504.392,211.092c0.021-7.592-5.315-16.836-11.923-20.648c-3.245-1.873-6.189-2.086-8.352-0.92
			l-53.985,31.125l-2.217,1.293l2.498,4.041c-0.001,0.061-0.004,0.12-0.004,0.182c-0.021,7.592,5.316,16.836,11.922,20.648
			c0.474,0.273,0.938,0.508,1.396,0.709l1.891,3.059l55.169-31.754c0.042-0.023,0.085-0.047,0.128-0.072l-53.937,31.108
			l53.979-31.135C503.072,217.467,504.381,214.831,504.392,211.092z"/>
		<g>
			<path fill="#C6C6C6" d="M436.485,222.739c-6.605-3.813-11.979-0.752-11.999,6.84c-0.021,7.59,5.315,16.834,11.922,20.648
				c6.605,3.813,11.979,0.752,11.999-6.838C448.43,235.797,443.092,226.553,436.485,222.739"/>
		</g>
		<path fill="#D9D9D9" d="M439.948,238.672c0.007-2.303-1.611-5.107-3.616-6.264c-0.984-0.568-1.877-0.633-2.534-0.279
			l-16.376,9.442l-0.673,0.392l0.758,1.227c0,0.019-0.001,0.036-0.001,0.055c-0.008,2.303,1.612,5.107,3.616,6.265
			c0.144,0.082,0.284,0.153,0.424,0.216l0.573,0.926l16.736-9.631c0.013-0.009,0.026-0.016,0.038-0.022l-16.361,9.437l16.375-9.445
			C439.549,240.606,439.945,239.807,439.948,238.672z"/>
	</g>
	<g>
		<path fill="#868686" d="M411.613,247.398c-2.005-1.157-3.635-0.228-3.642,2.075c-0.006,2.303,1.612,5.106,3.617,6.264
			c2.004,1.156,3.633,0.229,3.641-2.076C415.235,251.358,413.616,248.555,411.613,247.398"/>
	</g>
	<g>
		<g>
			<path fill="#B1B1B1" d="M423.593,262.429l-24.202-13.975c-2.098-1.211-5.487-1.211-7.572,0l-24.043,13.975
				c-2.086,1.211-2.074,3.174,0.024,4.385l24.201,13.975c2.098,1.211,5.487,1.211,7.572,0l24.043-13.975
				C425.701,265.603,425.69,263.64,423.593,262.429"/>
		</g>
		<rect x="366.218" y="261.587" fill="#B1B1B1" width="58.955" height="3.033"/>
		<g>
			<path fill="#ECECEC" d="M423.593,259.394l-24.202-13.974c-2.098-1.212-5.487-1.212-7.572,0l-24.043,13.974
				c-2.086,1.211-2.074,3.174,0.024,4.387l24.201,13.973c2.098,1.211,5.487,1.211,7.572,0l24.043-13.973
				C425.701,262.569,425.69,260.604,423.593,259.394"/>
		</g>
	</g>
	<g>
		<g>
			<path fill="#B1B1B1" d="M423.593,256.384l-24.202-13.973c-2.098-1.212-5.487-1.212-7.572,0l-24.043,13.973
				c-2.086,1.211-2.074,3.176,0.024,4.387l24.201,13.973c2.098,1.211,5.487,1.211,7.572,0l24.043-13.973
				C425.701,259.56,425.69,257.595,423.593,256.384"/>
		</g>
		<rect x="366.218" y="255.542" fill="#B1B1B1" width="58.955" height="3.035"/>
		<g>
			<path fill="#ECECEC" d="M423.593,253.351l-24.202-13.975c-2.098-1.211-5.487-1.211-7.572,0l-24.043,13.975
				c-2.086,1.211-2.074,3.174,0.024,4.385l24.201,13.975c2.098,1.211,5.487,1.211,7.572,0l24.043-13.975
				C425.701,256.524,425.69,254.562,423.593,253.351"/>
		</g>
	</g>
	<g>
		<g>
			<path fill="#B1B1B1" d="M423.593,250.34l-24.202-13.975c-2.098-1.211-5.487-1.211-7.572,0l-24.043,13.975
				c-2.086,1.211-2.074,3.174,0.024,4.385l24.201,13.975c2.098,1.211,5.487,1.211,7.572,0l24.043-13.975
				C425.701,253.515,425.69,251.552,423.593,250.34"/>
		</g>
		<rect x="366.218" y="249.499" fill="#B1B1B1" width="58.955" height="3.034"/>
		<g>
			<path fill="#ECECEC" d="M423.593,247.305l-24.202-13.974c-2.098-1.21-5.487-1.21-7.572,0l-24.043,13.974
				c-2.086,1.211-2.074,3.174,0.024,4.387l24.201,13.973c2.098,1.213,5.487,1.213,7.572,0l24.043-13.973
				C425.701,250.481,425.69,248.516,423.593,247.305"/>
		</g>
	</g>
	<g>
		<g>
			<path fill="#B1B1B1" d="M423.593,244.295l-24.202-13.973c-2.098-1.211-5.487-1.211-7.572,0l-24.043,13.973
				c-2.086,1.212-2.074,3.176,0.024,4.387l24.201,13.973c2.098,1.213,5.487,1.213,7.572,0l24.043-13.973
				C425.701,247.471,425.69,245.507,423.593,244.295"/>
		</g>
		<rect x="366.218" y="243.456" fill="#B1B1B1" width="58.955" height="3.033"/>
		<g>
			<path fill="#ECECEC" d="M423.593,241.262l-24.202-13.974c-2.098-1.212-5.487-1.212-7.572,0l-24.043,13.974
				c-2.086,1.211-2.074,3.174,0.024,4.386l24.201,13.974c2.098,1.211,5.487,1.211,7.572,0l24.043-13.974
				C425.701,244.436,425.69,242.473,423.593,241.262"/>
		</g>
	</g>
	<g>
		<g>
			<path fill="#B1B1B1" d="M423.593,238.252l-24.202-13.974c-2.098-1.212-5.487-1.212-7.572,0l-24.043,13.974
				c-2.086,1.211-2.074,3.174,0.024,4.386l24.201,13.974c2.098,1.211,5.487,1.211,7.572,0l24.043-13.974
				C425.701,241.426,425.69,239.463,423.593,238.252"/>
		</g>
		<rect x="366.218" y="237.411" fill="#B1B1B1" width="58.955" height="3.035"/>
		<g>
			<path fill="#ECECEC" d="M423.593,235.218l-24.202-13.974c-2.098-1.211-5.487-1.211-7.572,0l-24.043,13.974
				c-2.086,1.212-2.074,3.175,0.024,4.386l24.201,13.973c2.098,1.213,5.487,1.213,7.572,0l24.043-13.973
				C425.701,238.393,425.69,236.43,423.593,235.218"/>
		</g>
	</g>
	<g>
		<defs>
			<polyline id="SVGID_1_" points="384.459,220.026 420.855,241.204 433.249,234.049 390.926,204.7 384.459,220.026 			"/>
		</defs>
		<clipPath id="SVGID_2_">
			<use xlink:href="#SVGID_1_"  overflow="visible"/>
		</clipPath>
		<path clip-path="url(#SVGID_2_)" fill="#ECECEC" d="M420.009,226.512l-24.205-13.975c-2.095-1.21-3.801-0.238-3.808,2.17
			l-0.078,8.703c-0.008,2.411,1.688,5.346,3.783,6.557l24.203,13.975c2.099,1.211,3.804,0.239,3.812-2.172l0.078-8.703
			C423.801,230.659,422.106,227.723,420.009,226.512"/>
		<polygon clip-path="url(#SVGID_2_)" fill="#ECECEC" points="390.14,213.98 392.954,212.354 421.329,228.737 421.83,244.623 
			419.933,245.718 		"/>
		<path clip-path="url(#SVGID_2_)" fill="#B1B1B1" d="M417.128,228.165l-24.204-13.975c-2.096-1.209-3.801-0.238-3.809,2.17
			l-0.078,8.703c-0.007,2.412,1.688,5.347,3.784,6.557l24.203,13.975c2.099,1.212,3.804,0.24,3.812-2.172l0.077-8.702
			C420.921,232.312,419.226,229.376,417.128,228.165"/>
	</g>
	<g>
		<defs>
			<polyline id="SVGID_3_" points="378.896,223.237 415.292,244.416 427.685,237.26 385.362,207.912 378.896,223.237 			"/>
		</defs>
		<clipPath id="SVGID_4_">
			<use xlink:href="#SVGID_3_"  overflow="visible"/>
		</clipPath>
		<path clip-path="url(#SVGID_4_)" fill="#ECECEC" d="M414.444,229.724L390.24,215.75c-2.095-1.211-3.801-0.239-3.808,2.169
			l-0.078,8.702c-0.008,2.412,1.688,5.348,3.783,6.557l24.203,13.976c2.098,1.212,3.805,0.239,3.811-2.172l0.079-8.702
			C418.236,233.872,416.542,230.936,414.444,229.724"/>
		<polygon clip-path="url(#SVGID_4_)" fill="#ECECEC" points="384.575,217.192 387.39,215.567 415.766,231.95 416.267,247.834 
			414.369,248.93 		"/>
		<path clip-path="url(#SVGID_4_)" fill="#B1B1B1" d="M411.563,231.377l-24.203-13.976c-2.096-1.21-3.801-0.237-3.809,2.171
			l-0.078,8.702c-0.007,2.411,1.688,5.347,3.784,6.557l24.202,13.976c2.099,1.211,3.805,0.238,3.812-2.172l0.077-8.703
			C415.357,235.524,413.661,232.588,411.563,231.377"/>
	</g>
	<g>
		<defs>
			<polyline id="SVGID_5_" points="373.332,226.45 409.729,247.627 422.121,240.473 379.798,211.124 373.332,226.45 			"/>
		</defs>
		<clipPath id="SVGID_6_">
			<use xlink:href="#SVGID_5_"  overflow="visible"/>
		</clipPath>
		<path clip-path="url(#SVGID_6_)" fill="#ECECEC" d="M408.881,232.937l-24.204-13.976c-2.097-1.21-3.802-0.237-3.809,2.171
			l-0.078,8.702c-0.007,2.411,1.688,5.347,3.784,6.557l24.203,13.975c2.098,1.211,3.804,0.239,3.811-2.172l0.078-8.702
			C412.673,237.083,410.979,234.147,408.881,232.937"/>
		<polygon clip-path="url(#SVGID_6_)" fill="#ECECEC" points="379.012,220.404 381.826,218.778 410.202,235.162 410.703,251.046 
			408.806,252.144 		"/>
		<path clip-path="url(#SVGID_6_)" fill="#B1B1B1" d="M406,234.588l-24.203-13.974c-2.098-1.21-3.802-0.239-3.809,2.169
			l-0.079,8.703c-0.006,2.412,1.688,5.348,3.784,6.557l24.203,13.975c2.098,1.211,3.804,0.24,3.811-2.172l0.078-8.701
			C409.793,238.736,408.099,235.8,406,234.588"/>
	</g>
	<g>
		<defs>
			<polyline id="SVGID_7_" points="367.769,229.663 404.165,250.841 416.558,243.684 374.234,214.336 367.769,229.663 			"/>
		</defs>
		<clipPath id="SVGID_8_">
			<use xlink:href="#SVGID_7_"  overflow="visible"/>
		</clipPath>
		<path clip-path="url(#SVGID_8_)" fill="#ECECEC" d="M403.316,236.149l-24.204-13.975c-2.096-1.211-3.801-0.238-3.808,2.17
			l-0.078,8.703c-0.008,2.411,1.688,5.346,3.783,6.557l24.204,13.975c2.098,1.211,3.804,0.238,3.811-2.172l0.078-8.703
			C407.109,240.295,405.415,237.36,403.316,236.149"/>
		<polygon clip-path="url(#SVGID_8_)" fill="#ECECEC" points="373.448,223.616 376.262,221.991 404.639,238.374 405.14,254.259 
			403.242,255.354 		"/>
		<path clip-path="url(#SVGID_8_)" fill="#B1B1B1" d="M400.437,237.801l-24.203-13.975c-2.097-1.211-3.802-0.238-3.81,2.17
			l-0.078,8.703c-0.006,2.41,1.688,5.346,3.784,6.557l24.203,13.975c2.098,1.211,3.804,0.238,3.811-2.172l0.078-8.703
			C404.229,241.949,402.534,239.012,400.437,237.801"/>
	</g>
	<g>
		<defs>
			<polyline id="SVGID_9_" points="362.205,232.874 398.601,254.052 410.993,246.897 368.671,217.548 362.205,232.874 			"/>
		</defs>
		<clipPath id="SVGID_10_">
			<use xlink:href="#SVGID_9_"  overflow="visible"/>
		</clipPath>
		<path clip-path="url(#SVGID_10_)" fill="#ECECEC" d="M397.753,239.362l-24.204-13.975c-2.096-1.211-3.801-0.238-3.808,2.169
			l-0.079,8.702c-0.006,2.412,1.688,5.348,3.784,6.559l24.203,13.975c2.098,1.211,3.805,0.238,3.811-2.172l0.079-8.704
			C401.545,243.508,399.851,240.573,397.753,239.362"/>
		<polygon clip-path="url(#SVGID_10_)" fill="#ECECEC" points="367.884,226.828 370.698,225.204 399.074,241.585 399.575,257.472 
			397.679,258.567 		"/>
		<path clip-path="url(#SVGID_10_)" fill="#B1B1B1" d="M394.872,241.014l-24.203-13.975c-2.097-1.211-3.801-0.238-3.809,2.17
			l-0.078,8.702c-0.007,2.411,1.688,5.347,3.784,6.557l24.202,13.976c2.098,1.211,3.805,0.238,3.812-2.172l0.078-8.704
			C398.665,245.161,396.971,242.224,394.872,241.014"/>
	</g>
</g>
<g id="siege">
	<g>
		<g>
			<polygon fill="#B1B1B1" points="677.091,318.544 747.015,278.108 768.762,385.941 768.762,398.411 709.002,432.979 			"/>
			<polygon fill="#C6C6C5" points="677.091,318.544 666.417,315.073 699.463,428.613 709.002,432.979 709.002,420.539 			"/>
			<g>
				<polygon fill="#F5F5F5" points="747.015,278.108 736.042,274.635 666.417,315.073 677.091,318.544 				"/>
			</g>
		</g>
		<g>
			<polygon fill="#C6C6C5" points="774.926,452.115 709.002,420.541 709.002,432.965 774.926,464.541 			"/>
			<polygon fill="#B1B1B1" points="774.926,452.115 844.851,411.68 844.851,424.105 774.926,464.541 			"/>
			<g>
				<polygon fill="#F5F5F5" points="844.851,411.68 768.464,385.972 709.002,420.541 774.926,452.115 				"/>
			</g>
		</g>
	</g>
</g>
<g id="carenage-front">
	<g>
		<polygon fill="#9C9B9B" points="1091.981,564.02 1084.897,546.48 1042.603,500.127 1021.011,512.676 1020.421,513.018 
			998.829,525.566 1041.124,571.92 1059.88,582.676 1122.702,641.535 1132.618,635.771 1133.208,635.43 1143.122,629.668 		"/>
		<polygon fill="#D9D9D9" points="1091.981,555.494 1084.897,537.955 1042.603,491.604 1021.011,504.152 1020.421,504.492 
			998.829,517.043 1041.124,563.396 1059.88,574.152 1122.702,633.012 1132.618,627.248 1133.208,626.906 1143.122,621.143 		"/>
		<polygon fill="#B1B1B1" points="998.829,517.043 998.829,525.566 1041.124,571.92 1041.124,563.396 		"/>
		<polygon fill="#9C9B9B" points="1059.88,582.676 1059.88,574.152 1041.124,563.396 1041.124,571.92 		"/>
		<polygon fill="#B1B1B1" points="1122.702,633.012 1122.702,641.535 1059.88,582.676 1059.88,574.152 		"/>
	</g>
	<g>
		<g>
			<polygon fill="#D9D9D9" points="1222.856,553.391 1208.325,630.543 1157.702,659.963 1107.091,689.377 973.949,698.045 
				1024.731,668.533 1079.368,662.516 1120.614,638.547 1161.866,614.57 1172.073,582.904 			"/>
		</g>
		<g>
			<polygon fill="#ECECEC" points="1222.856,528.57 1172.073,543.736 1161.866,589.75 1120.614,613.725 1079.368,637.695 
				1024.731,629.367 973.949,673.225 1107.091,676.965 1157.702,647.553 1208.325,618.133 			"/>
		</g>
		<polygon fill="#B1B1B1" points="1208.325,630.543 1208.325,618.133 1222.856,528.57 1222.856,553.391 		"/>
		<polygon fill="#9C9B9B" points="1107.091,689.377 1107.091,676.965 1208.325,618.133 1208.325,630.543 		"/>
		<polygon fill="#B1B1B1" points="1107.091,689.377 1107.091,676.965 973.949,673.225 973.949,698.045 		"/>
		<polygon fill="#C6C6C5" points="1107.091,676.965 1079.368,637.695 1024.731,629.367 973.949,673.225 		"/>
		<polygon fill="#D9D9D9" points="1208.325,618.133 1161.866,589.75 1079.368,637.695 1107.091,676.965 		"/>
		<polygon fill="#C6C6C5" points="1208.325,618.133 1222.856,528.57 1172.073,543.736 1161.866,589.75 		"/>
	</g>
</g>
<g id="klaxon">
	<g>
		<polygon fill="#C6C6C5" points="777.57,699.96 800.724,686.593 800.724,713.2 777.57,726.567 		"/>
		<polygon fill="#B1B1B1" points="777.57,699.96 754.417,686.593 754.417,713.2 777.57,726.567 		"/>
		<g>
			<polygon fill="#D9D9D9" points="754.417,686.593 777.646,673.225 800.724,686.593 777.57,699.96 			"/>
		</g>
	</g>
	<g>
		<path fill="#ECECEC" d="M784.97,707.973c-0.006-2.013,1.41-4.464,3.162-5.476c0.859-0.497,1.641-0.553,2.215-0.244v-0.002
			l0.236,0.072c34.223,17.217,44.534,6.953,51.209,7.525l-0.02,6.84c0,0.086,0.006,0.17,0.006,0.256
			c0.029,10.711-7.5,23.752-16.82,29.132c-0.668,0.386-1.324,0.714-1.971,1.001l-3.928,3.068c-3.416-4.225,23.6-4.764-33.014-39.994
			l-0.166-0.152v-0.002C785.32,709.663,784.972,708.964,784.97,707.973z"/>
		<g>
			<defs>
				<path id="SVGID_11_" d="M784.97,707.973c-0.006-2.013,1.41-4.464,3.162-5.476c0.859-0.497,1.641-0.553,2.215-0.244v-0.002
					l0.236,0.072c33.563,18.062,44.534,6.953,51.209,7.525l-0.02,6.84c0,0.086,0.006,0.17,0.006,0.256
					c0.029,10.711-7.5,23.752-16.82,29.132c-0.668,0.386-1.324,0.714-1.971,1.001l-3.928,3.068
					c-3.416-4.225-0.906-18.643-33.014-39.994l-0.166-0.152v-0.002C785.32,709.663,784.972,708.964,784.97,707.973z"/>
			</defs>
			<clipPath id="SVGID_12_">
				<use xlink:href="#SVGID_11_"  overflow="visible"/>
			</clipPath>
			<path clip-path="url(#SVGID_12_)" fill="#D9D9D9" d="M823.109,732.549c-16.873-17.11-29.293-23.196-38.747-28.222
				c-9.453-5.026-0.6,6.222-0.6,6.222l20.081,41.743c0,0,24.17,13.762,25.008,13.762S823.109,732.549,823.109,732.549z"/>
		</g>
		<path fill="#B1B1B1" d="M833.205,712.112c9.32-5.381,16.9-1.062,16.93,9.648c0.031,10.709-7.5,23.751-16.82,29.131
			c-9.318,5.381-16.898,1.062-16.93-9.646C816.355,730.534,823.885,717.492,833.205,712.112"/>
	</g>
	<g>
		<defs>
			<path id="SVGID_13_" d="M833.205,712.112c9.32-5.381,16.9-1.062,16.93,9.648c0.031,10.709-7.5,23.751-16.82,29.131
				c-9.318,5.381-16.898,1.062-16.93-9.646C816.355,730.534,823.885,717.492,833.205,712.112"/>
		</defs>
		<clipPath id="SVGID_14_">
			<use xlink:href="#SVGID_13_"  overflow="visible"/>
		</clipPath>
		<path clip-path="url(#SVGID_14_)" fill="#C6C6C5" d="M843.451,742.958c-13.66-11.846-31.59-20.855-31.59-20.855l-3.711,18.404
			l5.266,15.615l26.863-1.438L843.451,742.958z"/>
	</g>
</g>
<g id="phare1">
	<path fill="#D9D9D9" d="M1285.431,659.254c-0.041-14.755,10.332-32.721,23.172-40.132c6.307-3.642,12.031-4.052,16.232-1.786
		l0.01-0.018l10.414,6.142l-33.008,56.616l-10.148-5.979l0.002-0.004C1287.997,671.643,1285.45,666.518,1285.431,659.254z"/>
	<g>
		<path fill="#B1B1B1" d="M1318.601,625.011c12.84-7.413,23.281-1.464,23.322,13.291c0.043,14.753-10.33,32.72-23.172,40.132
			c-12.838,7.412-23.281,1.463-23.322-13.291C1295.388,650.387,1305.761,632.422,1318.601,625.011"/>
	</g>
	<g>
		<path fill="#F6F6F6" d="M1318.614,629.491c10.686-6.17,19.375-1.219,19.41,11.062c0.033,12.277-8.598,27.23-19.285,33.4
			c-10.686,6.168-19.377,1.217-19.41-11.062C1299.294,650.611,1307.927,635.659,1318.614,629.491"/>
	</g>
	<path fill="#B1B1B1" d="M1301.308,679.461l0.604-0.348l0.002,0.75c0.08,0.049,0.156,0.102,0.236,0.148l-0.002-1.035l2.807-1.621
		l0.01,3.227l-0.688,0.396c0.1,0.033,0.199,0.066,0.303,0.098l0.385-0.223l0.002,0.336c0.076,0.021,0.154,0.037,0.232,0.057
		l-0.002-0.527l2.809-1.621l0.006,2.514c0.078,0.002,0.156,0.002,0.232,0.002l-0.008-2.648l2.809-1.621l0.01,3.221l-1.762,1.018
		c0.18-0.012,0.357-0.021,0.537-0.041l1.225-0.705l0.002,0.535c0.078-0.014,0.156-0.031,0.236-0.045l-0.002-0.627l2.803-1.619
		l0.006,1.504c0.076-0.027,0.156-0.061,0.234-0.088l-0.004-1.553l2.803-1.617l0.006,1.967c0.08-0.039,0.158-0.076,0.236-0.115
		l-0.006-1.988l2.809-1.621l0.006,1.984c0.076-0.051,0.154-0.104,0.23-0.154l-0.006-1.965l2.809-1.621l0.004,1.541
		c0.078-0.061,0.154-0.119,0.232-0.182l-0.006-1.492l2.809-1.621l0.002,0.607c0.078-0.076,0.158-0.15,0.234-0.229v-0.516
		l1.176-0.678c0.18-0.191,0.357-0.387,0.537-0.582l-1.713,0.988l-0.01-3.221l2.803-1.619l0.008,2.623
		c0.078-0.092,0.158-0.182,0.236-0.275l-0.008-2.484l2.809-1.621v0.486c0.078-0.107,0.156-0.215,0.232-0.322l-0.002-0.297
		l0.338-0.195c0.102-0.146,0.199-0.295,0.301-0.445l-0.639,0.369l-0.008-3.227l2.807-1.621l0.002,0.975
		c0.078-0.137,0.154-0.275,0.232-0.412l-0.002-0.697l0.557-0.32c0.066-0.127,0.133-0.254,0.199-0.383l-0.758,0.438l-0.01-3.227
		l2.809-1.621v0.041c0.078-0.188,0.16-0.375,0.234-0.562l-0.008-3.107l1.396-0.807c0.033-0.111,0.072-0.221,0.105-0.332
		l-1.502,0.867l-0.01-3.223l2.479-1.43c0.021-0.103,0.045-0.206,0.066-0.31l-2.545,1.47l-0.01-3.222l2.803-1.619l0.006,1.992
		c0.088-0.522,0.166-1.042,0.232-1.561l-0.002-0.567l0.072-0.042c0.012-0.096,0.02-0.191,0.029-0.288l-0.104,0.06l-0.008-3.227
		l0.295-0.172c0-0.07,0.004-0.143,0.004-0.213c0-0.019,0-0.036,0-0.055l-0.299,0.173l-0.01-3.227l0.119-0.069
		c-0.01-0.083-0.02-0.166-0.029-0.249l-0.09,0.052l-0.002-0.73c-0.068-0.439-0.15-0.868-0.24-1.287l0.006,2.154l-2.805,1.619
		l-0.008-3.228l2.584-1.491c-0.021-0.08-0.047-0.154-0.068-0.232l-2.518,1.453l-0.008-3.223l1.557-0.899
		c-0.031-0.071-0.066-0.143-0.1-0.213l-1.459,0.842l-0.008-3.227l0.018-0.011c-0.082-0.109-0.17-0.212-0.256-0.317l0.002,0.198
		l-2.809,1.621l-0.01-3.227l0.875-0.506c-0.066-0.051-0.133-0.101-0.201-0.15l-0.674,0.391l-0.002-0.854
		c-0.078-0.049-0.154-0.1-0.232-0.146l0.002,1.132l-2.809,1.621l-0.008-3.227l0.811-0.469c-0.098-0.035-0.199-0.065-0.299-0.098
		l-0.514,0.296v-0.455c-0.076-0.021-0.156-0.036-0.232-0.056l0.002,0.645l-2.809,1.621l-0.006-2.643
		c-0.078-0.002-0.158-0.002-0.236-0.003l0.008,2.782l-2.805,1.618l-0.01-3.222l2.02-1.165c-0.174,0.008-0.348,0.016-0.523,0.03
		l-1.496,0.863l-0.002-0.675c-0.078,0.014-0.156,0.03-0.236,0.045l0.002,0.767l-2.807,1.621l-0.006-1.652
		c-0.076,0.026-0.154,0.059-0.23,0.086l0.004,1.7l-2.809,1.621l-0.006-2.124c-0.076,0.039-0.154,0.074-0.23,0.113l0.006,2.145
		l-2.809,1.621l-0.006-2.148c-0.08,0.051-0.156,0.105-0.236,0.156l0.006,2.129l-2.803,1.618l-0.006-1.712
		c-0.078,0.062-0.156,0.121-0.234,0.184l0.004,1.664l-2.803,1.619l-0.002-0.789c-0.08,0.076-0.158,0.151-0.236,0.229l0.002,0.697
		l-1.555,0.896c-0.174,0.189-0.348,0.38-0.52,0.572l2.074-1.198l0.01,3.222l-2.809,1.621l-0.008-2.812
		c-0.078,0.09-0.154,0.18-0.23,0.271l0.006,2.676l-2.807,1.621l-0.002-0.691c-0.076,0.108-0.154,0.215-0.23,0.324v0.5l-0.566,0.328
		c-0.102,0.148-0.201,0.296-0.301,0.444l0.869-0.501l0.01,3.227l-2.809,1.621l-0.004-1.199c-0.08,0.139-0.156,0.279-0.234,0.42
		l0.002,0.916l-0.727,0.42c-0.066,0.127-0.133,0.254-0.199,0.381l0.928-0.535l0.008,3.226l-2.803,1.619l-0.002-0.297
		c-0.102,0.248-0.207,0.494-0.307,0.742l0.072-0.043l0.01,3.227l-1.512,0.875c-0.035,0.109-0.066,0.219-0.1,0.328l1.611-0.932
		l0.01,3.223l-2.57,1.484c-0.021,0.104-0.047,0.205-0.066,0.309l2.639-1.523l0.008,3.229l-2.809,1.621l-0.006-2.402
		c-0.086,0.488-0.162,0.975-0.229,1.459l0.004,1.076l-0.145,0.084c-0.01,0.094-0.02,0.188-0.027,0.281l0.172-0.1l0.01,3.227
		l-0.354,0.205c0,0.016,0,0.033,0,0.051c0,0.072,0.004,0.141,0.006,0.213l0.348-0.201l0.01,3.227l-0.154,0.088
		c0.01,0.086,0.02,0.17,0.029,0.254l0.125-0.072l0.004,0.906c0.068,0.408,0.146,0.805,0.234,1.193l-0.006-2.232l2.809-1.621
		l0.008,3.221l-2.598,1.5c0.021,0.08,0.047,0.154,0.068,0.232l2.531-1.461l0.008,3.223l-1.555,0.896
		c0.035,0.072,0.072,0.139,0.107,0.211l1.449-0.838l0.008,3.203c0.076,0.1,0.158,0.191,0.238,0.287v-0.133l2.803-1.619l0.01,3.227
		l-0.803,0.465C1301.175,679.359,1301.241,679.412,1301.308,679.461z M1341.397,642.049l-2.805,1.618l-0.008-3.227l2.803-1.619
		L1341.397,642.049z M1341.378,635.329l0.01,3.227l-2.805,1.619l-0.008-3.227L1341.378,635.329z M1338.388,654.287l-2.809,1.621
		l-0.01-3.227l2.809-1.621L1338.388,654.287z M1338.378,650.789l-2.809,1.621l-0.01-3.223l2.809-1.621L1338.378,650.789z
		 M1338.368,647.295l-2.809,1.623l-0.008-3.222l2.807-1.621L1338.368,647.295z M1338.358,643.804l-2.809,1.621l-0.008-3.227
		l2.807-1.621L1338.358,643.804z M1335.54,641.933l-0.01-3.227l2.809-1.622l0.01,3.227L1335.54,641.933z M1338.339,636.818
		l-2.809,1.621l-0.01-3.227l2.809-1.622L1338.339,636.818z M1338.327,633.32l-2.807,1.622l-0.01-3.223l2.809-1.621L1338.327,633.32z
		 M1338.31,626.601l0.01,3.227l-2.809,1.622l-0.01-3.228L1338.31,626.601z M1335.358,659.535l-2.809,1.621l-0.01-3.227l2.809-1.623
		L1335.358,659.535z M1335.349,656.041l-2.809,1.621l-0.01-3.227l2.809-1.621L1335.349,656.041z M1335.337,652.543l-2.807,1.623
		l-0.01-3.223l2.809-1.621L1335.337,652.543z M1335.327,649.051l-2.807,1.621l-0.01-3.221l2.809-1.622L1335.327,649.051z
		 M1335.319,645.559l-2.809,1.621l-0.01-3.227l2.809-1.621L1335.319,645.559z M1335.308,642.065l-2.807,1.622l-0.01-3.227
		l2.809-1.622L1335.308,642.065z M1335.298,638.573l-2.807,1.621l-0.01-3.227l2.809-1.621L1335.298,638.573z M1335.288,635.075
		l-2.807,1.621l-0.01-3.221l2.809-1.622L1335.288,635.075z M1335.278,631.583l-2.807,1.621l-0.01-3.227l2.807-1.622
		L1335.278,631.583z M1335.261,624.862l0.008,3.228l-2.809,1.621l-0.008-3.227L1335.261,624.862z M1332.327,664.781l-2.807,1.621
		l-0.01-3.227l2.809-1.621L1332.327,664.781z M1329.511,662.91l-0.01-3.227l2.809-1.621l0.01,3.227L1329.511,662.91z
		 M1332.31,657.797l-2.809,1.621l-0.01-3.227l2.809-1.621L1332.31,657.797z M1332.298,654.299l-2.807,1.621l-0.01-3.223l2.809-1.621
		L1332.298,654.299z M1332.288,650.807l-2.807,1.621l-0.01-3.223l2.809-1.621L1332.288,650.807z M1332.278,647.312l-2.807,1.621
		l-0.01-3.226l2.809-1.621L1332.278,647.312z M1332.269,643.821l-2.807,1.621l-0.01-3.227l2.809-1.621L1332.269,643.821z
		 M1332.259,640.328l-2.809,1.622l-0.008-3.228l2.809-1.621L1332.259,640.328z M1332.249,636.831l-2.809,1.621l-0.008-3.223
		l2.809-1.621L1332.249,636.831z M1332.239,633.337l-2.807,1.622l-0.01-3.227l2.807-1.622L1332.239,633.337z M1332.229,629.845
		l-2.809,1.621l-0.008-3.227l2.807-1.621L1332.229,629.845z M1332.21,623.125l0.01,3.227l-2.809,1.622l-0.008-3.228L1332.21,623.125
		z M1329.284,666.539l-2.803,1.619l-0.01-3.227l2.803-1.619L1329.284,666.539z M1329.274,663.047l-2.803,1.619l-0.01-3.227
		l2.803-1.619L1329.274,663.047z M1326.46,661.174l-0.008-3.229l2.803-1.617l0.01,3.227L1326.46,661.174z M1329.255,656.057
		l-2.805,1.619l-0.008-3.223l2.803-1.619L1329.255,656.057z M1329.245,652.562l-2.805,1.619l-0.008-3.221l2.803-1.619
		L1329.245,652.562z M1326.431,650.689l-0.008-3.227l2.803-1.618l0.01,3.226L1326.431,650.689z M1329.226,645.578l-2.805,1.619
		l-0.008-3.227l2.803-1.619L1329.226,645.578z M1329.216,642.086l-2.805,1.618l-0.008-3.227l2.803-1.619L1329.216,642.086z
		 M1329.206,638.588l-2.805,1.619l-0.01-3.222l2.805-1.619L1329.206,638.588z M1329.196,635.095l-2.805,1.619l-0.01-3.227
		l2.805-1.619L1329.196,635.095z M1329.187,631.603l-2.805,1.618l-0.008-3.227l2.803-1.618L1329.187,631.603z M1329.167,624.883
		l0.01,3.227l-2.805,1.619l-0.01-3.228L1329.167,624.883z M1326.255,671.787l-2.809,1.621l-0.01-3.221l2.809-1.621L1326.255,671.787
		z M1326.245,668.295l-2.809,1.621l-0.008-3.227l2.807-1.621L1326.245,668.295z M1326.235,664.801l-2.809,1.623l-0.01-3.229
		l2.809-1.621L1326.235,664.801z M1326.226,661.309l-2.809,1.621l-0.01-3.227l2.809-1.621L1326.226,661.309z M1326.216,657.811
		l-2.809,1.621l-0.01-3.221l2.809-1.621L1326.216,657.811z M1326.206,654.318l-2.809,1.621l-0.01-3.223l2.809-1.621
		L1326.206,654.318z M1326.196,650.824l-2.809,1.623l-0.01-3.227l2.809-1.623L1326.196,650.824z M1326.187,647.332l-2.809,1.621
		l-0.01-3.226l2.809-1.621L1326.187,647.332z M1326.177,643.841l-2.809,1.621l-0.01-3.227l2.809-1.622L1326.177,643.841z
		 M1326.165,640.343l-2.807,1.621l-0.01-3.222l2.809-1.621L1326.165,640.343z M1326.155,636.85l-2.807,1.622l-0.01-3.228
		l2.809-1.621L1326.155,636.85z M1326.146,633.356l-2.807,1.622l-0.01-3.228l2.809-1.621L1326.146,633.356z M1326.136,629.864
		l-2.807,1.621l-0.01-3.227l2.809-1.621L1326.136,629.864z M1326.118,623.145l0.008,3.222l-2.809,1.621l-0.008-3.222
		L1326.118,623.145z M1323.216,673.543l-2.809,1.621l-0.01-3.223l2.809-1.621L1323.216,673.543z M1323.204,670.049l-2.807,1.621
		l-0.01-3.227l2.809-1.621L1323.204,670.049z M1323.194,666.557l-2.807,1.621l-0.01-3.227l2.809-1.621L1323.194,666.557z
		 M1323.187,663.064l-2.809,1.621l-0.01-3.227l2.809-1.621L1323.187,663.064z M1323.175,659.566l-2.807,1.621l-0.01-3.223
		l2.809-1.621L1323.175,659.566z M1323.165,656.074l-2.807,1.621l-0.01-3.223l2.809-1.621L1323.165,656.074z M1323.155,652.58
		l-2.807,1.621l-0.01-3.227l2.809-1.621L1323.155,652.58z M1320.339,650.709l-0.01-3.227l2.807-1.62l0.01,3.226L1320.339,650.709z
		 M1323.136,645.596l-2.809,1.621l-0.008-3.227l2.809-1.621L1323.136,645.596z M1323.126,642.099l-2.809,1.621l-0.008-3.223
		l2.809-1.621L1323.126,642.099z M1320.31,640.226l-0.01-3.227l2.807-1.621l0.01,3.228L1320.31,640.226z M1323.106,635.112
		l-2.807,1.621l-0.01-3.227l2.807-1.621L1323.106,635.112z M1323.097,631.62l-2.807,1.621l-0.01-3.228l2.807-1.621L1323.097,631.62z
		 M1323.077,624.899l0.01,3.223l-2.809,1.621l-0.008-3.223L1323.077,624.899z M1320.177,675.297l-2.809,1.621l-0.01-3.221
		l2.809-1.621L1320.177,675.297z M1320.165,671.805l-2.807,1.621l-0.01-3.227l2.809-1.621L1320.165,671.805z M1317.349,669.934
		l-0.01-3.227l2.807-1.623l0.01,3.229L1317.349,669.934z M1320.146,664.818l-2.807,1.621l-0.01-3.227l2.807-1.621L1320.146,664.818z
		 M1320.136,661.32l-2.807,1.623l-0.01-3.223l2.809-1.621L1320.136,661.32z M1320.126,657.828l-2.809,1.621l-0.008-3.221
		l2.809-1.623L1320.126,657.828z M1320.116,654.336l-2.809,1.621l-0.008-3.227l2.809-1.621L1320.116,654.336z M1320.106,650.842
		l-2.807,1.623l-0.01-3.229l2.807-1.621L1320.106,650.842z M1320.097,647.35l-2.809,1.621l-0.008-3.226l2.807-1.621L1320.097,647.35
		z M1320.087,643.853l-2.809,1.621l-0.008-3.222l2.807-1.621L1320.087,643.853z M1320.077,640.36l-2.809,1.621l-0.008-3.227
		l2.807-1.622L1320.077,640.36z M1320.067,636.867l-2.809,1.621l-0.01-3.227l2.809-1.622L1320.067,636.867z M1320.058,633.374
		l-2.809,1.621l-0.008-3.227l2.807-1.621L1320.058,633.374z M1320.038,626.654l0.01,3.222l-2.809,1.622l-0.008-3.222
		L1320.038,626.654z M1317.132,677.055l-2.805,1.619l-0.008-3.223l2.803-1.617L1317.132,677.055z M1317.122,673.562l-2.805,1.617
		l-0.008-3.227l2.803-1.617L1317.122,673.562z M1317.112,670.068l-2.805,1.619l-0.008-3.227l2.803-1.619L1317.112,670.068z
		 M1314.298,668.195l-0.008-3.227l2.803-1.619l0.01,3.227L1314.298,668.195z M1317.093,663.078l-2.805,1.619l-0.008-3.223
		l2.803-1.617L1317.093,663.078z M1317.083,659.586l-2.805,1.619l-0.008-3.223l2.803-1.619L1317.083,659.586z M1314.269,657.711
		l-0.01-3.227l2.805-1.619l0.01,3.229L1314.269,657.711z M1317.063,652.6l-2.805,1.619l-0.01-3.227l2.805-1.619L1317.063,652.6z
		 M1317.054,649.107l-2.805,1.619l-0.008-3.227l2.803-1.619L1317.054,649.107z M1317.044,645.61l-2.805,1.618l-0.01-3.222
		l2.805-1.618L1317.044,645.61z M1317.034,642.117l-2.805,1.619l-0.01-3.227l2.805-1.619L1317.034,642.117z M1317.022,638.624
		l-2.803,1.619l-0.01-3.227l2.805-1.619L1317.022,638.624z M1317.013,635.132l-2.803,1.619l-0.01-3.228l2.805-1.618
		L1317.013,635.132z M1316.995,628.412l0.01,3.222l-2.805,1.619l-0.01-3.222L1316.995,628.412z M1314.093,678.811l-2.805,1.617
		l-0.008-3.221l2.803-1.619L1314.093,678.811z M1314.083,675.316l-2.805,1.619l-0.008-3.227l2.803-1.619L1314.083,675.316z
		 M1314.073,671.824l-2.805,1.619l-0.008-3.227l2.803-1.619L1314.073,671.824z M1314.063,668.332l-2.805,1.619l-0.01-3.229
		l2.805-1.619L1314.063,668.332z M1314.054,664.834l-2.805,1.619l-0.008-3.223l2.803-1.619L1314.054,664.834z M1314.044,661.34
		l-2.805,1.619l-0.008-3.221l2.803-1.619L1314.044,661.34z M1314.032,657.848l-2.803,1.619l-0.01-3.227l2.805-1.619
		L1314.032,657.848z M1314.022,654.355l-2.803,1.619l-0.01-3.227l2.805-1.619L1314.022,654.355z M1314.013,650.863l-2.803,1.617
		l-0.01-3.227l2.805-1.619L1314.013,650.863z M1314.003,647.365l-2.803,1.619l-0.01-3.222l2.805-1.619L1314.003,647.365z
		 M1313.993,643.872l-2.803,1.619l-0.01-3.227l2.805-1.619L1313.993,643.872z M1313.983,640.38l-2.803,1.618l-0.01-3.227
		l2.805-1.618L1313.983,640.38z M1313.974,636.887l-2.803,1.619l-0.01-3.228l2.803-1.618L1313.974,636.887z M1313.954,630.167
		l0.01,3.222l-2.803,1.619l-0.01-3.222L1313.954,630.167z M1311.044,677.072l-2.809,1.621l-0.01-3.227l2.809-1.621L1311.044,677.072
		z M1311.034,673.58l-2.809,1.621l-0.01-3.229l2.809-1.621L1311.034,673.58z M1311.022,670.086l-2.807,1.621l-0.01-3.227
		l2.809-1.621L1311.022,670.086z M1311.013,666.588l-2.807,1.621l-0.01-3.221l2.809-1.621L1311.013,666.588z M1311.005,663.096
		l-2.809,1.621l-0.01-3.223l2.809-1.621L1311.005,663.096z M1310.993,659.604l-2.807,1.621l-0.01-3.227l2.809-1.621
		L1310.993,659.604z M1310.983,656.109l-2.807,1.621l-0.01-3.227l2.809-1.621L1310.983,656.109z M1310.974,652.617l-2.807,1.621
		l-0.01-3.227l2.809-1.621L1310.974,652.617z M1310.964,649.119l-2.807,1.621l-0.01-3.221l2.807-1.621L1310.964,649.119z
		 M1310.954,645.628l-2.809,1.62l-0.008-3.227l2.809-1.621L1310.954,645.628z M1310.944,642.135l-2.809,1.621l-0.008-3.228
		l2.809-1.621L1310.944,642.135z M1310.925,635.415l0.01,3.227l-2.809,1.621l-0.008-3.227L1310.925,635.415z M1308.003,678.826
		l-2.807,1.621l-0.01-3.227l2.809-1.621L1308.003,678.826z M1307.993,675.334l-2.809,1.621l-0.008-3.227l2.809-1.621
		L1307.993,675.334z M1307.983,671.842l-2.807,1.621l-0.01-3.227l2.809-1.621L1307.983,671.842z M1307.974,668.344l-2.807,1.621
		l-0.01-3.223l2.807-1.621L1307.974,668.344z M1307.964,664.852l-2.809,1.621l-0.008-3.223l2.807-1.621L1307.964,664.852z
		 M1307.954,661.357l-2.809,1.621l-0.008-3.227l2.807-1.621L1307.954,661.357z M1307.944,657.865l-2.809,1.621l-0.008-3.227
		l2.807-1.621L1307.944,657.865z M1307.935,654.373l-2.809,1.621l-0.01-3.227l2.809-1.621L1307.935,654.373z M1307.925,650.875
		l-2.809,1.621l-0.008-3.223l2.807-1.621L1307.925,650.875z M1307.915,647.381l-2.809,1.621l-0.008-3.226l2.807-1.621
		L1307.915,647.381z M1307.905,643.89l-2.809,1.621l-0.01-3.227l2.809-1.621L1307.905,643.89z M1307.886,637.17l0.01,3.227
		l-2.809,1.621l-0.01-3.227L1307.886,637.17z M1302.146,678.711l-0.008-3.227l2.807-1.623l0.01,3.227L1302.146,678.711z
		 M1304.944,673.596l-2.809,1.621l-0.01-3.227l2.809-1.621L1304.944,673.596z M1304.935,670.098l-2.809,1.623l-0.01-3.223
		l2.809-1.621L1304.935,670.098z M1304.925,666.605l-2.809,1.621l-0.008-3.221l2.807-1.623L1304.925,666.605z M1304.915,663.113
		l-2.809,1.621l-0.01-3.227l2.809-1.621L1304.915,663.113z M1304.905,659.619l-2.809,1.623l-0.01-3.229l2.809-1.621
		L1304.905,659.619z M1304.896,656.127l-2.809,1.621l-0.01-3.227l2.809-1.621L1304.896,656.127z M1304.886,652.629l-2.809,1.621
		l-0.01-3.221l2.809-1.621L1304.886,652.629z M1304.876,649.137l-2.809,1.621l-0.01-3.227l2.809-1.621L1304.876,649.137z
		 M1304.856,642.417l0.01,3.227l-2.809,1.622l-0.01-3.227L1304.856,642.417z M1296.005,661.527l2.809-1.621l0.008,3.227
		l-2.809,1.621L1296.005,661.527z M1296.024,668.246l-0.01-3.227l2.807-1.621l0.01,3.227L1296.024,668.246z M1299.019,649.287
		l2.805-1.619l0.008,3.227l-2.803,1.619L1299.019,649.287z M1299.028,652.783l2.805-1.617l0.008,3.221l-2.803,1.619
		L1299.028,652.783z M1299.038,656.277l2.805-1.619l0.008,3.227l-2.803,1.619L1299.038,656.277z M1299.048,659.77l2.805-1.619
		l0.01,3.227l-2.805,1.619L1299.048,659.77z M1299.058,663.262l2.805-1.619l0.01,3.227l-2.805,1.619L1299.058,663.262z
		 M1299.067,666.76l2.805-1.619l0.008,3.223l-2.803,1.619L1299.067,666.76z M1299.077,670.252l2.805-1.617l0.01,3.221l-2.805,1.619
		L1299.077,670.252z M1299.097,676.973l-0.01-3.227l2.805-1.619l0.01,3.227L1299.097,676.973z"/>
</g>
<g id="phare2">
	<path fill="#D9D9D9" d="M1138.211,746.445c-0.041-14.755,10.332-32.721,23.172-40.132c6.307-3.642,12.031-4.052,16.232-1.786
		l0.01-0.018l10.414,6.142l-33.008,56.616l-10.148-5.979l0.002-0.004C1140.777,758.834,1138.23,753.709,1138.211,746.445z"/>
	<g>
		<path fill="#B1B1B1" d="M1171.381,712.202c12.84-7.413,23.281-1.464,23.322,13.291c0.043,14.753-10.33,32.72-23.172,40.132
			c-12.838,7.412-23.281,1.463-23.322-13.291C1148.168,737.578,1158.541,719.613,1171.381,712.202"/>
	</g>
	<g>
		<path fill="#F6F6F6" d="M1171.395,716.683c10.686-6.17,19.375-1.219,19.41,11.062c0.033,12.277-8.598,27.23-19.285,33.4
			c-10.686,6.168-19.377,1.217-19.41-11.062C1152.074,737.803,1160.707,722.851,1171.395,716.683"/>
	</g>
	<path fill="#B1B1B1" d="M1154.088,766.652l0.604-0.348l0.002,0.75c0.08,0.049,0.156,0.102,0.236,0.148l-0.002-1.035l2.807-1.621
		l0.01,3.227l-0.688,0.396c0.1,0.033,0.199,0.066,0.303,0.098l0.385-0.223l0.002,0.336c0.076,0.021,0.154,0.037,0.232,0.057
		l-0.002-0.527l2.809-1.621l0.006,2.514c0.078,0.002,0.156,0.002,0.232,0.002l-0.008-2.648l2.809-1.621l0.01,3.221l-1.762,1.018
		c0.18-0.012,0.357-0.021,0.537-0.041l1.225-0.705l0.002,0.535c0.078-0.014,0.156-0.031,0.236-0.045l-0.002-0.627l2.803-1.619
		l0.006,1.504c0.076-0.027,0.156-0.061,0.234-0.088l-0.004-1.553l2.803-1.617l0.006,1.967c0.08-0.039,0.158-0.076,0.236-0.115
		l-0.006-1.988l2.809-1.621l0.006,1.984c0.076-0.051,0.154-0.104,0.23-0.154l-0.006-1.965l2.809-1.621l0.004,1.541
		c0.078-0.061,0.154-0.119,0.232-0.182l-0.006-1.492l2.809-1.621l0.002,0.607c0.078-0.076,0.158-0.15,0.234-0.229v-0.516
		l1.176-0.678c0.18-0.191,0.357-0.387,0.537-0.582l-1.713,0.988l-0.01-3.221l2.803-1.619l0.008,2.623
		c0.078-0.092,0.158-0.182,0.236-0.275l-0.008-2.484l2.809-1.621v0.486c0.078-0.107,0.156-0.215,0.232-0.322l-0.002-0.297
		l0.338-0.195c0.102-0.146,0.199-0.295,0.301-0.445l-0.639,0.369l-0.008-3.227l2.807-1.621l0.002,0.975
		c0.078-0.137,0.154-0.275,0.232-0.412l-0.002-0.697l0.557-0.32c0.066-0.127,0.133-0.254,0.199-0.383l-0.758,0.438l-0.01-3.227
		l2.809-1.621v0.041c0.078-0.188,0.16-0.375,0.234-0.562l-0.008-3.107l1.396-0.807c0.033-0.111,0.072-0.221,0.105-0.332
		l-1.502,0.867l-0.01-3.223l2.479-1.43c0.021-0.103,0.045-0.206,0.066-0.31l-2.545,1.47l-0.01-3.222l2.803-1.619l0.006,1.992
		c0.088-0.522,0.166-1.042,0.232-1.561l-0.002-0.567l0.072-0.042c0.012-0.096,0.02-0.191,0.029-0.288l-0.104,0.06l-0.008-3.227
		l0.295-0.172c0-0.07,0.004-0.143,0.004-0.213c0-0.019,0-0.036,0-0.055l-0.299,0.173l-0.01-3.227l0.119-0.069
		c-0.01-0.083-0.02-0.166-0.029-0.249l-0.09,0.052l-0.002-0.73c-0.068-0.439-0.15-0.868-0.24-1.287l0.006,2.154l-2.805,1.619
		l-0.008-3.228l2.584-1.491c-0.021-0.08-0.047-0.154-0.068-0.232l-2.518,1.453l-0.008-3.223l1.557-0.899
		c-0.031-0.071-0.066-0.143-0.1-0.213l-1.459,0.842l-0.008-3.227l0.018-0.011c-0.082-0.109-0.17-0.212-0.256-0.317l0.002,0.198
		l-2.809,1.621l-0.01-3.227l0.875-0.506c-0.066-0.051-0.133-0.101-0.201-0.15l-0.674,0.391l-0.002-0.854
		c-0.078-0.049-0.154-0.1-0.232-0.146l0.002,1.132l-2.809,1.621l-0.008-3.227l0.811-0.469c-0.098-0.035-0.199-0.065-0.299-0.098
		l-0.514,0.296v-0.455c-0.076-0.021-0.156-0.036-0.232-0.056l0.002,0.645l-2.809,1.621l-0.006-2.643
		c-0.078-0.002-0.158-0.002-0.236-0.003l0.008,2.782l-2.805,1.618l-0.01-3.222l2.02-1.165c-0.174,0.008-0.348,0.016-0.523,0.03
		l-1.496,0.863l-0.002-0.675c-0.078,0.014-0.156,0.03-0.236,0.045l0.002,0.767l-2.807,1.621l-0.006-1.652
		c-0.076,0.026-0.154,0.059-0.23,0.086l0.004,1.7l-2.809,1.621l-0.006-2.124c-0.076,0.039-0.154,0.074-0.23,0.113l0.006,2.145
		l-2.809,1.621l-0.006-2.148c-0.08,0.051-0.156,0.105-0.236,0.156l0.006,2.129l-2.803,1.618l-0.006-1.712
		c-0.078,0.062-0.156,0.121-0.234,0.184l0.004,1.664l-2.803,1.619l-0.002-0.789c-0.08,0.076-0.158,0.151-0.236,0.229l0.002,0.697
		l-1.555,0.896c-0.174,0.189-0.348,0.38-0.52,0.572l2.074-1.198l0.01,3.222l-2.809,1.621l-0.008-2.812
		c-0.078,0.09-0.154,0.18-0.23,0.271l0.006,2.676l-2.807,1.621l-0.002-0.691c-0.076,0.108-0.154,0.215-0.23,0.324v0.5l-0.566,0.328
		c-0.102,0.148-0.201,0.296-0.301,0.444l0.869-0.501l0.01,3.227l-2.809,1.621l-0.004-1.199c-0.08,0.139-0.156,0.279-0.234,0.42
		l0.002,0.916l-0.727,0.42c-0.066,0.127-0.133,0.254-0.199,0.381l0.928-0.535l0.008,3.226l-2.803,1.619l-0.002-0.297
		c-0.102,0.248-0.207,0.494-0.307,0.742l0.072-0.043l0.01,3.227l-1.512,0.875c-0.035,0.109-0.066,0.219-0.1,0.328l1.611-0.932
		l0.01,3.223l-2.57,1.484c-0.021,0.104-0.047,0.205-0.066,0.309l2.639-1.523l0.008,3.229l-2.809,1.621l-0.006-2.402
		c-0.086,0.488-0.162,0.975-0.229,1.459l0.004,1.076l-0.145,0.084c-0.01,0.094-0.02,0.188-0.027,0.281l0.172-0.1l0.01,3.227
		l-0.354,0.205c0,0.016,0,0.033,0,0.051c0,0.072,0.004,0.141,0.006,0.213l0.348-0.201l0.01,3.227l-0.154,0.088
		c0.01,0.086,0.02,0.17,0.029,0.254l0.125-0.072l0.004,0.906c0.068,0.408,0.146,0.805,0.234,1.193l-0.006-2.232l2.809-1.621
		l0.008,3.221l-2.598,1.5c0.021,0.08,0.047,0.154,0.068,0.232l2.531-1.461l0.008,3.223l-1.555,0.896
		c0.035,0.072,0.072,0.139,0.107,0.211l1.449-0.838l0.008,3.203c0.076,0.1,0.158,0.191,0.238,0.287v-0.133l2.803-1.619l0.01,3.227
		l-0.803,0.465C1153.955,766.551,1154.021,766.604,1154.088,766.652z M1194.178,729.24l-2.805,1.618l-0.008-3.227l2.803-1.619
		L1194.178,729.24z M1194.158,722.521l0.01,3.227l-2.805,1.619l-0.008-3.227L1194.158,722.521z M1191.168,741.479l-2.809,1.621
		l-0.01-3.227l2.809-1.621L1191.168,741.479z M1191.158,737.98l-2.809,1.621l-0.01-3.223l2.809-1.621L1191.158,737.98z
		 M1191.148,734.486l-2.809,1.623l-0.008-3.222l2.807-1.621L1191.148,734.486z M1191.139,730.995l-2.809,1.621l-0.008-3.227
		l2.807-1.621L1191.139,730.995z M1188.32,729.124l-0.01-3.227l2.809-1.622l0.01,3.227L1188.32,729.124z M1191.119,724.01
		l-2.809,1.621l-0.01-3.227l2.809-1.622L1191.119,724.01z M1191.107,720.512l-2.807,1.622l-0.01-3.223l2.809-1.621L1191.107,720.512
		z M1191.09,713.792l0.01,3.227l-2.809,1.622l-0.01-3.228L1191.09,713.792z M1188.139,746.727l-2.809,1.621l-0.01-3.227l2.809-1.623
		L1188.139,746.727z M1188.129,743.232l-2.809,1.621l-0.01-3.227l2.809-1.621L1188.129,743.232z M1188.117,739.734l-2.807,1.623
		l-0.01-3.223l2.809-1.621L1188.117,739.734z M1188.107,736.242l-2.807,1.621l-0.01-3.221l2.809-1.622L1188.107,736.242z
		 M1188.1,732.75l-2.809,1.621l-0.01-3.227l2.809-1.621L1188.1,732.75z M1188.088,729.257l-2.807,1.622l-0.01-3.227l2.809-1.622
		L1188.088,729.257z M1188.078,725.765l-2.807,1.621l-0.01-3.227l2.809-1.621L1188.078,725.765z M1188.068,722.267l-2.807,1.621
		l-0.01-3.221l2.809-1.622L1188.068,722.267z M1188.059,718.774l-2.807,1.621l-0.01-3.227l2.807-1.622L1188.059,718.774z
		 M1188.041,712.054l0.008,3.228l-2.809,1.621l-0.008-3.227L1188.041,712.054z M1185.107,751.973l-2.807,1.621l-0.01-3.227
		l2.809-1.621L1185.107,751.973z M1182.291,750.102l-0.01-3.227l2.809-1.621l0.01,3.227L1182.291,750.102z M1185.09,744.988
		l-2.809,1.621l-0.01-3.227l2.809-1.621L1185.09,744.988z M1185.078,741.49l-2.807,1.621l-0.01-3.223l2.809-1.621L1185.078,741.49z
		 M1185.068,737.998l-2.807,1.621l-0.01-3.223l2.809-1.621L1185.068,737.998z M1185.059,734.504l-2.807,1.621l-0.01-3.226
		l2.809-1.621L1185.059,734.504z M1185.049,731.013l-2.807,1.621l-0.01-3.227l2.809-1.621L1185.049,731.013z M1185.039,727.52
		l-2.809,1.622l-0.008-3.228l2.809-1.621L1185.039,727.52z M1185.029,724.022l-2.809,1.621l-0.008-3.223l2.809-1.621
		L1185.029,724.022z M1185.02,720.528l-2.807,1.622l-0.01-3.227l2.807-1.622L1185.02,720.528z M1185.01,717.036l-2.809,1.621
		l-0.008-3.227l2.807-1.621L1185.01,717.036z M1184.99,710.316l0.01,3.227l-2.809,1.622l-0.008-3.228L1184.99,710.316z
		 M1182.064,753.73l-2.803,1.619l-0.01-3.227l2.803-1.619L1182.064,753.73z M1182.055,750.238l-2.803,1.619l-0.01-3.227l2.803-1.619
		L1182.055,750.238z M1179.24,748.365l-0.008-3.229l2.803-1.617l0.01,3.227L1179.24,748.365z M1182.035,743.248l-2.805,1.619
		l-0.008-3.223l2.803-1.619L1182.035,743.248z M1182.025,739.754l-2.805,1.619l-0.008-3.221l2.803-1.619L1182.025,739.754z
		 M1179.211,737.881l-0.008-3.227l2.803-1.618l0.01,3.226L1179.211,737.881z M1182.006,732.77l-2.805,1.619l-0.008-3.227
		l2.803-1.619L1182.006,732.77z M1181.996,729.277l-2.805,1.618l-0.008-3.227l2.803-1.619L1181.996,729.277z M1181.986,725.779
		l-2.805,1.619l-0.01-3.222l2.805-1.619L1181.986,725.779z M1181.977,722.286l-2.805,1.619l-0.01-3.227l2.805-1.619
		L1181.977,722.286z M1181.967,718.794l-2.805,1.618l-0.008-3.227l2.803-1.618L1181.967,718.794z M1181.947,712.074l0.01,3.227
		l-2.805,1.619l-0.01-3.228L1181.947,712.074z M1179.035,758.979l-2.809,1.621l-0.01-3.221l2.809-1.621L1179.035,758.979z
		 M1179.025,755.486l-2.809,1.621l-0.008-3.227l2.807-1.621L1179.025,755.486z M1179.016,751.992l-2.809,1.623l-0.01-3.229
		l2.809-1.621L1179.016,751.992z M1179.006,748.5l-2.809,1.621l-0.01-3.227l2.809-1.621L1179.006,748.5z M1178.996,745.002
		l-2.809,1.621l-0.01-3.221l2.809-1.621L1178.996,745.002z M1178.986,741.51l-2.809,1.621l-0.01-3.223l2.809-1.621L1178.986,741.51z
		 M1178.977,738.016l-2.809,1.623l-0.01-3.227l2.809-1.623L1178.977,738.016z M1178.967,734.523l-2.809,1.621l-0.01-3.226
		l2.809-1.621L1178.967,734.523z M1178.957,731.032l-2.809,1.621l-0.01-3.227l2.809-1.622L1178.957,731.032z M1178.945,727.534
		l-2.807,1.621l-0.01-3.222l2.809-1.621L1178.945,727.534z M1178.936,724.041l-2.807,1.622l-0.01-3.228l2.809-1.621
		L1178.936,724.041z M1178.926,720.548l-2.807,1.622l-0.01-3.228l2.809-1.621L1178.926,720.548z M1178.916,717.056l-2.807,1.621
		l-0.01-3.227l2.809-1.621L1178.916,717.056z M1178.898,710.336l0.008,3.222l-2.809,1.621l-0.008-3.222L1178.898,710.336z
		 M1175.996,760.734l-2.809,1.621l-0.01-3.223l2.809-1.621L1175.996,760.734z M1175.984,757.24l-2.807,1.621l-0.01-3.227
		l2.809-1.621L1175.984,757.24z M1175.975,753.748l-2.807,1.621l-0.01-3.227l2.809-1.621L1175.975,753.748z M1175.967,750.256
		l-2.809,1.621l-0.01-3.227l2.809-1.621L1175.967,750.256z M1175.955,746.758l-2.807,1.621l-0.01-3.223l2.809-1.621
		L1175.955,746.758z M1175.945,743.266l-2.807,1.621l-0.01-3.223l2.809-1.621L1175.945,743.266z M1175.936,739.771l-2.807,1.621
		l-0.01-3.227l2.809-1.621L1175.936,739.771z M1173.119,737.9l-0.01-3.227l2.807-1.62l0.01,3.226L1173.119,737.9z M1175.916,732.787
		l-2.809,1.621l-0.008-3.227l2.809-1.621L1175.916,732.787z M1175.906,729.29l-2.809,1.621l-0.008-3.223l2.809-1.621
		L1175.906,729.29z M1173.09,727.417l-0.01-3.227l2.807-1.621l0.01,3.228L1173.09,727.417z M1175.887,722.304l-2.807,1.621
		l-0.01-3.227l2.807-1.621L1175.887,722.304z M1175.877,718.812l-2.807,1.621l-0.01-3.228l2.807-1.621L1175.877,718.812z
		 M1175.857,712.091l0.01,3.223l-2.809,1.621l-0.008-3.223L1175.857,712.091z M1172.957,762.488l-2.809,1.621l-0.01-3.221
		l2.809-1.621L1172.957,762.488z M1172.945,758.996l-2.807,1.621l-0.01-3.227l2.809-1.621L1172.945,758.996z M1170.129,757.125
		l-0.01-3.227l2.807-1.623l0.01,3.229L1170.129,757.125z M1172.926,752.01l-2.807,1.621l-0.01-3.227l2.807-1.621L1172.926,752.01z
		 M1172.916,748.512l-2.807,1.623l-0.01-3.223l2.809-1.621L1172.916,748.512z M1172.906,745.02l-2.809,1.621l-0.008-3.221
		l2.809-1.623L1172.906,745.02z M1172.896,741.527l-2.809,1.621l-0.008-3.227l2.809-1.621L1172.896,741.527z M1172.887,738.033
		l-2.807,1.623l-0.01-3.229l2.807-1.621L1172.887,738.033z M1172.877,734.541l-2.809,1.621l-0.008-3.226l2.807-1.621
		L1172.877,734.541z M1172.867,731.044l-2.809,1.621l-0.008-3.222l2.807-1.621L1172.867,731.044z M1172.857,727.552l-2.809,1.621
		l-0.008-3.227l2.807-1.622L1172.857,727.552z M1172.848,724.059l-2.809,1.621l-0.01-3.227l2.809-1.622L1172.848,724.059z
		 M1172.838,720.565l-2.809,1.621l-0.008-3.227l2.807-1.621L1172.838,720.565z M1172.818,713.846l0.01,3.222l-2.809,1.622
		l-0.008-3.222L1172.818,713.846z M1169.912,764.246l-2.805,1.619l-0.008-3.223l2.803-1.617L1169.912,764.246z M1169.902,760.754
		l-2.805,1.617l-0.008-3.227l2.803-1.617L1169.902,760.754z M1169.893,757.26l-2.805,1.619l-0.008-3.227l2.803-1.619
		L1169.893,757.26z M1167.078,755.387l-0.008-3.227l2.803-1.619l0.01,3.227L1167.078,755.387z M1169.873,750.27l-2.805,1.619
		l-0.008-3.223l2.803-1.617L1169.873,750.27z M1169.863,746.777l-2.805,1.619l-0.008-3.223l2.803-1.619L1169.863,746.777z
		 M1167.049,744.902l-0.01-3.227l2.805-1.619l0.01,3.229L1167.049,744.902z M1169.844,739.791l-2.805,1.619l-0.01-3.227l2.805-1.619
		L1169.844,739.791z M1169.834,736.299l-2.805,1.619l-0.008-3.227l2.803-1.619L1169.834,736.299z M1169.824,732.802l-2.805,1.618
		l-0.01-3.222l2.805-1.618L1169.824,732.802z M1169.814,729.309l-2.805,1.619l-0.01-3.227l2.805-1.619L1169.814,729.309z
		 M1169.803,725.815l-2.803,1.619l-0.01-3.227l2.805-1.619L1169.803,725.815z M1169.793,722.323l-2.803,1.619l-0.01-3.228
		l2.805-1.618L1169.793,722.323z M1169.775,715.604l0.01,3.222l-2.805,1.619l-0.01-3.222L1169.775,715.604z M1166.873,766.002
		l-2.805,1.617l-0.008-3.221l2.803-1.619L1166.873,766.002z M1166.863,762.508l-2.805,1.619l-0.008-3.227l2.803-1.619
		L1166.863,762.508z M1166.854,759.016l-2.805,1.619l-0.008-3.227l2.803-1.619L1166.854,759.016z M1166.844,755.523l-2.805,1.619
		l-0.01-3.229l2.805-1.619L1166.844,755.523z M1166.834,752.025l-2.805,1.619l-0.008-3.223l2.803-1.619L1166.834,752.025z
		 M1166.824,748.531l-2.805,1.619l-0.008-3.221l2.803-1.619L1166.824,748.531z M1166.812,745.039l-2.803,1.619l-0.01-3.227
		l2.805-1.619L1166.812,745.039z M1166.803,741.547l-2.803,1.619l-0.01-3.227l2.805-1.619L1166.803,741.547z M1166.793,738.055
		l-2.803,1.617l-0.01-3.227l2.805-1.619L1166.793,738.055z M1166.783,734.557l-2.803,1.619l-0.01-3.222l2.805-1.619
		L1166.783,734.557z M1166.773,731.063l-2.803,1.619l-0.01-3.227l2.805-1.619L1166.773,731.063z M1166.764,727.571l-2.803,1.618
		l-0.01-3.227l2.805-1.618L1166.764,727.571z M1166.754,724.078l-2.803,1.619l-0.01-3.228l2.803-1.618L1166.754,724.078z
		 M1166.734,717.358l0.01,3.222l-2.803,1.619l-0.01-3.222L1166.734,717.358z M1163.824,764.264l-2.809,1.621l-0.01-3.227
		l2.809-1.621L1163.824,764.264z M1163.814,760.771l-2.809,1.621l-0.01-3.229l2.809-1.621L1163.814,760.771z M1163.803,757.277
		l-2.807,1.621l-0.01-3.227l2.809-1.621L1163.803,757.277z M1163.793,753.779l-2.807,1.621l-0.01-3.221l2.809-1.621
		L1163.793,753.779z M1163.785,750.287l-2.809,1.621l-0.01-3.223l2.809-1.621L1163.785,750.287z M1163.773,746.795l-2.807,1.621
		l-0.01-3.227l2.809-1.621L1163.773,746.795z M1163.764,743.301l-2.807,1.621l-0.01-3.227l2.809-1.621L1163.764,743.301z
		 M1163.754,739.809l-2.807,1.621l-0.01-3.227l2.809-1.621L1163.754,739.809z M1163.744,736.311l-2.807,1.621l-0.01-3.221
		l2.807-1.621L1163.744,736.311z M1163.734,732.819l-2.809,1.62l-0.008-3.227l2.809-1.621L1163.734,732.819z M1163.725,729.326
		l-2.809,1.621l-0.008-3.228l2.809-1.621L1163.725,729.326z M1163.705,722.606l0.01,3.227l-2.809,1.621l-0.008-3.227
		L1163.705,722.606z M1160.783,766.018l-2.807,1.621l-0.01-3.227l2.809-1.621L1160.783,766.018z M1160.773,762.525l-2.809,1.621
		l-0.008-3.227l2.809-1.621L1160.773,762.525z M1160.764,759.033l-2.807,1.621l-0.01-3.227l2.809-1.621L1160.764,759.033z
		 M1160.754,755.535l-2.807,1.621l-0.01-3.223l2.807-1.621L1160.754,755.535z M1160.744,752.043l-2.809,1.621l-0.008-3.223
		l2.807-1.621L1160.744,752.043z M1160.734,748.549l-2.809,1.621l-0.008-3.227l2.807-1.621L1160.734,748.549z M1160.725,745.057
		l-2.809,1.621l-0.008-3.227l2.807-1.621L1160.725,745.057z M1160.715,741.564l-2.809,1.621l-0.01-3.227l2.809-1.621
		L1160.715,741.564z M1160.705,738.066l-2.809,1.621l-0.008-3.223l2.807-1.621L1160.705,738.066z M1160.695,734.572l-2.809,1.621
		l-0.008-3.226l2.807-1.621L1160.695,734.572z M1160.686,731.081l-2.809,1.621l-0.01-3.227l2.809-1.621L1160.686,731.081z
		 M1160.666,724.361l0.01,3.227l-2.809,1.621l-0.01-3.227L1160.666,724.361z M1154.926,765.902l-0.008-3.227l2.807-1.623l0.01,3.227
		L1154.926,765.902z M1157.725,760.787l-2.809,1.621l-0.01-3.227l2.809-1.621L1157.725,760.787z M1157.715,757.289l-2.809,1.623
		l-0.01-3.223l2.809-1.621L1157.715,757.289z M1157.705,753.797l-2.809,1.621l-0.008-3.221l2.807-1.623L1157.705,753.797z
		 M1157.695,750.305l-2.809,1.621l-0.01-3.227l2.809-1.621L1157.695,750.305z M1157.686,746.811l-2.809,1.623l-0.01-3.229
		l2.809-1.621L1157.686,746.811z M1157.676,743.318l-2.809,1.621l-0.01-3.227l2.809-1.621L1157.676,743.318z M1157.666,739.82
		l-2.809,1.621l-0.01-3.221l2.809-1.621L1157.666,739.82z M1157.656,736.328l-2.809,1.621l-0.01-3.227l2.809-1.621L1157.656,736.328
		z M1157.637,729.608l0.01,3.227l-2.809,1.622l-0.01-3.227L1157.637,729.608z M1148.785,748.719l2.809-1.621l0.008,3.227
		l-2.809,1.621L1148.785,748.719z M1148.805,755.438l-0.01-3.227l2.807-1.621l0.01,3.227L1148.805,755.438z M1151.799,736.479
		l2.805-1.619l0.008,3.227l-2.803,1.619L1151.799,736.479z M1151.809,739.975l2.805-1.617l0.008,3.221l-2.803,1.619
		L1151.809,739.975z M1151.818,743.469l2.805-1.619l0.008,3.227l-2.803,1.619L1151.818,743.469z M1151.828,746.961l2.805-1.619
		l0.01,3.227l-2.805,1.619L1151.828,746.961z M1151.838,750.453l2.805-1.619l0.01,3.227l-2.805,1.619L1151.838,750.453z
		 M1151.848,753.951l2.805-1.619l0.008,3.223l-2.803,1.619L1151.848,753.951z M1151.857,757.443l2.805-1.617l0.01,3.221
		l-2.805,1.619L1151.857,757.443z M1151.877,764.164l-0.01-3.227l2.805-1.619l0.01,3.227L1151.877,764.164z"/>
</g>
<g id="aileron">
	<g>
		<polygon fill="#C6C6C5" points="357.345,131.706 309.454,104.055 309.454,136.817 357.345,165.438 		"/>
		<polygon fill="#B1B1B1" points="357.345,131.706 364.583,127.446 364.583,161.178 357.345,165.438 		"/>
		<g>
			<polygon fill="#D9D9D9" points="364.583,127.446 316.376,99.793 309.454,104.055 357.345,131.706 			"/>
		</g>
	</g>
	<g>
		<polygon fill="#C6C6C5" points="291.063,169.973 243.171,142.323 243.171,175.084 291.063,203.706 		"/>
		<polygon fill="#B1B1B1" points="291.063,169.973 298.302,165.713 298.302,199.446 291.063,203.706 		"/>
		<g>
			<polygon fill="#D9D9D9" points="298.302,165.713 250.095,138.061 243.171,142.323 291.063,169.973 			"/>
		</g>
	</g>
	<g>
		<polygon fill="#C6C6C5" points="228.579,197.383 180.687,169.731 180.687,178.663 228.579,206.313 		"/>
		<polygon fill="#B1B1B1" points="228.579,197.383 417.938,87.819 417.938,96.75 417.938,96.75 228.579,206.313 		"/>
		<g>
			<polygon fill="#ECECEC" points="417.938,87.819 369.733,60.168 180.687,169.731 228.579,197.383 			"/>
		</g>
	</g>
	<g>
		<polygon fill="#C6C6C5" points="228.579,197.383 180.687,135.999 180.687,169.731 228.579,197.383 		"/>
		
			<rect x="227.999" y="195.251" transform="matrix(-0.8618 0.5072 -0.5072 -0.8618 531.3448 245.7581)" fill="#B1B1B1" width="8.399" height="0.002"/>
		<g>
			<polygon fill="#D9D9D9" points="235.817,193.124 187.61,131.739 180.687,135.999 228.579,197.383 			"/>
		</g>
	</g>
	<g>
		<polygon fill="#C6C6C5" points="410.7,92.024 362.81,30.639 362.81,64.372 410.7,92.024 		"/>
		
			<rect x="410.12" y="89.892" transform="matrix(-0.8618 0.5072 -0.5072 -0.8618 816.9863 -42.7739)" fill="#B1B1B1" width="8.399" height="0.002"/>
		<g>
			<polygon fill="#D9D9D9" points="417.938,87.819 369.731,26.379 362.81,30.639 410.7,92.024 			"/>
		</g>
	</g>
</g>
<g id="jante-back-left">
	<path fill="#9C9B9B" d="M1128.293,148.908c-27.621-15.941-49.931-54.586-49.843-86.32c0.02-7.175,1.194-13.373,3.302-18.498
		c-18.539-2.273-31.702,10.902-31.769,35.177c-0.089,31.734,22.221,70.379,49.841,86.32c21.371,12.34,39.646,7.455,46.864-10.09
		C1140.989,154.798,1134.786,152.659,1128.293,148.908z"/>
	<g>
		<polyline fill="#B1B1B1" points="1110.927,57.978 1098.409,50.75 1098.3,90.023 1068.757,53.296 1062.466,62.14 1092.003,98.865 
			1062.355,101.414 1068.576,117.481 1098.229,114.933 1098.117,154.207 1110.634,161.432 1110.744,122.16 1140.283,158.885 
			1146.578,150.042 1117.037,113.319 1146.688,110.769 1140.464,94.703 1110.814,97.25 1110.927,57.978 		"/>
	</g>
	<polygon fill="#C6C6C5" points="1062.355,101.414 1092.003,98.865 1087.468,101.484 1057.82,104.032 	"/>
	<polygon fill="#C6C6C5" points="1106.279,99.868 1110.814,97.25 1140.464,94.701 1135.929,97.32 	"/>
	<g>
		<polyline fill="#D9D9D9" points="1106.391,60.596 1093.874,53.368 1093.764,92.642 1064.222,55.914 1057.931,64.758 
			1087.468,101.484 1057.82,104.032 1064.041,120.1 1093.693,117.55 1093.582,156.824 1106.099,164.05 1106.209,124.777 
			1135.748,161.502 1142.042,152.66 1112.502,115.938 1142.152,113.388 1135.929,97.32 1106.279,99.868 1106.391,60.596 		"/>
	</g>
	<path fill="#575756" d="M1178.228,120.312c0.089-31.737-22.221-70.379-49.843-86.321c-13.562-7.833-25.874-8.716-34.913-3.843
		l-0.02-0.036l-29.362,17.229l4.952,8.494l24.601-3.045l35.172,33.223l16.582,44.107l-10.311,39l28.792-16.879l-0.006-0.009
		C1172.709,146.961,1178.187,135.939,1178.228,120.312z"/>
	<path fill="#868686" d="M1100.148,50.678c-27.617-15.947-50.077-3.148-50.165,28.588c-0.089,31.734,22.221,70.379,49.841,86.32
		c27.615,15.945,50.077,3.148,50.165-28.588C1150.078,105.264,1127.769,66.62,1100.148,50.678z M1099.856,154.443
		c-22.263-12.849-40.246-43.999-40.175-69.578c0.07-25.581,18.175-35.895,40.435-23.042c22.263,12.849,40.246,43.998,40.175,69.578
		C1140.22,156.979,1122.114,167.294,1099.856,154.443z"/>
</g>
<g id="jante-front-left">
	<path fill="#9C9B9B" d="M1314.488,256.408c-27.621-15.941-49.931-54.586-49.843-86.32c0.02-7.175,1.194-13.373,3.302-18.498
		c-18.539-2.273-31.702,10.902-31.769,35.177c-0.089,31.734,22.221,70.379,49.841,86.32c21.371,12.34,39.646,7.455,46.864-10.09
		C1327.185,262.298,1320.981,260.159,1314.488,256.408z"/>
	<g>
		<polyline fill="#B1B1B1" points="1297.122,165.478 1284.604,158.25 1284.495,197.523 1254.952,160.796 1248.661,169.64 
			1278.198,206.365 1248.551,208.914 1254.771,224.981 1284.425,222.433 1284.312,261.707 1296.829,268.932 1296.939,229.66 
			1326.479,266.385 1332.773,257.542 1303.232,220.819 1332.884,218.269 1326.659,202.203 1297.01,204.75 1297.122,165.478 		"/>
	</g>
	<polygon fill="#C6C6C5" points="1248.551,208.914 1278.198,206.365 1273.663,208.984 1244.016,211.532 	"/>
	<polygon fill="#C6C6C5" points="1292.475,207.368 1297.01,204.75 1326.659,202.201 1322.124,204.82 	"/>
	<g>
		<polyline fill="#D9D9D9" points="1292.586,168.096 1280.069,160.868 1279.959,200.142 1250.417,163.414 1244.126,172.258 
			1273.663,208.984 1244.016,211.532 1250.236,227.6 1279.889,225.05 1279.777,264.324 1292.294,271.55 1292.404,232.277 
			1321.943,269.002 1328.237,260.16 1298.697,223.438 1328.348,220.888 1322.124,204.82 1292.475,207.368 1292.586,168.096 		"/>
	</g>
	<path fill="#575756" d="M1364.423,227.812c0.089-31.737-22.221-70.379-49.843-86.321c-13.562-7.833-25.874-8.716-34.913-3.843
		l-0.02-0.036l-29.362,17.229l4.952,8.494l24.601-3.045l35.172,33.223l16.582,44.107l-10.311,39l28.792-16.879l-0.006-0.009
		C1358.904,254.461,1364.382,243.439,1364.423,227.812z"/>
	<path fill="#868686" d="M1286.344,158.178c-27.617-15.947-50.077-3.148-50.165,28.588c-0.089,31.734,22.221,70.379,49.841,86.32
		c27.615,15.945,50.077,3.148,50.165-28.588C1336.273,212.764,1313.964,174.12,1286.344,158.178z M1286.052,261.943
		c-22.263-12.849-40.246-43.999-40.175-69.578c0.07-25.581,18.175-35.895,40.435-23.042c22.263,12.849,40.246,43.998,40.175,69.578
		C1326.415,264.479,1308.31,274.794,1286.052,261.943z"/>
</g>
<g id="jante-back-right">
	<path fill="#9C9B9B" d="M262.268,648.907c-27.621-15.941-49.931-54.586-49.843-86.32c0.02-7.175,1.194-13.372,3.302-18.498
		c-18.539-2.272-31.702,10.902-31.769,35.178c-0.089,31.734,22.221,70.379,49.841,86.32c21.371,12.34,39.646,7.454,46.864-10.091
		C274.964,654.798,268.761,652.658,262.268,648.907z"/>
	<g>
		<polyline fill="#B1B1B1" points="244.901,557.978 232.384,550.75 232.274,590.022 202.731,553.296 196.44,562.14 225.978,598.864 
			196.33,601.414 202.551,617.481 232.204,614.933 232.092,654.206 244.608,661.432 244.719,622.159 274.258,658.885 
			280.553,650.042 251.012,613.319 280.663,610.769 274.438,594.702 244.789,597.25 244.901,557.978 		"/>
	</g>
	<polygon fill="#C6C6C5" points="196.33,601.414 225.978,598.864 221.442,601.484 191.795,604.031 	"/>
	<polygon fill="#C6C6C5" points="240.254,599.867 244.789,597.25 274.438,594.7 269.903,597.32 	"/>
	<g>
		<polyline fill="#D9D9D9" points="240.365,560.596 227.849,553.368 227.738,592.642 198.196,555.913 191.905,564.758 
			221.442,601.484 191.795,604.031 198.016,620.1 227.668,617.55 227.557,656.824 240.073,664.05 240.184,624.777 269.723,661.502 
			276.017,652.66 246.477,615.938 276.127,613.388 269.903,597.32 240.254,599.867 240.365,560.596 		"/>
	</g>
	<path fill="#575756" d="M312.202,620.312c0.089-31.737-22.221-70.38-49.843-86.321c-13.562-7.833-25.874-8.716-34.913-3.843
		l-0.02-0.036l-29.362,17.229l4.952,8.494l24.601-3.045l35.172,33.223l16.582,44.107l-10.311,39l28.792-16.88l-0.006-0.009
		C306.684,646.961,312.161,635.939,312.202,620.312z"/>
	<path fill="#868686" d="M234.123,550.678c-27.617-15.946-50.077-3.148-50.165,28.589c-0.089,31.734,22.221,70.379,49.841,86.32
		c27.615,15.944,50.077,3.148,50.165-28.589C284.053,605.264,261.743,566.619,234.123,550.678z M233.831,654.442
		c-22.263-12.849-40.246-43.999-40.175-69.578c0.07-25.581,18.175-35.895,40.435-23.042c22.263,12.849,40.246,43.997,40.175,69.578
		C274.194,656.979,256.089,667.294,233.831,654.442z"/>
</g>
<g id="jante-front-right">
	<path fill="#9C9B9B" d="M448.463,756.407c-27.621-15.941-49.931-54.586-49.843-86.32c0.02-7.175,1.194-13.372,3.302-18.498
		c-18.539-2.272-31.702,10.902-31.769,35.178c-0.089,31.734,22.221,70.379,49.841,86.32c21.371,12.34,39.646,7.454,46.864-10.091
		C461.159,762.298,454.956,760.158,448.463,756.407z"/>
	<g>
		<polyline fill="#B1B1B1" points="431.097,665.478 418.579,658.25 418.47,697.522 388.927,660.796 382.636,669.64 412.173,706.364 
			382.525,708.914 388.746,724.981 418.399,722.433 418.287,761.706 430.804,768.932 430.914,729.659 460.453,766.385 
			466.748,757.542 437.207,720.819 466.858,718.269 460.634,702.202 430.984,704.75 431.097,665.478 		"/>
	</g>
	<polygon fill="#C6C6C5" points="382.525,708.914 412.173,706.364 407.638,708.984 377.99,711.531 	"/>
	<polygon fill="#C6C6C5" points="426.449,707.367 430.984,704.75 460.634,702.2 456.099,704.82 	"/>
	<g>
		<polyline fill="#D9D9D9" points="426.561,668.096 414.044,660.868 413.934,700.142 384.392,663.413 378.101,672.258 
			407.638,708.984 377.99,711.531 384.211,727.6 413.863,725.05 413.752,764.324 426.269,771.55 426.379,732.277 455.918,769.002 
			462.212,760.16 432.672,723.438 462.322,720.888 456.099,704.82 426.449,707.367 426.561,668.096 		"/>
	</g>
	<path fill="#575756" d="M498.397,727.812c0.089-31.737-22.221-70.38-49.843-86.321c-13.562-7.833-25.874-8.716-34.913-3.843
		l-0.02-0.036l-29.362,17.229l4.952,8.494l24.601-3.045l35.172,33.223l16.582,44.107l-10.311,39l28.792-16.88l-0.006-0.009
		C492.879,754.461,498.356,743.439,498.397,727.812z"/>
	<path fill="#868686" d="M420.318,658.178c-27.617-15.946-50.077-3.148-50.165,28.589c-0.089,31.734,22.221,70.379,49.841,86.32
		c27.615,15.944,50.077,3.148,50.165-28.589C470.248,712.764,447.938,674.119,420.318,658.178z M420.026,761.942
		c-22.263-12.849-40.246-43.999-40.175-69.578c0.07-25.581,18.175-35.895,40.435-23.042c22.263,12.849,40.246,43.997,40.175,69.578
		C460.39,764.479,442.284,774.794,420.026,761.942z"/>
</g>
<g id="moteur-elec">
	<g>
		<g>
			<polygon fill="#C6C6C5" points="570.706,284.461 544.926,269.577 544.926,299.131 570.706,314.016 			"/>
			<polygon fill="#B1B1B1" points="570.706,284.461 609.704,261.946 609.704,291.5 570.706,314.016 			"/>
			<g>
				<polygon fill="#D9D9D9" points="609.704,261.946 583.797,247.062 544.926,269.577 570.706,284.461 				"/>
			</g>
		</g>
		<g>
			<path fill="#F6F6F6" d="M591.973,275.674l-3.554,3.856l-0.925,13.01l4.662-7.059l-1.353,9.719l-1.595,0.068l1.053,5.02
				l3.589-6.552l-1.749,1.138l3.583-16.745l-5.484,8.172L591.973,275.674"/>
		</g>
		<g>
			<g>
				<path fill="#B1B1B1" d="M561.469,268.087v4.698l0,0c0.003,0.42,0.282,0.84,0.838,1.16c1.109,0.641,2.904,0.643,4.009,0
					c0.551-0.32,0.825-0.74,0.822-1.16h0.001v-4.698H561.469z"/>
				<g>
					<path fill="#ECECEC" d="M566.303,266.926c-1.113-0.641-2.905-0.641-4.009,0c-1.105,0.642-1.098,1.681,0.013,2.321
						c1.109,0.643,2.904,0.643,4.009,0C567.418,268.606,567.413,267.566,566.303,266.926"/>
				</g>
			</g>
			<g>
				<path fill="#B1B1B1" d="M587.108,253.285v4.698l0,0c0.002,0.42,0.281,0.84,0.836,1.16c1.111,0.641,2.904,0.643,4.009,0
					c0.551-0.32,0.825-0.74,0.822-1.16h0.001v-4.698H587.108z"/>
				<g>
					<path fill="#ECECEC" d="M591.941,252.124c-1.112-0.641-2.905-0.641-4.008,0c-1.105,0.643-1.099,1.679,0.012,2.321
						c1.111,0.641,2.904,0.643,4.009,0C593.057,253.805,593.051,252.764,591.941,252.124"/>
				</g>
			</g>
		</g>
		<g>
			<polyline fill="#9C9B9B" points="573.918,275.977 572.807,275.336 570.532,276.657 568.242,275.334 567.139,275.977 
				569.428,277.299 567.153,278.62 568.265,279.263 570.539,277.94 572.829,279.263 573.934,278.62 571.644,277.299 
				573.918,275.977 			"/>
		</g>
		<polyline fill="#9C9B9B" points="600.666,260.534 599.555,259.894 593.899,263.179 595.012,263.82 600.666,260.534 		"/>
	</g>
	<g>
		<path fill="#D9D9D9" d="M552.658,316.213c0.031-10.997-7.7-24.388-17.271-29.912c-4.7-2.713-8.967-3.019-12.099-1.331
			l-0.007-0.013l-43.957,25.475l3.618,5.854c-0.001,0.089-0.007,0.175-0.007,0.265c-0.03,10.997,7.701,24.388,17.273,29.912
			c0.684,0.396,1.358,0.733,2.022,1.028l2.738,4.43l42.718-24.643l-0.001-0.003C550.746,325.449,552.644,321.629,552.658,316.213z"
			/>
		<g>
			<path fill="#C6C6C6" d="M491.738,311.588c-9.57-5.527-17.353-1.091-17.384,9.906c-0.032,10.998,7.701,24.39,17.272,29.913
				c9.569,5.525,17.353,1.092,17.383-9.906C509.041,330.504,501.31,317.112,491.738,311.588"/>
		</g>
		<g>
			<defs>
				<path id="SVGID_15_" d="M540.045,323.495c0.031-10.997-7.7-24.388-17.271-29.912c-4.7-2.713-8.967-3.019-12.099-1.331
					l-0.007-0.013L484.48,307.44l-0.381,0.222c0,0,5.221-3.296,12.685,1.014c9.572,5.524,17.303,18.916,17.271,29.912
					c-0.013,4.862-1.543,8.438-4.071,10.441l25.09-14.469l-0.001-0.002C538.134,332.731,540.031,328.911,540.045,323.495z"/>
			</defs>
			<defs>
				<path id="SVGID_16_" d="M540.045,323.495c0.031-10.997-7.7-24.388-17.271-29.912c-4.7-2.713-8.967-3.019-12.099-1.331
					l-0.007-0.013L484.48,307.44l-0.381,0.222c0,0,5.221-3.296,12.685,1.014c9.572,5.524,17.303,18.916,17.271,29.912
					c-0.013,4.862-1.543,8.438-4.071,10.441l25.09-14.469l-0.001-0.002C538.134,332.731,540.031,328.911,540.045,323.495z"/>
			</defs>
			<use xlink:href="#SVGID_15_"  overflow="visible" fill="#B2B2B2"/>
			<clipPath id="SVGID_17_">
				<use xlink:href="#SVGID_15_"  overflow="visible"/>
			</clipPath>
			<clipPath id="SVGID_18_" clip-path="url(#SVGID_17_)">
				<use xlink:href="#SVGID_16_"  overflow="visible"/>
			</clipPath>
			<g clip-path="url(#SVGID_18_)">
				
					<line fill="none" stroke="#DADADA" stroke-width="2.9294" stroke-miterlimit="10" x1="436.249" y1="441.804" x2="681.122" y2="300.417"/>
				
					<line fill="none" stroke="#DADADA" stroke-width="2.9294" stroke-miterlimit="10" x1="431.732" y1="437.288" x2="676.606" y2="295.901"/>
				
					<line fill="none" stroke="#DADADA" stroke-width="2.9294" stroke-miterlimit="10" x1="427.217" y1="432.772" x2="672.091" y2="291.385"/>
				
					<line fill="none" stroke="#DADADA" stroke-width="2.9294" stroke-miterlimit="10" x1="422.701" y1="428.255" x2="667.575" y2="286.869"/>
				
					<line fill="none" stroke="#DADADA" stroke-width="2.9294" stroke-miterlimit="10" x1="418.186" y1="423.739" x2="663.06" y2="282.352"/>
				
					<line fill="none" stroke="#DADADA" stroke-width="2.9294" stroke-miterlimit="10" x1="413.668" y1="419.224" x2="658.544" y2="277.836"/>
				
					<line fill="none" stroke="#DADADA" stroke-width="2.9294" stroke-miterlimit="10" x1="409.152" y1="414.706" x2="654.027" y2="273.32"/>
				
					<line fill="none" stroke="#DADADA" stroke-width="2.9294" stroke-miterlimit="10" x1="404.636" y1="410.19" x2="649.511" y2="268.805"/>
				
					<line fill="none" stroke="#DADADA" stroke-width="2.9294" stroke-miterlimit="10" x1="400.12" y1="405.675" x2="644.995" y2="264.288"/>
				
					<line fill="none" stroke="#DADADA" stroke-width="2.9294" stroke-miterlimit="10" x1="395.604" y1="401.159" x2="640.479" y2="259.772"/>
				
					<line fill="none" stroke="#DADADA" stroke-width="2.9294" stroke-miterlimit="10" x1="391.088" y1="396.644" x2="635.962" y2="255.256"/>
				
					<line fill="none" stroke="#DADADA" stroke-width="2.9294" stroke-miterlimit="10" x1="386.572" y1="392.126" x2="631.447" y2="250.74"/>
				
					<line fill="none" stroke="#DADADA" stroke-width="2.9294" stroke-miterlimit="10" x1="382.056" y1="387.61" x2="626.931" y2="246.225"/>
				
					<line fill="none" stroke="#DADADA" stroke-width="2.9294" stroke-miterlimit="10" x1="377.54" y1="383.095" x2="622.414" y2="241.708"/>
				
					<line fill="none" stroke="#DADADA" stroke-width="2.9294" stroke-miterlimit="10" x1="373.024" y1="378.579" x2="617.898" y2="237.192"/>
				
					<line fill="none" stroke="#DADADA" stroke-width="2.9294" stroke-miterlimit="10" x1="368.508" y1="374.063" x2="613.382" y2="232.677"/>
				
					<line fill="none" stroke="#DADADA" stroke-width="2.9294" stroke-miterlimit="10" x1="363.992" y1="369.546" x2="608.866" y2="228.16"/>
				
					<line fill="none" stroke="#DADADA" stroke-width="2.9294" stroke-miterlimit="10" x1="359.476" y1="365.03" x2="604.35" y2="223.645"/>
				
					<line fill="none" stroke="#DADADA" stroke-width="2.9294" stroke-miterlimit="10" x1="354.959" y1="360.515" x2="599.833" y2="219.127"/>
				
					<line fill="none" stroke="#DADADA" stroke-width="2.9294" stroke-miterlimit="10" x1="350.444" y1="355.999" x2="595.318" y2="214.612"/>
				
					<line fill="none" stroke="#DADADA" stroke-width="2.9294" stroke-miterlimit="10" x1="345.927" y1="351.483" x2="590.802" y2="210.096"/>
				
					<line fill="none" stroke="#DADADA" stroke-width="2.9294" stroke-miterlimit="10" x1="341.412" y1="346.967" x2="586.287" y2="205.579"/>
				
					<line fill="none" stroke="#DADADA" stroke-width="2.9294" stroke-miterlimit="10" x1="336.896" y1="342.45" x2="581.77" y2="201.063"/>
			</g>
		</g>
		<g>
			<path fill="#D9D9D9" d="M492.65,332.566c0.002-0.919-0.643-2.04-1.444-2.5c-0.394-0.228-0.75-0.253-1.013-0.112v-0.001
				l-15.741,9.097l0.303,0.489c0,0.008-0.001,0.016-0.001,0.022c-0.001,0.921,0.644,2.04,1.445,2.502
				c0.057,0.032,0.114,0.062,0.169,0.085l0.229,0.371l15.637-9.026l0,0C492.49,333.338,492.648,333.02,492.65,332.566z"/>
			<g>
				<path fill="#C6C6C6" d="M475.491,339.146c-0.801-0.463-1.452-0.092-1.454,0.829c-0.003,0.919,0.644,2.04,1.443,2.501
					c0.801,0.463,1.452,0.092,1.454-0.828C476.937,340.729,476.292,339.607,475.491,339.146"/>
			</g>
		</g>
	</g>
</g>
</svg>
