<?xml version="1.0" encoding="utf-8"?>
<!-- Generator: Adobe Illustrator 17.0.0, SVG Export Plug-In . SVG Version: 6.00 Build 0)  -->
<!DOCTYPE svg PUBLIC "-//W3C//DTD SVG 1.1//EN" "http://www.w3.org/Graphics/SVG/1.1/DTD/svg11.dtd">
<svg version="1.1" id="Calque_1" xmlns="http://www.w3.org/2000/svg" xmlns:xlink="http://www.w3.org/1999/xlink" x="0px" y="0px"
	 width="1600px" height="900px" viewBox="0 0 1600 900" enable-background="new 0 0 1600 900" xml:space="preserve">
<g id="RISQUE-kart">
	<g id="kart2">
		<g id="moteur-elec_2_">
			<g>
				<g>
					<polygon fill="#C6C6C5" points="979.898,320.277 990.889,313.932 990.889,326.53 979.898,332.875 					"/>
					<polygon fill="#B1B1B1" points="979.898,320.277 963.274,310.679 963.274,323.277 979.898,332.875 					"/>
					<g>
						<polygon fill="#D9D9D9" points="963.274,310.679 974.318,304.334 990.889,313.932 979.898,320.277 						"/>
					</g>
				</g>
				<g>
					<path fill="#F6F6F6" d="M970.833,316.531l0.757,4.529l-2.338-3.483l1.526,7.138l-0.745-0.484l1.53,2.793l0.448-2.14
						l-0.68-0.029l-0.577-4.143l1.988,3.009l-0.395-5.546L970.833,316.531"/>
				</g>
				<g>
					<g>
						<path fill="#B1B1B1" d="M983.837,313.297v2.003l0,0c-0.002,0.179-0.121,0.358-0.357,0.494c-0.473,0.273-1.238,0.274-1.709,0
							c-0.234-0.136-0.352-0.315-0.351-0.494h-0.001v-2.003H983.837z"/>
						<g>
							<path fill="#ECECEC" d="M981.776,312.802c0.474-0.273,1.238-0.273,1.708,0c0.472,0.273,0.469,0.717-0.005,0.989
								c-0.473,0.274-1.238,0.274-1.709,0C981.3,313.519,981.303,313.075,981.776,312.802"/>
						</g>
					</g>
					<g>
						<path fill="#B1B1B1" d="M972.907,306.987v2.003l0,0c-0.001,0.179-0.12,0.357-0.356,0.494c-0.474,0.273-1.238,0.273-1.71,0
							c-0.234-0.137-0.352-0.315-0.351-0.494l0,0v-2.003H972.907z"/>
						<g>
							<path fill="#ECECEC" d="M970.847,306.492c0.474-0.273,1.238-0.273,1.709,0s0.468,0.716-0.005,0.989
								c-0.474,0.273-1.238,0.273-1.71,0C970.371,307.208,970.374,306.765,970.847,306.492"/>
						</g>
					</g>
				</g>
				<g>
					<polyline fill="#9C9B9B" points="978.529,316.66 979.003,316.387 979.973,316.95 980.949,316.387 981.419,316.66 
						980.443,317.224 981.413,317.787 980.939,318.061 979.971,317.497 978.994,318.061 978.522,317.787 979.499,317.224 
						978.529,316.66 					"/>
				</g>
				<polyline fill="#9C9B9B" points="967.128,310.077 967.601,309.804 970.012,311.204 969.537,311.478 967.128,310.077 				"/>
			</g>
			<g>
				<path fill="#D9D9D9" d="M987.593,333.812c-0.014-4.688,3.282-10.396,7.362-12.751c2.003-1.157,3.822-1.287,5.157-0.567
					l0.004-0.006l18.737,10.859l-10.932,17.687l-18.21-10.505l0.001-0.001C988.407,337.749,987.599,336.121,987.593,333.812z"/>
				<g>
					<path fill="#C6C6C6" d="M1013.562,331.841c4.08-2.356,7.397-0.465,7.41,4.223c0.014,4.688-3.282,10.396-7.362,12.751
						c-4.079,2.355-7.397,0.466-7.41-4.223C1006.186,339.904,1009.481,334.195,1013.562,331.841"/>
				</g>
				<path fill="#B2B2B2" d="M992.969,336.916c-0.014-4.688,3.282-10.396,7.362-12.751c2.004-1.156,3.822-1.287,5.158-0.567
					l0.003-0.005l11.164,6.479l0.162,0.095c0,0-2.226-1.405-5.407,0.433c-4.08,2.354-7.376,8.062-7.362,12.751
					c0.005,2.072,0.657,3.597,1.735,4.45l-10.695-6.168v-0.001C993.784,340.854,992.975,339.226,992.969,336.916z"/>
				<g>
					<path fill="#D9D9D9" d="M1016.783,330.146c0.021,0.013,0.035,0.021,0.035,0.021L1016.783,330.146z"/>
					<path fill="#D9D9D9" d="M997.999,325.951c0.323-0.311,0.654-0.6,0.995-0.868l11.107,6.413
						c-0.342,0.268-0.676,0.556-0.999,0.865L997.999,325.951z"/>
					<path fill="#D9D9D9" d="M1000.331,324.165c0.439-0.253,0.866-0.448,1.284-0.604l11.135,6.429
						c-0.424,0.145-0.869,0.339-1.339,0.61c-0.017,0.009-0.032,0.021-0.049,0.03l-11.109-6.414
						C1000.279,324.199,1000.305,324.181,1000.331,324.165z"/>
					<path fill="#D9D9D9" d="M995.089,341.632c-0.521-0.311-0.959-0.764-1.304-1.336l11.046,6.377
						c0.262,0.451,0.58,0.833,0.953,1.128L995.089,341.632L995.089,341.632z"/>
					<path fill="#D9D9D9" d="M1003.685,323.16c0.664,0.007,1.273,0.151,1.805,0.438l0.003-0.005l11.164,6.479l0.127,0.074
						c-0.149-0.085-0.812-0.429-1.839-0.485L1003.685,323.16z"/>
					<path fill="#D9D9D9" d="M996.23,327.967c0.253-0.342,0.52-0.667,0.794-0.984l11.101,6.409
						c-0.274,0.316-0.541,0.643-0.795,0.983L996.23,327.967z"/>
					<path fill="#D9D9D9" d="M993.097,335.267c0.062-0.428,0.149-0.859,0.258-1.293l11.088,6.402
						c-0.108,0.432-0.199,0.863-0.263,1.29L993.097,335.267z"/>
					<path fill="#D9D9D9" d="M1004.156,344.688l-11.069-6.391c-0.071-0.431-0.116-0.887-0.118-1.382
						c0-0.041,0.005-0.084,0.005-0.126l11.081,6.398c0,0.054-0.007,0.108-0.006,0.162
						C1004.05,343.827,1004.089,344.271,1004.156,344.688z"/>
					<path fill="#D9D9D9" d="M994.829,330.194c0.196-0.368,0.405-0.729,0.626-1.081l11.096,6.406
						c-0.221,0.353-0.43,0.713-0.627,1.08L994.829,330.194z"/>
					<path fill="#D9D9D9" d="M993.763,332.614c0.138-0.395,0.287-0.789,0.457-1.178l11.093,6.405
						c-0.171,0.389-0.321,0.781-0.46,1.176L993.763,332.614z"/>
				</g>
				<g>
					<path fill="#D9D9D9" d="M1013.173,340.783c-0.001-0.392,0.274-0.869,0.615-1.065c0.169-0.098,0.32-0.108,0.432-0.048v-0.001
						l6.711,3.878l-0.129,0.208c0,0.004,0,0.007,0,0.01c0,0.393-0.274,0.87-0.615,1.066c-0.025,0.014-0.049,0.026-0.073,0.036
						l-0.097,0.158l-6.666-3.848l0,0C1013.241,341.112,1013.174,340.977,1013.173,340.783z"/>
					<g>
						<path fill="#C6C6C6" d="M1020.487,343.588c0.342-0.197,0.619-0.039,0.62,0.354c0.001,0.392-0.274,0.869-0.615,1.066
							c-0.342,0.197-0.619,0.039-0.62-0.354C1019.871,344.263,1020.146,343.785,1020.487,343.588"/>
					</g>
				</g>
			</g>
		</g>
		<g id="roue-back-right_1_">
			<path fill="#575756" d="M1015.057,356.853c-0.022-7.898,5.53-17.517,12.404-21.483c3.375-1.95,6.439-2.17,8.689-0.956
				l0.004-0.009l14.24,8.29l-18.418,29.798l-13.349-7.693l0.001-0.002C1016.43,363.485,1015.067,360.742,1015.057,356.853z"/>
			<g>
				<path fill="#868686" d="M1041.479,343.524c6.873-3.97,12.463-0.784,12.486,7.114c0.021,7.899-5.531,17.518-12.406,21.484
					c-6.873,3.969-12.463,0.783-12.484-7.115C1029.051,357.11,1034.604,347.492,1041.479,343.524"/>
			</g>
			<g>
				<path fill="#C6C6C5" d="M1041.498,350.194c3.666-2.118,6.648-0.418,6.66,3.797c0.012,4.213-2.951,9.345-6.617,11.461
					c-3.668,2.117-6.65,0.418-6.662-3.796C1034.867,357.443,1037.83,352.311,1041.498,350.194"/>
			</g>
			<path fill="#D9D9D9" d="M1034.879,361.656c0.002,0.834,0.123,1.567,0.34,2.194c0.586-0.142,1.205-0.39,1.846-0.76
				c3.668-2.117,6.631-7.248,6.619-11.461c-0.002-0.839-0.127-1.571-0.35-2.198c-0.584,0.145-1.199,0.395-1.836,0.763
				C1037.83,352.311,1034.867,357.443,1034.879,361.656z"/>
		</g>
		<g id="roue-back-left_1_">
			<path fill="#575756" d="M924.162,304.522c-0.021-7.898,5.53-17.517,12.404-21.484c3.376-1.949,6.44-2.169,8.689-0.956
				l0.006-0.009l14.239,8.291l-18.418,29.798l-13.35-7.693l0.001-0.002C925.536,311.155,924.173,308.411,924.162,304.522z"/>
			<g>
				<path fill="#868686" d="M950.584,291.194c6.874-3.97,12.464-0.784,12.486,7.114c0.021,7.898-5.531,17.517-12.405,21.484
					c-6.873,3.969-12.463,0.784-12.484-7.115C938.157,304.779,943.71,295.161,950.584,291.194"/>
			</g>
			<g>
				<path fill="#C6C6C5" d="M950.604,297.864c3.667-2.118,6.649-0.418,6.661,3.797c0.012,4.213-2.951,9.345-6.618,11.461
					c-3.667,2.117-6.649,0.418-6.662-3.796C943.974,305.112,946.936,299.981,950.604,297.864"/>
			</g>
			<path fill="#D9D9D9" d="M943.984,309.326c0.003,0.833,0.123,1.567,0.341,2.194c0.586-0.142,1.205-0.39,1.847-0.76
				c3.666-2.116,6.63-7.248,6.618-11.461c-0.003-0.839-0.127-1.571-0.35-2.198c-0.584,0.144-1.199,0.395-1.837,0.763
				C946.936,299.981,943.974,305.112,943.984,309.326z"/>
		</g>
		<g id="carenage-right_1_">
			<polygon fill="#C6C6C5" points="983.812,386.826 1024.15,363.536 1024.15,382.061 983.812,405.35 			"/>
			<polygon fill="#B1B1B1" points="983.812,386.826 971.397,379.651 971.397,398.176 983.812,405.35 			"/>
			<g>
				<polygon fill="#ECECEC" points="971.397,379.651 1011.868,356.36 1024.15,363.536 983.812,386.826 				"/>
			</g>
		</g>
		<g id="carenage-left_1_">
			<polygon fill="#C6C6C5" points="890.546,332.528 930.885,309.238 930.885,327.762 890.546,351.053 			"/>
			<polygon fill="#B1B1B1" points="890.546,332.528 878.131,325.354 878.131,343.878 890.546,351.053 			"/>
			<g>
				<polygon fill="#ECECEC" points="878.131,325.354 918.602,302.063 930.885,309.238 890.546,332.528 				"/>
			</g>
		</g>
		<g id="roue-front-right_1_">
			<path fill="#575756" d="M935.104,403.102c-0.021-7.898,5.53-17.517,12.405-21.483c3.376-1.95,6.439-2.17,8.689-0.957l0.005-0.009
				l14.24,8.291l-18.418,29.797l-13.351-7.692l0.002-0.002C936.479,409.733,935.115,406.99,935.104,403.102z"/>
			<g>
				<path fill="#868686" d="M961.527,389.773c6.873-3.969,12.464-0.784,12.485,7.115c0.022,7.897-5.531,17.516-12.405,21.483
					c-6.873,3.969-12.463,0.784-12.485-7.115C949.101,403.358,954.653,393.74,961.527,389.773"/>
			</g>
			<g>
				<path fill="#C6C6C5" d="M961.546,396.443c3.667-2.117,6.649-0.417,6.661,3.797c0.013,4.213-2.951,9.345-6.618,11.461
					c-3.666,2.117-6.649,0.418-6.662-3.796C954.916,403.691,957.879,398.561,961.546,396.443"/>
			</g>
			<path fill="#D9D9D9" d="M954.927,407.905c0.003,0.833,0.123,1.567,0.341,2.194c0.586-0.142,1.205-0.39,1.847-0.76
				c3.667-2.116,6.63-7.248,6.618-11.462c-0.003-0.838-0.127-1.57-0.349-2.196c-0.584,0.144-1.2,0.394-1.838,0.762
				C957.879,398.561,954.916,403.691,954.927,407.905z"/>
		</g>
		<g id="roue-front-left_1_">
			<path fill="#575756" d="M844.21,350.771c-0.021-7.898,5.531-17.517,12.405-21.484c3.376-1.949,6.439-2.169,8.689-0.956
				l0.005-0.009l14.24,8.29l-18.418,29.799l-13.351-7.693l0.002-0.002C845.584,357.403,844.221,354.66,844.21,350.771z"/>
			<g>
				<path fill="#868686" d="M870.633,337.442c6.873-3.969,12.464-0.783,12.486,7.115c0.021,7.898-5.531,17.517-12.406,21.484
					c-6.873,3.968-12.463,0.783-12.484-7.115C858.206,351.028,863.759,341.41,870.633,337.442"/>
			</g>
			<g>
				<path fill="#C6C6C5" d="M870.651,344.113c3.668-2.118,6.65-0.418,6.662,3.797c0.012,4.213-2.952,9.344-6.618,11.46
					c-3.667,2.117-6.65,0.418-6.662-3.796C864.021,351.361,866.984,346.229,870.651,344.113"/>
			</g>
			<path fill="#D9D9D9" d="M864.033,355.574c0.003,0.834,0.122,1.568,0.34,2.195c0.586-0.142,1.206-0.39,1.848-0.761
				c3.666-2.116,6.63-7.247,6.617-11.46c-0.002-0.84-0.127-1.572-0.349-2.198c-0.584,0.145-1.199,0.394-1.838,0.763
				C866.984,346.229,864.021,351.361,864.033,355.574z"/>
		</g>
		<g id="siege_1_">
			<g>
				<g>
					<polygon fill="#B1B1B1" points="999.937,307.712 970.129,290.474 960.858,336.441 960.858,341.757 986.333,356.493 					"/>
					<polygon fill="#C6C6C5" points="999.937,307.712 1004.487,306.231 990.399,354.632 986.333,356.493 986.333,351.19 					"/>
					<g>
						<polygon fill="#F5F5F5" points="970.129,290.474 974.807,288.994 1004.487,306.231 999.937,307.712 						"/>
					</g>
				</g>
				<g>
					<polygon fill="#C6C6C5" points="958.23,364.65 986.333,351.191 986.333,356.487 958.23,369.947 					"/>
					<polygon fill="#B1B1B1" points="958.23,364.65 928.423,347.414 928.423,352.711 958.23,369.947 					"/>
					<g>
						<polygon fill="#F5F5F5" points="928.423,347.414 960.985,336.455 986.333,351.191 958.23,364.65 						"/>
					</g>
				</g>
			</g>
		</g>
		<g id="pilote_1_">
			<g>
				<polygon fill="#C6C6C5" points="989.324,305.065 957.569,285.813 955.405,301.742 956.064,315.805 952.392,325.104 
					951.077,333.598 959.32,347.406 970.701,343.88 974.521,328.913 981.294,315.699 				"/>
				<polygon fill="#C6C6C5" points="989.324,305.065 981.294,315.699 974.521,328.913 970.758,343.657 982.396,354.878 
					985.874,343.465 998.821,317.919 1000.707,304.042 				"/>
				<polygon fill="#F5F5F5" points="989.324,305.065 1000.707,304.042 992.17,290.033 982.247,283.867 968.684,282.024 
					957.569,285.813 				"/>
			</g>
			<g>
				<polygon fill="#ECECEC" points="901.163,375.047 896.035,369.05 885.022,368.515 884.086,372.162 891.142,376.976 				"/>
				<polygon fill="#B1B1B1" points="884.086,372.162 880.353,373.341 885.022,368.515 				"/>
				<polygon fill="#9C9B9B" points="891.142,376.976 884.086,372.162 880.353,373.341 887.194,379.731 				"/>
				<polygon fill="#C6C6C5" points="901.163,375.047 907.256,373.947 901.611,380.855 887.194,379.731 891.142,376.976 				"/>
				<polygon fill="#D9D9D9" points="923.465,347.898 932.646,351.457 925.467,360.94 915.761,360.265 				"/>
				<polygon fill="#B1B1B1" points="901.163,375.047 915.761,360.265 925.467,360.94 907.256,373.947 				"/>
				<polygon fill="#C6C6C5" points="896.035,369.05 916.673,342.541 923.465,347.898 915.761,360.265 901.163,375.047 				"/>
				<polygon fill="#D9D9D9" points="932.138,342.795 923.465,347.898 916.673,342.541 923.465,334.977 				"/>
				<polygon fill="#9C9B9B" points="960.045,334.977 932.138,342.795 923.465,347.898 932.646,351.457 956.475,349.429 				"/>
				<polygon fill="#ECECEC" points="952.392,325.104 923.465,334.977 932.138,342.795 960.045,334.977 				"/>
			</g>
			<g>
				<polygon fill="#D9D9D9" points="943.926,317.627 935.574,314.083 957.569,285.813 955.405,301.742 				"/>
				<polygon fill="#ECECEC" points="929.216,328.688 922.021,327.231 935.574,314.083 943.926,317.627 				"/>
				<polygon fill="#C6C6C5" points="943.926,317.627 929.216,328.688 932.393,334.409 946.3,323.094 				"/>
				<polygon fill="#9C9B9B" points="955.405,301.742 955.825,310.699 946.3,323.094 943.926,317.627 				"/>
				<polyline fill="#B1B1B1" points="922.021,327.231 921.041,328.679 922.686,334.977 926.039,338.004 930.428,336.057 
					932.393,334.409 929.216,328.688 				"/>
			</g>
			<polygon fill="#C6C6C5" points="928.232,330.521 930.427,334.409 929.06,336.195 924.339,338.004 920.544,334.263 
				920.544,329.268 922.859,329.268 			"/>
			<g>
				<polygon fill="#ECECEC" points="927.918,390.845 921.845,384.879 914.254,387.382 920.764,391.479 				"/>
				<polygon fill="#9C9B9B" points="921.084,398.589 920.764,391.479 914.254,387.382 911.531,391.197 				"/>
				<polygon fill="#C6C6C5" points="929.285,399.703 933.222,389.638 927.918,390.845 920.764,391.479 921.084,398.589 				"/>
				<polygon fill="#C6C6C5" points="948.689,363.364 943.964,371.251 927.918,390.845 921.845,384.879 940.937,355.405 				"/>
				<polygon fill="#D9D9D9" points="956.961,365.131 948.689,363.364 943.964,371.251 951.188,374.24 				"/>
				<polygon fill="#B1B1B1" points="927.918,390.845 943.964,371.251 951.188,374.24 933.222,389.638 				"/>
				<polygon fill="#D9D9D9" points="954.734,355.513 946.953,348.272 940.937,355.405 948.689,363.364 				"/>
				<polygon fill="#C6C6C5" points="985.874,343.465 954.734,355.513 948.689,363.364 956.961,365.131 982.396,354.878 				"/>
				<polygon fill="#ECECEC" points="954.734,355.513 946.953,348.272 962.845,337.491 985.874,343.465 				"/>
			</g>
			<g>
				<path fill="#ECECEC" d="M941.755,339.446l-10.137-11.217l-9.828-4.403l-3.886-0.633l-1.438-0.05l2.721-2.137h0.002
					c1.721-1.41,4.912-1.312,9.088,0.627c7.938,3.686,16.419,12.621,18.945,19.959c1.132,3.289,0.871,5.695-0.474,7.02l0.005,0.002
					l-0.032,0.025c-0.171,0.164-0.358,0.313-0.563,0.444l-2.658,2.093L941.755,339.446z"/>
				<path fill="#ECECEC" d="M932.85,348.018l-8.906-6.53l-6.178-9.022v-5.494c0,0,0.061-1.345,0.022-1.905l3.32-0.321
					c-0.536,1.122-0.508,2.752,0.202,4.814c2.028,5.891,8.839,13.066,15.211,16.026c2.831,1.314,5.097,1.574,6.566,0.942
					l-1.395,3.096c-0.339-0.061-3.599,0.33-3.599,0.33L932.85,348.018z"/>
				<g>
					<path fill="#B1B1B1" d="M933.843,347.688c-6.374-2.96-13.185-10.135-15.212-16.025c-2.028-5.892,1.495-8.267,7.867-5.307
						c6.374,2.96,13.184,10.133,15.212,16.025C943.737,348.272,940.215,350.648,933.843,347.688 M925.597,323.737
						c-7.937-3.686-12.323-0.727-9.797,6.611c2.524,7.335,11.007,16.271,18.942,19.957c7.938,3.687,12.324,0.728,9.8-6.608
						C942.016,336.359,933.533,327.424,925.597,323.737"/>
				</g>
			</g>
			<polygon fill="#ECECEC" points="952.689,339.939 949.875,340.425 948.606,339.989 946.336,339.446 947.139,341.357 
				945.694,341.843 943.793,341.843 940.993,340.645 940.373,339.446 939.078,340.194 939.474,344.609 940.487,347.523 
				943.088,349.294 945.65,349.953 951.675,348.809 955.513,347.406 			"/>
			<polygon fill="#C6C6C5" points="950.175,343.589 945.938,343.889 943.088,343.217 941.57,342.365 943.793,341.843 
				940.993,340.645 940.373,339.446 939.078,340.194 939.474,344.609 940.487,347.523 943.088,349.294 945.65,349.953 
				951.675,348.809 954.734,347.69 953.086,339.807 950.382,340.337 950.906,343.389 			"/>
			<g>
				<polygon fill="#D9D9D9" points="975.853,337.113 989.324,305.065 981.294,315.699 971.397,333.949 				"/>
				<polygon fill="#ECECEC" points="975.853,337.113 971.397,333.949 951.35,339.067 952.364,343.589 				"/>
				<polygon fill="#D9D9D9" points="984.771,341.217 975.853,337.113 978.634,345.761 				"/>
				<polygon fill="#ECECEC" points="1000.707,304.042 989.324,305.065 975.853,337.113 984.771,341.217 998.821,317.919 				"/>
				<polygon fill="#C6C6C5" points="978.634,345.761 975.853,337.113 952.364,343.589 953.95,350.664 				"/>
			</g>
			<polygon fill="#D9D9D9" points="990.532,291.495 996.106,283.858 997.895,273.445 996.343,265.79 990.812,260.914 
				984.635,258.012 978.502,258.929 973.144,262.193 968.987,266.348 966.941,272.387 965.147,281.964 965.383,287.341 
				967.162,291.978 972.449,295.154 981.321,295.551 			"/>
			<polygon fill="#C6C6C5" points="967.427,283.946 974.31,287.389 985.252,286.771 987.188,287.675 996.106,283.858 
				990.532,291.495 981.321,295.551 972.449,295.154 967.162,291.978 965.383,287.341 965.147,281.964 966.941,272.387 			"/>
			<polygon fill="#9C9B9B" points="966.941,272.387 968.809,277.314 974.048,280.505 981.823,280.726 988.417,278.983 
				990.261,280.682 990.261,283.936 987.188,287.675 980.889,290.452 972.147,290.059 967.085,287.124 965.147,281.964 			"/>
			<polygon fill="#ECECEC" points="997.895,273.445 989.324,275.954 977.704,274.063 970.758,270.71 968.987,266.348 
				973.144,262.193 978.502,258.929 984.635,258.012 990.812,260.914 996.343,265.79 			"/>
			<polygon fill="#C6C6C5" points="921.25,332.435 923.236,337.349 919.573,338.975 917.766,338.513 914.809,331.782 
				915.703,330.058 916.309,331.562 			"/>
			<polygon fill="#ECECEC" points="928.232,330.521 927.366,333.327 923.832,334.409 923.171,333.32 921.406,333.263 
				918.494,333.166 917.715,331.747 918.34,330.982 920.082,330.673 921.492,330.058 921.041,328.679 923.6,328.257 			"/>
			<polygon fill="#C6C6C5" points="928.232,330.521 926.149,331.909 923.678,330.521 921.041,331.38 917.715,331.747 
				918.494,333.166 923.171,333.32 923.832,334.409 927.366,333.327 			"/>
		</g>
		<g id="carenage-front_1_">
			<g>
				<polygon fill="#D9D9D9" points="896.91,366.091 899.93,358.614 917.959,338.855 927.163,344.205 927.415,344.35 936.619,349.7 
					918.59,369.46 910.594,374.045 883.813,399.136 879.587,396.679 879.336,396.533 875.109,394.076 				"/>
				<polygon fill="#B1B1B1" points="936.619,349.7 936.619,353.333 918.59,373.093 918.59,369.46 				"/>
				<polygon fill="#9C9B9B" points="910.594,377.678 910.594,374.045 918.59,369.46 918.59,373.093 				"/>
				<polygon fill="#B1B1B1" points="883.813,399.136 883.813,402.769 910.594,377.678 910.594,374.045 				"/>
			</g>
			<g>
				<g>
					<polygon fill="#ECECEC" points="841.12,354.614 862.768,361.079 867.119,380.693 884.704,390.914 902.286,401.132 
						925.577,397.582 947.225,416.277 890.469,417.872 868.894,405.334 847.314,392.793 					"/>
				</g>
				<polygon fill="#B1B1B1" points="847.314,398.083 847.314,392.793 841.12,354.614 841.12,365.194 				"/>
				<polygon fill="#9C9B9B" points="890.469,423.163 890.469,417.872 847.314,392.793 847.314,398.083 				"/>
				<polygon fill="#B1B1B1" points="890.469,423.163 890.469,417.872 947.225,416.277 947.225,426.858 				"/>
				<polygon fill="#C6C6C5" points="890.469,417.872 902.286,401.132 925.577,397.582 947.225,416.277 				"/>
				<polygon fill="#D9D9D9" points="847.314,392.793 867.119,380.693 902.286,401.132 890.469,417.872 				"/>
				<polygon fill="#C6C6C5" points="847.314,392.793 841.12,354.614 862.768,361.079 867.119,380.693 				"/>
			</g>
		</g>
	</g>
</g>
<g id="RISQUE-obstacle">
	<g id="plot">
		<g>
			<polygon fill="#C6C6C5" points="538.334,889.14 510.384,873.003 510.384,875.89 538.334,892.026 			"/>
			<polygon fill="#B1B1B1" points="538.334,889.14 566.285,873.003 566.285,875.89 538.334,892.026 			"/>
			<g>
				<polygon fill="#ECECEC" points="566.285,873.003 538.244,856.865 510.384,873.003 538.334,889.14 				"/>
			</g>
		</g>
		<path fill="#D9D9D9" d="M532.633,823.974L522.5,872.776l0,0c0.014,2.346,1.573,4.693,4.678,6.484c6.2,3.58,16.224,3.585,22.392,0
			c3.079-1.789,4.611-4.137,4.598-6.484h0.002l-10.134-48.802H532.633z"/>
		<g>
			<path fill="#B1B1B1" d="M542.353,821.638c-2.236-1.29-5.844-1.289-8.062,0c-2.22,1.291-2.208,3.379,0.027,4.67
				c2.232,1.289,5.841,1.29,8.062,0C544.597,825.019,544.585,822.927,542.353,821.638"/>
		</g>
	</g>
	<g id="trou">
		<polygon fill="#868686" points="667.858,837.773 629.551,822.748 630.128,804.165 591.779,782.023 581.613,795.07 
			539.921,785.186 506.46,782.419 501.82,807.328 468.366,805.35 446.93,810.668 446.033,839.749 460.455,855.169 482.265,849.633 
			502.836,866.242 483.796,885.238 517.904,900.988 573.488,907.737 579.487,902.616 610.18,898.268 628.487,877.312 
			659.247,884.823 		"/>
		<polygon fill="#B1B1B1" points="663.869,859.562 644.258,844.031 576.393,815.87 500.978,809.175 455.777,850.166 
			460.455,855.169 482.265,849.633 502.836,866.242 483.796,885.238 559.107,920.013 579.487,902.616 610.18,898.268 
			628.487,877.312 659.247,884.823 		"/>
		<polygon fill="#D9D9D9" points="576.393,853.947 500.978,847.252 490.775,856.504 502.836,866.242 483.796,885.238 
			559.107,920.013 579.487,902.616 610.18,898.268 628.487,877.312 638.725,879.811 		"/>
		<polygon fill="#C6C6C5" points="576.393,870.736 500.978,864.04 500.57,864.411 502.836,866.242 483.796,885.238 559.107,920.013 
			579.487,902.616 610.18,898.268 618.845,888.35 		"/>
	</g>
	<g id="tree">
		<polygon fill="#D9D9D9" points="-22.905,619.072 12.113,577.007 142.745,577.007 214.803,641.785 81.043,669.09 		"/>
		<polygon fill="#D9D9D9" points="32.761,604.717 42.389,552.971 42.389,482.275 48.539,424.488 67.866,423.276 63.473,482.275 
			61.716,551.215 58.202,619.072 		"/>
		<polygon fill="#B1B1B1" points="81.043,612.464 74.895,549.458 77.969,474.115 81.043,423.276 67.866,423.276 63.473,482.275 
			61.716,551.215 58.202,619.072 		"/>
		<g>
			<polygon fill="#C6C6C5" points="-21.955,436.554 66.344,393.201 -42.117,337.489 			"/>
			<polygon fill="#D9D9D9" points="43.021,299.748 -42.117,337.489 66.344,393.201 			"/>
			<polygon fill="#C6C6C5" points="125.655,327.904 125.655,278.96 43.021,299.748 66.344,393.201 			"/>
			<polygon fill="#9C9B9B" points="125.655,456.956 -21.955,436.554 66.344,393.201 			"/>
			<polygon fill="#9C9B9B" points="177.848,387.004 125.655,327.904 125.655,456.956 			"/>
			<polygon fill="#B1B1B1" points="125.655,278.96 177.848,387.004 125.655,327.904 			"/>
			<polygon fill="#B1B1B1" points="125.655,456.956 125.655,327.904 66.344,393.201 			"/>
		</g>
		<polygon fill="#DADADA" points="125.655,327.904 43.021,299.748 125.655,278.96 		"/>
		<polygon fill="#EDEDED" points="-42.117,337.489 43.021,299.748 15.021,263.785 		"/>
		<polygon fill="#F6F6F6" points="125.655,278.96 43.021,299.748 15.021,263.785 		"/>
	</g>
	<g id="rocks">
		<g>
			<polygon fill="#C6C6C5" points="260.899,768.495 308.822,728.252 249.955,731.802 			"/>
			<polygon fill="#D9D9D9" points="293.728,684.811 249.955,731.802 308.822,728.252 			"/>
			<polygon fill="#C6C6C5" points="341.014,728.252 347.157,695.754 293.728,684.811 308.822,728.252 			"/>
			<polygon fill="#9C9B9B" points="343.939,781.045 260.899,768.495 308.822,728.252 			"/>
			<polygon fill="#9C9B9B" points="369.341,750.142 341.014,728.252 343.939,781.045 			"/>
			<polygon fill="#B1B1B1" points="347.157,695.754 369.341,750.142 341.014,728.252 			"/>
			<polygon fill="#B1B1B1" points="343.939,781.045 341.014,728.252 308.822,728.252 			"/>
		</g>
		<g>
			<polygon fill="#C6C6C5" points="213.292,818.668 253.571,796.328 215.019,801.418 			"/>
			<polygon fill="#D9D9D9" points="239.263,790.372 215.019,801.418 253.571,796.328 			"/>
			<polygon fill="#DADADA" points="284.317,800.168 276.067,786.124 253.571,796.328 			"/>
			<polygon fill="#B2B2B2" points="265.234,833.543 213.292,818.668 253.571,796.328 			"/>
			<polygon fill="#9D9D9C" points="306.293,815.396 284.317,800.168 265.234,833.543 			"/>
			<polygon fill="#B1B1B1" points="276.067,786.124 306.293,815.396 284.317,800.168 			"/>
			<polygon fill="#C6C6C6" points="265.234,833.543 284.317,800.168 253.571,796.328 			"/>
			<polygon fill="#EDEDED" points="253.571,796.328 276.067,786.124 239.263,790.372 			"/>
		</g>
		<g>
			<polygon fill="#C6C6C5" points="179.941,769.114 206.191,748.489 185.816,753.16 			"/>
			<polygon fill="#D9D9D9" points="199.441,741.864 185.816,753.16 206.191,748.489 			"/>
			<polygon fill="#DADADA" points="221.774,753.16 230.816,749.489 206.191,748.489 			"/>
			<polygon fill="#B2B2B2" points="223.416,782.797 179.941,769.114 206.191,748.489 			"/>
			<polygon fill="#9C9B9B" points="237.677,765.448 221.774,753.16 223.416,782.797 			"/>
			<polygon fill="#B1B1B1" points="230.816,749.489 237.677,765.448 221.774,753.16 			"/>
			<polygon fill="#C6C6C6" points="223.416,782.797 221.774,753.16 206.191,748.489 			"/>
			<polygon fill="#EDEDED" points="199.441,741.864 206.191,748.489 230.816,749.489 			"/>
		</g>
	</g>
	<g id="fence">
		<g>
			<polygon fill="#C6C6C5" points="252.051,638.439 245.825,634.845 245.825,709.57 252.051,713.165 			"/>
			<polygon fill="#B1B1B1" points="252.051,638.439 258.277,634.845 258.277,709.57 252.051,713.165 			"/>
			<g>
				<polygon fill="#D9D9D9" points="258.277,634.845 252.031,631.25 245.825,634.845 252.051,638.439 				"/>
			</g>
		</g>
		<g>
			<polygon fill="#C6C6C5" points="366.508,704.521 360.281,700.927 360.281,775.652 366.508,779.247 			"/>
			<polygon fill="#B1B1B1" points="366.508,704.521 372.734,700.927 372.734,775.652 366.508,779.247 			"/>
			<g>
				<polygon fill="#D9D9D9" points="372.734,700.927 366.488,697.332 360.281,700.927 366.508,704.521 				"/>
			</g>
		</g>
		<g>
			<polygon fill="#EDEDED" points="361.077,723.729 354.262,719.796 306.27,805.285 313.084,809.22 			"/>
			<polygon fill="#B1B1B1" points="361.077,723.729 367.891,719.796 319.898,805.285 313.084,809.22 			"/>
			<g>
				<polygon fill="#D9D9D9" points="367.891,719.796 361.054,715.861 354.262,719.796 361.077,723.729 				"/>
			</g>
		</g>
		<g>
			<polygon fill="#EDEDED" points="245.237,656.979 238.422,653.046 190.43,738.535 197.245,742.47 			"/>
			<polygon fill="#B1B1B1" points="245.237,656.979 252.051,653.046 204.059,738.535 197.245,742.47 			"/>
			<g>
				<polygon fill="#D9D9D9" points="252.051,653.046 245.214,649.111 238.422,653.046 245.237,656.979 				"/>
			</g>
		</g>
		<g>
			<g>
				<polyline fill="#D9D9D9" points="371.229,721.743 234.376,642.733 234.376,650.716 371.229,729.726 371.229,721.743 				"/>
			</g>
			<g>
				<polyline fill="#B1B1B1" points="371.229,721.743 378.18,717.733 378.18,725.716 371.229,729.726 371.229,721.743 				"/>
			</g>
			<g>
				<polyline fill="#ECECEC" points="378.177,717.733 241.277,638.723 234.376,642.733 371.227,721.744 378.177,717.733 				"/>
			</g>
		</g>
	</g>
</g>
</svg>
