<?xml version="1.0" encoding="utf-8"?>
<!-- Generator: Adobe Illustrator 15.0.0, SVG Export Plug-In . SVG Version: 6.00 Build 0)  -->
<!DOCTYPE svg PUBLIC "-//W3C//DTD SVG 1.1//EN" "http://www.w3.org/Graphics/SVG/1.1/DTD/svg11.dtd">
<svg version="1.1" id="VALEUR-final" xmlns="http://www.w3.org/2000/svg" xmlns:xlink="http://www.w3.org/1999/xlink" x="0px"
	 y="0px" width="1600px" height="900px" viewBox="0 0 1600 900" enable-background="new 0 0 1600 900" xml:space="preserve">

<g id="valeur-kart">
	<g id="valeur-moteur-elec">
		<g>
			<g>
				<polygon fill="#C6C6C5" points="724.096,348.021 698.315,333.137 698.315,362.69 724.096,377.575 			"/>
				<polygon fill="#B1B1B1" points="724.096,348.021 763.094,325.506 763.094,355.06 724.096,377.575 			"/>
				<g>
					<polygon fill="#D9D9D9" points="763.094,325.506 737.187,310.622 698.315,333.137 724.096,348.021 				"/>
				</g>
			</g>
			<g>
				<path fill="#F6F6F6" d="M745.362,339.233l-3.554,3.856l-0.925,13.01l4.662-7.059l-1.353,9.719l-1.595,0.068l1.053,5.02
					l3.589-6.552l-1.749,1.138l3.583-16.745l-5.484,8.172L745.362,339.233"/>
			</g>
			<g>
				<g>
					<path fill="#B1B1B1" d="M714.858,331.647v4.698l0,0c0.003,0.42,0.282,0.84,0.838,1.16c1.109,0.641,2.904,0.643,4.009,0
						c0.551-0.32,0.825-0.74,0.822-1.16h0.001v-4.698H714.858z"/>
					<g>
						<path fill="#ECECEC" d="M719.692,330.485c-1.113-0.641-2.905-0.641-4.009,0c-1.105,0.642-1.098,1.681,0.013,2.321
							c1.109,0.643,2.904,0.643,4.009,0C720.808,332.166,720.802,331.126,719.692,330.485"/>
					</g>
				</g>
				<g>
					<path fill="#B1B1B1" d="M740.498,316.845v4.698l0,0c0.002,0.42,0.281,0.84,0.836,1.16c1.111,0.641,2.904,0.643,4.009,0
						c0.551-0.32,0.825-0.74,0.822-1.16h0.001v-4.698H740.498z"/>
					<g>
						<path fill="#ECECEC" d="M745.331,315.683c-1.112-0.641-2.905-0.641-4.008,0c-1.105,0.643-1.099,1.679,0.012,2.321
							c1.111,0.641,2.904,0.643,4.009,0C746.446,317.364,746.44,316.324,745.331,315.683"/>
					</g>
				</g>
			</g>
			<g>
				<polyline fill="#9C9B9B" points="727.308,339.536 726.196,338.896 723.922,340.216 721.632,338.894 720.529,339.536 
					722.817,340.859 720.543,342.18 721.654,342.822 723.928,341.5 726.218,342.822 727.323,342.18 725.033,340.859 727.308,339.536 
								"/>
			</g>
			<polyline fill="#9C9B9B" points="754.055,324.093 752.944,323.453 747.289,326.738 748.402,327.379 754.055,324.093 		"/>
		</g>
		<g>
			<path fill="#D9D9D9" d="M706.047,379.773c0.031-10.997-7.7-24.388-17.271-29.912c-4.7-2.713-8.967-3.019-12.099-1.331
				l-0.007-0.013l-43.957,25.475l25.644,41.489l42.718-24.643l-0.001-0.003C704.136,389.009,706.033,385.189,706.047,379.773z"/>
			<g>
				<path fill="#C6C6C6" d="M645.128,375.148c-9.57-5.527-17.353-1.091-17.384,9.906c-0.032,10.998,7.701,24.39,17.272,29.913
					c9.569,5.525,17.353,1.092,17.383-9.906C662.431,394.063,654.7,380.672,645.128,375.148"/>
			</g>
			<path fill="#B2B2B2" d="M693.435,387.055c0.031-10.997-7.7-24.388-17.271-29.912c-4.7-2.713-8.967-3.019-12.099-1.331
				l-0.007-0.013L637.87,371l-0.381,0.222c0,0,5.221-3.296,12.685,1.014c9.572,5.524,17.303,18.916,17.271,29.912
				c-0.013,4.862-1.543,8.438-4.071,10.441l25.09-14.469l-0.001-0.002C691.524,396.291,693.421,392.471,693.435,387.055z"/>
			<g>
				<path fill="#D9D9D9" d="M637.57,371.173c-0.05,0.029-0.082,0.048-0.082,0.048L637.57,371.173z"/>
				<path fill="#D9D9D9" d="M681.634,361.331c-0.756-0.727-1.535-1.406-2.334-2.035l-26.055,15.044
					c0.802,0.628,1.584,1.304,2.344,2.029L681.634,361.331z"/>
				<path fill="#D9D9D9" d="M676.164,357.143c-1.029-0.594-2.032-1.052-3.012-1.42l-26.121,15.082
					c0.995,0.34,2.041,0.794,3.142,1.431c0.039,0.022,0.076,0.05,0.114,0.072l26.062-15.047
					C676.286,357.223,676.226,357.179,676.164,357.143z"/>
				<path fill="#D9D9D9" d="M688.462,398.117c1.224-0.73,2.251-1.793,3.057-3.135l-25.911,14.96c-0.614,1.059-1.36,1.953-2.235,2.646
					l25.09-14.469L688.462,398.117z"/>
				<path fill="#D9D9D9" d="M668.299,354.785c-1.559,0.015-2.989,0.356-4.234,1.027l-0.007-0.013L637.87,371l-0.299,0.174
					c0.352-0.2,1.904-1.005,4.314-1.138L668.299,354.785z"/>
				<path fill="#D9D9D9" d="M685.784,366.059c-0.593-0.8-1.22-1.564-1.862-2.308l-26.041,15.036c0.644,0.742,1.271,1.506,1.866,2.306
					L685.784,366.059z"/>
				<path fill="#D9D9D9" d="M693.136,383.185c-0.147-1.004-0.352-2.017-0.605-3.033l-26.01,15.018
					c0.255,1.014,0.465,2.025,0.615,3.028L693.136,383.185z"/>
				<path fill="#D9D9D9" d="M667.192,405.288l25.965-14.992c0.169-1.01,0.275-2.081,0.278-3.241c0-0.097-0.011-0.198-0.012-0.295
					l-25.994,15.008c0.001,0.126,0.016,0.255,0.015,0.38C667.441,403.266,667.349,404.309,667.192,405.288z"/>
				<path fill="#D9D9D9" d="M689.07,371.285c-0.46-0.862-0.949-1.708-1.467-2.536l-26.03,15.029c0.52,0.827,1.009,1.672,1.471,2.533
					L689.07,371.285z"/>
				<path fill="#D9D9D9" d="M691.574,376.963c-0.325-0.927-0.674-1.851-1.073-2.763l-26.022,15.025
					c0.4,0.912,0.754,1.833,1.081,2.759L691.574,376.963z"/>
			</g>
			<g>
				<path fill="#D9D9D9" d="M646.04,396.126c0.002-0.919-0.643-2.04-1.444-2.5c-0.394-0.228-0.75-0.253-1.013-0.112v-0.001
					l-15.741,9.097l0.303,0.489c0,0.008-0.001,0.016-0.001,0.022c-0.001,0.921,0.644,2.04,1.445,2.502
					c0.057,0.032,0.114,0.062,0.169,0.085l0.229,0.371l15.637-9.026l0,0C645.88,396.898,646.038,396.58,646.04,396.126z"/>
				<g>
					<path fill="#C6C6C6" d="M628.88,402.705c-0.801-0.463-1.452-0.092-1.454,0.829c-0.003,0.919,0.644,2.04,1.443,2.501
						c0.801,0.463,1.452,0.092,1.454-0.828C630.327,404.288,629.681,403.167,628.88,402.705"/>
				</g>
			</g>
		</g>
	</g>
	<g id="valeur-roue-back-right">
		<path fill="#575756" d="M641.622,433.822c0.052-18.529-12.974-41.092-29.1-50.397c-7.919-4.574-15.107-5.09-20.384-2.243
			l-0.011-0.021l-33.405,19.448l43.206,69.901l31.317-18.047l-0.003-0.004C638.4,449.381,641.597,442.945,641.622,433.822z"/>
		<g>
			<path fill="#868686" d="M579.638,402.556c-16.124-9.311-29.238-1.839-29.29,16.69s12.975,41.092,29.101,50.398
				c16.123,9.311,29.237,1.838,29.289-16.691C608.79,434.426,595.764,411.863,579.638,402.556"/>
		</g>
		<g>
			<path fill="#C6C6C5" d="M579.594,418.203c-8.603-4.969-15.599-0.98-15.626,8.906c-0.028,9.883,6.923,21.922,15.525,26.887
				c8.601,4.967,15.599,0.98,15.627-8.906C595.147,435.207,588.198,423.168,579.594,418.203"/>
		</g>
		<path fill="#D9D9D9" d="M595.121,445.09c-0.006,1.957-0.288,3.678-0.798,5.148c-1.375-0.332-2.827-0.914-4.333-1.781
			c-8.601-4.967-15.553-17.004-15.525-26.887c0.006-1.967,0.298-3.686,0.818-5.156c1.37,0.338,2.814,0.926,4.311,1.789
			C588.198,423.168,595.147,435.207,595.121,445.09z"/>
	</g>
	<g id="valeur-roue-back-left">
		<path fill="#575756" d="M854.847,311.063c0.051-18.529-12.975-41.092-29.1-50.398c-7.92-4.574-15.107-5.089-20.385-2.243
			l-0.012-0.021l-33.405,19.448l43.207,69.901l31.315-18.046l-0.002-0.005C851.624,326.622,854.821,320.187,854.847,311.063z"/>
		<g>
			<path fill="#868686" d="M792.863,279.796c-16.124-9.311-29.238-1.839-29.29,16.69c-0.052,18.528,12.975,41.091,29.101,50.398
				c16.124,9.31,29.237,1.839,29.288-16.691C822.015,311.666,808.989,289.103,792.863,279.796"/>
		</g>
		<g>
			<path fill="#C6C6C5" d="M792.819,295.444c-8.603-4.969-15.599-0.98-15.626,8.906c-0.028,9.883,6.923,21.922,15.525,26.886
				c8.602,4.967,15.6,0.981,15.628-8.905C808.372,312.448,801.423,300.41,792.819,295.444"/>
		</g>
		<path fill="#D9D9D9" d="M808.346,322.331c-0.006,1.956-0.288,3.678-0.799,5.148c-1.374-0.332-2.826-0.914-4.332-1.782
			c-8.602-4.965-15.554-17.002-15.525-26.886c0.006-1.968,0.298-3.686,0.818-5.156c1.37,0.338,2.814,0.925,4.311,1.789
			C801.423,300.41,808.372,312.448,808.346,322.331z"/>
	</g>
	<g id="valeur-roue-back-left-2">
		<path fill="#575756" d="M854.847,311.063c0.051-18.529-12.975-41.092-29.1-50.398c-7.92-4.574-15.107-5.089-20.385-2.243
			l-0.012-0.021l-33.405,19.448l43.207,69.901l31.315-18.046l-0.002-0.005C851.624,326.622,854.821,320.187,854.847,311.063z"/>
		<g>
			<path fill="#868686" d="M792.863,279.796c-16.124-9.311-29.238-1.839-29.29,16.69c-0.052,18.528,12.975,41.091,29.101,50.398
				c16.124,9.31,29.237,1.839,29.288-16.691C822.015,311.666,808.989,289.103,792.863,279.796"/>
		</g>
		<g>
			<path fill="#B2B2B2" d="M792.863,279.796c-6.23-3.598-12.006-4.68-16.757-3.597l16.665,37.14l12.423-23.28
				C801.45,285.884,797.274,282.342,792.863,279.796z"/>
			<path fill="#B2B2B2" d="M792.771,313.34l-12.426,23.282c3.743,4.175,7.919,7.718,12.33,10.264
				c6.231,3.598,12.007,4.679,16.759,3.595L792.771,313.34z"/>
		</g>
		<g>
			<path fill="#C6C6C5" d="M792.819,295.444c-8.603-4.969-15.599-0.98-15.626,8.906c-0.028,9.883,6.923,21.922,15.525,26.886
				c8.602,4.967,15.6,0.981,15.628-8.905C808.372,312.448,801.423,300.41,792.819,295.444"/>
		</g>
		<path fill="#D9D9D9" d="M808.346,322.331c-0.006,1.956-0.288,3.678-0.799,5.148c-1.374-0.332-2.826-0.914-4.332-1.782
			c-8.602-4.965-15.554-17.002-15.525-26.886c0.006-1.968,0.298-3.686,0.818-5.156c1.37,0.338,2.814,0.925,4.311,1.789
			C801.423,300.41,808.372,312.448,808.346,322.331z"/>
	</g>
	<g id="valeur-roue-back-right-2">
		<path fill="#575756" d="M641.622,433.822c0.052-18.529-12.974-41.092-29.1-50.397c-7.919-4.574-15.107-5.09-20.384-2.243
			l-0.011-0.021l-33.405,19.448l43.206,69.901l31.317-18.047l-0.003-0.004C638.4,449.381,641.597,442.945,641.622,433.822z"/>
		<g>
			<path fill="#868686" d="M579.638,402.556c-16.124-9.311-29.238-1.839-29.29,16.69s12.975,41.092,29.101,50.398
				c16.123,9.311,29.237,1.838,29.289-16.691C608.79,434.426,595.764,411.863,579.638,402.556"/>
		</g>
		<g>
			<path fill="#B2B2B2" d="M579.638,402.556c-6.23-3.598-12.007-4.68-16.758-3.596l16.665,37.141l12.423-23.281
				C588.225,408.644,584.049,405.102,579.638,402.556z"/>
			<path fill="#B2B2B2" d="M579.545,436.1l-12.426,23.281c3.743,4.176,7.919,7.718,12.331,10.264
				c6.23,3.598,12.006,4.68,16.757,3.596L579.545,436.1z"/>
		</g>
		<g>
			<path fill="#C6C6C5" d="M579.594,418.203c-8.603-4.969-15.599-0.98-15.626,8.906c-0.028,9.883,6.923,21.922,15.525,26.887
				c8.601,4.967,15.599,0.98,15.627-8.906C595.147,435.207,588.198,423.168,579.594,418.203"/>
		</g>
		<path fill="#D9D9D9" d="M595.121,445.09c-0.006,1.957-0.288,3.678-0.798,5.148c-1.375-0.332-2.827-0.914-4.333-1.781
			c-8.601-4.967-15.553-17.004-15.525-26.887c0.006-1.967,0.298-3.686,0.818-5.156c1.37,0.338,2.814,0.926,4.311,1.789
			C588.198,423.168,595.147,435.207,595.121,445.09z"/>
	</g>
	<g id="valeur-roue-back-left-1">
		<path fill="#575756" d="M854.847,311.063c0.051-18.529-12.975-41.092-29.1-50.398c-7.92-4.574-15.107-5.089-20.385-2.243
			l-0.012-0.021l-33.405,19.448l43.207,69.901l31.315-18.046l-0.002-0.005C851.624,326.622,854.821,320.187,854.847,311.063z"/>
		<g>
			<path fill="#868686" d="M792.863,279.796c-16.124-9.311-29.238-1.839-29.29,16.69c-0.052,18.528,12.975,41.091,29.101,50.398
				c16.124,9.31,29.237,1.839,29.288-16.691C822.015,311.666,808.989,289.103,792.863,279.796"/>
		</g>
		<g>
			<path fill="#B2B2B2" d="M792.674,346.885c4.41,2.546,8.591,3.829,12.344,3.981l-12.25-37.529l-16.819,17.813
				C780.679,337.709,786.443,343.289,792.674,346.885z"/>
			<path fill="#B2B2B2" d="M792.863,279.796c-4.411-2.547-8.593-3.83-12.347-3.982l12.253,37.524l16.818-17.809
				C804.857,288.972,799.094,283.393,792.863,279.796z"/>
		</g>
		<g>
			<path fill="#C6C6C5" d="M792.819,295.444c-8.603-4.969-15.599-0.98-15.626,8.906c-0.028,9.883,6.923,21.922,15.525,26.886
				c8.602,4.967,15.6,0.981,15.628-8.905C808.372,312.448,801.423,300.41,792.819,295.444"/>
		</g>
		<path fill="#D9D9D9" d="M808.346,322.331c-0.006,1.956-0.288,3.678-0.799,5.148c-1.374-0.332-2.826-0.914-4.332-1.782
			c-8.602-4.965-15.554-17.002-15.525-26.886c0.006-1.968,0.298-3.686,0.818-5.156c1.37,0.338,2.814,0.925,4.311,1.789
			C801.423,300.41,808.372,312.448,808.346,322.331z"/>
	</g>
	<g id="valeur-roue-back-right-1">
		<path fill="#575756" d="M641.622,433.822c0.052-18.529-12.974-41.092-29.1-50.397c-7.919-4.574-15.107-5.09-20.384-2.243
			l-0.011-0.021l-33.405,19.448l43.206,69.901l31.317-18.047l-0.003-0.004C638.4,449.381,641.597,442.945,641.622,433.822z"/>
		<g>
			<path fill="#868686" d="M579.638,402.556c-16.124-9.311-29.238-1.839-29.29,16.69s12.975,41.092,29.101,50.398
				c16.123,9.311,29.237,1.838,29.289-16.691C608.79,434.426,595.764,411.863,579.638,402.556"/>
		</g>
		<g>
			<path fill="#B2B2B2" d="M579.45,469.645c4.409,2.546,8.59,3.829,12.343,3.981l-12.25-37.528l-16.818,17.813
				C567.455,460.469,573.218,466.048,579.45,469.645z"/>
			<path fill="#B2B2B2" d="M579.638,402.556c-4.411-2.547-8.594-3.83-12.348-3.982l12.253,37.525l16.819-17.81
				C591.632,411.731,585.869,406.152,579.638,402.556z"/>
		</g>
		<g>
			<path fill="#C6C6C5" d="M579.594,418.203c-8.603-4.969-15.599-0.98-15.626,8.906c-0.028,9.883,6.923,21.922,15.525,26.887
				c8.601,4.967,15.599,0.98,15.627-8.906C595.147,435.207,588.198,423.168,579.594,418.203"/>
		</g>
		<path fill="#D9D9D9" d="M595.121,445.09c-0.006,1.957-0.288,3.678-0.798,5.148c-1.375-0.332-2.827-0.914-4.333-1.781
			c-8.601-4.967-15.553-17.004-15.525-26.887c0.006-1.967,0.298-3.686,0.818-5.156c1.37,0.338,2.814,0.926,4.311,1.789
			C588.198,423.168,595.147,435.207,595.121,445.09z"/>
	</g>
	<g id="valeur-carenage-right">
		<polygon fill="#C6C6C5" points="714.917,504.135 620.286,449.5 620.286,492.955 714.917,547.59 	"/>
		<polygon fill="#B1B1B1" points="714.917,504.135 744.039,487.305 744.039,530.76 714.917,547.59 	"/>
		<g>
			<polygon fill="#ECECEC" points="744.039,487.305 649.1,432.668 620.286,449.5 714.917,504.135 		"/>
		</g>
	</g>
	<g id="valeur-carenage-left">
		<polygon fill="#C6C6C5" points="933.706,376.761 839.075,322.126 839.075,365.58 933.706,420.217 	"/>
		<polygon fill="#B1B1B1" points="933.706,376.761 962.829,359.931 962.829,403.385 933.706,420.217 	"/>
		<g>
			<polygon fill="#ECECEC" points="962.829,359.931 867.89,305.294 839.075,322.126 933.706,376.761 		"/>
		</g>
	</g>
	<g id="valeur-roue-front-right">
		<path fill="#575756" d="M829.177,542.314c0.051-18.527-12.974-41.09-29.1-50.396c-7.919-4.574-15.107-5.09-20.385-2.244
			l-0.011-0.021l-33.405,19.449l43.206,69.9l31.318-18.045l-0.004-0.006C825.954,557.873,829.151,551.438,829.177,542.314z"/>
		<g>
			<path fill="#868686" d="M767.193,511.049c-16.124-9.311-29.238-1.84-29.29,16.691c-0.052,18.527,12.975,41.09,29.101,50.396
				c16.123,9.311,29.237,1.84,29.289-16.689S783.319,520.355,767.193,511.049"/>
		</g>
		<g>
			<path fill="#C6C6C5" d="M767.149,526.695c-8.603-4.967-15.599-0.979-15.626,8.908c-0.028,9.883,6.923,21.92,15.525,26.885
				c8.601,4.967,15.599,0.98,15.627-8.904C782.702,543.699,775.752,531.662,767.149,526.695"/>
		</g>
		<path fill="#D9D9D9" d="M782.675,553.584c-0.006,1.955-0.288,3.676-0.798,5.148c-1.375-0.334-2.827-0.914-4.333-1.783
			c-8.601-4.965-15.553-17.002-15.524-26.887c0.005-1.967,0.297-3.686,0.818-5.154c1.37,0.338,2.814,0.924,4.311,1.787
			C775.752,531.662,782.702,543.699,782.675,553.584z"/>
	</g>
	<g id="valeur-roue-front-left">
		<path fill="#575756" d="M1042.401,419.557c0.051-18.529-12.975-41.092-29.1-50.399c-7.92-4.573-15.107-5.089-20.385-2.243
			l-0.012-0.021l-33.404,19.448l43.205,69.903l31.318-18.047l-0.004-0.004C1039.179,435.113,1042.376,428.68,1042.401,419.557z"/>
		<g>
			<path fill="#868686" d="M980.417,388.29c-16.123-9.311-29.236-1.839-29.289,16.691c-0.051,18.527,12.975,41.09,29.102,50.398
				c16.123,9.309,29.236,1.838,29.287-16.691C1009.569,420.158,996.544,397.595,980.417,388.29"/>
		</g>
		<g>
			<path fill="#C6C6C5" d="M980.374,403.938c-8.604-4.969-15.6-0.98-15.627,8.906c-0.027,9.883,6.924,21.92,15.525,26.885
				c8.602,4.967,15.6,0.98,15.627-8.904S988.978,408.902,980.374,403.938"/>
		</g>
		<path fill="#D9D9D9" d="M995.899,430.824c-0.006,1.955-0.287,3.678-0.797,5.148c-1.375-0.332-2.828-0.914-4.334-1.783
			c-8.6-4.965-15.553-17.002-15.523-26.885c0.006-1.969,0.297-3.688,0.818-5.156c1.369,0.338,2.812,0.924,4.311,1.789
			C988.978,408.902,995.927,420.939,995.899,430.824z"/>
	</g>
	<g id="valeur-roue-front-right-2">
		<path fill="#575756" d="M829.177,542.314c0.051-18.527-12.974-41.09-29.1-50.396c-7.919-4.574-15.107-5.09-20.385-2.244
			l-0.011-0.021l-33.405,19.449l43.206,69.9l31.318-18.045l-0.004-0.006C825.954,557.873,829.151,551.438,829.177,542.314z"/>
		<g>
			<path fill="#868686" d="M767.193,511.049c-16.124-9.311-29.238-1.84-29.29,16.691c-0.052,18.527,12.975,41.09,29.101,50.396
				c16.123,9.311,29.237,1.84,29.289-16.689S783.319,520.355,767.193,511.049"/>
		</g>
		<g>
			<path fill="#B2B2B2" d="M767.193,511.049c-6.23-3.598-12.006-4.68-16.757-3.597l16.665,37.141l12.422-23.28
				C775.78,517.137,771.604,513.595,767.193,511.049z"/>
			<path fill="#B2B2B2" d="M767.101,544.593l-12.426,23.281c3.743,4.175,7.919,7.717,12.33,10.263
				c6.23,3.598,12.007,4.68,16.759,3.596L767.101,544.593z"/>
		</g>
		<g>
			<path fill="#C6C6C5" d="M767.149,526.695c-8.603-4.967-15.599-0.979-15.626,8.908c-0.028,9.883,6.923,21.92,15.525,26.885
				c8.601,4.967,15.599,0.98,15.627-8.904C782.702,543.699,775.752,531.662,767.149,526.695"/>
		</g>
		<path fill="#D9D9D9" d="M782.675,553.584c-0.006,1.955-0.288,3.676-0.798,5.148c-1.375-0.334-2.827-0.914-4.333-1.783
			c-8.601-4.965-15.553-17.002-15.524-26.887c0.005-1.967,0.297-3.686,0.818-5.154c1.37,0.338,2.814,0.924,4.311,1.787
			C775.752,531.662,782.702,543.699,782.675,553.584z"/>
	</g>
	<g id="valeur-roue-front-left-2">
		<path fill="#575756" d="M1042.401,419.557c0.051-18.529-12.975-41.092-29.1-50.399c-7.92-4.573-15.107-5.089-20.385-2.243
			l-0.012-0.021l-33.404,19.448l43.205,69.903l31.318-18.047l-0.004-0.004C1039.179,435.113,1042.376,428.68,1042.401,419.557z"/>
		<g>
			<path fill="#868686" d="M980.417,388.29c-16.123-9.311-29.236-1.839-29.289,16.691c-0.051,18.527,12.975,41.09,29.102,50.398
				c16.123,9.309,29.236,1.838,29.287-16.691C1009.569,420.158,996.544,397.595,980.417,388.29"/>
		</g>
		<g>
			<path fill="#B2B2B2" d="M980.966,421.833l-12.663,23.725c3.64,3.982,7.673,7.366,11.927,9.821
				c6.484,3.744,12.479,4.769,17.337,3.456L980.966,421.833z"/>
			<path fill="#B2B2B2" d="M980.417,388.29c-5.976-3.451-11.536-4.591-16.173-3.723l16.722,37.266L993.149,399
				C989.306,394.628,984.986,390.926,980.417,388.29z"/>
		</g>
		<g>
			<path fill="#C6C6C5" d="M980.374,403.938c-8.604-4.969-15.6-0.98-15.627,8.906c-0.027,9.883,6.924,21.92,15.525,26.885
				c8.602,4.967,15.6,0.98,15.627-8.904S988.978,408.902,980.374,403.938"/>
		</g>
		<path fill="#D9D9D9" d="M995.899,430.824c-0.006,1.955-0.287,3.678-0.797,5.148c-1.375-0.332-2.828-0.914-4.334-1.783
			c-8.6-4.965-15.553-17.002-15.523-26.885c0.006-1.969,0.297-3.688,0.818-5.156c1.369,0.338,2.812,0.924,4.311,1.789
			C988.978,408.902,995.927,420.939,995.899,430.824z"/>
	</g>
	<g id="valeur-roue-front-right-1">
		<path fill="#575756" d="M829.177,542.314c0.051-18.527-12.974-41.09-29.1-50.396c-7.919-4.574-15.107-5.09-20.385-2.244
			l-0.011-0.021l-33.405,19.449l43.206,69.9l31.318-18.045l-0.004-0.006C825.954,557.873,829.151,551.438,829.177,542.314z"/>
		<g>
			<path fill="#868686" d="M767.193,511.049c-16.124-9.311-29.238-1.84-29.29,16.691c-0.052,18.527,12.975,41.09,29.101,50.396
				c16.123,9.311,29.237,1.84,29.289-16.689S783.319,520.355,767.193,511.049"/>
		</g>
		<g>
			<path fill="#B2B2B2" d="M767.004,578.137c4.41,2.547,8.591,3.829,12.345,3.982l-12.25-37.528l-16.819,17.813
				C755.01,568.961,760.773,574.541,767.004,578.137z"/>
			<path fill="#B2B2B2" d="M767.193,511.049c-4.411-2.547-8.592-3.83-12.347-3.982l12.252,37.524l16.818-17.81
				C779.188,520.225,773.424,514.645,767.193,511.049z"/>
		</g>
		<g>
			<path fill="#C6C6C5" d="M767.149,526.695c-8.603-4.967-15.599-0.979-15.626,8.908c-0.028,9.883,6.923,21.92,15.525,26.885
				c8.601,4.967,15.599,0.98,15.627-8.904C782.702,543.699,775.752,531.662,767.149,526.695"/>
		</g>
		<path fill="#D9D9D9" d="M782.675,553.584c-0.006,1.955-0.288,3.676-0.798,5.148c-1.375-0.334-2.827-0.914-4.333-1.783
			c-8.601-4.965-15.553-17.002-15.524-26.887c0.005-1.967,0.297-3.686,0.818-5.154c1.37,0.338,2.814,0.924,4.311,1.787
			C775.752,531.662,782.702,543.699,782.675,553.584z"/>
	</g>
	<g id="valeur-roue-front-left-1">
		<path fill="#575756" d="M1042.401,419.557c0.051-18.529-12.975-41.092-29.1-50.399c-7.92-4.573-15.107-5.089-20.385-2.243
			l-0.012-0.021l-33.404,19.448l43.205,69.903l31.318-18.047l-0.004-0.004C1039.179,435.113,1042.376,428.68,1042.401,419.557z"/>
		<g>
			<path fill="#868686" d="M980.417,388.29c-16.123-9.311-29.236-1.839-29.289,16.691c-0.051,18.527,12.975,41.09,29.102,50.398
				c16.123,9.309,29.236,1.838,29.287-16.691C1009.569,420.158,996.544,397.595,980.417,388.29"/>
		</g>
		<g>
			<path fill="#B2B2B2" d="M980.964,421.831L963.78,440.03c4.677,6.391,10.34,11.822,16.449,15.349
				c4.664,2.692,9.073,3.973,12.989,3.996L980.964,421.831z"/>
			<path fill="#B2B2B2" d="M980.417,388.29c-4.156-2.4-8.109-3.677-11.693-3.945l12.24,37.486l16.454-17.423
				C992.638,397.684,986.771,391.956,980.417,388.29z"/>
		</g>
		<g>
			<path fill="#C6C6C5" d="M980.374,403.938c-8.604-4.969-15.6-0.98-15.627,8.906c-0.027,9.883,6.924,21.92,15.525,26.885
				c8.602,4.967,15.6,0.98,15.627-8.904S988.978,408.902,980.374,403.938"/>
		</g>
		<path fill="#D9D9D9" d="M995.899,430.824c-0.006,1.955-0.287,3.678-0.797,5.148c-1.375-0.332-2.828-0.914-4.334-1.783
			c-8.6-4.965-15.553-17.002-15.523-26.885c0.006-1.969,0.297-3.688,0.818-5.156c1.369,0.338,2.812,0.924,4.311,1.789
			C988.978,408.902,995.927,420.939,995.899,430.824z"/>
	</g>
	<g id="valeur-siege">
		<g>
			<g>
				<polygon fill="#B1B1B1" points="677.091,318.544 747.015,278.108 768.762,385.941 768.762,398.411 709.002,432.979 			"/>
				<polygon fill="#C6C6C5" points="677.091,318.544 666.417,315.073 699.463,428.613 709.002,432.979 709.002,420.539 			"/>
				<g>
					<polygon fill="#F5F5F5" points="747.015,278.108 736.042,274.635 666.417,315.073 677.091,318.544 				"/>
				</g>
			</g>
			<g>
				<polygon fill="#C6C6C5" points="774.926,452.115 709.002,420.541 709.002,432.965 774.926,464.541 			"/>
				<polygon fill="#B1B1B1" points="774.926,452.115 844.851,411.68 844.851,424.105 774.926,464.541 			"/>
				<g>
					<polygon fill="#F5F5F5" points="844.851,411.68 768.464,385.972 709.002,420.541 774.926,452.115 				"/>
				</g>
			</g>
		</g>
	</g>
	<g id="valeur-pilote">
		<g>
			<polygon fill="#C6C6C5" points="701.985,312.337 776.477,267.176 781.554,304.541 780.008,337.53 788.624,359.342 
				791.706,379.269 772.37,411.662 745.672,403.391 736.711,368.28 720.822,337.282 		"/>
			<polygon fill="#C6C6C5" points="701.985,312.337 720.822,337.282 736.711,368.28 745.539,402.867 718.236,429.189 
				710.078,402.416 679.707,342.49 675.283,309.936 		"/>
			<polygon fill="#F5F5F5" points="701.985,312.337 675.283,309.936 695.309,277.074 718.587,262.608 750.404,258.286 
				776.477,267.176 		"/>
		</g>
		<g>
			<polygon fill="#ECECEC" points="908.798,476.504 920.827,462.436 946.661,461.18 948.858,469.736 932.308,481.027 		"/>
			<polygon fill="#B1B1B1" points="948.858,469.736 957.616,472.502 946.661,461.18 		"/>
			<polygon fill="#9C9B9B" points="932.308,481.027 948.858,469.736 957.616,472.502 941.567,487.492 		"/>
			<polygon fill="#C6C6C5" points="908.798,476.504 894.507,473.924 907.747,490.129 941.567,487.492 932.308,481.027 		"/>
			<polygon fill="#D9D9D9" points="856.481,412.816 834.942,421.164 851.786,443.412 874.554,441.826 		"/>
			<polygon fill="#B1B1B1" points="908.798,476.504 874.554,441.826 851.786,443.412 894.507,473.924 		"/>
			<polygon fill="#C6C6C5" points="920.827,462.436 872.415,400.248 856.481,412.816 874.554,441.826 908.798,476.504 		"/>
			<polygon fill="#D9D9D9" points="836.136,400.846 856.481,412.816 872.415,400.248 856.481,382.504 		"/>
			<polygon fill="#9C9B9B" points="770.67,382.504 836.136,400.846 856.481,412.816 834.942,421.164 779.044,416.406 		"/>
			<polygon fill="#ECECEC" points="788.624,359.342 856.481,382.504 836.136,400.846 770.67,382.504 		"/>
		</g>
		<g>
			<polygon fill="#D9D9D9" points="808.483,341.805 828.075,333.491 776.477,267.176 781.554,304.541 		"/>
			<polygon fill="#ECECEC" points="842.991,367.751 859.87,364.336 828.075,333.491 808.483,341.805 		"/>
			<polygon fill="#C6C6C5" points="808.483,341.805 842.991,367.751 835.538,381.173 802.914,354.628 		"/>
			<polygon fill="#9C9B9B" points="781.554,304.541 780.569,325.554 802.914,354.628 808.483,341.805 		"/>
			<polyline fill="#B1B1B1" points="859.87,364.336 862.167,367.73 858.31,382.504 850.442,389.606 840.147,385.037 835.538,381.173 
				842.991,367.751 		"/>
		</g>
		<polygon fill="#C6C6C5" points="845.298,372.053 840.151,381.173 843.356,385.362 854.431,389.606 863.333,380.829 
			863.333,369.112 857.901,369.112 	"/>
		<g>
			<polygon fill="#ECECEC" points="846.036,513.562 860.282,499.568 878.089,505.439 862.817,515.049 		"/>
			<polygon fill="#9C9B9B" points="862.067,531.729 862.817,515.049 878.089,505.439 884.476,514.389 		"/>
			<polygon fill="#C6C6C5" points="842.829,534.344 833.593,510.73 846.036,513.562 862.817,515.049 862.067,531.729 		"/>
			<polygon fill="#C6C6C5" points="797.309,449.098 808.394,467.598 846.036,513.562 860.282,499.568 815.495,430.426 		"/>
			<polygon fill="#D9D9D9" points="777.904,453.242 797.309,449.098 808.394,467.598 791.448,474.611 		"/>
			<polygon fill="#B1B1B1" points="846.036,513.562 808.394,467.598 791.448,474.611 833.593,510.73 		"/>
			<polygon fill="#D9D9D9" points="783.128,430.68 801.381,413.695 815.495,430.426 797.309,449.098 		"/>
			<polygon fill="#C6C6C5" points="710.078,402.416 783.128,430.68 797.309,449.098 777.904,453.242 718.236,429.189 		"/>
			<polygon fill="#ECECEC" points="783.128,430.68 801.381,413.695 764.102,388.404 710.078,402.416 		"/>
		</g>
		<g>
			<path fill="#ECECEC" d="M813.576,392.99l23.778-26.313l23.057-10.33l9.115-1.485l3.375-0.118l-6.383-5.012h-0.006
				c-4.035-3.307-11.521-3.079-21.318,1.472c-18.619,8.646-38.516,29.608-44.442,46.821c-2.656,7.715-2.043,13.36,1.11,16.467
				l-0.01,0.004l0.075,0.059c0.401,0.387,0.841,0.736,1.322,1.043l6.235,4.91L813.576,392.99z"/>
			<path fill="#ECECEC" d="M834.466,413.096l20.893-15.318l14.494-21.165v-12.889c0,0-0.143-3.154-0.053-4.469l-7.789-0.755
				c1.256,2.633,1.191,6.456-0.475,11.295c-4.758,13.818-20.734,30.65-35.684,37.594c-6.641,3.084-11.956,3.693-15.403,2.213
				l3.271,7.262c0.796-0.143,8.442,0.773,8.442,0.773L834.466,413.096z"/>
			<g>
				<path fill="#B1B1B1" d="M832.138,412.324c-14.949,6.943-23.213,1.369-18.456-12.449c4.759-13.821,20.733-30.65,35.685-37.593
					c14.947-6.942,23.213-1.371,18.455,12.449C863.065,388.549,847.089,405.381,832.138,412.324 M851.481,356.139
					c-18.619,8.647-38.517,29.609-44.442,46.822c-5.923,17.209,4.368,24.15,22.987,15.504c18.617-8.646,38.514-29.61,44.438-46.818
					C880.39,354.434,870.099,347.493,851.481,356.139"/>
			</g>
		</g>
		<polygon fill="#ECECEC" points="787.925,394.146 794.527,395.285 797.502,394.264 802.829,392.99 800.947,397.473 804.335,398.611 
			808.795,398.611 815.363,395.8 816.817,392.99 819.854,394.744 818.929,405.102 816.549,411.938 810.449,416.09 804.438,417.637 
			790.306,414.951 781.3,411.662 	"/>
		<polygon fill="#C6C6C5" points="793.825,402.707 803.762,403.41 810.449,401.834 814.009,399.838 808.795,398.611 815.363,395.8 
			816.817,392.99 819.854,394.744 818.929,405.102 816.549,411.938 810.449,416.09 804.438,417.637 790.306,414.951 783.128,412.33 
			786.994,393.835 793.337,395.079 792.107,402.238 	"/>
		<g>
			<polygon fill="#D9D9D9" points="733.587,387.518 701.985,312.337 720.822,337.282 744.038,380.094 		"/>
			<polygon fill="#ECECEC" points="733.587,387.518 744.038,380.094 791.069,392.101 788.688,402.707 		"/>
			<polygon fill="#D9D9D9" points="712.666,397.142 733.587,387.518 727.063,407.803 		"/>
			<polygon fill="#ECECEC" points="675.283,309.936 701.985,312.337 733.587,387.518 712.666,397.142 679.707,342.49 		"/>
			<polygon fill="#C6C6C5" points="727.063,407.803 733.587,387.518 788.688,402.707 784.968,419.305 		"/>
		</g>
		<polygon fill="#D9D9D9" points="699.151,280.502 686.074,262.588 681.88,238.161 685.519,220.202 698.495,208.765 712.986,201.955 
			727.374,204.107 739.943,211.767 749.692,221.51 754.492,235.677 758.7,258.145 758.147,270.758 753.975,281.634 741.572,289.086 
			720.758,290.018 	"/>
		<polygon fill="#C6C6C5" points="753.354,262.795 737.207,270.869 711.537,269.42 706.996,271.54 686.074,262.588 699.151,280.502 
			720.758,290.018 741.572,289.086 753.975,281.634 758.147,270.758 758.7,258.145 754.492,235.677 	"/>
		<polygon fill="#9C9B9B" points="754.492,235.677 750.111,247.238 737.821,254.722 719.582,255.239 704.113,251.152 
			699.788,255.136 699.788,262.769 706.996,271.54 721.773,278.057 742.28,277.133 754.156,270.248 758.7,258.145 	"/>
		<polygon fill="#ECECEC" points="681.88,238.161 701.985,244.045 729.244,239.61 745.539,231.743 749.692,221.51 739.943,211.767 
			727.374,204.107 712.986,201.955 698.495,208.765 685.519,220.202 	"/>
		<polygon fill="#C6C6C5" points="861.677,376.542 857.019,388.068 865.61,391.883 869.853,390.799 876.788,375.012 874.69,370.966 
			873.271,374.494 	"/>
		<polygon fill="#ECECEC" points="845.298,372.053 847.329,378.634 855.62,381.173 857.171,378.62 861.312,378.483 868.144,378.257 
			869.97,374.928 868.505,373.134 864.417,372.409 861.108,370.966 862.167,367.73 856.165,366.742 	"/>
		<polygon fill="#C6C6C5" points="845.298,372.053 850.185,375.308 855.981,372.053 862.167,374.068 869.97,374.928 868.144,378.257 
			857.171,378.62 855.62,381.173 847.329,378.634 	"/>
	</g>
	<g id="valeur-carenage-front">
		<g>
			<polygon fill="#D9D9D9" points="918.776,455.494 911.692,437.955 869.397,391.604 847.806,404.152 847.216,404.492 
				825.624,417.043 867.919,463.396 886.675,474.152 949.497,533.012 959.413,527.248 960.003,526.906 969.917,521.143 		"/>
			<polygon fill="#B1B1B1" points="825.624,417.043 825.624,425.566 867.919,471.92 867.919,463.396 		"/>
			<polygon fill="#9C9B9B" points="886.675,482.676 886.675,474.152 867.919,463.396 867.919,471.92 		"/>
			<polygon fill="#B1B1B1" points="949.497,533.012 949.497,541.535 886.675,482.676 886.675,474.152 		"/>
		</g>
		<g>
			<g>
				<polygon fill="#ECECEC" points="1049.651,428.57 998.868,443.736 988.661,489.75 947.409,513.725 906.163,537.695 
					851.526,529.367 800.745,573.225 933.886,576.965 984.497,547.553 1035.12,518.133 			"/>
			</g>
			<polygon fill="#B1B1B1" points="1035.12,530.543 1035.12,518.133 1049.651,428.57 1049.651,453.391 		"/>
			<polygon fill="#9C9B9B" points="933.886,589.377 933.886,576.965 1035.12,518.133 1035.12,530.543 		"/>
			<polygon fill="#B1B1B1" points="933.886,589.377 933.886,576.965 800.745,573.225 800.745,598.045 		"/>
			<polygon fill="#C6C6C5" points="933.886,576.965 906.163,537.695 851.526,529.367 800.745,573.225 		"/>
			<polygon fill="#D9D9D9" points="1035.12,518.133 988.661,489.75 906.163,537.695 933.886,576.965 		"/>
			<polygon fill="#C6C6C5" points="1035.12,518.133 1049.651,428.57 998.868,443.736 988.661,489.75 		"/>
		</g>
	</g>
</g>

</svg>
