<?xml version="1.0" encoding="utf-8"?>
<!-- Generator: Adobe Illustrator 17.0.0, SVG Export Plug-In . SVG Version: 6.00 Build 0)  -->
<!DOCTYPE svg PUBLIC "-//W3C//DTD SVG 1.1//EN" "http://www.w3.org/Graphics/SVG/1.1/DTD/svg11.dtd">
<svg version="1.1" id="VALEUR-dispatch" xmlns="http://www.w3.org/2000/svg" xmlns:xlink="http://www.w3.org/1999/xlink" x="0px"
	 y="0px" width="1600px" height="900px" viewBox="0 0 1600 900" enable-background="new 0 0 1600 900" xml:space="preserve">
<g id="dispatch-carenage-right">
	<polygon fill="#C6C6C5" points="649.965,541.635 555.334,487 555.334,530.455 649.965,585.09 	"/>
	<polygon fill="#B1B1B1" points="649.965,541.635 679.087,524.805 679.087,568.26 649.965,585.09 	"/>
	<g>
		<polygon fill="#ECECEC" points="679.087,524.805 584.148,470.168 555.334,487 649.965,541.635 		"/>
	</g>
</g>
<g id="dispatch-carenage-left">
	<polygon fill="#C6C6C5" points="998.658,339.261 904.027,284.626 904.027,328.08 998.658,382.717 	"/>
	<polygon fill="#B1B1B1" points="998.658,339.261 1027.781,322.431 1027.781,365.885 998.658,382.717 	"/>
	<g>
		<polygon fill="#ECECEC" points="1027.781,322.431 932.842,267.794 904.027,284.626 998.658,339.261 		"/>
	</g>
</g>
<g id="dispatch-moteur">
	<g>
		<path fill="#D9D9D9" d="M509.732,198.382c0.006-2.303-1.612-5.107-3.616-6.264c-0.984-0.567-1.877-0.632-2.533-0.278
			l-16.378,9.441l-0.672,0.393l0.758,1.226c0,0.019-0.001,0.037-0.001,0.055c-0.007,2.304,1.613,5.107,3.616,6.265
			c0.144,0.084,0.284,0.154,0.424,0.215l0.573,0.928l16.736-9.633c0.014-0.007,0.026-0.014,0.039-0.022l-16.361,9.438l16.374-9.445
			C509.333,200.317,509.729,199.516,509.732,198.382z"/>
		<path fill="#D9D9D9" d="M504.392,211.092c0.021-7.592-5.315-16.836-11.923-20.648c-3.245-1.873-6.189-2.086-8.352-0.92
			l-53.985,31.125l-2.217,1.293l2.498,4.041c-0.001,0.061-0.004,0.12-0.004,0.182c-0.021,7.592,5.316,16.836,11.922,20.648
			c0.474,0.273,0.938,0.508,1.396,0.709l1.891,3.059l55.169-31.754c0.042-0.023,0.085-0.047,0.128-0.072l-53.937,31.108
			l53.979-31.135C503.072,217.467,504.381,214.831,504.392,211.092z"/>
		<g>
			<path fill="#C6C6C6" d="M436.485,222.739c-6.605-3.813-11.979-0.752-11.999,6.84c-0.021,7.59,5.315,16.834,11.922,20.648
				c6.605,3.813,11.979,0.752,11.999-6.838C448.43,235.797,443.092,226.553,436.485,222.739"/>
		</g>
		<path fill="#D9D9D9" d="M439.948,238.672c0.007-2.303-1.611-5.107-3.616-6.264c-0.984-0.568-1.877-0.633-2.534-0.279
			l-16.376,9.442l-0.673,0.392l0.758,1.227c0,0.019-0.001,0.036-0.001,0.055c-0.008,2.303,1.612,5.107,3.616,6.265
			c0.144,0.082,0.284,0.153,0.424,0.216l0.573,0.926l16.736-9.631c0.013-0.009,0.026-0.016,0.038-0.022l-16.361,9.437l16.375-9.445
			C439.549,240.606,439.945,239.807,439.948,238.672z"/>
	</g>
	<g>
		<g>
			<path fill="#B1B1B1" d="M423.593,262.429l-24.202-13.975c-2.098-1.211-5.487-1.211-7.572,0l-24.043,13.975
				c-2.086,1.211-2.074,3.174,0.024,4.385l24.201,13.975c2.098,1.211,5.487,1.211,7.572,0l24.043-13.975
				C425.701,265.603,425.69,263.64,423.593,262.429"/>
		</g>
		<rect x="366.218" y="261.587" fill="#B1B1B1" width="58.955" height="3.033"/>
		<g>
			<path fill="#ECECEC" d="M423.593,259.394l-24.202-13.974c-2.098-1.212-5.487-1.212-7.572,0l-24.043,13.974
				c-2.086,1.211-2.074,3.174,0.024,4.387l24.201,13.973c2.098,1.211,5.487,1.211,7.572,0l24.043-13.973
				C425.701,262.569,425.69,260.604,423.593,259.394"/>
		</g>
	</g>
	<g>
		<g>
			<path fill="#B1B1B1" d="M423.593,256.384l-24.202-13.973c-2.098-1.212-5.487-1.212-7.572,0l-24.043,13.973
				c-2.086,1.211-2.074,3.176,0.024,4.387l24.201,13.973c2.098,1.211,5.487,1.211,7.572,0l24.043-13.973
				C425.701,259.56,425.69,257.595,423.593,256.384"/>
		</g>
		<rect x="366.218" y="255.542" fill="#B1B1B1" width="58.955" height="3.035"/>
		<g>
			<path fill="#ECECEC" d="M423.593,253.351l-24.202-13.975c-2.098-1.211-5.487-1.211-7.572,0l-24.043,13.975
				c-2.086,1.211-2.074,3.174,0.024,4.385l24.201,13.975c2.098,1.211,5.487,1.211,7.572,0l24.043-13.975
				C425.701,256.524,425.69,254.562,423.593,253.351"/>
		</g>
	</g>
	<g>
		<g>
			<path fill="#B1B1B1" d="M423.593,250.34l-24.202-13.975c-2.098-1.211-5.487-1.211-7.572,0l-24.043,13.975
				c-2.086,1.211-2.074,3.174,0.024,4.385l24.201,13.975c2.098,1.211,5.487,1.211,7.572,0l24.043-13.975
				C425.701,253.515,425.69,251.552,423.593,250.34"/>
		</g>
		<rect x="366.218" y="249.499" fill="#B1B1B1" width="58.955" height="3.034"/>
		<g>
			<path fill="#ECECEC" d="M423.593,247.305l-24.202-13.974c-2.098-1.21-5.487-1.21-7.572,0l-24.043,13.974
				c-2.086,1.211-2.074,3.174,0.024,4.387l24.201,13.973c2.098,1.213,5.487,1.213,7.572,0l24.043-13.973
				C425.701,250.481,425.69,248.516,423.593,247.305"/>
		</g>
	</g>
	<g>
		<g>
			<path fill="#B1B1B1" d="M423.593,244.295l-24.202-13.973c-2.098-1.211-5.487-1.211-7.572,0l-24.043,13.973
				c-2.086,1.212-2.074,3.176,0.024,4.387l24.201,13.973c2.098,1.213,5.487,1.213,7.572,0l24.043-13.973
				C425.701,247.471,425.69,245.507,423.593,244.295"/>
		</g>
		<rect x="366.218" y="243.456" fill="#B1B1B1" width="58.955" height="3.033"/>
		<g>
			<path fill="#ECECEC" d="M423.593,241.262l-24.202-13.974c-2.098-1.212-5.487-1.212-7.572,0l-24.043,13.974
				c-2.086,1.211-2.074,3.174,0.024,4.386l24.201,13.974c2.098,1.211,5.487,1.211,7.572,0l24.043-13.974
				C425.701,244.436,425.69,242.473,423.593,241.262"/>
		</g>
	</g>
	<g>
		<g>
			<path fill="#B1B1B1" d="M423.593,238.252l-24.202-13.974c-2.098-1.212-5.487-1.212-7.572,0l-24.043,13.974
				c-2.086,1.211-2.074,3.174,0.024,4.386l24.201,13.974c2.098,1.211,5.487,1.211,7.572,0l24.043-13.974
				C425.701,241.426,425.69,239.463,423.593,238.252"/>
		</g>
		<rect x="366.218" y="237.411" fill="#B1B1B1" width="58.955" height="3.035"/>
		<g>
			<path fill="#ECECEC" d="M423.593,235.218l-24.202-13.974c-2.098-1.211-5.487-1.211-7.572,0l-24.043,13.974
				c-2.086,1.212-2.074,3.175,0.024,4.386l24.201,13.973c2.098,1.213,5.487,1.213,7.572,0l24.043-13.973
				C425.701,238.393,425.69,236.43,423.593,235.218"/>
		</g>
	</g>
	<g>
		<path fill="#ECECEC" d="M422.266,240.389l0.059-6.473c0.006-2.408-1.688-5.344-3.786-6.555l-24.204-13.975
			c-1.122-0.648-2.122-0.654-2.819-0.166l-0.032-0.018l-2.814,1.624l30.717,27.224L422.266,240.389z"/>
		<path fill="#B1B1B1" d="M419.385,242.051l0.058-6.482c0.007-2.408-1.688-5.345-3.786-6.555l-24.203-13.975
			c-2.097-1.211-3.801-0.238-3.809,2.17l-0.057,6.34L419.385,242.051z"/>
	</g>
	<g>
		<path fill="#ECECEC" d="M417.069,243.389l0.059-6.473c0.006-2.408-1.688-5.344-3.786-6.555l-24.204-13.975
			c-1.122-0.648-2.122-0.654-2.819-0.166l-0.032-0.018l-2.814,1.624l30.717,27.224L417.069,243.389z"/>
		<path fill="#B1B1B1" d="M414.189,245.051l0.058-6.482c0.007-2.408-1.688-5.345-3.786-6.555l-24.203-13.975
			c-2.097-1.211-3.801-0.238-3.809,2.17l-0.057,6.34L414.189,245.051z"/>
	</g>
	<g>
		<path fill="#ECECEC" d="M411.873,246.389l0.059-6.473c0.006-2.408-1.688-5.344-3.786-6.555l-24.204-13.975
			c-1.122-0.648-2.122-0.654-2.819-0.166l-0.032-0.018l-2.814,1.624l30.717,27.224L411.873,246.389z"/>
		<path fill="#B1B1B1" d="M408.993,248.051l0.058-6.482c0.007-2.408-1.688-5.345-3.786-6.555l-24.203-13.975
			c-2.097-1.211-3.801-0.238-3.809,2.17l-0.057,6.34L408.993,248.051z"/>
	</g>
	<g>
		<path fill="#ECECEC" d="M406.677,249.389l0.059-6.473c0.006-2.408-1.688-5.344-3.786-6.555l-24.204-13.975
			c-1.122-0.648-2.122-0.654-2.819-0.166l-0.032-0.018l-2.814,1.624l30.717,27.224L406.677,249.389z"/>
		<path fill="#B1B1B1" d="M403.796,251.051l0.058-6.482c0.007-2.408-1.688-5.345-3.786-6.555l-24.203-13.975
			c-2.097-1.211-3.801-0.238-3.809,2.17l-0.057,6.34L403.796,251.051z"/>
	</g>
	<g>
		<path fill="#ECECEC" d="M401.48,252.389l0.059-6.473c0.006-2.408-1.688-5.344-3.786-6.555l-24.204-13.975
			c-1.122-0.648-2.122-0.654-2.819-0.166l-0.032-0.018l-2.814,1.624l30.717,27.224L401.48,252.389z"/>
		<path fill="#B1B1B1" d="M398.6,254.051l0.058-6.482c0.007-2.408-1.688-5.345-3.786-6.555l-24.203-13.975
			c-2.097-1.211-3.801-0.238-3.809,2.17l-0.057,6.34L398.6,254.051z"/>
	</g>
</g>
<g id="dispatch-siege">
	<g>
		<g>
			<polygon fill="#B1B1B1" points="677.091,318.544 747.015,278.108 768.762,385.941 768.762,398.411 709.002,432.979 			"/>
			<polygon fill="#C6C6C5" points="677.091,318.544 666.417,315.073 699.463,428.613 709.002,432.979 709.002,420.539 			"/>
			<g>
				<polygon fill="#F5F5F5" points="747.015,278.108 736.042,274.635 666.417,315.073 677.091,318.544 				"/>
			</g>
		</g>
		<g>
			<polygon fill="#C6C6C5" points="774.926,452.115 709.002,420.541 709.002,432.965 774.926,464.541 			"/>
			<polygon fill="#B1B1B1" points="774.926,452.115 844.851,411.68 844.851,424.105 774.926,464.541 			"/>
			<g>
				<polygon fill="#F5F5F5" points="844.851,411.68 768.464,385.972 709.002,420.541 774.926,452.115 				"/>
			</g>
		</g>
	</g>
</g>
<g id="dispatch-carenage-front">
	<g>
		<polygon fill="#D9D9D9" points="1091.981,555.494 1084.897,537.955 1042.603,491.604 1021.011,504.152 1020.421,504.492 
			998.829,517.043 1041.124,563.396 1059.88,574.152 1122.702,633.012 1132.618,627.248 1133.208,626.906 1143.122,621.143 		"/>
		<polygon fill="#B1B1B1" points="998.829,517.043 998.829,525.566 1041.124,571.92 1041.124,563.396 		"/>
		<polygon fill="#9C9B9B" points="1059.88,582.676 1059.88,574.152 1041.124,563.396 1041.124,571.92 		"/>
		<polygon fill="#B1B1B1" points="1122.702,633.012 1122.702,641.535 1059.88,582.676 1059.88,574.152 		"/>
	</g>
	<g>
		<g>
			<polygon fill="#ECECEC" points="1222.856,528.57 1172.073,543.736 1161.866,589.75 1120.614,613.725 1079.368,637.695 
				1024.731,629.367 973.949,673.225 1107.091,676.965 1157.702,647.553 1208.325,618.133 			"/>
		</g>
		<polygon fill="#B1B1B1" points="1208.325,630.543 1208.325,618.133 1222.856,528.57 1222.856,553.391 		"/>
		<polygon fill="#9C9B9B" points="1107.091,689.377 1107.091,676.965 1208.325,618.133 1208.325,630.543 		"/>
		<polygon fill="#B1B1B1" points="1107.091,689.377 1107.091,676.965 973.949,673.225 973.949,698.045 		"/>
		<polygon fill="#C6C6C5" points="1107.091,676.965 1079.368,637.695 1024.731,629.367 973.949,673.225 		"/>
		<polygon fill="#D9D9D9" points="1208.325,618.133 1161.866,589.75 1079.368,637.695 1107.091,676.965 		"/>
		<polygon fill="#C6C6C5" points="1208.325,618.133 1222.856,528.57 1172.073,543.736 1161.866,589.75 		"/>
	</g>
</g>
<g id="dispatch-klaxon">
	<g>
		<polygon fill="#C6C6C5" points="777.57,699.96 800.724,686.593 800.724,713.2 777.57,726.567 		"/>
		<polygon fill="#B1B1B1" points="777.57,699.96 754.417,686.593 754.417,713.2 777.57,726.567 		"/>
		<g>
			<polygon fill="#D9D9D9" points="754.417,686.593 777.646,673.225 800.724,686.593 777.57,699.96 			"/>
		</g>
	</g>
	<g>
		<path fill="#ECECEC" d="M784.97,707.973c-0.006-2.013,1.41-4.464,3.162-5.476c0.859-0.497,1.641-0.553,2.215-0.244v-0.002
			l0.236,0.072c34.223,17.217,44.534,6.953,51.209,7.525l-0.02,6.84c0,0.086,0.006,0.17,0.006,0.256
			c0.029,10.711-7.5,23.752-16.82,29.132c-0.668,0.386-1.324,0.714-1.971,1.001l-3.928,3.068c-3.416-4.225,23.6-4.764-33.014-39.994
			l-0.166-0.152v-0.002C785.32,709.663,784.972,708.964,784.97,707.973z"/>
		<path fill="#DADADA" d="M823.109,732.549c-16.043-16.269-28.059-22.57-37.328-27.471c-0.501,0.936-0.814,1.96-0.811,2.895
			c0.002,0.991,0.35,1.69,0.91,2.024v0.002l0.166,0.152c32.108,21.352,29.598,35.77,33.014,39.994L823.109,732.549z"/>
		<path fill="#B1B1B1" d="M833.205,712.112c9.32-5.381,16.9-1.062,16.93,9.648c0.031,10.709-7.5,23.751-16.82,29.131
			c-9.318,5.381-16.898,1.062-16.93-9.646C816.355,730.534,823.885,717.492,833.205,712.112"/>
	</g>
	<path fill="#C6C6C6" d="M820.196,726.7c-2.393,4.737-3.824,9.863-3.812,14.545c0.031,10.709,7.611,15.027,16.93,9.646
		c3.452-1.993,6.656-5.04,9.323-8.627C835.095,735.86,826.414,730.338,820.196,726.7z"/>
</g>
<g id="dispatch-phare1">
	<path fill="#D9D9D9" d="M1285.431,659.254c-0.041-14.755,10.332-32.721,23.172-40.132c6.307-3.642,12.031-4.052,16.232-1.786
		l0.01-0.018l10.414,6.142l-33.008,56.616l-10.148-5.979l0.002-0.004C1287.997,671.643,1285.45,666.518,1285.431,659.254z"/>
	<g>
		<path fill="#B1B1B1" d="M1318.601,625.011c12.84-7.413,23.281-1.464,23.322,13.291c0.043,14.753-10.33,32.72-23.172,40.132
			c-12.838,7.412-23.281,1.463-23.322-13.291C1295.388,650.387,1305.761,632.422,1318.601,625.011"/>
	</g>
	<g>
		<path fill="#F6F6F6" d="M1318.614,629.491c10.686-6.17,19.375-1.219,19.41,11.062c0.033,12.277-8.598,27.23-19.285,33.4
			c-10.686,6.168-19.377,1.217-19.41-11.062C1299.294,650.611,1307.927,635.659,1318.614,629.491"/>
	</g>
	<path fill="#B1B1B1" d="M1301.308,679.461l0.604-0.348l0.002,0.75c0.08,0.049,0.156,0.102,0.236,0.148l-0.002-1.035l2.807-1.621
		l0.01,3.227l-0.688,0.396c0.1,0.033,0.199,0.066,0.303,0.098l0.385-0.223l0.002,0.336c0.076,0.021,0.154,0.037,0.232,0.057
		l-0.002-0.527l2.809-1.621l0.006,2.514c0.078,0.002,0.156,0.002,0.232,0.002l-0.008-2.648l2.809-1.621l0.01,3.221l-1.762,1.018
		c0.18-0.012,0.357-0.021,0.537-0.041l1.225-0.705l0.002,0.535c0.078-0.014,0.156-0.031,0.236-0.045l-0.002-0.627l2.803-1.619
		l0.006,1.504c0.076-0.027,0.156-0.061,0.234-0.088l-0.004-1.553l2.803-1.617l0.006,1.967c0.08-0.039,0.158-0.076,0.236-0.115
		l-0.006-1.988l2.809-1.621l0.006,1.984c0.076-0.051,0.154-0.104,0.23-0.154l-0.006-1.965l2.809-1.621l0.004,1.541
		c0.078-0.061,0.154-0.119,0.232-0.182l-0.006-1.492l2.809-1.621l0.002,0.607c0.078-0.076,0.158-0.15,0.234-0.229v-0.516
		l1.176-0.678c0.18-0.191,0.357-0.387,0.537-0.582l-1.713,0.988l-0.01-3.221l2.803-1.619l0.008,2.623
		c0.078-0.092,0.158-0.182,0.236-0.275l-0.008-2.484l2.809-1.621v0.486c0.078-0.107,0.156-0.215,0.232-0.322l-0.002-0.297
		l0.338-0.195c0.102-0.146,0.199-0.295,0.301-0.445l-0.639,0.369l-0.008-3.227l2.807-1.621l0.002,0.975
		c0.078-0.137,0.154-0.275,0.232-0.412l-0.002-0.697l0.557-0.32c0.066-0.127,0.133-0.254,0.199-0.383l-0.758,0.438l-0.01-3.227
		l2.809-1.621v0.041c0.078-0.188,0.16-0.375,0.234-0.562l-0.008-3.107l1.396-0.807c0.033-0.111,0.072-0.221,0.105-0.332
		l-1.502,0.867l-0.01-3.223l2.479-1.43c0.021-0.103,0.045-0.206,0.066-0.31l-2.545,1.47l-0.01-3.222l2.803-1.619l0.006,1.992
		c0.088-0.522,0.166-1.042,0.232-1.561l-0.002-0.567l0.072-0.042c0.012-0.096,0.02-0.191,0.029-0.288l-0.104,0.06l-0.008-3.227
		l0.295-0.172c0-0.07,0.004-0.143,0.004-0.213c0-0.019,0-0.036,0-0.055l-0.299,0.173l-0.01-3.227l0.119-0.069
		c-0.01-0.083-0.02-0.166-0.029-0.249l-0.09,0.052l-0.002-0.73c-0.068-0.439-0.15-0.868-0.24-1.287l0.006,2.154l-2.805,1.619
		l-0.008-3.228l2.584-1.491c-0.021-0.08-0.047-0.154-0.068-0.232l-2.518,1.453l-0.008-3.223l1.557-0.899
		c-0.031-0.071-0.066-0.143-0.1-0.213l-1.459,0.842l-0.008-3.227l0.018-0.011c-0.082-0.109-0.17-0.212-0.256-0.317l0.002,0.198
		l-2.809,1.621l-0.01-3.227l0.875-0.506c-0.066-0.051-0.133-0.101-0.201-0.15l-0.674,0.391l-0.002-0.854
		c-0.078-0.049-0.154-0.1-0.232-0.146l0.002,1.132l-2.809,1.621l-0.008-3.227l0.811-0.469c-0.098-0.035-0.199-0.065-0.299-0.098
		l-0.514,0.296v-0.455c-0.076-0.021-0.156-0.036-0.232-0.056l0.002,0.645l-2.809,1.621l-0.006-2.643
		c-0.078-0.002-0.158-0.002-0.236-0.003l0.008,2.782l-2.805,1.618l-0.01-3.222l2.02-1.165c-0.174,0.008-0.348,0.016-0.523,0.03
		l-1.496,0.863l-0.002-0.675c-0.078,0.014-0.156,0.03-0.236,0.045l0.002,0.767l-2.807,1.621l-0.006-1.652
		c-0.076,0.026-0.154,0.059-0.23,0.086l0.004,1.7l-2.809,1.621l-0.006-2.124c-0.076,0.039-0.154,0.074-0.23,0.113l0.006,2.145
		l-2.809,1.621l-0.006-2.148c-0.08,0.051-0.156,0.105-0.236,0.156l0.006,2.129l-2.803,1.618l-0.006-1.712
		c-0.078,0.062-0.156,0.121-0.234,0.184l0.004,1.664l-2.803,1.619l-0.002-0.789c-0.08,0.076-0.158,0.151-0.236,0.229l0.002,0.697
		l-1.555,0.896c-0.174,0.189-0.348,0.38-0.52,0.572l2.074-1.198l0.01,3.222l-2.809,1.621l-0.008-2.812
		c-0.078,0.09-0.154,0.18-0.23,0.271l0.006,2.676l-2.807,1.621l-0.002-0.691c-0.076,0.108-0.154,0.215-0.23,0.324v0.5l-0.566,0.328
		c-0.102,0.148-0.201,0.296-0.301,0.444l0.869-0.501l0.01,3.227l-2.809,1.621l-0.004-1.199c-0.08,0.139-0.156,0.279-0.234,0.42
		l0.002,0.916l-0.727,0.42c-0.066,0.127-0.133,0.254-0.199,0.381l0.928-0.535l0.008,3.226l-2.803,1.619l-0.002-0.297
		c-0.102,0.248-0.207,0.494-0.307,0.742l0.072-0.043l0.01,3.227l-1.512,0.875c-0.035,0.109-0.066,0.219-0.1,0.328l1.611-0.932
		l0.01,3.223l-2.57,1.484c-0.021,0.104-0.047,0.205-0.066,0.309l2.639-1.523l0.008,3.229l-2.809,1.621l-0.006-2.402
		c-0.086,0.488-0.162,0.975-0.229,1.459l0.004,1.076l-0.145,0.084c-0.01,0.094-0.02,0.188-0.027,0.281l0.172-0.1l0.01,3.227
		l-0.354,0.205c0,0.016,0,0.033,0,0.051c0,0.072,0.004,0.141,0.006,0.213l0.348-0.201l0.01,3.227l-0.154,0.088
		c0.01,0.086,0.02,0.17,0.029,0.254l0.125-0.072l0.004,0.906c0.068,0.408,0.146,0.805,0.234,1.193l-0.006-2.232l2.809-1.621
		l0.008,3.221l-2.598,1.5c0.021,0.08,0.047,0.154,0.068,0.232l2.531-1.461l0.008,3.223l-1.555,0.896
		c0.035,0.072,0.072,0.139,0.107,0.211l1.449-0.838l0.008,3.203c0.076,0.1,0.158,0.191,0.238,0.287v-0.133l2.803-1.619l0.01,3.227
		l-0.803,0.465C1301.175,679.359,1301.241,679.412,1301.308,679.461z M1341.397,642.049l-2.805,1.618l-0.008-3.227l2.803-1.619
		L1341.397,642.049z M1341.378,635.329l0.01,3.227l-2.805,1.619l-0.008-3.227L1341.378,635.329z M1338.388,654.287l-2.809,1.621
		l-0.01-3.227l2.809-1.621L1338.388,654.287z M1338.378,650.789l-2.809,1.621l-0.01-3.223l2.809-1.621L1338.378,650.789z
		 M1338.368,647.295l-2.809,1.623l-0.008-3.222l2.807-1.621L1338.368,647.295z M1338.358,643.804l-2.809,1.621l-0.008-3.227
		l2.807-1.621L1338.358,643.804z M1335.54,641.933l-0.01-3.227l2.809-1.622l0.01,3.227L1335.54,641.933z M1338.339,636.818
		l-2.809,1.621l-0.01-3.227l2.809-1.622L1338.339,636.818z M1338.327,633.32l-2.807,1.622l-0.01-3.223l2.809-1.621L1338.327,633.32z
		 M1338.31,626.601l0.01,3.227l-2.809,1.622l-0.01-3.228L1338.31,626.601z M1335.358,659.535l-2.809,1.621l-0.01-3.227l2.809-1.623
		L1335.358,659.535z M1335.349,656.041l-2.809,1.621l-0.01-3.227l2.809-1.621L1335.349,656.041z M1335.337,652.543l-2.807,1.623
		l-0.01-3.223l2.809-1.621L1335.337,652.543z M1335.327,649.051l-2.807,1.621l-0.01-3.221l2.809-1.622L1335.327,649.051z
		 M1335.319,645.559l-2.809,1.621l-0.01-3.227l2.809-1.621L1335.319,645.559z M1335.308,642.065l-2.807,1.622l-0.01-3.227
		l2.809-1.622L1335.308,642.065z M1335.298,638.573l-2.807,1.621l-0.01-3.227l2.809-1.621L1335.298,638.573z M1335.288,635.075
		l-2.807,1.621l-0.01-3.221l2.809-1.622L1335.288,635.075z M1335.278,631.583l-2.807,1.621l-0.01-3.227l2.807-1.622
		L1335.278,631.583z M1335.261,624.862l0.008,3.228l-2.809,1.621l-0.008-3.227L1335.261,624.862z M1332.327,664.781l-2.807,1.621
		l-0.01-3.227l2.809-1.621L1332.327,664.781z M1329.511,662.91l-0.01-3.227l2.809-1.621l0.01,3.227L1329.511,662.91z
		 M1332.31,657.797l-2.809,1.621l-0.01-3.227l2.809-1.621L1332.31,657.797z M1332.298,654.299l-2.807,1.621l-0.01-3.223l2.809-1.621
		L1332.298,654.299z M1332.288,650.807l-2.807,1.621l-0.01-3.223l2.809-1.621L1332.288,650.807z M1332.278,647.312l-2.807,1.621
		l-0.01-3.226l2.809-1.621L1332.278,647.312z M1332.269,643.821l-2.807,1.621l-0.01-3.227l2.809-1.621L1332.269,643.821z
		 M1332.259,640.328l-2.809,1.622l-0.008-3.228l2.809-1.621L1332.259,640.328z M1332.249,636.831l-2.809,1.621l-0.008-3.223
		l2.809-1.621L1332.249,636.831z M1332.239,633.337l-2.807,1.622l-0.01-3.227l2.807-1.622L1332.239,633.337z M1332.229,629.845
		l-2.809,1.621l-0.008-3.227l2.807-1.621L1332.229,629.845z M1332.21,623.125l0.01,3.227l-2.809,1.622l-0.008-3.228L1332.21,623.125
		z M1329.284,666.539l-2.803,1.619l-0.01-3.227l2.803-1.619L1329.284,666.539z M1329.274,663.047l-2.803,1.619l-0.01-3.227
		l2.803-1.619L1329.274,663.047z M1326.46,661.174l-0.008-3.229l2.803-1.617l0.01,3.227L1326.46,661.174z M1329.255,656.057
		l-2.805,1.619l-0.008-3.223l2.803-1.619L1329.255,656.057z M1329.245,652.562l-2.805,1.619l-0.008-3.221l2.803-1.619
		L1329.245,652.562z M1326.431,650.689l-0.008-3.227l2.803-1.618l0.01,3.226L1326.431,650.689z M1329.226,645.578l-2.805,1.619
		l-0.008-3.227l2.803-1.619L1329.226,645.578z M1329.216,642.086l-2.805,1.618l-0.008-3.227l2.803-1.619L1329.216,642.086z
		 M1329.206,638.588l-2.805,1.619l-0.01-3.222l2.805-1.619L1329.206,638.588z M1329.196,635.095l-2.805,1.619l-0.01-3.227
		l2.805-1.619L1329.196,635.095z M1329.187,631.603l-2.805,1.618l-0.008-3.227l2.803-1.618L1329.187,631.603z M1329.167,624.883
		l0.01,3.227l-2.805,1.619l-0.01-3.228L1329.167,624.883z M1326.255,671.787l-2.809,1.621l-0.01-3.221l2.809-1.621L1326.255,671.787
		z M1326.245,668.295l-2.809,1.621l-0.008-3.227l2.807-1.621L1326.245,668.295z M1326.235,664.801l-2.809,1.623l-0.01-3.229
		l2.809-1.621L1326.235,664.801z M1326.226,661.309l-2.809,1.621l-0.01-3.227l2.809-1.621L1326.226,661.309z M1326.216,657.811
		l-2.809,1.621l-0.01-3.221l2.809-1.621L1326.216,657.811z M1326.206,654.318l-2.809,1.621l-0.01-3.223l2.809-1.621
		L1326.206,654.318z M1326.196,650.824l-2.809,1.623l-0.01-3.227l2.809-1.623L1326.196,650.824z M1326.187,647.332l-2.809,1.621
		l-0.01-3.226l2.809-1.621L1326.187,647.332z M1326.177,643.841l-2.809,1.621l-0.01-3.227l2.809-1.622L1326.177,643.841z
		 M1326.165,640.343l-2.807,1.621l-0.01-3.222l2.809-1.621L1326.165,640.343z M1326.155,636.85l-2.807,1.622l-0.01-3.228
		l2.809-1.621L1326.155,636.85z M1326.146,633.356l-2.807,1.622l-0.01-3.228l2.809-1.621L1326.146,633.356z M1326.136,629.864
		l-2.807,1.621l-0.01-3.227l2.809-1.621L1326.136,629.864z M1326.118,623.145l0.008,3.222l-2.809,1.621l-0.008-3.222
		L1326.118,623.145z M1323.216,673.543l-2.809,1.621l-0.01-3.223l2.809-1.621L1323.216,673.543z M1323.204,670.049l-2.807,1.621
		l-0.01-3.227l2.809-1.621L1323.204,670.049z M1323.194,666.557l-2.807,1.621l-0.01-3.227l2.809-1.621L1323.194,666.557z
		 M1323.187,663.064l-2.809,1.621l-0.01-3.227l2.809-1.621L1323.187,663.064z M1323.175,659.566l-2.807,1.621l-0.01-3.223
		l2.809-1.621L1323.175,659.566z M1323.165,656.074l-2.807,1.621l-0.01-3.223l2.809-1.621L1323.165,656.074z M1323.155,652.58
		l-2.807,1.621l-0.01-3.227l2.809-1.621L1323.155,652.58z M1320.339,650.709l-0.01-3.227l2.807-1.62l0.01,3.226L1320.339,650.709z
		 M1323.136,645.596l-2.809,1.621l-0.008-3.227l2.809-1.621L1323.136,645.596z M1323.126,642.099l-2.809,1.621l-0.008-3.223
		l2.809-1.621L1323.126,642.099z M1320.31,640.226l-0.01-3.227l2.807-1.621l0.01,3.228L1320.31,640.226z M1323.106,635.112
		l-2.807,1.621l-0.01-3.227l2.807-1.621L1323.106,635.112z M1323.097,631.62l-2.807,1.621l-0.01-3.228l2.807-1.621L1323.097,631.62z
		 M1323.077,624.899l0.01,3.223l-2.809,1.621l-0.008-3.223L1323.077,624.899z M1320.177,675.297l-2.809,1.621l-0.01-3.221
		l2.809-1.621L1320.177,675.297z M1320.165,671.805l-2.807,1.621l-0.01-3.227l2.809-1.621L1320.165,671.805z M1317.349,669.934
		l-0.01-3.227l2.807-1.623l0.01,3.229L1317.349,669.934z M1320.146,664.818l-2.807,1.621l-0.01-3.227l2.807-1.621L1320.146,664.818z
		 M1320.136,661.32l-2.807,1.623l-0.01-3.223l2.809-1.621L1320.136,661.32z M1320.126,657.828l-2.809,1.621l-0.008-3.221
		l2.809-1.623L1320.126,657.828z M1320.116,654.336l-2.809,1.621l-0.008-3.227l2.809-1.621L1320.116,654.336z M1320.106,650.842
		l-2.807,1.623l-0.01-3.229l2.807-1.621L1320.106,650.842z M1320.097,647.35l-2.809,1.621l-0.008-3.226l2.807-1.621L1320.097,647.35
		z M1320.087,643.853l-2.809,1.621l-0.008-3.222l2.807-1.621L1320.087,643.853z M1320.077,640.36l-2.809,1.621l-0.008-3.227
		l2.807-1.622L1320.077,640.36z M1320.067,636.867l-2.809,1.621l-0.01-3.227l2.809-1.622L1320.067,636.867z M1320.058,633.374
		l-2.809,1.621l-0.008-3.227l2.807-1.621L1320.058,633.374z M1320.038,626.654l0.01,3.222l-2.809,1.622l-0.008-3.222
		L1320.038,626.654z M1317.132,677.055l-2.805,1.619l-0.008-3.223l2.803-1.617L1317.132,677.055z M1317.122,673.562l-2.805,1.617
		l-0.008-3.227l2.803-1.617L1317.122,673.562z M1317.112,670.068l-2.805,1.619l-0.008-3.227l2.803-1.619L1317.112,670.068z
		 M1314.298,668.195l-0.008-3.227l2.803-1.619l0.01,3.227L1314.298,668.195z M1317.093,663.078l-2.805,1.619l-0.008-3.223
		l2.803-1.617L1317.093,663.078z M1317.083,659.586l-2.805,1.619l-0.008-3.223l2.803-1.619L1317.083,659.586z M1314.269,657.711
		l-0.01-3.227l2.805-1.619l0.01,3.229L1314.269,657.711z M1317.063,652.6l-2.805,1.619l-0.01-3.227l2.805-1.619L1317.063,652.6z
		 M1317.054,649.107l-2.805,1.619l-0.008-3.227l2.803-1.619L1317.054,649.107z M1317.044,645.61l-2.805,1.618l-0.01-3.222
		l2.805-1.618L1317.044,645.61z M1317.034,642.117l-2.805,1.619l-0.01-3.227l2.805-1.619L1317.034,642.117z M1317.022,638.624
		l-2.803,1.619l-0.01-3.227l2.805-1.619L1317.022,638.624z M1317.013,635.132l-2.803,1.619l-0.01-3.228l2.805-1.618
		L1317.013,635.132z M1316.995,628.412l0.01,3.222l-2.805,1.619l-0.01-3.222L1316.995,628.412z M1314.093,678.811l-2.805,1.617
		l-0.008-3.221l2.803-1.619L1314.093,678.811z M1314.083,675.316l-2.805,1.619l-0.008-3.227l2.803-1.619L1314.083,675.316z
		 M1314.073,671.824l-2.805,1.619l-0.008-3.227l2.803-1.619L1314.073,671.824z M1314.063,668.332l-2.805,1.619l-0.01-3.229
		l2.805-1.619L1314.063,668.332z M1314.054,664.834l-2.805,1.619l-0.008-3.223l2.803-1.619L1314.054,664.834z M1314.044,661.34
		l-2.805,1.619l-0.008-3.221l2.803-1.619L1314.044,661.34z M1314.032,657.848l-2.803,1.619l-0.01-3.227l2.805-1.619
		L1314.032,657.848z M1314.022,654.355l-2.803,1.619l-0.01-3.227l2.805-1.619L1314.022,654.355z M1314.013,650.863l-2.803,1.617
		l-0.01-3.227l2.805-1.619L1314.013,650.863z M1314.003,647.365l-2.803,1.619l-0.01-3.222l2.805-1.619L1314.003,647.365z
		 M1313.993,643.872l-2.803,1.619l-0.01-3.227l2.805-1.619L1313.993,643.872z M1313.983,640.38l-2.803,1.618l-0.01-3.227
		l2.805-1.618L1313.983,640.38z M1313.974,636.887l-2.803,1.619l-0.01-3.228l2.803-1.618L1313.974,636.887z M1313.954,630.167
		l0.01,3.222l-2.803,1.619l-0.01-3.222L1313.954,630.167z M1311.044,677.072l-2.809,1.621l-0.01-3.227l2.809-1.621L1311.044,677.072
		z M1311.034,673.58l-2.809,1.621l-0.01-3.229l2.809-1.621L1311.034,673.58z M1311.022,670.086l-2.807,1.621l-0.01-3.227
		l2.809-1.621L1311.022,670.086z M1311.013,666.588l-2.807,1.621l-0.01-3.221l2.809-1.621L1311.013,666.588z M1311.005,663.096
		l-2.809,1.621l-0.01-3.223l2.809-1.621L1311.005,663.096z M1310.993,659.604l-2.807,1.621l-0.01-3.227l2.809-1.621
		L1310.993,659.604z M1310.983,656.109l-2.807,1.621l-0.01-3.227l2.809-1.621L1310.983,656.109z M1310.974,652.617l-2.807,1.621
		l-0.01-3.227l2.809-1.621L1310.974,652.617z M1310.964,649.119l-2.807,1.621l-0.01-3.221l2.807-1.621L1310.964,649.119z
		 M1310.954,645.628l-2.809,1.62l-0.008-3.227l2.809-1.621L1310.954,645.628z M1310.944,642.135l-2.809,1.621l-0.008-3.228
		l2.809-1.621L1310.944,642.135z M1310.925,635.415l0.01,3.227l-2.809,1.621l-0.008-3.227L1310.925,635.415z M1308.003,678.826
		l-2.807,1.621l-0.01-3.227l2.809-1.621L1308.003,678.826z M1307.993,675.334l-2.809,1.621l-0.008-3.227l2.809-1.621
		L1307.993,675.334z M1307.983,671.842l-2.807,1.621l-0.01-3.227l2.809-1.621L1307.983,671.842z M1307.974,668.344l-2.807,1.621
		l-0.01-3.223l2.807-1.621L1307.974,668.344z M1307.964,664.852l-2.809,1.621l-0.008-3.223l2.807-1.621L1307.964,664.852z
		 M1307.954,661.357l-2.809,1.621l-0.008-3.227l2.807-1.621L1307.954,661.357z M1307.944,657.865l-2.809,1.621l-0.008-3.227
		l2.807-1.621L1307.944,657.865z M1307.935,654.373l-2.809,1.621l-0.01-3.227l2.809-1.621L1307.935,654.373z M1307.925,650.875
		l-2.809,1.621l-0.008-3.223l2.807-1.621L1307.925,650.875z M1307.915,647.381l-2.809,1.621l-0.008-3.226l2.807-1.621
		L1307.915,647.381z M1307.905,643.89l-2.809,1.621l-0.01-3.227l2.809-1.621L1307.905,643.89z M1307.886,637.17l0.01,3.227
		l-2.809,1.621l-0.01-3.227L1307.886,637.17z M1302.146,678.711l-0.008-3.227l2.807-1.623l0.01,3.227L1302.146,678.711z
		 M1304.944,673.596l-2.809,1.621l-0.01-3.227l2.809-1.621L1304.944,673.596z M1304.935,670.098l-2.809,1.623l-0.01-3.223
		l2.809-1.621L1304.935,670.098z M1304.925,666.605l-2.809,1.621l-0.008-3.221l2.807-1.623L1304.925,666.605z M1304.915,663.113
		l-2.809,1.621l-0.01-3.227l2.809-1.621L1304.915,663.113z M1304.905,659.619l-2.809,1.623l-0.01-3.229l2.809-1.621
		L1304.905,659.619z M1304.896,656.127l-2.809,1.621l-0.01-3.227l2.809-1.621L1304.896,656.127z M1304.886,652.629l-2.809,1.621
		l-0.01-3.221l2.809-1.621L1304.886,652.629z M1304.876,649.137l-2.809,1.621l-0.01-3.227l2.809-1.621L1304.876,649.137z
		 M1304.856,642.417l0.01,3.227l-2.809,1.622l-0.01-3.227L1304.856,642.417z M1296.005,661.527l2.809-1.621l0.008,3.227
		l-2.809,1.621L1296.005,661.527z M1296.024,668.246l-0.01-3.227l2.807-1.621l0.01,3.227L1296.024,668.246z M1299.019,649.287
		l2.805-1.619l0.008,3.227l-2.803,1.619L1299.019,649.287z M1299.028,652.783l2.805-1.617l0.008,3.221l-2.803,1.619
		L1299.028,652.783z M1299.038,656.277l2.805-1.619l0.008,3.227l-2.803,1.619L1299.038,656.277z M1299.048,659.77l2.805-1.619
		l0.01,3.227l-2.805,1.619L1299.048,659.77z M1299.058,663.262l2.805-1.619l0.01,3.227l-2.805,1.619L1299.058,663.262z
		 M1299.067,666.76l2.805-1.619l0.008,3.223l-2.803,1.619L1299.067,666.76z M1299.077,670.252l2.805-1.617l0.01,3.221l-2.805,1.619
		L1299.077,670.252z M1299.097,676.973l-0.01-3.227l2.805-1.619l0.01,3.227L1299.097,676.973z"/>
</g>
<g id="dispatch-phare2">
	<path fill="#D9D9D9" d="M1138.211,746.445c-0.041-14.755,10.332-32.721,23.172-40.132c6.307-3.642,12.031-4.052,16.232-1.786
		l0.01-0.018l10.414,6.142l-33.008,56.616l-10.148-5.979l0.002-0.004C1140.777,758.834,1138.23,753.709,1138.211,746.445z"/>
	<g>
		<path fill="#B1B1B1" d="M1171.381,712.202c12.84-7.413,23.281-1.464,23.322,13.291c0.043,14.753-10.33,32.72-23.172,40.132
			c-12.838,7.412-23.281,1.463-23.322-13.291C1148.168,737.578,1158.541,719.613,1171.381,712.202"/>
	</g>
	<g>
		<path fill="#F6F6F6" d="M1171.395,716.683c10.686-6.17,19.375-1.219,19.41,11.062c0.033,12.277-8.598,27.23-19.285,33.4
			c-10.686,6.168-19.377,1.217-19.41-11.062C1152.074,737.803,1160.707,722.851,1171.395,716.683"/>
	</g>
	<path fill="#B1B1B1" d="M1154.088,766.652l0.604-0.348l0.002,0.75c0.08,0.049,0.156,0.102,0.236,0.148l-0.002-1.035l2.807-1.621
		l0.01,3.227l-0.688,0.396c0.1,0.033,0.199,0.066,0.303,0.098l0.385-0.223l0.002,0.336c0.076,0.021,0.154,0.037,0.232,0.057
		l-0.002-0.527l2.809-1.621l0.006,2.514c0.078,0.002,0.156,0.002,0.232,0.002l-0.008-2.648l2.809-1.621l0.01,3.221l-1.762,1.018
		c0.18-0.012,0.357-0.021,0.537-0.041l1.225-0.705l0.002,0.535c0.078-0.014,0.156-0.031,0.236-0.045l-0.002-0.627l2.803-1.619
		l0.006,1.504c0.076-0.027,0.156-0.061,0.234-0.088l-0.004-1.553l2.803-1.617l0.006,1.967c0.08-0.039,0.158-0.076,0.236-0.115
		l-0.006-1.988l2.809-1.621l0.006,1.984c0.076-0.051,0.154-0.104,0.23-0.154l-0.006-1.965l2.809-1.621l0.004,1.541
		c0.078-0.061,0.154-0.119,0.232-0.182l-0.006-1.492l2.809-1.621l0.002,0.607c0.078-0.076,0.158-0.15,0.234-0.229v-0.516
		l1.176-0.678c0.18-0.191,0.357-0.387,0.537-0.582l-1.713,0.988l-0.01-3.221l2.803-1.619l0.008,2.623
		c0.078-0.092,0.158-0.182,0.236-0.275l-0.008-2.484l2.809-1.621v0.486c0.078-0.107,0.156-0.215,0.232-0.322l-0.002-0.297
		l0.338-0.195c0.102-0.146,0.199-0.295,0.301-0.445l-0.639,0.369l-0.008-3.227l2.807-1.621l0.002,0.975
		c0.078-0.137,0.154-0.275,0.232-0.412l-0.002-0.697l0.557-0.32c0.066-0.127,0.133-0.254,0.199-0.383l-0.758,0.438l-0.01-3.227
		l2.809-1.621v0.041c0.078-0.188,0.16-0.375,0.234-0.562l-0.008-3.107l1.396-0.807c0.033-0.111,0.072-0.221,0.105-0.332
		l-1.502,0.867l-0.01-3.223l2.479-1.43c0.021-0.103,0.045-0.206,0.066-0.31l-2.545,1.47l-0.01-3.222l2.803-1.619l0.006,1.992
		c0.088-0.522,0.166-1.042,0.232-1.561l-0.002-0.567l0.072-0.042c0.012-0.096,0.02-0.191,0.029-0.288l-0.104,0.06l-0.008-3.227
		l0.295-0.172c0-0.07,0.004-0.143,0.004-0.213c0-0.019,0-0.036,0-0.055l-0.299,0.173l-0.01-3.227l0.119-0.069
		c-0.01-0.083-0.02-0.166-0.029-0.249l-0.09,0.052l-0.002-0.73c-0.068-0.439-0.15-0.868-0.24-1.287l0.006,2.154l-2.805,1.619
		l-0.008-3.228l2.584-1.491c-0.021-0.08-0.047-0.154-0.068-0.232l-2.518,1.453l-0.008-3.223l1.557-0.899
		c-0.031-0.071-0.066-0.143-0.1-0.213l-1.459,0.842l-0.008-3.227l0.018-0.011c-0.082-0.109-0.17-0.212-0.256-0.317l0.002,0.198
		l-2.809,1.621l-0.01-3.227l0.875-0.506c-0.066-0.051-0.133-0.101-0.201-0.15l-0.674,0.391l-0.002-0.854
		c-0.078-0.049-0.154-0.1-0.232-0.146l0.002,1.132l-2.809,1.621l-0.008-3.227l0.811-0.469c-0.098-0.035-0.199-0.065-0.299-0.098
		l-0.514,0.296v-0.455c-0.076-0.021-0.156-0.036-0.232-0.056l0.002,0.645l-2.809,1.621l-0.006-2.643
		c-0.078-0.002-0.158-0.002-0.236-0.003l0.008,2.782l-2.805,1.618l-0.01-3.222l2.02-1.165c-0.174,0.008-0.348,0.016-0.523,0.03
		l-1.496,0.863l-0.002-0.675c-0.078,0.014-0.156,0.03-0.236,0.045l0.002,0.767l-2.807,1.621l-0.006-1.652
		c-0.076,0.026-0.154,0.059-0.23,0.086l0.004,1.7l-2.809,1.621l-0.006-2.124c-0.076,0.039-0.154,0.074-0.23,0.113l0.006,2.145
		l-2.809,1.621l-0.006-2.148c-0.08,0.051-0.156,0.105-0.236,0.156l0.006,2.129l-2.803,1.618l-0.006-1.712
		c-0.078,0.062-0.156,0.121-0.234,0.184l0.004,1.664l-2.803,1.619l-0.002-0.789c-0.08,0.076-0.158,0.151-0.236,0.229l0.002,0.697
		l-1.555,0.896c-0.174,0.189-0.348,0.38-0.52,0.572l2.074-1.198l0.01,3.222l-2.809,1.621l-0.008-2.812
		c-0.078,0.09-0.154,0.18-0.23,0.271l0.006,2.676l-2.807,1.621l-0.002-0.691c-0.076,0.108-0.154,0.215-0.23,0.324v0.5l-0.566,0.328
		c-0.102,0.148-0.201,0.296-0.301,0.444l0.869-0.501l0.01,3.227l-2.809,1.621l-0.004-1.199c-0.08,0.139-0.156,0.279-0.234,0.42
		l0.002,0.916l-0.727,0.42c-0.066,0.127-0.133,0.254-0.199,0.381l0.928-0.535l0.008,3.226l-2.803,1.619l-0.002-0.297
		c-0.102,0.248-0.207,0.494-0.307,0.742l0.072-0.043l0.01,3.227l-1.512,0.875c-0.035,0.109-0.066,0.219-0.1,0.328l1.611-0.932
		l0.01,3.223l-2.57,1.484c-0.021,0.104-0.047,0.205-0.066,0.309l2.639-1.523l0.008,3.229l-2.809,1.621l-0.006-2.402
		c-0.086,0.488-0.162,0.975-0.229,1.459l0.004,1.076l-0.145,0.084c-0.01,0.094-0.02,0.188-0.027,0.281l0.172-0.1l0.01,3.227
		l-0.354,0.205c0,0.016,0,0.033,0,0.051c0,0.072,0.004,0.141,0.006,0.213l0.348-0.201l0.01,3.227l-0.154,0.088
		c0.01,0.086,0.02,0.17,0.029,0.254l0.125-0.072l0.004,0.906c0.068,0.408,0.146,0.805,0.234,1.193l-0.006-2.232l2.809-1.621
		l0.008,3.221l-2.598,1.5c0.021,0.08,0.047,0.154,0.068,0.232l2.531-1.461l0.008,3.223l-1.555,0.896
		c0.035,0.072,0.072,0.139,0.107,0.211l1.449-0.838l0.008,3.203c0.076,0.1,0.158,0.191,0.238,0.287v-0.133l2.803-1.619l0.01,3.227
		l-0.803,0.465C1153.955,766.551,1154.021,766.604,1154.088,766.652z M1194.178,729.24l-2.805,1.618l-0.008-3.227l2.803-1.619
		L1194.178,729.24z M1194.158,722.521l0.01,3.227l-2.805,1.619l-0.008-3.227L1194.158,722.521z M1191.168,741.479l-2.809,1.621
		l-0.01-3.227l2.809-1.621L1191.168,741.479z M1191.158,737.98l-2.809,1.621l-0.01-3.223l2.809-1.621L1191.158,737.98z
		 M1191.148,734.486l-2.809,1.623l-0.008-3.222l2.807-1.621L1191.148,734.486z M1191.139,730.995l-2.809,1.621l-0.008-3.227
		l2.807-1.621L1191.139,730.995z M1188.32,729.124l-0.01-3.227l2.809-1.622l0.01,3.227L1188.32,729.124z M1191.119,724.01
		l-2.809,1.621l-0.01-3.227l2.809-1.622L1191.119,724.01z M1191.107,720.512l-2.807,1.622l-0.01-3.223l2.809-1.621L1191.107,720.512
		z M1191.09,713.792l0.01,3.227l-2.809,1.622l-0.01-3.228L1191.09,713.792z M1188.139,746.727l-2.809,1.621l-0.01-3.227l2.809-1.623
		L1188.139,746.727z M1188.129,743.232l-2.809,1.621l-0.01-3.227l2.809-1.621L1188.129,743.232z M1188.117,739.734l-2.807,1.623
		l-0.01-3.223l2.809-1.621L1188.117,739.734z M1188.107,736.242l-2.807,1.621l-0.01-3.221l2.809-1.622L1188.107,736.242z
		 M1188.1,732.75l-2.809,1.621l-0.01-3.227l2.809-1.621L1188.1,732.75z M1188.088,729.257l-2.807,1.622l-0.01-3.227l2.809-1.622
		L1188.088,729.257z M1188.078,725.765l-2.807,1.621l-0.01-3.227l2.809-1.621L1188.078,725.765z M1188.068,722.267l-2.807,1.621
		l-0.01-3.221l2.809-1.622L1188.068,722.267z M1188.059,718.774l-2.807,1.621l-0.01-3.227l2.807-1.622L1188.059,718.774z
		 M1188.041,712.054l0.008,3.228l-2.809,1.621l-0.008-3.227L1188.041,712.054z M1185.107,751.973l-2.807,1.621l-0.01-3.227
		l2.809-1.621L1185.107,751.973z M1182.291,750.102l-0.01-3.227l2.809-1.621l0.01,3.227L1182.291,750.102z M1185.09,744.988
		l-2.809,1.621l-0.01-3.227l2.809-1.621L1185.09,744.988z M1185.078,741.49l-2.807,1.621l-0.01-3.223l2.809-1.621L1185.078,741.49z
		 M1185.068,737.998l-2.807,1.621l-0.01-3.223l2.809-1.621L1185.068,737.998z M1185.059,734.504l-2.807,1.621l-0.01-3.226
		l2.809-1.621L1185.059,734.504z M1185.049,731.013l-2.807,1.621l-0.01-3.227l2.809-1.621L1185.049,731.013z M1185.039,727.52
		l-2.809,1.622l-0.008-3.228l2.809-1.621L1185.039,727.52z M1185.029,724.022l-2.809,1.621l-0.008-3.223l2.809-1.621
		L1185.029,724.022z M1185.02,720.528l-2.807,1.622l-0.01-3.227l2.807-1.622L1185.02,720.528z M1185.01,717.036l-2.809,1.621
		l-0.008-3.227l2.807-1.621L1185.01,717.036z M1184.99,710.316l0.01,3.227l-2.809,1.622l-0.008-3.228L1184.99,710.316z
		 M1182.064,753.73l-2.803,1.619l-0.01-3.227l2.803-1.619L1182.064,753.73z M1182.055,750.238l-2.803,1.619l-0.01-3.227l2.803-1.619
		L1182.055,750.238z M1179.24,748.365l-0.008-3.229l2.803-1.617l0.01,3.227L1179.24,748.365z M1182.035,743.248l-2.805,1.619
		l-0.008-3.223l2.803-1.619L1182.035,743.248z M1182.025,739.754l-2.805,1.619l-0.008-3.221l2.803-1.619L1182.025,739.754z
		 M1179.211,737.881l-0.008-3.227l2.803-1.618l0.01,3.226L1179.211,737.881z M1182.006,732.77l-2.805,1.619l-0.008-3.227
		l2.803-1.619L1182.006,732.77z M1181.996,729.277l-2.805,1.618l-0.008-3.227l2.803-1.619L1181.996,729.277z M1181.986,725.779
		l-2.805,1.619l-0.01-3.222l2.805-1.619L1181.986,725.779z M1181.977,722.286l-2.805,1.619l-0.01-3.227l2.805-1.619
		L1181.977,722.286z M1181.967,718.794l-2.805,1.618l-0.008-3.227l2.803-1.618L1181.967,718.794z M1181.947,712.074l0.01,3.227
		l-2.805,1.619l-0.01-3.228L1181.947,712.074z M1179.035,758.979l-2.809,1.621l-0.01-3.221l2.809-1.621L1179.035,758.979z
		 M1179.025,755.486l-2.809,1.621l-0.008-3.227l2.807-1.621L1179.025,755.486z M1179.016,751.992l-2.809,1.623l-0.01-3.229
		l2.809-1.621L1179.016,751.992z M1179.006,748.5l-2.809,1.621l-0.01-3.227l2.809-1.621L1179.006,748.5z M1178.996,745.002
		l-2.809,1.621l-0.01-3.221l2.809-1.621L1178.996,745.002z M1178.986,741.51l-2.809,1.621l-0.01-3.223l2.809-1.621L1178.986,741.51z
		 M1178.977,738.016l-2.809,1.623l-0.01-3.227l2.809-1.623L1178.977,738.016z M1178.967,734.523l-2.809,1.621l-0.01-3.226
		l2.809-1.621L1178.967,734.523z M1178.957,731.032l-2.809,1.621l-0.01-3.227l2.809-1.622L1178.957,731.032z M1178.945,727.534
		l-2.807,1.621l-0.01-3.222l2.809-1.621L1178.945,727.534z M1178.936,724.041l-2.807,1.622l-0.01-3.228l2.809-1.621
		L1178.936,724.041z M1178.926,720.548l-2.807,1.622l-0.01-3.228l2.809-1.621L1178.926,720.548z M1178.916,717.056l-2.807,1.621
		l-0.01-3.227l2.809-1.621L1178.916,717.056z M1178.898,710.336l0.008,3.222l-2.809,1.621l-0.008-3.222L1178.898,710.336z
		 M1175.996,760.734l-2.809,1.621l-0.01-3.223l2.809-1.621L1175.996,760.734z M1175.984,757.24l-2.807,1.621l-0.01-3.227
		l2.809-1.621L1175.984,757.24z M1175.975,753.748l-2.807,1.621l-0.01-3.227l2.809-1.621L1175.975,753.748z M1175.967,750.256
		l-2.809,1.621l-0.01-3.227l2.809-1.621L1175.967,750.256z M1175.955,746.758l-2.807,1.621l-0.01-3.223l2.809-1.621
		L1175.955,746.758z M1175.945,743.266l-2.807,1.621l-0.01-3.223l2.809-1.621L1175.945,743.266z M1175.936,739.771l-2.807,1.621
		l-0.01-3.227l2.809-1.621L1175.936,739.771z M1173.119,737.9l-0.01-3.227l2.807-1.62l0.01,3.226L1173.119,737.9z M1175.916,732.787
		l-2.809,1.621l-0.008-3.227l2.809-1.621L1175.916,732.787z M1175.906,729.29l-2.809,1.621l-0.008-3.223l2.809-1.621
		L1175.906,729.29z M1173.09,727.417l-0.01-3.227l2.807-1.621l0.01,3.228L1173.09,727.417z M1175.887,722.304l-2.807,1.621
		l-0.01-3.227l2.807-1.621L1175.887,722.304z M1175.877,718.812l-2.807,1.621l-0.01-3.228l2.807-1.621L1175.877,718.812z
		 M1175.857,712.091l0.01,3.223l-2.809,1.621l-0.008-3.223L1175.857,712.091z M1172.957,762.488l-2.809,1.621l-0.01-3.221
		l2.809-1.621L1172.957,762.488z M1172.945,758.996l-2.807,1.621l-0.01-3.227l2.809-1.621L1172.945,758.996z M1170.129,757.125
		l-0.01-3.227l2.807-1.623l0.01,3.229L1170.129,757.125z M1172.926,752.01l-2.807,1.621l-0.01-3.227l2.807-1.621L1172.926,752.01z
		 M1172.916,748.512l-2.807,1.623l-0.01-3.223l2.809-1.621L1172.916,748.512z M1172.906,745.02l-2.809,1.621l-0.008-3.221
		l2.809-1.623L1172.906,745.02z M1172.896,741.527l-2.809,1.621l-0.008-3.227l2.809-1.621L1172.896,741.527z M1172.887,738.033
		l-2.807,1.623l-0.01-3.229l2.807-1.621L1172.887,738.033z M1172.877,734.541l-2.809,1.621l-0.008-3.226l2.807-1.621
		L1172.877,734.541z M1172.867,731.044l-2.809,1.621l-0.008-3.222l2.807-1.621L1172.867,731.044z M1172.857,727.552l-2.809,1.621
		l-0.008-3.227l2.807-1.622L1172.857,727.552z M1172.848,724.059l-2.809,1.621l-0.01-3.227l2.809-1.622L1172.848,724.059z
		 M1172.838,720.565l-2.809,1.621l-0.008-3.227l2.807-1.621L1172.838,720.565z M1172.818,713.846l0.01,3.222l-2.809,1.622
		l-0.008-3.222L1172.818,713.846z M1169.912,764.246l-2.805,1.619l-0.008-3.223l2.803-1.617L1169.912,764.246z M1169.902,760.754
		l-2.805,1.617l-0.008-3.227l2.803-1.617L1169.902,760.754z M1169.893,757.26l-2.805,1.619l-0.008-3.227l2.803-1.619
		L1169.893,757.26z M1167.078,755.387l-0.008-3.227l2.803-1.619l0.01,3.227L1167.078,755.387z M1169.873,750.27l-2.805,1.619
		l-0.008-3.223l2.803-1.617L1169.873,750.27z M1169.863,746.777l-2.805,1.619l-0.008-3.223l2.803-1.619L1169.863,746.777z
		 M1167.049,744.902l-0.01-3.227l2.805-1.619l0.01,3.229L1167.049,744.902z M1169.844,739.791l-2.805,1.619l-0.01-3.227l2.805-1.619
		L1169.844,739.791z M1169.834,736.299l-2.805,1.619l-0.008-3.227l2.803-1.619L1169.834,736.299z M1169.824,732.802l-2.805,1.618
		l-0.01-3.222l2.805-1.618L1169.824,732.802z M1169.814,729.309l-2.805,1.619l-0.01-3.227l2.805-1.619L1169.814,729.309z
		 M1169.803,725.815l-2.803,1.619l-0.01-3.227l2.805-1.619L1169.803,725.815z M1169.793,722.323l-2.803,1.619l-0.01-3.228
		l2.805-1.618L1169.793,722.323z M1169.775,715.604l0.01,3.222l-2.805,1.619l-0.01-3.222L1169.775,715.604z M1166.873,766.002
		l-2.805,1.617l-0.008-3.221l2.803-1.619L1166.873,766.002z M1166.863,762.508l-2.805,1.619l-0.008-3.227l2.803-1.619
		L1166.863,762.508z M1166.854,759.016l-2.805,1.619l-0.008-3.227l2.803-1.619L1166.854,759.016z M1166.844,755.523l-2.805,1.619
		l-0.01-3.229l2.805-1.619L1166.844,755.523z M1166.834,752.025l-2.805,1.619l-0.008-3.223l2.803-1.619L1166.834,752.025z
		 M1166.824,748.531l-2.805,1.619l-0.008-3.221l2.803-1.619L1166.824,748.531z M1166.812,745.039l-2.803,1.619l-0.01-3.227
		l2.805-1.619L1166.812,745.039z M1166.803,741.547l-2.803,1.619l-0.01-3.227l2.805-1.619L1166.803,741.547z M1166.793,738.055
		l-2.803,1.617l-0.01-3.227l2.805-1.619L1166.793,738.055z M1166.783,734.557l-2.803,1.619l-0.01-3.222l2.805-1.619
		L1166.783,734.557z M1166.773,731.063l-2.803,1.619l-0.01-3.227l2.805-1.619L1166.773,731.063z M1166.764,727.571l-2.803,1.618
		l-0.01-3.227l2.805-1.618L1166.764,727.571z M1166.754,724.078l-2.803,1.619l-0.01-3.228l2.803-1.618L1166.754,724.078z
		 M1166.734,717.358l0.01,3.222l-2.803,1.619l-0.01-3.222L1166.734,717.358z M1163.824,764.264l-2.809,1.621l-0.01-3.227
		l2.809-1.621L1163.824,764.264z M1163.814,760.771l-2.809,1.621l-0.01-3.229l2.809-1.621L1163.814,760.771z M1163.803,757.277
		l-2.807,1.621l-0.01-3.227l2.809-1.621L1163.803,757.277z M1163.793,753.779l-2.807,1.621l-0.01-3.221l2.809-1.621
		L1163.793,753.779z M1163.785,750.287l-2.809,1.621l-0.01-3.223l2.809-1.621L1163.785,750.287z M1163.773,746.795l-2.807,1.621
		l-0.01-3.227l2.809-1.621L1163.773,746.795z M1163.764,743.301l-2.807,1.621l-0.01-3.227l2.809-1.621L1163.764,743.301z
		 M1163.754,739.809l-2.807,1.621l-0.01-3.227l2.809-1.621L1163.754,739.809z M1163.744,736.311l-2.807,1.621l-0.01-3.221
		l2.807-1.621L1163.744,736.311z M1163.734,732.819l-2.809,1.62l-0.008-3.227l2.809-1.621L1163.734,732.819z M1163.725,729.326
		l-2.809,1.621l-0.008-3.228l2.809-1.621L1163.725,729.326z M1163.705,722.606l0.01,3.227l-2.809,1.621l-0.008-3.227
		L1163.705,722.606z M1160.783,766.018l-2.807,1.621l-0.01-3.227l2.809-1.621L1160.783,766.018z M1160.773,762.525l-2.809,1.621
		l-0.008-3.227l2.809-1.621L1160.773,762.525z M1160.764,759.033l-2.807,1.621l-0.01-3.227l2.809-1.621L1160.764,759.033z
		 M1160.754,755.535l-2.807,1.621l-0.01-3.223l2.807-1.621L1160.754,755.535z M1160.744,752.043l-2.809,1.621l-0.008-3.223
		l2.807-1.621L1160.744,752.043z M1160.734,748.549l-2.809,1.621l-0.008-3.227l2.807-1.621L1160.734,748.549z M1160.725,745.057
		l-2.809,1.621l-0.008-3.227l2.807-1.621L1160.725,745.057z M1160.715,741.564l-2.809,1.621l-0.01-3.227l2.809-1.621
		L1160.715,741.564z M1160.705,738.066l-2.809,1.621l-0.008-3.223l2.807-1.621L1160.705,738.066z M1160.695,734.572l-2.809,1.621
		l-0.008-3.226l2.807-1.621L1160.695,734.572z M1160.686,731.081l-2.809,1.621l-0.01-3.227l2.809-1.621L1160.686,731.081z
		 M1160.666,724.361l0.01,3.227l-2.809,1.621l-0.01-3.227L1160.666,724.361z M1154.926,765.902l-0.008-3.227l2.807-1.623l0.01,3.227
		L1154.926,765.902z M1157.725,760.787l-2.809,1.621l-0.01-3.227l2.809-1.621L1157.725,760.787z M1157.715,757.289l-2.809,1.623
		l-0.01-3.223l2.809-1.621L1157.715,757.289z M1157.705,753.797l-2.809,1.621l-0.008-3.221l2.807-1.623L1157.705,753.797z
		 M1157.695,750.305l-2.809,1.621l-0.01-3.227l2.809-1.621L1157.695,750.305z M1157.686,746.811l-2.809,1.623l-0.01-3.229
		l2.809-1.621L1157.686,746.811z M1157.676,743.318l-2.809,1.621l-0.01-3.227l2.809-1.621L1157.676,743.318z M1157.666,739.82
		l-2.809,1.621l-0.01-3.221l2.809-1.621L1157.666,739.82z M1157.656,736.328l-2.809,1.621l-0.01-3.227l2.809-1.621L1157.656,736.328
		z M1157.637,729.608l0.01,3.227l-2.809,1.622l-0.01-3.227L1157.637,729.608z M1148.785,748.719l2.809-1.621l0.008,3.227
		l-2.809,1.621L1148.785,748.719z M1148.805,755.438l-0.01-3.227l2.807-1.621l0.01,3.227L1148.805,755.438z M1151.799,736.479
		l2.805-1.619l0.008,3.227l-2.803,1.619L1151.799,736.479z M1151.809,739.975l2.805-1.617l0.008,3.221l-2.803,1.619
		L1151.809,739.975z M1151.818,743.469l2.805-1.619l0.008,3.227l-2.803,1.619L1151.818,743.469z M1151.828,746.961l2.805-1.619
		l0.01,3.227l-2.805,1.619L1151.828,746.961z M1151.838,750.453l2.805-1.619l0.01,3.227l-2.805,1.619L1151.838,750.453z
		 M1151.848,753.951l2.805-1.619l0.008,3.223l-2.803,1.619L1151.848,753.951z M1151.857,757.443l2.805-1.617l0.01,3.221
		l-2.805,1.619L1151.857,757.443z M1151.877,764.164l-0.01-3.227l2.805-1.619l0.01,3.227L1151.877,764.164z"/>
</g>
<g id="dispatch-aileron">
	<g>
		<polygon fill="#C6C6C5" points="357.345,131.706 309.454,104.055 309.454,136.817 357.345,165.438 		"/>
		<polygon fill="#B1B1B1" points="357.345,131.706 364.583,127.446 364.583,161.178 357.345,165.438 		"/>
		<g>
			<polygon fill="#D9D9D9" points="364.583,127.446 316.376,99.793 309.454,104.055 357.345,131.706 			"/>
		</g>
	</g>
	<g>
		<polygon fill="#C6C6C5" points="291.063,169.973 243.171,142.323 243.171,175.084 291.063,203.706 		"/>
		<polygon fill="#B1B1B1" points="291.063,169.973 298.302,165.713 298.302,199.446 291.063,203.706 		"/>
		<g>
			<polygon fill="#D9D9D9" points="298.302,165.713 250.095,138.061 243.171,142.323 291.063,169.973 			"/>
		</g>
	</g>
	<g>
		<polygon fill="#C6C6C5" points="228.579,197.383 180.687,169.731 180.687,178.663 228.579,206.313 		"/>
		<polygon fill="#B1B1B1" points="228.579,197.383 417.938,87.819 417.938,96.75 417.938,96.75 228.579,206.313 		"/>
		<g>
			<polygon fill="#ECECEC" points="417.938,87.819 369.733,60.168 180.687,169.731 228.579,197.383 			"/>
		</g>
	</g>
	<g>
		<polygon fill="#C6C6C5" points="228.579,197.383 180.687,135.999 180.687,169.731 		"/>
		
			<rect x="227.998" y="195.259" transform="matrix(-0.8618 0.5072 -0.5072 -0.8618 531.3479 245.7653)" fill="#B1B1B1" width="8.399" height="0.002"/>
		<g>
			<polygon fill="#D9D9D9" points="235.817,193.124 187.61,131.739 180.687,135.999 228.579,197.383 			"/>
		</g>
	</g>
	<g>
		<polygon fill="#C6C6C5" points="410.7,92.024 362.81,30.639 362.81,64.372 		"/>
		
			<rect x="410.123" y="89.901" transform="matrix(-0.8618 0.5072 -0.5072 -0.8618 816.9939 -42.768)" fill="#B1B1B1" width="8.399" height="0.002"/>
		<g>
			<polygon fill="#D9D9D9" points="417.938,87.819 369.731,26.379 362.81,30.639 410.7,92.024 			"/>
		</g>
	</g>
</g>
<g id="dispatch-jante-back-left_1_">
	<path fill="#575756" d="M1186.59,109.715c0.104-36.689-25.686-81.364-57.618-99.791c-15.68-9.058-29.913-10.079-40.362-4.444
		l-0.021-0.04l-66.144,38.508l12.07,19.529c-0.007,0.295-0.024,0.579-0.024,0.879c-0.1,36.687,25.693,81.363,57.62,99.792
		c2.286,1.317,4.534,2.447,6.75,3.43l9.131,14.779l32.921-18.726c0.208-0.115,0.42-0.23,0.626-0.351l28.463-16.654l-0.006-0.012
		C1180.213,140.52,1186.541,127.778,1186.59,109.715z"/>
	<g>
		<path fill="#868686" d="M1063.86,47.802c-31.926-18.435-57.891-3.639-57.994,33.051c-0.103,36.686,25.688,81.36,57.62,99.791
			c31.925,18.43,57.892,3.638,57.994-33.05C1121.584,110.905,1095.789,66.229,1063.86,47.802"/>
	</g>
	<g>
		<path fill="#C6C6C5" d="M1063.775,78.785c-17.036-9.837-30.885-1.939-30.942,17.638c-0.055,19.568,13.707,43.403,30.741,53.234
			c17.03,9.832,30.886,1.94,30.942-17.632C1094.569,112.452,1080.808,88.617,1063.775,78.785"/>
	</g>
	<path fill="#D9D9D9" d="M1094.516,132.025c-0.013,3.87-0.569,7.28-1.579,10.191c-2.723-0.659-5.598-1.809-8.581-3.529
		c-17.03-9.831-30.796-33.665-30.737-53.234c0.009-3.896,0.588-7.298,1.621-10.208c2.709,0.67,5.571,1.831,8.535,3.54
		C1080.808,88.617,1094.569,112.452,1094.516,132.025z"/>
</g>
<g id="dispatch-jante-front-left_1_">
	<path fill="#575756" d="M1375.081,211.819c0.104-36.689-25.686-81.364-57.618-99.791c-15.68-9.058-29.913-10.079-40.362-4.444
		l-0.021-0.04l-66.144,38.508l12.07,19.529c-0.007,0.295-0.024,0.579-0.024,0.879c-0.1,36.687,25.693,81.363,57.62,99.792
		c2.286,1.317,4.534,2.447,6.75,3.43l9.131,14.779l32.921-18.726c0.208-0.115,0.42-0.23,0.626-0.351l28.463-16.654l-0.006-0.012
		C1368.704,242.624,1375.032,229.882,1375.081,211.819z"/>
	<g>
		<path fill="#868686" d="M1252.351,149.906c-31.926-18.435-57.891-3.639-57.994,33.051c-0.103,36.686,25.688,81.36,57.62,99.791
			c31.925,18.43,57.892,3.638,57.994-33.05C1310.075,213.009,1284.28,168.333,1252.351,149.906"/>
	</g>
	<g>
		<path fill="#C6C6C5" d="M1252.266,180.889c-17.036-9.837-30.885-1.939-30.942,17.638c-0.055,19.568,13.707,43.403,30.741,53.234
			c17.03,9.832,30.886,1.94,30.942-17.632C1283.06,214.556,1269.299,190.721,1252.266,180.889"/>
	</g>
	<path fill="#D9D9D9" d="M1283.007,234.129c-0.013,3.87-0.569,7.28-1.579,10.191c-2.723-0.659-5.598-1.809-8.581-3.529
		c-17.03-9.831-30.796-33.665-30.737-53.234c0.009-3.896,0.588-7.298,1.621-10.208c2.709,0.67,5.571,1.831,8.535,3.54
		C1269.299,190.721,1283.06,214.556,1283.007,234.129z"/>
</g>
<g id="dispatch-jante-front-right">
	<path fill="#575756" d="M538.769,734.551c0.104-36.689-25.686-81.364-57.618-99.791c-15.68-9.058-29.913-10.079-40.362-4.444
		l-0.021-0.04l-66.144,38.508l12.07,19.529c-0.007,0.295-0.024,0.579-0.024,0.879c-0.1,36.687,25.693,81.363,57.62,99.792
		c2.286,1.317,4.534,2.447,6.75,3.43l9.131,14.779l32.921-18.726c0.208-0.115,0.42-0.23,0.626-0.351l28.463-16.654l-0.006-0.012
		C532.392,765.356,538.72,752.614,538.769,734.551z"/>
	<g>
		<path fill="#868686" d="M416.039,672.638c-31.926-18.435-57.891-3.639-57.994,33.051c-0.103,36.686,25.688,81.36,57.62,99.791
			c31.925,18.43,57.892,3.638,57.994-33.05C473.763,735.741,447.968,691.065,416.039,672.638"/>
	</g>
	<g>
		<path fill="#C6C6C5" d="M415.954,703.621c-17.036-9.837-30.885-1.939-30.942,17.638c-0.055,19.568,13.707,43.403,30.741,53.234
			c17.03,9.832,30.886,1.94,30.942-17.632C446.748,737.288,432.987,713.453,415.954,703.621"/>
	</g>
	<path fill="#D9D9D9" d="M446.695,756.861c-0.013,3.87-0.569,7.28-1.579,10.191c-2.723-0.659-5.598-1.809-8.581-3.529
		c-17.03-9.831-30.796-33.665-30.737-53.234c0.009-3.896,0.588-7.298,1.621-10.208c2.709,0.67,5.571,1.831,8.535,3.54
		C432.987,713.453,446.748,737.288,446.695,756.861z"/>
</g>
<g id="dispatch-jante-back-right">
	<path fill="#575756" d="M347.232,605.02c0.104-36.689-25.686-81.364-57.618-99.791c-15.68-9.058-29.913-10.079-40.362-4.444
		l-0.021-0.04l-66.144,38.508l12.07,19.529c-0.007,0.295-0.024,0.579-0.024,0.879c-0.1,36.687,25.693,81.363,57.62,99.792
		c2.286,1.317,4.534,2.447,6.75,3.43l9.131,14.779l32.921-18.726c0.208-0.115,0.42-0.23,0.626-0.351l28.463-16.654l-0.006-0.012
		C340.855,635.825,347.183,623.083,347.232,605.02z"/>
	<g>
		<path fill="#868686" d="M224.502,543.107c-31.926-18.435-57.891-3.639-57.994,33.051c-0.103,36.686,25.688,81.36,57.62,99.791
			c31.925,18.43,57.892,3.638,57.994-33.05C282.226,606.21,256.431,561.534,224.502,543.107"/>
	</g>
	<g>
		<path fill="#C6C6C5" d="M224.417,574.09c-17.036-9.837-30.885-1.939-30.942,17.638c-0.055,19.568,13.707,43.403,30.741,53.234
			c17.03,9.832,30.886,1.94,30.942-17.632C255.211,607.757,241.45,583.922,224.417,574.09"/>
	</g>
	<path fill="#D9D9D9" d="M255.158,627.33c-0.013,3.87-0.569,7.28-1.579,10.191c-2.723-0.659-5.598-1.809-8.581-3.529
		c-17.03-9.831-30.796-33.665-30.737-53.234c0.009-3.896,0.588-7.298,1.621-10.208c2.709,0.67,5.571,1.831,8.535,3.54
		C241.45,583.922,255.211,607.757,255.158,627.33z"/>
</g>
<g id="dispatch-roue-back-left">
	<path fill="#575756" d="M1028.052,211.063c0.051-18.529-12.975-41.092-29.1-50.398c-7.92-4.574-15.107-5.089-20.385-2.243
		l-0.012-0.021l-33.405,19.448l43.207,69.901l31.315-18.046l-0.002-0.005C1024.829,226.622,1028.026,220.187,1028.052,211.063z"/>
	<g>
		<path fill="#868686" d="M966.068,179.796c-16.125-9.311-29.238-1.839-29.29,16.69c-0.052,18.528,12.976,41.091,29.101,50.398
			c16.124,9.31,29.237,1.839,29.288-16.691C995.22,211.666,982.194,189.103,966.068,179.796"/>
	</g>
	<g>
		<path fill="#C6C6C5" d="M966.023,195.444c-8.603-4.969-15.598-0.98-15.626,8.906c-0.028,9.883,6.923,21.922,15.525,26.886
			c8.602,4.967,15.6,0.981,15.628-8.905C981.577,212.448,974.628,200.41,966.023,195.444"/>
	</g>
	<path fill="#D9D9D9" d="M981.551,222.331c-0.006,1.956-0.288,3.678-0.799,5.148c-1.374-0.332-2.826-0.914-4.332-1.782
		c-8.602-4.965-15.554-17.002-15.525-26.886c0.006-1.968,0.298-3.686,0.818-5.156c1.37,0.338,2.814,0.925,4.311,1.789
		C974.628,200.41,981.577,212.448,981.551,222.331z"/>
</g>
<g id="dispatch-roue-front-left">
	<path fill="#575756" d="M1215.606,319.557c0.051-18.529-12.975-41.092-29.1-50.399c-7.92-4.573-15.107-5.089-20.385-2.243
		l-0.012-0.021l-33.404,19.448l43.205,69.903l31.318-18.047l-0.004-0.004C1212.384,335.113,1215.581,328.68,1215.606,319.557z"/>
	<g>
		<path fill="#868686" d="M1153.622,288.29c-16.123-9.311-29.236-1.839-29.289,16.691c-0.051,18.527,12.975,41.09,29.102,50.398
			c16.123,9.309,29.236,1.838,29.287-16.691C1182.774,320.158,1169.749,297.595,1153.622,288.29"/>
	</g>
	<g>
		<path fill="#C6C6C5" d="M1153.579,303.938c-8.604-4.969-15.6-0.98-15.627,8.906c-0.027,9.883,6.924,21.92,15.525,26.885
			c8.602,4.967,15.6,0.98,15.627-8.904S1162.183,308.902,1153.579,303.938"/>
	</g>
	<path fill="#D9D9D9" d="M1169.104,330.824c-0.006,1.955-0.287,3.678-0.797,5.148c-1.375-0.332-2.828-0.914-4.334-1.783
		c-8.6-4.965-15.553-17.002-15.523-26.885c0.006-1.969,0.297-3.688,0.818-5.156c1.369,0.338,2.812,0.924,4.311,1.789
		C1162.183,308.902,1169.132,320.939,1169.104,330.824z"/>
</g>
<g id="dispatch-roue-back-right">
	<path fill="#575756" d="M468.417,533.822c0.052-18.529-12.974-41.092-29.1-50.397c-7.919-4.574-15.107-5.09-20.384-2.243
		l-0.011-0.021l-33.405,19.448l43.206,69.901l31.317-18.047l-0.003-0.004C465.195,549.381,468.392,542.945,468.417,533.822z"/>
	<g>
		<path fill="#868686" d="M406.433,502.556c-16.124-9.312-29.238-1.839-29.29,16.69c-0.052,18.529,12.975,41.092,29.101,50.398
			c16.123,9.311,29.237,1.838,29.289-16.691C435.585,534.426,422.559,511.863,406.433,502.556"/>
	</g>
	<g>
		<path fill="#C6C6C5" d="M406.389,518.203c-8.603-4.969-15.599-0.98-15.626,8.906c-0.028,9.883,6.923,21.922,15.525,26.887
			c8.601,4.967,15.599,0.98,15.627-8.906C421.942,535.207,414.993,523.168,406.389,518.203"/>
	</g>
	<path fill="#D9D9D9" d="M421.916,545.09c-0.006,1.957-0.288,3.678-0.798,5.148c-1.375-0.332-2.827-0.914-4.333-1.781
		c-8.601-4.967-15.553-17.004-15.525-26.887c0.006-1.967,0.298-3.686,0.818-5.156c1.37,0.338,2.814,0.926,4.311,1.789
		C414.993,523.168,421.942,535.207,421.916,545.09z"/>
</g>
<g id="dispatch-roue-front-right">
	<path fill="#575756" d="M655.972,642.314c0.051-18.527-12.974-41.09-29.1-50.396c-7.919-4.574-15.107-5.09-20.385-2.244
		l-0.011-0.021l-33.405,19.449l43.206,69.9l31.318-18.045l-0.004-0.006C652.749,657.873,655.946,651.438,655.972,642.314z"/>
	<g>
		<path fill="#868686" d="M593.988,611.049c-16.124-9.311-29.238-1.84-29.29,16.691c-0.052,18.527,12.975,41.09,29.101,50.396
			c16.123,9.311,29.237,1.84,29.289-16.689S610.114,620.355,593.988,611.049"/>
	</g>
	<g>
		<path fill="#C6C6C5" d="M593.944,626.695c-8.603-4.967-15.599-0.979-15.626,8.908c-0.028,9.883,6.923,21.92,15.525,26.885
			c8.601,4.967,15.599,0.98,15.627-8.904C609.497,643.699,602.547,631.662,593.944,626.695"/>
	</g>
	<path fill="#D9D9D9" d="M609.47,653.584c-0.006,1.955-0.288,3.676-0.798,5.148c-1.375-0.334-2.827-0.914-4.333-1.783
		c-8.601-4.965-15.553-17.002-15.524-26.887c0.005-1.967,0.297-3.686,0.818-5.154c1.37,0.338,2.814,0.924,4.311,1.787
		C602.547,631.662,609.497,643.699,609.47,653.584z"/>
</g>
<g id="dispatch-moteur-elec">
	<g>
		<g>
			<polygon fill="#C6C6C5" points="594.192,273.021 568.412,258.137 568.412,287.69 594.192,302.575 			"/>
			<polygon fill="#B1B1B1" points="594.192,273.021 633.19,250.506 633.19,280.06 594.192,302.575 			"/>
			<g>
				<polygon fill="#D9D9D9" points="633.19,250.506 607.283,235.622 568.412,258.137 594.192,273.021 				"/>
			</g>
		</g>
		<g>
			<path fill="#F6F6F6" d="M615.458,264.233l-3.554,3.856l-0.925,13.01l4.662-7.059l-1.353,9.719l-1.595,0.068l1.053,5.02
				l3.589-6.552l-1.749,1.138l3.583-16.745l-5.484,8.172L615.458,264.233"/>
		</g>
		<g>
			<g>
				<path fill="#B1B1B1" d="M584.955,256.647v4.698l0,0c0.003,0.42,0.282,0.84,0.838,1.16c1.109,0.641,2.904,0.643,4.009,0
					c0.551-0.32,0.825-0.74,0.822-1.16h0.001v-4.698H584.955z"/>
				<g>
					<path fill="#ECECEC" d="M589.789,255.485c-1.113-0.641-2.905-0.641-4.009,0c-1.105,0.642-1.098,1.681,0.013,2.321
						c1.109,0.643,2.904,0.643,4.009,0C590.904,257.166,590.898,256.126,589.789,255.485"/>
				</g>
			</g>
			<g>
				<path fill="#B1B1B1" d="M610.594,241.845v4.698l0,0c0.002,0.42,0.281,0.84,0.836,1.16c1.111,0.641,2.904,0.643,4.009,0
					c0.551-0.32,0.825-0.74,0.822-1.16h0.001v-4.698H610.594z"/>
				<g>
					<path fill="#ECECEC" d="M615.427,240.683c-1.112-0.641-2.905-0.641-4.008,0c-1.105,0.643-1.099,1.679,0.012,2.321
						c1.111,0.641,2.904,0.643,4.009,0C616.542,242.364,616.537,241.324,615.427,240.683"/>
				</g>
			</g>
		</g>
		<g>
			<polyline fill="#9C9B9B" points="597.404,264.536 596.292,263.896 594.018,265.216 591.728,263.894 590.625,264.536 
				592.914,265.859 590.639,267.18 591.75,267.822 594.024,266.5 596.314,267.822 597.419,267.18 595.129,265.859 597.404,264.536 
							"/>
		</g>
		<polyline fill="#9C9B9B" points="624.151,249.093 623.041,248.453 617.385,251.738 618.498,252.379 624.151,249.093 		"/>
	</g>
	<g>
		<path fill="#D9D9D9" d="M576.144,304.773c0.031-10.997-7.7-24.388-17.271-29.912c-4.7-2.713-8.967-3.019-12.099-1.331
			l-0.007-0.013l-43.957,25.475l25.644,41.489l42.718-24.643l-0.001-0.003C574.232,314.009,576.129,310.189,576.144,304.773z"/>
		<g>
			<path fill="#C6C6C6" d="M515.224,300.148c-9.57-5.527-17.353-1.091-17.384,9.906c-0.032,10.998,7.701,24.39,17.272,29.913
				c9.569,5.525,17.353,1.092,17.383-9.906C532.527,319.063,524.796,305.672,515.224,300.148"/>
		</g>
		<path fill="#B2B2B2" d="M563.531,312.055c0.031-10.997-7.7-24.388-17.271-29.912c-4.7-2.713-8.967-3.019-12.099-1.331
			l-0.007-0.013L507.966,296l-0.381,0.222c0,0,5.221-3.296,12.685,1.014c9.572,5.524,17.303,18.916,17.271,29.912
			c-0.013,4.862-1.543,8.438-4.071,10.441l25.09-14.469l-0.001-0.002C561.62,321.291,563.517,317.471,563.531,312.055z"/>
		<g>
			<path fill="#D9D9D9" d="M507.667,296.173c-0.05,0.029-0.082,0.048-0.082,0.048L507.667,296.173z"/>
			<path fill="#D9D9D9" d="M551.73,286.331c-0.756-0.727-1.535-1.406-2.334-2.035l-26.055,15.044
				c0.802,0.628,1.584,1.304,2.344,2.029L551.73,286.331z"/>
			<path fill="#D9D9D9" d="M546.26,282.143c-1.029-0.594-2.032-1.052-3.012-1.42l-26.121,15.082c0.995,0.34,2.041,0.794,3.142,1.431
				c0.039,0.022,0.076,0.05,0.114,0.072l26.062-15.047C546.382,282.223,546.322,282.179,546.26,282.143z"/>
			<path fill="#D9D9D9" d="M558.558,323.117c1.224-0.73,2.251-1.793,3.057-3.135l-25.911,14.96c-0.614,1.059-1.36,1.953-2.235,2.646
				l25.09-14.469L558.558,323.117z"/>
			<path fill="#D9D9D9" d="M538.395,279.785c-1.559,0.015-2.989,0.356-4.234,1.027l-0.007-0.013L507.966,296l-0.299,0.174
				c0.352-0.2,1.904-1.005,4.314-1.138L538.395,279.785z"/>
			<path fill="#D9D9D9" d="M555.88,291.059c-0.593-0.8-1.22-1.564-1.862-2.308l-26.041,15.036c0.644,0.742,1.271,1.506,1.866,2.306
				L555.88,291.059z"/>
			<path fill="#D9D9D9" d="M563.232,308.185c-0.147-1.004-0.352-2.017-0.605-3.033l-26.01,15.018
				c0.255,1.014,0.465,2.025,0.615,3.028L563.232,308.185z"/>
			<path fill="#D9D9D9" d="M537.288,330.288l25.965-14.992c0.169-1.01,0.275-2.081,0.278-3.241c0-0.097-0.011-0.198-0.012-0.295
				l-25.994,15.008c0.001,0.126,0.016,0.255,0.015,0.38C537.538,328.266,537.445,329.309,537.288,330.288z"/>
			<path fill="#D9D9D9" d="M559.167,296.285c-0.46-0.862-0.949-1.708-1.467-2.536l-26.03,15.029c0.52,0.827,1.009,1.672,1.471,2.533
				L559.167,296.285z"/>
			<path fill="#D9D9D9" d="M561.67,301.963c-0.325-0.927-0.674-1.851-1.073-2.763l-26.022,15.025c0.4,0.912,0.754,1.833,1.081,2.759
				L561.67,301.963z"/>
		</g>
		<g>
			<path fill="#D9D9D9" d="M516.136,321.126c0.002-0.919-0.643-2.04-1.444-2.5c-0.394-0.228-0.75-0.253-1.013-0.112v-0.001
				l-15.741,9.097l0.303,0.489c0,0.008-0.001,0.016-0.001,0.022c-0.001,0.921,0.644,2.04,1.445,2.502
				c0.057,0.032,0.114,0.062,0.169,0.085l0.229,0.371l15.637-9.026l0,0C515.976,321.898,516.134,321.58,516.136,321.126z"/>
			<g>
				<path fill="#C6C6C6" d="M498.977,327.705c-0.801-0.463-1.452-0.092-1.454,0.829c-0.003,0.919,0.644,2.04,1.443,2.501
					c0.801,0.463,1.452,0.092,1.454-0.828C500.423,329.288,499.777,328.167,498.977,327.705"/>
			</g>
		</g>
	</g>
</g>
<polygon id="dispatch-carenage-right-vert" fill="#95C11F" points="584.148,470.168 555.334,487 555.334,530.455 649.965,585.09 
	679.087,568.26 679.087,524.805 "/>
<polygon id="dispatch-carenage-left-vert" fill="#95C11F" points="932.842,267.794 904.027,284.626 904.027,328.08 998.658,382.717 
	1027.781,365.885 1027.781,322.431 "/>
<polygon id="dispatch-siege-vert" fill="#95C11F" points="768.762,386.072 768.762,385.941 747.015,278.108 736.042,274.635 
	666.417,315.073 699.463,428.613 709.002,432.979 709.016,432.971 774.926,464.541 844.851,424.105 844.851,411.68 "/>
<path id="dispatch-roue-back-left-vert" fill="#95C11F" d="M1028.052,211.063c0.051-18.529-12.975-41.092-29.1-50.398
	c-7.92-4.574-15.107-5.089-20.385-2.243l-0.012-0.021l-33.088,19.263c-0.061,0.034-0.12,0.07-0.181,0.105l-0.137,0.08l0.003,0.004
	c-5.155,3.08-8.35,9.514-8.375,18.633c-0.052,18.528,12.976,41.091,29.101,50.398c9.023,5.21,17.102,5.161,22.478,0.863l0.001,0.002
	l31.315-18.046l-0.002-0.005C1024.829,226.622,1028.026,220.187,1028.052,211.063z"/>
<path id="dispatch-roue-front-left-vert" fill="#95C11F" d="M1215.606,319.557c0.051-18.529-12.975-41.092-29.1-50.399
	c-7.92-4.573-15.107-5.089-20.385-2.243l-0.012-0.021l-33.1,19.271c-0.05,0.028-0.1,0.058-0.149,0.087l-0.155,0.09l0.003,0.005
	c-5.155,3.08-8.35,9.514-8.376,18.634c-0.051,18.527,12.975,41.09,29.102,50.398c9.022,5.209,17.1,5.16,22.476,0.863l0.001,0.002
	l31.318-18.047l-0.004-0.004C1212.384,335.113,1215.581,328.68,1215.606,319.557z"/>
<path id="dispatch-roue-back-right-vert" fill="#95C11F" d="M468.417,533.822c0.052-18.529-12.974-41.092-29.1-50.397
	c-7.919-4.574-15.107-5.09-20.384-2.243l-0.011-0.021l-33.086,19.263c-0.062,0.034-0.123,0.071-0.185,0.107l-0.134,0.078
	l0.002,0.004c-5.155,3.08-8.349,9.515-8.375,18.634c-0.052,18.529,12.975,41.092,29.101,50.398c9.022,5.21,17.1,5.161,22.476,0.863
	l0.001,0.002l31.317-18.047l-0.003-0.004C465.195,549.381,468.392,542.945,468.417,533.822z"/>
<path id="dispatch-roue-front-right-vert" fill="#95C11F" d="M655.972,642.314c0.051-18.527-12.974-41.09-29.1-50.396
	c-7.919-4.574-15.107-5.09-20.385-2.244l-0.011-0.021l-33.089,19.266c-0.059,0.033-0.117,0.068-0.176,0.102l-0.14,0.082l0.003,0.004
	c-5.155,3.081-8.35,9.515-8.375,18.635c-0.052,18.527,12.975,41.09,29.101,50.396c9.022,5.21,17.101,5.162,22.477,0.864v0.001
	l31.318-18.045l-0.004-0.006C652.749,657.873,655.946,651.438,655.972,642.314z"/>
<g id="dispatch-moteur-elec-green">
	<path fill="#95C11F" d="M607.283,235.622l-38.872,22.515v25.538c-2.732-3.664-6.009-6.776-9.54-8.814
		c-4.7-2.713-8.967-3.019-12.099-1.331l-0.007-0.013c0,0-39.097,22.655-39.096,22.654c0,0,0.015-0.008,0.022-0.012
		c0.016-0.009-4.693,2.722-4.693,2.722c-0.036,0.02-0.071,0.041-0.106,0.062l-0.084,0.049l0.002,0.003
		c-3.06,1.828-4.956,5.646-4.971,11.059c-0.014,4.912,1.528,10.298,4.083,15.251l-3.97,2.295c-0.002,0.001-0.004,0.002-0.007,0.004
		l-0.009,0.005l0.001,0.001c-0.256,0.153-0.416,0.471-0.416,0.924c-0.003,0.919,0.644,2.04,1.443,2.501
		c0.449,0.259,0.845,0.249,1.112,0.035l0.005,0.008l3.883-2.241c3.007,4.662,6.893,8.675,11.147,11.13
		c5.355,3.092,10.149,3.063,13.34,0.513v0.001l5.021-2.896c-0.002,0.001-0.003,0.003-0.005,0.005l25.09-14.469l-0.001-0.002
		c0.009-0.005,0.018-0.013,0.027-0.019l12.586-7.261l-0.001-0.003c3.062-1.826,4.959-5.646,4.974-11.062
		c0.014-4.781-1.443-10.014-3.877-14.857l21.925,12.659l38.998-22.516v-29.554L607.283,235.622z"/>
</g>
<polygon id="dispatch-carenage-front-vert" fill="#95C11F" points="1172.073,543.736 1161.866,589.75 1132.13,607.032 
	1091.981,555.494 1084.897,537.955 1042.603,491.604 1021.011,504.152 1020.421,504.492 998.829,517.043 998.829,525.566 
	1041.124,571.92 1059.88,582.676 1103.583,623.622 1079.368,637.695 1024.731,629.367 973.949,673.225 973.949,698.045 
	1107.091,689.377 1208.325,630.543 1222.856,553.391 1222.856,528.57 "/>
</svg>
