<?xml version="1.0" encoding="utf-8"?>
<!-- Generator: Adobe Illustrator 15.0.0, SVG Export Plug-In . SVG Version: 6.00 Build 0)  -->
<!DOCTYPE svg PUBLIC "-//W3C//DTD SVG 1.1//EN" "http://www.w3.org/Graphics/SVG/1.1/DTD/svg11.dtd">
<svg version="1.1" xmlns="http://www.w3.org/2000/svg" xmlns:xlink="http://www.w3.org/1999/xlink" x="0px" y="0px" width="1600px"
	 height="900px" viewBox="250 0 1200 860" enable-background="new 0 0 1600 900" xml:space="preserve">
<g id="Calque_6">
</g>
<g id="Calque_9">
	<g id="generatrice">
		<g>
			<polygon fill="#B1B1B1" points="469.879,275.297 388.637,228.391 388.637,265.389 469.879,312.294 			"/>
			<polygon fill="#B1B1B1" points="469.879,275.297 605.409,197.047 605.409,234.044 469.879,312.294 			"/>
			<g>
				<polygon fill="#F5F5F5" points="605.409,197.047 523.849,150.143 388.637,228.391 469.879,275.297 				"/>
			</g>
		</g>
		<g>
			<path fill="#ECECEC" d="M590.258,167.999c0.065-23.411-16.391-51.916-36.765-63.676c-10.005-5.777-19.088-6.428-25.754-2.833
				l-0.015-0.026l-92.435,53.427l52.228,89.911l92.156-53.251l-0.002-0.007C586.188,187.655,590.227,179.525,590.258,167.999z"/>
			<g>
				<path fill="#B1B1B1" d="M461.717,157.353c-20.372-11.764-36.94-2.323-37.005,21.087c-0.065,23.41,16.393,51.917,36.766,63.674
					c20.371,11.763,36.938,2.323,37.003-21.086C498.547,197.618,482.091,169.111,461.717,157.353"/>
			</g>
		</g>
		<g>
			<defs>
				<path id="SVGID_1_" d="M590.258,167.999c0.065-23.411-16.391-51.916-36.765-63.676c-10.005-5.777-19.088-6.428-25.754-2.833
					l-0.015-0.026l-92.435,53.427l52.228,89.911l92.156-53.251l-0.002-0.007C586.188,187.655,590.227,179.525,590.258,167.999z"/>
			</defs>
			<clipPath id="SVGID_2_">
				<use xlink:href="#SVGID_1_"  overflow="visible"/>
			</clipPath>
			<g clip-path="url(#SVGID_2_)">
				
					<rect x="381.117" y="103.313" transform="matrix(0.866 -0.5 0.5 0.866 -2.1756 247.1703)" display="none" fill="#F5F5F5" width="158.034" height="48.663"/>
				
					<rect x="477.782" y="177.007" transform="matrix(0.866 -0.5 0.5 0.866 -26.072 305.3784)" fill="#D9D9D9" width="158.032" height="48.664"/>
			</g>
		</g>
		<g>
			<polygon fill="#C6C6C5" points="469.879,191.394 388.637,144.488 388.637,265.389 469.879,312.294 			"/>
			<polygon fill="#B1B1B1" points="469.879,191.394 503.024,172.255 503.024,293.156 469.879,312.294 			"/>
			<g>
				<polygon fill="#F5F5F5" points="503.024,172.255 421.464,125.35 388.637,144.488 469.879,191.394 				"/>
			</g>
		</g>
		<g>
			<path fill="#D9D9D9" d="M435.885,223.07c0.012-4.478-3.136-9.931-7.032-12.179c-1.922-1.111-3.666-1.23-4.943-0.531l-0.01-0.015
				l-50.474,29.14l10.209,16.959l50.14-28.821C435.071,226.9,435.878,225.325,435.885,223.07z"/>
		</g>
		<g>
			<g>
				<polygon fill="#C6C6C5" points="379.584,372.273 360.544,361.28 360.544,370.162 379.584,381.153 				"/>
				<polygon fill="#B1B1B1" points="379.584,372.273 434.597,340.512 434.597,349.393 379.584,381.153 				"/>
				<g>
					<polygon fill="#ECECEC" points="434.597,340.512 415.434,329.52 360.544,361.28 379.584,372.273 					"/>
				</g>
			</g>
			<g>
				<polygon fill="#C6C6C5" points="286.414,318.48 267.374,307.488 267.374,316.37 286.414,327.361 				"/>
				<polygon fill="#B1B1B1" points="286.414,318.48 341.426,286.72 341.426,295.601 286.414,327.361 				"/>
				<g>
					<polygon fill="#ECECEC" points="341.426,286.72 322.263,275.728 267.374,307.488 286.414,318.48 					"/>
				</g>
			</g>
			<polygon fill="#C6C6C5" points="295.135,255.312 276.165,244.362 276.165,302.557 295.135,313.51 			"/>
			<polygon fill="#B1B1B1" points="295.137,255.314 331.039,292.782 295.137,313.512 			"/>
			<path fill="#EDEDED" d="M424.147,286.083c0.099-35.608-24.933-78.969-55.924-96.854c-15.219-8.788-29.033-9.779-39.173-4.311
				l-0.023-0.041l-36.777,21.325l79.443,136.762l36.354-21.057l-0.005-0.009C417.955,315.981,424.098,303.615,424.147,286.083z"/>
			<g>
				<defs>
					<path id="SVGID_3_" d="M424.147,286.083c0.099-35.608-24.933-78.969-55.924-96.854c-15.219-8.788-29.033-9.779-39.173-4.311
						l-0.023-0.041l-36.777,21.325l79.443,136.762l36.354-21.057l-0.005-0.009C417.955,315.981,424.098,303.615,424.147,286.083z"/>
				</defs>
				<clipPath id="SVGID_4_">
					<use xlink:href="#SVGID_3_"  overflow="visible"/>
				</clipPath>
				<g clip-path="url(#SVGID_4_)">
					
						<rect x="263.444" y="184.497" transform="matrix(0.866 -0.5 0.5 0.866 -61.6069 187.738)" display="none" fill="#F5F5F5" width="112.151" height="48.664"/>
					
						<rect x="352.616" y="262.518" transform="matrix(0.866 -0.5 0.5 0.866 -88.6707 242.7803)" fill="#C6C6C5" width="112.151" height="48.664"/>
				</g>
			</g>
			<polygon fill="#C6C6C5" points="388.306,306.308 369.335,295.357 369.335,356.349 388.306,367.302 			"/>
			<g>
				<path fill="#C6C6C5" d="M332.448,209.946c-30.985-17.893-56.188-3.533-56.286,32.075c-0.099,35.606,24.934,78.968,55.923,96.854
					c30.985,17.891,56.188,3.533,56.287-32.075C388.471,271.192,363.439,227.832,332.448,209.946"/>
			</g>
			<g>
				<path fill="#868686" d="M332.428,216.458c-27.858-16.088-50.511-3.174-50.599,28.841c-0.09,32.005,22.416,70.985,50.274,87.063
					c27.853,16.082,50.511,3.176,50.605-28.837C382.792,271.518,360.288,232.537,332.428,216.458"/>
			</g>
			<path fill="#6F6F6E" d="M332.428,216.458c-13.119-7.576-25.08-8.716-34.079-4.464c-8.108,5.614-13.067,16.392-13.107,31.336
				c-0.09,32.004,22.416,70.985,50.274,87.063c13.118,7.575,25.082,8.713,34.08,4.459c8.108-5.613,13.069-16.388,13.112-31.327
				C382.792,271.518,360.288,232.537,332.428,216.458z"/>
			<polygon fill="#B1B1B1" points="388.306,306.308 424.208,285.579 424.208,346.573 388.306,367.302 			"/>
		</g>
		<g>
			<path fill="#D9D9D9" d="M357.832,287.246c0.041-15.19-10.638-33.689-23.859-41.319c-6.492-3.75-12.387-4.173-16.712-1.84
				l-0.011-0.018l-15.689,9.099l33.892,58.346l15.51-8.984l-0.002-0.004C355.19,300.002,357.81,294.725,357.832,287.246z"/>
			<g>
				<path fill="#B1B1B1" d="M318.71,254.764c-13.219-7.634-23.971-1.507-24.014,13.684c-0.042,15.19,10.639,33.689,23.859,41.321
					c13.22,7.632,23.971,1.507,24.014-13.684C342.61,280.894,331.931,262.394,318.71,254.764"/>
			</g>
			<g>
				<path fill="#868686" d="M318.702,257.542c-11.885-6.864-21.55-1.355-21.588,12.304c-0.038,13.653,9.563,30.285,21.45,37.144
					c11.882,6.862,21.548,1.355,21.588-12.303C340.188,281.032,330.587,264.402,318.702,257.542"/>
			</g>
			<path fill="#6F6F6E" d="M318.702,257.542c-5.598-3.232-10.701-3.718-14.54-1.905c-3.458,2.395-5.575,6.993-5.591,13.369
				c-0.038,13.655,9.563,30.285,21.448,37.145c5.596,3.231,10.701,3.717,14.539,1.902c3.459-2.395,5.576-6.992,5.595-13.366
				C340.188,281.032,330.587,264.402,318.702,257.542z"/>
		</g>
		<g>
			<path fill="#C6C6C5" d="M326.457,286.134c0.012-4.477-3.136-9.931-7.032-12.179c-1.923-1.111-3.666-1.23-4.944-0.531
				l-0.009-0.015l-2.695,1.554l10.209,16.96l2.361-1.235C325.642,289.964,326.45,288.389,326.457,286.134z"/>
			<g>
				<path fill="#9C9B9B" d="M317.051,275.146c-3.896-2.249-7.065-0.443-7.078,4.034c-0.012,4.479,3.135,9.931,7.033,12.181
					c3.896,2.25,7.066,0.443,7.078-4.034C324.097,282.85,320.951,277.396,317.051,275.146"/>
			</g>
		</g>
		<g>
			<path fill="#E79027" d="M437.635,87.707l0.042,14.399c11.445-4.727,17.248,0.595,17.278,11.869
				c-0.03-11.274-5.833-16.596-17.278-11.869L437.635,87.707"/>
			<path fill="#E79027" d="M488.202,58.51c-11.772,6.799-20.909,18.654-25.344,31.249c-4.281-7.563-13.452-8.847-25.222-2.051
				l0.042,14.399c11.445-4.727,17.248,0.595,17.278,11.869c0.034,11.273-5.719,23.27-17.155,32.38l0.041,14.405
				c11.442-6.607,21.448-19.592,25.127-32.067l0.217-0.127c3.732,8.197,13.779,9.608,25.224,3.001l-0.042-14.41
				c-11.45,4.109-17.249-1.22-17.281-12.49c-0.033-11.281,5.717-23.269,17.158-31.756L488.202,58.51"/>
			<path fill="#E79027" d="M462.356,51.015c-5.603,3.235-10.128,11.07-10.109,17.513c0.017,6.434,4.573,9.03,10.173,5.796
				c5.606-3.235,10.13-11.076,10.11-17.508C472.514,50.374,467.96,47.776,462.356,51.015"/>
		</g>
	</g>
	<g id="transfo">
		<g>
			<polygon fill="#B1B1B1" points="542.418,324.845 502.679,301.901 502.679,347.57 542.418,370.513 			"/>
			<polygon fill="#C6C6C5" points="542.418,324.845 627.342,275.814 627.342,321.482 542.418,370.513 			"/>
			<g>
				<polygon fill="#EDEDED" points="627.342,275.814 587.473,252.871 502.679,301.901 542.418,324.845 				"/>
			</g>
		</g>
		<g>
			<g>
				<path fill="#868686" d="M598.408,273.222v2.788l0,0c-0.008,1.614-1.082,3.229-3.215,4.461c-4.264,2.461-11.158,2.465-15.398,0
					c-2.117-1.23-3.172-2.845-3.162-4.461l0,0v-2.788H598.408z"/>
				<g>
					<path fill="#575756" d="M579.844,268.763c4.271-2.466,11.164-2.462,15.4,0c4.242,2.465,4.219,6.453-0.051,8.918
						c-4.264,2.46-11.158,2.464-15.398,0C575.559,275.219,575.582,271.224,579.844,268.763"/>
				</g>
			</g>
			<g>
				<path fill="#868686" d="M598.408,264.592v2.788l0,0c-0.008,1.613-1.082,3.227-3.215,4.459c-4.264,2.462-11.158,2.464-15.398,0
					c-2.117-1.23-3.172-2.845-3.162-4.459l0,0v-2.788H598.408z"/>
				<g>
					<path fill="#575756" d="M579.844,260.132c4.271-2.466,11.164-2.461,15.4,0c4.242,2.464,4.219,6.452-0.051,8.918
						c-4.264,2.462-11.158,2.466-15.398,0C575.559,266.588,575.582,262.593,579.844,260.132"/>
				</g>
			</g>
			<g>
				<path fill="#868686" d="M598.408,255.958v2.79l0,0c-0.008,1.613-1.082,3.229-3.215,4.459c-4.264,2.462-11.158,2.466-15.398,0
					c-2.117-1.23-3.172-2.846-3.162-4.459l0,0v-2.79H598.408z"/>
				<g>
					<path fill="#575756" d="M579.844,251.5c4.271-2.466,11.164-2.463,15.4,0c4.242,2.466,4.219,6.454-0.051,8.918
						c-4.264,2.461-11.158,2.464-15.398,0C575.559,257.957,575.582,253.959,579.844,251.5"/>
				</g>
			</g>
			<g>
				<path fill="#868686" d="M598.408,247.326v2.789l0,0c-0.008,1.613-1.082,3.228-3.215,4.46c-4.264,2.461-11.158,2.464-15.398,0
					c-2.117-1.23-3.172-2.845-3.162-4.46l0,0v-2.789H598.408z"/>
				<g>
					<path fill="#575756" d="M579.844,242.866c4.271-2.464,11.164-2.459,15.4,0c4.242,2.466,4.219,6.454-0.051,8.919
						c-4.264,2.461-11.158,2.466-15.398,0C575.559,249.325,575.582,245.329,579.844,242.866"/>
				</g>
			</g>
			<g>
				<path fill="#868686" d="M598.408,238.694v2.79l0,0c-0.008,1.613-1.082,3.227-3.215,4.459c-4.264,2.46-11.158,2.464-15.398,0
					c-2.117-1.232-3.172-2.847-3.162-4.459l0,0v-2.79H598.408z"/>
				<g>
					<path fill="#575756" d="M579.844,234.236c4.271-2.465,11.164-2.461,15.4,0c4.242,2.466,4.219,6.453-0.051,8.918
						c-4.264,2.462-11.158,2.464-15.398,0C575.559,240.693,575.582,236.697,579.844,234.236"/>
				</g>
			</g>
		</g>
		<g>
			<g>
				<path fill="#868686" d="M575.892,286.222v2.788l0,0c-0.008,1.614-1.082,3.229-3.215,4.461c-4.264,2.461-11.158,2.465-15.398,0
					c-2.117-1.23-3.172-2.845-3.162-4.461l0,0v-2.788H575.892z"/>
				<g>
					<path fill="#575756" d="M557.327,281.763c4.271-2.466,11.164-2.462,15.4,0c4.242,2.465,4.219,6.453-0.051,8.918
						c-4.264,2.46-11.158,2.464-15.398,0C553.042,288.219,553.065,284.224,557.327,281.763"/>
				</g>
			</g>
			<g>
				<path fill="#868686" d="M575.892,277.592v2.788l0,0c-0.008,1.613-1.082,3.227-3.215,4.459c-4.264,2.462-11.158,2.464-15.398,0
					c-2.117-1.23-3.172-2.845-3.162-4.459l0,0v-2.788H575.892z"/>
				<g>
					<path fill="#575756" d="M557.327,273.132c4.271-2.466,11.164-2.461,15.4,0c4.242,2.464,4.219,6.452-0.051,8.918
						c-4.264,2.462-11.158,2.466-15.398,0C553.042,279.588,553.065,275.593,557.327,273.132"/>
				</g>
			</g>
			<g>
				<path fill="#868686" d="M575.892,268.958v2.79l0,0c-0.008,1.613-1.082,3.229-3.215,4.459c-4.264,2.462-11.158,2.466-15.398,0
					c-2.117-1.23-3.172-2.846-3.162-4.459l0,0v-2.79H575.892z"/>
				<g>
					<path fill="#575756" d="M557.327,264.5c4.271-2.466,11.164-2.463,15.4,0c4.242,2.466,4.219,6.454-0.051,8.918
						c-4.264,2.461-11.158,2.464-15.398,0C553.042,270.957,553.065,266.959,557.327,264.5"/>
				</g>
			</g>
			<g>
				<path fill="#868686" d="M575.892,260.326v2.789l0,0c-0.008,1.613-1.082,3.228-3.215,4.46c-4.264,2.461-11.158,2.464-15.398,0
					c-2.117-1.23-3.172-2.845-3.162-4.46l0,0v-2.789H575.892z"/>
				<g>
					<path fill="#575756" d="M557.327,255.866c4.271-2.464,11.164-2.459,15.4,0c4.242,2.466,4.219,6.454-0.051,8.919
						c-4.264,2.461-11.158,2.466-15.398,0C553.042,262.325,553.065,258.329,557.327,255.866"/>
				</g>
			</g>
			<g>
				<path fill="#868686" d="M575.892,251.694v2.79l0,0c-0.008,1.613-1.082,3.227-3.215,4.459c-4.264,2.46-11.158,2.464-15.398,0
					c-2.117-1.232-3.172-2.847-3.162-4.459l0,0v-2.79H575.892z"/>
				<g>
					<path fill="#575756" d="M557.327,247.236c4.271-2.465,11.164-2.461,15.4,0c4.242,2.466,4.219,6.453-0.051,8.918
						c-4.264,2.462-11.158,2.464-15.398,0C553.042,253.693,553.065,249.697,557.327,247.236"/>
				</g>
			</g>
		</g>
		<g>
			<g>
				<path fill="#868686" d="M553.375,299.222v2.788l0,0c-0.008,1.614-1.082,3.229-3.215,4.461c-4.264,2.461-11.158,2.465-15.398,0
					c-2.117-1.23-3.172-2.845-3.162-4.461l0,0v-2.788H553.375z"/>
				<g>
					<path fill="#575756" d="M534.811,294.763c4.271-2.466,11.164-2.462,15.4,0c4.242,2.465,4.219,6.453-0.051,8.918
						c-4.264,2.46-11.158,2.464-15.398,0C530.525,301.219,530.549,297.224,534.811,294.763"/>
				</g>
			</g>
			<g>
				<path fill="#868686" d="M553.375,290.592v2.788l0,0c-0.008,1.613-1.082,3.227-3.215,4.459c-4.264,2.462-11.158,2.464-15.398,0
					c-2.117-1.23-3.172-2.845-3.162-4.459l0,0v-2.788H553.375z"/>
				<g>
					<path fill="#575756" d="M534.811,286.132c4.271-2.466,11.164-2.461,15.4,0c4.242,2.464,4.219,6.452-0.051,8.918
						c-4.264,2.462-11.158,2.466-15.398,0C530.525,292.588,530.549,288.593,534.811,286.132"/>
				</g>
			</g>
			<g>
				<path fill="#868686" d="M553.375,281.958v2.79l0,0c-0.008,1.613-1.082,3.229-3.215,4.459c-4.264,2.462-11.158,2.466-15.398,0
					c-2.117-1.23-3.172-2.846-3.162-4.459l0,0v-2.79H553.375z"/>
				<g>
					<path fill="#575756" d="M534.811,277.5c4.271-2.466,11.164-2.463,15.4,0c4.242,2.466,4.219,6.454-0.051,8.918
						c-4.264,2.461-11.158,2.464-15.398,0C530.525,283.957,530.549,279.959,534.811,277.5"/>
				</g>
			</g>
			<g>
				<path fill="#868686" d="M553.375,273.326v2.789l0,0c-0.008,1.613-1.082,3.228-3.215,4.46c-4.264,2.461-11.158,2.464-15.398,0
					c-2.117-1.23-3.172-2.845-3.162-4.46l0,0v-2.789H553.375z"/>
				<g>
					<path fill="#575756" d="M534.811,268.866c4.271-2.464,11.164-2.459,15.4,0c4.242,2.466,4.219,6.454-0.051,8.919
						c-4.264,2.461-11.158,2.466-15.398,0C530.525,275.325,530.549,271.329,534.811,268.866"/>
				</g>
			</g>
			<g>
				<path fill="#868686" d="M553.375,264.694v2.79l0,0c-0.008,1.613-1.082,3.227-3.215,4.459c-4.264,2.46-11.158,2.464-15.398,0
					c-2.117-1.232-3.172-2.847-3.162-4.459l0,0v-2.79H553.375z"/>
				<g>
					<path fill="#575756" d="M534.811,260.236c4.271-2.465,11.164-2.461,15.4,0c4.242,2.466,4.219,6.453-0.051,8.918
						c-4.264,2.462-11.158,2.464-15.398,0C530.525,266.693,530.549,262.697,534.811,260.236"/>
				</g>
			</g>
		</g>
	</g>
	<g id="fil-valeur">
		<path fill="#868686" d="M644.648,240.942c-21.667,0-41-0.401-57.18-1.248l0.104-1.997c95.095,4.977,309.532-6.131,449.89-23.302
			l0.242,1.985C918.622,230.948,752.733,240.942,644.648,240.942z"/>
	</g>
	<g id="fil-risque">
		<path fill="#868686" d="M725.76,394.849c-41.498-24.625-120.514-102.916-154.256-136.348c-2.656-2.632-5.066-5.02-7.196-7.123
			l1.405-1.423c2.13,2.104,4.541,4.492,7.198,7.125c33.689,33.379,112.583,111.548,153.869,136.048L725.76,394.849z"/>
	</g>
	<g id="fil-amelio">
		<path fill="#868686" d="M419.89,568.755l-1.772-0.928c25.304-48.368,87.983-174.889,123.406-304.757l1.93,0.526
			C507.978,393.653,445.224,520.328,419.89,568.755z"/>
	</g>
	<g id="amelio-plateau">
		<g>
			<g>
				<path fill="#868686" d="M429.891,602.818v2.787l0,0c-0.008,1.613-1.082,3.229-3.215,4.461c-4.264,2.461-11.158,2.465-15.398,0
					c-2.117-1.23-3.172-2.846-3.162-4.461l0,0v-2.787H429.891z"/>
				<g>
					<path fill="#575756" d="M411.327,598.359c4.271-2.466,11.164-2.462,15.4,0c4.242,2.465,4.219,6.453-0.051,8.918
						c-4.264,2.461-11.158,2.465-15.398,0C407.042,604.815,407.065,600.82,411.327,598.359"/>
				</g>
			</g>
			<g>
				<path fill="#868686" d="M429.891,594.188v2.788l0,0c-0.008,1.612-1.082,3.227-3.215,4.46c-4.264,2.461-11.158,2.463-15.398,0
					c-2.117-1.23-3.172-2.846-3.162-4.46l0,0v-2.788H429.891z"/>
				<g>
					<path fill="#575756" d="M411.327,589.729c4.271-2.467,11.164-2.462,15.4,0c4.242,2.463,4.219,6.451-0.051,8.918
						c-4.264,2.461-11.158,2.466-15.398,0C407.042,596.184,407.065,592.189,411.327,589.729"/>
				</g>
			</g>
			<g>
				<path fill="#868686" d="M429.891,585.554v2.79l0,0c-0.008,1.613-1.082,3.229-3.215,4.459c-4.264,2.461-11.158,2.466-15.398,0
					c-2.117-1.23-3.172-2.846-3.162-4.459l0,0v-2.79H429.891z"/>
				<g>
					<path fill="#575756" d="M411.327,581.096c4.271-2.467,11.164-2.463,15.4,0c4.242,2.466,4.219,6.454-0.051,8.918
						c-4.264,2.461-11.158,2.465-15.398,0C407.042,587.553,407.065,583.555,411.327,581.096"/>
				</g>
			</g>
			<g>
				<path fill="#868686" d="M429.891,576.922v2.789l0,0c-0.008,1.613-1.082,3.227-3.215,4.46c-4.264,2.461-11.158,2.464-15.398,0
					c-2.117-1.23-3.172-2.845-3.162-4.46l0,0v-2.789H429.891z"/>
				<g>
					<path fill="#575756" d="M411.327,572.462c4.271-2.464,11.164-2.46,15.4,0c4.242,2.466,4.219,6.454-0.051,8.919
						c-4.264,2.462-11.158,2.467-15.398,0C407.042,578.921,407.065,574.926,411.327,572.462"/>
				</g>
			</g>
			<g>
				<path fill="#868686" d="M429.891,568.291v2.789l0,0c-0.008,1.613-1.082,3.227-3.215,4.46c-4.264,2.46-11.158,2.464-15.398,0
					c-2.117-1.232-3.172-2.847-3.162-4.46l0,0v-2.789H429.891z"/>
				<g>
					<path fill="#575756" d="M411.327,563.832c4.271-2.465,11.164-2.461,15.4,0c4.242,2.467,4.219,6.453-0.051,8.918
						c-4.264,2.463-11.158,2.465-15.398,0C407.042,570.289,407.065,566.293,411.327,563.832"/>
				</g>
			</g>
		</g>
		<polygon fill="#C6C6C5" points="556.891,827.118 308.531,683.728 308.531,695.635 556.891,839.025 		"/>
		<polygon fill="#B1B1B1" points="556.891,827.118 805.25,683.728 805.25,695.635 556.891,839.025 		"/>
		<g>
			<polygon fill="#EDEDED" points="805.25,683.728 556.085,540.335 308.531,683.728 556.891,827.118 			"/>
		</g>
	</g>
	<g id="risque-plateau">
		<g>
			<g>
				<path fill="#868686" d="M737.157,428.517v2.787l0,0c-0.008,1.613-1.082,3.229-3.215,4.461c-4.264,2.461-11.158,2.465-15.398,0
					c-2.117-1.23-3.172-2.846-3.162-4.461l0,0v-2.787H737.157z"/>
				<g>
					<path fill="#575756" d="M718.592,424.058c4.271-2.466,11.164-2.462,15.4,0c4.242,2.465,4.219,6.453-0.051,8.918
						c-4.264,2.461-11.158,2.465-15.398,0C714.307,430.514,714.331,426.519,718.592,424.058"/>
				</g>
			</g>
			<g>
				<path fill="#868686" d="M737.157,419.886v2.788l0,0c-0.008,1.612-1.082,3.227-3.215,4.46c-4.264,2.461-11.158,2.463-15.398,0
					c-2.117-1.23-3.172-2.846-3.162-4.46l0,0v-2.788H737.157z"/>
				<g>
					<path fill="#575756" d="M718.592,415.427c4.271-2.467,11.164-2.462,15.4,0c4.242,2.463,4.219,6.451-0.051,8.918
						c-4.264,2.461-11.158,2.466-15.398,0C714.307,421.882,714.331,417.888,718.592,415.427"/>
				</g>
			</g>
			<g>
				<path fill="#868686" d="M737.157,411.252v2.79l0,0c-0.008,1.613-1.082,3.229-3.215,4.459c-4.264,2.461-11.158,2.466-15.398,0
					c-2.117-1.23-3.172-2.846-3.162-4.459l0,0v-2.79H737.157z"/>
				<g>
					<path fill="#575756" d="M718.592,406.794c4.271-2.467,11.164-2.463,15.4,0c4.242,2.466,4.219,6.454-0.051,8.918
						c-4.264,2.461-11.158,2.465-15.398,0C714.307,413.251,714.331,409.253,718.592,406.794"/>
				</g>
			</g>
			<g>
				<path fill="#868686" d="M737.157,402.62v2.789l0,0c-0.008,1.613-1.082,3.227-3.215,4.46c-4.264,2.461-11.158,2.464-15.398,0
					c-2.117-1.23-3.172-2.845-3.162-4.46l0,0v-2.789H737.157z"/>
				<g>
					<path fill="#575756" d="M718.592,398.16c4.271-2.464,11.164-2.46,15.4,0c4.242,2.466,4.219,6.454-0.051,8.919
						c-4.264,2.462-11.158,2.467-15.398,0C714.307,404.619,714.331,400.624,718.592,398.16"/>
				</g>
			</g>
			<g>
				<path fill="#868686" d="M737.157,393.989v2.789l0,0c-0.008,1.613-1.082,3.227-3.215,4.46c-4.264,2.46-11.158,2.464-15.398,0
					c-2.117-1.232-3.172-2.847-3.162-4.46l0,0v-2.789H737.157z"/>
				<g>
					<path fill="#575756" d="M718.592,389.53c4.271-2.465,11.164-2.461,15.4,0c4.242,2.467,4.219,6.453-0.051,8.918
						c-4.264,2.463-11.158,2.465-15.398,0C714.307,395.987,714.331,391.991,718.592,389.53"/>
				</g>
			</g>
		</g>
		<polygon fill="#C6C6C5" points="871.2,645.65 622.84,502.261 622.84,514.168 871.2,657.559 		"/>
		<polygon fill="#B1B1B1" points="871.2,645.65 1119.56,502.261 1119.56,514.168 871.2,657.559 		"/>
		<g>
			<polygon fill="#EDEDED" points="1119.56,502.261 870.395,358.87 622.84,502.261 871.2,645.65 			"/>
		</g>
	</g>
	<g id="valeur-plateau">
		<g>
			<g>
				<path fill="#868686" d="M1047.887,249.915v2.787l0,0c-0.008,1.613-1.082,3.229-3.215,4.461c-4.264,2.461-11.158,2.465-15.398,0
					c-2.117-1.23-3.172-2.846-3.162-4.461l0,0v-2.787H1047.887z"/>
				<g>
					<path fill="#575756" d="M1029.322,245.456c4.271-2.466,11.164-2.462,15.4,0c4.242,2.465,4.219,6.453-0.051,8.918
						c-4.264,2.461-11.158,2.465-15.398,0C1025.037,251.912,1025.061,247.917,1029.322,245.456"/>
				</g>
			</g>
			<g>
				<path fill="#868686" d="M1047.887,241.284v2.788l0,0c-0.008,1.612-1.082,3.227-3.215,4.46c-4.264,2.461-11.158,2.463-15.398,0
					c-2.117-1.23-3.172-2.846-3.162-4.46l0,0v-2.788H1047.887z"/>
				<g>
					<path fill="#575756" d="M1029.322,236.825c4.271-2.467,11.164-2.462,15.4,0c4.242,2.463,4.219,6.451-0.051,8.918
						c-4.264,2.461-11.158,2.466-15.398,0C1025.037,243.28,1025.061,239.286,1029.322,236.825"/>
				</g>
			</g>
			<g>
				<path fill="#868686" d="M1047.887,232.65v2.79l0,0c-0.008,1.613-1.082,3.229-3.215,4.459c-4.264,2.461-11.158,2.466-15.398,0
					c-2.117-1.23-3.172-2.846-3.162-4.459l0,0v-2.79H1047.887z"/>
				<g>
					<path fill="#575756" d="M1029.322,228.192c4.271-2.467,11.164-2.463,15.4,0c4.242,2.466,4.219,6.454-0.051,8.918
						c-4.264,2.461-11.158,2.465-15.398,0C1025.037,234.649,1025.061,230.651,1029.322,228.192"/>
				</g>
			</g>
			<g>
				<path fill="#868686" d="M1047.887,224.019v2.789l0,0c-0.008,1.613-1.082,3.227-3.215,4.46c-4.264,2.461-11.158,2.464-15.398,0
					c-2.117-1.23-3.172-2.845-3.162-4.46l0,0v-2.789H1047.887z"/>
				<g>
					<path fill="#575756" d="M1029.322,219.559c4.271-2.464,11.164-2.46,15.4,0c4.242,2.466,4.219,6.454-0.051,8.919
						c-4.264,2.462-11.158,2.467-15.398,0C1025.037,226.018,1025.061,222.022,1029.322,219.559"/>
				</g>
			</g>
			<g>
				<path fill="#868686" d="M1047.887,215.388v2.789l0,0c-0.008,1.613-1.082,3.227-3.215,4.46c-4.264,2.46-11.158,2.464-15.398,0
					c-2.117-1.232-3.172-2.847-3.162-4.46l0,0v-2.789H1047.887z"/>
				<g>
					<path fill="#575756" d="M1029.322,210.929c4.271-2.465,11.164-2.461,15.4,0c4.242,2.467,4.219,6.453-0.051,8.918
						c-4.264,2.463-11.158,2.465-15.398,0C1025.037,217.386,1025.061,213.39,1029.322,210.929"/>
				</g>
			</g>
		</g>
		<polygon fill="#C6C6C5" points="1185.509,464.186 937.151,320.795 937.151,332.703 1185.509,476.094 		"/>
		<polygon fill="#B1B1B1" points="1185.509,464.186 1433.869,320.795 1433.869,332.703 1185.509,476.094 		"/>
		<g>
			<polygon fill="#EDEDED" points="1433.869,320.795 1184.705,177.404 937.151,320.795 1185.509,464.186 			"/>
		</g>
	</g>
</g>
<g id="etape_1">
	<g id="valeur-dispatch">
		<path fill="#E79027" d="M1122.087,342.745c0.011-3.864-2.705-8.57-6.067-10.51c-1.653-0.954-3.151-1.061-4.251-0.468l-0.003-0.003
			l-6.966,4.054l0.003,0.004c-1.075,0.642-1.743,1.981-1.748,3.884c-0.012,3.864,2.705,8.568,6.067,10.509
			c1.882,1.086,3.565,1.075,4.687,0.18l0.002,0.001l3.466-1.973c0.023-0.012,0.044-0.024,0.066-0.037l2.998-1.754l-0.001-0.001
			C1121.416,345.989,1122.082,344.648,1122.087,342.745z"/>
		<path fill="#E79027" d="M1225.824,282.91c1.882,1.086,3.566,1.075,4.688,0.178v0.002l3.468-1.973
			c0.021-0.012,0.044-0.024,0.066-0.037l2.997-1.754l-0.002-0.001c1.077-0.642,1.744-1.983,1.748-3.887
			c0.011-3.864-2.705-8.568-6.068-10.51c-1.651-0.953-3.15-1.06-4.25-0.467l-0.003-0.004l-6.908,4.021l-0.014,0.008l-0.044,0.026
			l0.002,0.002c-1.076,0.642-1.742,1.982-1.748,3.884C1219.745,276.264,1222.463,280.969,1225.824,282.91z"/>
		<polygon fill="#E79027" points="1140.212,332.981 1140.212,342.043 1159.945,353.437 1166.02,349.927 1166.02,340.865 
			1146.222,329.471 		"/>
		<polygon fill="#E79027" points="1238.733,307.725 1238.733,298.662 1218.936,287.27 1212.926,290.78 1212.926,299.841 
			1232.66,311.234 		"/>
		<path fill="#E79027" d="M1155.131,354.861c-1.652-0.955-3.151-1.062-4.252-0.469l-0.002-0.004l-6.91,4.023l-0.011,0.005
			l-0.045,0.027l0.001,0.004c-1.074,0.642-1.742,1.981-1.748,3.883c-0.009,3.864,2.707,8.569,6.069,10.509
			c1.881,1.086,3.566,1.076,4.688,0.179v0.001l3.468-1.971c0.021-0.014,0.043-0.024,0.065-0.038l2.997-1.754v-0.001
			c1.075-0.643,1.742-1.984,1.747-3.887C1161.209,361.506,1158.492,356.801,1155.131,354.861z"/>
		<path fill="#E79027" d="M1267.582,287.086l-0.004-0.004l-6.909,4.022c0,0-0.006,0.004-0.01,0.005l-0.047,0.027l0.002,0.004
			c-1.075,0.642-1.742,1.981-1.747,3.883c-0.01,3.863,2.705,8.569,6.068,10.51c1.882,1.086,3.566,1.075,4.688,0.178v0.001
			l3.466-1.971c0.023-0.014,0.046-0.024,0.066-0.038l2.998-1.753c1.075-0.644,1.742-1.985,1.747-3.887
			c0.012-3.864-2.705-8.569-6.068-10.509C1270.182,286.601,1268.683,286.493,1267.582,287.086z"/>
		<path fill="#E79027" d="M1112.956,278.986l-7.028-4.874l-0.48,1.139l-0.679-0.47l-0.482,1.142l-0.678-0.471l-0.481,1.14
			l-0.68-0.471l-0.48,1.14l-0.68-0.471l-1.35,3.196l0.96,0.559l-0.001,0.109c-0.073,0.088-0.121,0.184-0.119,0.28h-0.002v0.632
			h0.002c0,0.109,0.066,0.213,0.162,0.312c-0.097,0.099-0.164,0.205-0.162,0.316h-0.002v0.633l0,0
			c0.002,0.108,0.067,0.214,0.162,0.312c-0.095,0.099-0.162,0.204-0.162,0.315l0,0v0.633h0.002c0,0.11,0.065,0.215,0.162,0.312
			c-0.097,0.099-0.164,0.205-0.162,0.314h-0.002v0.633h0.002c0,0.11,0.065,0.214,0.16,0.313c-0.095,0.1-0.162,0.205-0.162,0.315l0,0
			v0.633l0,0c0.002,0.166,0.111,0.331,0.33,0.457l5.046,2.914c0.438,0.253,1.146,0.253,1.579,0l5.015-2.914
			c0.219-0.127,0.327-0.293,0.324-0.46v-0.627c0-0.11-0.065-0.216-0.162-0.315c0.099-0.099,0.163-0.206,0.162-0.317v-0.628
			c0-0.11-0.065-0.216-0.162-0.315c0.099-0.099,0.163-0.205,0.162-0.316v-0.628c0-0.035-0.024-0.069-0.034-0.104l1.25-0.721
			c0.34,0.396,0.719,0.738,1.127,0.974c0.771,0.446,1.453,0.428,1.913,0.06l0.008,0.014l11.504-6.621l0.026-0.015l-11.246,6.487
			l11.257-6.492c0.441-0.264,0.712-0.813,0.715-1.593c0.001-0.476-0.108-0.984-0.287-1.483l1.182-0.682c0,0-0.005,0.003-0.008,0.005
			l-0.308,0.176l-0.866,0.501l-0.001-0.001l0.867-0.5l0.318-0.184c0.133-0.079,0.216-0.246,0.216-0.483
			c0.003-0.479-0.336-1.064-0.754-1.306c-0.204-0.117-0.391-0.131-0.527-0.057l-1.189,0.685c-0.34-0.397-0.72-0.739-1.128-0.975
			c-0.678-0.391-1.292-0.436-1.743-0.193l-11.257,6.491l-0.433,0.253c-0.007,0.003-0.012,0.005-0.012,0.005l-0.017,0.011
			l0.001,0.002C1113.268,277.936,1113.023,278.378,1112.956,278.986z M1113.035,283.353c0-0.001-0.001-0.003-0.001-0.003l1.249-0.72
			l0.002,0.002L1113.035,283.353z"/>
		<polygon fill="#E79027" points="1186.004,328.297 1200.586,319.866 1200.586,317.274 1184.719,311.935 1184.719,311.908 
			1180.184,289.42 1177.896,288.696 1163.376,297.128 1170.268,320.806 1172.257,321.715 1172.26,321.714 		"/>
		<polygon fill="#E79027" points="1266.693,354.408 1260.494,358.011 1252.12,347.265 1250.644,343.607 1241.824,333.942 
			1237.321,336.558 1237.197,336.629 1232.696,339.247 1232.696,341.023 1241.516,350.689 1245.427,352.933 1254.54,361.472 
			1249.49,364.406 1238.097,362.67 1227.507,371.814 1227.507,376.991 1255.272,375.184 1265.826,369.051 1276.382,362.914 
			1279.412,346.826 1279.412,341.651 1268.822,344.812 		"/>
		<path fill="#E79027" d="M1199.948,379.472v-0.019c-0.093-0.009-0.188-0.006-0.29,0.005c-0.279,0.008-0.578,0.068-0.893,0.186
			c-1.305,0.33-3.375,0.801-7.382-0.808v-4.233l-4.812-2.789l-4.844,2.789v5.549l4.828,2.787l2.268-1.31l3.212,6.674
			c0,0,5.041,2.871,5.214,2.871c0.066,0-0.089-0.991-0.305-2.227l2.688-0.144l0.661-2.445c-0.057-0.049-0.114-0.096-0.172-0.144
			c0.946-1.272,1.569-2.87,1.565-4.276C1201.686,380.457,1200.981,379.58,1199.948,379.472z"/>
		<path fill="#E79027" d="M1304.181,363.883l0.022-0.013c-0.003-0.017-0.006-0.035-0.006-0.052l-0.02,0.011l-0.001-0.152
			c-0.009-0.061-0.022-0.12-0.034-0.178c-0.002-0.018-0.005-0.037-0.01-0.054c-0.003-0.012-0.004-0.025-0.007-0.037v0.015
			c-0.016-0.074-0.046-0.13-0.065-0.201l0.02-0.011c-0.004-0.018-0.01-0.033-0.014-0.049l-0.02,0.012
			c-0.057-0.197-0.105-0.397-0.184-0.567l0.001-0.001l-0.008-0.018l-0.003-0.007c-0.004-0.006-0.006-0.014-0.01-0.02l-0.003,0.001
			c-0.084-0.175-0.195-0.319-0.304-0.464v-0.034l0.004-0.002c-0.018-0.022-0.035-0.043-0.053-0.065v0.027
			c-0.128-0.161-0.275-0.291-0.432-0.41l0.027-0.016c-0.016-0.011-0.028-0.022-0.043-0.031l-0.023,0.015
			c-0.041-0.03-0.075-0.068-0.117-0.095v-0.016c-0.016-0.011-0.032-0.022-0.049-0.03v0.007c0,0-0.002-0.001-0.002-0.003l0.004-0.006
			l-2.173-1.28l-0.002,0.004c-0.877-0.472-2.07-0.387-3.386,0.372c-2.677,1.545-4.84,5.293-4.832,8.369
			c0.005,1.516,0.535,2.585,1.393,3.095l2.116,1.248v-0.001c0.14,0.08,0.3,0.121,0.455,0.171l-0.033,0.019
			c0.021,0.005,0.041,0.014,0.062,0.019l0.028-0.016c0.018,0.006,0.034,0.014,0.053,0.019v0.022c0.016,0.004,0.031,0.008,0.048,0.01
			v-0.014c0.186,0.045,0.383,0.058,0.587,0.063v0.027c0.017,0.001,0.032,0.001,0.049,0.001v-0.025c0.078,0,0.152,0.016,0.233,0.01
			l-0.015,0.008c0.025-0.001,0.05-0.004,0.076-0.005c0,0,0.009,0,0.014-0.002l0.022-0.001l0.009-0.005
			c0.078-0.009,0.165-0.041,0.246-0.054v0.024c0.018-0.002,0.033-0.006,0.05-0.009v-0.026c0.192-0.035,0.383-0.061,0.585-0.13v0.001
			c0.016-0.007,0.032-0.012,0.048-0.018v-0.007c0.19-0.067,0.39-0.172,0.586-0.27v0.024c0.016-0.009,0.033-0.015,0.049-0.023v-0.023
			c0.098-0.049,0.19-0.076,0.288-0.133c0.103-0.06,0.197-0.142,0.299-0.207v0.023c0.016-0.009,0.033-0.021,0.047-0.031v-0.026
			c0.197-0.129,0.395-0.254,0.585-0.406v0.005c0.017-0.014,0.033-0.026,0.05-0.038v-0.001c0.203-0.166,0.392-0.359,0.585-0.547
			v0.024c0.017-0.015,0.032-0.03,0.048-0.046v-0.025c0.078-0.076,0.163-0.141,0.238-0.221l0.007-0.004l0.018-0.019
			c0.007-0.007,0.013-0.014,0.019-0.02c0.024-0.027,0.051-0.054,0.077-0.082l-0.017,0.009c0.085-0.092,0.16-0.196,0.243-0.292v0.026
			c0.016-0.019,0.032-0.038,0.048-0.057v-0.027c0.203-0.242,0.401-0.485,0.586-0.746v0.018c0.016-0.021,0.033-0.045,0.047-0.068
			v-0.021c0.016-0.021,0.027-0.042,0.041-0.062l0.03-0.018c0.021-0.031,0.04-0.061,0.062-0.094l-0.032,0.019
			c0.166-0.249,0.335-0.496,0.482-0.756v0.007c0.017-0.029,0.032-0.057,0.05-0.085v-0.018c0.032-0.06,0.06-0.123,0.091-0.182
			l0.023-0.013c0.015-0.026,0.027-0.052,0.043-0.079l-0.027,0.015c0.161-0.307,0.312-0.615,0.444-0.93l0.008-0.005v0.01
			c0.016-0.04,0.034-0.079,0.048-0.119v-0.041c0.103-0.256,0.206-0.513,0.285-0.772l0.004-0.002c0.008-0.023,0.016-0.046,0.023-0.07
			h-0.001c0.079-0.259,0.126-0.517,0.181-0.776l0.021-0.012c0.004-0.021,0.01-0.043,0.014-0.065l-0.02,0.011
			c0.021-0.104,0.055-0.209,0.072-0.313v0.016c0.002-0.016,0.005-0.031,0.008-0.047c0.002-0.021,0.005-0.039,0.009-0.06
			c0.012-0.073,0.023-0.145,0.032-0.218v-0.12l0.016-0.008c0.003-0.019,0.004-0.04,0.006-0.06l-0.022,0.012
			c0.024-0.237,0.058-0.477,0.058-0.707l0.002-0.001c0-0.015,0.002-0.03,0.002-0.045v-0.011h-0.002
			C1304.24,364.292,1304.205,364.092,1304.181,363.883z"/>
		<path fill="#E79027" d="M1273.479,382.066l0.023-0.014c-0.001-0.018-0.004-0.035-0.007-0.053l-0.017,0.011l-0.003-0.152
			c-0.009-0.063-0.021-0.126-0.033-0.188c-0.003-0.011-0.004-0.023-0.007-0.034c-0.003-0.015-0.005-0.031-0.008-0.046v0.02
			c-0.017-0.075-0.048-0.133-0.066-0.205l0.019-0.011c-0.004-0.018-0.01-0.032-0.014-0.049l-0.021,0.012
			c-0.054-0.197-0.105-0.397-0.183-0.567l0.001-0.001l-0.006-0.016c0,0-0.005-0.007-0.007-0.011c0,0-0.005-0.011-0.008-0.018
			l-0.003,0.001c-0.084-0.175-0.193-0.318-0.303-0.463v-0.036l0.004-0.002c-0.018-0.023-0.035-0.045-0.054-0.066v0.027
			c-0.129-0.16-0.276-0.291-0.433-0.41l0.027-0.017c-0.014-0.009-0.027-0.02-0.041-0.03l-0.025,0.014
			c-0.04-0.028-0.074-0.068-0.116-0.094v-0.018c-0.017-0.01-0.032-0.02-0.049-0.03v0.006l-0.003-0.002l0.003-0.005l-0.039-0.023
			c-0.002,0-0.002-0.001-0.002-0.001l-2.13-1.256l-0.002,0.002c-0.877-0.472-2.069-0.385-3.385,0.374
			c-2.678,1.545-4.841,5.292-4.833,8.368c0.005,1.515,0.536,2.583,1.392,3.094v0.002l2.115,1.247l0.002-0.002
			c0.139,0.081,0.299,0.122,0.454,0.172l-0.031,0.018c0.02,0.007,0.04,0.014,0.062,0.021l0.028-0.017
			c0.017,0.006,0.033,0.015,0.053,0.02v0.02c0.015,0.005,0.03,0.008,0.048,0.013v-0.015c0.184,0.046,0.384,0.06,0.586,0.064v0.027
			c0.016,0.001,0.032,0.001,0.05,0.001v-0.025c0.078,0.001,0.15,0.016,0.231,0.011l-0.015,0.008
			c0.024-0.001,0.047-0.004,0.068-0.005c0.012-0.002,0.022-0.002,0.032-0.003l0.012-0.001l0.004-0.002
			c0.08-0.008,0.17-0.041,0.253-0.056v0.023c0.016-0.003,0.032-0.005,0.048-0.008v-0.026c0.193-0.035,0.382-0.061,0.585-0.13v0.001
			c0.018-0.006,0.033-0.014,0.05-0.019v-0.006c0.189-0.066,0.388-0.171,0.585-0.269v0.023c0.018-0.008,0.033-0.015,0.051-0.023
			v-0.024c0.096-0.049,0.188-0.075,0.286-0.132c0.102-0.059,0.198-0.141,0.299-0.208v0.024c0.015-0.011,0.03-0.022,0.048-0.033
			v-0.024c0.196-0.13,0.395-0.254,0.585-0.404v0.002c0.013-0.011,0.028-0.021,0.041-0.033l0.006-0.005h0.001l0,0
			c0.203-0.166,0.394-0.36,0.586-0.548v0.025c0.016-0.015,0.033-0.031,0.049-0.048v-0.023c0.076-0.076,0.161-0.141,0.238-0.221
			l0.006-0.004c0.006-0.007,0.012-0.013,0.019-0.02c0.005-0.007,0.013-0.014,0.02-0.019c0.024-0.027,0.048-0.054,0.074-0.082
			l-0.015,0.01c0.084-0.092,0.16-0.197,0.241-0.292v0.026c0.017-0.02,0.033-0.038,0.05-0.058v-0.026
			c0.202-0.24,0.398-0.483,0.583-0.743v0.014c0.018-0.021,0.033-0.043,0.05-0.066v-0.021c0.013-0.021,0.026-0.042,0.04-0.064
			l0.03-0.016c0.021-0.031,0.04-0.062,0.062-0.094l-0.031,0.018c0.167-0.247,0.333-0.495,0.482-0.755v0.006
			c0.016-0.028,0.032-0.058,0.048-0.085v-0.018c0.032-0.06,0.06-0.122,0.093-0.182l0.022-0.013c0.014-0.026,0.029-0.053,0.042-0.08
			l-0.025,0.015c0.16-0.306,0.312-0.614,0.442-0.93l0.009-0.004v0.01c0.016-0.041,0.033-0.079,0.049-0.118v-0.041
			c0.102-0.257,0.204-0.514,0.285-0.772l0.004-0.003c0.008-0.024,0.016-0.046,0.023-0.069h-0.002
			c0.079-0.259,0.127-0.517,0.181-0.776l0.021-0.013c0.004-0.021,0.01-0.043,0.014-0.065l-0.02,0.011
			c0.021-0.105,0.056-0.209,0.072-0.314v0.015c0.003-0.014,0.004-0.029,0.007-0.042c0.004-0.023,0.008-0.044,0.01-0.068
			c0.011-0.072,0.024-0.144,0.033-0.215v-0.119l0.015-0.008c0.002-0.02,0.004-0.041,0.005-0.061l-0.02,0.014v-0.011
			c0.023-0.233,0.054-0.468,0.055-0.695l0.004-0.003c0-0.015,0-0.03,0-0.045v-0.012h-0.001
			C1273.538,382.474,1273.503,382.275,1273.479,382.066z"/>
		<polygon fill="#E79027" points="1079.156,270.351 1085.104,273.905 1086.613,273.017 1086.613,266.038 1092.964,262.362 
			1098.926,265.925 1100.436,265.037 1100.436,258.04 1111.561,251.602 1111.561,249.739 1101.507,236.927 1100.064,237.816 
			1100.064,244.811 1067.354,263.767 1063.53,258.897 1062.086,259.786 1062.086,266.82 1062.086,268.684 1072.074,274.449 		"/>
		<path fill="#E79027" d="M1243.894,244.534c-0.013,0.032-0.027,0.062-0.039,0.096c-0.141,0.424-0.242,0.888-0.321,1.373
			c-0.021,0.118-0.039,0.239-0.055,0.361c-0.066,0.505-0.114,1.028-0.116,1.592c-0.017,6.618,4.634,14.677,10.396,18
			c0.326,0.189,0.649,0.353,0.97,0.504c0.094,0.045,0.187,0.083,0.28,0.125c0.231,0.1,0.46,0.193,0.686,0.274
			c0.098,0.035,0.195,0.07,0.291,0.103c0.246,0.081,0.489,0.147,0.729,0.204c0.061,0.015,0.123,0.035,0.184,0.047
			c0.296,0.064,0.585,0.109,0.866,0.137c0.075,0.007,0.146,0.007,0.218,0.011c0.209,0.015,0.415,0.02,0.616,0.015
			c0.095-0.001,0.188-0.007,0.279-0.014c0.184-0.014,0.364-0.037,0.541-0.065c0.083-0.014,0.166-0.024,0.248-0.042
			c0.243-0.052,0.481-0.115,0.709-0.198c0.051-0.019,0.099-0.046,0.149-0.066c0.178-0.07,0.351-0.15,0.521-0.242
			c0.083-0.045,0.164-0.096,0.245-0.146c0.088-0.055,0.177-0.107,0.26-0.167l5.564-3.261l-0.002-0.002
			c1.844-1.1,2.985-3.397,2.995-6.656c0.019-6.619-4.635-14.677-10.394-18.001c-2.828-1.633-5.396-1.816-7.281-0.801l-0.004-0.008
			l-6.123,3.594l0.016,0.028c-0.016,0.011-0.03,0.023-0.047,0.034c-0.062,0.037-0.118,0.08-0.176,0.121
			c-0.285,0.196-0.555,0.417-0.8,0.674c-0.027,0.028-0.059,0.051-0.085,0.081c-0.259,0.281-0.488,0.603-0.696,0.952
			c-0.047,0.079-0.093,0.162-0.137,0.246C1244.194,243.773,1244.029,244.136,1243.894,244.534z M1261.981,260.82l-4.286-5.329
			l3.973-0.341c0.338,1.246,0.529,2.49,0.526,3.676C1262.191,259.553,1262.115,260.214,1261.981,260.82z M1256.027,258.615
			l2.51,3.118c-0.877-0.618-1.715-1.345-2.512-2.15L1256.027,258.615z M1256.049,251.706l0.016-5.731
			c1.621,1.453,3.043,3.333,4.107,5.377L1256.049,251.706z M1252.513,243.692l-0.015,5.336l-3.174-3.944
			c-0.009-0.202-0.025-0.407-0.025-0.607c0.002-0.438,0.029-0.851,0.071-1.255C1250.31,243.09,1251.373,243.24,1252.513,243.692z"/>
		<path fill="#E79027" d="M1308.934,278.932c0.02-6.619-4.633-14.676-10.394-18.001c-2.828-1.633-5.396-1.816-7.28-0.801
			l-0.004-0.008l-6.123,3.594l0.016,0.028c-0.016,0.011-0.031,0.023-0.048,0.034c-0.06,0.037-0.117,0.08-0.175,0.119
			c-0.287,0.197-0.558,0.419-0.805,0.677c-0.025,0.027-0.054,0.049-0.079,0.078c-0.26,0.283-0.49,0.605-0.7,0.956
			c-0.045,0.077-0.088,0.158-0.131,0.237c-0.188,0.345-0.356,0.711-0.494,1.113c-0.01,0.03-0.023,0.056-0.032,0.085
			c-0.143,0.426-0.245,0.892-0.325,1.378c-0.021,0.117-0.037,0.235-0.053,0.354c-0.066,0.506-0.114,1.031-0.116,1.595
			c-0.018,6.619,4.635,14.677,10.394,18.001c0.326,0.188,0.648,0.353,0.969,0.503c0.096,0.045,0.189,0.084,0.285,0.125
			c0.229,0.101,0.457,0.193,0.681,0.274c0.1,0.035,0.197,0.07,0.295,0.103c0.243,0.08,0.485,0.147,0.722,0.204
			c0.063,0.015,0.127,0.035,0.189,0.049c0.295,0.062,0.584,0.107,0.866,0.135c0.074,0.008,0.146,0.008,0.218,0.012
			c0.21,0.015,0.415,0.021,0.616,0.015c0.094-0.001,0.187-0.006,0.278-0.014c0.186-0.013,0.365-0.037,0.544-0.065
			c0.081-0.015,0.165-0.024,0.245-0.042c0.244-0.051,0.482-0.116,0.712-0.2c0.047-0.018,0.091-0.042,0.138-0.061
			c0.183-0.072,0.359-0.153,0.531-0.247c0.082-0.043,0.16-0.094,0.24-0.143c0.09-0.056,0.181-0.11,0.268-0.173l5.561-3.258
			l-0.001-0.003C1307.783,284.489,1308.926,282.191,1308.934,278.932z M1300.809,283.237l-4.285-5.329l3.973-0.34
			c0.338,1.246,0.529,2.49,0.527,3.676C1301.02,281.97,1300.944,282.632,1300.809,283.237z M1294.876,274.124l0.016-5.731
			c1.623,1.453,3.042,3.333,4.108,5.376L1294.876,274.124z M1291.34,266.109l-0.014,5.336l-3.175-3.945
			c-0.009-0.203-0.026-0.408-0.025-0.607c0.002-0.437,0.029-0.852,0.071-1.253C1289.138,265.508,1290.2,265.657,1291.34,266.109z
			 M1294.856,281.034l2.506,3.117c-0.874-0.617-1.713-1.345-2.509-2.149L1294.856,281.034z"/>
		<path fill="#E79027" d="M1079.117,342.78c-2.827-1.633-5.395-1.816-7.279-0.801l-0.006-0.008l-6.122,3.594l0.017,0.03
			c-0.017,0.009-0.033,0.023-0.05,0.034c-0.059,0.036-0.113,0.078-0.169,0.117c-0.289,0.197-0.562,0.421-0.811,0.682
			c-0.024,0.026-0.052,0.048-0.077,0.073c-0.26,0.284-0.491,0.607-0.7,0.958c-0.046,0.076-0.089,0.156-0.132,0.235
			c-0.188,0.346-0.356,0.712-0.493,1.116c-0.011,0.028-0.023,0.054-0.033,0.083c-0.142,0.426-0.243,0.894-0.324,1.379
			c-0.021,0.117-0.037,0.235-0.052,0.354c-0.068,0.506-0.116,1.031-0.117,1.595c-0.019,6.619,4.634,14.677,10.393,18.001
			c0.328,0.189,0.651,0.353,0.97,0.503c0.096,0.045,0.189,0.084,0.283,0.125c0.23,0.101,0.458,0.193,0.683,0.274
			c0.099,0.035,0.196,0.07,0.295,0.104c0.243,0.08,0.485,0.146,0.724,0.203c0.062,0.015,0.125,0.035,0.188,0.049
			c0.295,0.062,0.582,0.107,0.866,0.135c0.074,0.008,0.146,0.008,0.219,0.012c0.21,0.015,0.414,0.021,0.614,0.015
			c0.095-0.001,0.187-0.007,0.279-0.013c0.185-0.014,0.364-0.037,0.543-0.066c0.082-0.014,0.165-0.024,0.246-0.042
			c0.243-0.052,0.481-0.115,0.711-0.2c0.046-0.018,0.09-0.041,0.136-0.06c0.184-0.074,0.362-0.155,0.534-0.249
			c0.081-0.044,0.16-0.094,0.237-0.142c0.09-0.055,0.181-0.109,0.267-0.17l5.564-3.262l-0.002-0.002
			c1.843-1.1,2.985-3.397,2.993-6.656C1089.53,354.163,1084.878,346.105,1079.117,342.78z M1081.386,365.086l-4.286-5.329
			l3.976-0.34c0.337,1.246,0.529,2.49,0.524,3.676C1081.6,363.819,1081.521,364.482,1081.386,365.086z M1075.454,355.972l0.015-5.73
			c1.623,1.452,3.043,3.333,4.109,5.376L1075.454,355.972z M1071.918,347.958l-0.016,5.336l-3.174-3.944
			c-0.008-0.202-0.024-0.407-0.024-0.606c0.001-0.438,0.028-0.852,0.071-1.253C1069.716,347.357,1070.777,347.506,1071.918,347.958z
			 M1075.434,362.881l2.505,3.114c-0.874-0.616-1.713-1.344-2.507-2.148L1075.434,362.881z"/>
		<path fill="#E79027" d="M1117.945,365.197c-2.827-1.633-5.395-1.816-7.28-0.801l-0.004-0.008l-6.123,3.594l0.016,0.029
			c-0.016,0.011-0.032,0.024-0.05,0.035c-0.059,0.035-0.112,0.076-0.167,0.114c-0.29,0.2-0.564,0.425-0.815,0.687
			c-0.024,0.024-0.049,0.045-0.072,0.07c-0.261,0.284-0.494,0.608-0.703,0.96c-0.045,0.075-0.086,0.154-0.128,0.231
			c-0.19,0.347-0.359,0.718-0.499,1.124c-0.009,0.027-0.021,0.05-0.029,0.076c-0.142,0.427-0.244,0.894-0.326,1.382
			c-0.02,0.115-0.036,0.233-0.051,0.352c-0.068,0.506-0.116,1.032-0.117,1.596c-0.018,6.619,4.634,14.678,10.394,18.001
			c0.327,0.189,0.649,0.352,0.968,0.502c0.098,0.046,0.191,0.086,0.289,0.127c0.227,0.101,0.453,0.191,0.678,0.271
			c0.099,0.037,0.198,0.072,0.297,0.105c0.242,0.079,0.481,0.146,0.718,0.202c0.063,0.015,0.129,0.037,0.192,0.05
			c0.295,0.062,0.582,0.107,0.865,0.135c0.074,0.008,0.146,0.008,0.219,0.013c0.21,0.015,0.414,0.02,0.616,0.015
			c0.094-0.002,0.186-0.007,0.277-0.014c0.186-0.014,0.366-0.037,0.544-0.065c0.081-0.015,0.164-0.025,0.244-0.042
			c0.244-0.051,0.484-0.115,0.712-0.199c0.049-0.018,0.094-0.042,0.141-0.061c0.183-0.074,0.357-0.154,0.529-0.246
			c0.082-0.044,0.161-0.097,0.242-0.146c0.089-0.055,0.177-0.108,0.262-0.168l5.565-3.261l-0.003-0.003
			c1.844-1.099,2.985-3.396,2.995-6.656C1128.357,376.58,1123.705,368.522,1117.945,365.197z M1120.215,387.503l-4.286-5.329
			l3.974-0.34c0.338,1.247,0.529,2.49,0.524,3.676C1120.426,386.237,1120.349,386.898,1120.215,387.503z M1114.281,378.39
			l0.017-5.73c1.621,1.452,3.042,3.333,4.106,5.376L1114.281,378.39z M1110.746,370.375l-0.015,5.335l-3.175-3.944
			c-0.008-0.203-0.024-0.407-0.024-0.607c0.002-0.437,0.028-0.851,0.071-1.254C1108.543,369.774,1109.605,369.923,1110.746,370.375z
			 M1114.261,385.298l2.506,3.116c-0.874-0.617-1.713-1.344-2.508-2.149L1114.261,385.298z"/>
		<path fill="#E79027" d="M1124.188,301.643l-0.839,0.485h-0.002l-0.002,0.001v0.001c-0.052,0.031-0.086,0.098-0.086,0.191
			c0,0.192,0.135,0.425,0.301,0.522c0.094,0.055,0.168,0.041,0.226-0.004l0.007,0.013l0.821-0.474
			c0.628,0.972,1.427,1.815,2.313,2.327c1.117,0.646,2.104,0.621,2.77,0.088l0.013,0.019l1.046-0.603l0,0l5.231-3.017v-0.001
			l0.003-0.003l2.627-1.515v-0.002c0.639-0.38,1.034-1.175,1.037-2.305c0.003-1.004-0.316-2.097-0.828-3.109l4.591,2.65l8.133-4.694
			v-6.164l-5.401-3.104l-8.106,4.695v5.327c-0.57-0.764-1.253-1.415-1.989-1.839c-0.98-0.566-1.87-0.63-2.522-0.279l-0.002-0.002
			l-2.62,1.519c-0.003,0.001-0.005,0.001-0.005,0.001l-0.006-0.001l-5.46,3.17l-0.081,0.046c0,0,0.02-0.01,0.054-0.028l-1.013,0.586
			c-0.003,0.001-0.006,0.004-0.006,0.004l-0.03,0.017l0.003,0.004c-0.638,0.381-1.035,1.173-1.039,2.301
			C1123.322,299.491,1123.654,300.609,1124.188,301.643z"/>
	</g>
	<path fill="#E79027" d="M895.085,452.439c-0.324-0.669-0.514-1.497-0.516-2.484c-0.012-3.864,2.705-8.569,6.068-10.512
		c1.651-0.952,3.149-1.061,4.251-0.467l0.002-0.005l6.272,3.651v-5.102l19.797-11.396l2.761,1.613
		c-0.011-0.142-0.038-0.262-0.039-0.41c-0.012-3.864,2.704-8.567,6.066-10.508c1.652-0.953,3.151-1.062,4.251-0.467l0.002-0.005
		l5.124,2.983l0.897-1.153l3.735-1.273l-0.027-0.611l0.877-4.684l1.001-2.954l2.033-2.034l2.622-1.596l2.998-0.448l3.022,1.42
		l2.706,2.384l0.759,3.747l-0.874,5.094l-2.118,2.9l0.192,0.12l4.172,6.848l1.853,1.075l-2.046,7.027l2.53,1.469h0.007l0.001-0.002
		l5.378,3.122l0.105,0.062l0.058,0.032l-0.008-0.005l0.971,0.562l0.004,0.004l0.028,0.016l-0.003,0.006
		c0.639,0.38,1.036,1.173,1.038,2.303c0.004,1.023-0.328,2.142-0.859,3.173l0.292,0.171c1.034-1.537,2.322-2.864,3.743-3.684
		c1.651-0.953,3.15-1.062,4.251-0.468l0.003-0.004l6.896,4.015c0.013,0.008,0.025,0.016,0.038,0.021l0.03,0.02l-0.001,0.002
		c1.076,0.643,1.742,1.981,1.748,3.883c0.011,3.864-2.705,8.57-6.068,10.512c-1.881,1.086-3.566,1.075-4.688,0.178v0.002
		l-3.467-1.973c-0.021-0.013-0.044-0.023-0.065-0.037l-0.296-0.174v6.864l-19.732,11.393l-4.9-2.831
		c-0.504,3.562-2.972,7.475-5.963,9.202c-1.881,1.086-3.564,1.074-4.685,0.179h-0.002l-2.792-1.588l0.442,0.383v5.178l-27.765-1.809
		L896.088,473.1l-3.03-16.091v-5.176L895.085,452.439z M913.521,447.943c-0.409,3.638-2.915,7.708-5.986,9.48
		c-1.162,0.671-2.246,0.916-3.172,0.799l1.413,6.37l6.201,3.603l3.36-4.313l-3.088-2.887l2.284-2.362l4.714,0.23l1.103-1.415
		l1.477-3.657l8.82-9.666l0.648,0.377l0.386-0.429l-0.245,0.108l-0.884-0.225l-0.546-1.238l-12.77,7.371L913.521,447.943z
		 M928.834,467.864l3.713-1.224l8.293-12.803l-2.269-1.312l-7.616,8.348l-3.912,2.242l-9.113,8.54l5.049,2.936l9.025-1.377
		l-4.502-3.484L928.834,467.864z M940.813,439.421c0.064,0.063,0.132,0.125,0.194,0.188l6.482-2.213l1.797-4.548l-0.014-0.28
		c-0.798,0.905-1.682,1.686-2.629,2.232c-0.467,0.269-0.92,0.464-1.357,0.602l-0.778,1.011L940.813,439.421z M936.969,432.117v2.115
		l1.358-1.319L936.969,432.117z M945.102,465.043c1.651-0.953,3.15-1.062,4.252-0.467l0.001-0.006l6.904,4.021
		c0,0,0.016,0.01,0.023,0.014l0.039,0.023l-0.001,0.002c0.166,0.1,0.321,0.221,0.467,0.354v-4.901l19.797-11.393l1.627,0.949
		c-0.023-0.235-0.066-0.454-0.066-0.711c-0.005-1.979,0.711-4.176,1.858-6.111l-0.253-0.147c-0.626,0.972-1.426,1.815-2.312,2.327
		c-1.118,0.646-2.106,0.621-2.771,0.088l-0.013,0.021l-1.047-0.604l0.002,0.001l-5.232-3.02l-0.004-0.001l-0.375-0.219l-1.916,6.579
		l-1.988,0.912l-0.003-0.002l-13.744,6.584l-1.549-0.896l-1.896,2.995l-8.789,7.532l-1.925,4.923l-0.727-0.098l3.744,3.234
		c-0.103-0.448-0.172-0.931-0.173-1.472C939.023,471.69,941.738,466.985,945.102,465.043z"/>
	<path id="amelio-kart" fill="#E79027" d="M606.337,679.262c0.325-0.668,0.514-1.496,0.516-2.484
		c0.011-3.863-2.706-8.569-6.069-10.512c-1.651-0.952-3.149-1.062-4.25-0.466l-0.003-0.006l-6.272,3.651v-5.102l-19.797-11.396
		l-2.76,1.612c0.009-0.141,0.038-0.262,0.039-0.41c0.011-3.863-2.705-8.566-6.067-10.508c-1.652-0.953-3.151-1.062-4.251-0.467
		l-0.003-0.006l-5.124,2.983L551.399,645l-3.735-1.273l0.027-0.611l-0.877-4.684l-1.002-2.954l-2.032-2.033l-2.622-1.597
		l-2.999-0.448l-3.022,1.42l-2.705,2.385l-0.759,3.746l0.874,5.094l2.118,2.9l-0.193,0.119l-4.172,6.849l-1.852,1.075l2.046,7.027
		l-2.531,1.467l-0.007,0.002l-0.001-0.003l-5.378,3.123l-0.105,0.062l-0.058,0.032l0.008-0.005l-0.971,0.562
		c-0.001,0.001-0.002,0.002-0.002,0.002l-0.03,0.018l0.003,0.005c-0.638,0.38-1.036,1.173-1.039,2.303
		c-0.003,1.023,0.329,2.142,0.861,3.174l-0.292,0.17c-1.035-1.536-2.323-2.863-3.745-3.684c-1.651-0.953-3.149-1.062-4.25-0.467
		l-0.003-0.006l-6.895,4.017c-0.014,0.008-0.026,0.015-0.038,0.021l-0.031,0.019l0.001,0.002c-1.075,0.642-1.742,1.982-1.748,3.884
		c-0.011,3.864,2.704,8.569,6.067,10.511c1.882,1.087,3.566,1.075,4.688,0.178v0.001l3.468-1.971
		c0.021-0.013,0.043-0.024,0.065-0.038l0.295-0.174v6.864l19.733,11.394l4.9-2.833c0.503,3.562,2.972,7.477,5.963,9.202
		c1.88,1.087,3.565,1.076,4.685,0.18h0.001l2.792-1.589l-0.444,0.383v5.179l27.765-1.808l21.11-12.269l3.03-16.091v-5.175
		L606.337,679.262z M587.902,674.765c0.408,3.639,2.915,7.709,5.986,9.482c1.162,0.671,2.245,0.915,3.171,0.798l-1.414,6.371
		l-6.2,3.603l-3.362-4.315l3.089-2.886l-2.285-2.362l-4.713,0.231l-1.101-1.415l-1.477-3.657l-8.821-9.667l-0.649,0.378
		l-0.385-0.429l0.246,0.108l0.884-0.226l0.545-1.239l12.771,7.373L587.902,674.765z M572.588,694.688l-3.713-1.226l-8.292-12.802
		l2.269-1.312l7.616,8.347l3.912,2.243l9.114,8.539l-5.049,2.935l-9.026-1.376l4.501-3.483L572.588,694.688z M560.608,666.243
		c-0.063,0.064-0.131,0.124-0.194,0.189l-6.482-2.214l-1.796-4.548l0.014-0.279c0.798,0.903,1.681,1.684,2.628,2.232
		c0.468,0.269,0.921,0.464,1.358,0.602l0.778,1.011L560.608,666.243z M564.453,658.94v2.114l-1.359-1.318L564.453,658.94z
		 M556.321,691.866c-1.652-0.953-3.151-1.062-4.252-0.468l-0.002-0.005l-6.903,4.02l-0.025,0.014l-0.038,0.022l0.001,0.003
		c-0.167,0.1-0.322,0.22-0.468,0.354v-4.901l-19.797-11.395l-1.626,0.95c0.023-0.235,0.066-0.454,0.066-0.71
		c0.005-1.98-0.711-4.177-1.858-6.113l0.252-0.146c0.627,0.972,1.427,1.815,2.313,2.326c1.117,0.646,2.105,0.621,2.771,0.089
		l0.012,0.021l1.046-0.604c-0.001,0-0.001,0.001-0.001,0.001l5.232-3.019l0.003-0.002l0.376-0.219l1.916,6.579l1.989,0.912
		l0.003-0.003l13.744,6.586l1.549-0.896l1.897,2.994l8.789,7.532l1.925,4.924l0.726-0.099l-3.744,3.233
		c0.103-0.447,0.171-0.93,0.172-1.472C562.399,698.513,559.684,693.807,556.321,691.866z"/>
	<g id="risque-rock">
		<polygon fill="#E79027" points="824.158,519.319 803.065,514.996 785.782,533.551 790.105,548.037 822.889,552.991 
			832.917,540.79 		"/>
		<polygon fill="#E79027" points="781.562,556.675 771.989,561.036 771.308,567.847 791.815,573.719 808.026,566.557 
			796.092,554.996 		"/>
		<polygon fill="#E79027" points="780.935,546.833 778.225,540.533 765.838,537.521 760.46,541.981 758.139,548.281 
			775.305,553.683 		"/>
	</g>
	<g id="risque-panneau">
		<path fill="#E79027" d="M800.405,477.136c-1.004-0.579-1.887-1.477-2.632-2.652c-0.769-1.212-1.156-2.509-1.151-3.854
			c0.003-1.189,0.376-1.991,1.095-2.415c0.731-0.403,1.627-0.312,2.672,0.292c1.038,0.6,1.939,1.545,2.675,2.795
			c0.747,1.27,1.114,2.498,1.111,3.688c-0.004,1.333-0.387,2.174-1.149,2.515C802.285,477.831,801.401,477.712,800.405,477.136
			 M800.307,464.856c-0.955-0.552-1.661-1.454-2.025-2.599c-0.339-1.034-0.57-2.385-0.699-4.126l-0.685-12.761
			c-0.127-2.506-0.192-4.257-0.189-5.319c0.005-1.531,0.367-2.55,1.088-3.02c0.73-0.465,1.695-0.356,2.856,0.314
			c1.448,0.834,2.429,2.006,2.93,3.475c0.456,1.362,0.68,3,0.674,5.006c-0.003,1.144-0.058,2.295-0.163,3.412l-1.001,12.12
			c-0.116,1.515-0.346,2.576-0.728,3.217C801.962,465.303,801.251,465.4,800.307,464.856 M800.151,425.268
			c-2.185-1.261-4.211-1.083-5.295,0.475l-22.24,32.017c-1.073,1.533-1.061,4.197,0.012,6.966c1.079,2.762,3.079,5.236,5.233,6.481
			l44.236,25.543c2.158,1.244,4.161,1.079,5.244-0.434c1.095-1.519,1.123-4.16,0.062-6.924l-21.999-57.559
			C804.335,429.031,802.326,426.524,800.151,425.268"/>
	</g>
	<g id="risque-pointe">
		<polyline fill="#E79027" points="844.736,591.454 820.75,577.604 820.826,591.454 844.736,591.454 		"/>
	</g>
	<g id="risque-trajectoire">
		<path fill="#E79027" d="M849.582,574.645l-4.899-1.956c-2.082,1.765-4.411,3.561-6.921,5.339l4.608,2.183
			C844.98,578.356,847.397,576.481,849.582,574.645 M861.162,562.396l-5.499-1.313c-1.399,1.982-3.064,3.988-4.941,5.96l5.199,1.677
			C857.912,566.625,859.674,564.503,861.162,562.396 M867.446,548.833l-5.882-0.475c-0.546,2.248-1.289,4.363-2.259,6.479
			l5.736,0.898C866.086,553.487,866.879,551.226,867.446,548.833 M868.5,534.916l-5.931,0.062c0.104,2.678,0.076,4.757-0.04,6.741
			l5.934,0.14C868.579,539.801,868.604,537.663,868.5,534.916 M868.196,521.345l-5.918-0.146c-0.174,2.546-0.124,5.046-0.038,6.945
			l5.944-0.074C868.1,526.232,868.035,523.796,868.196,521.345 M871.942,508.396l-5.637-1.089c-1.272,2.219-2.229,4.472-2.883,6.886
			l5.859,0.564C869.896,512.525,870.767,510.439,871.942,508.396 M882.391,496.849l-4.797-2.029
			c-2.456,1.954-4.637,3.969-6.464,5.968l5.249,1.619C878.067,500.546,880.097,498.678,882.391,496.849 M897.827,486.926
			l-4.221-2.438l-4.745,2.759c-1.254,0.731-2.448,1.452-3.578,2.167l4.372,2.334c1.079-0.684,2.234-1.37,3.426-2.063
			L897.827,486.926"/>
	</g>
</g>
<g id="etape_2">
	<g id="amelio-f1">
		<path fill="#E79027" d="M645.36,705.427c4.037,2.331,7.652,2.31,10.058,0.387l0,0.001l7.44-4.232
			c0.047-0.026,0.095-0.053,0.142-0.079l6.433-3.765l-0.001-0.003c2.309-1.377,3.739-4.258,3.75-8.339
			c0.022-8.293-5.806-18.391-13.023-22.555c-3.543-2.047-6.761-2.278-9.123-1.005l-0.004-0.009l-14.812,8.624
			c-0.023,0.013-0.045,0.026-0.068,0.039l-0.069,0.041l0.001,0.002c-2.307,1.378-3.737,4.258-3.748,8.339
			C632.314,691.163,638.144,701.262,645.36,705.427z"/>
		<path fill="#E79027" d="M684.958,702.776l-2.491,1.484v7.773l-0.055-0.032l-14.555,8.418l-71.989-47.544l-2.981-4.228l2.006-1.166
			v-20.927l-23.207-13.4l-36.273-7.229l-12.171-7.006l4.879-2.855l-0.001-0.002c2.31-1.377,3.74-4.257,3.751-8.34
			c0.023-8.292-5.806-18.389-13.022-22.555c-3.544-2.046-6.761-2.276-9.123-1.004l-0.004-0.009l-12.997,7.565v-13.364l-16.969-9.766
			l-1.207,0.743v0.014l-0.005-0.005l-30.827,17.87l0.041,0.046l-0.15-0.087l-1.208,0.743v30.799l2.236,1.29
			c-1.09,0.041-2.089,0.307-2.969,0.78l-0.005-0.009l-14.815,8.624c-0.021,0.013-0.041,0.024-0.062,0.036l-0.073,0.042l0.001,0.003
			c-2.307,1.379-3.736,4.258-3.748,8.34c-0.023,8.29,5.806,18.388,13.022,22.553c4.038,2.332,7.653,2.31,10.059,0.388h0l7.44-4.231
			c0.048-0.027,0.095-0.053,0.142-0.079l6.434-3.766l-0.001-0.002c1.175-0.701,2.121-1.794,2.77-3.233l19.656,11.35l19.043,31.73
			l23.207,13.398l12.472-7.248l32.968,4.633l7.027,2.493l-9.04,5.264c-0.026,0.014-0.052,0.029-0.077,0.044l-0.063,0.037
			l0.001,0.002c-2.307,1.378-3.736,4.258-3.748,8.34c-0.023,8.291,5.806,18.388,13.023,22.554c4.037,2.331,7.652,2.31,10.058,0.387
			h0.001l7.44-4.231c0.047-0.026,0.095-0.053,0.142-0.08l6.433-3.764l-0.001-0.003c2.309-1.377,3.739-4.258,3.75-8.339
			c0.01-3.661-1.121-7.672-3.007-11.369l44.45,15.772l-33.395,19.314l-6.74-3.878l-2.492,1.484v10.46l16.914,9.766l2.543-1.481
			l0.004,0.002l35.971-20.789l11.079-6.402l1.357,0.481l6.047-1.69l2.898-3.508v-1.237l14.627-8.453v-0.002l2.546-1.484v-10.461
			L684.958,702.776z M492.137,607.956l-6.108-3.527l5.011-2.483C491.114,603.896,491.5,605.932,492.137,607.956z M464.576,603.651
			l13.282-7.687l0.691-0.4v4.569l2.261,1.306l-15.163,8.811l-1.071,0.623V603.651z"/>
	</g>
	<path id="valeur-kart" fill="#E79027" d="M1241.263,321.409c0.325-0.667,0.514-1.495,0.517-2.484
		c0.01-3.863-2.707-8.568-6.068-10.511c-1.651-0.952-3.15-1.062-4.252-0.467l-0.002-0.005l-6.273,3.651v-5.103l-19.796-11.396
		l-2.76,1.613c0.009-0.141,0.037-0.262,0.038-0.41c0.012-3.863-2.703-8.566-6.066-10.508c-1.653-0.953-3.151-1.062-4.251-0.468
		l-0.003-0.005l-5.123,2.982l-0.898-1.152l-3.734-1.273l0.027-0.611l-0.877-4.684l-1.002-2.954l-2.032-2.033l-2.622-1.597
		l-2.998-0.448l-3.023,1.42l-2.705,2.385l-0.759,3.746l0.875,5.094l2.117,2.9l-0.192,0.119l-4.172,6.848l-1.853,1.076l2.047,7.027
		l-2.531,1.467l-0.008,0.001l-0.001-0.003l-5.377,3.123l-0.106,0.062l-0.057,0.033l0.008-0.006l-0.97,0.562l-0.004,0.003
		l-0.029,0.017l0.003,0.006c-0.638,0.38-1.037,1.172-1.039,2.303c-0.003,1.023,0.329,2.142,0.86,3.174l-0.291,0.169
		c-1.034-1.535-2.324-2.862-3.745-3.683c-1.65-0.954-3.149-1.062-4.25-0.468l-0.003-0.005l-6.896,4.017
		c-0.013,0.008-0.024,0.014-0.037,0.021l-0.031,0.02l0.001,0.001c-1.074,0.643-1.741,1.982-1.747,3.885
		c-0.01,3.863,2.704,8.569,6.067,10.511c1.882,1.086,3.566,1.074,4.688,0.178v0.001l3.468-1.971
		c0.021-0.014,0.044-0.024,0.064-0.038l0.297-0.174v6.863l19.733,11.395l4.899-2.833c0.504,3.562,2.973,7.477,5.963,9.202
		c1.881,1.086,3.564,1.076,4.685,0.18h0.002l2.792-1.589l-0.443,0.383v5.179l27.765-1.81l21.11-12.267l3.03-16.091v-5.175
		L1241.263,321.409z M1222.827,316.913c0.409,3.639,2.915,7.709,5.985,9.481c1.163,0.671,2.247,0.916,3.172,0.799l-1.413,6.37
		l-6.2,3.603l-3.361-4.314l3.088-2.887l-2.284-2.361l-4.714,0.23l-1.101-1.414l-1.478-3.657l-8.82-9.667l-0.648,0.377l-0.387-0.429
		l0.246,0.108l0.884-0.226l0.546-1.238l12.77,7.372L1222.827,316.913z M1207.513,336.836l-3.712-1.226l-8.293-12.803l2.27-1.312
		l7.615,8.348l3.911,2.243l9.114,8.539l-5.049,2.935l-9.026-1.377l4.503-3.482L1207.513,336.836z M1195.534,308.392
		c-0.063,0.064-0.132,0.124-0.194,0.188l-6.482-2.214l-1.797-4.547l0.014-0.28c0.799,0.904,1.681,1.685,2.629,2.231
		c0.466,0.27,0.92,0.465,1.357,0.604l0.777,1.011L1195.534,308.392z M1199.379,301.089v2.114l-1.359-1.318L1199.379,301.089z
		 M1191.246,334.015c-1.652-0.954-3.15-1.062-4.252-0.468l-0.002-0.005l-6.903,4.02c-0.008,0.004-0.017,0.01-0.024,0.014
		l-0.038,0.022l0.002,0.003c-0.167,0.1-0.322,0.22-0.468,0.353v-4.9l-19.798-11.394l-1.627,0.949
		c0.023-0.234,0.067-0.453,0.067-0.71c0.006-1.979-0.712-4.177-1.859-6.112l0.253-0.146c0.627,0.973,1.427,1.816,2.313,2.327
		c1.117,0.646,2.105,0.62,2.771,0.088l0.012,0.021l1.047-0.604l-0.001,0.001l5.231-3.02l0.003-0.001l0.376-0.219l1.916,6.579
		l1.989,0.912l0.002-0.003l13.743,6.585l1.55-0.896l1.896,2.994l8.789,7.532l1.925,4.923l0.728-0.099l-3.745,3.234
		c0.103-0.448,0.171-0.93,0.172-1.472C1197.324,340.661,1194.609,335.955,1191.246,334.015z"/>
</g>
</svg>
