<?xml version="1.0" encoding="utf-8"?>
<!-- Generator: Adobe Illustrator 17.0.0, SVG Export Plug-In . SVG Version: 6.00 Build 0)  -->
<!DOCTYPE svg PUBLIC "-//W3C//DTD SVG 1.1//EN" "http://www.w3.org/Graphics/SVG/1.1/DTD/svg11.dtd">
<svg version="1.1" id="AMELIO-kart" xmlns="http://www.w3.org/2000/svg" xmlns:xlink="http://www.w3.org/1999/xlink" x="0px"
	 y="0px" width="1600px" height="900px" viewBox="0 0 1600 900" enable-background="new 0 0 1600 900" xml:space="preserve">
<g id="moteur-elec">
	<g>
		<g>
			<polygon fill="#C6C6C5" points="712.682,420.813 688.861,407.06 688.861,434.368 712.682,448.121 			"/>
			<polygon fill="#B1B1B1" points="712.682,420.813 748.715,400.01 748.715,427.317 712.682,448.121 			"/>
			<g>
				<polygon fill="#D9D9D9" points="748.715,400.01 724.777,386.256 688.861,407.06 712.682,420.813 				"/>
			</g>
		</g>
		<g>
			<path fill="#F6F6F6" d="M732.331,412.693l-3.284,3.563l-0.854,12.021l4.307-6.522l-1.25,8.979l-1.474,0.063l0.972,4.638
				l3.316-6.054l-1.616,1.051l3.31-15.473l-5.067,7.551L732.331,412.693"/>
		</g>
		<g>
			<g>
				<path fill="#B1B1B1" d="M704.146,405.684v4.342l0,0c0.003,0.387,0.261,0.775,0.774,1.071c1.025,0.592,2.683,0.594,3.704,0
					c0.509-0.296,0.763-0.684,0.76-1.071h0.001v-4.342H704.146z"/>
				<g>
					<path fill="#ECECEC" d="M708.613,404.61c-1.028-0.592-2.685-0.592-3.705,0c-1.021,0.594-1.014,1.553,0.012,2.145
						c1.025,0.594,2.683,0.594,3.704,0C709.644,406.163,709.638,405.203,708.613,404.61"/>
				</g>
			</g>
			<g>
				<path fill="#B1B1B1" d="M727.837,392.006v4.341l0,0c0.002,0.388,0.26,0.776,0.773,1.072c1.027,0.592,2.684,0.593,3.704,0
					c0.509-0.295,0.763-0.684,0.76-1.072h0.001v-4.341H727.837z"/>
				<g>
					<path fill="#ECECEC" d="M732.302,390.933c-1.027-0.592-2.684-0.592-3.703,0c-1.021,0.594-1.016,1.551,0.011,2.146
						c1.027,0.592,2.684,0.593,3.704,0C733.333,392.486,733.328,391.526,732.302,390.933"/>
				</g>
			</g>
		</g>
		<g>
			<polyline fill="#9C9B9B" points="715.649,412.973 714.623,412.381 712.521,413.602 710.405,412.38 709.386,412.973 
				711.5,414.195 709.399,415.416 710.426,416.009 712.526,414.788 714.643,416.009 715.664,415.416 713.548,414.195 
				715.649,412.973 			"/>
		</g>
		<polyline fill="#9C9B9B" points="740.364,398.705 739.337,398.112 734.112,401.148 735.141,401.741 740.364,398.705 		"/>
	</g>
	<g>
		<path fill="#D9D9D9" d="M696.005,450.151c0.029-10.16-7.114-22.534-15.958-27.638c-4.343-2.507-8.285-2.79-11.179-1.229
			l-0.006-0.012l-40.616,23.539l23.695,38.334l39.47-22.769l-0.001-0.004C694.239,458.686,695.992,455.156,696.005,450.151z"/>
		<g>
			<path fill="#C6C6C6" d="M639.716,445.878c-8.843-5.106-16.034-1.008-16.063,9.153c-0.029,10.162,7.117,22.535,15.96,27.64
				c8.842,5.105,16.034,1.008,16.062-9.154C655.704,463.355,648.56,450.982,639.716,445.878"/>
		</g>
		<path fill="#B2B2B2" d="M684.351,456.88c0.029-10.16-7.114-22.535-15.958-27.638c-4.343-2.507-8.286-2.79-11.179-1.23L657.207,428
			l-24.197,14.045l-0.353,0.205c0,0,4.825-3.045,11.721,0.937c8.844,5.104,15.987,17.478,15.958,27.639
			c-0.012,4.494-1.425,7.798-3.762,9.648l23.183-13.369l-0.001-0.003C682.585,465.414,684.338,461.885,684.351,456.88z"/>
		<g>
			<path fill="#D9D9D9" d="M632.733,442.206c-0.047,0.027-0.077,0.044-0.077,0.044L632.733,442.206z"/>
			<path fill="#D9D9D9" d="M673.448,433.112c-0.699-0.671-1.418-1.299-2.157-1.881l-24.075,13.901
				c0.741,0.581,1.464,1.205,2.166,1.875L673.448,433.112z"/>
			<path fill="#D9D9D9" d="M668.393,429.242c-0.951-0.549-1.877-0.972-2.783-1.312l-24.135,13.935
				c0.918,0.315,1.885,0.734,2.903,1.322c0.036,0.021,0.069,0.046,0.105,0.067l24.081-13.904
				C668.506,429.316,668.45,429.275,668.393,429.242z"/>
			<path fill="#D9D9D9" d="M679.756,467.102c1.131-0.674,2.081-1.657,2.825-2.897l-23.941,13.824
				c-0.568,0.979-1.257,1.804-2.066,2.445l23.183-13.369L679.756,467.102z"/>
			<path fill="#D9D9D9" d="M661.126,427.063c-1.44,0.014-2.762,0.329-3.912,0.948L657.207,428l-24.197,14.045l-0.276,0.161
				c0.325-0.185,1.759-0.929,3.986-1.051L661.126,427.063z"/>
			<path fill="#D9D9D9" d="M677.282,437.48c-0.549-0.74-1.127-1.446-1.722-2.132l-24.062,13.893
				c0.596,0.686,1.175,1.392,1.725,2.131L677.282,437.48z"/>
			<path fill="#D9D9D9" d="M684.075,453.305c-0.136-0.929-0.326-1.863-0.559-2.803l-24.033,13.876
				c0.235,0.938,0.43,1.872,0.568,2.797L684.075,453.305z"/>
			<path fill="#D9D9D9" d="M660.103,473.728l23.992-13.854c0.156-0.933,0.254-1.923,0.256-2.994c0.001-0.09-0.009-0.183-0.01-0.273
				l-24.019,13.868c0.001,0.116,0.014,0.234,0.014,0.351C660.334,471.858,660.249,472.822,660.103,473.728z"/>
			<path fill="#D9D9D9" d="M680.319,442.309c-0.426-0.796-0.877-1.578-1.356-2.343l-24.051,13.887
				c0.48,0.765,0.933,1.546,1.359,2.341L680.319,442.309z"/>
			<path fill="#D9D9D9" d="M682.632,447.556c-0.3-0.856-0.623-1.71-0.992-2.554l-24.044,13.884c0.37,0.842,0.698,1.693,0.999,2.549
				L682.632,447.556z"/>
		</g>
		<g>
			<path fill="#D9D9D9" d="M640.559,465.261c0.002-0.849-0.594-1.885-1.334-2.311c-0.364-0.209-0.692-0.233-0.936-0.103v-0.002
				l-14.544,8.406l0.28,0.452c0,0.007-0.001,0.013-0.001,0.02c-0.001,0.851,0.595,1.885,1.335,2.312
				c0.053,0.029,0.105,0.057,0.157,0.079l0.211,0.342l14.449-8.341l0,0C640.411,465.976,640.558,465.68,640.559,465.261z"/>
			<g>
				<path fill="#C6C6C6" d="M624.704,471.341c-0.74-0.428-1.342-0.085-1.344,0.766c-0.002,0.849,0.595,1.886,1.334,2.312
					c0.74,0.427,1.342,0.085,1.343-0.766C626.041,472.803,625.444,471.768,624.704,471.341"/>
			</g>
		</g>
	</g>
</g>
<g id="roue-back-right">
	<path fill="#575756" d="M636.477,500.092c0.048-17.12-11.988-37.968-26.888-46.565c-7.317-4.227-13.958-4.703-18.835-2.073
		l-0.011-0.02l-30.866,17.97l39.922,64.588l28.937-16.675l-0.003-0.004C633.5,514.468,636.453,508.521,636.477,500.092z"/>
	<g>
		<path fill="#868686" d="M579.205,471.202c-14.898-8.603-27.015-1.699-27.063,15.422s11.989,37.969,26.889,46.567
			c14.897,8.604,27.015,1.698,27.062-15.423C606.141,500.649,594.104,479.804,579.205,471.202"/>
	</g>
	<g>
		<path fill="#C6C6C5" d="M579.164,485.661c-7.949-4.591-14.413-0.906-14.439,8.229c-0.025,9.131,6.397,20.255,14.346,24.842
			c7.947,4.59,14.413,0.906,14.439-8.229C593.534,501.372,587.114,490.248,579.164,485.661"/>
	</g>
	<path fill="#D9D9D9" d="M593.51,510.504c-0.006,1.808-0.267,3.397-0.738,4.757c-1.27-0.307-2.612-0.844-4.003-1.646
		c-7.947-4.59-14.37-15.712-14.345-24.843c0.005-1.818,0.276-3.406,0.756-4.765c1.267,0.312,2.601,0.855,3.984,1.653
		C587.114,490.248,593.534,501.372,593.51,510.504z"/>
</g>
<g id="roue-back-left">
	<path fill="#575756" d="M833.493,386.665c0.048-17.121-11.987-37.969-26.888-46.568c-7.317-4.226-13.958-4.702-18.834-2.073
		l-0.011-0.019l-30.867,17.97l39.923,64.588l28.935-16.674l-0.001-0.005C830.516,401.041,833.471,395.094,833.493,386.665z"/>
	<g>
		<path fill="#868686" d="M776.222,357.774c-14.898-8.603-27.015-1.699-27.063,15.422c-0.048,17.12,11.988,37.967,26.889,46.567
			c14.898,8.602,27.015,1.699,27.062-15.422C803.156,387.222,791.122,366.374,776.222,357.774"/>
	</g>
	<g>
		<path fill="#C6C6C5" d="M776.181,372.232c-7.949-4.591-14.413-0.906-14.438,8.229c-0.026,9.132,6.396,20.256,14.346,24.843
			c7.947,4.589,14.414,0.906,14.439-8.229C790.552,387.944,784.131,376.82,776.181,372.232"/>
	</g>
	<path fill="#D9D9D9" d="M790.527,397.076c-0.006,1.808-0.266,3.398-0.738,4.757c-1.269-0.306-2.611-0.844-4.003-1.647
		c-7.947-4.587-14.371-15.71-14.345-24.841c0.005-1.819,0.275-3.406,0.756-4.765c1.267,0.312,2.601,0.855,3.983,1.653
		C784.131,376.82,790.552,387.944,790.527,397.076z"/>
</g>
<g id="carenage-right">
	<polygon fill="#C6C6C5" points="704.201,565.061 616.762,514.578 616.762,554.729 704.201,605.213 	"/>
	<polygon fill="#B1B1B1" points="704.201,565.061 731.108,549.509 731.108,589.662 704.201,605.213 	"/>
	<g>
		<polygon fill="#ECECEC" points="731.108,549.509 643.387,499.026 616.762,514.578 704.201,565.061 		"/>
	</g>
</g>
<g id="carenage-left">
	<polygon fill="#C6C6C5" points="906.359,447.369 818.921,396.886 818.921,437.038 906.359,487.521 	"/>
	<polygon fill="#B1B1B1" points="906.359,447.369 933.269,431.817 933.269,471.969 906.359,487.521 	"/>
	<g>
		<polygon fill="#ECECEC" points="933.269,431.817 845.546,381.334 818.921,396.886 906.359,447.369 		"/>
	</g>
</g>
<g id="roue-front-right">
	<path fill="#575756" d="M809.774,600.338c0.048-17.118-11.986-37.966-26.888-46.565c-7.317-4.226-13.958-4.703-18.835-2.073
		l-0.01-0.02l-30.866,17.971l39.922,64.586l28.938-16.674l-0.004-0.005C806.798,614.714,809.752,608.769,809.774,600.338z"/>
	<g>
		<path fill="#868686" d="M752.503,571.449c-14.898-8.604-27.016-1.7-27.063,15.423c-0.048,17.118,11.989,37.966,26.889,46.565
			c14.898,8.603,27.015,1.699,27.062-15.421C779.438,600.896,767.403,580.048,752.503,571.449"/>
	</g>
	<g>
		<path fill="#C6C6C5" d="M752.462,585.906c-7.949-4.59-14.412-0.905-14.438,8.23c-0.026,9.132,6.397,20.254,14.345,24.842
			c7.948,4.589,14.414,0.905,14.44-8.228C766.833,601.618,760.412,590.496,752.462,585.906"/>
	</g>
	<path fill="#D9D9D9" d="M766.809,610.751c-0.006,1.806-0.267,3.397-0.738,4.757c-1.27-0.308-2.612-0.845-4.003-1.647
		c-7.947-4.588-14.371-15.71-14.344-24.843c0.005-1.817,0.275-3.405,0.756-4.763c1.266,0.312,2.6,0.854,3.982,1.651
		C760.412,590.496,766.833,601.618,766.809,610.751z"/>
</g>
<g id="roue-front-left">
	<path fill="#575756" d="M1006.792,486.912c0.047-17.122-11.988-37.97-26.888-46.569c-7.318-4.226-13.959-4.702-18.834-2.073
		l-0.013-0.019l-30.864,17.968l39.921,64.591l28.938-16.675l-0.004-0.004C1003.815,501.286,1006.769,495.341,1006.792,486.912z"/>
	<g>
		<path fill="#868686" d="M949.519,458.021c-14.896-8.603-27.013-1.699-27.062,15.423c-0.046,17.119,11.988,37.967,26.89,46.567
			c14.897,8.601,27.014,1.698,27.062-15.422C976.456,487.468,964.42,466.619,949.519,458.021"/>
	</g>
	<g>
		<path fill="#C6C6C5" d="M949.479,472.479c-7.949-4.591-14.413-0.905-14.438,8.229c-0.025,9.133,6.397,20.254,14.345,24.843
			c7.947,4.588,14.414,0.904,14.438-8.229C963.851,488.188,957.429,477.066,949.479,472.479"/>
	</g>
	<path fill="#D9D9D9" d="M963.824,497.322c-0.004,1.807-0.264,3.398-0.736,4.758c-1.271-0.308-2.612-0.846-4.004-1.649
		c-7.946-4.585-14.371-15.708-14.344-24.84c0.006-1.819,0.273-3.408,0.756-4.765c1.267,0.312,2.6,0.854,3.983,1.653
		C957.429,477.066,963.851,488.188,963.824,497.322z"/>
</g>
<g id="siege">
	<g>
		<g>
			<polygon fill="#B1B1B1" points="669.25,393.577 733.858,356.214 753.953,455.851 753.953,467.372 698.735,499.313 			"/>
			<polygon fill="#C6C6C5" points="669.25,393.577 659.387,390.37 689.922,495.279 698.735,499.313 698.735,487.818 			"/>
			<g>
				<polygon fill="#F5F5F5" points="733.858,356.214 723.72,353.005 659.387,390.37 669.25,393.577 				"/>
			</g>
		</g>
		<g>
			<polygon fill="#C6C6C5" points="759.648,516.995 698.735,487.82 698.735,499.301 759.648,528.477 			"/>
			<polygon fill="#B1B1B1" points="759.648,516.995 824.257,479.633 824.257,491.115 759.648,528.477 			"/>
			<g>
				<polygon fill="#F5F5F5" points="824.257,479.633 753.677,455.88 698.735,487.82 759.648,516.995 				"/>
			</g>
		</g>
	</g>
</g>
<g id="pilote">
	<g>
		<polygon fill="#C6C6C5" points="692.251,387.842 761.082,346.113 765.772,380.638 764.344,411.12 772.304,431.274 
			775.152,449.687 757.286,479.617 732.618,471.975 724.339,439.532 709.656,410.891 		"/>
		<polygon fill="#C6C6C5" points="692.251,387.842 709.656,410.891 724.339,439.532 732.494,471.49 707.267,495.812 699.73,471.073 
			671.667,415.703 667.579,385.623 		"/>
		<polygon fill="#F5F5F5" points="692.251,387.842 667.579,385.623 686.083,355.259 707.592,341.893 736.99,337.898 
			761.082,346.113 		"/>
	</g>
	<g>
		<polygon fill="#ECECEC" points="883.344,539.53 894.459,526.531 918.33,525.371 920.36,533.276 905.066,543.71 		"/>
		<polygon fill="#B1B1B1" points="920.36,533.276 928.452,535.832 918.33,525.371 		"/>
		<polygon fill="#9C9B9B" points="905.066,543.71 920.36,533.276 928.452,535.832 913.623,549.684 		"/>
		<polygon fill="#C6C6C5" points="883.344,539.53 870.139,537.146 882.373,552.118 913.623,549.684 905.066,543.71 		"/>
		<polygon fill="#D9D9D9" points="835.005,480.683 815.103,488.396 830.667,508.953 851.702,507.487 		"/>
		<polygon fill="#B1B1B1" points="883.344,539.53 851.702,507.487 830.667,508.953 870.139,537.146 		"/>
		<polygon fill="#C6C6C5" points="894.459,526.531 849.727,469.07 835.005,480.683 851.702,507.487 883.344,539.53 		"/>
		<polygon fill="#D9D9D9" points="816.205,469.623 835.005,480.683 849.727,469.07 835.005,452.676 		"/>
		<polygon fill="#9C9B9B" points="755.715,452.676 816.205,469.623 835.005,480.683 815.103,488.396 763.454,484.001 		"/>
		<polygon fill="#ECECEC" points="772.304,431.274 835.005,452.676 816.205,469.623 755.715,452.676 		"/>
	</g>
	<g>
		<polygon fill="#D9D9D9" points="790.654,415.07 808.757,407.387 761.082,346.113 765.772,380.638 		"/>
		<polygon fill="#ECECEC" points="822.54,439.043 838.136,435.888 808.757,407.387 790.654,415.07 		"/>
		<polygon fill="#C6C6C5" points="790.654,415.07 822.54,439.043 815.652,451.445 785.509,426.917 		"/>
		<polygon fill="#9C9B9B" points="765.772,380.638 764.862,400.054 785.509,426.917 790.654,415.07 		"/>
		<polyline fill="#B1B1B1" points="838.136,435.888 840.259,439.024 836.692,452.676 829.425,459.237 819.912,455.016 
			815.652,451.445 822.54,439.043 		"/>
	</g>
	<g>
		<polygon fill="#ECECEC" points="825.354,573.771 838.517,560.842 854.969,566.267 840.858,575.145 		"/>
		<polygon fill="#9C9B9B" points="840.166,590.558 840.858,575.145 854.969,566.267 860.87,574.536 		"/>
		<polygon fill="#C6C6C5" points="822.39,592.974 813.854,571.154 825.354,573.771 840.858,575.145 840.166,590.558 		"/>
		<polygon fill="#C6C6C5" points="780.329,514.206 790.572,531.3 825.354,573.771 838.517,560.842 797.134,496.955 		"/>
		<polygon fill="#D9D9D9" points="762.4,518.037 780.329,514.206 790.572,531.3 774.915,537.781 		"/>
		<polygon fill="#B1B1B1" points="825.354,573.771 790.572,531.3 774.915,537.781 813.854,571.154 		"/>
		<polygon fill="#D9D9D9" points="767.227,497.188 784.092,481.496 797.134,496.955 780.329,514.206 		"/>
		<polygon fill="#C6C6C5" points="699.73,471.073 767.227,497.188 780.329,514.206 762.4,518.037 707.267,495.812 		"/>
		<polygon fill="#ECECEC" points="767.227,497.188 784.092,481.496 749.647,458.127 699.73,471.073 		"/>
	</g>
	<g>
		<path fill="#ECECEC" d="M795.361,462.364l21.97-24.313l21.305-9.544l8.422-1.373l3.119-0.108l-5.897-4.631h-0.006
			c-3.729-3.056-10.646-2.845-19.697,1.36c-17.204,7.989-35.589,27.358-41.065,43.261c-2.454,7.131-1.888,12.345,1.026,15.216
			l-0.01,0.005l0.07,0.053c0.37,0.358,0.776,0.681,1.221,0.964l5.762,4.537L795.361,462.364z"/>
		<path fill="#ECECEC" d="M814.662,480.941l19.305-14.153l13.392-19.556v-11.91c0,0-0.131-2.915-0.048-4.129l-7.197-0.698
			c1.16,2.434,1.102,5.966-0.438,10.437c-4.397,12.768-19.159,28.321-32.973,34.736c-6.136,2.85-11.046,3.413-14.231,2.045
			l3.022,6.71c0.735-0.132,7.801,0.714,7.801,0.714L814.662,480.941z"/>
		<g>
			<path fill="#B1B1B1" d="M812.511,480.229c-13.812,6.415-21.448,1.266-17.052-11.503c4.396-12.771,19.156-28.32,32.971-34.735
				c13.811-6.415,21.449-1.267,17.053,11.503C841.088,458.261,826.326,473.812,812.511,480.229 M830.385,428.314
				c-17.204,7.989-35.589,27.357-41.064,43.263c-5.473,15.899,4.036,22.315,21.239,14.325c17.203-7.989,35.587-27.359,41.061-43.259
				C857.096,426.739,847.587,420.325,830.385,428.314"/>
		</g>
	</g>
	<g id="amelio-kart-gant1">
		<polygon fill="#ECECEC" points="771.659,463.432 777.759,464.483 780.509,463.542 785.43,462.364 783.691,466.506 
			786.821,467.559 790.942,467.559 797.012,464.961 798.354,462.364 801.162,463.984 800.306,473.555 798.107,479.871 
			792.472,483.708 786.917,485.137 773.858,482.654 765.538,479.617 		"/>
		<polygon fill="#C6C6C5" points="777.11,471.343 786.293,471.992 792.472,470.536 795.761,468.69 790.942,467.559 797.012,464.961 
			798.354,462.364 801.162,463.984 800.306,473.555 798.107,479.871 792.472,483.708 786.917,485.137 773.858,482.654 
			767.227,480.234 770.798,463.145 776.66,464.295 775.523,470.909 		"/>
	</g>
	<g>
		<polygon fill="#D9D9D9" points="721.451,457.307 692.251,387.842 709.656,410.891 731.108,450.448 		"/>
		<polygon fill="#ECECEC" points="721.451,457.307 731.108,450.448 774.564,461.542 772.363,471.343 		"/>
		<polygon fill="#D9D9D9" points="702.12,466.2 721.451,457.307 715.423,476.051 		"/>
		<polygon fill="#ECECEC" points="667.579,385.623 692.251,387.842 721.451,457.307 702.12,466.2 671.667,415.703 		"/>
		<polygon fill="#C6C6C5" points="715.423,476.051 721.451,457.307 772.363,471.343 768.927,486.679 		"/>
	</g>
	<g id="amelio-casque1">
		<polygon fill="#D9D9D9" points="689.633,358.427 677.55,341.875 673.675,319.303 677.037,302.71 689.027,292.142 702.417,285.85 
			715.71,287.838 727.324,294.916 736.333,303.918 740.768,317.009 744.656,337.769 744.146,349.423 740.29,359.473 728.83,366.358 
			709.597,367.219 		"/>
		<polygon fill="#C6C6C5" points="739.715,342.066 724.796,349.526 701.077,348.187 696.881,350.146 677.55,341.875 
			689.633,358.427 709.597,367.219 728.83,366.358 740.29,359.473 744.146,349.423 744.656,337.769 740.768,317.009 		"/>
		<polygon fill="#9C9B9B" points="740.768,317.009 736.719,327.691 725.364,334.606 708.511,335.084 694.218,331.307 
			690.222,334.988 690.222,342.041 696.881,350.146 710.536,356.167 729.483,355.314 740.457,348.952 744.656,337.769 		"/>
		<polygon fill="#ECECEC" points="673.675,319.303 692.251,324.741 717.438,320.643 732.494,313.374 736.333,303.918 
			727.324,294.916 715.71,287.838 702.417,285.85 689.027,292.142 677.037,302.71 		"/>
	</g>
	<g id="amelio-kart-gant2">
		<polygon fill="#C6C6C5" points="824.671,443.018 819.915,451.445 822.877,455.315 833.109,459.237 841.335,451.128 
			841.335,440.301 836.316,440.301 		"/>
		<polygon fill="#C6C6C5" points="839.805,447.166 835.501,457.816 843.439,461.342 847.358,460.339 853.769,445.752 
			851.829,442.014 850.518,445.274 		"/>
		<polygon fill="#ECECEC" points="824.671,443.018 826.548,449.1 834.208,451.445 835.642,449.087 839.467,448.96 845.78,448.751 
			847.468,445.675 846.114,444.017 842.336,443.347 839.28,442.014 840.259,439.024 834.713,438.111 		"/>
		<polygon fill="#C6C6C5" points="824.671,443.018 829.186,446.026 834.542,443.018 840.259,444.88 847.468,445.675 845.78,448.751 
			835.642,449.087 834.208,451.445 826.548,449.1 		"/>
	</g>
</g>
<g id="carenage-front">
	<g>
		<polygon fill="#D9D9D9" points="892.564,520.118 886.019,503.912 846.938,461.082 826.987,472.678 826.443,472.991 
			806.493,484.589 845.572,527.418 862.903,537.356 920.95,591.742 930.112,586.417 930.657,586.101 939.817,580.775 		"/>
		<polygon fill="#B1B1B1" points="806.493,484.589 806.493,492.464 845.572,535.295 845.572,527.418 		"/>
		<polygon fill="#9C9B9B" points="862.903,545.232 862.903,537.356 845.572,527.418 845.572,535.295 		"/>
		<polygon fill="#B1B1B1" points="920.95,591.742 920.95,599.618 862.903,545.232 862.903,537.356 		"/>
	</g>
	<g>
		<g>
			<polygon fill="#ECECEC" points="1013.491,495.239 966.568,509.254 957.137,551.77 919.021,573.921 880.909,596.069 
				830.426,588.375 783.505,628.898 906.525,632.354 953.289,605.179 1000.065,577.995 			"/>
		</g>
		<polygon fill="#B1B1B1" points="1000.065,589.461 1000.065,577.995 1013.491,495.239 1013.491,518.173 		"/>
		<polygon fill="#9C9B9B" points="906.525,643.822 906.525,632.354 1000.065,577.995 1000.065,589.461 		"/>
		<polygon fill="#B1B1B1" points="906.525,643.822 906.525,632.354 783.505,628.898 783.505,651.832 		"/>
		<polygon fill="#C6C6C5" points="906.525,632.354 880.909,596.069 830.426,588.375 783.505,628.898 		"/>
		<polygon fill="#D9D9D9" points="1000.065,577.995 957.137,551.77 880.909,596.069 906.525,632.354 		"/>
		<polygon fill="#C6C6C5" points="1000.065,577.995 1013.491,495.239 966.568,509.254 957.137,551.77 		"/>
	</g>
</g>
</svg>
