<?xml version="1.0" encoding="utf-8"?>
<!-- Generator: Adobe Illustrator 17.0.0, SVG Export Plug-In . SVG Version: 6.00 Build 0)  -->
<!DOCTYPE svg PUBLIC "-//W3C//DTD SVG 1.1//EN" "http://www.w3.org/Graphics/SVG/1.1/DTD/svg11.dtd">
<svg version="1.1" id="Calque_1" xmlns="http://www.w3.org/2000/svg" xmlns:xlink="http://www.w3.org/1999/xlink" x="0px" y="0px"
	 width="1600px" height="900px" viewBox="0 0 1600 900" enable-background="new 0 0 1600 900" xml:space="preserve">
<g id="extia-factory">
	<g id="machine">
		<g id="generatrice">
			<g>
				<polygon fill="#B1B1B1" points="652.199,288.102 567.178,239.014 567.178,277.733 652.199,326.819 				"/>
				<polygon fill="#B1B1B1" points="652.199,288.102 794.033,206.212 794.033,244.93 652.199,326.819 				"/>
				<g>
					<polygon fill="#F5F5F5" points="794.033,206.212 708.679,157.126 567.178,239.014 652.199,288.102 					"/>
				</g>
			</g>
			<g>
				<path fill="#ECECEC" d="M778.177,175.813c0.068-24.5-17.153-54.331-38.475-66.638c-10.47-6.046-19.976-6.727-26.952-2.965
					l-0.016-0.027L616,162.095l54.657,94.093L767.1,200.46l-0.002-0.007C773.918,196.383,778.145,187.875,778.177,175.813z"/>
				<g>
					<path fill="#B1B1B1" d="M643.657,164.672c-21.32-12.311-38.658-2.431-38.726,22.068s17.155,54.332,38.476,66.636
						c21.319,12.31,38.656,2.431,38.724-22.067C682.2,206.81,664.979,176.977,643.657,164.672"/>
				</g>
			</g>
			<g>
				<g>
					<g>
						<g>
							<defs>
								<path id="SVGID_1_" d="M778.177,175.813c0.068-24.5-17.153-54.331-38.475-66.638c-10.47-6.046-19.976-6.727-26.952-2.965
									l-0.016-0.027L616,162.095l54.657,94.093L767.1,200.46l-0.002-0.007C773.918,196.383,778.145,187.875,778.177,175.813z"/>
							</defs>
							<clipPath id="SVGID_2_">
								<use xlink:href="#SVGID_1_"  overflow="visible"/>
							</clipPath>
							<g clip-path="url(#SVGID_2_)">
								
									<rect x="559.301" y="108.119" transform="matrix(-0.866 0.5 -0.5 -0.866 1264.7534 -71.7368)" display="none" fill="#F5F5F5" width="165.373" height="50.923"/>
								
									<rect x="660.461" y="185.242" transform="matrix(-0.866 0.5 -0.5 -0.866 1492.0806 21.5955)" fill="#D9D9D9" width="165.371" height="50.924"/>
							</g>
						</g>
					</g>
				</g>
			</g>
			<g>
				<polygon fill="#C6C6C5" points="652.199,200.296 567.178,151.208 567.178,277.733 652.199,326.819 				"/>
				<polygon fill="#B1B1B1" points="652.199,200.296 686.886,180.267 686.886,306.791 652.199,326.819 				"/>
				<g>
					<polygon fill="#F5F5F5" points="686.886,180.267 601.532,131.18 567.178,151.208 652.199,200.296 					"/>
				</g>
			</g>
			<g>
				<path fill="#D9D9D9" d="M616.624,233.445c0.013-4.686-3.282-10.393-7.359-12.745c-2.011-1.163-3.837-1.287-5.173-0.556
					l-0.01-0.016l-52.822,30.495l10.684,17.748l52.472-30.162C615.772,237.453,616.617,235.805,616.624,233.445z"/>
			</g>
			<g>
				<g>
					<polygon fill="#C6C6C5" points="557.704,389.588 537.779,378.084 537.779,387.379 557.704,398.881 					"/>
					<polygon fill="#B1B1B1" points="557.704,389.588 615.276,356.35 615.276,365.644 557.704,398.881 					"/>
					<g>
						<polygon fill="#ECECEC" points="615.276,356.35 595.222,344.846 537.779,378.084 557.704,389.588 						"/>
					</g>
				</g>
				<g>
					<polygon fill="#C6C6C5" points="460.201,333.293 440.275,321.79 440.275,331.085 460.201,342.587 					"/>
					<polygon fill="#B1B1B1" points="460.201,333.293 517.771,300.056 517.771,309.35 460.201,342.587 					"/>
					<g>
						<polygon fill="#ECECEC" points="517.771,300.056 497.717,288.553 440.275,321.79 460.201,333.293 						"/>
					</g>
				</g>
				<polygon fill="#C6C6C5" points="469.327,267.187 449.475,255.728 449.475,316.629 469.327,328.092 				"/>
				<polygon fill="#B1B1B1" points="469.329,267.189 506.901,306.4 469.329,328.094 				"/>
				<path fill="#EDEDED" d="M604.34,299.389c0.104-37.264-26.093-82.642-58.525-101.359c-15.927-9.197-30.383-10.234-40.995-4.512
					l-0.024-0.043l-38.488,22.317l83.138,143.123l38.045-22.036l-0.005-0.009C597.86,330.678,604.289,317.737,604.34,299.389z"/>
				<g>
					<g>
						<g>
							<g>
								<defs>
									<path id="SVGID_3_" d="M604.34,299.389c0.104-37.264-26.093-82.642-58.525-101.359
										c-15.927-9.197-30.383-10.234-40.995-4.512l-0.024-0.043l-38.488,22.317l83.138,143.123l38.045-22.036l-0.005-0.009
										C597.86,330.678,604.289,317.737,604.34,299.389z"/>
								</defs>
								<clipPath id="SVGID_4_">
									<use xlink:href="#SVGID_3_"  overflow="visible"/>
								</clipPath>
								<g clip-path="url(#SVGID_4_)">
									
										<rect x="436.157" y="193.075" transform="matrix(-0.866 0.5 -0.5 -0.866 1032.6466 160.3703)" display="none" fill="#F5F5F5" width="117.359" height="50.924"/>
									
										<rect x="529.476" y="274.726" transform="matrix(-0.866 0.5 -0.5 -0.866 1247.6063 266.0728)" fill="#C6C6C5" width="117.359" height="50.924"/>
								</g>
							</g>
						</g>
					</g>
				</g>
				<polygon fill="#C6C6C5" points="566.832,320.555 546.979,309.095 546.979,372.923 566.832,384.386 				"/>
				<g>
					<path fill="#C6C6C5" d="M508.376,219.711c-32.426-18.725-58.801-3.697-58.904,33.567
						c-0.104,37.262,26.094,82.641,58.524,101.359c32.426,18.723,58.801,3.697,58.905-33.567S540.808,238.429,508.376,219.711"/>
				</g>
				<g>
					<path fill="#868686" d="M508.355,226.526c-29.154-16.836-52.86-3.322-52.952,30.182c-0.094,33.494,23.459,74.287,52.612,91.112
						c29.148,16.83,52.86,3.324,52.959-30.178C561.061,284.147,537.511,243.353,508.355,226.526"/>
				</g>
				<path fill="#6F6F6E" d="M508.355,226.526c-13.729-7.928-26.246-9.121-35.664-4.672c-8.485,5.875-13.675,17.154-13.717,32.793
					c-0.094,33.493,23.459,74.287,52.612,91.112c13.728,7.927,26.249,9.118,35.665,4.666c8.485-5.874,13.677-17.15,13.722-32.784
					C561.061,284.147,537.511,243.353,508.355,226.526z"/>
				<polygon fill="#B1B1B1" points="566.832,320.555 604.404,298.862 604.404,362.693 566.832,384.386 				"/>
			</g>
			<g>
				<path fill="#D9D9D9" d="M534.94,300.606c0.043-15.897-11.133-35.256-24.969-43.241c-6.794-3.924-12.963-4.367-17.489-1.926
					l-0.011-0.019l-16.419,9.522l35.468,61.06l16.231-9.402l-0.002-0.004C532.176,313.956,534.917,308.433,534.94,300.606z"/>
				<g>
					<path fill="#B1B1B1" d="M493.999,266.613c-13.834-7.989-25.086-1.577-25.131,14.32c-0.044,15.897,11.134,35.256,24.969,43.243
						s25.086,1.577,25.131-14.32C519.01,293.959,507.835,274.598,493.999,266.613"/>
				</g>
				<g>
					<path fill="#868686" d="M493.991,269.521c-12.438-7.183-22.552-1.418-22.592,12.876c-0.04,14.288,10.008,31.694,22.448,38.872
						c12.435,7.181,22.55,1.418,22.592-12.875C516.476,294.103,506.428,276.7,493.991,269.521"/>
				</g>
				<path fill="#6F6F6E" d="M493.991,269.521c-5.858-3.382-11.199-3.891-15.216-1.994c-3.619,2.506-5.834,7.318-5.851,13.991
					c-0.04,14.29,10.008,31.694,22.446,38.873c5.856,3.381,11.199,3.89,15.215,1.99c3.62-2.506,5.835-7.317,5.855-13.988
					C516.476,294.103,506.428,276.7,493.991,269.521z"/>
			</g>
			<g>
				<path fill="#C6C6C5" d="M502.106,299.443c0.013-4.685-3.282-10.393-7.359-12.745c-2.012-1.163-3.837-1.287-5.174-0.556
					l-0.009-0.016l-2.82,1.626l10.684,17.749l2.471-1.292C501.253,303.451,502.099,301.802,502.106,299.443z"/>
				<g>
					<path fill="#9C9B9B" d="M492.263,287.943c-4.077-2.354-7.394-0.464-7.407,4.222c-0.013,4.687,3.281,10.393,7.36,12.748
						c4.077,2.355,7.395,0.464,7.407-4.222C499.636,296.006,496.344,290.298,492.263,287.943"/>
				</g>
			</g>
			<g id="logo-extia">
				<path fill="#E79027" d="M618.455,91.786l0.044,15.069c11.977-4.947,18.05,0.623,18.082,12.421
					c-0.031-11.798-6.104-17.368-18.082-12.421L618.455,91.786"/>
				<path fill="#E79027" d="M671.374,61.231c-12.32,7.115-21.881,19.522-26.523,32.702c-4.48-7.915-14.078-9.258-26.395-2.146
					l0.044,15.069c11.977-4.947,18.05,0.623,18.082,12.421c0.036,11.797-5.985,24.352-17.953,33.886l0.043,15.075
					c11.974-6.914,22.446-20.503,26.296-33.559l0.227-0.133c3.906,8.578,14.42,10.055,26.397,3.141l-0.044-15.08
					c-11.983,4.3-18.051-1.277-18.085-13.071c-0.035-11.806,5.983-24.351,17.956-33.233L671.374,61.231"/>
				<path fill="#E79027" d="M644.326,53.388c-5.864,3.385-10.599,11.585-10.579,18.328c0.018,6.733,4.786,9.45,10.646,6.066
					c5.867-3.385,10.601-11.591,10.58-18.322C654.957,52.717,650.191,49.998,644.326,53.388"/>
			</g>
		</g>
		<g id="transfo">
			<g>
				<polygon fill="#B1B1B1" points="728.112,339.954 686.525,315.943 686.525,363.736 728.112,387.746 				"/>
				<polygon fill="#C6C6C5" points="728.112,339.954 816.986,288.643 816.986,336.435 728.112,387.746 				"/>
				<g>
					<polygon fill="#EDEDED" points="816.986,288.643 775.263,264.632 686.525,315.943 728.112,339.954 					"/>
				</g>
			</g>
			<g>
				<g>
					<path fill="#868686" d="M786.706,285.93v2.918l0,0c-0.008,1.689-1.132,3.379-3.365,4.668c-4.462,2.575-11.677,2.58-16.114,0
						c-2.215-1.287-3.32-2.977-3.309-4.668l0,0v-2.918H786.706z"/>
					<g>
						<path fill="#575756" d="M767.279,281.264c4.47-2.581,11.683-2.577,16.116,0c4.439,2.58,4.415,6.753-0.053,9.333
							c-4.462,2.574-11.677,2.579-16.114,0C762.794,288.02,762.818,283.839,767.279,281.264"/>
					</g>
				</g>
				<g>
					<path fill="#868686" d="M786.706,276.899v2.918l0,0c-0.008,1.688-1.132,3.377-3.365,4.666c-4.462,2.577-11.677,2.579-16.114,0
						c-2.215-1.287-3.32-2.977-3.309-4.666l0,0v-2.918H786.706z"/>
					<g>
						<path fill="#575756" d="M767.279,272.231c4.47-2.581,11.683-2.575,16.116,0c4.439,2.579,4.415,6.752-0.053,9.333
							c-4.462,2.577-11.677,2.581-16.114,0C762.794,278.987,762.818,274.807,767.279,272.231"/>
					</g>
				</g>
				<g>
					<path fill="#868686" d="M786.706,267.863v2.92l0,0c-0.008,1.688-1.132,3.379-3.365,4.666c-4.462,2.577-11.677,2.581-16.114,0
						c-2.215-1.287-3.32-2.978-3.309-4.666l0,0v-2.92H786.706z"/>
					<g>
						<path fill="#575756" d="M767.279,263.198c4.47-2.581,11.683-2.578,16.116,0c4.439,2.581,4.415,6.754-0.053,9.333
							c-4.462,2.575-11.677,2.579-16.114,0C762.794,269.955,762.818,265.771,767.279,263.198"/>
					</g>
				</g>
				<g>
					<path fill="#868686" d="M786.706,258.83v2.919l0,0c-0.008,1.688-1.132,3.378-3.365,4.667c-4.462,2.575-11.677,2.579-16.114,0
						c-2.215-1.287-3.32-2.977-3.309-4.667l0,0v-2.919H786.706z"/>
					<g>
						<path fill="#575756" d="M767.279,254.162c4.47-2.579,11.683-2.573,16.116,0c4.439,2.581,4.415,6.754-0.053,9.334
							c-4.462,2.575-11.677,2.581-16.114,0C762.794,260.922,762.818,256.74,767.279,254.162"/>
					</g>
				</g>
				<g>
					<path fill="#868686" d="M786.706,249.796v2.92l0,0c-0.008,1.688-1.132,3.377-3.365,4.666c-4.462,2.574-11.677,2.579-16.114,0
						c-2.215-1.289-3.32-2.979-3.309-4.666l0,0v-2.92L786.706,249.796L786.706,249.796z"/>
					<g>
						<path fill="#575756" d="M767.279,245.131c4.47-2.58,11.683-2.575,16.116,0c4.439,2.581,4.415,6.753-0.053,9.333
							c-4.462,2.577-11.677,2.579-16.114,0C762.794,251.888,762.818,247.706,767.279,245.131"/>
					</g>
				</g>
			</g>
			<g>
				<g>
					<path fill="#868686" d="M763.143,299.535v2.918l0,0c-0.008,1.689-1.132,3.379-3.365,4.668c-4.462,2.575-11.677,2.58-16.114,0
						c-2.216-1.287-3.32-2.977-3.309-4.668l0,0v-2.918H763.143z"/>
					<g>
						<path fill="#575756" d="M743.714,294.868c4.47-2.581,11.683-2.577,16.116,0c4.439,2.58,4.415,6.753-0.053,9.333
							c-4.462,2.574-11.677,2.579-16.114,0C739.23,301.625,739.254,297.444,743.714,294.868"/>
					</g>
				</g>
				<g>
					<path fill="#868686" d="M763.143,290.503v2.918l0,0c-0.008,1.688-1.132,3.377-3.365,4.666c-4.462,2.577-11.677,2.579-16.114,0
						c-2.216-1.287-3.32-2.977-3.309-4.666l0,0v-2.918H763.143z"/>
					<g>
						<path fill="#575756" d="M743.714,285.836c4.47-2.581,11.683-2.575,16.116,0c4.439,2.579,4.415,6.752-0.053,9.333
							c-4.462,2.577-11.677,2.581-16.114,0C739.23,292.592,739.254,288.411,743.714,285.836"/>
					</g>
				</g>
				<g>
					<path fill="#868686" d="M763.143,281.468v2.92l0,0c-0.008,1.688-1.132,3.379-3.365,4.666c-4.462,2.577-11.677,2.581-16.114,0
						c-2.216-1.287-3.32-2.978-3.309-4.666l0,0v-2.92H763.143z"/>
					<g>
						<path fill="#575756" d="M743.714,276.802c4.47-2.581,11.683-2.578,16.116,0c4.439,2.581,4.415,6.754-0.053,9.333
							c-4.462,2.575-11.677,2.579-16.114,0C739.23,283.56,739.254,279.376,743.714,276.802"/>
					</g>
				</g>
				<g>
					<path fill="#868686" d="M763.143,272.434v2.919l0,0c-0.008,1.688-1.132,3.378-3.365,4.667c-4.462,2.575-11.677,2.579-16.114,0
						c-2.216-1.287-3.32-2.977-3.309-4.667l0,0v-2.919H763.143z"/>
					<g>
						<path fill="#575756" d="M743.714,267.767c4.47-2.579,11.683-2.573,16.116,0c4.439,2.581,4.415,6.754-0.053,9.334
							c-4.462,2.575-11.677,2.581-16.114,0C739.23,274.526,739.254,270.344,743.714,267.767"/>
					</g>
				</g>
				<g>
					<path fill="#868686" d="M763.143,263.401v2.92l0,0c-0.008,1.688-1.132,3.377-3.365,4.666c-4.462,2.574-11.677,2.579-16.114,0
						c-2.216-1.289-3.32-2.979-3.309-4.666l0,0v-2.92H763.143z"/>
					<g>
						<path fill="#575756" d="M743.714,258.735c4.47-2.58,11.683-2.575,16.116,0c4.439,2.581,4.415,6.753-0.053,9.333
							c-4.462,2.577-11.677,2.579-16.114,0C739.23,265.493,739.254,261.311,743.714,258.735"/>
					</g>
				</g>
			</g>
			<g>
				<g>
					<path fill="#868686" d="M739.579,313.139v2.918l0,0c-0.008,1.689-1.132,3.379-3.365,4.668c-4.462,2.575-11.677,2.58-16.114,0
						c-2.216-1.287-3.32-2.977-3.309-4.668l0,0v-2.918H739.579z"/>
					<g>
						<path fill="#575756" d="M720.151,308.473c4.47-2.581,11.683-2.577,16.116,0c4.439,2.58,4.415,6.753-0.053,9.333
							c-4.462,2.574-11.677,2.579-16.114,0C715.666,315.229,715.691,311.048,720.151,308.473"/>
					</g>
				</g>
				<g>
					<path fill="#868686" d="M739.579,304.108v2.918l0,0c-0.008,1.688-1.132,3.377-3.365,4.666c-4.462,2.577-11.677,2.579-16.114,0
						c-2.216-1.287-3.32-2.977-3.309-4.666l0,0v-2.918H739.579z"/>
					<g>
						<path fill="#575756" d="M720.151,299.44c4.47-2.581,11.683-2.575,16.116,0c4.439,2.579,4.415,6.752-0.053,9.333
							c-4.462,2.577-11.677,2.581-16.114,0C715.666,306.197,715.691,302.016,720.151,299.44"/>
					</g>
				</g>
				<g>
					<path fill="#868686" d="M739.579,295.072v2.92l0,0c-0.008,1.688-1.132,3.379-3.365,4.666c-4.462,2.577-11.677,2.581-16.114,0
						c-2.216-1.287-3.32-2.978-3.309-4.666l0,0v-2.92H739.579z"/>
					<g>
						<path fill="#575756" d="M720.151,290.407c4.47-2.581,11.683-2.578,16.116,0c4.439,2.581,4.415,6.754-0.053,9.333
							c-4.462,2.575-11.677,2.579-16.114,0C715.666,297.164,715.691,292.98,720.151,290.407"/>
					</g>
				</g>
				<g>
					<path fill="#868686" d="M739.579,286.039v2.919l0,0c-0.008,1.688-1.132,3.378-3.365,4.667c-4.462,2.575-11.677,2.579-16.114,0
						c-2.216-1.287-3.32-2.977-3.309-4.667l0,0v-2.919H739.579z"/>
					<g>
						<path fill="#575756" d="M720.151,281.371c4.47-2.579,11.683-2.573,16.116,0c4.439,2.581,4.415,6.754-0.053,9.334
							c-4.462,2.575-11.677,2.581-16.114,0C715.666,288.131,715.691,283.949,720.151,281.371"/>
					</g>
				</g>
				<g>
					<path fill="#868686" d="M739.579,277.005v2.92l0,0c-0.008,1.688-1.132,3.377-3.365,4.666c-4.462,2.574-11.677,2.579-16.114,0
						c-2.216-1.289-3.32-2.979-3.309-4.666l0,0v-2.92H739.579z"/>
					<g>
						<path fill="#575756" d="M720.151,272.34c4.47-2.58,11.683-2.575,16.116,0c4.439,2.581,4.415,6.753-0.053,9.333
							c-4.462,2.577-11.677,2.579-16.114,0C715.666,279.097,715.691,274.915,720.151,272.34"/>
					</g>
				</g>
			</g>
		</g>
		<g id="fil-valeur">
			<path fill="#868686" d="M835.097,252.149c-22.675,0-42.907-0.42-59.84-1.306l0.109-2.09
				c99.518,5.208,323.929-6.416,470.815-24.386l0.253,2.077C1121.814,241.69,948.209,252.149,835.097,252.149z"/>
		</g>
		<g id="fil-risque">
			<path fill="#868686" d="M919.981,413.214c-43.428-25.77-126.119-107.703-161.431-142.69c-2.78-2.754-5.302-5.254-7.531-7.454
				l1.47-1.489c2.229,2.202,4.752,4.701,7.533,7.456c35.256,34.932,117.819,116.736,161.026,142.376L919.981,413.214z"/>
		</g>
		<g id="fil-amelio">
			<path fill="#868686" d="M599.885,595.209l-1.854-0.971c26.481-50.618,92.075-183.023,129.146-318.932l2.02,0.55
				C692.07,411.962,626.397,544.529,599.885,595.209z"/>
		</g>
		<g id="amelio-plateau">
			<g>
				<g>
					<path fill="#868686" d="M610.351,630.856v2.917l0,0c-0.008,1.688-1.132,3.379-3.365,4.669c-4.462,2.575-11.677,2.58-16.114,0
						c-2.216-1.287-3.32-2.978-3.309-4.669l0,0v-2.917H610.351z"/>
					<g>
						<path fill="#575756" d="M590.924,626.19c4.47-2.581,11.683-2.577,16.116,0c4.439,2.58,4.415,6.753-0.053,9.333
							c-4.462,2.575-11.677,2.58-16.114,0C586.439,632.946,586.463,628.765,590.924,626.19"/>
					</g>
				</g>
				<g>
					<path fill="#868686" d="M610.351,621.825v2.918l0,0c-0.008,1.687-1.132,3.377-3.365,4.667c-4.462,2.576-11.677,2.578-16.114,0
						c-2.216-1.287-3.32-2.978-3.309-4.667l0,0v-2.918H610.351z"/>
					<g>
						<path fill="#575756" d="M590.924,617.158c4.47-2.582,11.683-2.576,16.116,0c4.439,2.578,4.415,6.751-0.053,9.333
							c-4.462,2.575-11.677,2.581-16.114,0C586.439,623.914,586.463,619.733,590.924,617.158"/>
					</g>
				</g>
				<g>
					<path fill="#868686" d="M610.351,612.789v2.92l0,0c-0.008,1.688-1.132,3.379-3.365,4.666c-4.462,2.575-11.677,2.581-16.114,0
						c-2.216-1.287-3.32-2.978-3.309-4.666l0,0v-2.92H610.351z"/>
					<g>
						<path fill="#575756" d="M590.924,608.124c4.47-2.582,11.683-2.578,16.116,0c4.439,2.581,4.415,6.754-0.053,9.333
							c-4.462,2.576-11.677,2.58-16.114,0C586.439,614.881,586.463,610.697,590.924,608.124"/>
					</g>
				</g>
				<g>
					<path fill="#868686" d="M610.351,603.756v2.919l0,0c-0.008,1.688-1.132,3.377-3.365,4.667c-4.462,2.575-11.677,2.579-16.114,0
						c-2.216-1.287-3.32-2.977-3.309-4.667l0,0v-2.919H610.351z"/>
					<g>
						<path fill="#575756" d="M590.924,599.088c4.47-2.579,11.683-2.574,16.116,0c4.439,2.581,4.415,6.754-0.053,9.334
							c-4.462,2.576-11.677,2.582-16.114,0C586.439,605.848,586.463,601.667,590.924,599.088"/>
					</g>
				</g>
				<g>
					<path fill="#868686" d="M610.351,594.723v2.919l0,0c-0.008,1.688-1.132,3.377-3.365,4.667c-4.462,2.574-11.677,2.579-16.114,0
						c-2.216-1.289-3.32-2.979-3.309-4.667l0,0v-2.919H610.351z"/>
					<g>
						<path fill="#575756" d="M590.924,590.057c4.47-2.58,11.683-2.575,16.116,0c4.439,2.582,4.415,6.753-0.053,9.333
							c-4.462,2.578-11.677,2.58-16.114,0C586.439,596.814,586.463,592.632,590.924,590.057"/>
					</g>
				</g>
			</g>
			<polygon fill="#C6C6C5" points="743.258,865.589 483.346,715.529 483.346,727.99 743.258,878.049 			"/>
			<polygon fill="#B1B1B1" points="743.258,865.589 1003.169,715.529 1003.169,727.99 743.258,878.049 			"/>
			<g>
				<polygon fill="#EDEDED" points="1003.169,715.529 742.415,565.467 483.346,715.529 743.258,865.589 				"/>
			</g>
		</g>
		<g id="risque-plateau">
			<g>
				<g>
					<path fill="#868686" d="M931.909,448.448v2.917l0,0c-0.008,1.688-1.132,3.379-3.365,4.668c-4.462,2.575-11.677,2.58-16.114,0
						c-2.215-1.287-3.32-2.978-3.309-4.668l0,0v-2.917H931.909z"/>
					<g>
						<path fill="#575756" d="M912.48,443.782c4.47-2.581,11.683-2.577,16.116,0c4.439,2.58,4.415,6.753-0.053,9.333
							c-4.462,2.575-11.677,2.58-16.114,0C907.996,450.538,908.021,446.357,912.48,443.782"/>
					</g>
				</g>
				<g>
					<path fill="#868686" d="M931.909,439.416v2.918l0,0c-0.008,1.687-1.132,3.377-3.365,4.667c-4.462,2.575-11.677,2.578-16.114,0
						c-2.215-1.287-3.32-2.978-3.309-4.667l0,0v-2.918H931.909z"/>
					<g>
						<path fill="#575756" d="M912.48,434.749c4.47-2.582,11.683-2.577,16.116,0c4.439,2.578,4.415,6.751-0.053,9.333
							c-4.462,2.575-11.677,2.581-16.114,0C907.996,441.504,908.021,437.325,912.48,434.749"/>
					</g>
				</g>
				<g>
					<path fill="#868686" d="M931.909,430.38v2.92l0,0c-0.008,1.688-1.132,3.379-3.365,4.666c-4.462,2.575-11.677,2.581-16.114,0
						c-2.215-1.287-3.32-2.978-3.309-4.666l0,0v-2.92H931.909z"/>
					<g>
						<path fill="#575756" d="M912.48,425.715c4.47-2.582,11.683-2.578,16.116,0c4.439,2.581,4.415,6.754-0.053,9.333
							c-4.462,2.575-11.677,2.58-16.114,0C907.996,432.472,908.021,428.288,912.48,425.715"/>
					</g>
				</g>
				<g>
					<path fill="#868686" d="M931.909,421.347v2.919l0,0c-0.008,1.688-1.132,3.377-3.365,4.667c-4.462,2.575-11.677,2.579-16.114,0
						c-2.215-1.287-3.32-2.977-3.309-4.667l0,0v-2.919H931.909z"/>
					<g>
						<path fill="#575756" d="M912.48,416.679c4.47-2.579,11.683-2.574,16.116,0c4.439,2.581,4.415,6.754-0.053,9.334
							c-4.462,2.577-11.677,2.582-16.114,0C907.996,423.438,908.021,419.258,912.48,416.679"/>
					</g>
				</g>
				<g>
					<path fill="#868686" d="M931.909,412.314v2.919l0,0c-0.008,1.688-1.132,3.377-3.365,4.667c-4.462,2.574-11.677,2.579-16.114,0
						c-2.215-1.289-3.32-2.979-3.309-4.667l0,0v-2.919H931.909z"/>
					<g>
						<path fill="#575756" d="M912.48,407.648c4.47-2.58,11.683-2.575,16.116,0c4.439,2.582,4.415,6.753-0.053,9.333
							c-4.462,2.578-11.677,2.58-16.114,0C907.996,414.405,908.021,410.223,912.48,407.648"/>
					</g>
				</g>
			</g>
			<polygon fill="#C6C6C5" points="1072.186,675.68 812.274,525.622 812.274,538.083 1072.186,688.143 			"/>
			<polygon fill="#B1B1B1" points="1072.186,675.68 1332.098,525.622 1332.098,538.083 1072.186,688.143 			"/>
			<g>
				<polygon fill="#EDEDED" points="1332.098,525.622 1071.344,375.562 812.274,525.622 1072.186,675.68 				"/>
			</g>
		</g>
		<g id="valeur-plateau">
			<g>
				<g>
					<path fill="#868686" d="M1257.091,261.539v2.917l0,0c-0.008,1.688-1.132,3.379-3.365,4.668c-4.462,2.575-11.677,2.58-16.114,0
						c-2.215-1.287-3.32-2.978-3.309-4.668l0,0v-2.917H1257.091z"/>
					<g>
						<path fill="#575756" d="M1237.663,256.873c4.47-2.581,11.683-2.577,16.116,0c4.439,2.58,4.415,6.753-0.053,9.333
							c-4.462,2.575-11.677,2.58-16.114,0C1233.178,263.629,1233.203,259.448,1237.663,256.873"/>
					</g>
				</g>
				<g>
					<path fill="#868686" d="M1257.091,252.507v2.918l0,0c-0.008,1.687-1.132,3.377-3.365,4.667c-4.462,2.575-11.677,2.578-16.114,0
						c-2.215-1.287-3.32-2.978-3.309-4.667l0,0v-2.918L1257.091,252.507L1257.091,252.507z"/>
					<g>
						<path fill="#575756" d="M1237.663,247.84c4.47-2.582,11.683-2.577,16.116,0c4.439,2.578,4.415,6.751-0.053,9.333
							c-4.462,2.575-11.677,2.581-16.114,0C1233.178,254.595,1233.203,250.416,1237.663,247.84"/>
					</g>
				</g>
				<g>
					<path fill="#868686" d="M1257.091,243.471v2.92l0,0c-0.008,1.688-1.132,3.379-3.365,4.666c-4.462,2.575-11.677,2.581-16.114,0
						c-2.215-1.287-3.32-2.978-3.309-4.666l0,0v-2.92H1257.091z"/>
					<g>
						<path fill="#575756" d="M1237.663,238.806c4.47-2.582,11.683-2.578,16.116,0c4.439,2.581,4.415,6.754-0.053,9.333
							c-4.462,2.575-11.677,2.58-16.114,0C1233.178,245.563,1233.203,241.379,1237.663,238.806"/>
					</g>
				</g>
				<g>
					<path fill="#868686" d="M1257.091,234.438v2.919l0,0c-0.008,1.688-1.132,3.377-3.365,4.667c-4.462,2.575-11.677,2.579-16.114,0
						c-2.215-1.287-3.32-2.977-3.309-4.667l0,0v-2.919L1257.091,234.438L1257.091,234.438z"/>
					<g>
						<path fill="#575756" d="M1237.663,229.771c4.47-2.579,11.683-2.574,16.116,0c4.439,2.581,4.415,6.754-0.053,9.334
							c-4.462,2.577-11.677,2.582-16.114,0C1233.178,236.53,1233.203,232.349,1237.663,229.771"/>
					</g>
				</g>
				<g>
					<path fill="#868686" d="M1257.091,225.406v2.919l0,0c-0.008,1.688-1.132,3.377-3.365,4.667c-4.462,2.574-11.677,2.579-16.114,0
						c-2.215-1.289-3.32-2.979-3.309-4.667l0,0v-2.919H1257.091z"/>
					<g>
						<path fill="#575756" d="M1237.663,220.74c4.47-2.58,11.683-2.575,16.116,0c4.439,2.582,4.415,6.753-0.053,9.333
							c-4.462,2.578-11.677,2.58-16.114,0C1233.178,227.497,1233.203,223.315,1237.663,220.74"/>
					</g>
				</g>
			</g>
			<polygon fill="#C6C6C5" points="1401.114,485.776 1141.205,335.716 1141.205,348.178 1401.114,498.238 			"/>
			<polygon fill="#B1B1B1" points="1401.114,485.776 1661.026,335.716 1661.026,348.178 1401.114,498.238 			"/>
			<g>
				<polygon fill="#EDEDED" points="1661.026,335.716 1400.273,185.655 1141.205,335.716 1401.114,485.776 				"/>
			</g>
		</g>
	</g>
	<g id="risques-mini">
		<path fill="#FF4A46" d="M1097.182,473.483c-0.339-0.7-0.538-1.567-0.54-2.6c-0.013-4.044,2.831-8.968,6.35-11.001
			c1.728-0.996,3.295-1.11,4.449-0.489l0.002-0.005l6.564,3.821v-5.339l20.718-11.926l2.889,1.688
			c-0.011-0.149-0.04-0.274-0.041-0.429c-0.013-4.044,2.83-8.965,6.348-10.997c1.729-0.997,3.298-1.111,4.449-0.489l0.002-0.005
			l5.362,3.122l0.939-1.207l3.909-1.332l-0.028-0.639l0.918-4.902l1.047-3.091l2.128-2.129l2.744-1.67l3.137-0.469l3.162,1.486
			l2.832,2.495l0.794,3.921l-0.915,5.331l-2.216,3.035l0.201,0.126l4.366,7.167l1.939,1.125l-2.141,7.354l2.648,1.537h0.007
			l0.001-0.002l5.628,3.267l0.11,0.065l0.061,0.034l-0.008-0.005l1.016,0.588l0.004,0.004l0.029,0.017l-0.003,0.006
			c0.669,0.398,1.084,1.228,1.086,2.41c0.004,1.071-0.343,2.242-0.899,3.321l0.306,0.179c1.082-1.608,2.43-2.997,3.917-3.855
			c1.728-0.997,3.297-1.111,4.449-0.49l0.003-0.004l7.217,4.202c0.014,0.008,0.026,0.017,0.04,0.022l0.031,0.021l-0.001,0.002
			c1.126,0.673,1.823,2.073,1.829,4.064c0.012,4.044-2.831,8.969-6.35,11.001c-1.968,1.137-3.732,1.125-4.906,0.186v0.002
			l-3.628-2.065c-0.022-0.014-0.046-0.024-0.068-0.039l-0.31-0.182v7.183l-20.65,11.923l-5.128-2.963
			c-0.527,3.728-3.11,7.823-6.24,9.63c-1.969,1.137-3.73,1.124-4.903,0.187h-0.002l-2.922-1.662l0.463,0.401v5.419l-29.056-1.893
			l-22.089-12.84l-3.171-16.839v-5.417L1097.182,473.483z M1116.475,468.778c-0.428,3.807-3.051,8.067-6.264,9.921
			c-1.216,0.702-2.35,0.959-3.32,0.836l1.479,6.666l6.49,3.771l3.516-4.514l-3.232-3.021l2.39-2.472l4.933,0.241l1.154-1.481
			l1.546-3.827l9.23-10.116l0.678,0.395l0.404-0.449l-0.256,0.113l-0.925-0.235l-0.571-1.296l-13.364,7.714L1116.475,468.778z
			 M1132.501,489.625l3.886-1.281l8.679-13.398l-2.375-1.373l-7.97,8.736l-4.094,2.346l-9.537,8.937l5.284,3.073l9.445-1.441
			l-4.711-3.646L1132.501,489.625z M1145.037,459.859c0.067,0.066,0.138,0.131,0.203,0.197l6.783-2.316l1.881-4.76l-0.015-0.293
			c-0.835,0.947-1.76,1.764-2.751,2.336c-0.489,0.282-0.963,0.486-1.42,0.63l-0.814,1.058L1145.037,459.859z M1141.014,452.215
			v2.213l1.421-1.38L1141.014,452.215z M1149.525,486.673c1.728-0.997,3.297-1.111,4.45-0.489l0.001-0.006l7.225,4.208
			c0,0,0.017,0.01,0.024,0.015l0.041,0.024l-0.001,0.002c0.174,0.105,0.336,0.231,0.489,0.37v-5.129l20.718-11.923l1.703,0.993
			c-0.024-0.246-0.069-0.475-0.069-0.744c-0.005-2.071,0.744-4.37,1.944-6.395l-0.265-0.154c-0.655,1.017-1.492,1.899-2.42,2.435
			c-1.17,0.676-2.204,0.65-2.9,0.092l-0.014,0.022l-1.096-0.632l0.002,0.001l-5.475-3.16l-0.004-0.001l-0.392-0.229l-2.005,6.885
			l-2.08,0.954l-0.003-0.002l-14.383,6.89l-1.621-0.938l-1.984,3.134l-9.198,7.882l-2.015,5.152l-0.761-0.103l3.918,3.384
			c-0.108-0.469-0.18-0.974-0.181-1.54C1143.164,493.629,1146.005,488.705,1149.525,486.673z"/>
		<g id="risque-rock">
			<polygon fill="#FF4A46" points="1022.956,543.473 1000.882,538.949 982.795,558.367 987.319,573.527 1021.628,578.712 
				1032.122,565.943 			"/>
			<polygon fill="#FF4A46" points="978.379,582.567 968.361,587.131 967.648,594.258 989.109,600.404 1006.074,592.909 
				993.585,580.81 			"/>
			<polygon fill="#FF4A46" points="977.723,572.267 974.887,565.674 961.924,562.522 956.295,567.189 953.866,573.782 
				971.831,579.436 			"/>
		</g>
		<g id="risque-panneau">
			<path fill="#FF4A46" d="M998.098,499.328c-1.051-0.606-1.975-1.546-2.754-2.775c-0.805-1.268-1.21-2.626-1.205-4.033
				c0.003-1.244,0.393-2.084,1.146-2.527c0.765-0.422,1.703-0.327,2.796,0.306c1.086,0.628,2.029,1.617,2.799,2.925
				c0.782,1.329,1.166,2.614,1.163,3.86c-0.004,1.395-0.405,2.275-1.202,2.632C1000.066,500.056,999.141,499.931,998.098,499.328
				 M997.996,486.477c-0.999-0.578-1.738-1.522-2.119-2.72c-0.355-1.082-0.596-2.496-0.731-4.318l-0.717-13.355
				c-0.133-2.623-0.201-4.455-0.198-5.566c0.005-1.602,0.384-2.669,1.139-3.16c0.764-0.487,1.774-0.373,2.989,0.329
				c1.515,0.873,2.542,2.099,3.066,3.637c0.477,1.425,0.712,3.14,0.705,5.239c-0.003,1.197-0.061,2.402-0.171,3.571l-1.047,12.684
				c-0.121,1.585-0.362,2.696-0.762,3.367C999.728,486.945,998.984,487.047,997.996,486.477 M997.833,445.048
				c-2.287-1.32-4.407-1.133-5.541,0.497l-23.274,33.506c-1.123,1.604-1.11,4.392,0.013,7.29c1.129,2.89,3.222,5.48,5.476,6.782
				l46.293,26.731c2.258,1.302,4.355,1.129,5.488-0.454c1.146-1.59,1.175-4.354,0.065-7.246l-23.022-60.236
				C1002.211,448.986,1000.109,446.362,997.833,445.048"/>
		</g>
		<g id="risque-pointe">
			<polyline fill="#FF4A46" points="1044.491,618.964 1019.39,604.469 1019.469,618.964 1044.491,618.964 			"/>
		</g>
		<g id="risque-trajectoire">
			<path fill="#FF4A46" d="M1049.563,601.373l-5.127-2.047c-2.179,1.847-4.616,3.727-7.243,5.587l4.822,2.285
				C1044.747,605.256,1047.276,603.294,1049.563,601.373 M1061.681,588.554l-5.755-1.374c-1.464,2.074-3.207,4.173-5.171,6.237
				l5.441,1.755C1058.28,592.98,1060.124,590.759,1061.681,588.554 M1068.257,574.36l-6.156-0.497
				c-0.571,2.353-1.349,4.566-2.364,6.78l6.003,0.94C1066.834,579.231,1067.664,576.864,1068.257,574.36 M1069.36,559.796
				l-6.207,0.065c0.109,2.803,0.08,4.978-0.042,7.055l6.21,0.147C1069.443,564.908,1069.469,562.671,1069.36,559.796
				 M1069.042,545.594l-6.193-0.153c-0.182,2.664-0.13,5.281-0.04,7.268l6.22-0.077
				C1068.942,550.708,1068.874,548.159,1069.042,545.594 M1072.963,532.042l-5.899-1.14c-1.331,2.322-2.333,4.68-3.017,7.206
				l6.131,0.59C1070.821,536.363,1071.733,534.18,1072.963,532.042 M1083.898,519.958l-5.02-2.123
				c-2.57,2.045-4.853,4.154-6.765,6.246l5.493,1.694C1079.373,523.827,1081.497,521.872,1083.898,519.958 M1100.052,509.574
				l-4.417-2.551l-4.966,2.887c-1.312,0.765-2.562,1.52-3.744,2.268l4.575,2.443c1.129-0.716,2.338-1.434,3.585-2.159
				L1100.052,509.574"/>
		</g>
	</g>
	<g id="amelio-mini">
		<path id="amelio-kart" fill="#009884" d="M795.004,710.856c0.34-0.699,0.538-1.566,0.54-2.6c0.012-4.043-2.832-8.968-6.351-11.001
			c-1.728-0.996-3.295-1.111-4.448-0.488l-0.003-0.006l-6.564,3.821v-5.339l-20.718-11.926l-2.888,1.687
			c0.009-0.148,0.04-0.274,0.041-0.429c0.012-4.043-2.831-8.964-6.349-10.997c-1.729-0.997-3.298-1.111-4.449-0.489l-0.003-0.006
			l-5.362,3.122L737.511,675l-3.909-1.332l0.028-0.639l-0.918-4.902l-1.049-3.091l-2.126-2.128l-2.744-1.671l-3.139-0.469
			l-3.163,1.486l-2.831,2.496l-0.794,3.92l0.915,5.331l2.216,3.035l-0.202,0.125l-4.366,7.168l-1.938,1.125l2.141,7.354
			l-2.649,1.535l-0.007,0.002l-0.001-0.003l-5.628,3.268l-0.11,0.065l-0.061,0.033l0.008-0.005l-1.016,0.588
			c-0.001,0.001-0.002,0.002-0.002,0.002l-0.031,0.019l0.003,0.005c-0.668,0.398-1.084,1.227-1.087,2.41
			c-0.003,1.071,0.344,2.242,0.901,3.322l-0.306,0.178c-1.083-1.607-2.431-2.996-3.919-3.855c-1.728-0.997-3.295-1.111-4.448-0.489
			l-0.003-0.006l-7.216,4.204c-0.015,0.008-0.027,0.016-0.04,0.022l-0.032,0.02l0.001,0.002c-1.125,0.672-1.823,2.074-1.829,4.065
			c-0.011,4.044,2.83,8.968,6.349,11c1.97,1.138,3.732,1.125,4.906,0.186v0.001l3.629-2.063c0.022-0.014,0.045-0.025,0.068-0.04
			l0.309-0.182v7.183l20.651,11.924l5.128-2.965c0.526,3.728,3.11,7.825,6.24,9.63c1.967,1.138,3.731,1.126,4.903,0.188h0.001
			l2.922-1.663l-0.465,0.401v5.42l29.056-1.892l22.092-12.84l3.171-16.839v-5.416L795.004,710.856z M775.711,706.149
			c0.427,3.808,3.051,8.068,6.264,9.923c1.216,0.702,2.349,0.958,3.319,0.835l-1.48,6.667l-6.488,3.771l-3.518-4.516l3.233-3.02
			l-2.391-2.472l-4.932,0.242l-1.152-1.481l-1.546-3.827l-9.231-10.117l-0.679,0.396l-0.403-0.449l0.257,0.113l0.925-0.237
			l0.57-1.297l13.365,7.716L775.711,706.149z M759.685,726.999l-3.886-1.283l-8.678-13.397l2.375-1.373l7.97,8.735l4.094,2.347
			l9.538,8.936l-5.284,3.072l-9.446-1.44l4.71-3.645L759.685,726.999z M747.148,697.231c-0.066,0.067-0.137,0.13-0.203,0.198
			l-6.784-2.317l-1.88-4.76l0.015-0.292c0.835,0.945,1.759,1.762,2.75,2.336c0.49,0.281,0.964,0.486,1.421,0.63l0.814,1.058
			L747.148,697.231z M751.172,689.588v2.212l-1.422-1.379L751.172,689.588z M742.662,724.046c-1.729-0.997-3.298-1.111-4.45-0.49
			l-0.002-0.005l-7.224,4.207l-0.026,0.015l-0.04,0.023l0.001,0.003c-0.175,0.105-0.337,0.23-0.49,0.37v-5.129l-20.718-11.925
			l-1.702,0.994c0.024-0.246,0.069-0.475,0.069-0.743c0.005-2.072-0.744-4.371-1.944-6.397l0.264-0.153
			c0.656,1.017,1.493,1.899,2.421,2.434c1.169,0.676,2.203,0.65,2.9,0.093l0.013,0.022l1.095-0.632
			c-0.001,0-0.001,0.001-0.001,0.001l5.475-3.159l0.003-0.002l0.393-0.229l2.005,6.885l2.082,0.954l0.003-0.003l14.383,6.892
			l1.621-0.938l1.985,3.133l9.198,7.882l2.015,5.153l0.76-0.104l-3.918,3.383c0.108-0.468,0.179-0.973,0.18-1.54
			C749.022,731.002,746.181,726.077,742.662,724.046z"/>
		<g id="amelio-f1">
			<path fill="#009884" d="M835.842,738.238c4.225,2.439,8.008,2.417,10.526,0.405v0.001l7.786-4.429
				c0.049-0.027,0.099-0.055,0.149-0.083l6.732-3.94l-0.001-0.003c2.416-1.441,3.913-4.456,3.924-8.727
				c0.023-8.679-6.076-19.246-13.629-23.604c-3.708-2.142-7.075-2.384-9.547-1.052l-0.004-0.009l-15.501,9.025
				c-0.024,0.014-0.047,0.027-0.071,0.041l-0.072,0.043l0.001,0.002c-2.414,1.442-3.911,4.456-3.922,8.727
				C822.189,723.31,828.29,733.879,835.842,738.238z"/>
			<path fill="#009884" d="M877.282,735.463l-2.607,1.553v8.135l-0.058-0.034l-15.232,8.81l-75.337-49.755l-3.12-4.425l2.099-1.22
				v-21.9l-24.286-14.023l-37.96-7.565l-12.737-7.332l5.106-2.988l-0.001-0.002c2.417-1.441,3.914-4.455,3.925-8.728
				c0.024-8.678-6.076-19.244-13.628-23.604c-3.709-2.141-7.075-2.382-9.547-1.051l-0.004-0.009l-13.602,7.917v-13.986
				l-17.758-10.22l-1.263,0.778v0.015l-0.005-0.005l-32.261,18.701l0.043,0.048l-0.157-0.091l-1.264,0.778v32.232l2.34,1.35
				c-1.141,0.043-2.186,0.321-3.107,0.816l-0.005-0.009l-15.504,9.025c-0.022,0.014-0.043,0.025-0.065,0.038l-0.076,0.044
				l0.001,0.003c-2.414,1.443-3.91,4.456-3.922,8.728c-0.024,8.676,6.076,19.243,13.628,23.602c4.226,2.44,8.009,2.417,10.527,0.406
				l0,0l7.786-4.428c0.05-0.028,0.099-0.055,0.149-0.083l6.733-3.941l-0.001-0.002c1.23-0.734,2.22-1.878,2.899-3.383l20.57,11.878
				l19.929,33.206l24.286,14.021l13.052-7.585l34.501,4.849l7.354,2.609l-9.46,5.509c-0.027,0.015-0.054,0.03-0.081,0.046
				l-0.066,0.039l0.001,0.002c-2.414,1.442-3.91,4.456-3.922,8.728c-0.024,8.677,6.076,19.243,13.629,23.603
				c4.225,2.439,8.008,2.417,10.526,0.405h0.001l7.786-4.428c0.049-0.027,0.099-0.055,0.149-0.084l6.732-3.939l-0.001-0.003
				c2.416-1.441,3.913-4.456,3.924-8.727c0.01-3.831-1.173-8.029-3.147-11.898l46.517,16.506l-34.948,20.212l-7.053-4.058
				l-2.608,1.553v10.947l17.701,10.22l2.661-1.55l0.004,0.002l37.644-21.756l11.594-6.7l1.42,0.503l6.328-1.769l3.033-3.671v-1.294
				l15.307-8.846v-0.002l2.664-1.553v-10.948L877.282,735.463z M675.492,636.233l-6.392-3.691l5.244-2.598
				C674.422,631.984,674.826,634.115,675.492,636.233z M646.649,631.728l13.9-8.045l0.723-0.419v4.781l2.366,1.367l-15.868,9.221
				l-1.121,0.652L646.649,631.728L646.649,631.728z"/>
		</g>
	</g>
	<g id="valeur-mini">
		<g id="valeur-dispatch">
			<path fill="#61AFF0" d="M1334.742,358.687c0.011-4.044-2.831-8.969-6.349-10.999c-1.73-0.998-3.297-1.11-4.449-0.49l-0.003-0.003
				l-7.29,4.243l0.003,0.004c-1.125,0.672-1.824,2.073-1.829,4.065c-0.012,4.044,2.831,8.966,6.349,10.998
				c1.969,1.137,3.731,1.125,4.905,0.188l0.002,0.001l3.627-2.065c0.024-0.013,0.046-0.025,0.069-0.039l3.138-1.836l-0.001-0.001
				C1334.04,362.082,1334.737,360.678,1334.742,358.687z"/>
			<path fill="#61AFF0" d="M1443.304,296.069c1.969,1.137,3.732,1.125,4.906,0.186v0.002l3.629-2.065
				c0.022-0.013,0.046-0.025,0.069-0.039l3.136-1.836l-0.002-0.001c1.127-0.672,1.825-2.075,1.829-4.068
				c0.011-4.044-2.831-8.966-6.35-10.999c-1.728-0.997-3.297-1.109-4.448-0.489l-0.003-0.004l-7.229,4.208l-0.015,0.008
				l-0.046,0.027l0.002,0.002c-1.126,0.672-1.823,2.074-1.829,4.065C1436.943,289.113,1439.787,294.037,1443.304,296.069z"/>
			<polygon fill="#61AFF0" points="1353.71,348.468 1353.71,357.952 1374.361,369.876 1380.719,366.203 1380.719,356.719 
				1360,344.795 			"/>
			<polygon fill="#61AFF0" points="1456.814,322.038 1456.814,312.553 1436.096,300.631 1429.806,304.305 1429.806,313.787 
				1450.458,325.71 			"/>
			<path fill="#61AFF0" d="M1369.323,371.366c-1.729-0.999-3.297-1.111-4.45-0.491l-0.002-0.004l-7.231,4.21l-0.011,0.005
				l-0.047,0.028l0.001,0.004c-1.124,0.672-1.823,2.073-1.829,4.064c-0.01,4.044,2.833,8.968,6.351,10.998
				c1.969,1.137,3.732,1.126,4.906,0.187v0.001l3.629-2.063c0.022-0.015,0.045-0.025,0.068-0.04l3.136-1.836v-0.001
				c1.125-0.673,1.823-2.076,1.828-4.068C1375.684,378.32,1372.84,373.396,1369.323,371.366z"/>
			<path fill="#61AFF0" d="M1487.005,300.439l-0.004-0.004l-7.23,4.209c0,0-0.006,0.004-0.01,0.005l-0.049,0.028l0.002,0.004
				c-1.125,0.672-1.823,2.073-1.828,4.064c-0.01,4.043,2.831,8.968,6.35,10.999c1.969,1.137,3.732,1.125,4.906,0.186v0.001
				l3.627-2.063c0.024-0.015,0.048-0.025,0.069-0.04l3.138-1.835c1.125-0.674,1.823-2.077,1.828-4.068
				c0.013-4.044-2.831-8.968-6.35-10.998C1489.725,299.931,1488.157,299.818,1487.005,300.439z"/>
			<path fill="#61AFF0" d="M1325.187,291.962l-7.355-5.101l-0.502,1.192l-0.711-0.492l-0.504,1.195l-0.71-0.493l-0.503,1.193
				l-0.712-0.493l-0.502,1.193l-0.712-0.493l-1.413,3.345l1.005,0.585l-0.001,0.114c-0.076,0.092-0.127,0.193-0.125,0.293h-0.002
				v0.661h0.002c0,0.114,0.069,0.223,0.169,0.327c-0.102,0.104-0.172,0.215-0.169,0.331h-0.002v0.662l0,0
				c0.002,0.113,0.07,0.224,0.17,0.327c-0.099,0.104-0.17,0.214-0.17,0.33l0,0v0.662h0.002c0,0.115,0.068,0.225,0.169,0.327
				c-0.102,0.104-0.172,0.215-0.169,0.329h-0.002v0.662h0.002c0,0.115,0.068,0.224,0.167,0.328c-0.099,0.105-0.17,0.215-0.17,0.33
				l0,0v0.662l0,0c0.002,0.174,0.116,0.346,0.345,0.478l5.281,3.05c0.458,0.265,1.199,0.265,1.652,0l5.248-3.05
				c0.229-0.133,0.342-0.307,0.339-0.481v-0.656c0-0.115-0.068-0.226-0.169-0.33c0.104-0.104,0.171-0.216,0.169-0.332v-0.657
				c0-0.115-0.068-0.226-0.169-0.33c0.104-0.104,0.171-0.215,0.169-0.331v-0.657c0-0.037-0.025-0.072-0.036-0.109l1.308-0.755
				c0.356,0.414,0.752,0.772,1.179,1.019c0.807,0.467,1.521,0.448,2.002,0.063l0.008,0.015l12.039-6.929l0.027-0.016l-11.769,6.789
				l11.781-6.794c0.462-0.276,0.745-0.851,0.748-1.667c0.001-0.498-0.113-1.03-0.3-1.552l1.237-0.714c0,0-0.005,0.003-0.008,0.005
				l-0.322,0.184l-0.906,0.524l-0.001-0.001l0.907-0.523l0.333-0.193c0.139-0.083,0.226-0.257,0.226-0.505
				c0.003-0.501-0.352-1.113-0.789-1.367c-0.213-0.122-0.409-0.137-0.551-0.06l-1.244,0.717c-0.356-0.415-0.754-0.773-1.181-1.02
				c-0.709-0.409-1.352-0.456-1.824-0.202l-11.781,6.793l-0.453,0.265c-0.007,0.003-0.013,0.005-0.013,0.005l-0.018,0.012
				l0.001,0.002C1325.513,290.863,1325.257,291.326,1325.187,291.962z M1325.269,296.532c0-0.001-0.001-0.003-0.001-0.003
				l1.307-0.753l0.002,0.002L1325.269,296.532z"/>
			<polygon fill="#61AFF0" points="1401.632,343.567 1416.892,334.743 1416.892,332.031 1400.287,326.444 1400.287,326.415 
				1395.541,302.881 1393.147,302.124 1377.952,310.948 1385.164,335.727 1387.246,336.678 1387.249,336.677 			"/>
			<polygon fill="#61AFF0" points="1486.074,370.892 1479.587,374.663 1470.823,363.417 1469.279,359.589 1460.048,349.474 
				1455.336,352.212 1455.206,352.286 1450.496,355.026 1450.496,356.885 1459.726,367 1463.819,369.349 1473.356,378.285 
				1468.071,381.355 1456.148,379.538 1445.065,389.108 1445.065,394.525 1474.122,392.634 1485.167,386.216 1496.214,379.794 
				1499.385,362.957 1499.385,357.542 1488.302,360.85 			"/>
			<path fill="#61AFF0" d="M1416.225,397.122v-0.02c-0.097-0.009-0.197-0.006-0.304,0.005c-0.292,0.008-0.605,0.071-0.934,0.195
				c-1.366,0.345-3.532,0.838-7.725-0.846v-4.43l-5.036-2.919l-5.069,2.919v5.807l5.053,2.917l2.373-1.371l3.361,6.984
				c0,0,5.276,3.005,5.456,3.005c0.069,0-0.093-1.037-0.319-2.331l2.813-0.151l0.692-2.559c-0.06-0.051-0.119-0.1-0.18-0.151
				c0.99-1.331,1.642-3.003,1.638-4.475C1418.044,398.153,1417.306,397.235,1416.225,397.122z"/>
			<path fill="#61AFF0" d="M1525.306,380.808l0.023-0.014c-0.003-0.018-0.006-0.037-0.006-0.054l-0.021,0.011l-0.001-0.159
				c-0.009-0.064-0.023-0.126-0.036-0.186c-0.002-0.019-0.005-0.039-0.01-0.056c-0.003-0.013-0.004-0.026-0.007-0.039v0.016
				c-0.017-0.077-0.048-0.136-0.068-0.21l0.021-0.011c-0.004-0.019-0.01-0.035-0.015-0.051l-0.021,0.013
				c-0.06-0.206-0.11-0.415-0.193-0.593l0.001-0.001l-0.008-0.019l-0.003-0.007c-0.004-0.006-0.006-0.015-0.01-0.021l-0.003,0.001
				c-0.088-0.183-0.204-0.334-0.318-0.486v-0.036l0.004-0.002c-0.019-0.023-0.037-0.045-0.055-0.068v0.028
				c-0.134-0.169-0.288-0.305-0.452-0.429l0.028-0.017c-0.017-0.011-0.029-0.023-0.045-0.032l-0.024,0.016
				c-0.043-0.031-0.078-0.071-0.122-0.099v-0.017c-0.017-0.012-0.033-0.023-0.051-0.031v0.007c0,0-0.002-0.001-0.002-0.003
				l0.004-0.006l-2.274-1.34l-0.002,0.004c-0.918-0.494-2.166-0.405-3.543,0.389c-2.802,1.617-5.065,5.539-5.057,8.758
				c0.005,1.587,0.56,2.705,1.458,3.239l2.214,1.306v-0.001c0.147,0.084,0.314,0.127,0.476,0.179l-0.035,0.02
				c0.022,0.005,0.043,0.015,0.065,0.02l0.029-0.017c0.019,0.006,0.036,0.015,0.056,0.02v0.023c0.017,0.004,0.032,0.008,0.05,0.01
				v-0.015c0.195,0.047,0.401,0.061,0.614,0.066v0.028c0.018,0.001,0.033,0.001,0.051,0.001v-0.026c0.082,0,0.159,0.017,0.244,0.01
				l-0.016,0.008c0.026-0.001,0.052-0.004,0.08-0.005c0,0,0.01,0,0.015-0.002l0.023-0.001l0.009-0.005
				c0.082-0.009,0.173-0.043,0.257-0.057v0.025c0.019-0.002,0.035-0.006,0.052-0.009v-0.027c0.201-0.037,0.401-0.064,0.612-0.136
				v0.001c0.017-0.007,0.033-0.013,0.05-0.019v-0.007c0.199-0.07,0.408-0.18,0.613-0.283v0.025c0.017-0.009,0.034-0.016,0.051-0.024
				v-0.024c0.103-0.051,0.199-0.08,0.301-0.139c0.108-0.063,0.206-0.149,0.313-0.217v0.024c0.017-0.009,0.035-0.022,0.049-0.032
				v-0.027c0.206-0.135,0.413-0.266,0.612-0.425v0.005c0.018-0.015,0.034-0.027,0.052-0.04v-0.001
				c0.212-0.174,0.41-0.376,0.612-0.572v0.025c0.018-0.016,0.033-0.031,0.05-0.048v-0.026c0.082-0.08,0.171-0.148,0.249-0.231
				l0.007-0.004l0.019-0.02c0.007-0.007,0.014-0.015,0.02-0.021c0.025-0.028,0.053-0.057,0.081-0.086l-0.018,0.009
				c0.089-0.096,0.167-0.205,0.254-0.306v0.027c0.017-0.02,0.033-0.04,0.05-0.06v-0.028c0.213-0.253,0.42-0.508,0.613-0.781v0.019
				c0.017-0.022,0.034-0.047,0.049-0.071v-0.022c0.017-0.022,0.028-0.044,0.043-0.065l0.031-0.019
				c0.022-0.032,0.042-0.064,0.065-0.098l-0.033,0.02c0.174-0.261,0.351-0.519,0.505-0.791v0.007c0.018-0.03,0.033-0.06,0.052-0.089
				v-0.019c0.033-0.063,0.063-0.129,0.095-0.19l0.024-0.014c0.016-0.027,0.028-0.054,0.045-0.083l-0.028,0.016
				c0.169-0.321,0.327-0.644,0.465-0.973l0.008-0.005v0.01c0.017-0.042,0.036-0.083,0.05-0.125v-0.043
				c0.108-0.268,0.216-0.537,0.298-0.808l0.004-0.002c0.008-0.024,0.017-0.048,0.024-0.073h-0.001
				c0.083-0.271,0.132-0.541,0.189-0.812l0.022-0.013c0.004-0.022,0.01-0.045,0.015-0.068l-0.021,0.012
				c0.022-0.109,0.058-0.219,0.075-0.328v0.017c0.002-0.017,0.005-0.032,0.008-0.049c0.002-0.022,0.005-0.041,0.01-0.063
				c0.012-0.076,0.024-0.152,0.033-0.228v-0.126l0.017-0.008c0.003-0.02,0.004-0.042,0.006-0.063l-0.023,0.013
				c0.025-0.248,0.061-0.499,0.061-0.74l0.002-0.001c0-0.016,0.002-0.031,0.002-0.047v-0.012h-0.002
				C1525.368,381.236,1525.331,381.027,1525.306,380.808z"/>
			<path fill="#61AFF0" d="M1493.176,399.837l0.024-0.015c-0.001-0.019-0.004-0.037-0.007-0.055l-0.018,0.012l-0.003-0.159
				c-0.009-0.066-0.022-0.132-0.034-0.197c-0.003-0.012-0.004-0.024-0.007-0.036c-0.003-0.016-0.005-0.032-0.008-0.048v0.021
				c-0.018-0.078-0.05-0.139-0.069-0.215l0.02-0.012c-0.004-0.019-0.01-0.034-0.015-0.051l-0.022,0.013
				c-0.057-0.206-0.11-0.415-0.192-0.593l0.001-0.001l-0.006-0.017c0,0-0.005-0.007-0.007-0.012c0,0-0.005-0.012-0.008-0.019
				l-0.003,0.001c-0.088-0.183-0.202-0.333-0.317-0.485v-0.038l0.004-0.002c-0.019-0.024-0.037-0.047-0.056-0.069v0.028
				c-0.135-0.167-0.289-0.305-0.453-0.429l0.028-0.018c-0.015-0.009-0.028-0.021-0.043-0.031l-0.026,0.015
				c-0.042-0.029-0.077-0.071-0.121-0.098v-0.019c-0.018-0.01-0.033-0.021-0.051-0.031v0.006l-0.003-0.002l0.003-0.005l-0.041-0.024
				c-0.002,0-0.002-0.001-0.002-0.001l-2.229-1.314l-0.002,0.002c-0.918-0.494-2.165-0.403-3.542,0.391
				c-2.802,1.617-5.066,5.538-5.058,8.757c0.005,1.585,0.561,2.703,1.457,3.238v0.002l2.213,1.305l0.002-0.002
				c0.146,0.085,0.313,0.128,0.475,0.18l-0.032,0.019c0.021,0.007,0.042,0.015,0.065,0.022l0.029-0.018
				c0.018,0.006,0.035,0.016,0.056,0.021v0.021c0.016,0.005,0.031,0.008,0.05,0.014v-0.016c0.193,0.048,0.402,0.063,0.613,0.067
				v0.028c0.017,0.001,0.033,0.001,0.052,0.001v-0.026c0.082,0.001,0.157,0.017,0.242,0.011l-0.016,0.008
				c0.025-0.001,0.049-0.004,0.071-0.005c0.013-0.002,0.023-0.002,0.034-0.003l0.012-0.001l0.004-0.002
				c0.084-0.008,0.178-0.043,0.265-0.059v0.024c0.017-0.003,0.033-0.005,0.05-0.008v-0.027c0.202-0.037,0.4-0.064,0.612-0.136v0.001
				c0.019-0.006,0.035-0.015,0.052-0.02v-0.006c0.198-0.069,0.406-0.179,0.612-0.282v0.024c0.019-0.008,0.035-0.016,0.053-0.024
				v-0.025c0.1-0.051,0.197-0.078,0.299-0.138c0.107-0.062,0.207-0.148,0.313-0.218v0.025c0.016-0.012,0.031-0.023,0.05-0.035
				v-0.025c0.205-0.136,0.413-0.266,0.612-0.423v0.002c0.014-0.012,0.029-0.022,0.043-0.035l0.006-0.005h0.001l0,0
				c0.212-0.174,0.412-0.377,0.613-0.573v0.026c0.017-0.016,0.035-0.032,0.051-0.05v-0.024c0.08-0.08,0.168-0.148,0.249-0.231
				l0.006-0.004c0.006-0.007,0.012-0.014,0.02-0.021c0.005-0.007,0.014-0.015,0.021-0.02c0.025-0.028,0.05-0.057,0.077-0.086
				l-0.016,0.01c0.088-0.096,0.167-0.206,0.252-0.306v0.027c0.018-0.021,0.035-0.04,0.052-0.061v-0.027
				c0.211-0.251,0.417-0.505,0.61-0.778v0.015c0.019-0.022,0.035-0.045,0.052-0.069v-0.022c0.014-0.022,0.027-0.044,0.042-0.067
				l0.031-0.017c0.022-0.032,0.042-0.065,0.065-0.098l-0.032,0.019c0.175-0.259,0.349-0.518,0.505-0.79v0.006
				c0.017-0.029,0.033-0.061,0.05-0.089v-0.019c0.033-0.063,0.063-0.128,0.097-0.19l0.023-0.014c0.015-0.027,0.03-0.055,0.044-0.084
				l-0.026,0.016c0.167-0.32,0.327-0.643,0.463-0.973l0.01-0.004v0.01c0.017-0.043,0.034-0.083,0.051-0.124v-0.043
				c0.107-0.269,0.213-0.538,0.298-0.808l0.004-0.003c0.008-0.025,0.017-0.048,0.024-0.072h-0.002
				c0.083-0.271,0.133-0.541,0.189-0.812l0.022-0.014c0.004-0.022,0.01-0.045,0.015-0.068l-0.021,0.011
				c0.022-0.11,0.059-0.219,0.075-0.329v0.016c0.003-0.015,0.004-0.03,0.007-0.044c0.004-0.024,0.008-0.046,0.01-0.071
				c0.012-0.075,0.025-0.151,0.035-0.225v-0.125l0.016-0.008c0.002-0.021,0.004-0.043,0.005-0.064l-0.021,0.015v-0.011
				c0.024-0.244,0.056-0.49,0.058-0.727l0.004-0.003c0-0.016,0-0.031,0-0.047v-0.013h-0.001
				C1493.237,400.263,1493.201,400.055,1493.176,399.837z"/>
			<polygon fill="#61AFF0" points="1289.814,282.925 1296.039,286.645 1297.618,285.715 1297.618,278.412 1304.265,274.565 
				1310.504,278.294 1312.084,277.364 1312.084,270.042 1323.727,263.304 1323.727,261.355 1313.205,247.947 1311.695,248.877 
				1311.695,256.198 1277.464,276.035 1273.462,270.939 1271.951,271.869 1271.951,279.23 1271.951,281.181 1282.403,287.214 			"/>
			<path fill="#61AFF0" d="M1462.215,255.908c-0.014,0.033-0.028,0.065-0.041,0.1c-0.147,0.444-0.253,0.929-0.336,1.437
				c-0.022,0.123-0.041,0.25-0.058,0.378c-0.069,0.528-0.119,1.076-0.121,1.666c-0.018,6.926,4.85,15.36,10.88,18.837
				c0.341,0.198,0.679,0.369,1.015,0.527c0.098,0.047,0.196,0.087,0.293,0.131c0.242,0.105,0.481,0.202,0.718,0.287
				c0.103,0.037,0.204,0.073,0.305,0.108c0.257,0.085,0.512,0.154,0.763,0.214c0.064,0.016,0.129,0.037,0.193,0.049
				c0.31,0.067,0.612,0.114,0.906,0.143c0.078,0.007,0.153,0.007,0.228,0.012c0.219,0.016,0.434,0.021,0.645,0.016
				c0.099-0.001,0.197-0.007,0.292-0.015c0.193-0.015,0.381-0.039,0.566-0.068c0.087-0.015,0.174-0.025,0.26-0.044
				c0.254-0.054,0.503-0.12,0.742-0.207c0.053-0.02,0.104-0.048,0.156-0.069c0.186-0.073,0.367-0.157,0.545-0.253
				c0.087-0.047,0.172-0.1,0.256-0.153c0.092-0.058,0.185-0.112,0.272-0.175l5.823-3.413l-0.002-0.002
				c1.93-1.151,3.124-3.555,3.134-6.966c0.02-6.927-4.851-15.36-10.877-18.838c-2.959-1.709-5.647-1.9-7.62-0.838l-0.004-0.008
				l-6.408,3.761l0.017,0.029c-0.017,0.012-0.031,0.024-0.049,0.036c-0.065,0.039-0.123,0.084-0.184,0.127
				c-0.298,0.205-0.581,0.436-0.837,0.705c-0.028,0.029-0.062,0.053-0.089,0.085c-0.271,0.294-0.511,0.631-0.728,0.996
				c-0.049,0.083-0.097,0.17-0.143,0.257C1462.529,255.111,1462.356,255.491,1462.215,255.908z M1481.143,272.951l-4.485-5.577
				l4.158-0.357c0.354,1.304,0.554,2.606,0.55,3.847C1481.363,271.625,1481.283,272.317,1481.143,272.951z M1474.912,270.644
				l2.627,3.263c-0.918-0.647-1.795-1.408-2.629-2.25L1474.912,270.644z M1474.935,263.413l0.017-5.998
				c1.696,1.521,3.184,3.488,4.298,5.627L1474.935,263.413z M1471.234,255.027l-0.016,5.584l-3.322-4.127
				c-0.009-0.211-0.026-0.426-0.026-0.635c0.002-0.458,0.03-0.891,0.074-1.313C1468.929,254.397,1470.042,254.553,1471.234,255.027z
				"/>
			<path fill="#61AFF0" d="M1530.28,291.906c0.021-6.927-4.849-15.359-10.877-18.838c-2.96-1.709-5.647-1.9-7.619-0.838
				l-0.004-0.008l-6.408,3.761l0.017,0.029c-0.017,0.011-0.032,0.024-0.05,0.036c-0.063,0.039-0.122,0.084-0.183,0.125
				c-0.3,0.206-0.584,0.438-0.842,0.708c-0.026,0.028-0.057,0.051-0.083,0.082c-0.272,0.296-0.513,0.633-0.733,1
				c-0.047,0.081-0.092,0.165-0.137,0.248c-0.197,0.361-0.373,0.744-0.517,1.165c-0.01,0.031-0.024,0.059-0.034,0.089
				c-0.15,0.446-0.256,0.933-0.34,1.442c-0.022,0.122-0.039,0.246-0.056,0.37c-0.069,0.53-0.119,1.079-0.121,1.669
				c-0.019,6.927,4.851,15.36,10.878,18.838c0.341,0.197,0.678,0.369,1.014,0.526c0.1,0.047,0.198,0.088,0.298,0.131
				c0.24,0.106,0.478,0.202,0.713,0.287c0.105,0.037,0.206,0.073,0.309,0.108c0.254,0.084,0.508,0.154,0.756,0.214
				c0.066,0.016,0.133,0.037,0.198,0.051c0.309,0.065,0.611,0.112,0.906,0.141c0.078,0.008,0.153,0.008,0.228,0.013
				c0.22,0.016,0.434,0.022,0.645,0.016c0.098-0.001,0.196-0.006,0.291-0.015c0.195-0.014,0.382-0.039,0.569-0.068
				c0.085-0.016,0.173-0.025,0.256-0.044c0.255-0.053,0.504-0.121,0.745-0.209c0.049-0.019,0.095-0.044,0.144-0.064
				c0.191-0.075,0.376-0.16,0.556-0.258c0.086-0.045,0.167-0.098,0.251-0.15c0.094-0.059,0.189-0.115,0.28-0.181l5.82-3.41
				l-0.001-0.003C1529.075,297.721,1530.271,295.316,1530.28,291.906z M1521.777,296.411l-4.484-5.577l4.158-0.356
				c0.354,1.304,0.554,2.606,0.552,3.847C1521.998,295.085,1521.918,295.778,1521.777,296.411z M1515.568,286.874l0.017-5.998
				c1.698,1.521,3.183,3.488,4.299,5.626L1515.568,286.874z M1511.867,278.486l-0.015,5.584l-3.323-4.129
				c-0.009-0.212-0.027-0.427-0.026-0.635c0.002-0.457,0.03-0.892,0.074-1.311C1509.563,277.857,1510.674,278.013,1511.867,278.486z
				 M1515.547,294.105l2.623,3.262c-0.915-0.646-1.793-1.408-2.626-2.249L1515.547,294.105z"/>
			<path fill="#61AFF0" d="M1289.774,358.723c-2.958-1.709-5.646-1.9-7.618-0.838l-0.006-0.008l-6.407,3.761l0.018,0.031
				c-0.018,0.009-0.034,0.024-0.052,0.036c-0.062,0.038-0.118,0.082-0.177,0.122c-0.302,0.206-0.588,0.441-0.849,0.714
				c-0.025,0.027-0.054,0.05-0.081,0.076c-0.272,0.297-0.514,0.635-0.733,1.003c-0.048,0.08-0.093,0.163-0.138,0.246
				c-0.197,0.362-0.373,0.745-0.516,1.168c-0.011,0.029-0.024,0.056-0.035,0.087c-0.149,0.446-0.254,0.936-0.339,1.443
				c-0.022,0.122-0.039,0.246-0.054,0.37c-0.071,0.53-0.121,1.079-0.122,1.669c-0.02,6.927,4.85,15.36,10.876,18.838
				c0.343,0.198,0.681,0.369,1.015,0.526c0.1,0.047,0.198,0.088,0.296,0.131c0.241,0.106,0.479,0.202,0.715,0.287
				c0.104,0.037,0.205,0.073,0.309,0.109c0.254,0.084,0.508,0.153,0.758,0.212c0.065,0.016,0.131,0.037,0.197,0.051
				c0.309,0.065,0.609,0.112,0.906,0.141c0.077,0.008,0.153,0.008,0.229,0.013c0.22,0.016,0.433,0.022,0.643,0.016
				c0.099-0.001,0.196-0.007,0.292-0.014c0.194-0.015,0.381-0.039,0.568-0.069c0.086-0.015,0.173-0.025,0.257-0.044
				c0.254-0.054,0.503-0.12,0.744-0.209c0.048-0.019,0.094-0.043,0.142-0.063c0.193-0.077,0.379-0.162,0.559-0.261
				c0.085-0.046,0.167-0.098,0.248-0.149c0.094-0.058,0.189-0.114,0.279-0.178l5.823-3.414l-0.002-0.002
				c1.929-1.151,3.124-3.555,3.132-6.966C1300.671,370.636,1295.803,362.203,1289.774,358.723z M1292.148,382.067l-4.485-5.577
				l4.161-0.356c0.353,1.304,0.554,2.606,0.548,3.847C1292.372,380.741,1292.289,381.435,1292.148,382.067z M1285.94,372.529
				l0.016-5.997c1.699,1.52,3.185,3.488,4.3,5.626L1285.94,372.529z M1282.24,364.142l-0.017,5.584l-3.322-4.127
				c-0.008-0.211-0.025-0.426-0.025-0.634c0.001-0.458,0.029-0.892,0.074-1.311C1279.935,363.513,1281.046,363.669,1282.24,364.142z
				 M1285.919,379.759l2.622,3.259c-0.915-0.645-1.793-1.407-2.624-2.248L1285.919,379.759z"/>
			<path fill="#61AFF0" d="M1330.408,382.183c-2.958-1.709-5.646-1.9-7.619-0.838l-0.004-0.008l-6.408,3.761l0.017,0.03
				c-0.017,0.012-0.033,0.025-0.052,0.037c-0.062,0.037-0.117,0.079-0.175,0.119c-0.304,0.209-0.59,0.445-0.853,0.719
				c-0.025,0.025-0.051,0.047-0.075,0.073c-0.273,0.297-0.517,0.636-0.736,1.005c-0.047,0.079-0.09,0.161-0.134,0.242
				c-0.199,0.363-0.376,0.751-0.522,1.176c-0.009,0.028-0.022,0.052-0.03,0.08c-0.149,0.447-0.255,0.936-0.341,1.446
				c-0.021,0.12-0.038,0.244-0.053,0.368c-0.071,0.53-0.121,1.08-0.122,1.67c-0.019,6.927,4.849,15.361,10.877,18.838
				c0.342,0.198,0.679,0.368,1.013,0.525c0.103,0.048,0.2,0.09,0.302,0.133c0.238,0.106,0.474,0.2,0.709,0.284
				c0.104,0.039,0.207,0.075,0.311,0.11c0.253,0.083,0.503,0.153,0.751,0.211c0.066,0.016,0.135,0.039,0.201,0.052
				c0.309,0.065,0.609,0.112,0.905,0.141c0.077,0.008,0.153,0.008,0.229,0.014c0.22,0.016,0.433,0.021,0.645,0.016
				c0.098-0.002,0.195-0.007,0.29-0.015c0.195-0.015,0.383-0.039,0.569-0.068c0.085-0.016,0.172-0.026,0.255-0.044
				c0.255-0.053,0.506-0.12,0.745-0.208c0.051-0.019,0.098-0.044,0.148-0.064c0.191-0.077,0.374-0.161,0.554-0.257
				c0.086-0.046,0.169-0.102,0.253-0.153c0.093-0.058,0.185-0.113,0.274-0.176l5.824-3.413l-0.003-0.003
				c1.93-1.15,3.124-3.554,3.134-6.966C1341.304,394.095,1336.435,385.663,1330.408,382.183z M1332.783,405.526l-4.485-5.577
				l4.159-0.356c0.354,1.305,0.554,2.606,0.548,3.847C1333.004,404.202,1332.923,404.893,1332.783,405.526z M1326.573,395.99
				l0.018-5.997c1.696,1.52,3.183,3.488,4.297,5.626L1326.573,395.99z M1322.874,387.602l-0.016,5.583l-3.323-4.127
				c-0.008-0.212-0.025-0.426-0.025-0.635c0.002-0.457,0.029-0.891,0.074-1.312C1320.568,386.973,1321.68,387.129,1322.874,387.602z
				 M1326.552,403.219l2.623,3.261c-0.915-0.646-1.793-1.406-2.625-2.249L1326.552,403.219z"/>
			<path fill="#61AFF0" d="M1336.941,315.673l-0.878,0.508h-0.002l-0.002,0.001v0.001c-0.054,0.032-0.09,0.103-0.09,0.2
				c0,0.201,0.141,0.445,0.315,0.546c0.098,0.058,0.176,0.043,0.236-0.004l0.007,0.014l0.859-0.496
				c0.657,1.017,1.493,1.899,2.421,2.435c1.169,0.676,2.202,0.65,2.899,0.092l0.013,0.02l1.095-0.631l0,0l5.474-3.157V315.2
				l0.003-0.003l2.749-1.585v-0.002c0.669-0.398,1.082-1.23,1.085-2.412c0.003-1.051-0.331-2.195-0.866-3.254l4.804,2.773
				l8.511-4.912v-6.451l-5.652-3.248l-8.483,4.913v5.575c-0.597-0.8-1.311-1.481-2.082-1.925c-1.026-0.592-1.957-0.659-2.639-0.292
				l-0.002-0.002l-2.742,1.59c-0.003,0.001-0.005,0.001-0.005,0.001l-0.006-0.001l-5.714,3.317l-0.085,0.048
				c0,0,0.021-0.01,0.057-0.029l-1.06,0.613c-0.003,0.001-0.006,0.004-0.006,0.004l-0.031,0.018l0.003,0.004
				c-0.668,0.399-1.083,1.228-1.087,2.408C1336.035,313.421,1336.382,314.591,1336.941,315.673z"/>
		</g>
		<path id="valeur-kart" fill="#61AFF0" d="M1459.957,342.583c0.34-0.698,0.538-1.565,0.541-2.6c0.01-4.043-2.833-8.967-6.35-11
			c-1.728-0.996-3.297-1.111-4.45-0.489l-0.002-0.005l-6.565,3.821v-5.34l-20.717-11.926l-2.888,1.688
			c0.01-0.148,0.039-0.274,0.04-0.429c0.012-4.043-2.829-8.964-6.348-10.997c-1.73-0.997-3.298-1.111-4.449-0.49l-0.003-0.005
			l-5.361,3.121l-0.94-1.206l-3.908-1.332l0.028-0.639l-0.918-4.902l-1.049-3.091l-2.126-2.128l-2.744-1.671l-3.137-0.469
			l-3.164,1.486l-2.831,2.496l-0.794,3.92l0.916,5.331l2.215,3.035l-0.201,0.125l-4.366,7.167l-1.939,1.126l2.142,7.354
			l-2.649,1.535l-0.008,0.001l-0.001-0.003l-5.627,3.268l-0.111,0.065l-0.06,0.035l0.008-0.006l-1.015,0.588l-0.004,0.003
			l-0.03,0.018l0.003,0.006c-0.668,0.398-1.085,1.227-1.087,2.41c-0.003,1.071,0.344,2.242,0.9,3.322l-0.305,0.177
			c-1.082-1.606-2.432-2.995-3.919-3.854c-1.727-0.998-3.296-1.111-4.448-0.49l-0.003-0.005l-7.217,4.204
			c-0.014,0.008-0.025,0.015-0.039,0.022l-0.032,0.021l0.001,0.001c-1.124,0.673-1.822,2.074-1.828,4.066
			c-0.01,4.043,2.83,8.968,6.349,11c1.969,1.137,3.732,1.124,4.906,0.186v0.001l3.629-2.063c0.022-0.015,0.046-0.025,0.067-0.04
			l0.311-0.182v7.182l20.651,11.925l5.127-2.965c0.527,3.728,3.111,7.825,6.24,9.63c1.969,1.137,3.73,1.126,4.903,0.188h0.002
			l2.922-1.663l-0.464,0.401v5.42l29.056-1.894l22.092-12.838l3.171-16.839v-5.416L1459.957,342.583z M1440.663,337.878
			c0.428,3.808,3.051,8.068,6.263,9.922c1.217,0.702,2.351,0.959,3.319,0.836l-1.479,6.666l-6.488,3.771l-3.517-4.515l3.232-3.021
			l-2.39-2.471l-4.933,0.241l-1.152-1.48l-1.547-3.827l-9.23-10.117l-0.678,0.395l-0.405-0.449l0.257,0.113l0.925-0.237l0.571-1.296
			l13.364,7.715L1440.663,337.878z M1424.637,358.728l-3.885-1.283l-8.679-13.398l2.376-1.373l7.969,8.736l4.093,2.347l9.538,8.936
			l-5.284,3.072l-9.446-1.441l4.713-3.644L1424.637,358.728z M1412.101,328.961c-0.066,0.067-0.138,0.13-0.203,0.197l-6.784-2.317
			l-1.88-4.759l0.015-0.293c0.836,0.946,1.759,1.763,2.751,2.335c0.488,0.283,0.963,0.487,1.42,0.632l0.813,1.058L1412.101,328.961z
			 M1416.125,321.318v2.212l-1.422-1.379L1416.125,321.318z M1407.613,355.776c-1.729-0.998-3.297-1.111-4.45-0.49l-0.002-0.005
			l-7.224,4.207c-0.008,0.004-0.018,0.01-0.025,0.015l-0.04,0.023l0.002,0.003c-0.175,0.105-0.337,0.23-0.49,0.369v-5.128
			l-20.719-11.924l-1.703,0.993c0.024-0.245,0.07-0.474,0.07-0.743c0.006-2.071-0.745-4.371-1.945-6.396l0.265-0.153
			c0.656,1.018,1.493,1.9,2.421,2.435c1.169,0.676,2.203,0.649,2.9,0.092l0.013,0.022l1.096-0.632l-0.001,0.001l5.474-3.16
			l0.003-0.001l0.393-0.229l2.005,6.885l2.082,0.954l0.002-0.003l14.382,6.891l1.622-0.938l1.984,3.133l9.198,7.882l2.015,5.152
			l0.762-0.104l-3.919,3.384c0.108-0.469,0.179-0.973,0.18-1.54C1413.974,362.731,1411.133,357.806,1407.613,355.776z"/>
	</g>
	<g id="extia-reload" opacity="0.8">
		<circle fill="#384047" cx="825.411" cy="367.378" r="59.787"/>
		<path fill="#FFFFFF" d="M833.298,396.829c3.039-0.923,4.755-4.135,3.832-7.173c-0.923-3.039-4.135-4.752-7.173-3.832l-0.059,0.006
			c-9.9,2.699-20.22-2.943-23.237-12.825c-3.076-10.07,2.594-20.727,12.661-23.802c9.888-3.02,20.338,2.393,23.623,12.124
			l-10.718,3.273l21.499,15.456l9.19-24.831l-8.952,2.736c-5.148-15.814-22.036-24.648-38.007-19.769
			c-16.15,4.935-25.245,22.027-20.31,38.18c4.873,15.947,21.591,25.013,37.56,20.492L833.298,396.829z"/>
	</g>
</g>
</svg>
