<?xml version="1.0" encoding="utf-8"?>
<!-- Generated by IcoMoon.io -->
<!DOCTYPE svg PUBLIC "-//W3C//DTD SVG 1.1//EN" "http://www.w3.org/Graphics/SVG/1.1/DTD/svg11.dtd">
<svg version="1.1" xmlns="http://www.w3.org/2000/svg" xmlns:xlink="http://www.w3.org/1999/xlink" width="28" height="28" viewBox="0 0 28 28">
	<path d="M24.5 4.375h-21c-1.933 0-3.5 1.568-3.5 3.5v11.375c0 1.933 1.567 3.5 3.5 3.5h21c1.933 0 3.5-1.567 3.5-3.5v-11.375c0-1.932-1.567-3.5-3.5-3.5zM1.75 8.969l6.124 4.594-6.124 4.594v-9.188zM26.25 19.25c0 0.966-0.786 1.75-1.75 1.75h-21c-0.965 0-1.75-0.784-1.75-1.75l6.853-5.141 3.822 2.867c0.466 0.348 1.020 0.525 1.575 0.525 0.554 0 1.108-0.176 1.574-0.525l3.823-2.867 6.853 5.141zM26.25 18.156l-6.125-4.594 6.125-4.594v9.188zM15.049 16.277c-0.305 0.229-0.668 0.35-1.049 0.35s-0.745-0.122-1.050-0.35l-11.2-8.402c0-0.965 0.785-1.75 1.75-1.75h21c0.964 0 1.75 0.785 1.75 1.75l-11.201 8.402z" fill="#ffffff" />
</svg>
