<?xml version="1.0" encoding="utf-8"?>
<!-- Generated by IcoMoon.io -->
<!DOCTYPE svg PUBLIC "-//W3C//DTD SVG 1.1//EN" "http://www.w3.org/Graphics/SVG/1.1/DTD/svg11.dtd">
<svg version="1.1" xmlns="http://www.w3.org/2000/svg" xmlns:xlink="http://www.w3.org/1999/xlink" width="28" height="28" viewBox="0 0 28 28">
	<path d="M20.125 0h-12.25c-1.444 0-2.625 1.181-2.625 2.625v22.75c0 1.444 1.181 2.625 2.625 2.625h12.25c1.444 0 2.625-1.181 2.625-2.625v-22.75c0-1.444-1.181-2.625-2.625-2.625zM10.5 1.313h7v0.875h-7v-0.875zM14 26.25c-0.966 0-1.75-0.784-1.75-1.75s0.784-1.75 1.75-1.75 1.75 0.784 1.75 1.75-0.784 1.75-1.75 1.75zM21 21h-14v-17.5h14v17.5z" fill="#ffffff" />
</svg>
