<?xml version="1.0" encoding="utf-8"?>
<!-- Generator: Adobe Illustrator 17.0.0, SVG Export Plug-In . SVG Version: 6.00 Build 0)  -->
<!DOCTYPE svg PUBLIC "-//W3C//DTD SVG 1.1//EN" "http://www.w3.org/Graphics/SVG/1.1/DTD/svg11.dtd">
<svg version="1.1" id="Calque_1" xmlns="http://www.w3.org/2000/svg" xmlns:xlink="http://www.w3.org/1999/xlink" x="0px" y="0px"
	 width="38.73px" height="38.73px" viewBox="0 0 38.73 38.73" enable-background="new 0 0 38.73 38.73" xml:space="preserve">
<g id="reload-group" opacity="0.8">
	<circle fill="#384047" cx="19.365" cy="19.365" r="19.361"/>
	<path fill="#FFFFFF" d="M21.919,28.902c0.984-0.299,1.54-1.339,1.241-2.323c-0.299-0.984-1.339-1.539-2.323-1.241l-0.019,0.002
		c-3.206,0.874-6.548-0.953-7.525-4.153c-0.996-3.261,0.84-6.712,4.1-7.708c3.202-0.978,6.586,0.775,7.65,3.926l-3.471,1.06
		l6.962,5.005l2.976-8.041l-2.899,0.886c-1.667-5.121-7.136-7.982-12.308-6.402c-5.23,1.598-8.175,7.133-6.577,12.364
		c1.578,5.164,6.992,8.1,12.163,6.636L21.919,28.902z"/>
</g>
</svg>
