<?xml version="1.0" encoding="utf-8"?>
<!-- Generator: Adobe Illustrator 17.0.0, SVG Export Plug-In . SVG Version: 6.00 Build 0)  -->
<!DOCTYPE svg PUBLIC "-//W3C//DTD SVG 1.1//EN" "http://www.w3.org/Graphics/SVG/1.1/DTD/svg11.dtd">
<svg version="1.1" id="Calque_1" xmlns="http://www.w3.org/2000/svg" xmlns:xlink="http://www.w3.org/1999/xlink" x="0px" y="0px"
	 width="32px" height="32px" viewBox="0 0 32 32" enable-background="new 0 0 32 32" xml:space="preserve">
<path fill="none" stroke="#FFFFFF" stroke-width="0.75" stroke-linecap="round" stroke-linejoin="round" stroke-miterlimit="10" stroke-opacity="0.8" d="
	M27.342,23.562c-0.916,0-1.728,0.37-2.385,0.912l-5.763-4.114c0.366-0.753,0.587-1.581,0.587-2.47c0-1.222-0.399-2.352-1.056-3.275
	l6.741-6.747c0.561,0.329,1.182,0.569,1.875,0.569c2.09,0,3.781-1.691,3.781-3.781s-1.691-3.781-3.781-3.781
	s-3.781,1.691-3.781,3.781c0,0.698,0.244,1.315,0.569,1.875l-6.741,6.747c-0.931-0.665-2.053-1.06-3.279-1.06
	c-2.164,0-4.025,1.23-4.982,3.016l-4.553-1.521c-0.184-0.849-0.905-1.495-1.809-1.495c-1.045,0-1.891,0.846-1.891,1.891
	S1.721,16,2.766,16c0.476,0,0.901-0.192,1.234-0.484l4.527,1.511c-0.044,0.285-0.089,0.569-0.089,0.864
	c0,3.131,2.541,5.672,5.672,5.672c1.558,0,2.973-0.631,3.999-1.651l5.726,4.088c-0.163,0.421-0.273,0.868-0.273,1.344
	c0,2.086,1.691,3.781,3.781,3.781s3.781-1.695,3.781-3.781S29.432,23.562,27.342,23.562z"/>
</svg>
