<?xml version="1.0" encoding="utf-8"?>
<!-- Generator: Adobe Illustrator 17.1.0, SVG Export Plug-In . SVG Version: 6.00 Build 0)  -->
<!DOCTYPE svg PUBLIC "-//W3C//DTD SVG 1.1//EN" "http://www.w3.org/Graphics/SVG/1.1/DTD/svg11.dtd">
<svg version="1.1" id="Calque_1" xmlns="http://www.w3.org/2000/svg" xmlns:xlink="http://www.w3.org/1999/xlink" x="0px" y="0px"
	 viewBox="0 0 230.7 671.4" enable-background="new 0 0 230.7 671.4" xml:space="preserve">
<g id="masque2_9_" opacity="5.000000e-002">
	<path fill="#FFFFFF" d="M199.4,0L0.1,199.2v159.3l230.5-230.5V0H199.4z M0.1,671.4l230.6-232.9v-160L0.1,512.1L0.1,671.4z"/>
</g>
<g>
	<polygon fill="#CECECE" points="230.8,517.2 0,517.2 0,486.7 230.7,486.5 	"/>
</g>
<g>
	<polygon fill="#333333" points="230.7,486.7 0,487 0,401.1 230.8,401.1 	"/>
</g>
<g>
	<defs>
		<path id="SVGID_1_" d="M199.6,0L0.1,199.5v159.3l230.5-230.5V0H199.6z M0.1,592.9v0.8H78l152.7-155v-160L0.1,512.4L0.1,592.9z"/>
	</defs>
	<clipPath id="SVGID_2_">
		<use xlink:href="#SVGID_1_"  overflow="visible"/>
	</clipPath>
	<g id="texte1_4_" clip-path="url(#SVGID_2_)">
		<g>
			<path fill="#FFFFFF" stroke="#FFFFFF" stroke-miterlimit="10" d="M79.4,148.4h5.5v11.5l8.7-11.5h6.5l-8.9,11.3l9.3,15.3H94
				l-6.6-10.9l-2.5,3.1v7.8h-5.5V148.4z"/>
			<path fill="#FFFFFF" stroke="#FFFFFF" stroke-miterlimit="10" d="M105.5,148.4h5.5V175h-5.5V148.4z"/>
			<path fill="#FFFFFF" stroke="#FFFFFF" stroke-miterlimit="10" d="M118.5,148.4h5.5V170h10.8v5.1h-16.3V148.4z"/>
			<path fill="#FFFFFF" stroke="#FFFFFF" stroke-miterlimit="10" d="M140.5,148.4h5.5V175h-5.5V148.4z"/>
			<path fill="#FFFFFF" stroke="#FFFFFF" stroke-miterlimit="10" d="M173.5,148.4l-7.6,13l7.9,13.6h-6.3l-4.9-9.1l-4.9,9.1h-6.1
				l7.9-13.5l-7.5-13.1h6.3l4.5,8.6l4.6-8.6H173.5z"/>
			<path fill="#FFFFFF" stroke="#FFFFFF" stroke-miterlimit="10" d="M32.2,183.4h10c3.1,0,5.5,0.9,7.2,2.5c1.4,1.4,2.2,3.5,2.2,6.2
				v0.2c0,4-2,6.6-4.9,7.9l5.7,9.9h-6.3l-4.9-8.7h-3.5v8.7h-5.5V183.4z M41.8,196.4c2.8,0,4.3-1.6,4.3-4v0c0-2.7-1.6-4-4.4-4h-4v8
				H41.8z"/>
			<path fill="#FFFFFF" stroke="#FFFFFF" stroke-miterlimit="10" d="M58,183.4h17.1v5H63.4v5.7h10.3v5H63.4v5.9h11.8v5H58V183.4z"/>
			<path fill="#FFFFFF" stroke="#FFFFFF" stroke-miterlimit="10" d="M80.4,196.9v-0.3c0-8.1,5-13.5,12-13.5c4,0,6.5,1.4,8.5,3.5
				l-3.3,4.3c-1.6-1.6-3.3-2.7-5.4-2.7c-3.6,0-6.2,3.3-6.2,8.5v0.1c0,5.3,2.7,8.5,6.3,8.5c2.1,0,3.7-1,5.5-2.8l3.3,3.9
				c-2.4,2.5-4.9,4-9,4C85.1,210.4,80.4,205.1,80.4,196.9z"/>
			<path fill="#FFFFFF" stroke="#FFFFFF" stroke-miterlimit="10" d="M106.8,183.4h10c3.1,0,5.5,0.9,7.2,2.5c1.4,1.4,2.2,3.5,2.2,6.2
				v0.2c0,4-2,6.6-4.9,7.9l5.7,9.9h-6.3l-4.9-8.7h-3.5v8.7h-5.5V183.4z M116.4,196.4c2.8,0,4.3-1.6,4.3-4v0c0-2.7-1.6-4-4.4-4h-4v8
				H116.4z"/>
			<path fill="#FFFFFF" stroke="#FFFFFF" stroke-miterlimit="10" d="M132.1,199.7v-16.3h5.5v16.3c0,3.8,1.8,5.6,4.6,5.6
				s4.6-1.8,4.6-5.5v-16.4h5.5v16.1c0,7.3-4,10.9-10.2,10.9C136.1,210.5,132.1,206.9,132.1,199.7z"/>
			<path fill="#FFFFFF" stroke="#FFFFFF" stroke-miterlimit="10" d="M164.4,188.5h-6.7v-5.1h18.8v5.1h-6.7V210h-5.5V188.5z"/>
			<path fill="#FFFFFF" stroke="#FFFFFF" stroke-miterlimit="10" d="M182.1,183.4h17.1v5h-11.7v5.7h10.3v5h-10.3v5.9h11.8v5h-17.3
				V183.4z"/>
			<path fill="#FFFFFF" stroke="#FFFFFF" stroke-miterlimit="10" d="M45,253.4h17.1v5.1H50.5v6h10.2v5.1H50.5V280H45V253.4z"/>
			<path fill="#FFFFFF" stroke="#FFFFFF" stroke-miterlimit="10" d="M67.6,269.7v-16.3h5.5v16.3c0,3.8,1.8,5.6,4.6,5.6
				c2.8,0,4.6-1.8,4.6-5.5v-16.4h5.5v16.1c0,7.3-4,10.9-10.2,10.9C71.5,280.5,67.6,276.9,67.6,269.7z"/>
			<path fill="#FFFFFF" stroke="#FFFFFF" stroke-miterlimit="10" d="M99.8,258.5h-6.7v-5.1H112v5.1h-6.7V280h-5.5V258.5z"/>
			<path fill="#FFFFFF" stroke="#FFFFFF" stroke-miterlimit="10" d="M117.3,269.7v-16.3h5.5v16.3c0,3.8,1.8,5.6,4.6,5.6
				c2.8,0,4.6-1.8,4.6-5.5v-16.4h5.5v16.1c0,7.3-4,10.9-10.2,10.9C121.2,280.5,117.3,276.9,117.3,269.7z"/>
			<path fill="#FFFFFF" stroke="#FFFFFF" stroke-miterlimit="10" d="M144.4,253.4h10c3.1,0,5.5,0.9,7.2,2.5c1.4,1.4,2.2,3.5,2.2,6.2
				v0.2c0,4-2,6.6-4.9,7.9l5.7,9.9h-6.3l-4.9-8.7h-3.5v8.7h-5.5V253.4z M154,266.4c2.8,0,4.3-1.6,4.3-4v0c0-2.7-1.6-4-4.4-4h-4v8
				H154z"/>
			<path fill="#FFFFFF" stroke="#FFFFFF" stroke-miterlimit="10" d="M168.2,276.5l3.3-4.1c1.8,1.6,4,3,6.6,3c2.1,0,3.4-1.1,3.4-2.6
				v0c0-1.3-0.8-2.2-4.6-3.6c-4.7-1.8-7.6-3.6-7.6-8.2v-0.1c0-4.6,3.6-7.8,8.7-7.8c3.1,0,6.2,1.1,8.6,3.3l-3.1,4.2
				c-1.7-1.4-3.6-2.5-5.7-2.5c-1.9,0-3.1,1-3.1,2.3v0c0,1.5,0.9,2.2,5.1,4c4.6,1.8,7.1,3.8,7.1,7.9v0.1c0,4.9-3.8,8-8.9,8
				C174.6,280.4,171.1,279.2,168.2,276.5z"/>
			<path fill="#FFFFFF" stroke="#FFFFFF" stroke-miterlimit="10" d="M16.4,311.5l3.3-4.1c1.8,1.6,4,3,6.6,3c2.1,0,3.4-1.1,3.4-2.6v0
				c0-1.3-0.8-2.2-4.6-3.6c-4.7-1.8-7.6-3.6-7.6-8.2v-0.1c0-4.6,3.6-7.8,8.7-7.8c3.1,0,6.2,1.1,8.6,3.3l-3.1,4.2
				c-1.7-1.4-3.6-2.5-5.7-2.5c-1.9,0-3.1,1-3.1,2.3v0c0,1.5,0.9,2.2,5.1,4c4.6,1.8,7.1,3.8,7.1,7.9v0.1c0,4.9-3.8,8-8.9,8
				C22.8,315.4,19.3,314.2,16.4,311.5z"/>
			<path fill="#FFFFFF" stroke="#FFFFFF" stroke-miterlimit="10" d="M43.4,293.5h-6.7v-5.1h18.8v5.1h-6.7V315h-5.5V293.5z"/>
			<path fill="#FFFFFF" stroke="#FFFFFF" stroke-miterlimit="10" d="M63.7,288.3h5.2l9.5,26.7h-5.7l-2-5.8h-9.2l-1.9,5.8h-5.5
				L63.7,288.3z M69.1,304.4l-2.9-8.7l-2.9,8.7H69.1z"/>
			<path fill="#FFFFFF" stroke="#FFFFFF" stroke-miterlimit="10" d="M79.1,301.9v-0.3c0-7.9,5.2-13.5,12.4-13.5
				c3.7,0,6.3,1.1,8.7,3.1l-3.3,4.3c-1.4-1.3-3-2.3-5.5-2.3c-3.8,0-6.7,3.5-6.7,8.4v0.3c0,5.5,3,8.5,6.9,8.5c1.6,0,3-0.4,4-1.1v-4.7
				h-4.8v-4.8h10.1v12.3c-2.4,1.8-5.5,3.3-9.5,3.3C84.2,315.4,79.1,310.3,79.1,301.9z"/>
			<path fill="#FFFFFF" stroke="#FFFFFF" stroke-miterlimit="10" d="M105.4,288.4h5.5V315h-5.5V288.4z"/>
			<path fill="#FFFFFF" stroke="#FFFFFF" stroke-miterlimit="10" d="M123.5,288.3h5.2l9.5,26.7h-5.7l-2-5.8h-9.2l-1.9,5.8H114
				L123.5,288.3z M129,304.4l-2.9-8.7l-2.9,8.7H129z"/>
			<path fill="#FFFFFF" stroke="#FFFFFF" stroke-miterlimit="10" d="M141.4,288.4h5.5V315h-5.5V288.4z"/>
			<path fill="#FFFFFF" stroke="#FFFFFF" stroke-miterlimit="10" d="M152.1,288.4h10c3.1,0,5.5,0.9,7.2,2.5c1.4,1.4,2.2,3.5,2.2,6.2
				v0.2c0,4-2,6.6-4.9,7.9l5.7,9.9h-6.3l-4.9-8.7h-3.5v8.7h-5.5V288.4z M161.7,301.4c2.8,0,4.3-1.6,4.3-4v0c0-2.7-1.6-4-4.4-4h-4v8
				H161.7z"/>
			<path fill="#FFFFFF" stroke="#FFFFFF" stroke-miterlimit="10" d="M175.5,288.4h17.1v5H181v5.7h10.3v5H181v5.9h11.8v5h-17.3V288.4
				z"/>
			<path fill="#FFFFFF" stroke="#FFFFFF" stroke-miterlimit="10" d="M194.8,311.5l3.3-4.1c1.8,1.6,4,3,6.6,3c2.1,0,3.4-1.1,3.4-2.6
				v0c0-1.3-0.8-2.2-4.6-3.6c-4.7-1.8-7.6-3.6-7.6-8.2v-0.1c0-4.6,3.6-7.8,8.7-7.8c3.1,0,6.2,1.1,8.6,3.3l-3.1,4.2
				c-1.7-1.4-3.6-2.5-5.7-2.5c-1.9,0-3.1,1-3.1,2.3v0c0,1.5,0.9,2.2,5.1,4c4.6,1.8,7.1,3.8,7.1,7.9v0.1c0,4.9-3.8,8-8.9,8
				C201.3,315.4,197.8,314.2,194.8,311.5z"/>
		</g>
	</g>
	<g clip-path="url(#SVGID_2_)">
	</g>
</g>
<g>
	<defs>
		<path id="SVGID_3_" d="M0.1,592.1l0-79.7l230.5-233.7V128.3L0.1,358.8V592.1z"/>
	</defs>
	<clipPath id="SVGID_4_">
		<use xlink:href="#SVGID_3_"  overflow="visible"/>
	</clipPath>
	<g id="texte2_4_" clip-path="url(#SVGID_4_)">
		<g>
			<path fill="none" stroke="#FFFFFF" stroke-miterlimit="10" d="M69,148.5h5.5V160l8.7-11.5h6.5l-8.9,11.3l9.3,15.3h-6.5L77,164.2
				l-2.5,3.1v7.8H69V148.5z"/>
			<path fill="none" stroke="#FFFFFF" stroke-miterlimit="10" d="M95.1,148.5h5.5v26.6h-5.5V148.5z"/>
			<path fill="none" stroke="#FFFFFF" stroke-miterlimit="10" d="M108.1,148.5h5.5v21.5h10.8v5.1h-16.3V148.5z"/>
			<path fill="none" stroke="#FFFFFF" stroke-miterlimit="10" d="M130.1,148.5h5.5v26.6h-5.5V148.5z"/>
			<path fill="none" stroke="#FFFFFF" stroke-miterlimit="10" d="M163.1,148.5l-7.6,13l7.9,13.6h-6.3l-4.9-9.1l-4.9,9.1h-6.1
				l7.9-13.5l-7.5-13.1h6.3l4.5,8.6l4.6-8.6H163.1z"/>
			<path fill="none" stroke="#FFFFFF" stroke-miterlimit="10" d="M32.2,183.5h10c3.1,0,5.5,0.9,7.2,2.5c1.4,1.4,2.2,3.5,2.2,6.2v0.2
				c0,4-2,6.6-4.9,7.9l5.7,9.9h-6.3l-4.9-8.7h-3.5v8.7h-5.5V183.5z M41.8,196.5c2.8,0,4.3-1.6,4.3-4v0c0-2.7-1.6-4-4.4-4h-4v8H41.8z
				"/>
			<path fill="none" stroke="#FFFFFF" stroke-miterlimit="10" d="M58,183.5h17.1v5H63.4v5.7h10.3v5H63.4v5.9h11.8v5H58V183.5z"/>
			<path fill="none" stroke="#FFFFFF" stroke-miterlimit="10" d="M80.4,197v-0.3c0-8.1,5-13.5,12-13.5c4,0,6.5,1.4,8.5,3.5l-3.3,4.3
				c-1.6-1.6-3.3-2.7-5.4-2.7c-3.6,0-6.2,3.3-6.2,8.5v0.1c0,5.3,2.7,8.5,6.3,8.5c2.1,0,3.7-1,5.5-2.8l3.3,3.9c-2.4,2.5-4.9,4-9,4
				C85.1,210.5,80.4,205.1,80.4,197z"/>
			<path fill="none" stroke="#FFFFFF" stroke-miterlimit="10" d="M106.8,183.5h10c3.1,0,5.5,0.9,7.2,2.5c1.4,1.4,2.2,3.5,2.2,6.2
				v0.2c0,4-2,6.6-4.9,7.9l5.7,9.9h-6.3l-4.9-8.7h-3.5v8.7h-5.5V183.5z M116.4,196.5c2.8,0,4.3-1.6,4.3-4v0c0-2.7-1.6-4-4.4-4h-4v8
				H116.4z"/>
			<path fill="none" stroke="#FFFFFF" stroke-miterlimit="10" d="M132.1,199.8v-16.3h5.5v16.3c0,3.8,1.8,5.6,4.6,5.6
				s4.6-1.8,4.6-5.5v-16.4h5.5v16.1c0,7.3-4,10.9-10.2,10.9C136.1,210.5,132.1,207,132.1,199.8z"/>
			<path fill="none" stroke="#FFFFFF" stroke-miterlimit="10" d="M164.4,188.6h-6.7v-5.1h18.8v5.1h-6.7v21.5h-5.5V188.6z"/>
			<path fill="none" stroke="#FFFFFF" stroke-miterlimit="10" d="M182.1,183.5h17.1v5h-11.7v5.7h10.3v5h-10.3v5.9h11.8v5h-17.3
				V183.5z"/>
			<path fill="none" stroke="#FFFFFF" stroke-miterlimit="10" d="M45,253.5h17.1v5.1H50.5v6h10.2v5.1H50.5v10.5H45V253.5z"/>
			<path fill="none" stroke="#FFFFFF" stroke-miterlimit="10" d="M67.6,269.8v-16.3h5.5v16.3c0,3.8,1.8,5.6,4.6,5.6
				c2.8,0,4.6-1.8,4.6-5.5v-16.4h5.5v16.1c0,7.3-4,10.9-10.2,10.9C71.5,280.5,67.6,277,67.6,269.8z"/>
			<path fill="none" stroke="#FFFFFF" stroke-miterlimit="10" d="M99.8,258.6h-6.7v-5.1H112v5.1h-6.7v21.5h-5.5V258.6z"/>
			<path fill="none" stroke="#FFFFFF" stroke-miterlimit="10" d="M117.3,269.8v-16.3h5.5v16.3c0,3.8,1.8,5.6,4.6,5.6
				c2.8,0,4.6-1.8,4.6-5.5v-16.4h5.5v16.1c0,7.3-4,10.9-10.2,10.9C121.2,280.5,117.3,277,117.3,269.8z"/>
			<path fill="none" stroke="#FFFFFF" stroke-miterlimit="10" d="M144.4,253.5h10c3.1,0,5.5,0.9,7.2,2.5c1.4,1.4,2.2,3.5,2.2,6.2
				v0.2c0,4-2,6.6-4.9,7.9l5.7,9.9h-6.3l-4.9-8.7h-3.5v8.7h-5.5V253.5z M154,266.5c2.8,0,4.3-1.6,4.3-4v0c0-2.7-1.6-4-4.4-4h-4v8
				H154z"/>
			<path fill="none" stroke="#FFFFFF" stroke-miterlimit="10" d="M168.2,276.5l3.3-4.1c1.8,1.6,4,3,6.6,3c2.1,0,3.4-1.1,3.4-2.6v0
				c0-1.3-0.8-2.2-4.6-3.6c-4.7-1.8-7.6-3.6-7.6-8.2V261c0-4.6,3.6-7.8,8.7-7.8c3.1,0,6.2,1.1,8.6,3.3l-3.1,4.2
				c-1.7-1.4-3.6-2.5-5.7-2.5c-1.9,0-3.1,1-3.1,2.3v0c0,1.5,0.9,2.2,5.1,4c4.6,1.8,7.1,3.8,7.1,7.9v0.1c0,4.9-3.8,8-8.9,8
				C174.6,280.5,171.1,279.3,168.2,276.5z"/>
			<path fill="none" stroke="#FFFFFF" stroke-miterlimit="10" d="M16.4,311.5l3.3-4.1c1.8,1.6,4,3,6.6,3c2.1,0,3.4-1.1,3.4-2.6v0
				c0-1.3-0.8-2.2-4.6-3.6c-4.7-1.8-7.6-3.6-7.6-8.2V296c0-4.6,3.6-7.8,8.7-7.8c3.1,0,6.2,1.1,8.6,3.3l-3.1,4.2
				c-1.7-1.4-3.6-2.5-5.7-2.5c-1.9,0-3.1,1-3.1,2.3v0c0,1.5,0.9,2.2,5.1,4c4.6,1.8,7.1,3.8,7.1,7.9v0.1c0,4.9-3.8,8-8.9,8
				C22.8,315.5,19.3,314.3,16.4,311.5z"/>
			<path fill="none" stroke="#FFFFFF" stroke-miterlimit="10" d="M43.4,293.6h-6.7v-5.1h18.8v5.1h-6.7v21.5h-5.5V293.6z"/>
			<path fill="none" stroke="#FFFFFF" stroke-miterlimit="10" d="M63.7,288.4h5.2l9.5,26.7h-5.7l-2-5.8h-9.2l-1.9,5.8h-5.5
				L63.7,288.4z M69.1,304.5l-2.9-8.7l-2.9,8.7H69.1z"/>
			<path fill="none" stroke="#FFFFFF" stroke-miterlimit="10" d="M79.1,302v-0.3c0-7.9,5.2-13.5,12.4-13.5c3.7,0,6.3,1.1,8.7,3.1
				l-3.3,4.3c-1.4-1.3-3-2.3-5.5-2.3c-3.8,0-6.7,3.5-6.7,8.4v0.3c0,5.5,3,8.5,6.9,8.5c1.6,0,3-0.4,4-1.1v-4.7h-4.8v-4.8h10.1v12.3
				c-2.4,1.8-5.5,3.3-9.5,3.3C84.2,315.5,79.1,310.3,79.1,302z"/>
			<path fill="none" stroke="#FFFFFF" stroke-miterlimit="10" d="M105.4,288.5h5.5v26.6h-5.5V288.5z"/>
			<path fill="none" stroke="#FFFFFF" stroke-miterlimit="10" d="M123.5,288.4h5.2l9.5,26.7h-5.7l-2-5.8h-9.2l-1.9,5.8H114
				L123.5,288.4z M129,304.5l-2.9-8.7l-2.9,8.7H129z"/>
			<path fill="none" stroke="#FFFFFF" stroke-miterlimit="10" d="M141.4,288.5h5.5v26.6h-5.5V288.5z"/>
			<path fill="none" stroke="#FFFFFF" stroke-miterlimit="10" d="M152.1,288.5h10c3.1,0,5.5,0.9,7.2,2.5c1.4,1.4,2.2,3.5,2.2,6.2
				v0.2c0,4-2,6.6-4.9,7.9l5.7,9.9h-6.3l-4.9-8.7h-3.5v8.7h-5.5V288.5z M161.7,301.5c2.8,0,4.3-1.6,4.3-4v0c0-2.7-1.6-4-4.4-4h-4v8
				H161.7z"/>
			<path fill="none" stroke="#FFFFFF" stroke-miterlimit="10" d="M175.5,288.5h17.1v5H181v5.7h10.3v5H181v5.9h11.8v5h-17.3V288.5z"
				/>
			<path fill="none" stroke="#FFFFFF" stroke-miterlimit="10" d="M194.8,311.5l3.3-4.1c1.8,1.6,4,3,6.6,3c2.1,0,3.4-1.1,3.4-2.6v0
				c0-1.3-0.8-2.2-4.6-3.6c-4.7-1.8-7.6-3.6-7.6-8.2V296c0-4.6,3.6-7.8,8.7-7.8c3.1,0,6.2,1.1,8.6,3.3l-3.1,4.2
				c-1.7-1.4-3.6-2.5-5.7-2.5c-1.9,0-3.1,1-3.1,2.3v0c0,1.5,0.9,2.2,5.1,4c4.6,1.8,7.1,3.8,7.1,7.9v0.1c0,4.9-3.8,8-8.9,8
				C201.3,315.5,197.8,314.3,194.8,311.5z"/>
		</g>
	</g>
</g>
<g>
	<path fill="#FFFFFF" stroke="#FFFFFF" stroke-miterlimit="10" d="M103.7,235.2l0.5-0.5c0.9,0.8,1.7,1.3,2.9,1.3
		c1.3,0,2.2-0.8,2.2-1.9v0c0-0.9-0.4-1.5-2.4-2.2c-2.1-0.8-2.8-1.5-2.8-2.8v0c0-1.4,1.2-2.5,2.8-2.5c1.1,0,2,0.3,2.9,1.1l-0.4,0.6
		c-0.8-0.7-1.6-1-2.5-1c-1.3,0-2.1,0.8-2.1,1.8v0c0,1,0.5,1.5,2.4,2.2c2.1,0.8,2.7,1.6,2.7,2.8v0c0,1.5-1.2,2.6-2.9,2.6
		C105.7,236.6,104.7,236.2,103.7,235.2z"/>
	<path fill="#FFFFFF" stroke="#FFFFFF" stroke-miterlimit="10" d="M112.7,226.7h5.9v0.6h-5.2v3.9h4.7v0.6h-4.7v4h5.2v0.6h-5.9V226.7
		z"/>
	<path fill="#FFFFFF" stroke="#FFFFFF" stroke-miterlimit="10" d="M120.6,235.2l0.5-0.5c0.9,0.8,1.7,1.3,2.9,1.3
		c1.3,0,2.2-0.8,2.2-1.9v0c0-0.9-0.4-1.5-2.4-2.2c-2.1-0.8-2.8-1.5-2.8-2.8v0c0-1.4,1.2-2.5,2.8-2.5c1.1,0,2,0.3,2.9,1.1l-0.4,0.6
		c-0.8-0.7-1.6-1-2.5-1c-1.3,0-2.1,0.8-2.1,1.8v0c0,1,0.5,1.5,2.4,2.2c2.1,0.8,2.7,1.6,2.7,2.8v0c0,1.5-1.2,2.6-2.9,2.6
		C122.7,236.6,121.7,236.2,120.6,235.2z"/>
</g>
<g>
	<polygon fill="#FFFFFF" points="133.7,230.6 174.8,231.4 133.7,232.2 	"/>
</g>
<g>
	<polygon fill="#FFFFFF" points="97,232.2 56,231.4 97,230.6 	"/>
</g>
<g>
	<g>
		<path fill="#FFFFFF" d="M109.7,51.5c-5.1,0-9.4-1.2-13.1-2.2c-1.1-0.3-2.2-0.6-3.3-0.9c-1-0.2-1.7-1-1.9-2c-0.2-1,0.2-2,1.1-2.5
			c6.9-4.7,15-7.1,23.3-7.1c5.4,0,10.7,1,15.7,3.1c0.9,0.3,1.4,1.1,1.5,2c0.1,0.9-0.3,1.8-1.1,2.3c-5.1,3.5-10.7,5.7-16.6,6.8
			C113.5,51.3,111.6,51.5,109.7,51.5z M100.4,45.1c2.9,0.7,5.9,1.4,9.2,1.4c1.6,0,3.2-0.1,4.9-0.4c3.5-0.6,6.8-1.7,10-3.2
			c-2.8-0.7-5.8-1-8.7-1C110.4,41.8,105.2,42.9,100.4,45.1z"/>
	</g>
	<g>
		<path fill="#FFFFFF" d="M115.8,120.4c-23.1,0-41.8-18.8-41.8-41.8c0-6.2,1.3-12.2,3.9-17.7l2-4.2l2.4,4c5,8.1,11.8,20.1,17,32.7
			c2.8-1.3,7.7-3,14.3-3c3.6,0,7.4,0.5,11.1,1.6c4.1,1.1,7.6,1.7,10.6,1.7c0,0,0,0,0,0c6,0,10.9-2.1,16.9-7.2l6-5.1l-1.9,7.6
			C151.7,107.5,135,120.4,115.8,120.4z M80.7,67.6c-1.1,3.5-1.7,7.2-1.7,11c0,20.3,16.5,36.8,36.8,36.8c14.2,0,26.9-8.1,33-20.4
			c-4.3,2.4-8.6,3.5-13.4,3.5c0,0,0,0,0,0c-3.5,0-7.4-0.6-12-1.9c-3.3-0.9-6.6-1.4-9.8-1.4c-8.8,0-14.1,3.6-14.1,3.6l-2.6,1.8
			l-1.2-2.9C91.4,86.7,85.5,75.8,80.7,67.6z"/>
	</g>
	<g>
		<path fill="#FFFFFF" d="M155.1,80.9c-0.8,0-1.5-0.4-2-1c-3.9-5.3-7.3-14.2-10.2-26.6c-0.3-1.1,0.3-2.3,1.3-2.8
			c1-0.5,2.3-0.3,3,0.6c6.6,7.5,10.3,17.1,10.4,27c0,0.1,0,0.2,0,0.3C157.7,79.8,156.5,80.9,155.1,80.9
			C155.2,80.9,155.1,80.9,155.1,80.9z"/>
	</g>
	<g>
		<path fill="#FFFFFF" d="M72.6,52.7c-0.8,0-1.6-0.4-2.1-1.1c-2.2-3.3-3.6-5.2-3.6-5.2c-0.8-1.1-0.6-2.7,0.5-3.5
			c1.1-0.8,2.7-0.6,3.5,0.5c0.1,0.1,1.5,2,3.7,5.3c0.8,1.1,0.5,2.7-0.7,3.5C73.6,52.6,73.1,52.7,72.6,52.7z"/>
	</g>
	<g>
		<path fill="#FFFFFF" d="M103.9,118.1c-1.2,0-2.2-0.8-2.4-2c-1.1-5.5-3-11.7-5.7-18.3c-0.5-1.3,0.1-2.7,1.4-3.2
			c1.3-0.5,2.7,0.1,3.2,1.4c2.8,6.9,4.8,13.4,5.9,19.2c0.3,1.4-0.6,2.7-2,2.9C104.2,118.1,104,118.1,103.9,118.1z"/>
	</g>
	<g>
		<path fill="#FFFFFF" d="M98.1,99.4c-0.2,0-0.5,0-0.7-0.1c-0.7-0.2-1.3-0.8-1.6-1.5C90.5,84.6,83.2,71.7,78,63.2
			c-2.4-4-5-7.9-7.5-11.6c-0.8-1.1-0.5-2.7,0.6-3.5c5.5-3.8,10.5-5.6,15.8-5.6c2.9,0,5.5,0.5,7.4,1c1.1,0.3,2.3,0.6,3.4,0.9
			c3.6,1,7.4,2,11.8,2c1.6,0,3.2-0.1,4.9-0.4c5.2-0.9,10.1-2.9,14.6-6c6.8-4.6,10.2-10,10.3-10.1c0.6-0.9,1.6-1.3,2.6-1.1
			c1,0.2,1.8,1,2,2c0,0.1,1.8,10.3,3.8,21.3c1.8,9.7,5.4,19.4,9.3,24.7c1.3,1.7,2.5,2.9,3.8,3.5c0.7,0.3,1.3,1,1.4,1.8
			c0.1,0.8-0.1,1.6-0.7,2.2c-2.4,2.4-4.3,4.2-6.1,5.8c-6.9,5.9-12.9,8.4-20.1,8.4c-3.5,0-7.4-0.6-12-1.9c-3.3-0.9-6.6-1.4-9.8-1.4
			c-8.8,0-14.1,3.6-14.1,3.6C99.1,99.2,98.6,99.4,98.1,99.4z M113.7,90.3c3.6,0,7.4,0.5,11.1,1.6c4.1,1.1,7.6,1.7,10.6,1.7
			c6,0,10.9-2.1,16.9-7.2c1.1-1,2.3-2.1,3.7-3.4c-1-0.9-1.9-1.9-2.8-3.1c-4.4-5.9-8.3-16.2-10.2-26.7c-1.1-6-2.1-11.8-2.8-15.9
			c-1.9,2.1-4.6,4.6-8.1,7c-5.1,3.5-10.7,5.7-16.6,6.8c-1.9,0.3-3.8,0.5-5.7,0.5c-5.1,0-9.4-1.2-13.1-2.2c-1.1-0.3-2.2-0.6-3.3-0.9
			c-2.5-0.6-4.4-0.9-6.3-0.9c-3.6,0-7.1,1.1-10.9,3.4c2.1,3.2,4.2,6.4,6.2,9.7c5,8.1,11.8,20.1,17,32.7
			C102.2,92,107.1,90.3,113.7,90.3z"/>
	</g>
	<g>
		<path fill="none" d="M102.5,60.3c-2.5-0.4-5-0.7-7.4-0.9c0.9,1.7,1.8,3.4,2.7,5.1c2.3,0.1,4.6,0.4,6.9,0.7
			C103.9,63.5,103.2,61.9,102.5,60.3z"/>
	</g>
	<g>
		<path fill="none" d="M108.9,75c-0.5-1.2-1-2.4-1.5-3.6c-2.1-0.2-4.3-0.5-6.5-0.7c0.7,1.4,1.4,2.8,2.1,4.1
			C105,74.7,106.9,74.8,108.9,75z"/>
	</g>
	<g>
		<path fill="none" d="M136.4,78c0.6,1.6,1.1,3.3,1.7,4.9c0.3-0.2,1.8-1,3.7-2.1c-0.6-1.5-1.2-3-1.8-4.6
			C138.9,76.8,137.7,77.4,136.4,78z"/>
	</g>
	<g>
		<path fill="none" d="M126,63.4c-0.5-1.7-1-3.3-1.5-4.9c-1.7,0.7-3.3,1.4-5,1.9c0.5,1.4,1,2.9,1.6,4.5
			C121.4,64.9,123.2,64.5,126,63.4z"/>
	</g>
	<g>
		<path fill="none" d="M116.6,79.9c0.5,1.3,1,2.5,1.4,3.6c1.7,0.1,3.5,0.3,5.2,0.4c-0.5-1.2-1-2.4-1.5-3.7
			C120,80.1,118.3,80,116.6,79.9z"/>
	</g>
	<g>
		<path fill="none" d="M126.8,80.2c0.5,1.3,1,2.6,1.6,4c1.6,0,3.1,0,4.6-0.2c-0.5-1.4-1-2.9-1.5-4.4C129.9,80,128.4,80.2,126.8,80.2
			z"/>
	</g>
	<g>
		<path fill="none" d="M134.6,59.2c-0.5-1.8-0.9-3.5-1.3-5.2c-1.2,0.7-2.4,1.4-3.7,2.1c0.5,1.6,1,3.3,1.5,5.1
			C132.2,60.5,133.3,59.9,134.6,59.2z"/>
	</g>
	<g>
		<path fill="none" d="M105.3,79.5c0.6,1.3,1.2,2.5,1.8,3.7c1.7-0.1,3.4-0.2,5.1-0.1c-0.5-1.2-1-2.4-1.4-3.6
			C109,79.4,107.1,79.4,105.3,79.5z"/>
	</g>
	<g>
		<path fill="none" d="M116.2,66c-0.6-1.6-1.2-3.2-1.7-4.7c-1.8,0.1-3.7,0-5.6-0.1c0.7,1.6,1.4,3.2,2.1,4.8
			C112.8,66.1,114.5,66.2,116.2,66z"/>
	</g>
	<g>
		<path fill="none" d="M113.4,71.9c0.5,1.2,1,2.4,1.4,3.6c1.7,0.1,3.4,0.2,5,0.1c-0.5-1.3-1-2.5-1.5-3.8
			C116.8,72,115.1,72,113.4,71.9z"/>
	</g>
	<g>
		<path fill="none" d="M123.2,70.8c0.5,1.4,1,2.8,1.6,4.3c0.9-0.2,1.8-0.4,2.7-0.8c0,0,0.6-0.1,1.8-0.5c-0.5-1.6-1.1-3.1-1.6-4.7
			C126.2,69.7,124.7,70.3,123.2,70.8z"/>
	</g>
	<g>
		<path fill="none" d="M134.3,71.5c1-0.5,2.2-1.1,3.4-1.9c-0.5-1.6-1.1-3.2-1.6-4.9c-1.1,0.6-2.2,1.2-3.4,1.8
			C133.3,68.2,133.8,69.9,134.3,71.5z"/>
	</g>
	<g>
		<g>
			<path fill="#FFFFFF" d="M91.9,53.6c-1.6-2.8-3.1-5.3-4.4-7.2c-3.8-2.2-5.7,1-5.7,1s1.5,2.4,3.7,6.4
				C87.7,53.5,89.8,53.5,91.9,53.6z"/>
		</g>
		<g>
			<path fill="#FFFFFF" d="M105.5,92.3c4.2,0.5,5.5-0.8,5.5-0.8s-0.9-1.8-2.3-4.8c-1.9,0.1-3.7,0.3-5.5,0.8
				C104.1,89,104.8,90.7,105.5,92.3z"/>
		</g>
		<g>
			<path fill="#FFFFFF" d="M105.3,79.5c-1.9,0.1-3.7,0.3-5.5,0.7c0.6,1.3,1.3,2.6,1.9,3.9c1.8-0.5,3.6-0.8,5.4-0.9
				C106.5,82.1,105.9,80.8,105.3,79.5z"/>
		</g>
		<g>
			<path fill="#FFFFFF" d="M97.8,64.5c-0.9-1.7-1.8-3.4-2.7-5.1c-2.2-0.2-4.3-0.2-6.4-0.1c1,1.7,2,3.6,3.1,5.6
				C93.8,64.6,95.8,64.4,97.8,64.5z"/>
		</g>
		<g>
			<path fill="#FFFFFF" d="M100.9,70.7c-2-0.1-4-0.2-6.1,0c0.8,1.6,1.7,3.2,2.5,4.8c1.9-0.4,3.8-0.6,5.6-0.7
				C102.3,73.4,101.6,72.1,100.9,70.7z"/>
		</g>
		<g>
			<path fill="#FFFFFF" d="M102.1,46.6c-3.6-2.5-5.7,0.5-5.7,0.5s1.5,3,3.7,7.8c2.3,0.5,4.5,1,6.8,1.3
				C105.1,52.5,103.5,49.1,102.1,46.6z"/>
		</g>
		<g>
			<path fill="#FFFFFF" d="M110.8,79.5c0.5,1.2,1,2.4,1.4,3.6c1.9,0.1,3.9,0.2,5.8,0.3c-0.4-1.1-0.9-2.3-1.4-3.6
				C114.7,79.7,112.7,79.6,110.8,79.5z"/>
		</g>
		<g>
			<path fill="#FFFFFF" d="M113.4,71.9c-2-0.1-4-0.3-6.1-0.6c0.5,1.2,1,2.4,1.5,3.6c2,0.1,4,0.3,6,0.5
				C114.4,74.3,113.9,73.1,113.4,71.9z"/>
		</g>
		<g>
			<path fill="#FFFFFF" d="M111,66c-0.7-1.6-1.4-3.3-2.1-4.8c-2.1-0.2-4.3-0.5-6.5-0.8c0.7,1.5,1.4,3.2,2.2,4.9
				C106.8,65.5,108.9,65.8,111,66z"/>
		</g>
		<g>
			<path fill="#FFFFFF" d="M116.2,93.8c4.1,0.8,5.5-0.4,5.5-0.4s-0.9-2.5-2.4-6.3c-1.9-0.2-3.9-0.4-5.8-0.5
				C114.5,89,115.4,91.4,116.2,93.8z"/>
		</g>
		<g>
			<path fill="#FFFFFF" d="M129.3,73.7c1.1-0.4,2.8-1.1,5-2.2c-0.5-1.7-1-3.3-1.5-4.9c-1.6,0.8-3.3,1.6-5,2.4
				C128.3,70.6,128.8,72.2,129.3,73.7z"/>
		</g>
		<g>
			<path fill="#FFFFFF" d="M132.9,79.3c-0.5,0.1-1,0.3-1.5,0.4c0.5,1.5,1,3,1.5,4.4c1.8-0.2,3.5-0.5,5.1-1.1c0,0,0,0,0.1,0
				c-0.6-1.6-1.1-3.3-1.7-4.9C135.3,78.4,134.1,78.9,132.9,79.3z"/>
		</g>
		<g>
			<path fill="#FFFFFF" d="M131.1,61.1c-0.5-1.8-1-3.5-1.5-5.1c-1.7,0.9-3.4,1.7-5.1,2.5c0.5,1.6,1,3.2,1.5,4.9
				C127.4,62.8,129.1,62.1,131.1,61.1z"/>
		</g>
		<g>
			<path fill="#FFFFFF" d="M126.5,45c0,0-3.5-0.9-4.7,3.3c0.3,1.7,0.8,3.6,1.4,5.7c1.4-0.6,3-1.5,5-2.7
				C127.1,47.5,126.5,45,126.5,45z"/>
		</g>
		<g>
			<path fill="#FFFFFF" d="M137.5,96.7c0,0,1.9,0,4.4-3.3c-0.7-1.9-1.5-3.9-2.2-5.9c-1.6,0.5-3.4,0.7-5.3,0.8
				C136.2,93.3,137.5,96.7,137.5,96.7z"/>
		</g>
		<g>
			<path fill="#FFFFFF" d="M136.2,40.5c-0.2-7.1-3.5-0.9-4.7,3.3c0.2,1.6,0.4,3.2,0.7,4.9c1.4-0.9,2.9-2,4.5-3.2
				C136.5,43.7,136.3,42,136.2,40.5z"/>
		</g>
		<g>
			<path fill="#FFFFFF" d="M147.2,92.2c3.2,3.9,1.9,0,4.4-3.3c-1-1.6-2-3.4-3-5.3c-1.3,0.8-2.8,1.6-4.6,2.4
				C145.1,88.3,146.2,90.4,147.2,92.2z"/>
		</g>
		<g>
			<path fill="#FFFFFF" d="M134.6,59.2c1.4-0.8,2.8-1.7,4.4-2.7c-0.5-1.8-0.9-3.6-1.2-5.2c-1.3,0.9-2.8,1.8-4.5,2.7
				C133.7,55.7,134.1,57.4,134.6,59.2z"/>
		</g>
		<g>
			<path fill="#FFFFFF" d="M137.7,69.7c1.3-0.8,2.7-1.6,4.3-2.7c-0.5-1.6-1-3.2-1.5-4.8c-1.3,0.8-2.8,1.7-4.3,2.6
				C136.7,66.4,137.2,68.1,137.7,69.7z"/>
		</g>
		<g>
			<path fill="#FFFFFF" d="M141.8,80.8c1.3-0.8,2.8-1.8,4.2-2.9c-0.6-1.5-1.2-3-1.8-4.6c-1.2,0.9-2.6,1.9-4.2,2.8
				C140.6,77.8,141.2,79.3,141.8,80.8z"/>
		</g>
		<g>
			<path fill="#FFFFFF" d="M115.4,48.1c0,0-3.3-1.1-4.2,2.7c0.4,1.7,1.1,3.7,1.8,5.9c1.7-0.1,3.3-0.3,5-0.9
				C116.3,51.1,115.4,48.1,115.4,48.1z"/>
		</g>
		<g>
			<path fill="#FFFFFF" d="M121,64.9C121,64.9,121,64.9,121,64.9c-0.5-1.6-1-3.1-1.5-4.5c0,0-0.1,0-0.1,0c-1.5,0.5-3.1,0.7-4.8,0.8
				c0.5,1.5,1.1,3.1,1.7,4.7C117.8,65.8,119.4,65.5,121,64.9z"/>
		</g>
		<g>
			<path fill="#FFFFFF" d="M122.7,70.9c-1.4,0.4-2.8,0.7-4.3,0.8c0.5,1.3,1,2.5,1.5,3.8c1.6,0,3.3-0.2,4.9-0.5
				c-0.5-1.4-1.1-2.9-1.6-4.3C123,70.8,122.9,70.9,122.7,70.9z"/>
		</g>
		<g>
			<path fill="#FFFFFF" d="M121.7,80.2c0.5,1.3,1,2.5,1.5,3.7c1.7,0.1,3.4,0.2,5.1,0.3c-0.5-1.3-1-2.6-1.6-4
				C125.1,80.3,123.5,80.3,121.7,80.2z"/>
		</g>
		<g>
			<path fill="#FFFFFF" d="M128.6,97c0,0,1.8,0.1,3.9-2.7c-0.9-2-1.7-4-2.6-6.1c-1.7-0.1-3.4-0.3-5.2-0.5
				C127,93.2,128.6,97,128.6,97z"/>
		</g>
		<g>
			<path fill="#FFFFFF" d="M102.5,60.3c-0.9-2-1.7-3.8-2.5-5.4c-2.7-0.6-5.4-1.1-8.2-1.3c1,1.8,2.1,3.8,3.2,5.8
				C97.6,59.6,100,60,102.5,60.3z"/>
		</g>
		<g>
			<path fill="#FFFFFF" d="M143.5,47.3c0,0-0.2-4.7-1-6.2c-2.1,1.7-4,3.2-5.8,4.5c0.3,1.7,0.6,3.6,1,5.6
				C141.2,49,143.5,47.3,143.5,47.3z"/>
		</g>
		<g>
			<path fill="#FFFFFF" d="M77.9,56.9c0,0,0.5,4,3,4.3c2.5-1.2,5.1-1.7,7.8-1.9c-1.1-2-2.2-3.9-3.1-5.5C83,54.3,80.4,55.2,77.9,56.9
				z"/>
		</g>
		<g>
			<path fill="#FFFFFF" d="M124.5,58.5c-0.5-1.5-0.9-3-1.2-4.4c-3.6,1.6-5,1.7-5,1.7c-0.1,0-0.2,0-0.2,0.1c0.5,1.4,1,2.9,1.6,4.5
				C121.1,59.9,122.8,59.2,124.5,58.5z"/>
		</g>
		<g>
			<path fill="#FFFFFF" d="M114.5,61.3c-0.6-1.6-1.1-3.1-1.6-4.6c-2,0.1-4.1-0.1-6.2-0.4c0.7,1.6,1.4,3.2,2.1,4.9
				C110.9,61.3,112.7,61.4,114.5,61.3z"/>
		</g>
		<g>
			<path fill="#FFFFFF" d="M133.3,53.9c-0.4-1.7-0.7-3.4-1-5.1c-1.5,1-2.8,1.8-4,2.6c0.4,1.4,0.8,2.9,1.3,4.6
				C130.9,55.3,132.1,54.6,133.3,53.9z"/>
		</g>
		<g>
			<path fill="#FFFFFF" d="M127.8,69c-0.6-1.9-1.2-3.8-1.8-5.6c-2.8,1.1-4.5,1.5-4.9,1.5c0.7,1.9,1.4,3.8,2.1,5.8
				C124.7,70.3,126.2,69.7,127.8,69z"/>
		</g>
		<g>
			<path fill="#FFFFFF" d="M132.8,66.6c1.2-0.6,2.3-1.2,3.4-1.8c-0.6-1.9-1.1-3.7-1.6-5.6c-1.2,0.7-2.4,1.3-3.5,1.9
				C131.6,62.8,132.2,64.7,132.8,66.6z"/>
		</g>
		<g>
			<path fill="#FFFFFF" d="M104.7,65.2c-2.3-0.3-4.6-0.6-6.9-0.7c1.1,2,2.1,4.1,3.1,6.1c2.2,0.1,4.3,0.4,6.5,0.7
				C106.5,69.2,105.6,67.2,104.7,65.2z"/>
		</g>
		<g>
			<path fill="#FFFFFF" d="M118.4,71.8c-0.7-1.9-1.5-3.9-2.2-5.8c-1.7,0.2-3.5,0.1-5.2,0c0.8,2,1.6,3.9,2.4,5.9
				C115.1,72,116.8,72,118.4,71.8z"/>
		</g>
		<g>
			<path fill="#FFFFFF" d="M83.5,68.4c0,0,0.5,4,3,4.3c2.7-1.3,5.5-1.9,8.3-2.1c-1-2-2.1-3.9-3.1-5.7C89.1,65.5,86.3,66.5,83.5,68.4
				z"/>
		</g>
		<g>
			<path fill="#FFFFFF" d="M147,57.9c0,0-0.7-4.8-1.5-6.3c-2.3,1.9-4.5,3.5-6.6,4.8c0.5,1.9,1,3.8,1.6,5.8
				C144.4,59.8,147,57.9,147,57.9z"/>
		</g>
		<g>
			<path fill="#FFFFFF" d="M148.9,68.8c0,0-0.7-4-1.5-5.5c-1.9,1.4-3.7,2.7-5.4,3.7c0.7,2.1,1.4,4.3,2.2,6.3
				C147.4,70.9,148.9,68.8,148.9,68.8z"/>
		</g>
		<g>
			<path fill="#FFFFFF" d="M127.5,74.3c-0.9,0.3-1.8,0.6-2.7,0.8c0.6,1.7,1.3,3.5,2,5.2c1.6-0.1,3.2-0.2,4.6-0.6
				c-0.7-1.9-1.4-3.9-2-5.9C128.1,74.2,127.5,74.3,127.5,74.3z"/>
		</g>
		<g>
			<path fill="#FFFFFF" d="M114.9,75.4c0.6,1.5,1.2,3,1.7,4.4c1.7,0.1,3.4,0.2,5.1,0.3c-0.6-1.5-1.2-3-1.8-4.6
				C118.2,75.6,116.6,75.6,114.9,75.4z"/>
		</g>
		<g>
			<path fill="#FFFFFF" d="M136.4,78c1.3-0.6,2.5-1.2,3.6-1.8c-0.8-2.1-1.6-4.3-2.3-6.5c-1.3,0.7-2.4,1.4-3.4,1.9
				C135,73.6,135.7,75.8,136.4,78z"/>
		</g>
		<g>
			<path fill="#FFFFFF" d="M88.9,79.1c0,0,0.5,4,3,4.3c2.5-1.6,5.2-2.6,7.9-3.2c-0.8-1.6-1.6-3.2-2.4-4.8
				C94.5,76.1,91.7,77.2,88.9,79.1z"/>
		</g>
		<g>
			<path fill="#FFFFFF" d="M110.8,79.5c-0.6-1.5-1.3-3-1.9-4.5c-2-0.1-3.9-0.2-5.9-0.2c0.8,1.6,1.6,3.2,2.3,4.7
				C107.1,79.4,109,79.4,110.8,79.5z"/>
		</g>
		<g>
			<path fill="#FFFFFF" d="M94.7,87.3c0,0-0.3,2.5,2.2,2.8c2-1.3,4.2-2.1,6.4-2.7c-0.5-1.1-1-2.2-1.6-3.3
				C99.3,84.8,96.9,85.8,94.7,87.3z"/>
		</g>
		<g>
			<path fill="#FFFFFF" d="M107.1,83.2c0.6,1.3,1.2,2.4,1.6,3.4c1.6-0.1,3.2-0.1,4.9,0c-0.4-1.2-0.9-2.3-1.4-3.5
				C110.5,83.1,108.8,83.1,107.1,83.2z"/>
		</g>
		<g>
			<path fill="#FFFFFF" d="M138.1,82.9c0.5,1.5,1.1,3.1,1.6,4.6c0,0,0.1,0,0.1,0c1.5-0.5,2.9-1,4.2-1.5c-0.7-1.6-1.5-3.3-2.2-5.1
				C139.9,81.9,138.4,82.7,138.1,82.9z"/>
		</g>
		<g>
			<path fill="#FFFFFF" d="M128.3,84.2c0.5,1.3,1.1,2.7,1.6,4c1.6,0.1,3.1,0.1,4.5,0.1c-0.5-1.3-1-2.7-1.5-4.2
				C131.4,84.2,129.9,84.2,128.3,84.2z"/>
		</g>
		<g>
			<path fill="#FFFFFF" d="M154.9,78.3c0,0-1.7-6-2.5-7.5c-0.8,2.5-3.4,5-6.3,7.1c0.8,1.9,1.7,3.8,2.6,5.6
				C153.1,80.8,154.9,78.3,154.9,78.3z"/>
		</g>
		<g>
			<path fill="#FFFFFF" d="M118,83.5c0.5,1.3,1,2.5,1.4,3.6c1.8,0.2,3.6,0.4,5.3,0.6c-0.5-1.2-1-2.4-1.5-3.8
				C121.5,83.8,119.8,83.6,118,83.5z"/>
		</g>
	</g>
</g>
<g>
	<path fill="#333333" d="M12.9,504.7l1.3-1.6c0.7,0.6,1.6,1.2,2.6,1.2c0.8,0,1.4-0.4,1.4-1v0c0-0.5-0.3-0.9-1.8-1.4
		c-1.9-0.7-3-1.4-3-3.2v0c0-1.8,1.4-3.1,3.4-3.1c1.2,0,2.4,0.4,3.4,1.3l-1.2,1.7c-0.7-0.5-1.4-1-2.2-1c-0.8,0-1.2,0.4-1.2,0.9v0
		c0,0.6,0.4,0.9,2,1.6c1.8,0.7,2.8,1.5,2.8,3.1v0c0,1.9-1.5,3.1-3.5,3.1C15.4,506.3,14,505.8,12.9,504.7z"/>
	<path fill="#333333" d="M21.8,501v-0.2c0-3.1,2-5.4,4.8-5.4c2.8,0,4.7,2.2,4.7,5.3v0.2c0,3.1-2,5.4-4.8,5.4
		C23.7,506.3,21.8,504.1,21.8,501z M29,501v-0.1c0-2.1-1-3.4-2.5-3.4c-1.5,0-2.5,1.3-2.5,3.4v0.1c0,2.1,1.1,3.4,2.5,3.4
		S29,503,29,501z"/>
	<path fill="#333333" d="M35,502l-3.4-6.4H34l2.1,4.1l2.1-4.1h2.4l-3.4,6.3v4.2H35V502z"/>
	<path fill="#333333" d="M42,495.7h6.8v2h-4.6v2.3h4v2h-4v2.3h4.7v2H42V495.7z"/>
	<path fill="#333333" d="M50.5,504.5l4.8-6.9h-4.6v-1.9h7.3v1.7l-4.8,6.9h4.8v1.9h-7.5V504.5z"/>
	<path fill="#333333" d="M63.6,495.7h2.2v8.5H70v2h-6.4V495.7z"/>
	<path fill="#333333" d="M71.7,495.7h6.8v2h-4.6v2.3h4v2h-4v2.3h4.7v2h-6.8V495.7z"/>
	<path fill="#333333" d="M84.1,495.7h3.5c2.4,0,3.8,1.4,3.8,3.6v0c0,2.4-1.7,3.6-3.9,3.7h-1.2v3.2h-2.2V495.7z M87.5,501
		c1.1,0,1.8-0.7,1.8-1.7v0c0-1.1-0.6-1.7-1.8-1.7h-1.2v3.4H87.5z"/>
	<path fill="#333333" d="M93.1,495.7H97c1.2,0,2.2,0.3,2.8,1c0.6,0.6,0.9,1.4,0.9,2.4v0.1c0,1.6-0.8,2.6-2,3.1l2.2,3.9h-2.5
		l-1.9-3.5h-1.4v3.5h-2.2V495.7z M96.9,500.8c1.1,0,1.7-0.6,1.7-1.6v0c0-1-0.6-1.6-1.8-1.6h-1.6v3.2H96.9z"/>
	<path fill="#333333" d="M102.3,501v-0.2c0-3.1,2-5.4,4.8-5.4c2.8,0,4.7,2.2,4.7,5.3v0.2c0,3.1-2,5.4-4.8,5.4
		C104.3,506.3,102.3,504.1,102.3,501z M109.6,501v-0.1c0-2.1-1-3.4-2.5-3.4c-1.5,0-2.5,1.3-2.5,3.4v0.1c0,2.1,1.1,3.4,2.5,3.4
		S109.6,503,109.6,501z"/>
	<path fill="#333333" d="M113.4,501v-0.1c0-3.2,2-5.3,4.8-5.3c1.6,0,2.6,0.6,3.4,1.4l-1.3,1.7c-0.6-0.6-1.3-1.1-2.1-1.1
		c-1.4,0-2.4,1.3-2.4,3.3v0c0,2.1,1.1,3.4,2.5,3.4c0.8,0,1.5-0.4,2.2-1.1l1.3,1.5c-0.9,1-2,1.6-3.6,1.6
		C115.3,506.3,113.4,504.2,113.4,501z"/>
	<path fill="#333333" d="M123.3,495.7h2.2v4.2h3.5v-4.2h2.2v10.5H129v-4.3h-3.5v4.3h-2.2V495.7z"/>
	<path fill="#333333" d="M136.4,495.6h2.1l3.8,10.6H140l-0.8-2.3h-3.6l-0.8,2.3h-2.2L136.4,495.6z M138.6,502l-1.1-3.4l-1.2,3.4
		H138.6z"/>
	<path fill="#333333" d="M143.9,495.7h2.2v10.5h-2.2V495.7z"/>
	<path fill="#333333" d="M148.5,495.7h2l4,6.1v-6.1h2.1v10.5h-1.9l-4.2-6.3v6.3h-2.1V495.7z"/>
	<path fill="#333333" d="M164.6,497.7h-2.6v-2h7.4v2h-2.6v8.5h-2.2V497.7z"/>
	<path fill="#333333" d="M173,495.6h2.1l3.8,10.6h-2.3l-0.8-2.3h-3.6l-0.8,2.3h-2.2L173,495.6z M175.1,502l-1.1-3.4l-1.2,3.4H175.1z
		"/>
	<path fill="#333333" d="M180.4,495.7h2.2v8.5h4.2v2h-6.4V495.7z"/>
	<path fill="#333333" d="M188.5,495.7h6.8v2h-4.6v2.3h4v2h-4v2.3h4.7v2h-6.8V495.7z"/>
	<path fill="#333333" d="M197.3,495.7h2l4,6.1v-6.1h2.1v10.5h-1.9l-4.2-6.3v6.3h-2.1V495.7z"/>
	<path fill="#333333" d="M209.7,497.7h-2.6v-2h7.4v2h-2.6v8.5h-2.2V497.7z"/>
	<path fill="#333333" d="M216.2,496v-0.3h2.5v0.3l-0.7,6.7h-1.2L216.2,496z M216.2,503.8h2.3v2.3h-2.3V503.8z"/>
</g>
<g>
	<g>
		<polygon fill="#FFFFFF" points="211.6,354.3 126.3,354.3 126.3,386.3 191,386.3 196.8,396.3 202.6,386.3 211.6,386.3 		"/>
	</g>
	<g>
		<path fill="#FFFFFF" d="M196.8,397.3l-6.1-10.6h-64.9v-33h86.3v33h-9.2L196.8,397.3z M126.8,385.8h64.5l5.5,9.6l5.5-9.6h8.8v-31
			h-84.3V385.8z"/>
	</g>
</g>
<g>
	<path fill="#333333" d="M133.9,362h4.1l4.4,11.8l4.4-11.8h4l-6.8,16.9h-3.3L133.9,362z"/>
	<path fill="#333333" d="M151.5,370.4L151.5,370.4c0-4.8,3.8-8.7,9-8.7s8.9,3.9,8.9,8.6v0c0,4.8-3.8,8.7-9,8.7
		S151.5,375.2,151.5,370.4z M165.5,370.4L165.5,370.4c0-2.9-2.1-5.3-5.1-5.3s-5,2.4-5,5.2v0c0,2.9,2.1,5.3,5.1,5.3
		C163.4,375.7,165.5,373.3,165.5,370.4z"/>
	<path fill="#333333" d="M172.4,371.6V362h3.7v9.5c0,2.7,1.4,4.2,3.6,4.2c2.3,0,3.6-1.4,3.6-4V362h3.7v9.5c0,5.1-2.9,7.6-7.4,7.6
		C175.1,379,172.4,376.5,172.4,371.6z"/>
	<path fill="#333333" d="M189.6,376.3l2.2-2.6c1.5,1.2,3.1,2,5,2c1.5,0,2.4-0.6,2.4-1.6v0c0-0.9-0.6-1.4-3.4-2.1
		c-3.4-0.9-5.6-1.8-5.6-5.1v0c0-3,2.4-5.1,5.9-5.1c2.4,0,4.5,0.8,6.2,2.1l-1.9,2.8c-1.5-1-3-1.7-4.4-1.7c-1.4,0-2.2,0.6-2.2,1.5v0
		c0,1.1,0.7,1.5,3.6,2.2c3.4,0.9,5.3,2.1,5.3,5v0c0,3.3-2.5,5.2-6.2,5.2C194.2,379,191.6,378.1,189.6,376.3z"/>
</g>
<g>
	<g>
		<path fill="#FFFFFF" d="M32.6,466.6c-11.9,0-21.5-9.6-21.5-21.5s9.6-21.5,21.5-21.5s21.5,9.6,21.5,21.5S44.5,466.6,32.6,466.6z"/>
	</g>
	<g>
		<path fill="#CECECE" d="M32.6,425.1c11,0,20,9,20,20c0,11-9,20-20,20s-20-9-20-20C12.6,434.1,21.6,425.1,32.6,425.1 M32.6,422.1
			c-12.7,0-23,10.3-23,23c0,12.7,10.3,23,23,23s23-10.3,23-23C55.6,432.4,45.3,422.1,32.6,422.1L32.6,422.1z"/>
	</g>
</g>
<g>
	<g>
		<path fill="#FFFFFF" d="M87.5,466.6c-11.9,0-21.5-9.6-21.5-21.5s9.6-21.5,21.5-21.5s21.5,9.6,21.5,21.5S99.3,466.6,87.5,466.6z"/>
	</g>
	<g>
		<path fill="#CECECE" d="M87.5,425.1c11,0,20,9,20,20c0,11-9,20-20,20c-11,0-20-9-20-20C67.5,434.1,76.4,425.1,87.5,425.1
			 M87.5,422.1c-12.7,0-23,10.3-23,23c0,12.7,10.3,23,23,23s23-10.3,23-23C110.5,432.4,100.1,422.1,87.5,422.1L87.5,422.1z"/>
	</g>
</g>
<g>
	<g>
		<path fill="#FFFFFF" d="M142.3,466.6c-11.9,0-21.5-9.6-21.5-21.5s9.6-21.5,21.5-21.5s21.5,9.6,21.5,21.5S154.2,466.6,142.3,466.6z
			"/>
	</g>
	<g>
		<path fill="#CECECE" d="M142.3,425.1c11,0,20,9,20,20c0,11-9,20-20,20c-11,0-20-9-20-20C122.3,434.1,131.2,425.1,142.3,425.1
			 M142.3,422.1c-12.7,0-23,10.3-23,23c0,12.7,10.3,23,23,23s23-10.3,23-23C165.3,432.4,155,422.1,142.3,422.1L142.3,422.1z"/>
	</g>
</g>
<g>
	<path fill="#333333" d="M22.5,437.8L22.5,437.8c0-3.4,2.2-6.4,5.9-6.4c3.7,0,5.8,2.9,5.8,6.3v0c0,3.3-2.2,6.3-5.9,6.3
		S22.5,441.1,22.5,437.8z M30.1,437.8L30.1,437.8c0-1.7-0.7-2.8-1.8-2.8s-1.8,1.1-1.8,2.8v0c0,1.7,0.7,2.8,1.8,2.8
		C29.4,440.5,30.1,439.4,30.1,437.8z"/>
	<path fill="#333333" d="M38.5,435.1l-2,0.4l-0.7-3l3.6-1h3.1v12.2h-4V435.1z"/>
	<path fill="#333333" d="M24.3,449.9l-2,0.4l-0.7-3l3.6-1h3.1v12.2h-4V449.9z"/>
	<path fill="#333333" d="M31.3,452.6L31.3,452.6c0-3.4,2.2-6.4,5.9-6.4c3.7,0,5.8,2.9,5.8,6.3v0c0,3.3-2.2,6.3-5.9,6.3
		C33.4,458.8,31.3,455.9,31.3,452.6z M38.9,452.6L38.9,452.6c0-1.7-0.7-2.8-1.8-2.8s-1.8,1.1-1.8,2.8v0c0,1.7,0.7,2.8,1.8,2.8
		C38.2,455.3,38.9,454.2,38.9,452.6z"/>
</g>
<g>
	<g>
		<path fill="#333333" d="M91.3,443.1c0,0.3-0.2,0.5-0.5,0.5H76.7c-0.3,0-0.5-0.2-0.5-0.5v-9.8c0-0.3,0.2-0.5,0.5-0.5h14.1
			c0.3,0,0.5,0.2,0.5,0.5V443.1z"/>
	</g>
	<g>
		<path fill="#333333" d="M83,456c0,0.3-0.1,0.5-0.1,0.5h-6.5c-0.1,0-0.1-0.2-0.1-0.5v-10.2c0-0.3,0.1-0.5,0.1-0.5h6.5
			c0.1,0,0.1,0.2,0.1,0.5V456z"/>
	</g>
	<g>
		<path fill="#333333" d="M91.3,456c0,0.3-0.1,0.5-0.1,0.5h-6.5c-0.1,0-0.1-0.2-0.1-0.5v-10.2c0-0.3,0.1-0.5,0.1-0.5h6.5
			c0.1,0,0.1,0.2,0.1,0.5V456z"/>
	</g>
	<g>
		<path fill="#333333" d="M98.8,455.4c0,0.6-0.1,1.1-0.1,1.1H93c-0.1,0-0.1-0.5-0.1-1.1v-21.5c0-0.6,0.1-1.1,0.1-1.1h5.6
			c0.1,0,0.1,0.5,0.1,1.1V455.4z"/>
	</g>
</g>
<g>
	<g>
		<g>
			<path fill="#333333" d="M140.9,446.1L140.9,446.1L140.9,446.1c0,0-0.1-0.1-0.1-0.1l-11.4-11.4l0,0c-0.2-0.2-0.4-0.2-0.6-0.2
				c-0.5,0-0.9,0.4-0.9,0.9c0,0.2,0.1,0.3,0.1,0.5l0,0l0,0c0,0,0,0,0,0l9.7,13l0,0c0.4,0.5,0.9,0.8,1.6,0.8c1.1,0,2-0.9,2-2
				C141.4,447,141.2,446.5,140.9,446.1z"/>
		</g>
		<g>
			<path fill="#333333" d="M145.6,450.4c1.1,1.1,1,5.3,1,5.3s-4-0.4-5.1-1.5c-1.1-1.1-1-2.9,0.1-3.9
				C142.8,449.3,144.5,449.3,145.6,450.4z"/>
		</g>
	</g>
	<g>
		<path fill="#333333" d="M143.6,434.8c-4,0-5.4,2.8-5.4,4.9c0,0.5,0,1.2,0.1,1.9l3.4,3.5l0.1,0.1l0,0l0,0c0.6,0.6,0.9,1.4,0.9,2.3
			c0,0.3,0,0.5-0.1,0.8c0.3-0.1,0.6-0.1,0.8-0.1h0c1.1,0,2.3,0.5,3,1.3c1.3,1.4,1.4,4.8,1.4,6.3l0,1.5l-1.5-0.1
			c-1.1-0.1-4.7-0.5-6-1.9c-1.1-1.2-1.4-2.9-0.9-4.3c-0.1,0-0.2,0-0.2,0c-1.1,0-2.1-0.5-2.7-1.3l-2.3-3c-1,0.3-1.7,1.2-1.7,3.1
			c0,4.5,4.1,10.5,13.1,10.5s11-5.3,11-10C156.8,445.4,153.1,434.8,143.6,434.8z M144.2,443.6c-1.4,0-2.5-1.1-2.5-2.5
			c0-1.4,1.1-2.5,2.5-2.5c1.4,0,2.5,1.1,2.5,2.5C146.7,442.5,145.6,443.6,144.2,443.6z M146.8,444.7c0-1.4,1.1-2.5,2.5-2.5
			c1.4,0,2.5,1.1,2.5,2.5s-1.1,2.5-2.5,2.5C147.9,447.2,146.8,446.1,146.8,444.7z M151.2,453.7c-1.4,0-2.5-1.1-2.5-2.5
			c0-1.4,1.1-2.5,2.5-2.5s2.5,1.1,2.5,2.5C153.7,452.6,152.6,453.7,151.2,453.7z"/>
	</g>
</g>
<g>
	<g>
		<path fill="#FFFFFF" d="M194.2,442.9l0.2-0.2c4-0.3,5.7-1.7,5.7-3.8v-0.1c0-1.7-1.3-2.7-3.2-2.7c-2,0-3.5,1-4.7,2.3l-3.1-3.8
			c2.1-2.1,4.6-3.5,8.1-3.5c5.1,0,8.5,2.9,8.5,7.6v0c0,4.5-3,6.6-6.6,7.4l-0.4,3h-3.6L194.2,442.9z M193.7,452.2h5.9v5.9h-5.9V452.2
			z"/>
	</g>
</g>
<g>
	<g>
		<path fill="#FFFFFF" d="M64.9,175v-1.7l3.9-2.6l-3.9-2.6v-1.8h8.4v1.7h-5.9l3.9,2.7v0l-3.9,2.7h5.9v1.6H64.9z"/>
		<path fill="#FFFFFF" d="M73.9,175.6h-9.5V173l3.4-2.3l-3.4-2.3v-2.6h9.5v2.8h-4.7l2.7,1.8v0.6l-0.2,0.2l-2.4,1.7h4.7V175.6z
			 M65.5,174.5h7.3v-0.5h-7.1l4.7-3.2l-4.7-3.2h7.1v-0.6h-7.3v0.9l4.3,2.9l-4.3,2.9V174.5z"/>
	</g>
	<g>
		<path fill="#FFFFFF" d="M64.9,164.1v-1.7h8.4v1.7H64.9z"/>
		<path fill="#FFFFFF" d="M73.9,164.6h-9.5v-2.8h9.5V164.6z M65.5,163.5h7.3V163h-7.3V163.5z"/>
	</g>
	<g>
		<path fill="#FFFFFF" d="M64.9,160.2v-1.6l5.6-4.4h-5.6v-1.6h8.4v1.4l-5.8,4.6h5.8v1.6H64.9z"/>
		<path fill="#FFFFFF" d="M73.9,160.7h-9.5v-2.4l4.6-3.6h-4.6V152h9.5v2.2l-4.7,3.8h4.7V160.7z M65.5,159.6h7.3v-0.5H66l6.8-5.4
			v-0.6h-7.3v0.5h6.6l-6.6,5.2V159.6z"/>
	</g>
	<g>
		<path fill="#FFFFFF" d="M64.9,150.3v-1.7h8.4v1.7H64.9z"/>
		<path fill="#FFFFFF" d="M73.9,150.8h-9.5V148h9.5V150.8z M65.5,149.7h7.3v-0.6h-7.3V149.7z"/>
	</g>
</g>
<g>
	
		<circle fill="none" stroke="#FFFFFF" stroke-width="3" stroke-miterlimit="10" stroke-dasharray="3.0556,3.0556" cx="197.1" cy="445.1" r="21.4"/>
</g>
</svg>
