<?xml version="1.0" encoding="utf-8"?>
<!-- Generator: Adobe Illustrator 17.1.0, SVG Export Plug-In . SVG Version: 6.00 Build 0)  -->
<!DOCTYPE svg PUBLIC "-//W3C//DTD SVG 1.1//EN" "http://www.w3.org/Graphics/SVG/1.1/DTD/svg11.dtd">
<svg version="1.1" id="Calque_1" xmlns="http://www.w3.org/2000/svg" xmlns:xlink="http://www.w3.org/1999/xlink" x="0px" y="0px"
	 viewBox="148.6 -20.3 311.7 810.4" enable-background="new 148.6 -20.3 311.7 810.4" xml:space="preserve">
<g>
	<path id="masque2_1_" opacity="5.000000e-002" fill="#FFFFFF" d="M418.2-20L148.8,249.4v215.2l311.3-311.3V-19.9L418.2-20z
		 M148.8,780.8v1.1h105.1l206.2-209.4V356.4L148.8,672L148.8,780.8z"/>
	<g>
		<defs>
			<path id="masque2_8_" d="M418.2-20L148.8,249.4v215.2l311.3-311.3V-19.9L418.2-20z M148.8,780.8v1.1h105.1l206.2-209.4V356.4
				L148.8,672L148.8,780.8z"/>
		</defs>
		<clipPath id="masque2_2_">
			<use xlink:href="#masque2_8_"  overflow="visible"/>
		</clipPath>
		<g id="texte1_1_" clip-path="url(#masque2_2_)">
			<g>
				<rect x="148.6" y="179.3" fill="none" width="311.5" height="420.6"/>
				<path fill="#FFFFFF" stroke="#FFFFFF" stroke-miterlimit="10" d="M255.8,180.5h7.4V196l11.8-15.5h8.8l-12.1,15.2l12.6,20.7h-8.7
					l-9-14.8l-3.3,4.2v10.6h-7.4V180.5z"/>
				<path fill="#FFFFFF" stroke="#FFFFFF" stroke-miterlimit="10" d="M291.1,180.5h7.4v35.9h-7.4V180.5z"/>
				<path fill="#FFFFFF" stroke="#FFFFFF" stroke-miterlimit="10" d="M308.6,180.5h7.4v29.1h14.5v6.8h-22V180.5z"/>
				<path fill="#FFFFFF" stroke="#FFFFFF" stroke-miterlimit="10" d="M338.4,180.5h7.4v35.9h-7.4V180.5z"/>
				<path fill="#FFFFFF" stroke="#FFFFFF" stroke-miterlimit="10" d="M383,180.5L372.7,198l10.7,18.4h-8.5l-6.6-12.3l-6.6,12.3h-8.3
					l10.6-18.3l-10.2-17.7h8.5l6.1,11.7l6.2-11.7H383z"/>
				<path fill="#FFFFFF" stroke="#FFFFFF" stroke-miterlimit="10" d="M192.1,227.7h13.5c4.2,0,7.5,1.2,9.8,3.4c2,2,3,4.8,3,8.3v0.2
					c0,5.4-2.7,8.9-6.7,10.6l7.6,13.3h-8.5l-6.6-11.8h-4.7v11.8h-7.4V227.7z M205,245.3c3.8,0,5.9-2.2,5.9-5.4v-0.1
					c0-3.6-2.2-5.4-6-5.4h-5.3v10.8H205z"/>
				<path fill="#FFFFFF" stroke="#FFFFFF" stroke-miterlimit="10" d="M226.9,227.7H250v6.7h-15.8v7.8h13.9v6.7h-13.9v8h16v6.7h-23.4
					V227.7z"/>
				<path fill="#FFFFFF" stroke="#FFFFFF" stroke-miterlimit="10" d="M257.2,246v-0.5c0-10.9,6.8-18.3,16.3-18.3
					c5.3,0,8.8,2,11.5,4.8l-4.5,5.7c-2.2-2.2-4.4-3.6-7.3-3.6c-4.8,0-8.4,4.5-8.4,11.4v0.2c0,7.1,3.7,11.5,8.5,11.5
					c2.9,0,5-1.3,7.4-3.7l4.5,5.3c-3.2,3.3-6.7,5.4-12.2,5.4C263.6,264.2,257.2,256.9,257.2,246z"/>
				<path fill="#FFFFFF" stroke="#FFFFFF" stroke-miterlimit="10" d="M292.8,227.7h13.5c4.2,0,7.5,1.2,9.8,3.4c2,2,3,4.8,3,8.3v0.2
					c0,5.4-2.7,8.9-6.7,10.6l7.6,13.3h-8.5l-6.6-11.8h-4.7v11.8h-7.4V227.7z M305.7,245.3c3.8,0,5.9-2.2,5.9-5.4v-0.1
					c0-3.6-2.2-5.4-6-5.4h-5.3v10.8H305.7z"/>
				<path fill="#FFFFFF" stroke="#FFFFFF" stroke-miterlimit="10" d="M327,249.7v-22h7.4v22c0,5.1,2.4,7.6,6.3,7.6
					c3.8,0,6.3-2.5,6.3-7.4v-22.2h7.4v21.8c0,9.9-5.4,14.7-13.8,14.7C332.4,264.2,327,259.4,327,249.7z"/>
				<path fill="#FFFFFF" stroke="#FFFFFF" stroke-miterlimit="10" d="M370.6,234.6h-9v-6.9H387v6.9h-9v29.1h-7.4V234.6z"/>
				<path fill="#FFFFFF" stroke="#FFFFFF" stroke-miterlimit="10" d="M394.6,227.7h23.2v6.7H402v7.8h13.9v6.7H402v8h16v6.7h-23.4
					V227.7z"/>
				<path fill="#FFFFFF" stroke="#FFFFFF" stroke-miterlimit="10" d="M241.4,322.3h7.4v29.1h14.5v6.8h-22V322.3z"/>
				<path fill="#FFFFFF" stroke="#FFFFFF" stroke-miterlimit="10" d="M270.9,322.3h23.1v6.7h-15.8v7.8h13.9v6.7h-13.9v8h16v6.7
					h-23.4V322.3z"/>
				<path fill="#FFFFFF" stroke="#FFFFFF" stroke-miterlimit="10" d="M312.9,322.1h7.1l12.9,36.1h-7.7l-2.7-7.8h-12.4l-2.6,7.8H300
					L312.9,322.1z M320.2,343.8l-3.9-11.7l-4,11.7H320.2z"/>
				<path fill="#FFFFFF" stroke="#FFFFFF" stroke-miterlimit="10" d="M339.9,322.3h11.6c10.4,0,17.1,7.2,17.1,17.7v0.5
					c0,10.5-6.7,17.8-17.1,17.8h-11.6V322.3z M347.3,329v22.5h4.1c5.6,0,9.5-4,9.5-11.1v-0.3c0-7.1-3.8-11.1-9.5-11.1H347.3z"/>
				<path fill="#FFFFFF" stroke="#FFFFFF" stroke-miterlimit="10" d="M206.5,369.5h11.6c10.4,0,17.1,7.2,17.1,17.7v0.5
					c0,10.5-6.7,17.8-17.1,17.8h-11.6V369.5z M213.9,376.3v22.5h4.1c5.6,0,9.5-4,9.5-11.1v-0.3c0-7.1-3.8-11.1-9.5-11.1H213.9z"/>
				<path fill="#FFFFFF" stroke="#FFFFFF" stroke-miterlimit="10" d="M243.6,369.5h23.1v6.7H251v7.8h13.9v6.7H251v8h16v6.7h-23.4
					V369.5z"/>
				<path fill="#FFFFFF" stroke="#FFFFFF" stroke-miterlimit="10" d="M272.7,369.5h8.1l7.6,24.7l7.6-24.7h7.9l-12.1,36.1h-6.9
					L272.7,369.5z"/>
				<path fill="#FFFFFF" stroke="#FFFFFF" stroke-miterlimit="10" d="M307.7,387.9v-0.6c0-10.8,6.8-18.3,16.3-18.3
					c9.5,0,16.2,7.5,16.2,18.2v0.6c0,10.7-6.8,18.3-16.3,18.3C314.4,406.1,307.7,398.6,307.7,387.9z M332.5,387.7v-0.4
					c0-7.1-3.6-11.5-8.6-11.5c-5,0-8.6,4.4-8.6,11.5v0.4c0,7.1,3.6,11.5,8.6,11.5C329,399.2,332.5,394.8,332.5,387.7z"/>
				<path fill="#FFFFFF" stroke="#FFFFFF" stroke-miterlimit="10" d="M348.7,369.5h12c8.1,0,13.1,4.7,13.1,12.3v0.1
					c0,8.3-5.9,12.4-13.4,12.6h-4.2v10.9h-7.4V369.5z M360.3,387.9c3.9,0,6-2.4,6-5.7v-0.1c0-3.7-2.2-5.8-6.1-5.8h-4.1v11.6H360.3z"
					/>
				<path fill="#FFFFFF" stroke="#FFFFFF" stroke-miterlimit="10" d="M378.6,400.7l4.4-5.5c2.4,2.1,5.3,4.1,8.9,4.1
					c2.9,0,4.6-1.4,4.6-3.5v-0.1c0-1.8-1-2.9-6.2-4.9c-6.4-2.5-10.3-4.9-10.3-11v-0.1c0-6.3,4.8-10.5,11.8-10.5
					c4.2,0,8.3,1.4,11.6,4.4l-4.2,5.6c-2.3-1.8-4.9-3.3-7.6-3.3c-2.6,0-4.2,1.3-4.2,3.1v0.1c0,2.1,1.2,3,6.8,5.3
					c6.3,2.5,9.7,5.1,9.7,10.7v0.1c0,6.7-5.1,10.8-12.1,10.8C387.3,405.9,382.5,404.3,378.6,400.7z"/>
				<path fill="#FFFFFF" stroke="#FFFFFF" stroke-miterlimit="10" d="M209.3,464.1h23.1v6.8h-15.7v8.1h13.8v6.8h-13.8V500h-7.4
					V464.1z"/>
				<path fill="#FFFFFF" stroke="#FFFFFF" stroke-miterlimit="10" d="M239.9,486.1v-22h7.4v22c0,5.1,2.4,7.6,6.3,7.6
					s6.3-2.5,6.3-7.4v-22.2h7.4v21.8c0,9.9-5.4,14.7-13.8,14.7C245.2,500.6,239.9,495.8,239.9,486.1z"/>
				<path fill="#FFFFFF" stroke="#FFFFFF" stroke-miterlimit="10" d="M283.4,471h-9v-6.9h25.5v6.9h-9V500h-7.4V471z"/>
				<path fill="#FFFFFF" stroke="#FFFFFF" stroke-miterlimit="10" d="M306.9,486.1v-22h7.4v22c0,5.1,2.4,7.6,6.3,7.6
					s6.3-2.5,6.3-7.4v-22.2h7.4v21.8c0,9.9-5.4,14.7-13.8,14.7C312.3,500.6,306.9,495.8,306.9,486.1z"/>
				<path fill="#FFFFFF" stroke="#FFFFFF" stroke-miterlimit="10" d="M343.6,464.1h13.5c4.2,0,7.5,1.2,9.8,3.4c2,2,3,4.8,3,8.3v0.2
					c0,5.4-2.7,8.9-6.7,10.6l7.6,13.3h-8.5l-6.6-11.8H351V500h-7.4V464.1z M356.5,481.6c3.8,0,5.9-2.2,5.9-5.4v-0.1
					c0-3.6-2.2-5.4-6-5.4H351v10.8H356.5z"/>
				<path fill="#FFFFFF" stroke="#FFFFFF" stroke-miterlimit="10" d="M375.7,495.2l4.4-5.5c2.4,2.1,5.3,4.1,8.9,4.1
					c2.9,0,4.6-1.4,4.6-3.5v-0.1c0-1.8-1-2.9-6.2-4.9c-6.4-2.5-10.3-4.9-10.3-11v-0.1c0-6.3,4.8-10.5,11.8-10.5
					c4.2,0,8.3,1.4,11.6,4.4l-4.2,5.6c-2.3-1.8-4.9-3.3-7.6-3.3c-2.6,0-4.2,1.3-4.2,3.1v0.1c0,2.1,1.2,3,6.8,5.3
					c6.3,2.5,9.7,5.1,9.7,10.7v0.1c0,6.7-5.1,10.8-12.1,10.8C384.4,500.5,379.7,498.9,375.7,495.2z"/>
				<path fill="#FFFFFF" stroke="#FFFFFF" stroke-miterlimit="10" d="M170.7,542.5l4.4-5.5c2.4,2.1,5.3,4.1,8.9,4.1
					c2.9,0,4.6-1.4,4.6-3.5v-0.1c0-1.8-1-2.9-6.2-4.9c-6.4-2.5-10.3-4.9-10.3-11v-0.1c0-6.3,4.8-10.5,11.8-10.5
					c4.2,0,8.3,1.4,11.6,4.4l-4.2,5.6c-2.3-1.8-4.9-3.3-7.6-3.3c-2.6,0-4.2,1.3-4.2,3.1v0.1c0,2.1,1.2,3,6.8,5.3
					c6.3,2.5,9.6,5.1,9.6,10.7v0.1c0,6.7-5.1,10.8-12.1,10.8C179.4,547.8,174.7,546.2,170.7,542.5z"/>
				<path fill="#FFFFFF" stroke="#FFFFFF" stroke-miterlimit="10" d="M207.1,518.2h-9v-6.9h25.5v6.9h-9v29.1h-7.4V518.2z"/>
				<path fill="#FFFFFF" stroke="#FFFFFF" stroke-miterlimit="10" d="M234.6,511.2h7.1l12.9,36.1h-7.7l-2.7-7.8h-12.4l-2.6,7.8h-7.5
					L234.6,511.2z M241.9,532.9l-3.9-11.7l-4,11.7H241.9z"/>
				<path fill="#FFFFFF" stroke="#FFFFFF" stroke-miterlimit="10" d="M255.4,529.6v-0.5c0-10.6,7-18.3,16.8-18.3
					c5,0,8.5,1.4,11.8,4.2l-4.4,5.8c-1.9-1.7-4-3.1-7.4-3.1c-5.1,0-9,4.7-9,11.3v0.4c0,7.4,4.1,11.5,9.3,11.5c2.1,0,4-0.5,5.3-1.5
					v-6.4h-6.5v-6.5h13.6v16.6c-3.3,2.5-7.4,4.5-12.8,4.5C262.4,547.8,255.4,540.8,255.4,529.6z"/>
				<path fill="#FFFFFF" stroke="#FFFFFF" stroke-miterlimit="10" d="M290.9,511.4h7.4v35.9h-7.4V511.4z"/>
				<path fill="#FFFFFF" stroke="#FFFFFF" stroke-miterlimit="10" d="M315.4,511.2h7.1l12.9,36.1h-7.7l-2.7-7.8h-12.4l-2.6,7.8h-7.5
					L315.4,511.2z M322.8,532.9l-3.9-11.7l-4,11.7H322.8z"/>
				<path fill="#FFFFFF" stroke="#FFFFFF" stroke-miterlimit="10" d="M339.6,511.4h7.4v35.9h-7.4V511.4z"/>
				<path fill="#FFFFFF" stroke="#FFFFFF" stroke-miterlimit="10" d="M354,511.4h13.5c4.2,0,7.5,1.2,9.8,3.4c2,2,3,4.8,3,8.3v0.2
					c0,5.4-2.7,8.9-6.7,10.6l7.6,13.3h-8.5l-6.6-11.8h-4.7v11.8H354V511.4z M366.9,528.9c3.8,0,5.9-2.2,5.9-5.4v-0.1
					c0-3.6-2.2-5.4-6-5.4h-5.3v10.8H366.9z"/>
				<path fill="#FFFFFF" stroke="#FFFFFF" stroke-miterlimit="10" d="M385.7,511.4h23.2v6.7H393v7.8h13.9v6.7H393v8h16v6.7h-23.4
					V511.4z"/>
				<path fill="#FFFFFF" stroke="#FFFFFF" stroke-miterlimit="10" d="M411.7,542.5l4.4-5.5c2.4,2.1,5.3,4.1,8.9,4.1
					c2.9,0,4.6-1.4,4.6-3.5v-0.1c0-1.8-1-2.9-6.2-4.9c-6.4-2.5-10.3-4.9-10.3-11v-0.1c0-6.3,4.8-10.5,11.8-10.5
					c4.2,0,8.3,1.4,11.6,4.4l-4.2,5.6c-2.3-1.8-4.9-3.3-7.6-3.3c-2.6,0-4.2,1.3-4.2,3.1v0.1c0,2.1,1.2,3,6.8,5.3
					c6.3,2.5,9.7,5.1,9.7,10.7v0.1c0,6.7-5.1,10.8-12.1,10.8C420.5,547.8,415.7,546.2,411.7,542.5z"/>
			</g>
		</g>
		<g clip-path="url(#masque2_2_)">
		</g>
	</g>
	<g>
		<defs>
			<path id="masque1_4_" d="M148.8,779.7l0-107.7l311.3-315.6V153.2L148.8,464.6V779.7z M460.1,781.9V572.5L253.9,781.9H460.1z
				 M148.8-20.3v269.7L418.2-20l41.9,0.2v-0.4H148.8z"/>
		</defs>
		<clipPath id="masque1_1_">
			<use xlink:href="#masque1_4_"  overflow="visible"/>
		</clipPath>
		<g id="texte2_1_" clip-path="url(#masque1_1_)">
			<g>
				<rect x="148.6" y="179.4" fill="none" width="311.5" height="373.4"/>
				<path fill="none" stroke="#FFFFFF" stroke-miterlimit="10" d="M241.8,180.6h7.4v15.5l11.8-15.5h8.8l-12.1,15.2l12.6,20.7h-8.7
					l-9-14.8l-3.3,4.2v10.6h-7.4V180.6z"/>
				<path fill="none" stroke="#FFFFFF" stroke-miterlimit="10" d="M277.1,180.6h7.4v35.9h-7.4V180.6z"/>
				<path fill="none" stroke="#FFFFFF" stroke-miterlimit="10" d="M294.5,180.6h7.4v29.1h14.5v6.8h-22V180.6z"/>
				<path fill="none" stroke="#FFFFFF" stroke-miterlimit="10" d="M324.3,180.6h7.4v35.9h-7.4V180.6z"/>
				<path fill="none" stroke="#FFFFFF" stroke-miterlimit="10" d="M368.9,180.6l-10.3,17.6l10.7,18.4h-8.5l-6.6-12.3l-6.6,12.3h-8.3
					l10.6-18.3l-10.2-17.7h8.5l6.1,11.7l6.2-11.7H368.9z"/>
				<path fill="none" stroke="#FFFFFF" stroke-miterlimit="10" d="M192.1,227.8h13.5c4.2,0,7.5,1.2,9.8,3.4c2,2,3,4.8,3,8.3v0.2
					c0,5.4-2.7,8.9-6.7,10.6l7.6,13.3h-8.5l-6.6-11.8h-4.7v11.8h-7.4V227.8z M205,245.4c3.8,0,5.9-2.2,5.9-5.4v-0.1
					c0-3.6-2.2-5.4-6-5.4h-5.3v10.8H205z"/>
				<path fill="none" stroke="#FFFFFF" stroke-miterlimit="10" d="M226.9,227.8H250v6.7h-15.8v7.8h13.9v6.7h-13.9v8h16v6.7h-23.4
					V227.8z"/>
				<path fill="none" stroke="#FFFFFF" stroke-miterlimit="10" d="M257.2,246.1v-0.5c0-10.9,6.8-18.3,16.3-18.3
					c5.3,0,8.8,2,11.5,4.8l-4.5,5.7c-2.2-2.2-4.4-3.6-7.3-3.6c-4.8,0-8.4,4.5-8.4,11.4v0.2c0,7.1,3.7,11.5,8.5,11.5
					c2.9,0,5-1.3,7.4-3.7l4.5,5.3c-3.2,3.3-6.7,5.4-12.2,5.4C263.6,264.3,257.2,257,257.2,246.1z"/>
				<path fill="none" stroke="#FFFFFF" stroke-miterlimit="10" d="M292.8,227.8h13.5c4.2,0,7.5,1.2,9.8,3.4c2,2,3,4.8,3,8.3v0.2
					c0,5.4-2.7,8.9-6.7,10.6l7.6,13.3h-8.5l-6.6-11.8h-4.7v11.8h-7.4V227.8z M305.7,245.4c3.8,0,5.9-2.2,5.9-5.4v-0.1
					c0-3.6-2.2-5.4-6-5.4h-5.3v10.8H305.7z"/>
				<path fill="none" stroke="#FFFFFF" stroke-miterlimit="10" d="M327,249.8v-22h7.4v22c0,5.1,2.4,7.6,6.3,7.6
					c3.8,0,6.3-2.5,6.3-7.4v-22.2h7.4v21.8c0,9.9-5.4,14.7-13.8,14.7C332.4,264.3,327,259.5,327,249.8z"/>
				<path fill="none" stroke="#FFFFFF" stroke-miterlimit="10" d="M370.6,234.7h-9v-6.9H387v6.9h-9v29.1h-7.4V234.7z"/>
				<path fill="none" stroke="#FFFFFF" stroke-miterlimit="10" d="M394.6,227.8h23.2v6.7H402v7.8h13.9v6.7H402v8h16v6.7h-23.4V227.8
					z"/>
				<path fill="none" stroke="#FFFFFF" stroke-miterlimit="10" d="M241.4,322.4h7.4v29.1h14.5v6.8h-22V322.4z"/>
				<path fill="none" stroke="#FFFFFF" stroke-miterlimit="10" d="M270.9,322.4h23.1v6.7h-15.8v7.8h13.9v6.7h-13.9v8h16v6.7h-23.4
					V322.4z"/>
				<path fill="none" stroke="#FFFFFF" stroke-miterlimit="10" d="M312.9,322.2h7.1l12.9,36.1h-7.7l-2.7-7.8h-12.4l-2.6,7.8H300
					L312.9,322.2z M320.2,343.9l-3.9-11.7l-4,11.7H320.2z"/>
				<path fill="none" stroke="#FFFFFF" stroke-miterlimit="10" d="M339.9,322.4h11.6c10.4,0,17.1,7.2,17.1,17.7v0.5
					c0,10.5-6.7,17.8-17.1,17.8h-11.6V322.4z M347.3,329.1v22.5h4.1c5.6,0,9.5-4,9.5-11.1v-0.3c0-7.1-3.8-11.1-9.5-11.1H347.3z"/>
				<path fill="none" stroke="#FFFFFF" stroke-miterlimit="10" d="M206.5,369.7h11.6c10.4,0,17.1,7.2,17.1,17.7v0.5
					c0,10.5-6.7,17.8-17.1,17.8h-11.6V369.7z M213.9,376.4v22.5h4.1c5.6,0,9.5-4,9.5-11.1v-0.3c0-7.1-3.8-11.1-9.5-11.1H213.9z"/>
				<path fill="none" stroke="#FFFFFF" stroke-miterlimit="10" d="M243.6,369.7h23.1v6.7H251v7.8h13.9v6.7H251v8h16v6.7h-23.4V369.7
					z"/>
				<path fill="none" stroke="#FFFFFF" stroke-miterlimit="10" d="M272.7,369.7h8.1l7.6,24.7l7.6-24.7h7.9l-12.1,36.1h-6.9
					L272.7,369.7z"/>
				<path fill="none" stroke="#FFFFFF" stroke-miterlimit="10" d="M307.7,388v-0.6c0-10.8,6.8-18.3,16.3-18.3
					c9.5,0,16.2,7.5,16.2,18.2v0.6c0,10.7-6.8,18.3-16.3,18.3C314.4,406.2,307.7,398.7,307.7,388z M332.5,387.8v-0.4
					c0-7.1-3.6-11.5-8.6-11.5c-5,0-8.6,4.4-8.6,11.5v0.4c0,7.1,3.6,11.5,8.6,11.5C329,399.3,332.5,394.9,332.5,387.8z"/>
				<path fill="none" stroke="#FFFFFF" stroke-miterlimit="10" d="M348.7,369.7h12c8.1,0,13.1,4.7,13.1,12.3v0.1
					c0,8.3-5.9,12.4-13.4,12.6h-4.2v10.9h-7.4V369.7z M360.3,388c3.9,0,6-2.4,6-5.7v-0.1c0-3.7-2.2-5.8-6.1-5.8h-4.1V388H360.3z"/>
				<path fill="none" stroke="#FFFFFF" stroke-miterlimit="10" d="M378.6,400.8l4.4-5.5c2.4,2.1,5.3,4.1,8.9,4.1
					c2.9,0,4.6-1.4,4.6-3.5v-0.1c0-1.8-1-2.9-6.2-4.9c-6.4-2.5-10.3-4.9-10.3-11v-0.1c0-6.3,4.8-10.5,11.8-10.5
					c4.2,0,8.3,1.4,11.6,4.4l-4.2,5.6c-2.3-1.8-4.9-3.3-7.6-3.3c-2.6,0-4.2,1.3-4.2,3.1v0.1c0,2.1,1.2,3,6.8,5.3
					c6.3,2.5,9.7,5.1,9.7,10.7v0.1c0,6.7-5.1,10.8-12.1,10.8C387.3,406,382.5,404.5,378.6,400.8z"/>
				<path fill="none" stroke="#FFFFFF" stroke-miterlimit="10" d="M209.3,464.2h23.1v6.8h-15.7v8.1h13.8v6.8h-13.8v14.2h-7.4V464.2z
					"/>
				<path fill="none" stroke="#FFFFFF" stroke-miterlimit="10" d="M239.9,486.2v-22h7.4v22c0,5.1,2.4,7.6,6.3,7.6s6.3-2.5,6.3-7.4
					v-22.2h7.4V486c0,9.9-5.4,14.7-13.8,14.7C245.2,500.7,239.9,495.9,239.9,486.2z"/>
				<path fill="none" stroke="#FFFFFF" stroke-miterlimit="10" d="M283.4,471.1h-9v-6.9h25.5v6.9h-9v29.1h-7.4V471.1z"/>
				<path fill="none" stroke="#FFFFFF" stroke-miterlimit="10" d="M306.9,486.2v-22h7.4v22c0,5.1,2.4,7.6,6.3,7.6s6.3-2.5,6.3-7.4
					v-22.2h7.4V486c0,9.9-5.4,14.7-13.8,14.7C312.3,500.7,306.9,495.9,306.9,486.2z"/>
				<path fill="none" stroke="#FFFFFF" stroke-miterlimit="10" d="M343.6,464.2h13.5c4.2,0,7.5,1.2,9.8,3.4c2,2,3,4.8,3,8.3v0.2
					c0,5.4-2.7,8.9-6.7,10.6l7.6,13.3h-8.5l-6.6-11.8H351v11.8h-7.4V464.2z M356.5,481.8c3.8,0,5.9-2.2,5.9-5.4v-0.1
					c0-3.6-2.2-5.4-6-5.4H351v10.8H356.5z"/>
				<path fill="none" stroke="#FFFFFF" stroke-miterlimit="10" d="M375.7,495.3l4.4-5.5c2.4,2.1,5.3,4.1,8.9,4.1
					c2.9,0,4.6-1.4,4.6-3.5v-0.1c0-1.8-1-2.9-6.2-4.9c-6.4-2.5-10.3-4.9-10.3-11v-0.1c0-6.3,4.8-10.5,11.8-10.5
					c4.2,0,8.3,1.4,11.6,4.4l-4.2,5.6c-2.3-1.8-4.9-3.3-7.6-3.3c-2.6,0-4.2,1.3-4.2,3.1v0.1c0,2.1,1.2,3,6.8,5.3
					c6.3,2.5,9.7,5.1,9.7,10.7v0.1c0,6.7-5.1,10.8-12.1,10.8C384.4,500.6,379.7,499,375.7,495.3z"/>
				<path fill="none" stroke="#FFFFFF" stroke-miterlimit="10" d="M170.7,542.6l4.4-5.5c2.4,2.1,5.3,4.1,8.9,4.1
					c2.9,0,4.6-1.4,4.6-3.5v-0.1c0-1.8-1-2.9-6.2-4.9c-6.4-2.5-10.3-4.9-10.3-11v-0.1c0-6.3,4.8-10.5,11.8-10.5
					c4.2,0,8.3,1.4,11.6,4.4l-4.2,5.6c-2.3-1.8-4.9-3.3-7.6-3.3c-2.6,0-4.2,1.3-4.2,3.1v0.1c0,2.1,1.2,3,6.8,5.3
					c6.3,2.5,9.6,5.1,9.6,10.7v0.1c0,6.7-5.1,10.8-12.1,10.8C179.4,547.9,174.7,546.3,170.7,542.6z"/>
				<path fill="none" stroke="#FFFFFF" stroke-miterlimit="10" d="M207.1,518.3h-9v-6.9h25.5v6.9h-9v29.1h-7.4V518.3z"/>
				<path fill="none" stroke="#FFFFFF" stroke-miterlimit="10" d="M234.6,511.3h7.1l12.9,36.1h-7.7l-2.7-7.8h-12.4l-2.6,7.8h-7.5
					L234.6,511.3z M241.9,533l-3.9-11.7l-4,11.7H241.9z"/>
				<path fill="none" stroke="#FFFFFF" stroke-miterlimit="10" d="M255.4,529.7v-0.5c0-10.6,7-18.3,16.8-18.3c5,0,8.5,1.4,11.8,4.2
					l-4.4,5.8c-1.9-1.7-4-3.1-7.4-3.1c-5.1,0-9,4.7-9,11.3v0.4c0,7.4,4.1,11.5,9.3,11.5c2.1,0,4-0.5,5.3-1.5v-6.4h-6.5v-6.5h13.6
					v16.6c-3.3,2.5-7.4,4.5-12.8,4.5C262.4,547.9,255.4,540.9,255.4,529.7z"/>
				<path fill="none" stroke="#FFFFFF" stroke-miterlimit="10" d="M290.9,511.5h7.4v35.9h-7.4V511.5z"/>
				<path fill="none" stroke="#FFFFFF" stroke-miterlimit="10" d="M315.4,511.3h7.1l12.9,36.1h-7.7l-2.7-7.8h-12.4l-2.6,7.8h-7.5
					L315.4,511.3z M322.8,533l-3.9-11.7l-4,11.7H322.8z"/>
				<path fill="none" stroke="#FFFFFF" stroke-miterlimit="10" d="M339.6,511.5h7.4v35.9h-7.4V511.5z"/>
				<path fill="none" stroke="#FFFFFF" stroke-miterlimit="10" d="M354,511.5h13.5c4.2,0,7.5,1.2,9.8,3.4c2,2,3,4.8,3,8.3v0.2
					c0,5.4-2.7,8.9-6.7,10.6l7.6,13.3h-8.5l-6.6-11.8h-4.7v11.8H354V511.5z M366.9,529c3.8,0,5.9-2.2,5.9-5.4v-0.1
					c0-3.6-2.2-5.4-6-5.4h-5.3V529H366.9z"/>
				<path fill="none" stroke="#FFFFFF" stroke-miterlimit="10" d="M385.7,511.5h23.2v6.7H393v7.8h13.9v6.7H393v8h16v6.7h-23.4V511.5
					z"/>
				<path fill="none" stroke="#FFFFFF" stroke-miterlimit="10" d="M411.7,542.6l4.4-5.5c2.4,2.1,5.3,4.1,8.9,4.1
					c2.9,0,4.6-1.4,4.6-3.5v-0.1c0-1.8-1-2.9-6.2-4.9c-6.4-2.5-10.3-4.9-10.3-11v-0.1c0-6.3,4.8-10.5,11.8-10.5
					c4.2,0,8.3,1.4,11.6,4.4l-4.2,5.6c-2.3-1.8-4.9-3.3-7.6-3.3c-2.6,0-4.2,1.3-4.2,3.1v0.1c0,2.1,1.2,3,6.8,5.3
					c6.3,2.5,9.7,5.1,9.7,10.7v0.1c0,6.7-5.1,10.8-12.1,10.8C420.5,547.9,415.7,546.3,411.7,542.6z"/>
			</g>
		</g>
	</g>
	<g>
		<rect x="148.8" y="285.7" fill="none" width="311.1" height="16.5"/>
		<path fill="#FFFFFF" stroke="#FFFFFF" stroke-miterlimit="10" d="M286,297.7l0.6-0.7c1.2,1.1,2.3,1.7,3.9,1.7c1.8,0,3-1.1,3-2.6v0
			c0-1.2-0.6-2.1-3.2-3c-2.9-1-3.8-2.1-3.8-3.8v0c0-1.9,1.6-3.3,3.8-3.3c1.5,0,2.7,0.5,3.9,1.4l-0.6,0.8c-1-0.9-2.1-1.3-3.3-1.3
			c-1.7,0-2.9,1.1-2.9,2.4v0c0,1.3,0.6,2.1,3.3,3c2.8,1,3.7,2.1,3.7,3.8v0c0,2-1.7,3.5-4,3.5C288.8,299.5,287.4,299,286,297.7z"/>
		<path fill="#FFFFFF" stroke="#FFFFFF" stroke-miterlimit="10" d="M297.6,292.8v-0.1c0-3.9,2.3-6.8,5.6-6.8c3.3,0,5.6,2.9,5.6,6.7
			v0.1c0,3.9-2.2,6.8-5.6,6.8S297.6,296.7,297.6,292.8z M307.8,292.8v-0.1c0-3.4-2-5.9-4.6-5.9c-2.7,0-4.6,2.5-4.6,5.9v0.1
			c0,3.4,2,5.9,4.6,5.9C305.8,298.7,307.8,296.2,307.8,292.8z"/>
		<path fill="#FFFFFF" stroke="#FFFFFF" stroke-miterlimit="10" d="M312.5,286.1h0.9l7.6,11.4v-11.4h0.9v13.2h-0.8l-7.8-11.7v11.7
			h-0.9V286.1z"/>
	</g>
	<g>
		<rect x="148.8" y="426.3" fill="none" width="311.1" height="16.5"/>
		<path fill="#FFFFFF" stroke="#FFFFFF" stroke-miterlimit="10" d="M275.4,426.7h7.9v0.9h-7v5.3h6.3v0.9h-6.3v5.4h7.1v0.9h-8V426.7z
			"/>
		<path fill="#FFFFFF" stroke="#FFFFFF" stroke-miterlimit="10" d="M290,427.6h-3.9v-0.9h8.7v0.9h-3.9v12.4H290V427.6z"/>
		<path fill="#FFFFFF" stroke="#FFFFFF" stroke-miterlimit="10" d="M302.7,438.3l0.6-0.7c1.2,1.1,2.3,1.7,3.9,1.7c1.8,0,3-1.1,3-2.6
			v0c0-1.2-0.6-2.1-3.2-3c-2.9-1-3.8-2.1-3.8-3.8v0c0-1.9,1.6-3.3,3.8-3.3c1.5,0,2.7,0.5,3.9,1.4l-0.6,0.8c-1-0.9-2.1-1.3-3.3-1.3
			c-1.7,0-2.9,1.1-2.9,2.4v0c0,1.3,0.6,2.1,3.3,3c2.8,1,3.7,2.1,3.7,3.8v0c0,2-1.7,3.5-4,3.5C305.5,440.1,304.1,439.6,302.7,438.3z"
			/>
		<path fill="#FFFFFF" stroke="#FFFFFF" stroke-miterlimit="10" d="M314.9,426.7h7.9v0.9h-7v5.3h6.3v0.9h-6.3v5.4h7.1v0.9h-8V426.7z
			"/>
		<path fill="#FFFFFF" stroke="#FFFFFF" stroke-miterlimit="10" d="M325.6,438.3l0.6-0.7c1.2,1.1,2.3,1.7,3.9,1.7c1.8,0,3-1.1,3-2.6
			v0c0-1.2-0.6-2.1-3.2-3c-2.9-1-3.8-2.1-3.8-3.8v0c0-1.9,1.6-3.3,3.8-3.3c1.5,0,2.7,0.5,3.9,1.4l-0.6,0.8c-1-0.9-2.1-1.3-3.3-1.3
			c-1.7,0-2.9,1.1-2.9,2.4v0c0,1.3,0.6,2.1,3.3,3c2.8,1,3.7,2.1,3.7,3.8v0c0,2-1.7,3.5-4,3.5C328.4,440.1,327,439.6,325.6,438.3z"/>
	</g>
	<g>
		<polygon fill="#FFFFFF" points="329.2,291.7 384.6,292.5 329.2,293.3 		"/>
	</g>
	<g>
		<polygon fill="#FFFFFF" points="279.6,293.3 224.2,292.5 279.6,291.7 		"/>
	</g>
	<g>
		<path fill="none" stroke="#FFFFFF" stroke-width="5" stroke-linejoin="round" stroke-miterlimit="10" d="M325,49.5
			c-5.5,3.8-12.5,7.1-21.1,8.6c-11.9,2-20.2-1.4-28.5-3.5c8.5-5.7,18.7-9,29.6-9C312.1,45.6,318.8,47,325,49.5z"/>
		<path fill="none" stroke="#FFFFFF" stroke-width="5" stroke-miterlimit="10" d="M356.5,111.8c-5.8,23-26.7,40.1-51.5,40.1
			c-29.3,0-53.1-23.8-53.1-53.1c0-8,1.8-15.7,5-22.5c7.9,12.9,17.3,29.9,24.2,47.2c0,0,13.4-9.5,35.2-3.5
			C334.1,124.8,344.4,122.1,356.5,111.8z"/>
		<path fill="none" stroke="#FFFFFF" stroke-width="5" stroke-linecap="round" stroke-linejoin="round" stroke-miterlimit="10" d="
			M358.1,98.4c-5.9-8-10.2-21.9-13.2-34.7C353.1,73,358,85.1,358.1,98.4z"/>
		<path fill="none" stroke="#FFFFFF" stroke-width="5" stroke-linecap="round" stroke-linejoin="round" stroke-miterlimit="10" d="
			M246.7,60.4c-3.1-4.5-5-7.1-5-7.1"/>
		<path fill="none" stroke="#FFFFFF" stroke-width="5" stroke-linecap="round" stroke-linejoin="round" stroke-miterlimit="10" d="
			M288.9,148.7c-1.6-8.2-4.4-16.8-7.8-25.3"/>
		<path fill="none" stroke="#FFFFFF" stroke-width="5" stroke-linecap="round" stroke-linejoin="round" stroke-miterlimit="10" d="
			M364.5,104.2c-2.8,2.9-5.5,5.4-8,7.6c-12.1,10.3-22.4,13-40.3,8.1c-21.7-6-35.2,3.5-35.2,3.5c-6.9-17.3-16.3-34.3-24.2-47.2
			c-3.9-6.5-7.5-11.9-10.2-15.9c11.9-8.3,20.2-7.8,28.7-5.7c8.3,2,16.6,5.5,28.5,3.5c8.6-1.5,15.6-4.8,21.1-8.6
			c9.9-6.7,14.8-14.6,14.8-14.6s2.3,13.7,5.1,28.8c2.4,12.9,7.3,26.7,13.2,34.7C360.1,101.1,362.2,103.1,364.5,104.2z"/>
		<path fill="none" d="M287,74.1c-3.3-0.5-6.7-1-10-1.2c1.2,2.2,2.4,4.6,3.6,6.9c3.2,0.1,6.3,0.5,9.4,1C289,78.4,288,76.1,287,74.1z
			"/>
		<path fill="none" d="M295.7,93.8c-0.7-1.7-1.4-3.3-2.1-4.9c-2.9-0.3-5.8-0.7-8.7-0.9c1,1.9,1.9,3.7,2.8,5.6
			C290.3,93.5,293,93.6,295.7,93.8z"/>
		<path fill="none" d="M332.8,97.9c0.7,2.2,1.5,4.5,2.3,6.7c0.4-0.2,2.5-1.3,5.1-2.9c-0.8-2-1.6-4.1-2.4-6.2
			C336.2,96.3,334.6,97.1,332.8,97.9z"/>
		<path fill="none" d="M318.7,78.2c-0.7-2.3-1.4-4.5-2-6.6c-2.2,1-4.5,1.9-6.7,2.6c0.7,1.9,1.4,4,2.2,6.1
			C312.6,80.2,314.9,79.6,318.7,78.2z"/>
		<path fill="none" d="M306.1,100.4c0.7,1.7,1.3,3.3,1.9,4.9c2.4,0.2,4.7,0.4,7,0.6c-0.7-1.6-1.3-3.3-2-5
			C310.7,100.8,308.4,100.6,306.1,100.4z"/>
		<path fill="none" d="M319.8,100.9c0.7,1.8,1.4,3.6,2.1,5.3c2.1,0,4.2,0,6.2-0.2c-0.7-1.9-1.4-3.9-2.1-5.9
			C324.1,100.6,322,100.8,319.8,100.9z"/>
		<path fill="none" d="M330.3,72.5c-0.6-2.4-1.2-4.7-1.7-7.1c-1.6,0.9-3.3,1.9-5,2.8c0.6,2.1,1.3,4.4,2,6.9
			C327.1,74.3,328.7,73.5,330.3,72.5z"/>
		<path fill="none" d="M290.8,100c0.9,1.8,1.7,3.4,2.4,5c2.3-0.2,4.6-0.2,6.9-0.2c-0.6-1.6-1.3-3.3-2-4.9
			C295.7,99.9,293.3,99.9,290.8,100z"/>
		<path fill="none" d="M305.6,81.7c-0.8-2.2-1.6-4.3-2.3-6.4c-2.4,0.1-5,0.1-7.5-0.2c0.9,2.1,1.9,4.3,2.8,6.5
			C300.9,81.9,303.2,81.9,305.6,81.7z"/>
		<path fill="none" d="M301.8,89.7c0.7,1.6,1.3,3.2,1.9,4.8c2.3,0.2,4.6,0.2,6.8,0.2c-0.7-1.7-1.3-3.4-2-5.1
			C306.3,89.8,304.1,89.8,301.8,89.7z"/>
		<path fill="none" d="M315,88.2c0.7,1.9,1.4,3.8,2.1,5.7c1.2-0.3,2.5-0.6,3.7-1c0,0,0.8-0.2,2.5-0.7c-0.7-2.1-1.4-4.2-2.1-6.4
			C319.1,86.7,317,87.5,315,88.2z"/>
		<path fill="none" d="M330,89.2c1.4-0.7,2.9-1.5,4.6-2.5c-0.7-2.2-1.4-4.4-2.1-6.6c-1.5,0.8-3,1.7-4.6,2.5
			C328.6,84.7,329.3,87,330,89.2z"/>
		<g>
			<path fill="#FFFFFF" d="M272.7,65c-2.1-3.8-4.2-7.1-5.9-9.7c-5.2-2.9-7.7,1.4-7.7,1.4s2,3.3,5,8.7C267,64.8,269.8,64.8,272.7,65z
				"/>
			<path fill="#FFFFFF" d="M291.1,117.2c5.6,0.7,7.4-1.1,7.4-1.1s-1.2-2.5-3.1-6.5c-2.5,0.1-5,0.5-7.4,1
				C289.1,112.8,290.1,115,291.1,117.2z"/>
			<path fill="#FFFFFF" d="M290.8,100c-2.5,0.1-5,0.4-7.5,1c0.9,1.7,1.7,3.5,2.6,5.3c2.4-0.6,4.8-1,7.3-1.2
				C292.5,103.4,291.7,101.8,290.8,100z"/>
			<path fill="#FFFFFF" d="M280.6,79.7c-1.2-2.3-2.4-4.6-3.6-6.9c-2.9-0.2-5.8-0.3-8.7-0.1c1.3,2.4,2.7,4.9,4.2,7.6
				C275.3,79.8,278,79.6,280.6,79.7z"/>
			<path fill="#FFFFFF" d="M284.9,88c-2.7-0.2-5.5-0.2-8.2,0c1.1,2.1,2.3,4.3,3.4,6.5c2.5-0.6,5.1-0.8,7.6-0.9
				C286.8,91.8,285.8,89.9,284.9,88z"/>
			<path fill="#FFFFFF" d="M286.5,55.5c-4.9-3.3-7.7,0.7-7.7,0.7s2,4.1,5,10.5c3.1,0.6,6.1,1.3,9.2,1.8
				C290.5,63.5,288.3,58.9,286.5,55.5z"/>
			<path fill="#FFFFFF" d="M298.2,100c0.7,1.6,1.3,3.2,2,4.9c2.6,0.1,5.2,0.3,7.8,0.5c-0.6-1.5-1.2-3.2-1.9-4.9
				C303.5,100.2,300.9,100.1,298.2,100z"/>
			<path fill="#FFFFFF" d="M301.8,89.7c-2.7-0.1-5.4-0.4-8.2-0.8c0.7,1.6,1.4,3.3,2.1,4.9c2.7,0.2,5.4,0.5,8,0.6
				C303.1,92.9,302.4,91.3,301.8,89.7z"/>
			<path fill="#FFFFFF" d="M298.5,81.7c-0.9-2.2-1.8-4.4-2.8-6.5c-2.8-0.3-5.8-0.7-8.7-1.1c0.9,2.1,1.9,4.3,3,6.6
				C292.8,81.1,295.7,81.5,298.5,81.7z"/>
			<path fill="#FFFFFF" d="M305.6,119.2c5.6,1.1,7.5-0.5,7.5-0.5s-1.2-3.3-3.2-8.5c-2.6-0.3-5.2-0.5-7.8-0.6
				C303.3,112.8,304.5,116.1,305.6,119.2z"/>
			<path fill="#FFFFFF" d="M323.3,92.2c1.5-0.5,3.8-1.5,6.7-3c-0.7-2.3-1.4-4.5-2.1-6.6c-2.2,1.1-4.5,2.2-6.7,3.2
				C321.9,87.9,322.6,90.1,323.3,92.2z"/>
			<path fill="#FFFFFF" d="M328,99.6c-0.6,0.2-1.3,0.4-2,0.5c0.7,2,1.4,4,2.1,5.9c2.4-0.2,4.7-0.7,6.9-1.5c0,0,0,0,0.1-0.1
				c-0.8-2.2-1.5-4.5-2.3-6.7C331.3,98.5,329.7,99.1,328,99.6z"/>
			<path fill="#FFFFFF" d="M325.6,75.1c-0.7-2.4-1.4-4.7-2-6.9c-2.2,1.2-4.6,2.3-6.9,3.4c0.6,2.1,1.3,4.3,2,6.6
				C320.6,77.4,323,76.4,325.6,75.1z"/>
			<path fill="#FFFFFF" d="M319.4,53.4c0,0-4.8-1.2-6.3,4.5c0.5,2.2,1.1,4.9,1.9,7.7c1.8-0.9,4.1-2,6.8-3.7
				C320.3,56.7,319.4,53.4,319.4,53.4z"/>
			<path fill="#FFFFFF" d="M334.3,123.2c0,0,2.5,0,6-4.5c-1-2.6-2-5.2-3-7.9c-2.2,0.7-4.6,1-7.2,1.1
				C332.6,118.6,334.3,123.2,334.3,123.2z"/>
			<path fill="#FFFFFF" d="M332.5,47.3c-0.2-9.5-4.8-1.2-6.3,4.5c0.3,2.1,0.6,4.4,1,6.7c1.9-1.3,3.9-2.7,6.1-4.3
				C332.9,51.7,332.6,49.3,332.5,47.3z"/>
			<path fill="#FFFFFF" d="M347.4,117.1c4.3,5.3,2.5,0,6-4.5c-1.4-2.2-2.7-4.6-4-7.2c-1.8,1.1-3.8,2.2-6.3,3.2
				C344.6,111.8,346,114.7,347.4,117.1z"/>
			<path fill="#FFFFFF" d="M330.3,72.5c1.9-1.1,3.8-2.3,5.9-3.7c-0.6-2.4-1.2-4.8-1.6-7.1c-1.8,1.2-3.8,2.4-6,3.7
				C329.1,67.8,329.7,70.1,330.3,72.5z"/>
			<path fill="#FFFFFF" d="M334.6,86.7c1.8-1,3.7-2.2,5.8-3.6c-0.7-2.2-1.4-4.3-2-6.5c-1.8,1.1-3.8,2.3-5.9,3.5
				C333.2,82.3,333.9,84.5,334.6,86.7z"/>
			<path fill="#FFFFFF" d="M340.1,101.7c1.8-1.1,3.8-2.4,5.7-3.9c-0.9-2-1.7-4.1-2.5-6.1c-1.6,1.2-3.5,2.5-5.7,3.8
				C338.5,97.6,339.3,99.7,340.1,101.7z"/>
			<path fill="#FFFFFF" d="M304.4,57.5c0,0-4.5-1.5-5.6,3.7c0.6,2.3,1.4,5,2.4,8c2.3-0.1,4.5-0.4,6.7-1.2
				C305.7,61.6,304.4,57.5,304.4,57.5z"/>
			<path fill="#FFFFFF" d="M312,80.3C312,80.3,312.1,80.3,312,80.3c-0.7-2.2-1.4-4.2-2.1-6.1c-0.1,0-0.1,0-0.2,0.1
				c-2.1,0.6-4.2,1-6.5,1.1c0.7,2.1,1.5,4.2,2.3,6.4C307.7,81.5,309.9,81,312,80.3z"/>
			<path fill="#FFFFFF" d="M314.3,88.4c-1.9,0.6-3.8,1-5.7,1.1c0.7,1.7,1.3,3.4,2,5.1c2.2-0.1,4.4-0.3,6.6-0.7
				c-0.7-1.9-1.4-3.9-2.1-5.7C314.7,88.2,314.5,88.3,314.3,88.4z"/>
			<path fill="#FFFFFF" d="M313,100.9c0.7,1.7,1.4,3.4,2,5c2.3,0.2,4.6,0.3,6.9,0.4c-0.7-1.8-1.4-3.6-2.1-5.3
				C317.6,101,315.3,101,313,100.9z"/>
			<path fill="#FFFFFF" d="M322.3,123.5c0,0,2.4,0.2,5.3-3.7c-1.2-2.7-2.3-5.4-3.5-8.2c-2.3-0.2-4.6-0.4-7-0.7
				C320.1,118.4,322.3,123.5,322.3,123.5z"/>
			<path fill="#FFFFFF" d="M287,74.1c-1.2-2.7-2.3-5.1-3.3-7.3c-3.6-0.8-7.3-1.5-11-1.8c1.4,2.4,2.8,5.1,4.3,7.8
				C280.3,73.1,283.7,73.6,287,74.1z"/>
			<path fill="#FFFFFF" d="M342.4,56.4c0,0-0.2-6.3-1.4-8.3c-2.8,2.3-5.4,4.3-7.8,6.1c0.4,2.3,0.8,4.9,1.4,7.5
				C339.3,58.7,342.4,56.4,342.4,56.4z"/>
			<path fill="#FFFFFF" d="M253.7,69.5c0,0,0.7,5.4,4.1,5.9c3.4-1.6,6.9-2.3,10.6-2.6c-1.5-2.8-3-5.3-4.2-7.4
				C260.6,65.9,257.2,67.2,253.7,69.5z"/>
			<path fill="#FFFFFF" d="M316.7,71.6c-0.6-2.1-1.2-4-1.7-5.9c-4.8,2.2-6.8,2.2-6.8,2.2c-0.1,0-0.2,0.1-0.3,0.1
				c0.6,1.9,1.3,3.9,2.1,6.1C312.2,73.4,314.4,72.6,316.7,71.6z"/>
			<path fill="#FFFFFF" d="M303.3,75.3c-0.8-2.1-1.5-4.2-2.1-6.2c-2.7,0.1-5.5-0.2-8.3-0.6c1,2.1,1.9,4.3,2.9,6.6
				C298.3,75.4,300.9,75.5,303.3,75.3z"/>
			<path fill="#FFFFFF" d="M328.6,65.4c-0.5-2.3-1-4.7-1.4-6.9c-2,1.3-3.8,2.5-5.4,3.5c0.5,1.8,1.1,3.9,1.8,6.2
				C325.3,67.3,327,66.4,328.6,65.4z"/>
			<path fill="#FFFFFF" d="M321.2,85.8c-0.8-2.6-1.7-5.1-2.5-7.6c-3.8,1.5-6.1,2-6.6,2.1c0.9,2.5,1.8,5.2,2.8,7.9
				C317,87.5,319.1,86.7,321.2,85.8z"/>
			<path fill="#FFFFFF" d="M327.9,82.6c1.6-0.8,3.1-1.7,4.6-2.5c-0.8-2.5-1.5-5.1-2.2-7.6c-1.7,1-3.2,1.8-4.7,2.6
				C326.3,77.5,327.1,80,327.9,82.6z"/>
			<path fill="#FFFFFF" d="M290,80.7c-3.1-0.4-6.2-0.9-9.4-1c1.4,2.8,2.9,5.6,4.2,8.3c2.9,0.2,5.8,0.6,8.7,0.9
				C292.4,86.1,291.2,83.3,290,80.7z"/>
			<path fill="#FFFFFF" d="M308.5,89.5c-1-2.6-2-5.3-3-7.8c-2.4,0.2-4.7,0.2-7.1,0c1.1,2.7,2.2,5.3,3.3,7.9
				C304.1,89.8,306.3,89.8,308.5,89.5z"/>
			<path fill="#FFFFFF" d="M261.4,85c0,0,0.7,5.4,4.1,5.9c3.7-1.7,7.5-2.6,11.2-2.9c-1.4-2.7-2.8-5.2-4.1-7.7
				C268.9,81,265.2,82.4,261.4,85z"/>
			<path fill="#FFFFFF" d="M347.2,70.8c0,0-0.9-6.5-2-8.6c-3.1,2.5-6.1,4.7-8.9,6.5c0.6,2.5,1.3,5.2,2.1,7.8
				C343.6,73.4,347.2,70.8,347.2,70.8z"/>
			<path fill="#FFFFFF" d="M349.6,85.5c0,0-0.9-5.4-2-7.4c-2.6,1.9-5,3.6-7.2,5.1c0.9,2.9,2,5.7,3,8.6
				C347.6,88.3,349.6,85.5,349.6,85.5z"/>
			<path fill="#FFFFFF" d="M320.8,92.9c-1.2,0.4-2.5,0.8-3.7,1c0.9,2.3,1.8,4.7,2.7,7c2.2-0.1,4.3-0.3,6.2-0.8
				c-0.9-2.6-1.8-5.3-2.7-8C321.6,92.7,320.8,92.9,320.8,92.9z"/>
			<path fill="#FFFFFF" d="M303.7,94.5c0.8,2,1.6,4,2.4,6c2.3,0.2,4.7,0.3,6.9,0.4c-0.8-2-1.6-4.1-2.5-6.2
				C308.3,94.7,306,94.6,303.7,94.5z"/>
			<path fill="#FFFFFF" d="M332.8,97.9c1.8-0.8,3.4-1.6,4.9-2.4c-1.1-2.8-2.1-5.8-3.1-8.8c-1.7,1-3.2,1.8-4.6,2.5
				C330.9,92,331.8,94.9,332.8,97.9z"/>
			<path fill="#FFFFFF" d="M268.6,99.4c0,0,0.7,5.4,4.1,5.9c3.4-2.2,7-3.5,10.7-4.3c-1.1-2.2-2.2-4.3-3.3-6.5
				C276.3,95.3,272.4,96.8,268.6,99.4z"/>
			<path fill="#FFFFFF" d="M298.2,100c-0.8-2.1-1.7-4.1-2.5-6.1c-2.7-0.2-5.3-0.3-8-0.2c1.1,2.2,2.2,4.4,3.2,6.4
				C293.3,99.9,295.7,99.9,298.2,100z"/>
			<path fill="#FFFFFF" d="M276.5,110.4c0,0-0.5,3.4,2.9,3.8c2.7-1.7,5.6-2.9,8.7-3.6c-0.7-1.5-1.4-2.9-2.1-4.4
				C282.7,107.1,279.5,108.4,276.5,110.4z"/>
			<path fill="#FFFFFF" d="M293.2,105c0.8,1.7,1.6,3.2,2.2,4.6c2.2-0.1,4.4-0.1,6.6,0c-0.6-1.6-1.2-3.2-1.8-4.7
				C297.8,104.8,295.5,104.8,293.2,105z"/>
			<path fill="#FFFFFF" d="M335.1,104.5c0.7,2.1,1.5,4.1,2.2,6.2c0.1,0,0.1,0,0.2,0c2.1-0.6,3.9-1.4,5.7-2.1c-1-2.2-2-4.5-3-6.9
				C337.6,103.3,335.5,104.3,335.1,104.5z"/>
			<path fill="#FFFFFF" d="M321.9,106.3c0.7,1.8,1.5,3.6,2.2,5.4c2.1,0.1,4.1,0.2,6.1,0.1c-0.6-1.8-1.3-3.7-2-5.7
				C326.1,106.3,324,106.3,321.9,106.3z"/>
			<path fill="#FFFFFF" d="M357.7,98.3c0,0-2.3-8.1-3.4-10.1c-1,3.3-4.7,6.8-8.5,9.6c1.1,2.6,2.3,5.2,3.5,7.6
				C355.4,101.7,357.7,98.3,357.7,98.3z"/>
			<path fill="#FFFFFF" d="M308,105.3c0.7,1.8,1.3,3.4,1.9,4.9c2.4,0.3,4.8,0.5,7.2,0.8c-0.7-1.6-1.3-3.3-2.1-5.1
				C312.7,105.7,310.3,105.5,308,105.3z"/>
		</g>
	</g>
	<g>
		<polygon fill="#C3C5C5" points="460.3,790 148.6,790 148.6,748.8 460.2,748.6 		"/>
		<polygon fill="#2B2E31" points="460.2,748.9 148.6,749.2 148.6,633.2 460.3,633.2 		"/>
		<g>
			<rect x="165.6" y="760.5" fill="none" width="279.6" height="17.7"/>
			<path fill="#2B2E31" d="M166,773.2l1.7-2.2c1,0.8,2.1,1.6,3.5,1.6c1.1,0,1.8-0.6,1.8-1.4v0c0-0.7-0.4-1.2-2.4-1.9
				c-2.5-1-4.1-1.9-4.1-4.4v0c0-2.5,1.9-4.2,4.6-4.2c1.7,0,3.3,0.6,4.6,1.7l-1.6,2.2c-0.9-0.7-1.9-1.3-3-1.3c-1,0-1.6,0.5-1.6,1.2v0
				c0,0.8,0.5,1.2,2.7,2.1c2.5,1,3.8,2,3.8,4.2v0c0,2.6-2,4.3-4.8,4.3C169.4,775.3,167.5,774.7,166,773.2z"/>
			<path fill="#2B2E31" d="M178,768.2V768c0-4.3,2.7-7.2,6.4-7.2c3.8,0,6.4,3,6.4,7.2v0.2c0,4.2-2.7,7.2-6.4,7.2
				C180.6,775.4,178,772.4,178,768.2z M187.7,768.1V768c0-2.8-1.4-4.6-3.4-4.6c-2,0-3.4,1.7-3.4,4.5v0.1c0,2.8,1.4,4.6,3.4,4.6
				S187.7,770.9,187.7,768.1z"/>
			<path fill="#2B2E31" d="M195.8,769.6l-4.6-8.6h3.3l2.8,5.6l2.8-5.6h3.2l-4.6,8.6v5.6h-2.9V769.6z"/>
			<path fill="#2B2E31" d="M205.3,761h9.1v2.7h-6.2v3.1h5.5v2.7h-5.5v3.2h6.3v2.7h-9.2V761z"/>
			<path fill="#2B2E31" d="M216.8,772.9l6.5-9.3H217V761h9.9v2.2l-6.5,9.3h6.5v2.6h-10.1V772.9z"/>
			<path fill="#2B2E31" d="M234.5,761h2.9v11.5h5.7v2.7h-8.7V761z"/>
			<path fill="#2B2E31" d="M245.4,761h9.1v2.7h-6.2v3.1h5.5v2.7h-5.5v3.2h6.3v2.7h-9.2V761z"/>
			<path fill="#2B2E31" d="M262.1,761h4.7c3.2,0,5.2,1.8,5.2,4.9v0c0,3.3-2.3,4.9-5.3,5h-1.7v4.3h-2.9V761z M266.7,768.2
				c1.5,0,2.4-1,2.4-2.3v0c0-1.5-0.9-2.3-2.4-2.3h-1.6v4.6H266.7z"/>
			<path fill="#2B2E31" d="M274.3,761h5.3c1.6,0,3,0.5,3.9,1.4c0.8,0.8,1.2,1.9,1.2,3.3v0.1c0,2.1-1.1,3.5-2.6,4.2l3,5.3h-3.4
				l-2.6-4.7h-1.8v4.7h-2.9V761z M279.4,767.9c1.5,0,2.3-0.9,2.3-2.1v0c0-1.4-0.9-2.1-2.4-2.1h-2.1v4.3H279.4z"/>
			<path fill="#2B2E31" d="M286.8,768.2V768c0-4.3,2.7-7.2,6.4-7.2c3.8,0,6.4,3,6.4,7.2v0.2c0,4.2-2.7,7.2-6.4,7.2
				C289.4,775.4,286.8,772.4,286.8,768.2z M296.6,768.1V768c0-2.8-1.4-4.6-3.4-4.6c-2,0-3.4,1.7-3.4,4.5v0.1c0,2.8,1.4,4.6,3.4,4.6
				S296.6,770.9,296.6,768.1z"/>
			<path fill="#2B2E31" d="M301.8,768.2V768c0-4.3,2.7-7.2,6.4-7.2c2.1,0,3.5,0.8,4.6,1.9l-1.8,2.3c-0.9-0.9-1.7-1.4-2.9-1.4
				c-1.9,0-3.3,1.8-3.3,4.5v0.1c0,2.8,1.5,4.5,3.3,4.5c1.1,0,2-0.5,2.9-1.5l1.8,2.1c-1.3,1.3-2.6,2.1-4.8,2.1
				C304.3,775.3,301.8,772.5,301.8,768.2z"/>
			<path fill="#2B2E31" d="M315.2,761h2.9v5.7h4.7V761h2.9v14.2h-2.9v-5.8h-4.7v5.8h-2.9V761z"/>
			<path fill="#2B2E31" d="M332.9,760.9h2.8l5.1,14.3h-3l-1.1-3.1h-4.9l-1,3.1h-3L332.9,760.9z M335.8,769.5l-1.5-4.6l-1.6,4.6
				H335.8z"/>
			<path fill="#2B2E31" d="M342.9,761h2.9v14.2h-2.9V761z"/>
			<path fill="#2B2E31" d="M349.1,761h2.7l5.4,8.3V761h2.9v14.2h-2.5l-5.6-8.6v8.6h-2.9V761z"/>
			<path fill="#2B2E31" d="M370.9,763.7h-3.6V761h10.1v2.7h-3.6v11.5h-2.9V763.7z"/>
			<path fill="#2B2E31" d="M382.2,760.9h2.8l5.1,14.3h-3l-1.1-3.1h-4.9l-1,3.1h-3L382.2,760.9z M385.1,769.5l-1.5-4.6l-1.6,4.6
				H385.1z"/>
			<path fill="#2B2E31" d="M392.2,761h2.9v11.5h5.7v2.7h-8.7V761z"/>
			<path fill="#2B2E31" d="M403.1,761h9.1v2.7h-6.2v3.1h5.5v2.7h-5.5v3.2h6.3v2.7h-9.2V761z"/>
			<path fill="#2B2E31" d="M415,761h2.7l5.4,8.3V761h2.9v14.2h-2.5l-5.6-8.6v8.6H415V761z"/>
			<path fill="#2B2E31" d="M431.9,763.7h-3.6V761h10.1v2.7h-3.6v11.5h-2.9V763.7z"/>
			<path fill="#2B2E31" d="M440.5,761.4V761h3.4v0.4l-0.9,9.1h-1.6L440.5,761.4z M440.6,772h3.1v3.1h-3.1V772z"/>
		</g>
		<polygon fill="#FFFFFF" stroke="#FFFFFF" stroke-miterlimit="10" points="434.4,570 319.1,570 319.1,613.2 406.5,613.2 
			414.3,626.8 422.2,613.2 434.4,613.2 		"/>
		<g>
			<rect x="327.7" y="579.5" fill="none" width="97.4" height="25.8"/>
			<path fill="#2B2E31" d="M329.4,580.4h5.5l5.9,16l5.9-16h5.4l-9.2,22.8h-4.4L329.4,580.4z"/>
			<path fill="#2B2E31" d="M353.2,591.8L353.2,591.8c0-6.5,5.1-11.8,12.1-11.8c7,0,12,5.2,12,11.7v0.1c0,6.5-5.1,11.7-12.1,11.7
				C358.2,603.5,353.2,598.3,353.2,591.8z M372.1,591.8L372.1,591.8c0-4-2.9-7.2-6.9-7.2c-4,0-6.8,3.2-6.8,7.1v0.1
				c0,3.9,2.9,7.1,6.9,7.1S372.1,595.7,372.1,591.8z"/>
			<path fill="#2B2E31" d="M381.4,593.4v-13h5v12.8c0,3.7,1.8,5.6,4.9,5.6s4.9-1.8,4.9-5.4v-13h5v12.8c0,6.9-3.9,10.2-9.9,10.2
				C385.1,603.5,381.4,600.1,381.4,593.4z"/>
			<path fill="#2B2E31" d="M404.7,599.8l2.9-3.5c2,1.7,4.2,2.8,6.8,2.8c2,0,3.3-0.8,3.3-2.1v-0.1c0-1.3-0.8-1.9-4.6-2.9
				c-4.6-1.2-7.5-2.4-7.5-6.9v-0.1c0-4.1,3.3-6.8,7.9-6.8c3.3,0,6.1,1,8.4,2.9l-2.6,3.8c-2-1.4-4-2.2-5.9-2.2s-2.9,0.9-2.9,2v0.1
				c0,1.5,1,2,4.9,3c4.6,1.2,7.2,2.9,7.2,6.8v0.1c0,4.5-3.4,7-8.3,7C410.9,603.4,407.4,602.2,404.7,599.8z"/>
		</g>
		<g>
			<path fill="#FFFFFF" d="M192.7,721.2c-15.7,0-28.5-12.8-28.5-28.5s12.8-28.5,28.5-28.5s28.5,12.8,28.5,28.5
				S208.4,721.2,192.7,721.2z"/>
			<path fill="#C3C5C5" d="M192.7,665.7c14.9,0,27,12.1,27,27c0,14.9-12.1,27-27,27s-27-12.1-27-27
				C165.6,677.8,177.7,665.7,192.7,665.7 M192.7,662.7c-16.5,0-30,13.5-30,30c0,16.5,13.5,30,30,30s30-13.5,30-30
				C222.7,676.1,209.2,662.7,192.7,662.7L192.7,662.7z"/>
		</g>
		<g>
			<path fill="#FFFFFF" d="M266.7,721.2c-15.7,0-28.5-12.8-28.5-28.5s12.8-28.5,28.5-28.5s28.5,12.8,28.5,28.5
				S282.4,721.2,266.7,721.2z"/>
			<path fill="#C3C5C5" d="M266.7,665.7c14.9,0,27,12.1,27,27c0,14.9-12.1,27-27,27c-14.9,0-27-12.1-27-27
				C239.7,677.8,251.8,665.7,266.7,665.7 M266.7,662.7c-16.5,0-30,13.5-30,30c0,16.5,13.5,30,30,30s30-13.5,30-30
				C296.7,676.1,283.3,662.7,266.7,662.7L266.7,662.7z"/>
		</g>
		<g>
			<path fill="#FFFFFF" d="M340.8,721.2c-15.7,0-28.5-12.8-28.5-28.5s12.8-28.5,28.5-28.5c15.7,0,28.5,12.8,28.5,28.5
				S356.5,721.2,340.8,721.2z"/>
			<path fill="#C3C5C5" d="M340.8,665.7c14.9,0,27,12.1,27,27c0,14.9-12.1,27-27,27c-14.9,0-27-12.1-27-27
				C313.8,677.8,325.9,665.7,340.8,665.7 M340.8,662.7c-16.5,0-30,13.5-30,30c0,16.5,13.5,30,30,30s30-13.5,30-30
				C370.8,676.1,357.3,662.7,340.8,662.7L340.8,662.7z"/>
		</g>
		<g>
			<circle fill="#2B2E31" cx="414.8" cy="692.7" r="27"/>
			<g>
				<path fill="#FFFFFF" d="M414.8,662.7c-1.1,0-2.2,0.1-3.3,0.2l0.3,3c0.2,0,0.5,0,0.7-0.1c0,0,0,0,0,0c0,0,0,0,0,0c0,0,0,0,0,0
					c0,0,0,0,0,0c0,0,0,0,0,0c0,0,0,0,0,0c0,0,0,0,0,0c0,0,0,0,0,0c0,0,0,0,0,0c0,0,0,0,0,0c0,0,0,0,0,0c0,0,0,0,0,0c0,0,0,0,0,0
					c0,0,0,0,0,0c0,0,0,0,0,0c0,0,0,0,0,0c0,0,0,0,0,0c0,0,0,0,0,0c0,0,0,0,0,0c0,0,0,0,0,0c0,0,0,0,0,0c0,0,0,0,0,0c0,0,0,0,0,0
					c0,0,0,0,0,0c0,0,0,0,0,0c0,0,0,0,0,0c0,0,0,0,0,0c0,0,0,0,0,0c0,0,0,0,0,0c0,0,0,0,0,0c0,0,0,0,0,0c0,0,0,0,0,0c0,0,0,0,0,0
					l0,0c0,0,0,0,0,0l0,0c0.5,0,1-0.1,1.5-0.1h0c0,0,0,0,0,0l0,0c0,0,0,0,0,0l0,0c0,0,0,0,0,0l0,0c0,0,0,0,0,0l0,0c0,0,0,0,0.1,0
					c0,0,0,0,0,0c0,0,0,0,0,0c0,0,0,0,0,0c0,0,0,0,0,0c0,0,0,0,0,0c0,0,0,0,0,0l0,0c0,0,0,0,0,0h0c0,0,0,0,0,0h0c0,0,0,0,0,0
					c0,0,0,0,0,0c0,0,0,0,0,0h0c0,0,0,0,0,0c0,0,0,0,0,0c0,0,0,0,0,0c0,0,0,0,0,0c0,0,0,0,0,0c0,0,0,0,0,0c0,0,0,0,0,0c0,0,0,0,0,0
					c0,0,0,0,0,0c0,0,0,0,0,0c0,0,0,0,0,0c0,0,0,0,0,0c0,0,0,0,0,0c0,0,0,0,0,0c0,0,0,0,0,0c0,0,0,0,0,0c0,0,0,0,0,0c0,0,0,0,0,0
					c0,0,0,0,0,0c0,0,0,0,0,0c0,0,0,0,0,0c0,0,0,0,0,0c0,0,0,0,0,0c0,0,0,0,0,0c0,0,0,0,0,0c0,0,0,0,0,0c0,0,0,0,0,0c0,0,0,0,0,0
					c0,0,0,0,0,0c0,0,0,0,0,0c0,0,0,0,0,0c0,0,0,0,0,0c0,0,0,0,0,0c0,0,0,0,0,0c0,0,0,0,0,0c0,0,0,0,0,0c0,0,0,0,0,0c0,0,0,0,0,0
					c0,0,0,0,0,0c0,0,0,0,0,0c0,0,0,0,0,0c0,0,0,0,0,0c0,0,0,0,0,0c0,0,0,0,0,0c0,0,0,0,0,0c0,0,0,0,0,0c0,0,0,0,0,0c0,0,0,0,0,0
					c0,0,0,0,0,0c0,0,0,0,0,0c0,0,0,0,0,0c0,0,0,0,0,0c0,0,0,0,0,0c0,0,0,0,0,0c0,0,0,0,0,0c0,0,0,0,0,0s0,0,0,0c0,0,0,0,0,0
					c0,0,0,0,0,0c0,0,0,0,0,0c0,0,0,0,0,0c0,0,0,0,0,0c0,0,0,0,0,0c0,0,0,0,0,0c0,0,0,0,0,0c0,0,0,0,0,0c0,0,0,0,0,0c0,0,0,0,0,0
					l0,0V662.7L414.8,662.7z M408.2,663.4c-1.1,0.2-2.2,0.5-3.2,0.9l1,2.8c0.8-0.3,1.5-0.5,2.3-0.7c0,0,0,0,0,0c0,0,0,0,0.1,0
					c0,0,0,0,0,0c0,0,0,0,0,0c0,0,0,0,0,0c0,0,0,0,0,0c0,0,0,0,0,0c0,0,0,0,0,0c0,0,0,0,0,0c0,0,0,0,0,0c0,0,0,0,0,0c0,0,0,0,0,0
					c0,0,0,0,0,0c0,0,0,0,0,0c0,0,0,0,0,0c0,0,0,0,0,0c0,0,0,0,0,0c0,0,0,0,0,0c0,0,0,0,0,0c0,0,0,0,0,0c0,0,0,0,0,0c0,0,0,0,0,0
					c0,0,0,0,0,0c0,0,0,0,0,0c0,0,0,0,0,0c0,0,0,0,0,0c0,0,0,0,0,0c0,0,0,0,0,0c0,0,0,0,0,0c0,0,0,0,0,0c0,0,0,0,0,0c0,0,0,0,0,0
					c0,0,0,0,0,0c0,0,0,0,0,0c0,0,0,0,0,0l0,0c0,0,0,0,0,0l0,0c0.1,0,0.2,0,0.3-0.1L408.2,663.4L408.2,663.4z M401.9,665.6
					c-1,0.5-2,1-2.9,1.6l1.6,2.5c0.2-0.1,0.5-0.3,0.7-0.4l0,0c0,0,0,0,0,0l0,0c0,0,0,0,0,0l0,0c0,0,0,0,0,0l0,0c0,0,0,0,0,0
					c0,0,0,0,0,0c0,0,0,0,0,0c0,0,0,0,0,0c0,0,0,0,0,0c0,0,0,0,0,0c0,0,0,0,0,0c0,0,0,0,0,0c0,0,0,0,0,0c0,0,0,0,0,0c0,0,0,0,0,0
					c0,0,0,0,0,0c0,0,0,0,0,0c0,0,0,0,0,0c0,0,0,0,0,0c0,0,0,0,0,0c0,0,0,0,0,0c0,0,0,0,0,0c0,0,0,0,0,0c0,0,0,0,0,0c0,0,0,0,0,0
					c0,0,0,0,0,0c0,0,0,0,0,0c0,0,0,0,0,0c0,0,0,0,0,0c0,0,0,0,0,0c0,0,0,0,0,0c0,0,0,0,0,0c0,0,0,0,0,0c0,0,0,0,0,0c0,0,0,0,0,0
					c0,0,0,0,0,0c0,0,0,0,0,0c0,0,0,0,0,0c0,0,0,0,0,0c0,0,0,0,0,0h0c0,0,0,0,0,0c0,0,0,0,0,0c0,0,0,0,0,0c0,0,0,0,0,0c0,0,0,0,0,0
					c0,0,0,0,0,0c0,0,0,0,0,0c0,0,0,0,0,0c0,0,0,0,0,0c0,0,0,0,0,0c0,0,0,0,0,0c0,0,0,0,0,0c0,0,0,0,0,0c0,0,0,0,0,0c0,0,0,0,0,0
					c0,0,0,0,0,0c0,0,0,0,0.1,0l0,0c0,0,0,0,0,0c0,0,0,0,0,0c0,0,0,0,0,0c0,0,0,0,0,0c0.5-0.3,1-0.5,1.5-0.8L401.9,665.6
					L401.9,665.6z M396.3,669.1c-0.9,0.7-1.7,1.4-2.5,2.2l2.1,2.1c0.6-0.6,1.2-1.1,1.8-1.6c0,0,0,0,0,0c0,0,0,0,0,0c0,0,0,0,0,0
					c0,0,0,0,0,0c0,0,0,0,0,0c0,0,0,0,0,0c0,0,0,0,0,0c0,0,0,0,0,0c0,0,0,0,0,0c0,0,0,0,0,0c0,0,0,0,0,0c0,0,0,0,0,0c0,0,0,0,0,0
					c0,0,0,0,0,0c0,0,0,0,0,0c0,0,0,0,0,0c0,0,0,0,0,0c0,0,0,0,0,0c0,0,0,0,0,0c0,0,0,0,0,0c0,0,0,0,0,0c0,0,0,0,0,0c0,0,0,0,0,0
					c0,0,0,0,0,0c0,0,0,0,0,0c0,0,0,0,0,0c0,0,0,0,0,0c0,0,0,0,0,0c0,0,0,0,0,0c0,0,0,0,0,0c0,0,0,0,0,0c0,0,0,0,0,0c0,0,0,0,0,0
					c0,0,0,0,0,0c0,0,0,0,0,0c0,0,0,0,0,0c0,0,0,0,0,0c0,0,0,0,0,0c0,0,0,0,0,0c0,0,0,0,0,0c0,0,0,0,0,0c0,0,0,0,0,0c0,0,0,0,0,0
					l0,0c0,0,0,0,0,0l0,0c0,0,0,0,0,0l0,0c0.1,0,0.1-0.1,0.2-0.1L396.3,669.1L396.3,669.1z M391.5,673.8c-0.7,0.9-1.4,1.8-2,2.7
					l2.5,1.6c0-0.1,0.1-0.1,0.1-0.2c0,0,0,0,0,0c0,0,0,0,0,0l0,0c0,0,0,0,0,0l0,0c0,0,0,0,0,0c0,0,0,0,0,0c0,0,0,0,0,0c0,0,0,0,0,0
					c0,0,0,0,0,0c0,0,0,0,0,0c0,0,0,0,0,0l0,0c0,0,0,0,0,0c0,0,0,0,0,0c0,0,0,0,0,0c0,0,0,0,0,0c0,0,0,0,0,0c0,0,0,0,0,0
					c0,0,0,0,0,0c0,0,0,0,0,0c0,0,0,0,0,0s0,0,0,0c0,0,0,0,0,0c0,0,0,0,0,0c0,0,0,0,0,0c0,0,0,0,0,0c0,0,0,0,0,0c0,0,0,0,0,0
					c0,0,0,0,0,0c0,0,0,0,0,0c0,0,0,0,0,0c0,0,0,0,0,0c0,0,0,0,0,0c0,0,0,0,0,0c0,0,0,0,0,0c0,0,0,0,0,0c0,0,0,0,0,0c0,0,0,0,0,0
					c0,0,0,0,0,0c0,0,0,0,0,0c0,0,0,0,0,0c0,0,0,0,0,0c0,0,0,0,0,0c0,0,0,0,0,0c0,0,0,0,0,0c0,0,0,0,0,0c0,0,0,0,0,0c0,0,0,0,0,0
					c0,0,0,0,0,0c0,0,0,0,0,0c0,0,0,0,0,0c0,0,0,0,0,0c0,0,0,0,0,0c0,0,0,0,0,0c0,0,0,0,0,0c0,0,0,0,0,0c0,0,0,0,0,0c0,0,0,0,0,0
					c0,0,0,0,0,0c0,0,0,0,0,0c0,0,0,0,0,0c0,0,0,0,0,0c0,0,0,0,0,0c0,0,0,0,0,0c0,0,0,0,0,0c0,0,0,0,0,0c0,0,0,0,0,0c0,0,0,0,0,0
					c0,0,0,0,0,0c0,0,0-0.1,0.1-0.1l0,0c0,0,0,0,0,0l0,0c0,0,0.1-0.1,0.1-0.1l0,0c0,0,0,0,0,0c0,0,0,0,0,0c0,0,0,0,0,0c0,0,0,0,0,0
					c0,0,0,0,0,0c0,0,0,0,0,0c0,0,0-0.1,0.1-0.1c0,0,0,0,0,0c0,0,0,0,0,0c0,0,0,0,0,0c0,0,0,0,0,0c0,0,0,0,0,0c0,0,0,0,0,0
					c0,0,0,0,0,0c0,0,0,0,0,0c0,0,0,0,0,0c0,0,0,0,0,0c0,0,0,0,0,0c0,0,0,0,0,0c0,0,0,0,0,0c0,0,0,0,0,0c0,0,0,0,0,0c0,0,0,0,0,0
					c0,0,0,0,0,0c0,0,0,0,0,0c0,0,0,0,0,0c0,0,0,0,0,0c0,0,0,0,0,0c0,0,0,0,0,0c0,0,0,0,0,0c0,0,0,0,0,0c0,0,0,0,0,0c0,0,0,0,0,0
					c0,0,0,0,0,0c0,0,0,0,0,0c0,0,0,0,0,0c0,0,0,0,0,0c0,0,0,0,0,0c0,0,0,0,0,0c0,0,0,0,0,0c0,0,0,0,0,0c0,0,0,0,0,0c0,0,0,0,0,0
					c0,0,0,0,0,0c0,0,0,0,0,0c0,0,0,0,0,0c0,0,0,0,0,0c0,0,0,0,0,0c0,0,0,0,0,0c0,0,0,0,0,0c0,0,0,0,0,0c0,0,0,0,0,0c0,0,0,0,0,0
					c0,0,0,0,0,0c0,0,0,0,0,0c0,0,0,0,0,0c0,0,0,0,0,0c0,0,0,0,0,0c0,0,0,0,0,0c0,0,0,0,0,0c0,0,0,0,0,0c0,0,0,0,0,0c0,0,0,0,0,0
					c0,0,0,0,0,0c0,0,0,0,0,0c0,0,0,0,0,0c0,0,0,0,0,0c0,0,0,0,0,0c0,0,0,0,0,0c0,0,0,0,0,0c0,0,0,0,0,0c0,0,0,0,0,0c0,0,0,0,0,0
					c0,0,0,0,0,0c0,0,0,0,0,0c0,0,0,0,0,0c0,0,0,0,0,0c0,0,0,0,0,0c0,0,0,0,0,0c0,0,0,0,0,0c0,0,0,0,0,0c0,0,0,0,0,0c0,0,0,0,0,0
					c0,0,0,0,0,0c0,0,0,0,0,0c0,0,0,0,0,0c0,0,0,0,0,0c0,0,0,0,0,0c0,0,0,0,0,0c0,0,0,0,0,0c0,0,0,0,0,0c0,0,0,0,0,0c0,0,0,0,0,0
					c0,0,0,0,0,0c0,0,0,0,0,0c0,0,0,0,0,0c0,0,0,0,0,0c0,0,0,0,0,0c0,0,0,0,0,0c0,0,0,0,0,0c0,0,0,0,0,0c0,0,0,0,0,0c0,0,0,0,0,0
					c0,0,0,0,0,0l0,0c0,0,0,0,0,0l0,0c0,0,0,0,0,0l0,0c0.2-0.3,0.4-0.5,0.6-0.8L391.5,673.8L391.5,673.8z M387.9,679.4
					c-0.5,1-0.9,2-1.3,3.1l2.8,1c0.3-0.9,0.7-1.7,1.1-2.5l0,0c0,0,0,0,0,0l0,0c0,0,0,0,0,0l0,0c0,0,0,0,0,0l0,0c0,0,0,0,0,0l0,0
					c0,0,0,0,0,0c0,0,0,0,0,0c0,0,0,0,0,0c0,0,0,0,0,0c0,0,0,0,0,0c0,0,0,0,0,0c0,0,0,0,0,0c0,0,0,0,0,0c0,0,0,0,0,0c0,0,0,0,0,0
					c0,0,0,0,0,0c0,0,0,0,0,0c0,0,0,0,0,0c0,0,0,0,0,0c0,0,0,0,0,0c0,0,0,0,0,0c0,0,0,0,0,0c0,0,0,0,0,0c0,0,0,0,0,0c0,0,0,0,0,0
					c0,0,0,0,0,0c0,0,0,0,0,0c0,0,0,0,0,0c0,0,0,0,0,0c0,0,0,0,0,0c0,0,0,0,0,0l0,0c0,0,0,0,0,0L387.9,679.4L387.9,679.4z
					 M385.7,685.6c-0.3,1.1-0.5,2.2-0.6,3.3l3,0.4c0.1-0.8,0.2-1.6,0.4-2.4l0,0c0,0,0,0,0,0c0,0,0,0,0,0c0,0,0,0,0,0c0,0,0,0,0,0
					c0,0,0,0,0,0c0,0,0,0,0,0c0,0,0,0,0,0c0,0,0,0,0,0c0,0,0,0,0,0c0,0,0,0,0,0c0,0,0,0,0,0c0,0,0,0,0,0c0,0,0,0,0,0c0,0,0,0,0,0
					c0,0,0,0,0,0c0,0,0,0,0,0c0,0,0,0,0,0c0,0,0,0,0,0c0,0,0,0,0,0c0,0,0,0,0,0c0,0,0,0,0,0c0,0,0,0,0,0c0,0,0,0,0,0c0,0,0,0,0,0
					c0,0,0,0,0,0c0,0,0,0,0,0c0,0,0,0,0,0c0,0,0,0,0,0c0,0,0,0,0,0c0,0,0,0,0,0c0,0,0,0,0,0c0,0,0,0,0,0l0,0c0,0,0,0,0,0l0,0
					c0,0,0,0,0,0l0,0c0-0.1,0.1-0.2,0.1-0.3L385.7,685.6L385.7,685.6z M384.8,692.2c0,0.2,0,0.3,0,0.5c0,0.9,0,1.9,0.1,2.8l3-0.3
					c0-0.2,0-0.4,0-0.6c0,0,0,0,0,0c0,0,0,0,0,0c0,0,0,0,0,0c0,0,0,0,0,0c0,0,0,0,0,0c0,0,0,0,0,0c0,0,0,0,0,0c0,0,0,0,0,0
					c0,0,0,0,0,0c0,0,0,0,0,0c0,0,0,0,0,0c0,0,0,0,0,0c0,0,0,0,0,0c0,0,0,0,0,0c0,0,0,0,0,0c0,0,0,0,0,0c0,0,0,0,0,0c0,0,0,0,0,0
					c0,0,0,0,0,0c0,0,0,0,0,0c0,0,0,0,0,0l0,0c0,0,0,0,0,0c0,0,0,0,0,0c0,0,0,0,0,0c0,0,0,0,0,0c0,0,0,0,0,0c0,0,0,0,0,0
					c0,0,0,0,0,0c0,0,0,0,0,0c0,0,0,0,0,0c0,0,0,0,0,0c0,0,0,0,0,0c0,0,0,0,0,0c0,0,0,0,0,0c0,0,0,0,0,0c0,0,0,0,0,0c0,0,0,0,0,0
					c0,0,0,0,0,0c0,0,0,0,0,0c0,0,0,0,0,0l0,0c0,0,0,0,0,0l0,0c0,0,0,0,0,0l0,0c0,0,0,0,0,0c0,0,0,0,0,0c0,0,0,0,0,0l0,0
					c0,0,0,0,0,0c0,0,0,0,0,0c0,0,0,0,0,0l0,0c0,0,0,0,0,0l0,0c0,0,0,0,0,0l0,0c0,0,0,0,0,0l0,0c0,0,0-0.1,0-0.1v0c0,0,0,0,0,0l0,0
					c0,0,0,0,0,0l0,0c0-0.3,0-0.5,0-0.8l0,0c0,0,0-0.1,0-0.1v0c0,0,0,0,0,0l0,0c0,0,0,0,0,0l0,0c0,0,0,0,0,0v0c0,0,0,0,0,0v0
					c0,0,0,0,0,0v0c0,0,0,0,0-0.1v0c0,0,0,0,0,0l0,0c0,0,0,0,0,0l0,0c0,0,0,0,0,0l0,0c0,0,0,0,0,0l0,0c0,0,0,0,0,0l0,0c0,0,0,0,0,0
					v0c0,0,0,0,0,0v0c0,0,0,0,0,0l0,0c0,0,0,0,0,0c0,0,0,0,0,0c0,0,0,0,0,0c0,0,0,0,0,0c0,0,0,0,0,0c0,0,0,0,0,0c0,0,0,0,0,0
					c0,0,0,0,0,0c0,0,0,0,0,0c0,0,0,0,0,0c0,0,0,0,0,0c0,0,0,0,0,0c0,0,0,0,0,0c0,0,0,0,0,0c0,0,0,0,0,0c0,0,0,0,0,0c0,0,0,0,0,0
					c0,0,0,0,0,0c0,0,0,0,0,0c0,0,0,0,0,0c0,0,0,0,0,0c0,0,0,0,0,0c0,0,0,0,0,0v0c0,0,0,0,0,0c0,0,0,0,0,0c0,0,0,0,0,0c0,0,0,0,0,0
					c0,0,0,0,0,0c0,0,0,0,0,0c0,0,0,0,0,0c0,0,0,0,0,0c0,0,0,0,0,0c0,0,0,0,0,0c0,0,0,0,0,0c0,0,0,0,0,0c0,0,0,0,0,0c0,0,0,0,0,0
					c0,0,0,0,0,0c0,0,0,0,0,0c0,0,0,0,0,0c0,0,0,0,0,0c0,0,0,0,0,0c0,0,0,0,0,0c0,0,0,0,0,0c0,0,0,0,0,0c0,0,0,0,0,0c0,0,0,0,0,0
					c0,0,0,0,0,0c0,0,0,0,0,0c0,0,0,0,0,0c0,0,0,0,0,0c0,0,0,0,0,0c0,0,0,0,0,0c0,0,0,0,0,0c0,0,0,0,0,0c0,0,0,0,0,0c0,0,0,0,0,0
					c0,0,0,0,0,0c0,0,0,0,0,0c0,0,0,0,0,0c0,0,0,0,0,0c0,0,0,0,0,0c0,0,0,0,0,0c0,0,0,0,0,0c0,0,0,0,0,0c0,0,0,0,0,0c0,0,0,0,0,0
					c0,0,0,0,0,0c0,0,0,0,0,0c0,0,0,0,0,0c0,0,0,0,0,0c0,0,0,0,0,0l0,0l0,0l0,0l0,0c0,0,0,0,0,0c0,0,0,0,0,0c0,0,0,0,0,0
					c0,0,0,0,0,0c0,0,0,0,0,0c0,0,0,0,0,0c0,0,0,0,0,0c0,0,0,0,0,0c0,0,0,0,0,0c0,0,0,0,0,0c0,0,0,0,0,0c0,0,0,0,0,0c0,0,0,0,0,0
					c0,0,0,0,0,0c0,0,0,0,0,0c0,0,0,0,0,0c0,0,0,0,0,0c0,0,0,0,0,0c0,0,0,0,0,0c0,0,0,0,0,0c0,0,0,0,0,0c0,0,0,0,0,0c0,0,0,0,0,0
					c0,0,0,0,0,0c0,0,0,0,0,0c0,0,0,0,0,0c0,0,0,0,0,0c0,0,0,0,0,0c0-0.1,0-0.2,0-0.2L384.8,692.2L384.8,692.2z M388.4,698.2
					l-2.9,0.6c0.2,1.1,0.5,2.2,0.9,3.2l2.9-0.9c-0.2-0.7-0.4-1.4-0.6-2.2c0,0,0,0,0,0c0,0,0,0,0,0c0,0,0,0,0,0c0,0,0,0,0,0
					c0,0,0,0,0,0c0,0,0,0,0,0c0,0,0,0,0,0c0,0,0,0,0,0c0,0,0,0,0,0c0,0,0,0,0,0c0,0,0,0,0,0c0,0,0,0,0,0c0,0,0,0,0,0c0,0,0,0,0,0
					c0,0,0,0,0,0c0,0,0,0,0,0c0,0,0,0,0,0c0,0,0,0,0,0c0,0,0,0,0,0c0,0,0,0,0,0c0,0,0,0,0,0c0,0,0,0,0,0c0,0,0,0,0,0c0,0,0,0,0,0
					c0,0,0,0,0,0c0,0,0,0,0,0c0,0,0,0,0,0c0,0,0,0,0,0c0,0,0,0,0,0c0,0,0,0,0,0c0,0,0,0,0,0c0,0,0,0,0,0c0,0,0,0,0,0c0,0,0,0,0,0
					c0,0,0,0,0,0c0,0,0,0,0,0c0,0,0,0,0,0c0,0,0,0,0,0c0,0,0,0,0,0c0,0,0,0,0,0c0,0,0,0,0,0l0,0c0,0,0,0,0,0l0,0c0,0,0,0,0,0l0,0
					c0,0,0,0,0,0l0,0C388.4,698.5,388.4,698.4,388.4,698.2L388.4,698.2z M390.3,703.9l-2.7,1.2c0.5,1,1,2,1.6,2.9l2.6-1.5
					c0-0.1-0.1-0.2-0.1-0.2c0,0,0,0,0,0c0,0,0,0,0,0c0,0,0,0,0,0c0,0,0,0,0,0c0,0,0,0,0,0c0,0,0,0,0,0c0,0,0,0,0,0c0,0,0,0,0,0
					c0,0,0,0,0,0c0,0,0,0,0,0c0,0,0,0,0,0c0,0,0,0,0,0c0,0,0,0,0,0c0,0,0,0,0,0c0,0,0,0,0,0c0,0,0,0,0,0c0,0,0,0,0,0l0,0
					c-0.2-0.4-0.5-0.8-0.7-1.2c0,0,0,0,0,0c0,0,0,0,0,0c0,0,0,0,0,0c0,0,0,0,0,0c0,0,0,0,0,0c0,0,0,0,0,0c0,0,0,0,0,0c0,0,0,0,0,0
					c0,0,0,0,0,0c0,0,0,0,0,0l0,0c0,0,0,0,0,0c0,0,0,0,0,0c0,0,0,0,0,0c0,0,0,0,0,0c0,0,0,0,0,0c0,0,0,0,0,0c0,0,0,0,0,0
					c0,0,0,0,0,0c0,0,0,0,0,0c0,0,0,0,0,0c0,0,0,0,0,0c0,0,0,0,0,0c0,0,0,0,0,0c0,0,0,0,0,0c0,0,0,0,0,0c0,0,0,0,0,0c0,0,0,0,0,0
					c0,0,0,0,0,0c0,0,0,0,0,0C390.5,704.5,390.4,704.2,390.3,703.9L390.3,703.9z M393.3,709l-2.4,1.8c0.7,0.9,1.4,1.7,2.2,2.5
					l2.2-2.1c-0.3-0.3-0.5-0.5-0.7-0.8c0,0,0,0,0,0c0,0,0,0,0,0c0,0,0,0,0,0c0,0,0,0,0,0c0,0,0,0,0,0c0,0,0,0,0,0c0,0,0,0,0,0
					c0,0,0,0,0,0c0,0,0,0,0,0c0,0,0,0,0,0c0,0,0,0,0,0c0,0,0,0,0,0c0,0,0,0,0,0c0,0,0,0,0,0c0,0,0,0,0,0c0,0,0,0,0,0c0,0,0,0,0,0
					c0,0,0,0,0,0c0,0,0,0,0,0c0,0,0,0,0,0c0,0,0,0,0,0l0,0c0,0,0,0,0,0c0,0,0,0,0,0c0,0,0,0,0,0l0,0c0,0,0,0,0,0l0,0
					C394,709.9,393.7,709.5,393.3,709L393.3,709z M397.5,713.4l-1.9,2.3c0.8,0.7,1.7,1.4,2.7,2l1.7-2.5c0,0,0,0,0,0l0,0c0,0,0,0,0,0
					l0,0c0,0,0,0,0,0l0,0c0,0,0,0-0.1,0l0,0c-0.3-0.2-0.6-0.4-0.9-0.6l0,0c0,0,0,0,0,0l0,0c0,0,0,0,0,0c0,0,0,0,0,0c0,0,0,0,0,0l0,0
					c0,0,0,0,0,0c0,0,0,0,0,0c0,0,0,0,0,0l0,0c0,0,0,0,0,0c0,0,0,0,0,0c0,0,0,0,0,0c0,0,0,0,0,0c0,0,0,0,0,0c0,0,0,0,0,0
					c0,0,0,0,0,0c0,0,0,0,0,0c0,0,0,0,0,0c0,0,0,0,0,0c0,0,0,0,0,0c0,0,0,0,0,0c0,0,0,0,0,0c0,0,0,0,0,0c0,0,0,0,0,0c0,0,0,0,0,0
					c0,0,0,0,0,0c0,0,0,0,0,0c0,0,0,0,0,0c0,0,0,0,0,0c0,0,0,0,0,0c0,0,0,0,0,0c0,0,0,0,0,0c0,0,0,0,0,0c0,0,0,0,0,0c0,0,0,0,0,0
					c0,0,0,0,0,0c0,0,0,0,0,0c0,0,0,0,0,0c0,0,0,0,0,0c0,0,0,0,0,0c0,0,0,0,0,0c0,0,0,0,0,0c0,0,0,0,0,0c0,0,0,0,0,0c0,0,0,0,0,0
					c0,0,0,0,0,0c0,0,0,0,0,0c0,0,0,0,0,0c0,0,0,0,0,0c0,0,0,0,0,0c0,0,0,0,0,0c0,0,0,0,0,0c0,0,0,0,0,0c0,0,0,0,0,0c0,0,0,0,0,0
					c0,0,0,0,0,0c0,0,0,0,0,0c0,0,0,0,0,0c0,0,0,0,0,0c0,0,0,0,0,0c0,0,0,0,0,0c0,0,0,0,0,0c0,0,0,0,0,0c0,0,0,0,0,0c0,0,0,0,0,0
					c0,0,0,0,0,0C398.1,713.9,397.8,713.7,397.5,713.4L397.5,713.4z M402.4,716.7l-1.4,2.7c1,0.5,2,1,3,1.4l1.1-2.8
					C404.2,717.6,403.3,717.2,402.4,716.7L402.4,716.7z M408,718.8l-0.8,2.9c1.1,0.3,2.2,0.5,3.3,0.7l0.4-3c-0.5-0.1-1-0.2-1.5-0.3
					c0,0,0,0,0,0c0,0,0,0,0,0c0,0,0,0,0,0c0,0,0,0,0,0c0,0,0,0,0,0c0,0,0,0,0,0c0,0,0,0,0,0c0,0,0,0,0,0c0,0,0,0,0,0c0,0,0,0,0,0
					c0,0,0,0,0,0c0,0,0,0,0,0c0,0,0,0,0,0c0,0,0,0,0,0c0,0,0,0,0,0c0,0,0,0,0,0c0,0,0,0,0,0c0,0,0,0,0,0c0,0,0,0,0,0c0,0,0,0,0,0
					c0,0,0,0,0,0c0,0,0,0,0,0c0,0,0,0,0,0c0,0,0,0,0,0c0,0,0,0,0,0l0,0C408.9,719.1,408.5,719,408,718.8L408,718.8z M417,719.6
					c-0.3,0-0.7,0-1,0.1c0,0,0,0,0,0c0,0,0,0,0,0c0,0,0,0,0,0c0,0,0,0,0,0c0,0,0,0,0,0c0,0,0,0,0,0c0,0,0,0,0,0c0,0,0,0,0,0
					c0,0,0,0,0,0c0,0,0,0,0,0c0,0,0,0,0,0c0,0,0,0,0,0c0,0,0,0,0,0c0,0,0,0,0,0c0,0,0,0,0,0c0,0,0,0,0,0c0,0,0,0,0,0c0,0,0,0,0,0
					c0,0,0,0,0,0c0,0,0,0,0,0c0,0,0,0,0,0c0,0,0,0,0,0c0,0,0,0,0,0c0,0,0,0,0,0c0,0,0,0,0,0c0,0,0,0,0,0c0,0,0,0,0,0c0,0,0,0,0,0
					c0,0,0,0,0,0c0,0,0,0,0,0c0,0,0,0,0,0c0,0,0,0,0,0c0,0,0,0,0,0c0,0,0,0,0,0c0,0,0,0,0,0c0,0,0,0,0,0c0,0,0,0,0,0c0,0,0,0,0,0
					c0,0,0,0,0,0c0,0,0,0,0,0c0,0,0,0,0,0c0,0,0,0,0,0c0,0,0,0,0,0c0,0,0,0,0,0c0,0,0,0,0,0c0,0,0,0,0,0c0,0,0,0,0,0c0,0,0,0,0,0
					c0,0,0,0,0,0c0,0,0,0,0,0c0,0,0,0,0,0c0,0,0,0,0,0c0,0,0,0,0,0c0,0,0,0,0,0c0,0,0,0,0,0c0,0,0,0,0,0c0,0,0,0,0,0c0,0,0,0,0,0
					c0,0,0,0,0,0c0,0,0,0,0,0c0,0,0,0,0,0c0,0,0,0,0,0c0,0,0,0,0,0c0,0,0,0,0,0c0,0,0,0,0,0c0,0,0,0,0,0c0,0,0,0,0,0c0,0,0,0,0,0
					c0,0,0,0,0,0c0,0,0,0,0,0c0,0,0,0,0,0c0,0,0,0,0,0c0,0,0,0,0,0c0,0,0,0,0,0c0,0,0,0,0,0c0,0,0,0,0,0c0,0,0,0,0,0c0,0,0,0,0,0
					c0,0,0,0,0,0c0,0,0,0,0,0c0,0,0,0,0,0c0,0,0,0,0,0c0,0,0,0,0,0c0,0,0,0,0,0c0,0,0,0,0,0c0,0,0,0,0,0c0,0,0,0,0,0c0,0,0,0,0,0
					c0,0,0,0,0,0c0,0,0,0,0,0c0,0,0,0,0,0c0,0,0,0,0,0c0,0,0,0,0,0c0,0,0,0,0,0c0,0,0,0,0,0c0,0,0,0,0,0c0,0,0,0,0,0c0,0,0,0,0,0
					c0,0,0,0,0,0c0,0,0,0,0,0c0,0,0,0,0,0c0,0,0,0,0,0c0,0,0,0,0,0c0,0,0,0,0,0c0,0,0,0,0,0c0,0,0,0,0,0c0,0,0,0,0,0c0,0,0,0,0,0
					c0,0,0,0,0,0c0,0,0,0,0,0c0,0,0,0,0,0c0,0,0,0,0,0c0,0,0,0,0,0c0,0,0,0,0,0c0,0,0,0,0,0c0,0,0,0,0,0c0,0,0,0,0,0c0,0,0,0,0,0
					c0,0,0,0,0,0c0,0,0,0,0,0c0,0,0,0,0,0c0,0,0,0,0,0c0,0,0,0,0,0c0,0,0,0,0,0s0,0,0,0c0,0,0,0,0,0c0,0,0,0,0,0c0,0,0,0,0,0
					c0,0,0,0,0,0c0,0,0,0,0,0c0,0,0,0,0,0c0,0,0,0,0,0c0,0,0,0,0,0c0,0,0,0,0,0c0,0,0,0,0,0c0,0,0,0,0,0c0,0,0,0,0,0c0,0,0,0,0,0
					c0,0,0,0,0,0c0,0,0,0,0,0c0,0,0,0,0,0c0,0,0,0,0,0c0,0,0,0,0,0c0,0,0,0,0,0c0,0,0,0,0,0c0,0,0,0,0,0c0,0,0,0,0,0c0,0,0,0,0,0
					c0,0,0,0,0,0c0,0,0,0,0,0c0,0,0,0,0,0c0,0,0,0,0,0c0,0,0,0,0,0c0,0,0,0,0,0c0,0,0,0,0,0c0,0,0,0,0,0c0,0,0,0,0,0c0,0,0,0,0,0
					c0,0,0,0,0,0c0,0,0,0,0,0c0,0,0,0,0,0c0,0,0,0,0,0c0,0,0,0,0,0c0,0,0,0,0,0c0,0,0,0,0,0c0,0,0,0,0,0c0,0,0,0,0,0c0,0,0,0,0,0
					c0,0,0,0,0,0c0,0,0,0,0,0c0,0,0,0,0,0c0,0,0,0,0,0c0,0,0,0,0,0c0,0,0,0,0,0c0,0,0,0,0,0c0,0,0,0,0,0c0,0,0,0,0,0c0,0,0,0,0,0
					c0,0,0,0,0,0c0,0,0,0,0,0c0,0,0,0,0,0c0,0,0,0,0,0c0,0,0,0,0,0c0,0,0,0,0,0c0,0,0,0,0,0c0,0,0,0,0,0c0,0,0,0,0,0c0,0,0,0,0,0
					c0,0,0,0,0,0c0,0,0,0,0,0c0,0,0,0,0,0c0,0,0,0,0,0c0,0,0,0,0,0c0,0,0,0,0,0c0,0,0,0,0,0c0,0,0,0,0,0c0,0,0,0,0,0c0,0,0,0,0,0
					c0,0,0,0,0,0c0,0,0,0,0,0c0,0,0,0,0,0c0,0,0,0,0,0l0,0c0,0,0,0,0,0l0,0c0,0,0,0,0,0h0c-0.1,0-0.2,0-0.3,0l-0.1,3
					c0.3,0,0.6,0,1,0c0.8,0,1.6,0,2.4-0.1L417,719.6L417,719.6z M422.8,718.5c-0.6,0.2-1.2,0.3-1.8,0.5c0,0,0,0,0,0c0,0,0,0-0.1,0h0
					c0,0,0,0,0,0c0,0,0,0,0,0c0,0,0,0,0,0c0,0,0,0,0,0c0,0,0,0,0,0c0,0,0,0,0,0c0,0,0,0,0,0c0,0,0,0,0,0c0,0,0,0,0,0c0,0,0,0,0,0
					c0,0,0,0,0,0c0,0,0,0,0,0c0,0,0,0,0,0c0,0,0,0,0,0c0,0,0,0,0,0c0,0,0,0,0,0c0,0,0,0,0,0c0,0,0,0,0,0c0,0,0,0,0,0c0,0,0,0,0,0
					c0,0,0,0,0,0c0,0,0,0,0,0c0,0,0,0,0,0c0,0,0,0,0,0c0,0,0,0,0,0c0,0,0,0,0,0c0,0,0,0,0,0c0,0,0,0,0,0c0,0,0,0,0,0c0,0,0,0,0,0
					c0,0,0,0,0,0c0,0,0,0,0,0c0,0,0,0,0,0c0,0,0,0,0,0c0,0,0,0,0,0c0,0,0,0,0,0c0,0,0,0,0,0c0,0,0,0,0,0c0,0,0,0,0,0c0,0,0,0,0,0
					c0,0,0,0,0,0c0,0,0,0,0,0c0,0,0,0,0,0c0,0,0,0,0,0c0,0,0,0,0,0c0,0,0,0,0,0c0,0,0,0,0,0c0,0,0,0,0,0c0,0,0,0,0,0c0,0,0,0,0,0
					c0,0,0,0,0,0c0,0,0,0,0,0c0,0,0,0,0,0c0,0,0,0,0,0c0,0,0,0,0,0c0,0,0,0,0,0c0,0,0,0,0,0c0,0,0,0,0,0c0,0,0,0,0,0c0,0,0,0,0,0
					c0,0,0,0,0,0c0,0,0,0,0,0c0,0,0,0,0,0c0,0,0,0,0,0c0,0,0,0,0,0c0,0,0,0,0,0c0,0,0,0,0,0c0,0,0,0,0,0l0,0c0,0,0,0,0,0
					c0,0,0,0,0,0c0,0,0,0,0,0c0,0,0,0,0,0c0,0,0,0,0,0c0,0,0,0,0,0c0,0,0,0,0,0c0,0,0,0,0,0c0,0,0,0,0,0c0,0,0,0,0,0c0,0,0,0,0,0
					c0,0,0,0,0,0c0,0,0,0,0,0l0,0c0,0,0,0,0,0c0,0,0,0,0,0c0,0,0,0,0,0c0,0,0,0,0,0c0,0,0,0,0,0c0,0,0,0,0,0c0,0,0,0,0,0
					c0,0,0,0,0,0c0,0,0,0,0,0c0,0,0,0,0,0c0,0,0,0,0,0c0,0,0,0,0,0c0,0,0,0,0,0l0,0c0,0,0,0,0,0c0,0,0,0,0,0c0,0,0,0,0,0
					c0,0,0,0,0,0c0,0,0,0,0,0c0,0,0,0,0,0c0,0,0,0,0,0c0,0,0,0,0,0c0,0,0,0,0,0c0,0,0,0,0,0c0,0,0,0,0,0c0,0,0,0,0,0c0,0,0,0,0,0
					c0,0,0,0,0,0c0,0,0,0,0,0c0,0,0,0,0,0c0,0,0,0,0,0c0,0,0,0,0,0c0,0,0,0,0,0c0,0,0,0,0,0c0,0,0,0,0,0c0,0,0,0,0,0c0,0,0,0,0,0
					c0,0,0,0,0,0c0,0,0,0,0,0c0,0,0,0,0,0c0,0,0,0,0,0c0,0,0,0,0,0c0,0,0,0,0,0c0,0,0,0,0,0c0,0,0,0,0,0c0,0,0,0,0,0c0,0,0,0,0,0
					c0,0,0,0,0,0c0,0,0,0,0,0c0,0,0,0,0,0c0,0,0,0,0,0c0,0,0,0,0,0c0,0,0,0,0,0c0,0,0,0,0,0c0,0,0,0,0,0c0,0,0,0,0,0c0,0,0,0,0,0
					c0,0,0,0,0,0c0,0,0,0,0,0c0,0,0,0,0,0c0,0,0,0,0,0c0,0,0,0,0,0c0,0,0,0,0,0c0,0,0,0,0,0c0,0,0,0,0,0c0,0,0,0,0,0c0,0,0,0,0,0
					c0,0,0,0,0,0c0,0,0,0,0,0c0,0,0,0,0,0c0,0,0,0,0,0c0,0,0,0,0,0c0,0,0,0,0,0c0,0,0,0,0,0c0,0,0,0,0,0c0,0-0.1,0-0.1,0l0.6,2.9
					c1.1-0.2,2.2-0.5,3.2-0.8L422.8,718.5L422.8,718.5z M428.3,716.1c0,0-0.1,0-0.1,0.1l0,0c0,0,0,0-0.1,0c0,0,0,0,0,0c0,0,0,0,0,0
					c0,0,0,0,0,0c0,0,0,0,0,0c0,0,0,0,0,0c0,0,0,0,0,0c0,0,0,0,0,0c0,0,0,0,0,0c0,0,0,0,0,0c0,0,0,0,0,0c0,0,0,0,0,0c0,0,0,0,0,0
					c0,0,0,0,0,0c0,0,0,0,0,0c0,0,0,0,0,0c0,0,0,0,0,0c0,0,0,0,0,0c0,0,0,0,0,0c-0.8,0.4-1.6,0.8-2.4,1.2l1.2,2.7c1-0.4,2-0.9,3-1.5
					L428.3,716.1L428.3,716.1z M433.1,712.5c-0.3,0.3-0.7,0.6-1,0.9l0,0c0,0,0,0,0,0l0,0c0,0,0,0,0,0l0,0c0,0,0,0,0,0l0,0
					c0,0,0,0,0,0c0,0,0,0,0,0c0,0,0,0,0,0c0,0,0,0,0,0c0,0,0,0,0,0c0,0,0,0,0,0c0,0,0,0,0,0c0,0,0,0,0,0c0,0,0,0,0,0c0,0,0,0,0,0
					c0,0,0,0,0,0c0,0,0,0,0,0c0,0,0,0,0,0c0,0,0,0,0,0c0,0,0,0,0,0c0,0,0,0,0,0c0,0,0,0,0,0c0,0,0,0,0,0c0,0,0,0,0,0c0,0,0,0,0,0
					c0,0,0,0,0,0c0,0,0,0,0,0c0,0,0,0,0,0c0,0,0,0,0,0c0,0,0,0,0,0c0,0,0,0,0,0c0,0,0,0,0,0c0,0,0,0,0,0c0,0,0,0,0,0c0,0,0,0,0,0
					c0,0,0,0,0,0c0,0,0,0,0,0c0,0,0,0,0,0c0,0,0,0,0,0c0,0,0,0,0,0c0,0,0,0,0,0c0,0,0,0,0,0c0,0,0,0,0,0c0,0,0,0,0,0c0,0,0,0,0,0
					c0,0,0,0,0,0c0,0,0,0,0,0c0,0,0,0,0,0c0,0,0,0,0,0c0,0,0,0,0,0c0,0,0,0,0,0c0,0,0,0,0,0c0,0,0,0,0,0c0,0,0,0,0,0c0,0,0,0,0,0
					c0,0,0,0,0,0c0,0,0,0,0,0c0,0,0,0,0,0c0,0,0,0,0,0c0,0,0,0,0,0c0,0,0,0,0,0c0,0,0,0,0,0c0,0,0,0,0,0c0,0,0,0,0,0c0,0,0,0,0,0
					c0,0,0,0,0,0c0,0,0,0,0,0c0,0,0,0,0,0c0,0,0,0,0,0c0,0,0,0,0,0c0,0,0,0,0,0c0,0,0,0,0,0c0,0,0,0,0,0c0,0,0,0,0,0c0,0,0,0,0,0
					c0,0,0,0,0,0c0,0,0,0,0,0c0,0,0,0,0,0c0,0,0,0,0,0c0,0,0,0,0,0c0,0,0,0,0,0c0,0,0,0,0,0c0,0,0,0,0,0c0,0,0,0,0,0c0,0,0,0,0,0
					c0,0,0,0,0,0c0,0,0,0,0,0c0,0,0,0,0,0c0,0,0,0,0,0c0,0,0,0,0,0c0,0,0,0,0,0c0,0,0,0,0,0c0,0,0,0,0,0c0,0,0,0,0,0c0,0,0,0,0,0
					c0,0,0,0,0,0c0,0,0,0,0,0c0,0,0,0,0,0c0,0,0,0,0,0c0,0,0,0,0,0c0,0,0,0,0,0c0,0,0,0,0,0c0,0,0,0,0,0c0,0,0,0,0,0c0,0,0,0,0,0
					c0,0,0,0,0,0c0,0,0,0,0,0c0,0,0,0,0,0c0,0,0,0,0,0c0,0,0,0,0,0c0,0,0,0,0,0c0,0,0,0,0,0c0,0,0,0,0,0c0,0,0,0,0,0c0,0,0,0,0,0
					c0,0,0,0,0,0c0,0,0,0,0,0c0,0,0,0,0,0c0,0,0,0,0,0c0,0,0,0,0,0c0,0,0,0,0,0c0,0,0,0,0,0c0,0,0,0,0,0c0,0,0,0,0,0c0,0,0,0,0,0
					c0,0,0,0,0,0c0,0,0,0,0,0c0,0,0,0,0,0c0,0,0,0,0,0c0,0,0,0,0,0c0,0,0,0,0,0c0,0,0,0,0,0c0,0,0,0,0,0c0,0,0,0,0,0c0,0,0,0,0,0
					c0,0,0,0,0,0c0,0,0,0,0,0c0,0,0,0,0,0c0,0,0,0,0,0c0,0,0,0,0,0c0,0,0,0,0,0c0,0,0,0,0,0c0,0,0,0,0,0c0,0,0,0,0,0c0,0,0,0,0,0
					c0,0,0,0,0,0c0,0,0,0,0,0c0,0,0,0,0,0c0,0,0,0,0,0c0,0,0,0,0,0c0,0,0,0,0,0c0,0,0,0,0,0c0,0,0,0,0,0c0,0,0,0,0,0c0,0,0,0,0,0
					c0,0,0,0,0,0c0,0,0,0,0,0c0,0,0,0,0,0c0,0,0,0,0,0c0,0,0,0,0,0c0,0,0,0,0,0c0,0,0,0,0,0c0,0,0,0,0,0c0,0,0,0,0,0c0,0,0,0,0,0
					c0,0,0,0,0,0c0,0,0,0,0,0c0,0,0,0,0,0c0,0,0,0,0,0c0,0,0,0,0,0c0,0,0,0,0,0c0,0,0,0,0,0c0,0,0,0,0,0c0,0,0,0,0,0c0,0,0,0,0,0
					c0,0,0,0,0,0c0,0,0,0,0,0c0,0,0,0,0,0c0,0,0,0,0,0c0,0,0,0,0,0c0,0,0,0,0,0c0,0,0,0,0,0c0,0,0,0,0,0c0,0,0,0,0,0c0,0,0,0,0,0
					c0,0,0,0,0,0c0,0,0,0,0,0c0,0,0,0,0,0c0,0,0,0,0,0c0,0,0,0,0,0c0,0,0,0,0,0c0,0,0,0,0,0c0,0,0,0,0,0c0,0,0,0,0,0c0,0,0,0,0,0
					c0,0,0,0,0,0c0,0,0,0,0,0c0,0,0,0,0,0c0,0,0,0,0,0c0,0,0,0,0,0c0,0,0,0,0,0c0,0,0,0,0,0c0,0,0,0,0,0c0,0,0,0,0,0c0,0,0,0,0,0
					c0,0,0,0,0,0c0,0,0,0,0,0c0,0,0,0,0,0c0,0,0,0,0,0l0,0c0,0,0,0,0,0c0,0,0,0,0,0c0,0,0,0,0,0c0,0,0,0,0,0c0,0,0,0,0,0
					c0,0,0,0,0,0c0,0,0,0,0,0c0,0,0,0,0,0c0,0,0,0,0,0c0,0,0,0,0,0c0,0,0,0,0,0c0,0,0,0,0,0c0,0,0,0,0,0c0,0,0,0,0,0l1.8,2.4
					c0.9-0.7,1.8-1.4,2.6-2.1L433.1,712.5L433.1,712.5z M437.1,708c-0.6,0.8-1.2,1.6-1.8,2.4l2.3,2c0.7-0.8,1.4-1.7,2-2.6L437.1,708
					L437.1,708z M439.9,702.8c-0.4,0.9-0.8,1.7-1.2,2.6c0,0,0,0,0,0c0,0,0,0,0,0c0,0,0,0,0,0c0,0,0,0,0,0c0,0,0,0,0,0c0,0,0,0,0,0
					c0,0,0,0,0,0c0,0,0,0,0,0c0,0,0,0,0,0c0,0,0,0,0,0c0,0,0,0,0,0c0,0,0,0,0,0c0,0,0,0,0,0c0,0,0,0,0,0c0,0,0,0,0,0c0,0,0,0,0,0
					c0,0,0,0,0,0c0,0,0,0,0,0c0,0,0,0,0,0c0,0,0,0,0,0c0,0,0,0,0,0l0,0c0,0,0,0,0,0l2.6,1.4c0.5-1,1-2,1.4-3L439.9,702.8
					L439.9,702.8z M441.5,697c-0.2,1-0.4,2-0.6,2.9l2.9,0.8c0.3-1.1,0.5-2.2,0.7-3.3L441.5,697L441.5,697z M444.8,690.8l-3,0.2
					c0,0.1,0,0.2,0,0.3c0,0,0,0,0,0c0,0,0,0,0,0c0,0,0,0,0,0c0,0,0,0,0,0c0,0,0,0,0,0c0,0,0,0,0,0c0,0,0,0,0,0c0,0,0,0,0,0
					c0,0,0,0,0,0c0,0,0,0,0,0c0,0,0,0,0,0l0,0c0,0,0,0,0,0l0,0c0,0.3,0,0.6,0,0.9v0c0,0,0,0,0,0c0,0,0,0,0,0c0,0,0,0,0,0l0,0
					c0,0,0,0,0,0l0,0c0,0,0,0,0,0v0c0,0,0,0,0,0c0,0,0,0,0,0c0,0,0,0,0,0c0,0,0,0,0,0c0,0,0,0,0,0c0,0,0,0,0,0c0,0,0,0,0,0
					c0,0,0,0,0,0c0,0,0,0,0,0c0,0,0,0,0,0c0,0,0,0,0,0c0,0,0,0,0,0c0,0,0,0,0,0c0,0,0,0,0,0c0,0,0,0,0,0s0,0,0,0c0,0,0,0,0,0
					c0,0,0,0,0,0c0,0,0,0,0,0c0,0,0,0,0,0c0,0,0,0,0,0c0,0,0,0,0,0c0,0,0,0,0,0c0,0,0,0,0,0c0,0,0,0,0,0c0,0,0,0,0,0c0,0,0,0,0,0
					c0,0,0,0,0,0c0,0,0,0,0,0c0,0,0,0,0,0c0,0,0,0,0,0c0,0,0,0,0,0c0,0,0,0,0,0c0,0,0,0,0,0c0,0,0,0,0,0c0,0,0,0,0,0c0,0,0,0,0,0
					c0,0,0,0,0,0c0,0,0,0,0,0c0,0,0,0,0,0c0,0,0,0,0,0c0,0,0,0,0,0l0,0l0,0l0,0l0,0c0,0,0,0,0,0c0,0,0,0,0,0c0,0,0,0,0,0
					c0,0,0,0,0,0c0,0,0,0,0,0c0,0,0,0,0,0c0,0,0,0,0,0c0,0,0,0,0,0c0,0,0,0,0,0c0,0,0,0,0,0c0,0,0,0,0,0c0,0,0,0,0,0c0,0,0,0,0,0
					c0,0,0,0,0,0c0,0,0,0,0,0c0,0,0,0,0,0c0,0,0,0,0,0c0,0,0,0,0,0c0,0,0,0,0,0c0,0,0,0,0,0c0,0,0,0,0,0c0,0,0,0,0,0c0,0,0,0,0,0
					c0,0,0,0,0,0c0,0,0,0,0,0v0c0,0.4,0,0.8,0,1.2l3,0.1c0-0.5,0-1,0-1.5C444.8,692.1,444.8,691.4,444.8,690.8L444.8,690.8z
					 M443.6,684.3l-2.9,0.8c0.1,0.3,0.2,0.5,0.2,0.8l0,0c0,0,0,0,0,0c0,0,0,0,0,0c0,0,0,0,0,0c0,0,0,0,0,0c0,0,0,0,0,0c0,0,0,0,0,0
					c0,0,0,0,0,0c0,0,0,0,0,0c0,0,0,0,0,0c0,0,0,0,0,0c0,0,0,0,0,0c0,0,0,0,0,0c0,0,0,0,0,0c0,0,0,0,0,0c0,0,0,0,0,0c0,0,0,0,0,0
					c0,0,0,0,0,0l0,0c0,0,0,0,0,0c0,0,0,0,0,0c0,0,0,0,0,0c0,0,0,0,0,0c0,0,0,0,0,0c0,0,0,0,0,0c0,0,0,0,0,0c0,0,0,0,0,0
					c0,0,0,0,0,0c0,0,0,0,0,0c0,0,0,0,0,0c0,0,0,0,0,0c0,0,0,0,0,0c0,0,0,0,0,0c0,0,0,0,0,0c0,0,0,0,0,0c0,0,0,0,0,0c0,0,0,0,0,0
					c0,0,0,0,0,0c0,0,0,0,0,0c0,0,0,0,0,0c0,0,0,0,0,0c0,0,0,0,0,0c0,0,0,0,0,0c0,0,0,0,0,0c0,0,0,0,0,0c0,0,0,0,0,0c0,0,0,0,0,0
					c0,0,0,0,0,0c0,0,0,0,0,0c0,0,0,0,0,0c0,0,0,0,0,0c0,0,0,0,0,0c0,0,0,0,0,0c0,0,0,0,0,0c0,0,0,0,0,0c0,0,0,0,0,0c0,0,0,0,0,0
					c0,0,0,0,0,0c0,0,0,0,0,0c0,0,0,0,0,0c0,0,0,0,0,0c0,0,0,0,0,0c0,0,0,0,0,0c0,0,0,0,0,0c0,0,0,0,0,0c0,0,0,0,0,0c0,0,0,0,0,0
					l0,0c0,0,0,0,0,0l0,0c0,0,0,0,0,0l0,0c0,0,0,0,0,0l0,0c0,0,0,0.1,0,0.1l0,0c0.1,0.5,0.2,1,0.3,1.5l3-0.5
					C444.2,686.4,444,685.3,443.6,684.3L443.6,684.3z M441.1,678.1l-2.6,1.5c0.2,0.4,0.5,0.8,0.7,1.3c0,0,0,0,0,0c0,0,0,0,0,0
					c0,0,0,0,0,0c0,0,0,0,0,0c0,0,0,0,0,0c0,0,0,0,0,0c0,0,0,0,0,0c0,0,0,0,0,0c0,0,0,0,0,0c0,0,0,0,0,0c0,0,0,0,0,0c0,0,0,0,0,0
					c0,0,0,0,0,0c0,0,0,0,0,0c0,0,0,0,0,0c0,0,0,0,0,0c0,0,0,0,0,0c0,0,0,0,0,0c0,0,0,0,0,0c0,0,0,0,0,0c0,0,0,0,0,0c0,0,0,0,0,0
					c0,0,0,0,0,0s0,0,0,0c0,0,0,0,0,0c0,0,0,0,0,0c0,0,0,0,0,0c0,0,0,0,0,0c0,0,0,0,0,0c0,0,0,0,0,0c0,0,0,0,0,0c0,0,0,0,0,0
					c0,0,0,0,0,0l0,0c0,0,0,0,0,0c0,0,0,0,0,0c0,0,0,0,0,0l0,0c0,0,0,0,0,0l0,0c0,0,0,0,0,0l0,0c0,0,0,0,0,0l0,0
					c0.2,0.4,0.3,0.7,0.5,1.1l0,0c0,0,0,0,0,0l0,0c0,0,0,0,0,0l2.8-1.2C442.1,680.1,441.6,679.1,441.1,678.1L441.1,678.1z
					 M437.2,672.7l-2.2,2c0.3,0.3,0.6,0.7,0.8,1c0,0,0,0,0,0c0,0,0,0,0,0c0,0,0,0,0,0c0,0,0,0,0,0c0,0,0,0,0,0c0,0,0,0,0,0
					c0,0,0,0,0,0c0,0,0,0,0,0c0,0,0,0,0,0c0,0,0,0,0,0c0,0,0,0,0,0c0,0,0,0,0,0c0,0,0,0,0,0c0,0,0,0,0,0c0,0,0,0,0,0c0,0,0,0,0,0
					c0,0,0,0,0,0c0,0,0,0,0,0c0,0,0,0,0,0c0,0,0,0,0,0c0,0,0,0,0,0c0,0,0,0,0,0c0,0,0,0,0,0c0,0,0,0,0,0c0,0,0,0,0,0c0,0,0,0,0,0
					c0,0,0,0,0,0c0,0,0,0,0,0c0,0,0,0,0,0c0,0,0,0,0,0c0,0,0,0,0,0c0,0,0,0,0,0c0,0,0,0,0,0c0,0,0,0,0,0c0,0,0,0,0,0c0,0,0,0,0,0
					c0,0,0,0,0,0c0,0,0,0,0,0c0,0,0,0,0,0c0,0,0,0,0,0c0,0,0,0,0,0c0,0,0,0,0,0c0,0,0,0,0,0c0,0,0,0,0,0c0,0,0,0,0,0c0,0,0,0,0,0
					c0,0,0,0,0,0c0,0,0,0,0,0c0,0,0,0,0,0l0,0c0,0,0,0,0,0l0,0c0,0,0,0,0,0c0,0,0,0,0,0c0,0,0,0,0,0c0,0,0,0,0,0c0,0,0,0,0,0
					c0,0,0,0,0,0c0,0,0,0,0,0c0,0,0,0,0,0c0,0,0,0,0,0c0,0,0,0,0,0c0,0,0,0,0,0c0,0,0,0,0,0c0,0,0,0,0,0c0,0,0,0,0,0c0,0,0,0,0,0
					l0,0c0,0,0,0,0,0l0,0c0,0,0,0,0,0l0,0c0,0,0,0,0,0l0,0c0,0,0,0,0,0l0,0c0,0,0,0,0,0l0,0c0,0,0,0,0,0l0,0c0,0,0,0,0,0.1l0,0
					c0.2,0.2,0.3,0.4,0.5,0.7l0,0c0,0,0,0,0,0l0,0c0,0,0,0,0,0l0,0c0,0,0,0,0,0l0,0c0,0,0,0,0,0l0,0c0,0,0,0,0,0c0,0,0,0,0,0
					c0,0,0,0,0,0l0,0c0,0,0,0,0,0l0,0c0,0,0,0,0,0l2.4-1.7C438.7,674.4,438,673.5,437.2,672.7L437.2,672.7z M432.3,668.3l-1.7,2.4
					c0.8,0.6,1.6,1.2,2.3,1.9l2-2.2C434,669.6,433.2,668.9,432.3,668.3L432.3,668.3z M426.5,665l-1.2,2.8c0.8,0.3,1.5,0.7,2.3,1.1
					l0,0c0,0,0,0,0,0c0,0,0,0,0,0c0,0,0,0,0,0l0,0c0,0,0,0,0,0l0,0c0,0,0,0,0,0l0,0c0,0,0,0,0,0c0,0,0,0,0,0c0,0,0,0,0,0
					c0,0,0,0,0,0c0,0,0,0,0,0c0,0,0,0,0,0c0,0,0,0,0,0c0,0,0,0,0,0c0,0,0,0,0,0c0,0,0,0,0,0c0,0,0,0,0,0c0,0,0,0,0,0c0,0,0,0,0,0
					c0,0,0,0,0,0c0,0,0,0,0,0c0,0,0,0,0,0c0,0,0,0,0,0c0,0,0,0,0,0c0,0,0,0,0,0c0,0,0,0,0,0c0,0,0,0,0,0c0,0,0,0,0,0c0,0,0,0,0,0
					c0,0,0,0,0,0c0,0,0,0,0,0c0,0,0,0,0,0c0,0,0,0,0,0c0,0,0,0,0,0c0,0,0,0,0,0c0,0,0,0,0,0c0,0,0,0,0,0c0.1,0,0.1,0.1,0.2,0.1
					l1.5-2.6C428.5,665.9,427.5,665.4,426.5,665L426.5,665z M420.1,663.1l-0.5,3c0,0,0,0,0,0c0,0,0,0,0,0c0,0,0,0,0,0c0,0,0,0,0,0
					c0,0,0,0,0,0c0.4,0.1,0.8,0.1,1.2,0.2c0,0,0,0,0,0c0,0,0,0,0,0c0,0,0,0,0,0c0,0,0,0,0,0c0,0,0,0,0,0c0,0,0,0,0,0c0,0,0,0,0,0
					c0,0,0,0,0,0c0,0,0,0,0,0c0,0,0,0,0,0c0,0,0,0,0,0c0,0,0,0,0,0c0,0,0,0,0,0c0,0,0,0,0,0c0,0,0,0,0,0c0,0,0,0,0,0c0,0,0,0,0,0
					c0,0,0,0,0,0c0,0,0,0,0,0c0,0,0,0,0,0c0,0,0,0,0,0c0,0,0,0,0,0c0,0,0,0,0,0c0,0,0,0,0,0c0,0,0,0,0,0c0,0,0,0,0,0c0,0,0,0,0,0
					c0,0,0,0,0,0c0,0,0,0,0,0c0,0,0,0,0,0c0,0,0,0,0,0c0,0,0,0,0,0c0,0,0,0,0,0c0,0,0,0,0,0c0,0,0,0,0,0c0,0,0,0,0,0c0,0,0,0,0,0
					l0,0c0,0,0,0,0,0l0,0c0,0,0,0,0,0c0,0,0,0,0,0c0,0,0,0,0,0l0,0c0,0,0,0,0,0l0,0c0.5,0.1,1,0.2,1.4,0.4l0.8-2.9
					C422.3,663.6,421.2,663.3,420.1,663.1L420.1,663.1z M414.8,662.7v3l0,0c0,0,0,0,0,0c0,0,0,0,0,0c0,0,0,0,0,0c0,0,0,0,0,0
					c0,0,0,0,0,0c0,0,0,0,0,0c0,0,0,0,0,0c0,0,0,0,0,0c0,0,0,0,0,0c0,0,0,0,0,0c0,0,0,0,0,0c0,0,0,0,0,0c0,0,0,0,0,0c0,0,0,0,0,0
					c0,0,0,0,0,0c0,0,0,0,0,0c0,0,0,0,0,0c0,0,0,0,0,0c0,0,0,0,0,0c0,0,0,0,0,0c0,0,0,0,0,0c0,0,0,0,0,0c0,0,0,0,0,0c0,0,0,0,0,0
					c0,0,0,0,0,0c0,0,0,0,0,0c0,0,0,0,0,0c0,0,0,0,0,0c0,0,0,0,0,0c0,0,0,0,0,0c0,0,0,0,0,0c0,0,0,0,0,0c0,0,0,0,0,0c0,0,0,0,0,0
					c0,0,0,0,0,0c0,0,0,0,0,0c0,0,0,0,0,0c0,0,0,0,0,0c0,0,0,0,0,0c0,0,0,0,0,0c0,0,0,0,0,0c0,0,0,0,0,0c0.3,0,0.6,0,0.9,0
					c0,0,0,0,0,0c0,0,0,0,0,0c0,0,0,0,0,0c0,0,0,0,0,0c0,0,0,0,0,0c0,0,0,0,0,0c0,0,0,0,0,0c0,0,0,0,0,0c0,0,0,0,0,0c0,0,0,0,0,0
					c0,0,0,0,0,0c0,0,0,0,0,0c0,0,0,0,0,0c0,0,0,0,0,0c0,0,0,0,0,0c0,0,0,0,0,0c0,0,0,0,0,0c0,0,0,0,0,0c0.1,0,0.3,0,0.4,0l0.2-3
					C416.1,662.7,415.5,662.7,414.8,662.7L414.8,662.7z"/>
			</g>
		</g>
		<g>
			<path fill="#2B2E31" d="M178.9,682.8L178.9,682.8c0-4.6,2.9-8.6,7.9-8.6c5,0,7.9,4,7.9,8.5v0c0,4.5-2.9,8.5-7.9,8.5
				S178.9,687.3,178.9,682.8z M189.3,682.8L189.3,682.8c0-2.3-1-3.8-2.5-3.8s-2.4,1.5-2.4,3.7v0c0,2.2,1,3.8,2.5,3.8
				C188.3,686.5,189.3,685,189.3,682.8z"/>
			<path fill="#2B2E31" d="M200.6,679.2l-2.7,0.6l-1-4l4.9-1.3h4.1v16.5h-5.4V679.2z"/>
			<path fill="#2B2E31" d="M181.4,699.2l-2.7,0.6l-1-4l4.9-1.3h4.1v16.5h-5.4V699.2z"/>
			<path fill="#2B2E31" d="M190.8,702.8L190.8,702.8c0-4.6,2.9-8.6,7.9-8.6c5,0,7.9,4,7.9,8.5v0c0,4.5-2.9,8.5-7.9,8.5
				C193.7,711.3,190.8,707.3,190.8,702.8z M201.2,702.8L201.2,702.8c0-2.3-1-3.8-2.5-3.8c-1.5,0-2.4,1.5-2.4,3.7v0
				c0,2.2,1,3.8,2.5,3.8C200.2,706.5,201.2,705,201.2,702.8z"/>
		</g>
		<g>
			<path fill="#2B2E31" d="M271.9,690c0,0.4-0.3,0.6-0.6,0.6h-19.1c-0.4,0-0.6-0.3-0.6-0.6v-13.2c0-0.4,0.3-0.6,0.6-0.6h19.1
				c0.4,0,0.6,0.3,0.6,0.6V690z"/>
			<path fill="#2B2E31" d="M260.6,707.4c0,0.4-0.1,0.7-0.2,0.7h-8.8c-0.1,0-0.2-0.3-0.2-0.7v-13.8c0-0.4,0.1-0.7,0.2-0.7h8.8
				c0.1,0,0.2,0.3,0.2,0.7V707.4z"/>
			<path fill="#2B2E31" d="M271.9,707.4c0,0.4-0.1,0.7-0.2,0.7h-8.8c-0.1,0-0.2-0.3-0.2-0.7v-13.8c0-0.4,0.1-0.7,0.2-0.7h8.8
				c0.1,0,0.2,0.3,0.2,0.7V707.4z"/>
			<path fill="#2B2E31" d="M282,706.6c0,0.8-0.1,1.4-0.2,1.4h-7.6c-0.1,0-0.2-0.6-0.2-1.4v-29c0-0.8,0.1-1.4,0.2-1.4h7.6
				c0.1,0,0.2,0.6,0.2,1.4V706.6z"/>
		</g>
		<g>
			<g>
				<path fill="#2B2E31" d="M338.9,694.1L338.9,694.1L338.9,694.1c-0.1-0.1-0.1-0.1-0.1-0.1l-15.3-15.4l0,0
					c-0.2-0.2-0.5-0.3-0.8-0.3c-0.6,0-1.2,0.5-1.2,1.2c0,0.2,0.1,0.4,0.2,0.6l0,0l0,0c0,0,0,0,0,0l13.1,17.5l0,0
					c0.5,0.6,1.3,1.1,2.2,1.1c1.5,0,2.7-1.2,2.7-2.7C339.6,695.2,339.3,694.6,338.9,694.1z"/>
				<path fill="#2B2E31" d="M345.2,699.9c1.4,1.5,1.4,7.2,1.4,7.2s-5.5-0.5-6.9-2c-1.4-1.5-1.4-3.9,0.2-5.3
					C341.4,698.3,343.8,698.4,345.2,699.9z"/>
			</g>
			<path fill="#2B2E31" d="M342.6,678.7c-5.4,0-7.3,3.8-7.3,6.7c0,0.7,0,1.6,0.1,2.6l4.6,4.7l0.1,0.1l0,0l0,0
				c0.8,0.8,1.2,1.9,1.2,3.1c0,0.4,0,0.7-0.1,1c0.4-0.1,0.8-0.1,1.1-0.1h0c1.5,0,3,0.6,4.1,1.8c1.7,1.9,1.9,6.5,1.9,8.5l0,2.1
				l-2.1-0.2c-1.4-0.1-6.3-0.7-8.1-2.6c-1.5-1.6-1.9-3.9-1.2-5.9c-0.1,0-0.2,0-0.3,0c-1.4,0-2.8-0.7-3.7-1.8l-3.1-4.1
				c-1.3,0.4-2.3,1.6-2.3,4.2c0,6,5.6,14.2,17.7,14.2c12.1,0,14.9-7.1,14.9-13.5C360.3,693.1,355.4,678.7,342.6,678.7z M343.4,690.7
				c-1.8,0-3.3-1.5-3.3-3.3s1.5-3.3,3.3-3.3c1.8,0,3.3,1.5,3.3,3.3S345.2,690.7,343.4,690.7z M346.9,692.1c0-1.8,1.5-3.3,3.3-3.3
				c1.8,0,3.3,1.5,3.3,3.3c0,1.8-1.5,3.3-3.3,3.3C348.4,695.5,346.9,694,346.9,692.1z M352.8,704.3c-1.8,0-3.3-1.5-3.3-3.3
				c0-1.8,1.5-3.3,3.3-3.3c1.8,0,3.3,1.5,3.3,3.3C356.2,702.8,354.7,704.3,352.8,704.3z"/>
		</g>
		<g>
			<path fill="#FFFFFF" d="M410.8,689.7l0.3-0.3c5.4-0.5,7.7-2.3,7.7-5.1v-0.1c0-2.3-1.7-3.7-4.4-3.7c-2.7,0-4.8,1.4-6.4,3.1
				l-4.2-5.1c2.8-2.8,6.2-4.8,10.9-4.8c6.9,0,11.4,3.9,11.4,10.3v0.1c0,6.1-4,8.9-8.9,10.1l-0.6,4.1h-4.9L410.8,689.7z M410.2,702.3
				h8v7.9h-8V702.3z"/>
		</g>
	</g>
	<g>
		<path fill="#FFFFFF" stroke="#FFFFFF" stroke-width="1.0957" stroke-miterlimit="10" d="M236.3,215.5v-2.4l5.2-3.5l-5.2-3.5v-2.4
			h11.3v2.2h-8l5.2,3.6v0.1l-5.2,3.6h8v2.2H236.3z"/>
		<path fill="#FFFFFF" stroke="#FFFFFF" stroke-width="1.0957" stroke-miterlimit="10" d="M236.3,200.7v-2.3h11.3v2.3H236.3z"/>
		<path fill="#FFFFFF" stroke="#FFFFFF" stroke-width="1.0957" stroke-miterlimit="10" d="M236.3,195.4v-2.1l7.6-6h-7.6v-2.2h11.3
			v1.9l-7.8,6.2h7.8v2.2H236.3z"/>
		<path fill="#FFFFFF" stroke="#FFFFFF" stroke-width="1.0957" stroke-miterlimit="10" d="M236.3,182v-2.3h11.3v2.3H236.3z"/>
	</g>
	<g>
		<polygon fill="#FFFFFF" points="344.9,432.3 400.4,433.1 344.9,433.9 		"/>
	</g>
	<g>
		<polygon fill="#FFFFFF" points="265.4,433.9 210,433.1 265.4,432.3 		"/>
	</g>
</g>
</svg>
