<?xml version="1.0" encoding="utf-8"?>
<!-- Generator: Adobe Illustrator 17.0.0, SVG Export Plug-In . SVG Version: 6.00 Build 0)  -->
<!DOCTYPE svg PUBLIC "-//W3C//DTD SVG 1.1//EN" "http://www.w3.org/Graphics/SVG/1.1/DTD/svg11.dtd">
<svg version="1.1" id="Calque_1" xmlns="http://www.w3.org/2000/svg" xmlns:xlink="http://www.w3.org/1999/xlink" x="0px" y="0px"
	 width="595.283px" height="255.778px" viewBox="0 585.737 595.283 255.778" enable-background="new 0 585.737 595.283 255.778"
	 xml:space="preserve">
<g>
	<path fill="#000000" d="M1.972,740.249l17.095-92.707h19.725l16.437,92.707H40.107l-2.63-20.383H20.383l-3.288,20.383H1.972z
		 M22.355,705.401h12.493l-6.575-43.395L22.355,705.401z"/>
	<path fill="#000000" d="M63.12,740.249v-92.708h20.383l10.52,48.655c0.658,1.972,0.658,4.602,1.315,7.89
		c0.658,3.288,0.658,7.89,1.315,12.493c0-4.602,0-8.547,0.658-12.493c0-3.945,0.658-6.575,1.315-8.547l10.52-48.655h20.383v92.707
		h-14.465v-59.832c0-0.658,0-2.63,0-5.918c0-3.288,0.658-7.89,0.658-13.807c-0.658,1.972-0.658,4.602-1.315,7.232
		c-0.658,2.63-1.315,6.575-1.972,11.835l-12.493,60.49h-7.89l-12.494-60.489c-1.315-5.26-1.972-9.205-1.972-11.835
		c-0.658-2.63-1.315-5.26-1.315-7.232c0.658,5.918,0.658,10.52,0.658,13.807c0,3.288,0,5.26,0,5.918v59.832H63.12V740.249z"/>
	<path fill="#000000" d="M140.047,740.249v-92.708h14.465l17.753,49.313c0.658,1.972,1.315,4.602,1.972,7.232
		c0.658,2.63,1.315,5.918,1.972,9.205h0.658c-0.658-3.945-1.315-7.232-1.315-10.52c-0.658-3.288-0.658-5.918-0.658-7.89v-47.34
		h13.807v92.707h-13.15l-19.067-53.257c-1.315-2.63-1.972-5.26-2.63-7.89c-0.658-2.63-1.315-5.26-1.972-7.89h-0.658
		c0.658,3.288,1.315,6.575,1.315,9.863c0.658,3.288,0.658,7.232,0.658,10.52v48.655L140.047,740.249L140.047,740.249z"/>
	<path fill="#000000" d="M199.878,740.249v-92.708h42.737v14.465h-26.957v23.012h20.383v14.465h-20.383v25.642h28.93v14.465h-44.709
		v0.658H199.878z"/>
	<path fill="#000000" d="M249.848,715.921l14.465-1.972c0.658,4.602,1.972,8.547,3.945,10.52c1.972,2.63,3.945,3.288,6.575,3.288
		s5.26-0.658,6.575-2.63s2.63-3.945,2.63-6.575c0-5.26-5.26-12.493-16.437-22.355c-1.972-1.315-3.288-2.63-3.945-3.288
		c-3.945-3.288-6.575-7.232-8.547-11.177c-1.972-3.945-3.288-8.547-3.288-12.493c0-6.575,1.972-11.835,6.575-16.437
		c4.602-3.945,9.863-6.575,16.437-6.575c6.575,0,11.177,1.972,15.123,5.918c3.945,3.945,6.575,9.205,7.232,16.437l-13.807,1.972
		c-0.658-3.945-1.315-6.575-3.288-8.547c-1.315-1.972-3.288-2.63-5.918-2.63s-4.602,0.658-5.918,2.63
		c-1.315,1.972-1.972,3.945-1.972,6.575c0,2.63,0.658,4.602,1.972,7.232c1.315,1.972,4.602,5.26,9.205,9.863
		c0.658,0.658,1.972,1.315,3.288,2.63c11.835,11.177,18.41,21.04,18.41,30.244c0,7.232-1.972,12.493-6.575,17.095
		c-4.602,4.602-9.863,6.575-17.095,6.575s-12.493-1.972-17.095-6.575C253.793,730.386,251.163,723.812,249.848,715.921z"/>
	<path fill="#000000" d="M319.542,740.249V661.35H304.42v-13.808h46.025v13.807h-15.123v78.899h-15.779V740.249z"/>
	<path fill="#000000" d="M379.375,740.249v-38.135l-17.753-54.572h15.123l8.547,28.93c0.658,1.315,0.658,3.288,1.315,5.26
		c0.658,1.972,0.658,4.602,0.658,7.232c0-3.288,0.658-5.918,0.658-7.89c0-1.972,0.658-3.945,1.315-5.26l8.547-28.93h15.123
		l-18.409,53.915v38.135h-15.123v1.315H379.375z"/>
</g>
<g>
	<path fill="#000000" d="M0,821.778v-55.887h9.205v55.887H0z"/>
	<path fill="#000000" d="M19.067,821.778v-55.887h8.547l10.52,29.588c0.658,1.315,1.315,3.288,1.315,4.602
		c0.658,1.972,0.658,3.288,1.315,5.917l0,0c-0.658-2.63-0.658-4.602-0.658-6.575c0-1.973,0-3.288,0-4.602v-28.272h7.89v55.887h-7.89
		L28.93,789.561c-0.658-1.972-1.315-3.288-1.315-4.602c-0.658-1.972-1.315-3.288-1.315-5.26l0,0
		c0.658,1.972,0.658,3.945,0.658,5.918c0,1.972,0,3.945,0,6.575v29.588h-7.89V821.778z"/>
	<path fill="#000000" d="M63.12,821.778v-47.339h-9.205v-8.547h27.615v8.547h-9.205v47.339H63.12z"/>
	<path fill="#000000" d="M87.447,821.778v-55.887h25.642v8.547H96.652v13.807h12.493v8.547H96.652v15.779h17.095v8.547h-26.3
		V821.778z"/>
	<path fill="#000000" d="M151.224,821.778h-9.205l-6.575-23.012c-0.658,0-1.315,0-1.972,0c-0.658,0-1.315,0-1.972,0h-1.315v23.012
		h-9.205v-55.887h12.493c3.288,0,6.575,0,7.89,0.658c1.972,0.658,3.288,1.315,4.602,1.972c1.972,1.315,3.288,3.288,3.945,5.26
		c0.658,2.63,1.315,5.26,1.315,7.89c0,3.288-0.658,6.575-1.972,8.547c-1.315,2.63-3.288,4.602-5.918,5.918L151.224,821.778z
		 M130.184,790.876h0.658c0,0,0.658,0,1.315,0c3.288,0,5.918-0.658,7.232-1.972c1.315-1.315,1.972-3.945,1.972-7.232
		c0-3.288-0.658-5.26-1.972-6.575c-1.314-1.315-3.945-1.972-6.575-1.972c-0.658,0-1.315,0-2.63,0l0,0V790.876L130.184,790.876z"/>
	<path fill="#000000" d="M159.114,821.778v-55.887h8.547l10.52,29.588c0.658,1.315,0.658,2.63,1.315,4.602
		c0.658,1.972,0.658,3.288,1.315,5.917l0,0c-0.658-2.63-0.658-4.602-0.658-6.575c0-1.973,0-3.288,0-4.602v-28.272h7.89v55.887h-7.89
		l-11.177-32.874c-0.658-1.972-1.315-3.288-1.315-4.602c-0.658-1.315-0.658-3.288-1.315-4.602l0,0
		c0.658,1.972,0.658,3.945,0.658,5.918s0,3.945,0,6.575v29.588h-7.89L159.114,821.778L159.114,821.778z"/>
	<path fill="#000000" d="M193.962,821.778l9.863-55.887h11.835l9.863,55.887h-8.547l-1.315-11.835h-10.52l-1.972,11.835H193.962z
		 M206.453,800.738h7.232l-3.945-25.642L206.453,800.738z"/>
	<path fill="#000000" d="M234.726,821.778v-47.339h-9.205v-8.547h27.615v8.547h-9.205v47.339H234.726z"/>
	<path fill="#000000" d="M259.054,821.778v-55.887h9.205v55.887H259.054z"/>
	<path fill="#000000" d="M276.148,794.164c0-9.205,1.315-16.437,3.945-21.697c2.63-4.602,6.575-7.232,12.493-7.232
		c5.26,0,9.205,2.63,12.493,7.232c2.63,4.602,3.945,11.835,3.945,21.697c0,9.863-1.315,17.095-3.945,21.697
		c-2.63,4.602-6.575,7.232-12.493,7.232c-5.26,0-9.205-2.63-12.493-7.232C277.463,810.601,276.148,803.368,276.148,794.164z
		 M285.353,794.164c0,7.232,0.658,12.493,1.972,15.779c1.315,3.288,2.63,5.26,5.26,5.26c2.63,0,3.945-1.972,5.26-5.26
		c1.315-3.288,1.972-8.547,1.972-15.779s-0.658-12.493-1.972-15.779s-2.63-5.26-5.26-5.26s-3.945,1.972-5.26,5.26
		C286.01,781.671,285.353,786.931,285.353,794.164z"/>
	<path fill="#000000" d="M316.255,821.778v-55.887h8.547l10.52,29.588c0.658,1.315,0.658,2.63,1.315,4.602
		c0.658,1.972,0.658,3.288,1.315,5.917l0,0c-0.658-2.63-0.658-4.602-0.658-6.575c0-1.973,0-3.288,0-4.602v-28.272h7.89v55.887h-7.89
		l-11.177-32.874c-0.658-1.972-1.315-3.288-1.315-4.602c-0.658-1.315-0.658-3.288-1.315-4.602l0,0
		c0.658,1.972,0.658,3.945,0.658,5.918s0,3.945,0,6.575v29.588h-7.89L316.255,821.778L316.255,821.778z"/>
	<path fill="#000000" d="M351.102,821.778l9.863-55.887H372.8l9.863,55.887h-9.205l-1.315-11.835h-10.52l-1.972,11.835H351.102z
		 M362.937,800.738h7.232l-3.945-25.642L362.937,800.738z"/>
	<path fill="#000000" d="M387.922,821.778v-55.887h9.205v46.683h17.095v8.547h-26.3L387.922,821.778L387.922,821.778z"/>
</g>
<path fill="#000000" d="M545.064,807.971C545.064,808.629,545.064,808.629,545.064,807.971c1.315,0.658,3.288,0.658,3.945-1.314
	l2.63-5.26l3.945,3.288c1.314,1.315,3.288,1.315,3.945,0c1.315-1.315,1.315-3.288,0-3.945l-1.972-1.315
	c9.863-2.63,16.437-4.602,20.383-5.918v2.63c-0.658,1.315,0,3.288,1.972,3.945c1.315,0.658,3.288,0,3.945-1.972l1.972-5.26
	l3.945,3.288c1.315,0.658,3.288,0.658,3.945-0.658c0.658-1.315,0.658-3.288-0.658-3.945l-5.26-3.945l2.63-6.575
	c0.658-1.315,0-3.288-1.972-3.945c-1.315-0.658-3.288,0-3.945,1.972l-1.972,3.945l-3.945-2.63c-1.315-0.658-3.288-0.658-3.945,0.658
	c-0.658,1.315-0.658,3.288,0.658,3.945l2.63,1.972c-3.945,1.315-11.177,3.945-21.697,6.575l1.972-3.945
	c0.658-1.315,0-3.288-1.315-3.945c-1.314-0.658-3.288,0-3.945,1.315l-2.63,4.602l-3.288-1.972c-0.658-0.658-0.658-0.658-1.314-0.658
	c0-13.15,0.658-27.615,0.658-41.422c1.972,0,3.288-0.658,4.602-0.658l-1.314,3.288c-0.658,1.315,0,3.288,1.314,3.945
	c1.315,0.658,3.288,0,3.945-1.315l2.63-5.26l3.945,3.288c1.315,1.315,3.288,0.658,3.945,0c1.315-1.315,0.658-3.288,0-3.945
	l-2.63-3.288c5.26-1.315,9.205-2.63,12.493-3.945c6.575-3.288,10.52-7.232,11.177-11.835c0-0.658,0-0.658,0-1.315l4.602,1.315
	c1.315,0.658,3.288,0,3.945-1.972c0.658-1.315,0-3.288-1.972-3.945l-5.26-1.972l2.63-3.945c0.658-1.315,0.658-3.288-0.658-3.945
	c-1.314-0.658-3.288-0.658-3.945,0.658l-2.63,3.945c-2.63-3.288-6.575-5.918-9.863-8.547l0,0c-2.63-1.972-5.918-3.945-9.205-5.918
	l3.288-2.63c1.315-0.658,1.315-2.63,0.658-3.945c-0.658-1.315-2.63-1.315-3.945-0.658l-5.26,4.602l-1.314-4.602
	c-0.658-1.315-1.972-1.972-3.945-1.972c-1.314,0.658-1.972,1.972-1.972,3.945l0.658,1.315c-0.658,0-1.315-0.658-2.63-0.658
	c1.972-7.232,3.945-15.779,2.63-19.725c-1.315-3.288-7.89-3.945-7.89-3.945h-5.26h-19.725c-2.63-4.602-1.314-5.26,0.658-10.52
	c2.63-5.918,5.918-8.547,14.465-17.753c1.314-1.315,12.493-15.779,12.493-15.779c2.63-4.602,4.602-8.547,4.602-13.15
	c0-19.725-19.067-30.902-19.067-30.902s0,4.602-1.972,10.52c-1.972,5.26-13.15,10.52-22.355,14.465
	c-8.547,3.288-23.67,4.602-28.272,30.244c3.945,28.272,25.642,26.3,27.615,28.272c1.315,1.315,0.658,3.288,0,4.602h-25.642v21.04
	c-11.835,2.63-22.355,5.918-30.902,9.205l0.658-2.63c0.658-1.315-0.658-3.288-1.972-3.945c-1.314-0.658-3.288,0.658-3.945,1.972
	l-1.315,5.26l-3.945-2.63c-1.315-0.658-3.288-0.658-3.945,0.658c-0.658,1.315-0.658,3.288,0.658,3.945l1.972,1.315
	c-3.945,1.972-6.575,3.288-7.232,3.288c-1.315,0.658-1.972,2.63-1.315,3.945c0.658,1.315,2.63,1.972,3.945,1.315
	c0,0,2.63-1.315,5.918-3.288l-1.315,3.288c-0.658,1.315,0.658,3.288,1.972,3.945c1.315,0.658,3.288-0.658,3.945-1.972l1.972-5.26
	l4.602,2.63c1.314,0.658,3.288,0.658,3.945-0.658c0.658-1.315,0.658-3.288-0.658-3.945l-2.63-0.658
	c7.89-3.288,18.41-6.575,29.588-9.205v47.997l-11.177,1.315l1.315-2.63c0.658-1.315,0-3.288-1.315-3.945
	c-1.315-0.658-3.288,0-3.945,1.315l-1.972,4.602l-3.288-3.288c-1.314-1.315-3.288-1.315-3.945,0c-1.315,1.315-1.315,3.288,0,3.945
	l1.972,1.315c-12.493,3.288-20.383,9.205-21.697,16.437c-0.658,3.288,0.658,7.232,4.602,11.835l-5.26,1.315
	c-1.315,0.658-2.63,1.972-1.972,3.288c0.658,1.315,1.972,2.63,3.288,1.972l5.26-1.315v5.26c0,1.315,1.315,3.288,2.63,3.288
	s3.288-1.315,3.288-2.63v-4.602c3.288,1.972,6.575,3.945,11.177,5.918c2.63,1.315,5.918,1.972,9.863,3.288l-3.945,3.288
	c-1.315,1.315-1.315,2.63-0.658,3.945c1.315,1.315,2.63,1.315,3.945,0.658l4.602-3.945l1.972,4.602
	c0.658,1.315,2.63,1.972,3.945,1.315c0,0,0,0,0.658-0.658v21.697l63.12,14.465C545.064,842.161,545.064,809.943,545.064,807.971z
	 M548.352,704.086c1.314,0.658,1.972,0.658,3.288,1.315l-3.288,2.63C547.694,706.717,548.352,705.401,548.352,704.086z
	 M547.694,711.977c1.315,0.658,2.63,1.315,3.945,0l4.602-3.288l1.972,4.602c0.658,1.315,1.972,1.972,3.945,1.972
	c1.314-0.658,1.972-1.972,1.972-3.945l-1.315-0.658c2.63,1.315,4.602,2.63,6.575,3.945h0.658c1.314,0.658,1.972,1.315,3.288,1.972
	c-0.658,0.658-1.314,0.658-1.314,1.972c-0.658,1.315,0,3.288,1.972,3.945l4.602,1.315l-2.63,3.945
	c-0.658,1.315-0.658,3.288,0.658,3.945c0,0,0,0,0.658,0c-1.314,0.658-2.63,1.315-3.945,1.972c-2.63,1.315-6.575,2.63-11.177,3.288
	l1.314-3.288c0.658-1.315,0-3.288-1.314-3.945c-1.315-0.658-3.288,0-3.945,1.315l-2.63,5.26l-3.288-1.972
	c-1.315-1.315-3.288-0.658-3.945,0c-1.315,1.315-0.658,3.288,0,3.945l1.972,1.972c-1.315,0-2.63,0.658-3.288,0.658
	C547.036,730.386,547.036,720.524,547.694,711.977z M481.944,786.931L481.944,786.931l-4.602,3.945l-1.972-3.945
	c-0.658-1.315-2.63-1.972-3.945-1.315c-1.315,0.658-1.972,2.63-1.315,3.945l0.658,1.315c-2.63-0.658-5.26-1.972-7.232-2.63
	c-3.288-1.315-5.918-2.63-7.89-3.945l1.314-0.658c1.315-0.658,2.63-1.972,1.972-3.288c-0.658-1.315-1.972-2.63-3.288-1.972
	l-5.26,1.315v-4.602c0-1.315-1.315-2.63-2.63-3.288c-1.315,0-2.63,1.315-3.288,2.63v0.658c-1.315-1.972-1.315-3.288-1.315-4.602
	c0.658-4.602,7.232-8.547,17.095-11.835l-1.972,3.288c-0.658,1.315,0,3.288,1.315,3.945c1.315,0.658,3.288,0,3.945-1.315l2.63-5.26
	l3.945,3.288c1.315,1.315,3.288,1.315,3.945,0c1.315-1.315,1.315-3.288,0-3.945l-3.288-1.972h0.658l10.52-1.315L481.944,786.931
	L481.944,786.931z M501.011,643.597c0-0.658,1.972-6.575,1.972-7.232l3.945-5.918c3.288-3.288,7.232-6.575,11.177-9.863
	c7.232-6.575,18.41-19.067,18.41-19.067s6.575,8.547-4.602,26.3c-0.658,0.658-3.288,5.918-3.945,6.575l-5.918,7.232
	c-2.63,3.288-3.288,3.945-5.26,8.547c-2.63,7.232-5.26,16.437-5.26,16.437S501.011,658.719,501.011,643.597z M533.886,826.38
	c-1.972-0.658-40.107-9.863-40.765-9.863c0-1.315,0-46.683,0-61.804c2.63,0,5.918-0.658,8.547-0.658l-1.972,2.63
	c-0.658,1.315-0.658,3.288,0.658,3.945c1.315,0.658,3.288,0.658,3.945-0.658l3.288-4.602l3.288,3.945
	c1.315,1.315,2.63,1.315,3.945,0.658c1.314-1.315,1.314-2.63,0.658-3.945l-2.63-2.63c6.575-0.658,13.807-1.972,20.383-2.63
	C533.886,765.891,533.886,825.724,533.886,826.38z M533.886,743.537c-5.917,0.658-12.493,1.972-19.067,2.63l1.314-1.972
	c0.658-1.315,0.658-3.288-0.658-3.945c-1.314-0.658-3.288-0.658-3.945,0.658l-3.288,4.602l-2.63-3.288
	c-1.314-1.315-2.63-1.315-3.945-0.658c-1.972,0-1.972,1.972-1.315,3.288l1.972,2.63c-3.288,0.658-5.918,0.658-9.205,1.315
	c0-18.409,0-61.804,0-63.12c7.89,0,32.874,0,40.765,0C533.886,686.334,533.886,727.098,533.886,743.537z"/>
</svg>
