<?xml version="1.0" encoding="utf-8"?>
<!-- Generator: Adobe Illustrator 17.0.0, SVG Export Plug-In . SVG Version: 6.00 Build 0)  -->
<!DOCTYPE svg PUBLIC "-//W3C//DTD SVG 1.1//EN" "http://www.w3.org/Graphics/SVG/1.1/DTD/svg11.dtd">
<svg version="1.1" id="Calque_1" xmlns="http://www.w3.org/2000/svg" xmlns:xlink="http://www.w3.org/1999/xlink" x="0px" y="0px"
	 viewBox="0 292.68 595.527 255.882" enable-background="new 0 292.68 595.527 255.882"
	 xml:space="preserve">
<g>
	<path d="M1.973,447.256l17.102-92.745h19.733l16.444,92.745H40.124l-2.631-20.391H20.391l-3.289,20.391H1.973z M22.364,412.394
		h12.498l-6.578-43.413L22.364,412.394z"/>
	<path d="M63.146,447.256V354.51h20.391l10.524,48.675c0.658,1.973,0.658,4.604,1.316,7.893c0.658,3.289,0.658,7.893,1.316,12.498
		c0-4.604,0-8.551,0.658-12.498c0-3.947,0.658-6.578,1.316-8.551l10.524-48.675h20.391v92.745h-14.471v-59.857
		c0-0.658,0-2.631,0-5.92c0-3.289,0.658-7.893,0.658-13.813c-0.658,1.973-0.658,4.604-1.316,7.235
		c-0.658,2.631-1.316,6.578-1.973,11.84l-12.498,60.515h-7.893L79.59,386.083c-1.316-5.262-1.973-9.209-1.973-11.84
		c-0.658-2.631-1.316-5.262-1.316-7.235c0.658,5.92,0.658,10.524,0.658,13.813c0,3.289,0,5.262,0,5.92v59.857H63.146V447.256z"/>
	<path d="M140.105,447.256V354.51h14.471l17.76,49.333c0.658,1.973,1.316,4.604,1.973,7.235c0.658,2.631,1.316,5.92,1.973,9.209
		h0.658c-0.658-3.947-1.316-7.235-1.316-10.524c-0.658-3.289-0.658-5.92-0.658-7.893V354.51h13.813v92.745h-13.155l-19.075-53.279
		c-1.316-2.631-1.973-5.262-2.631-7.893c-0.658-2.631-1.316-5.262-1.973-7.893h-0.658c0.658,3.289,1.316,6.578,1.316,9.867
		c0.658,3.289,0.658,7.235,0.658,10.524v48.675H140.105z"/>
	<path d="M199.961,447.256V354.51h42.755v14.471h-26.968v23.022h20.391v14.471h-20.391v25.653h28.942v14.471h-44.728V447.256z"/>
	<path d="M249.952,422.918l14.471-1.973c0.658,4.604,1.973,8.551,3.947,10.524c1.973,2.631,3.947,3.289,6.578,3.289
		s5.262-0.658,6.578-2.631c1.316-1.973,2.631-3.947,2.631-6.578c0-5.262-5.262-12.498-16.444-22.364
		c-1.973-1.316-3.289-2.631-3.947-3.289c-3.947-3.289-6.578-7.235-8.551-11.182c-1.973-3.947-3.289-8.551-3.289-12.498
		c0-6.578,1.973-11.84,6.578-16.444c4.604-3.947,9.867-6.578,16.444-6.578c6.578,0,11.182,1.973,15.129,5.92
		c3.947,3.947,6.578,9.209,7.235,16.444l-13.813,1.973c-0.658-3.947-1.316-6.578-3.289-8.551c-1.316-1.973-3.289-2.631-5.92-2.631
		c-2.631,0-4.604,0.658-5.92,2.631c-1.316,1.973-1.973,3.947-1.973,6.578s0.658,4.604,1.973,7.235
		c1.316,1.973,4.604,5.262,9.209,9.867c0.658,0.658,1.973,1.316,3.289,2.631c11.84,11.182,18.418,21.049,18.418,30.257
		c0,7.235-1.973,12.498-6.578,17.102c-4.604,4.604-9.867,6.578-17.102,6.578s-12.498-1.973-17.102-6.578
		C253.898,437.389,251.267,430.812,249.952,422.918z"/>
	<path d="M319.675,447.256v-78.932h-15.129V354.51h46.044v13.813h-15.129v78.932H319.675z"/>
	<path d="M379.532,447.256v-38.151l-17.76-54.595h15.129l8.551,28.942c0.658,1.316,0.658,3.289,1.316,5.262
		c0.658,1.973,0.658,4.604,0.658,7.235c0-3.289,0.658-5.92,0.658-7.893c0-1.973,0.658-3.947,1.316-5.262l8.551-28.942h15.129
		l-18.417,53.937v38.151h-15.129V447.256z"/>
</g>
<g>
	<path d="M0,528.819v-55.91h9.209v55.91H0z"/>
	<path d="M19.075,528.819v-55.91h8.551l10.524,29.6c0.658,1.316,1.316,3.289,1.316,4.604c0.658,1.973,0.658,3.289,1.316,5.92l0,0
		c-0.658-2.631-0.658-4.604-0.658-6.578s0-3.289,0-4.604v-28.284h7.893v55.91h-7.893l-11.182-32.888
		c-0.658-1.973-1.316-3.289-1.316-4.604c-0.658-1.973-1.316-3.289-1.316-5.262l0,0c0.658,1.973,0.658,3.947,0.658,5.92
		c0,1.973,0,3.947,0,6.578v29.6H19.075z"/>
	<path d="M63.146,528.819V481.46h-9.209v-8.551h27.626v8.551h-9.209v47.359H63.146z"/>
	<path d="M87.483,528.819v-55.91h25.653v8.551H96.692v13.813h12.498v8.551H96.692v15.786h17.102v8.551H87.483V528.819z"/>
	<path d="M151.287,528.819h-9.209l-6.578-23.022c-0.658,0-1.316,0-1.973,0c-0.658,0-1.316,0-1.973,0h-1.316v23.022h-9.209v-55.91
		h12.498c3.289,0,6.578,0,7.893,0.658c1.973,0.658,3.289,1.316,4.604,1.973c1.973,1.316,3.289,3.289,3.947,5.262
		c0.658,2.631,1.316,5.262,1.316,7.893c0,3.289-0.658,6.578-1.973,8.551c-1.316,2.631-3.289,4.604-5.92,5.92L151.287,528.819z
		 M130.238,497.904h0.658c0,0,0.658,0,1.316,0c3.289,0,5.92-0.658,7.235-1.973c1.316-1.316,1.973-3.947,1.973-7.235
		c0-3.289-0.658-5.262-1.973-6.578s-3.947-1.973-6.578-1.973c-0.658,0-1.316,0-2.631,0l0,0V497.904L130.238,497.904z"/>
	<path d="M159.18,528.819v-55.91h8.551l10.524,29.6c0.658,1.316,0.658,2.631,1.316,4.604c0.658,1.973,0.658,3.289,1.316,5.92l0,0
		c-0.658-2.631-0.658-4.604-0.658-6.578s0-3.289,0-4.604v-28.284h7.893v55.91h-7.893l-11.182-32.888
		c-0.658-1.973-1.316-3.289-1.316-4.604c-0.658-1.316-0.658-3.289-1.316-4.604l0,0c0.658,1.973,0.658,3.947,0.658,5.92
		s0,3.947,0,6.578v29.6h-7.893V528.819z"/>
	<path d="M194.042,528.819l9.867-55.91h11.84l9.867,55.91h-8.551l-1.316-11.84h-10.524l-1.973,11.84H194.042z M206.539,507.77h7.235
		l-3.947-25.653L206.539,507.77z"/>
	<path d="M234.823,528.819V481.46h-9.209v-8.551h27.626v8.551h-9.209v47.359H234.823z"/>
	<path d="M259.161,528.819v-55.91h9.209v55.91H259.161z"/>
	<path d="M276.263,501.193c0-9.209,1.316-16.444,3.947-21.706c2.631-4.604,6.578-7.235,12.498-7.235
		c5.262,0,9.209,2.631,12.498,7.235c2.631,4.604,3.947,11.84,3.947,21.706c0,9.867-1.316,17.102-3.947,21.706
		c-2.631,4.604-6.578,7.235-12.498,7.235c-5.262,0-9.209-2.631-12.498-7.235C277.578,517.637,276.263,510.401,276.263,501.193z
		 M285.471,501.193c0,7.235,0.658,12.498,1.973,15.786c1.316,3.289,2.631,5.262,5.262,5.262c2.631,0,3.947-1.973,5.262-5.262
		c1.316-3.289,1.973-8.551,1.973-15.786s-0.658-12.498-1.973-15.786s-2.631-5.262-5.262-5.262s-3.947,1.973-5.262,5.262
		C286.129,488.695,285.471,493.957,285.471,501.193z"/>
	<path d="M316.386,528.819v-55.91h8.551l10.524,29.6c0.658,1.316,0.658,2.631,1.316,4.604c0.658,1.973,0.658,3.289,1.316,5.92l0,0
		c-0.658-2.631-0.658-4.604-0.658-6.578s0-3.289,0-4.604v-28.284h7.893v55.91h-7.893l-11.182-32.888
		c-0.658-1.973-1.316-3.289-1.316-4.604c-0.658-1.316-0.658-3.289-1.316-4.604l0,0c0.658,1.973,0.658,3.947,0.658,5.92
		s0,3.947,0,6.578v29.6h-7.893V528.819z"/>
	<path d="M351.248,528.819l9.867-55.91h11.84l9.867,55.91h-9.209l-1.316-11.84h-10.524l-1.973,11.84H351.248z M363.088,507.77h7.235
		l-3.947-25.653L363.088,507.77z"/>
	<path d="M388.083,528.819v-55.91h9.209v46.702h17.102v8.551h-26.311V528.819z"/>
</g>
<path d="M545.29,515.006C545.29,515.664,545.29,515.664,545.29,515.006c1.316,0.658,3.289,0.658,3.947-1.315l2.631-5.262
	l3.947,3.289c1.315,1.316,3.289,1.316,3.947,0c1.316-1.316,1.316-3.289,0-3.947l-1.973-1.316c9.867-2.631,16.444-4.604,20.391-5.92
	l0,2.631c-0.658,1.316,0,3.289,1.973,3.947c1.315,0.658,3.289,0,3.947-1.973l1.973-5.262l3.947,3.289
	c1.315,0.658,3.289,0.658,3.947-0.658c0.658-1.316,0.658-3.289-0.658-3.947l-5.262-3.947l2.631-6.578
	c0.658-1.316,0-3.289-1.973-3.947c-1.316-0.658-3.289,0-3.947,1.973l-1.973,3.947l-3.947-2.631
	c-1.316-0.658-3.289-0.658-3.947,0.658c-0.658,1.316-0.658,3.289,0.658,3.947l2.631,1.973c-3.947,1.316-11.182,3.947-21.706,6.578
	l1.973-3.947c0.658-1.316,0-3.289-1.316-3.947c-1.315-0.658-3.289,0-3.947,1.316l-2.631,4.604l-3.289-1.973
	c-0.658-0.658-0.658-0.658-1.315-0.658c0-13.155,0.658-27.626,0.658-41.439c1.973,0,3.289-0.658,4.604-0.658l-1.315,3.289
	c-0.658,1.316,0,3.289,1.315,3.947c1.316,0.658,3.289,0,3.947-1.316l2.631-5.262l3.947,3.289c1.316,1.316,3.289,0.658,3.947,0
	c1.316-1.316,0.658-3.289,0-3.947l-2.631-3.289c5.262-1.316,9.209-2.631,12.498-3.947c6.578-3.289,10.524-7.235,11.182-11.84
	c0-0.658,0-0.658,0-1.316l4.604,1.316c1.316,0.658,3.289,0,3.947-1.973c0.658-1.316,0-3.289-1.973-3.947l-5.262-1.973l2.631-3.947
	c0.658-1.316,0.658-3.289-0.658-3.947c-1.315-0.658-3.289-0.658-3.947,0.658l-2.631,3.947c-2.631-3.289-6.578-5.92-9.867-8.551l0,0
	c-2.631-1.973-5.92-3.947-9.209-5.92l3.289-2.631c1.316-0.658,1.316-2.631,0.658-3.947c-0.658-1.316-2.631-1.316-3.947-0.658
	l-5.262,4.604l-1.315-4.604c-0.658-1.316-1.973-1.973-3.947-1.973c-1.315,0.658-1.973,1.973-1.973,3.947l0.658,1.316
	c-0.658,0-1.316-0.658-2.631-0.658c1.973-7.235,3.947-15.786,2.631-19.733c-1.316-3.289-7.893-3.947-7.893-3.947h-5.262h-19.733
	c-2.631-4.604-1.315-5.262,0.658-10.524c2.631-5.92,5.92-8.551,14.471-17.76c1.315-1.316,12.498-15.786,12.498-15.786
	c2.631-4.604,4.604-8.551,4.604-13.155c0-19.733-19.075-30.915-19.075-30.915s0,4.604-1.973,10.524
	c-1.973,5.262-13.155,10.524-22.364,14.471c-8.551,3.289-23.68,4.604-28.284,30.257c3.947,28.284,25.653,26.311,27.626,28.284
	c1.316,1.316,0.658,3.289,0,4.604h-25.653v21.049c-11.84,2.631-22.364,5.92-30.915,9.209l0.658-2.631
	c0.658-1.316-0.658-3.289-1.973-3.947c-1.315-0.658-3.289,0.658-3.947,1.973l-1.316,5.262l-3.947-2.631
	c-1.316-0.658-3.289-0.658-3.947,0.658c-0.658,1.316-0.658,3.289,0.658,3.947l1.973,1.316c-3.947,1.973-6.578,3.289-7.235,3.289
	c-1.316,0.658-1.973,2.631-1.316,3.947c0.658,1.316,2.631,1.973,3.947,1.316c0,0,2.631-1.316,5.92-3.289l-1.316,3.289
	c-0.658,1.316,0.658,3.289,1.973,3.947c1.316,0.658,3.289-0.658,3.947-1.973l1.973-5.262l4.604,2.631
	c1.315,0.658,3.289,0.658,3.947-0.658c0.658-1.316,0.658-3.289-0.658-3.947l-2.631-0.658c7.893-3.289,18.418-6.578,29.6-9.209
	v48.017l-11.182,1.316l1.316-2.631c0.658-1.316,0-3.289-1.316-3.947c-1.316-0.658-3.289,0-3.947,1.316l-1.973,4.604l-3.289-3.289
	c-1.315-1.316-3.289-1.316-3.947,0c-1.316,1.316-1.316,3.289,0,3.947l1.973,1.316c-12.498,3.289-20.391,9.209-21.706,16.444
	c-0.658,3.289,0.658,7.235,4.604,11.84l-5.262,1.316c-1.316,0.658-2.631,1.973-1.973,3.289s1.973,2.631,3.289,1.973l5.262-1.316
	v5.262c0,1.316,1.316,3.289,2.631,3.289c1.315,0,3.289-1.316,3.289-2.631v-4.604c3.289,1.973,6.578,3.947,11.182,5.92
	c2.631,1.316,5.92,1.973,9.867,3.289l-3.947,3.289c-1.316,1.316-1.316,2.631-0.658,3.947c1.316,1.316,2.631,1.316,3.947,0.658
	l4.604-3.947l1.973,4.604c0.658,1.316,2.631,1.973,3.947,1.316c0,0,0,0,0.658-0.658v21.706l63.146,14.471
	C545.29,549.21,545.29,516.979,545.29,515.006z M548.579,411.078c1.315,0.658,1.973,0.658,3.289,1.316l-3.289,2.631
	C547.921,413.71,548.579,412.394,548.579,411.078z M547.921,418.972c1.315,0.658,2.631,1.316,3.947,0l4.604-3.289l1.973,4.604
	c0.658,1.316,1.973,1.973,3.947,1.973c1.315-0.658,1.973-1.973,1.973-3.947l-1.316-0.658c2.631,1.316,4.604,2.631,6.578,3.947h0.658
	c1.315,0.658,1.973,1.316,3.289,1.973c-0.658,0.658-1.315,0.658-1.315,1.973c-0.658,1.316,0,3.289,1.973,3.947l4.604,1.316
	l-2.631,3.947c-0.658,1.316-0.658,3.289,0.658,3.947c0,0,0,0,0.658,0c-1.315,0.658-2.631,1.316-3.947,1.973
	c-2.631,1.316-6.578,2.631-11.182,3.289l1.315-3.289c0.658-1.316,0-3.289-1.315-3.947c-1.316-0.658-3.289,0-3.947,1.316
	l-2.631,5.262l-3.289-1.973c-1.316-1.316-3.289-0.658-3.947,0c-1.316,1.316-0.658,3.289,0,3.947l1.973,1.973
	c-1.316,0-2.631,0.658-3.289,0.658C547.263,437.389,547.263,427.523,547.921,418.972z M482.144,493.957L482.144,493.957
	l-4.604,3.947l-1.973-3.947c-0.658-1.316-2.631-1.973-3.947-1.316c-1.316,0.658-1.973,2.631-1.316,3.947l0.658,1.316
	c-2.631-0.658-5.262-1.973-7.235-2.631c-3.289-1.316-5.92-2.631-7.893-3.947l1.315-0.658c1.316-0.658,2.631-1.973,1.973-3.289
	c-0.658-1.316-1.973-2.631-3.289-1.973l-5.262,1.316v-4.604c0-1.316-1.316-2.631-2.631-3.289c-1.316,0-2.631,1.316-3.289,2.631
	v0.658c-1.316-1.973-1.316-3.289-1.316-4.604c0.658-4.604,7.235-8.551,17.102-11.84l-1.973,3.289c-0.658,1.316,0,3.289,1.316,3.947
	s3.289,0,3.947-1.316l2.631-5.262l3.947,3.289c1.316,1.316,3.289,1.316,3.947,0c1.316-1.316,1.316-3.289,0-3.947l-3.289-1.973h0.658
	l10.524-1.316L482.144,493.957L482.144,493.957z M501.219,350.564c0-0.658,1.973-6.578,1.973-7.235l3.947-5.92
	c3.289-3.289,7.235-6.578,11.182-9.867c7.235-6.578,18.418-19.075,18.418-19.075s6.578,8.551-4.604,26.311
	c-0.658,0.658-3.289,5.92-3.947,6.578l-5.92,7.235c-2.631,3.289-3.289,3.947-5.262,8.551c-2.631,7.235-5.262,16.444-5.262,16.444
	S501.219,365.692,501.219,350.564z M534.108,533.423c-1.973-0.658-40.124-9.867-40.782-9.867c0-1.316,0-46.702,0-61.83
	c2.631,0,5.92-0.658,8.551-0.658l-1.973,2.631c-0.658,1.316-0.658,3.289,0.658,3.947c1.316,0.658,3.289,0.658,3.947-0.658
	l3.289-4.604l3.289,3.947c1.316,1.316,2.631,1.316,3.947,0.658c1.315-1.316,1.315-2.631,0.658-3.947l-2.631-2.631
	c6.578-0.658,13.813-1.973,20.391-2.631C534.108,472.909,534.108,532.766,534.108,533.423z M534.108,450.545
	c-5.92,0.658-12.498,1.973-19.075,2.631l1.315-1.973c0.658-1.316,0.658-3.289-0.658-3.947c-1.315-0.658-3.289-0.658-3.947,0.658
	l-3.289,4.604l-2.631-3.289c-1.315-1.316-2.631-1.316-3.947-0.658c-1.973,0-1.973,1.973-1.316,3.289l1.973,2.631
	c-3.289,0.658-5.92,0.658-9.209,1.316c0-18.417,0-61.83,0-63.146c7.893,0,32.888,0,40.782,0
	C534.108,393.319,534.108,434.1,534.108,450.545z"/>
</svg>
