<?xml version="1.0" encoding="utf-8"?>
<!-- Generator: Adobe Illustrator 17.0.0, SVG Export Plug-In . SVG Version: 6.00 Build 0)  -->
<!DOCTYPE svg PUBLIC "-//W3C//DTD SVG 1.1//EN" "http://www.w3.org/Graphics/SVG/1.1/DTD/svg11.dtd">
<svg version="1.1" id="Calque_1" xmlns="http://www.w3.org/2000/svg" xmlns:xlink="http://www.w3.org/1999/xlink" x="0px" y="0px"
	 width="110.045px" height="37.869px" viewBox="0 0 110.045 37.869" enable-background="new 0 0 110.045 37.869"
	 xml:space="preserve">
<path fill-rule="evenodd" clip-rule="evenodd" fill="#FFFFFF" d="M55.923,0.141c0.571,0,1.041,0.204,1.407,0.609
	c0.366,0.406,0.55,0.939,0.55,1.6v12.21c-0.843-0.008-1.687-0.016-2.531-0.021c-0.47,0.002-0.94,0.007-1.41,0.011V2.35
	c0-0.66,0.183-1.194,0.549-1.6C54.855,0.345,55.333,0.141,55.923,0.141z M14.668,2.35v14.772c-1.316,0.177-2.625,0.363-3.931,0.554
	c-0.002-0.05-0.011-0.096-0.011-0.148v-5.663c0-0.113-0.057-0.17-0.17-0.17H4.282c-0.113,0-0.17,0.057-0.17,0.17v5.663
	c0,0.467-0.099,0.867-0.286,1.206c-0.607,0.097-1.216,0.193-1.82,0.29c-0.396,0.073-0.787,0.148-1.182,0.222
	c-0.038-0.036-0.081-0.065-0.117-0.105c-0.358-0.396-0.536-0.934-0.536-1.613V2.35c0-0.68,0.183-1.218,0.549-1.614
	c0.366-0.397,0.845-0.595,1.435-0.595c0.572,0,1.041,0.204,1.408,0.611c0.366,0.408,0.55,0.944,0.55,1.605v5.485
	c0,0.114,0.057,0.171,0.17,0.171h6.276c0.113,0,0.17-0.057,0.17-0.171V2.357c0-0.662,0.183-1.198,0.549-1.605
	c0.366-0.407,0.836-0.611,1.408-0.611c0.589,0,1.067,0.198,1.434,0.595C14.485,1.132,14.668,1.67,14.668,2.35z M32.233,4.672
	c0.338,1.151,0.507,2.906,0.507,5.266c0,2.36-0.169,4.116-0.507,5.267c-0.014,0.045-0.031,0.088-0.045,0.132
	c-1.325,0.099-2.647,0.205-3.964,0.327c-0.32,0.024-0.639,0.055-0.959,0.08c0.568-0.347,0.98-0.89,1.224-1.645
	c0.207-0.642,0.311-2.029,0.311-4.162c0-2.134-0.104-3.52-0.311-4.163c-0.452-1.397-1.461-2.095-3.025-2.095
	c-1.565,0-2.573,0.698-3.025,2.095c-0.208,0.642-0.311,2.029-0.311,4.163c0,2.133,0.104,3.52,0.311,4.162
	c0.32,0.989,0.924,1.62,1.801,1.909c-1.672,0.16-3.336,0.34-4.994,0.536c-0.218-0.411-0.404-0.855-0.551-1.341
	c-0.339-1.151-0.508-2.907-0.508-5.267c0-2.36,0.169-4.116,0.508-5.266c0.463-1.53,1.278-2.691,2.445-3.483
	C22.307,0.397,23.749,0,25.464,0c1.715,0,3.156,0.397,4.323,1.189C30.954,1.982,31.77,3.142,32.233,4.672z M44.775,14.706
	l-1.281-2.474h-3.001c-0.12,0-0.18,0.057-0.18,0.17v2.467c-1.316,0.056-2.629,0.122-3.941,0.197V2.075
	c0-0.569,0.155-1.019,0.466-1.351c0.311-0.333,0.741-0.498,1.29-0.498h5.926c1.902,0,3.438,0.554,4.61,1.66
	c1.17,1.107,1.756,2.551,1.756,4.328c0,1.188-0.246,2.241-0.737,3.162c-0.491,0.919-1.178,1.627-2.06,2.124l1.702,3.103
	C47.808,14.629,46.291,14.662,44.775,14.706z M45.772,4.54c-0.472-0.423-1.103-0.634-1.895-0.634h-3.393
	c-0.114,0-0.17,0.056-0.17,0.165v4.314c0,0.11,0.056,0.165,0.17,0.165h3.393c0.792,0,1.423-0.21,1.895-0.631
	c0.472-0.421,0.707-0.98,0.707-1.677C46.478,5.529,46.243,4.96,45.772,4.54z M73.777,0.902c0.375,0.375,0.563,0.843,0.563,1.405
	c0,0.433-0.08,0.845-0.239,1.232c-0.159,0.387-0.483,0.939-0.971,1.656l-6.421,9.535c-1.525-0.046-3.052-0.085-4.582-0.113
	c0.021-0.031,0.039-0.059,0.061-0.091l7.036-10.449V4.021h-6.081c-0.601,0-1.079-0.169-1.436-0.506
	c-0.356-0.338-0.535-0.778-0.535-1.321c0-0.543,0.178-0.987,0.535-1.334c0.356-0.347,0.835-0.52,1.436-0.52h9.024
	C72.865,0.339,73.401,0.527,73.777,0.902z M91.154,9.939c0,2.36-0.17,4.116-0.508,5.267c-0.13,0.428-0.29,0.824-0.475,1.195
	c-1.592-0.178-3.19-0.343-4.794-0.489c0.73-0.325,1.24-0.927,1.525-1.81c0.207-0.642,0.311-2.029,0.311-4.162
	c0-2.134-0.104-3.52-0.311-4.163c-0.452-1.397-1.461-2.095-3.025-2.095c-1.565,0-2.573,0.698-3.025,2.095
	c-0.207,0.642-0.311,2.029-0.311,4.163c0,2.133,0.104,3.52,0.311,4.162c0.214,0.662,0.558,1.162,1.021,1.51
	c-1.582-0.145-3.168-0.27-4.757-0.379c-0.003-0.009-0.006-0.017-0.009-0.026c-0.339-1.151-0.508-2.907-0.508-5.267
	c0-2.36,0.169-4.116,0.508-5.266c0.463-1.53,1.279-2.691,2.446-3.483C80.721,0.397,82.162,0,83.877,0
	c1.715,0,3.156,0.397,4.323,1.189c1.167,0.792,1.982,1.953,2.446,3.483C90.985,5.823,91.154,7.578,91.154,9.939z M105.04,18.437
	c-0.181-0.219-0.358-0.459-0.527-0.734L98.726,7.321v10.168c-1.308-0.185-2.623-0.362-3.941-0.532V2.633
	c0-0.755,0.215-1.359,0.647-1.812c0.431-0.453,1.02-0.68,1.764-0.68c1.004,0,1.872,0.683,2.608,2.05l5.855,10.505h0.274V2.153
	c0-0.623,0.181-1.114,0.544-1.473c0.362-0.359,0.837-0.539,1.426-0.539c0.588,0,1.063,0.18,1.426,0.538
	c0.363,0.36,0.544,0.85,0.544,1.473v15.092c0,0.755-0.216,1.36-0.647,1.813c-0.02,0.021-0.045,0.036-0.066,0.056
	c-0.148-0.027-0.294-0.055-0.442-0.083C107.499,18.829,106.272,18.632,105.04,18.437z"/>
<g>
	<path fill="#FFFFFF" d="M2.981,28.033c0.417,0,0.787,0.041,1.109,0.122c0.322,0.082,0.585,0.171,0.79,0.271v0.711
		C4.64,29.03,4.347,28.934,4,28.845c-0.347-0.088-0.689-0.132-1.029-0.132c-0.502,0-0.888,0.117-1.156,0.35
		c-0.269,0.233-0.403,0.53-0.403,0.891c0,0.269,0.081,0.502,0.244,0.7c0.163,0.198,0.431,0.368,0.806,0.509l1.104,0.414
		c1.075,0.41,1.613,1.089,1.613,2.037c0,0.304-0.053,0.582-0.159,0.833c-0.106,0.251-0.271,0.467-0.493,0.647
		c-0.223,0.18-0.504,0.322-0.844,0.424s-0.743,0.154-1.209,0.154c-0.396,0-0.743-0.039-1.04-0.117
		c-0.297-0.078-0.569-0.17-0.817-0.276v-0.711c0.248,0.113,0.541,0.212,0.881,0.297c0.339,0.084,0.675,0.127,1.008,0.127
		c0.601,0,1.07-0.117,1.406-0.35s0.504-0.541,0.504-0.923c0-0.34-0.104-0.624-0.313-0.854s-0.561-0.437-1.056-0.621l-0.934-0.35
		c-0.523-0.198-0.898-0.452-1.125-0.764c-0.227-0.311-0.34-0.668-0.34-1.072c0-0.262,0.041-0.515,0.122-0.758
		c0.082-0.244,0.212-0.46,0.393-0.647c0.181-0.188,0.421-0.337,0.722-0.451C2.184,28.09,2.55,28.033,2.981,28.033z"/>
	<path fill="#FFFFFF" d="M11.586,32.85c0,0.424-0.051,0.81-0.154,1.157c-0.103,0.346-0.253,0.644-0.451,0.891
		c-0.198,0.248-0.44,0.438-0.727,0.573c-0.287,0.134-0.617,0.202-0.992,0.202c-0.368,0-0.697-0.067-0.987-0.202
		s-0.534-0.325-0.732-0.573c-0.198-0.248-0.349-0.545-0.451-0.891C6.99,33.66,6.938,33.275,6.938,32.85s0.051-0.81,0.154-1.156
		c0.103-0.347,0.253-0.644,0.451-0.892c0.198-0.248,0.442-0.438,0.732-0.573s0.619-0.202,0.987-0.202
		c0.375,0,0.706,0.067,0.992,0.202c0.286,0.134,0.529,0.325,0.727,0.573c0.198,0.248,0.349,0.545,0.451,0.892
		C11.535,32.04,11.586,32.426,11.586,32.85z M10.854,32.85c0-0.325-0.03-0.621-0.09-0.886c-0.06-0.266-0.154-0.494-0.281-0.685
		s-0.292-0.339-0.493-0.446c-0.202-0.106-0.444-0.159-0.727-0.159s-0.525,0.053-0.727,0.159c-0.202,0.106-0.366,0.255-0.494,0.446
		s-0.221,0.419-0.281,0.685c-0.06,0.265-0.09,0.561-0.09,0.886c0,0.326,0.03,0.621,0.09,0.886c0.06,0.266,0.154,0.494,0.281,0.685
		s0.292,0.339,0.494,0.446c0.201,0.106,0.444,0.159,0.727,0.159s0.525-0.053,0.727-0.159c0.201-0.106,0.366-0.255,0.493-0.446
		s0.221-0.419,0.281-0.685C10.824,33.471,10.854,33.176,10.854,32.85z"/>
	<path fill="#FFFFFF" d="M16.817,35.46c-0.227,0.085-0.432,0.142-0.616,0.17c-0.184,0.028-0.389,0.042-0.615,0.042
		c-0.368,0-0.695-0.065-0.981-0.196s-0.529-0.318-0.727-0.563c-0.198-0.244-0.35-0.541-0.457-0.891
		c-0.106-0.35-0.159-0.741-0.159-1.172c0-0.438,0.053-0.831,0.159-1.178c0.106-0.347,0.258-0.642,0.457-0.886
		c0.198-0.244,0.44-0.432,0.727-0.563s0.614-0.196,0.981-0.196c0.227,0,0.432,0.014,0.615,0.042c0.184,0.028,0.389,0.085,0.616,0.17
		v0.679c-0.227-0.085-0.424-0.146-0.594-0.186c-0.17-0.039-0.382-0.058-0.637-0.058c-0.283,0-0.525,0.053-0.727,0.159
		c-0.202,0.106-0.366,0.255-0.494,0.446s-0.221,0.419-0.281,0.685c-0.06,0.265-0.09,0.561-0.09,0.886c0,0.326,0.03,0.621,0.09,0.886
		c0.06,0.266,0.154,0.494,0.281,0.685s0.292,0.339,0.494,0.446c0.201,0.106,0.444,0.159,0.727,0.159c0.255,0,0.467-0.02,0.637-0.059
		c0.17-0.039,0.368-0.101,0.594-0.186V35.46z"/>
	<path fill="#FFFFFF" d="M18.514,28.532c0-0.163,0.056-0.3,0.169-0.414s0.251-0.17,0.414-0.17c0.163,0,0.3,0.057,0.414,0.17
		s0.17,0.251,0.17,0.414c0,0.163-0.057,0.301-0.17,0.414s-0.251,0.169-0.414,0.169c-0.163,0-0.301-0.056-0.414-0.169
		S18.514,28.695,18.514,28.532z M18.748,30.145h0.711v5.411h-0.711V30.145z"/>
	<path fill="#FFFFFF" d="M25.559,35.556h-0.626c-0.021-0.106-0.037-0.21-0.048-0.313c-0.01-0.103-0.016-0.217-0.016-0.345
		c-0.304,0.325-0.607,0.532-0.907,0.621c-0.301,0.088-0.61,0.133-0.928,0.133c-0.22,0-0.423-0.036-0.61-0.106
		c-0.188-0.07-0.35-0.171-0.488-0.302c-0.138-0.131-0.246-0.285-0.324-0.461c-0.078-0.177-0.117-0.372-0.117-0.583
		c0-0.177,0.023-0.352,0.069-0.525s0.127-0.338,0.244-0.493c0.117-0.156,0.276-0.297,0.478-0.425
		c0.202-0.127,0.461-0.233,0.78-0.318l0.944-0.255c0.311-0.085,0.528-0.188,0.652-0.308c0.124-0.12,0.186-0.272,0.186-0.456
		c0-0.219-0.085-0.398-0.254-0.536c-0.17-0.138-0.453-0.207-0.849-0.207c-0.297,0-0.608,0.037-0.934,0.111s-0.615,0.161-0.87,0.26
		v-0.668c0.248-0.12,0.536-0.208,0.865-0.265c0.329-0.057,0.617-0.085,0.865-0.085c0.616,0,1.084,0.115,1.406,0.345
		c0.322,0.23,0.483,0.642,0.483,1.236V35.556z M24.848,32.468c-0.078,0.063-0.175,0.125-0.292,0.186s-0.25,0.111-0.398,0.154
		l-0.891,0.255c-0.241,0.071-0.43,0.15-0.568,0.239c-0.138,0.088-0.242,0.18-0.313,0.275c-0.071,0.096-0.115,0.193-0.133,0.292
		s-0.026,0.198-0.026,0.297c0,0.269,0.088,0.476,0.265,0.621s0.403,0.217,0.679,0.217c0.573,0,0.996-0.129,1.268-0.387
		c0.272-0.258,0.408-0.589,0.408-0.992V32.468z"/>
	<path fill="#FFFFFF" d="M27.83,27.874h0.711v6.048c0,0.36,0.035,0.612,0.106,0.753c0.071,0.142,0.233,0.212,0.488,0.212h0.191
		v0.668c-0.057,0.014-0.117,0.023-0.181,0.026c-0.063,0.003-0.124,0.005-0.18,0.005c-0.424,0-0.72-0.124-0.886-0.371
		c-0.166-0.248-0.249-0.679-0.249-1.294V27.874z"/>
	<path fill="#FFFFFF" d="M41.293,35.556h-0.732l-0.361-6.525c-0.142,0.305-0.304,0.672-0.488,1.104
		c-0.184,0.432-0.368,0.881-0.552,1.348c-0.184,0.467-0.361,0.934-0.531,1.4s-0.315,0.891-0.435,1.273h-0.849
		c-0.113-0.382-0.255-0.807-0.424-1.273c-0.17-0.467-0.349-0.934-0.536-1.4s-0.373-0.916-0.557-1.348
		c-0.184-0.431-0.347-0.799-0.488-1.104l-0.361,6.525h-0.732l0.403-7.406h1.008c0.17,0.283,0.352,0.642,0.546,1.077
		c0.194,0.435,0.387,0.89,0.578,1.364c0.191,0.474,0.373,0.942,0.546,1.406c0.173,0.463,0.32,0.868,0.44,1.215
		c0.12-0.347,0.267-0.751,0.44-1.215c0.173-0.463,0.355-0.932,0.546-1.406c0.191-0.474,0.384-0.929,0.578-1.364
		c0.194-0.435,0.377-0.793,0.546-1.077h1.008L41.293,35.556z"/>
	<path fill="#FFFFFF" d="M44.7,33.402c-0.375,0.092-0.563,0.297-0.563,0.615c0,0.078,0.026,0.175,0.08,0.292
		s0.134,0.228,0.244,0.334c0.109,0.106,0.253,0.196,0.43,0.271s0.389,0.112,0.637,0.112c0.354,0,0.691-0.044,1.013-0.133
		c0.322-0.088,0.621-0.203,0.896-0.345v0.679c-0.255,0.142-0.538,0.251-0.849,0.329c-0.311,0.078-0.665,0.117-1.061,0.117
		c-0.389,0-0.729-0.067-1.019-0.202c-0.291-0.134-0.534-0.325-0.732-0.573s-0.347-0.545-0.445-0.891
		c-0.099-0.347-0.149-0.732-0.149-1.157c0-0.417,0.062-0.799,0.186-1.146c0.124-0.346,0.295-0.644,0.515-0.891
		c0.219-0.248,0.477-0.44,0.774-0.578c0.297-0.138,0.619-0.207,0.965-0.207c0.333,0,0.615,0.037,0.849,0.111
		c0.234,0.074,0.425,0.179,0.573,0.313c0.148,0.135,0.258,0.292,0.329,0.472c0.071,0.181,0.106,0.377,0.106,0.589
		c0,0.446-0.136,0.791-0.409,1.035s-0.67,0.43-1.193,0.557L44.7,33.402z M43.915,33.094c0.155-0.148,0.364-0.255,0.626-0.318
		l1.104-0.297c0.36-0.099,0.629-0.218,0.806-0.355c0.177-0.138,0.265-0.32,0.265-0.546c0-0.29-0.088-0.513-0.265-0.668
		c-0.177-0.156-0.453-0.233-0.828-0.233c-0.523,0-0.939,0.207-1.247,0.621c-0.308,0.414-0.461,0.978-0.461,1.692V33.094z"/>
	<path fill="#FFFFFF" d="M53.622,35.556h-0.626c-0.042-0.212-0.063-0.453-0.063-0.722c-0.17,0.269-0.371,0.476-0.604,0.621
		c-0.234,0.145-0.548,0.217-0.944,0.217c-0.375,0-0.699-0.067-0.971-0.202c-0.272-0.134-0.497-0.325-0.673-0.573
		c-0.177-0.248-0.308-0.545-0.393-0.891c-0.085-0.347-0.127-0.732-0.127-1.157s0.041-0.81,0.122-1.156
		c0.081-0.347,0.21-0.644,0.387-0.892c0.177-0.248,0.401-0.438,0.674-0.573c0.272-0.134,0.599-0.202,0.981-0.202
		c0.396,0,0.718,0.083,0.965,0.25c0.248,0.166,0.435,0.387,0.563,0.663v-3.066h0.71V35.556z M52.912,32.845
		c0-0.319-0.025-0.61-0.074-0.872c-0.05-0.262-0.131-0.487-0.244-0.675c-0.113-0.188-0.265-0.333-0.457-0.436
		c-0.191-0.103-0.428-0.154-0.71-0.154c-0.283,0-0.52,0.051-0.711,0.154c-0.191,0.103-0.343,0.248-0.457,0.436
		s-0.193,0.413-0.239,0.675c-0.046,0.262-0.069,0.553-0.069,0.872c0,0.319,0.023,0.612,0.069,0.877
		c0.046,0.266,0.125,0.497,0.239,0.691s0.266,0.346,0.457,0.452s0.428,0.16,0.711,0.16c0.283,0,0.52-0.053,0.71-0.16
		c0.191-0.106,0.343-0.257,0.457-0.452c0.113-0.195,0.194-0.425,0.244-0.691C52.887,33.457,52.912,33.164,52.912,32.845z"/>
	<path fill="#FFFFFF" d="M55.745,28.532c0-0.163,0.056-0.3,0.169-0.414s0.251-0.17,0.414-0.17c0.163,0,0.3,0.057,0.414,0.17
		s0.17,0.251,0.17,0.414c0,0.163-0.057,0.301-0.17,0.414s-0.251,0.169-0.414,0.169c-0.163,0-0.301-0.056-0.414-0.169
		S55.745,28.695,55.745,28.532z M55.978,30.145h0.711v5.411h-0.711V30.145z"/>
	<path fill="#FFFFFF" d="M62.789,35.556h-0.626c-0.021-0.106-0.037-0.21-0.048-0.313c-0.01-0.103-0.016-0.217-0.016-0.345
		c-0.304,0.325-0.607,0.532-0.907,0.621c-0.301,0.088-0.61,0.133-0.928,0.133c-0.22,0-0.423-0.036-0.61-0.106
		c-0.188-0.07-0.35-0.171-0.488-0.302c-0.138-0.131-0.246-0.285-0.324-0.461c-0.078-0.177-0.117-0.372-0.117-0.583
		c0-0.177,0.023-0.352,0.069-0.525s0.127-0.338,0.244-0.493c0.117-0.156,0.276-0.297,0.478-0.425
		c0.202-0.127,0.461-0.233,0.78-0.318l0.944-0.255c0.311-0.085,0.528-0.188,0.652-0.308c0.124-0.12,0.186-0.272,0.186-0.456
		c0-0.219-0.085-0.398-0.254-0.536c-0.17-0.138-0.453-0.207-0.849-0.207c-0.297,0-0.608,0.037-0.934,0.111s-0.615,0.161-0.87,0.26
		v-0.668c0.248-0.12,0.536-0.208,0.865-0.265c0.329-0.057,0.617-0.085,0.865-0.085c0.616,0,1.084,0.115,1.406,0.345
		c0.322,0.23,0.483,0.642,0.483,1.236V35.556z M62.078,32.468c-0.078,0.063-0.175,0.125-0.292,0.186s-0.25,0.111-0.398,0.154
		l-0.891,0.255c-0.241,0.071-0.43,0.15-0.568,0.239c-0.138,0.088-0.242,0.18-0.313,0.275c-0.071,0.096-0.115,0.193-0.133,0.292
		s-0.026,0.198-0.026,0.297c0,0.269,0.088,0.476,0.265,0.621s0.403,0.217,0.679,0.217c0.573,0,0.996-0.129,1.268-0.387
		c0.272-0.258,0.408-0.589,0.408-0.992V32.468z"/>
	<path fill="#FFFFFF" d="M71.139,28.15c0.085,0.198,0.194,0.476,0.329,0.833c0.134,0.357,0.277,0.758,0.43,1.204
		c0.152,0.446,0.309,0.918,0.472,1.417c0.163,0.499,0.318,0.99,0.467,1.475c0.148,0.485,0.283,0.941,0.403,1.369
		c0.121,0.428,0.216,0.798,0.287,1.109H72.73c-0.078-0.333-0.166-0.675-0.265-1.029c-0.099-0.354-0.198-0.696-0.297-1.029h-3.077
		c-0.099,0.333-0.198,0.675-0.297,1.029c-0.099,0.354-0.188,0.697-0.265,1.029h-0.796c0.071-0.311,0.166-0.681,0.287-1.109
		c0.12-0.428,0.254-0.884,0.403-1.369c0.148-0.484,0.304-0.976,0.467-1.475c0.163-0.499,0.32-0.971,0.472-1.417
		c0.152-0.446,0.295-0.847,0.43-1.204c0.134-0.357,0.244-0.635,0.329-0.833H71.139z M70.609,28.829
		c-0.1,0.269-0.206,0.562-0.318,0.88c-0.113,0.318-0.227,0.649-0.34,0.992s-0.226,0.693-0.339,1.05
		c-0.113,0.357-0.219,0.713-0.318,1.066h2.674c-0.099-0.354-0.205-0.709-0.318-1.066c-0.113-0.357-0.227-0.707-0.339-1.05
		c-0.113-0.343-0.227-0.674-0.34-0.992s-0.219-0.612-0.318-0.88H70.609z"/>
	<path fill="#FFFFFF" d="M77.792,30.028c0.113,0,0.237,0.014,0.371,0.042s0.271,0.078,0.409,0.148
		c0.138,0.071,0.267,0.165,0.387,0.281s0.223,0.267,0.308,0.451c0.078,0.163,0.129,0.352,0.154,0.568s0.037,0.5,0.037,0.854v3.183
		h-0.711v-2.812c0-0.233-0.001-0.421-0.005-0.563c-0.004-0.142-0.011-0.256-0.021-0.345s-0.021-0.159-0.032-0.212
		c-0.011-0.053-0.026-0.111-0.048-0.175c-0.063-0.205-0.179-0.375-0.345-0.509c-0.167-0.134-0.391-0.202-0.674-0.202
		c-0.502,0-0.898,0.165-1.188,0.493c-0.29,0.329-0.435,0.858-0.435,1.586v2.737h-0.711v-5.411h0.626
		c0.021,0.106,0.037,0.251,0.048,0.435c0.01,0.184,0.016,0.339,0.016,0.467c0.148-0.297,0.372-0.541,0.668-0.732
		S77.325,30.028,77.792,30.028z"/>
	<path fill="#FFFFFF" d="M85.516,35.556H84.89c-0.021-0.106-0.037-0.21-0.048-0.313c-0.01-0.103-0.016-0.217-0.016-0.345
		c-0.304,0.325-0.607,0.532-0.907,0.621c-0.301,0.088-0.61,0.133-0.928,0.133c-0.22,0-0.423-0.036-0.61-0.106
		c-0.188-0.07-0.35-0.171-0.488-0.302c-0.138-0.131-0.246-0.285-0.324-0.461c-0.078-0.177-0.117-0.372-0.117-0.583
		c0-0.177,0.023-0.352,0.069-0.525s0.127-0.338,0.244-0.493c0.117-0.156,0.276-0.297,0.478-0.425
		c0.202-0.127,0.461-0.233,0.78-0.318l0.944-0.255c0.311-0.085,0.528-0.188,0.652-0.308c0.124-0.12,0.186-0.272,0.186-0.456
		c0-0.219-0.085-0.398-0.254-0.536c-0.17-0.138-0.453-0.207-0.849-0.207c-0.297,0-0.608,0.037-0.934,0.111s-0.615,0.161-0.87,0.26
		v-0.668c0.248-0.12,0.536-0.208,0.865-0.265c0.329-0.057,0.617-0.085,0.865-0.085c0.616,0,1.084,0.115,1.406,0.345
		c0.322,0.23,0.483,0.642,0.483,1.236V35.556z M84.805,32.468c-0.078,0.063-0.175,0.125-0.292,0.186s-0.25,0.111-0.398,0.154
		l-0.891,0.255c-0.241,0.071-0.43,0.15-0.568,0.239c-0.138,0.088-0.242,0.18-0.313,0.275c-0.071,0.096-0.115,0.193-0.133,0.292
		s-0.026,0.198-0.026,0.297c0,0.269,0.088,0.476,0.265,0.621s0.403,0.217,0.679,0.217c0.573,0,0.996-0.129,1.268-0.387
		c0.272-0.258,0.408-0.589,0.408-0.992V32.468z"/>
	<path fill="#FFFFFF" d="M87.786,27.874h0.711v6.048c0,0.36,0.035,0.612,0.106,0.753c0.071,0.142,0.233,0.212,0.488,0.212h0.191
		v0.668c-0.057,0.014-0.117,0.023-0.181,0.026c-0.063,0.003-0.124,0.005-0.18,0.005c-0.424,0-0.72-0.124-0.886-0.371
		c-0.166-0.248-0.249-0.679-0.249-1.294V27.874z"/>
	<path fill="#FFFFFF" d="M92.041,34.495c-0.063-0.142-0.154-0.359-0.271-0.652s-0.244-0.637-0.382-1.029
		c-0.138-0.393-0.278-0.819-0.419-1.278c-0.142-0.46-0.272-0.923-0.393-1.39h0.764c0.085,0.396,0.186,0.794,0.302,1.194
		c0.117,0.399,0.23,0.771,0.339,1.114c0.11,0.343,0.21,0.639,0.303,0.886c0.092,0.248,0.159,0.421,0.202,0.52
		c0.106,0.248,0.182,0.485,0.228,0.711c0.046,0.227,0.076,0.41,0.09,0.552c0.17-0.375,0.338-0.774,0.504-1.199
		c0.166-0.424,0.32-0.854,0.461-1.289c0.141-0.435,0.271-0.867,0.387-1.294c0.117-0.428,0.21-0.826,0.281-1.194h0.764
		c-0.184,0.806-0.437,1.667-0.758,2.583c-0.322,0.916-0.688,1.859-1.098,2.828c-0.106,0.248-0.221,0.502-0.345,0.764
		c-0.124,0.261-0.274,0.502-0.451,0.721s-0.38,0.398-0.61,0.536c-0.229,0.138-0.504,0.207-0.822,0.207
		c-0.12,0-0.249-0.007-0.387-0.021c-0.138-0.015-0.239-0.039-0.302-0.074v-0.732c0.057,0.036,0.148,0.074,0.276,0.117
		s0.265,0.064,0.414,0.064c0.156,0,0.308-0.039,0.457-0.117c0.148-0.078,0.279-0.181,0.393-0.308
		c0.113-0.127,0.205-0.274,0.276-0.44c0.07-0.167,0.106-0.338,0.106-0.515c0-0.233-0.036-0.463-0.106-0.69
		C92.171,34.841,92.104,34.651,92.041,34.495z"/>
	<path fill="#FFFFFF" d="M98.555,30.028c0.311,0,0.598,0.036,0.859,0.106c0.261,0.071,0.477,0.156,0.647,0.255v0.7
		c-0.163-0.092-0.386-0.188-0.668-0.287c-0.283-0.099-0.594-0.148-0.934-0.148c-0.325,0-0.578,0.071-0.759,0.212
		c-0.18,0.142-0.271,0.336-0.271,0.583c0,0.113,0.014,0.214,0.042,0.302s0.082,0.168,0.159,0.239
		c0.078,0.071,0.184,0.138,0.318,0.202c0.134,0.063,0.304,0.131,0.509,0.202l0.615,0.202c0.403,0.141,0.704,0.325,0.902,0.551
		c0.198,0.227,0.297,0.524,0.297,0.892c0,0.53-0.177,0.936-0.531,1.215s-0.874,0.419-1.56,0.419c-0.318,0-0.589-0.032-0.812-0.096
		c-0.223-0.063-0.451-0.148-0.685-0.254v-0.679c0.163,0.085,0.378,0.173,0.647,0.266c0.269,0.092,0.559,0.138,0.87,0.138
		c0.438,0,0.771-0.072,0.997-0.217c0.226-0.145,0.339-0.363,0.339-0.653c0-0.226-0.069-0.408-0.207-0.546
		c-0.138-0.138-0.395-0.271-0.77-0.398l-0.604-0.212c-0.389-0.142-0.697-0.32-0.923-0.536c-0.227-0.215-0.339-0.539-0.339-0.971
		c0-0.191,0.037-0.376,0.111-0.557c0.074-0.18,0.188-0.339,0.339-0.477c0.152-0.138,0.345-0.248,0.579-0.329
		C97.961,30.069,98.237,30.028,98.555,30.028z"/>
	<path fill="#FFFFFF" d="M102.184,28.532c0-0.163,0.056-0.3,0.169-0.414s0.251-0.17,0.414-0.17c0.163,0,0.3,0.057,0.414,0.17
		s0.17,0.251,0.17,0.414c0,0.163-0.057,0.301-0.17,0.414s-0.251,0.169-0.414,0.169c-0.163,0-0.301-0.056-0.414-0.169
		S102.184,28.695,102.184,28.532z M102.417,30.145h0.711v5.411h-0.711V30.145z"/>
	<path fill="#FFFFFF" d="M107.096,30.028c0.311,0,0.598,0.036,0.859,0.106c0.261,0.071,0.477,0.156,0.647,0.255v0.7
		c-0.163-0.092-0.386-0.188-0.668-0.287c-0.283-0.099-0.594-0.148-0.934-0.148c-0.325,0-0.578,0.071-0.759,0.212
		c-0.18,0.142-0.271,0.336-0.271,0.583c0,0.113,0.014,0.214,0.042,0.302s0.082,0.168,0.159,0.239
		c0.078,0.071,0.184,0.138,0.318,0.202c0.134,0.063,0.304,0.131,0.509,0.202l0.615,0.202c0.403,0.141,0.704,0.325,0.902,0.551
		c0.198,0.227,0.297,0.524,0.297,0.892c0,0.53-0.177,0.936-0.531,1.215s-0.874,0.419-1.56,0.419c-0.318,0-0.589-0.032-0.812-0.096
		c-0.223-0.063-0.451-0.148-0.685-0.254v-0.679c0.163,0.085,0.378,0.173,0.647,0.266c0.269,0.092,0.559,0.138,0.87,0.138
		c0.438,0,0.771-0.072,0.997-0.217c0.226-0.145,0.339-0.363,0.339-0.653c0-0.226-0.069-0.408-0.207-0.546
		c-0.138-0.138-0.395-0.271-0.77-0.398l-0.604-0.212c-0.389-0.142-0.697-0.32-0.923-0.536c-0.227-0.215-0.339-0.539-0.339-0.971
		c0-0.191,0.037-0.376,0.111-0.557c0.074-0.18,0.188-0.339,0.339-0.477c0.152-0.138,0.345-0.248,0.579-0.329
		C106.502,30.069,106.778,30.028,107.096,30.028z"/>
</g>
</svg>
