<?xml version="1.0" encoding="utf-8"?>
<!-- Generator: Adobe Illustrator 17.0.0, SVG Export Plug-In . SVG Version: 6.00 Build 0)  -->
<!DOCTYPE svg PUBLIC "-//W3C//DTD SVG 1.1//EN" "http://www.w3.org/Graphics/SVG/1.1/DTD/svg11.dtd">
<svg version="1.1" id="Calque_1" xmlns="http://www.w3.org/2000/svg" xmlns:xlink="http://www.w3.org/1999/xlink" x="0px" y="0px"
	 viewBox="0 0 288.91 87.61" enable-background="new 0 0 288.91 87.61" xml:space="preserve">
<g>
	<g>
		<rect x="5.423" y="27.532" width="283.487" height="47.755"/>
		<polygon fill="#FFFFFF" points="236.232,65.932 5.433,65.932 5.433,68.924 235.133,68.924 		"/>
		<g>
			<path fill="#FFFFFF" d="M90.82,38.637l-7.542,11.447c0,0,0.479-5.989,0.598-7.432c0.09-1.098-0.045-4.016-2.718-4.016
				c-2.596,0-11.967,0-11.967,0L61.34,59.955h9.359l5.685-15.419l-1.198,15.419h8.316l10.201-15.151l-5.566,15.151h9.42
				l7.848-21.318H90.82z"/>
			<path fill="#FFFFFF" d="M141.796,59.559c-0.457,0.076-4.034,0.765-7.791,0.868c-6.701,0.184-12.542-2.496-12.595-7.335
				c-0.091-8.385,8.387-12.979,14.638-14.259c2.802-0.573,8.2-1.203,13.575,0.123l-3.123,7.49c-0.896-2.04-3.201-2.078-4.146-2.099
				c-2.284-0.048-4.171,0.556-5.564,1.193c-3.159,1.446-5.911,6.09-1.442,7.878c2.48,0.992,5.637,0.2,8.93-0.321L141.796,59.559z"/>
			<polygon fill="#FFFFFF" points="237.83,59.955 227.5,59.955 235.343,38.637 245.675,38.637 			"/>
			<polygon fill="#FFFFFF" points="113.832,59.955 103.502,59.955 111.356,38.637 121.676,38.637 			"/>
			<polygon fill="#FFFFFF" points="169.547,38.637 166.701,46.315 161.507,46.315 164.332,38.637 154.483,38.637 146.658,59.956
				156.47,59.956 159.15,52.732 164.351,52.732 161.676,59.956 171.509,59.956 179.37,38.637 			"/>
			<polygon fill="#FFFFFF" points="216.85,52.874 222.081,38.637 212.042,38.637 204.189,59.956 224.359,59.956 226.966,52.874
				"/>
			<path fill="#FFFFFF" d="M271.134,38.637l-5.385,14.631c0.073-1.474,0.368-7.293,0.548-10.645
				c0.075-1.379-0.225-2.433-0.888-3.133c-0.8-0.844-1.861-0.854-1.871-0.854h-11.999l-7.843,21.319h8.711l5.56-15.098
				l-0.656,15.098h14.613l7.845-21.319L271.134,38.637L271.134,38.637z"/>
			<polygon fill="#FFFFFF" points="189.211,54.202 190.094,51.834 201.31,51.834 203.236,46.586 192.021,46.586 192.88,44.22
				204.655,44.22 206.727,38.637 185.196,38.637 177.349,59.956 199.121,59.956 201.234,54.202 			"/>
		</g>
		<g>
			<g>
				<path d="M62.213,48.343c0.592-0.892-0.077-2.757-1.378-4.299c-1.215-1.44-2.81-1.833-2.915-2.544
					c1.544-3.19-0.124-5.954-2.535-6.996c0.093-1.514-0.504-3.023-1.76-4.147c0.576-1.219,1.208-4.816-1.433-7.066
					c1.047-4.453-3.448-6.956-5.878-7.182c-1.176-0.831-2.875-1.385-4.936-1.604c1.5-2.253,1.117-5.324-0.712-6.973
					c0.104-2.459-1.568-4.768-4.083-5.638c-0.83-2.055-5.408-1.724-5.94,0.177c-2.641,0.949-4.23,3.917-3.956,6.528
					c-1.622,1.728-1.549,4.721-0.053,6.629c-1.403-0.033-3.365,0.345-4.761,0.906c0,0-0.001,0-0.002,0
					c-0.025-0.008-0.063-0.02-0.063-0.02c-1.141-0.557-2.401-0.763-3.652-0.606c-0.334-0.21-1.144-0.571-1.676-0.706
					c-0.485-0.721-1.112-1.303-1.869-1.737c-0.298-1.237-1.367-2.239-2.329-2.718c0.096-0.928-0.268-2.084-0.575-2.62
					c-0.559-0.974-0.422-2.424-0.257-2.629c0.636-0.795,0.085-1.522-0.201-1.803C9.793,1.869,8.356,2.621,7.935,3.282
					c-1.386-2.467-2.973-3.124-3.918-2.8C2.786-0.485,0.815,0.113,0.846,1.295c-0.809,0.566-1.364,0.834-0.1,3.14
					c-0.251,4.812,0.28,6.245,3.449,8.834c-0.985,0.942-1.512,3.084-0.558,4.63c-0.252,2.31,0.976,4.523,2.52,5.698
					c0.437,3.319,3.654,5.281,5.766,5.721c1.416,2.062,3.495,3.089,5.496,3.289c0.116,0.924,0.47,1.82,1.05,2.672
					c-0.522,1.896-0.471,3.657,0.148,5.247c-1.481,1.614-2.005,3.97-1.301,6.46c-1.734,2.061-2.327,5.312-1.106,8.024
					c-0.009,0.014-0.555,0.795-0.725,1.472c-1.23,0.6-2.361,1.934-2.986,3.545c-0.51,1.326-0.311,3.083-0.013,4.479
					c-1.882,1.585-2.991,5.598,0.411,8.85c-0.738,2.3-2.325,4.325-4.214,6.733c-1.338,1.707-1.573,2.627-0.023,4.649
					c1.209,1.576,3.368,2.787,5.142,2.857c3.501,0.14,5.905-0.624,6.286-3.115c0.227-1.477-0.736-4.49-0.819-5.221
					c-0.083-0.73,0.194-1.884,0.898-3.719c3.138-0.725,4.808-3.055,4.997-5.333c2.393-1.328,4.039-4.035,3.289-7.046
					c0.427-0.546,0.565-0.869,0.818-1.675c0,1.325,0.896,2.209,1.317,2.983c-1.383,3.36,0.442,6.423,2.474,7.736
					c-3.507,4.973,0.282,7.383,1.293,8.43c1.19,1.231,1.36,3.323,3.34,4.033c1.709,0.613,7.221,0.029,8.29-2.301
					c0.274-0.597,0.526-1.265,0.228-1.709c0.045-1.667-1.032-2.885-2.91-3.957c-2.109-1.207-2.066-0.871-3.079-4.066
					c3.278-1.585,3.859-5.33,3.695-6.807c2.294-2.847,2.153-5.281,0.894-6.979c0.405-1.176,0.345-2.259,0.05-3.203
					c1.883-1.799,2.801-4.384,2.032-7.13c1.146-1.691,1.561-3.589,1.091-5.66c0.996,1.503,2.534,2.115,4.292,2.061
					c0.012,0.038,0.154,0.532,0.242,0.755c-0.512,0.955-0.28,2.102,1.062,3.089c0.12,0.44,0.362,0.792,0.709,1.034
					c-0.019,0.456,1.122,2.335,2.496,1.329c0.037-0.027,1.521-0.974,1.614-1.031C59.562,51.146,62.498,50.307,62.213,48.343z"/>
				<path fill="#FFFFFF" d="M48.851,38.914c3.651-0.316,6.97-4.355,3.744-7.445c-0.455,0.643-1.489,1.45-2.136,1.7
					c-0.236,1.556-1.167,2.899-1.84,3.643C48.748,37.366,48.85,38.819,48.851,38.914z"/>
				<path fill="#FFFFFF" d="M54.774,35.896c-0.89,2.35-3.274,3.642-5.978,3.977c-0.403,1.934,2.081,4.807,5.829,3.125
					C57.284,41.807,58.31,37.475,54.774,35.896z"/>
				<path fill="#FFFFFF" d="M53.703,46.052c-0.329,0.358-0.234,1.13,0.225,1.422c0.014-0.052,0.225-0.872,0.441-1.192
					C54.128,45.977,53.827,45.918,53.703,46.052z"/>
				<path fill="#FFFFFF" d="M56.084,47.786c-0.241-0.431-0.108-0.923-0.793-1.169c-0.707-0.254-0.758,2.015-0.207,1.934
					C55.319,48.27,55.641,48.024,56.084,47.786z"/>
				<path fill="#FFFFFF" d="M57.035,48.105c-0.947,0.287-1.71,1.012-1.339,1.619c0.171,0.282,0.284,0.271,0.875-0.093
					c0.375-0.231,0.948-0.693,1.063-0.775C57.438,48.436,57.035,48.105,57.035,48.105z"/>
				<path fill="#FFFFFF" d="M57.966,43.706c-0.328-0.185-0.882-0.659-1.162-1.085c-0.729,0.809-2.375,1.563-3.003,1.733
					c0.024,0.077,0.237,0.814,0.339,0.961c0.289,0.088,0.62,0.324,0.824,0.595c0.399-0.118,1.396,0.043,1.638,1.103
					c0.435,0.295,1.283,0.613,1.551,0.961c1.162,1.513,2.037,1.245,2.295,1.044c1.022-0.797-0.373-1.488-1.154-2.449
					c-0.345-0.424-1.542-2.103-1.493-2.448c0.022-0.159,0.291-0.056,0.472,0.252c0.108,0.183,1.704,2.016,2.499,2.689
					C60.076,44.66,57.966,43.706,57.966,43.706z"/>
				<path fill="#FFFFFF" d="M35.218,40.348c13.687-0.134,15.296-8.28,13.533-11.416c-4.194,4.375-18.198,6.82-25.101,1.381
					c-1.343,1.382-2.987,1.868-4.496,2.043C19.625,36.461,26.885,40.432,35.218,40.348z"/>
				<path fill="#FFFFFF" d="M25.963,23.277c0.246,2.615-0.898,5.155-1.439,6.049c1.233,0.976,3.876,2.837,9.815,2.932
					c8.91,0.143,18.387-4.205,13.069-11.449C45.024,23.723,33.765,26.334,25.963,23.277z"/>
				<path fill="#FFFFFF" d="M14.149,22.273c2.089-2.009,2.268-4.57,1.241-6.351c-0.225-0.39-0.493-0.759-0.899-1.095
					c-0.538,3.824-5.818,6.703-9.22,4.216C6.452,24.35,11.881,24.456,14.149,22.273z"/>
				<path fill="#FFFFFF" d="M18.49,25.878c3.128-3.5-0.038-8.974-1.526-9.267c1.087,5.348-4.283,9.533-9.012,7.479
					C9.088,27.336,14.692,30.127,18.49,25.878z"/>
				<path fill="#FFFFFF" d="M14.103,29.224c2.797,2.928,10.1,2.723,10.565-4.064c0.312-4.551-1.697-7.116-4.988-7.984
					C23.534,24.271,19.057,29.155,14.103,29.224z"/>
				<path fill="#FFFFFF" d="M19.947,36.408c-1.289,7.793,9.073,10.318,15.271,10.099c10.411-0.367,12.72-5.453,12.242-8.434
					C40.822,43.232,26.66,42.661,19.947,36.408z"/>
				<path fill="#FFFFFF" d="M25.273,52.82c5.503,1.263,10.036-1.413,9.963-5.12c-2.714,0.038-11.438-0.106-15.579-5.955
					C16.765,45.748,20.113,51.419,25.273,52.82z"/>
				<path fill="#FFFFFF" d="M32.855,53.016c-5.051,2.601-11.935,0.722-14.602-4.643c-3.664,5.955,2.571,11.234,7.092,11.004
					C30.97,59.09,32.612,55.518,32.855,53.016z"/>
				<path fill="#FFFFFF" d="M17.352,56.205c-1.796,3.159,0.395,6.586,2.712,7.493c4.89,1.914,8.182-1.341,7.959-3.687
					C24.049,60.975,20.029,59.726,17.352,56.205z"/>
				<path fill="#FFFFFF" d="M13.378,65.802c-2.238,1.973-0.663,6.926,2.79,8.126c4.925,1.713,7.021-1.578,7.391-3.41
					C22.245,70.831,16.519,72.001,13.378,65.802z"/>
				<path fill="#FFFFFF" d="M19.762,64.57c-2.575-1.33-4.126-3.305-4.331-6.117c-3.703,3.715-0.624,9.646,2.82,10.841
					c6.922,2.403,9.372-3.431,8.799-5.242C24.316,65.984,21.027,65.223,19.762,64.57z"/>
				<path fill="#FFFFFF" d="M44.574,81.727l0.193,0.138c-0.518,1.158-4.695,2.109-6.39,1.32c-2.003-0.933-1.69-2.063-2.966-3.271
					c-2.838-2.683-2.445-3.802-2.041-5.301c0.183-0.681,0.547-1.122,1.122-1.888c1.889,0.766,2.794,0.612,4.497,0.17
					c0.022,0.141,0.123,0.574,0.16,0.735c-1.288,0.134-2.347,0.401-2.347,0.401l0.327,0.978c0,0,1.086-0.28,2.292-0.371
					c0,0,0.262,0.73,0.362,0.934c-1.136,0.08-2.183,0.42-2.183,0.42l0.318,0.932c0,0,1.488-0.471,2.661-0.364
					c1.137,1.1,5.854,2.282,3.568,4.635c-0.91,0.937-3.149,1.265-4.783,1.211l-0.103,0.246
					C39.598,83.112,42.854,83.269,44.574,81.727z"/>
				<path fill="#FFFFFF" d="M42.291,66.83c-1.084,0.86-2.792,1.576-4.878,1.51c-2.359-0.074-4.067-1.036-5.533-2.678
					c-0.87,4.286,1.885,6.367,4.885,6.514C42.278,72.446,42.391,67.441,42.291,66.83z"/>
				<path fill="#FFFFFF" d="M37.334,67.325c5.825,0.029,7.657-4.876,6.525-7.004c-3.325,4.085-11.079,3.266-12.524-1.794
					C29.222,62.045,32.6,67.302,37.334,67.325z"/>
				<path fill="#FFFFFF" d="M38.113,61.943c2.905,0.022,6.12-2.072,5.354-5.591c-3.287,2.142-7.511,1.935-10.307-0.19
					c-0.243,0.483-0.674,1.137-0.982,1.523C32.544,60.316,35.36,61.921,38.113,61.943z"/>
				<path fill="#FFFFFF" d="M34.511,51.892c-0.112,0.1-0.226,0.195-0.341,0.287c0.013,0.919-0.265,2.247-0.55,3.098
					c4.023,3.461,12.498,1.369,11.941-5.65C42.655,52.47,37.969,53.148,34.511,51.892z"/>
				<path fill="#FFFFFF" d="M36.482,47.663c0.033,1.284-0.477,2.535-1.186,3.527c5.25,1.519,11.724-1.173,11.307-7.345
					C45.015,45.447,41.746,47.372,36.482,47.663z"/>
				<path fill="#FFFFFF" d="M10.369,18.519c3.843-1.738,3.573-5.84,1.257-6.784c-0.506,0.479-0.443,1.775-0.417,2.053
					c0.061,0.651-0.924,1.003-1.069,0.82c-0.342-0.431,0.481-0.868,0.136-1.843c-0.33-0.934,0.68-1.404,0.68-2.796
					c0-0.808-0.688-2.168-0.784-2.425C9.859,6.71,9.88,5.086,10.332,4.291c-0.34-0.315-0.884-0.776-1.398,0.014
					c-0.688,1.06-0.441,2.381,0.047,3.406C8.914,7.743,8.288,7.723,7.933,8.848c-0.007,0.02-0.285,0.373-0.285,0.373L7.417,9.228
					C7.251,8.42,7.528,7.918,7.74,7.439c-0.062-0.187-0.306-0.99-0.357-2.251C6.73,3.539,5.496,1.903,4.647,1.807
					c0.726,1.05,2.044,3.554,2.183,3.894c0.288,0.702-0.334,0.825-0.334,0.825C5.527,4.459,4.429,2.652,3.597,1.821
					C3.036,1.26,2.412,1.078,2.207,1.437C2.459,1.52,2.768,1.82,3.006,2.113c0.889,1.094,2.703,4.819,2.703,4.819
					S5.566,7.119,5.393,7.091C5.101,7.045,4.727,6.505,4.285,5.492C3.81,4.566,2.92,3.248,2.437,2.697
					C2.037,2.24,1.691,2.393,1.44,2.592c0.258,0.461,0.535,0.994,0.661,1.419C2.763,3.833,3.61,4.554,3.706,5.199
					c0.096,0.645,0.322,2.411,0.73,3.017C4.285,8.298,3.9,8.581,3.9,8.581C3.454,8.03,3.136,6.029,3.067,5.308
					C3.05,5.131,2.832,4.763,2.401,4.647C2.187,4.59,2.147,4.727,2.14,4.879c-0.185,4.023,0.059,5.04,3.631,7.83
					c0.233,0.183,0.635,0.694,0.898,1.229c0.264,0.535,0.715,1.178,1.573,1.069l0.339,0.35c-0.772,0.621-1.915,0.239-2.186-0.112
					c-0.215-0.279-0.804-1.149-0.804-1.149C3.101,16.73,6.43,20.301,10.369,18.519z"/>
				<path fill="#FFFFFF" d="M14.49,74.125c-1.522,3.274-2.881,4.597-4.601,7.011c-1.023,1.437-0.645,2.133,0.055,3.058
					c1.395,1.697,3.914,2.545,5.774,2.012l-0.014-0.246c-2.231,0.219-4.194-0.616-5.213-2.131l0.168-0.163
					c2.61,2.055,6.044,1.484,7.363,0.812c0.36-0.185,0.615-0.683,0.564-1.135c-0.124-1.077-0.732-2.896-0.852-3.923
					c-0.098-0.837,0.206-2.296,0.832-4.019C17.511,75.428,15.123,75.141,14.49,74.125z"/>
				<path fill="#FFFFFF" d="M47.928,19.515c1.865,1.256,2.202,3.804,2.259,4.862c1.829-3.594-0.915-5.737-2.367-6.183
					C48.068,18.674,48.047,19.391,47.928,19.515z"/>
				<path fill="#FFFFFF" d="M50.758,31.328c3.488-2.084,1.21-6.373,0.647-6.73c-0.141,0.444-0.591,1.572-1.867,3.076
					C50.293,28.583,50.721,29.872,50.758,31.328z"/>
				<path fill="#FFFFFF" d="M25.683,21.877c2.53,1.143,5.332,1.579,8.099,1.586c7.421,0.019,12.568-2.125,12.966-4.343
					c0.332-1.851-3.066-2.984-6.764-3.194c-0.538,0.585-1.276,0.777-1.455,0.79c-0.272,0.022-0.445-0.184-0.147-0.339
					c0.557-0.29,1.105-0.77,0.505-1.801c0.394-0.063,1.749-0.555,1.86-2.89c0.088-1.853-0.901-2.999-1.728-3.533
					c0,0-0.323-0.349,0.083-0.401c0.206-2.242-1.313-4.145-4.139-4.725l0.02-0.236c0.11-0.01,0.171-0.127,0.151-0.238
					c-0.099-0.554-2.142-0.783-2.953-0.033c-0.173,0.16,0.402,0.328,0.559,0.333c0.208,0.008,0.353,0.285,0.061,0.28
					c-1.619-0.029-4.626,1.398-4.509,5.303c0.099-0.004,0.94-0.251,1.277-0.156c0.227,0.064,0.149,0.342-0.039,0.356
					c-2.669,0.205-3.777,4.886-0.085,6.546c0,0,0.19,0.105-0.049,0.258c-0.44,0.278-0.774,0.84-0.11,1.22
					c0.238,0.136,0.424,0.31,0.313,0.53c-0.111,0.219-0.484,0.207-0.848,0.025c-1.832-0.916-3.983-0.43-5.649,0.107
					C24.338,18.381,25.242,20.099,25.683,21.877z"/>
				<path d="M6.936,9.817C6.859,9.896,6.307,9.528,5.982,9.298C5.457,9.056,4.901,9.149,4.88,8.985
					C4.868,8.884,5.342,8.76,5.784,8.76c0.31,0.018,0.616,0.256,0.93,0.229C6.816,9.206,7.046,9.703,6.936,9.817z"/>
				<path d="M16.493,79.428c-0.956-0.284-2.174-0.433-2.958-0.454l0.028-0.979c0.85,0.022,2.176,0.185,3.22,0.497L16.493,79.428z"/>
				<path d="M17.049,77.473c-1.324-0.396-1.579-0.438-3.036-0.499l0.043-0.979c1.541,0.065,1.878,0.12,3.284,0.541L17.049,77.473z"
					/>
			</g>
			<g>
				<path d="M37.394,11.762c-0.082,0.021-0.231,0.092-0.326,0.191c-2.576-0.464-3.383,0.233-4.764,0.198
					c0.019-0.175-0.042-0.414-0.268-0.391c-0.082,0.009-0.189,0.196-0.229,0.256c-0.362,0.537-0.501,0.834-0.362,0.958
					c0.149,0.133,0.333-0.08,0.524-0.299c0.228-0.026,0.752-0.01,1.252,0.327c0.43,0.289,1.314,1.403,2.238,1.011
					c0.643-0.3,1.256-1.402,1.727-1.404c0.229-0.002,0.511,0.035,0.559,0.008C37.852,12.557,37.639,11.704,37.394,11.762z
					 M35.402,13.499c-0.783,0.402-1.259-0.62-2.024-0.955c0.706-0.182,2.125-0.322,3.212-0.124
					C36.333,12.62,35.622,13.386,35.402,13.499z"/>
				<g>
					<path d="M36.514,5.274c-0.91,0.103-1.541,1.287-1.437,2.695c0.064,0.868,0.4,1.641,0.898,2.066
						c0.282,0.241,0.601,0.354,0.92,0.327c0.913-0.079,1.547-1.268,1.443-2.706c-0.063-0.886-0.402-1.662-0.905-2.079
						C37.151,5.344,36.833,5.238,36.514,5.274z"/>
					<path fill="#FFFFFF" d="M37.544,9.266c-0.001,0.012,0,0.021,0.006,0.023c0.003,0.001,0.008,0,0.012-0.005
						c0.222-0.402,0.343-0.977,0.299-1.593c-0.052-0.728-0.328-1.383-0.72-1.707c-0.186-0.153-0.378-0.221-0.573-0.198
						c-0.63,0.07-1.094,1.054-1.013,2.146c0.007,0.1,0.019,0.198,0.035,0.295c0.005,0.014,0.012,0.022,0.019,0.022
						c0.01,0,0.018-0.015,0.022-0.037c0.066-0.745,0.456-1.325,0.948-1.355c0.561-0.033,1.042,0.674,1.075,1.578
						C37.664,8.736,37.623,9.02,37.544,9.266z"/>
				</g>
				<g>
					<path d="M32.448,5.368c-0.965,0.089-1.68,1.281-1.629,2.716c0.031,0.865,0.345,1.65,0.839,2.098
						c0.296,0.267,0.638,0.397,0.988,0.375c0.966-0.064,1.684-1.263,1.635-2.727c-0.03-0.883-0.346-1.672-0.845-2.111
						C33.139,5.457,32.798,5.336,32.448,5.368z"/>
					<path fill="#FFFFFF" d="M33.578,9.08c0,0.008,0.002,0.015,0.007,0.016c0.005,0.001,0.011-0.005,0.017-0.015
						c0.138-0.358,0.212-0.786,0.197-1.235c-0.024-0.724-0.282-1.387-0.671-1.729c-0.138-0.122-0.36-0.261-0.638-0.234
						c-0.684,0.063-1.228,1.061-1.188,2.18c0.018,0.51,0.162,0.927,0.329,1.237c0.013,0.017,0.027,0.027,0.036,0.023
						c0.006-0.002,0.008-0.011,0.008-0.023c-0.057-0.187-0.093-0.391-0.103-0.606c-0.041-0.888,0.38-1.624,0.939-1.644
						c0.56-0.022,1.046,0.689,1.086,1.588C33.604,8.789,33.597,8.937,33.578,9.08z"/>
				</g>
			</g>
		</g>
	</g>
</g>
</svg>
