<?xml version="1.0" encoding="utf-8"?>
<!-- Generator: Adobe Illustrator 17.0.0, SVG Export Plug-In . SVG Version: 6.00 Build 0)  -->
<!DOCTYPE svg PUBLIC "-//W3C//DTD SVG 1.1//EN" "http://www.w3.org/Graphics/SVG/1.1/DTD/svg11.dtd">
<svg version="1.1" id="Calque_1" xmlns="http://www.w3.org/2000/svg" xmlns:xlink="http://www.w3.org/1999/xlink" x="0px" y="0px"
	 width="167.431px" height="207.022px" viewBox="0 0 167.431 207.022" enable-background="new 0 0 167.431 207.022"
	 xml:space="preserve">
<g>
	<rect x="0.93" y="120.853" fill="#07090B" width="165" height="9"/>
</g>
<g>
	<g>
		<polygon fill="#5D5F63" points="135.428,60.853 137.151,50.884 124.93,51.022 124.93,51.04 115.305,51.19 104.899,101.853 
			116.975,101.853 121.011,81.853 129.373,81.853 131.274,71.908 123.129,71.831 125.407,60.853 		"/>
	</g>
	<g>
		<path fill="#5D5F63" d="M158.966,77.985c5.088-2.593,8.465-7.142,8.465-12.326c0-8.068-6.468-14.608-16.553-14.608
			c-0.082,0-0.157,0.004-0.237,0.004l-10.652,0.142l-8.853,50.656h5.19h6.309h5.19c9.342,0,16.915-6.171,16.915-13.602
			C164.74,84.215,162.504,80.451,158.966,77.985z M157.052,66.769c0,4.246-3.442,7.689-7.689,7.689c-0.783,0-1.537-0.12-2.249-0.338
			l2.454-15.034C153.72,59.195,157.052,62.591,157.052,66.769z M145.903,94.352c-0.709,0-1.394-0.099-2.046-0.278l2.261-13.849
			c6.131,0.006,7.474,2.198,7.474,6.439C153.592,90.909,150.15,94.352,145.903,94.352z"/>
	</g>
	<g>
		<g>
			<path fill="#38A755" d="M29.616,6.852l1.781,1.747l-10.501,10.7c-0.375,1.559-0.606,3.175-0.676,4.831l0.579,0.221
				c1.767,0.68,3.523,1.387,5.266,2.13c0.55,0.232,1.097,0.472,1.643,0.714l2.077-2.611l2.956,2.381l-1.477,1.887
				c0.001,0,0.001,0,0.002,0l2.593,1.155c0.855,0.389,1.706,0.772,2.567,1.15l1.755-2.214l1.781,1.413l-1.385,1.74
				c1.04,0.456,2.084,0.907,3.139,1.351c0.292,0.124,0.587,0.244,0.882,0.366l6.391-10.35l1.886,1.165l-6.195,10.033l1.154,0.468
				c0.239,0.095,0.502,0.217,0.764,0.328l0.428,0.203c0.16,0.08,0.346,0.185,0.516,0.281c0.251,0.141,0.506,0.333,0.658,0.556
				l0.078,0.103l3.305-5.352l1.886,1.165l-1.421,2.302c0.449-0.241,0.906-0.476,1.37-0.707L53,33.623l6.958-7.561l2.946,2.711
				l-0.289,0.314l1.217,1.12c1.826-0.467,3.829-0.899,6.055-1.295l0.469-0.505c0.005-0.037,0.008-0.075,0.012-0.112l-3.752,0.871
				l-0.701-3.019l4.64-1.078c-0.011-1.995-0.254-3.935-0.703-5.795l-4.775,4.417l-2.105-2.275l5.851-5.411
				c-1.029-2.622-2.485-5.03-4.282-7.139l-6.086,6.352l-2.238-2.144l6.172-6.442c-0.642-0.59-1.315-1.147-2.015-1.668l-5.723,7.21
				l-1.415-1.123l5.648-7.115C54.979,1.444,50.346,0,45.375,0c-9.689,0-18.098,5.492-22.309,13.526L29.616,6.852z"/>
		</g>
		<g>
			<path fill="#38A755" d="M80.868,34.399c-2.269-1.714-4.845-3.052-7.629-3.962L60.005,44.689l-2.561-2.378l10.724-11.549
				l-6.228,2.154l-6.859,7.454l-2.026-1.864l2.408-2.617l-0.579-0.532l-4.113,1.423l-0.933,1.511l-1.111-0.686
				c0.078,0.27,0.195,0.54,0.292,0.81c0.09,0.258,0.179,0.515,0.271,0.772l0.377-0.336l1.475,1.655l-0.969,0.864
				c0.154,0.362,0.309,0.725,0.471,1.088l0.772,1.753l1.298-1.18l2.023,2.225l-2.067,1.879c0.116,0.285,0.234,0.568,0.347,0.856
				c0.242,0.612,0.468,1.237,0.685,1.869l2.041-2.049l0.92,0.916l-1.976,1.983l1.467,1.139l-1.378,1.774
				c0.028,0.133,0.058,0.264,0.084,0.398c0.213,1.076,0.352,2.201,0.367,3.377c0.001,0.103-0.004,0.207-0.005,0.311L80.868,34.399z"
				/>
		</g>
		<g>
			<path fill="#38A755" d="M43.927,41.085c-0.031-0.03-0.016-0.055-0.06-0.097l-0.116-0.094L43.927,41.085z"/>
		</g>
		<g>
			<path fill="#38A755" d="M19.9,41.463l1.728,1.934L4.07,59.082l1.699,1.902l-3.697,3.303c0.687,1.588,1.533,3.091,2.519,4.49
				l8.655-7.733l1.495,1.673l-3.128,2.794l1.11,1.242l-3.895,3.48l1.012,1.133l-1.663,1.486c0.911,0.835,1.883,1.604,2.91,2.299
				l3.668-3.868l2.819,2.673l5.543-5.845l1.382,1.31l-8.048,8.486c1.056,0.391,2.145,0.712,3.263,0.959l3.363-3.936l5.098,4.355
				c1.475-0.175,2.912-0.476,4.298-0.895l16.391-14.9l0.135-7.095l-8.383,7.62l-2.023-2.225l9.328-8.48l-0.679-0.747l1.119-1.017
				l-1.696-1.866l1.813-1.648c-0.162-0.302-0.328-0.603-0.5-0.903c-0.062-0.106-0.128-0.21-0.191-0.316l-6.792,6.174l-2.54-2.795
				l7.247-6.588c-0.292-0.413-0.589-0.826-0.894-1.241c-0.29-0.396-0.639-0.794-0.945-1.194c-0.115-0.153-0.244-0.306-0.374-0.46
				c-0.093-0.061-0.189-0.121-0.3-0.184c-0.18-0.108-0.365-0.211-0.565-0.314c-0.177-0.094-0.36-0.191-0.547-0.281l-2.41,3.03
				l-3.922-3.12l1.537-1.932c-1.018-0.384-2.044-0.756-3.075-1.118c-0.305-0.11-0.612-0.215-0.918-0.32l-2.082,2.618l-1.638-1.302
				l1.616-2.032l-1.761-0.596l-4.272,5.372l-1.638-1.302l3.806-4.785c-0.398-0.136-0.797-0.272-1.193-0.412
				c-0.895-0.318-1.793-0.628-2.683-0.961c-0.253-0.094-0.504-0.194-0.757-0.289l-2.724,3.425l-1.638-1.302l2.314-2.909
				c-0.836-0.331-1.669-0.668-2.499-1.014c-0.333-0.137-0.664-0.277-0.996-0.417c-5.526,1.9-10.196,5.489-13.254,10.333
				c-2.459,3.887-3.878,8.465-3.878,13.401c0,1.558,0.143,3.082,0.413,4.561L19.9,41.463z"/>
		</g>
		<g>
			<path fill="#38A755" d="M80.973,50.519l-1.262-1.257l7.595-7.624c-0.099-0.169-0.197-0.339-0.3-0.505
				c-1.08-1.754-2.375-3.345-3.839-4.761L41.041,74.665c-0.043,2.348-0.326,4.633-0.83,6.834l1.584-0.786l2.099,4.232l-5.833,2.893
				c-0.769,1.682-1.676,3.289-2.704,4.811l1.041,2.099l-4.516,2.381c-2.004,2.124-4.278,3.723-6.772,5.723h15.757l3.152-3.331
				l0.795,0.857l-2.375,2.474h2.518l3.557-3.74l1.232,1.289l-2.353,2.451h16.71c-4.723-3-8.666-7.19-11.451-11.98l-3.135,3.101
				l-1.232-1.253l3.502-3.56c-0.349-0.683-0.675-1.387-0.977-2.095l-6.482,6.554l-1.232-1.22l7.022-7.105
				c-1.264-3.51-1.956-7.29-1.956-11.245c0-0.49,0.012-1.017,0.035-1.501c0.482,0.459,0.986,0.895,1.503,1.315l11.083-9.371
				l2.32,2.744l-5.418,4.581l1.947,1.925l-1.155,1.168l1.443,1.427l-1.95,1.972c0.105,0.033,0.207,0.07,0.312,0.102l6.567-6.643
				l1.722,1.702l-5.529,5.594c1.466,0.264,2.974,0.408,4.516,0.408c13.906,0,25.179-11.256,25.179-25.162
				c0-3.964-0.917-7.701-2.549-11.033L80.973,50.519z"/>
		</g>
	</g>
	<g>
		<polygon fill="#5D5F63" points="109.19,60.853 111.032,50.884 98.93,51.022 98.93,51.04 89.187,51.19 78.662,101.853 
			90.738,101.853 94.773,81.853 103.136,81.853 105.036,71.908 96.892,71.831 99.17,60.853 		"/>
	</g>
</g>
<g>
	<path fill="#5F6163" d="M9.957,169.655H2.735v3.79h6.198v2.334H2.735v5.828H0v-14.286h9.957V169.655z"/>
	<path fill="#5F6163" d="M31.23,181.608h-2.935l-1.256-3.558c-0.113-0.309-0.253-0.595-0.422-0.855
		c-0.169-0.26-0.368-0.482-0.596-0.665c-0.229-0.183-0.48-0.324-0.755-0.422c-0.275-0.098-0.577-0.148-0.908-0.148h-2.661v5.649
		h-2.735v-14.286h6.346c0.535,0,1.03,0.023,1.483,0.069c0.454,0.046,0.871,0.129,1.251,0.248c0.38,0.12,0.722,0.285,1.024,0.496
		c0.303,0.211,0.567,0.486,0.792,0.824c0.458,0.676,0.686,1.485,0.686,2.428c0,1.007-0.268,1.821-0.802,2.444
		c-0.535,0.623-1.288,1.047-2.26,1.272v0.032c0.549,0.183,1.005,0.498,1.367,0.945c0.362,0.447,0.684,1.033,0.966,1.758
		L31.23,181.608z M21.696,173.72h3.326c0.486,0,0.901-0.041,1.246-0.122c0.345-0.081,0.628-0.208,0.85-0.38
		c0.222-0.172,0.385-0.396,0.491-0.67c0.106-0.275,0.158-0.605,0.158-0.993c0-0.711-0.209-1.236-0.628-1.573
		c-0.419-0.338-1.051-0.507-1.895-0.507h-3.548V173.72z"/>
	<path fill="#5F6163" d="M51.934,181.608h-2.872l-1.299-3.653h-5.332l-1.246,3.653H38.45l5.132-14.286h2.988L51.934,181.608z
		 M47.119,175.758l-2.059-6.071l-1.985,6.071H47.119z"/>
	<path fill="#5F6163" d="M71.687,181.608h-2.756l-6.377-10.295l0.074,5.079v5.216h-2.576v-14.286h2.766l6.377,10.295l-0.074-5.089
		v-5.206h2.566V181.608z"/>
	<path fill="#5F6163" d="M87.459,181.85c-1.014,0-1.936-0.164-2.766-0.491c-0.831-0.327-1.545-0.822-2.143-1.484
		c-0.606-0.669-1.056-1.452-1.352-2.349c-0.296-0.897-0.443-1.916-0.443-3.057c0-2.26,0.598-4.058,1.795-5.395
		c0.612-0.669,1.33-1.168,2.154-1.5c0.824-0.331,1.742-0.496,2.756-0.496c0.802,0,1.531,0.097,2.186,0.29
		c0.655,0.194,1.256,0.498,1.806,0.913c0.655,0.479,1.14,1.024,1.457,1.637c0.317,0.612,0.518,1.309,0.602,2.09h-2.756
		c-0.056-0.401-0.171-0.764-0.343-1.087c-0.172-0.324-0.4-0.598-0.681-0.824c-0.282-0.225-0.612-0.398-0.993-0.517
		s-0.802-0.18-1.267-0.18c-0.584,0-1.118,0.111-1.6,0.333c-0.482,0.222-0.894,0.547-1.235,0.977
		c-0.342,0.429-0.606,0.959-0.792,1.589c-0.187,0.63-0.28,1.353-0.28,2.17c0,0.81,0.091,1.529,0.275,2.159
		c0.183,0.63,0.442,1.16,0.776,1.589c0.334,0.43,0.741,0.755,1.219,0.977c0.479,0.222,1.014,0.333,1.605,0.333
		c0.95,0,1.712-0.237,2.286-0.713c0.574-0.475,0.917-1.163,1.029-2.064h2.735c-0.092,0.817-0.291,1.542-0.597,2.175
		c-0.306,0.634-0.734,1.172-1.283,1.615c-0.556,0.451-1.174,0.782-1.853,0.993C89.076,181.745,88.311,181.85,87.459,181.85z
		 M87.839,182.167c0.556,0.084,0.971,0.269,1.246,0.554c0.275,0.285,0.412,0.656,0.412,1.114c0,1.331-1,1.996-2.999,1.996
		c-0.169,0-0.347-0.004-0.533-0.011c-0.187-0.007-0.382-0.028-0.586-0.063v-1.299c0.183,0.035,0.371,0.058,0.565,0.069
		c0.193,0.01,0.385,0.016,0.575,0.016c0.394,0,0.688-0.058,0.882-0.174c0.193-0.116,0.29-0.301,0.29-0.554
		c0-0.24-0.127-0.41-0.38-0.512c-0.253-0.102-0.606-0.153-1.056-0.153l0.116-1.615h1.489L87.839,182.167z"/>
	<path fill="#5F6163" d="M114.561,181.608h-2.872l-1.299-3.653h-5.332l-1.246,3.653h-2.735l5.132-14.286h2.988L114.561,181.608z
		 M109.746,175.758l-2.059-6.071l-1.985,6.071H109.746z"/>
	<path fill="#5F6163" d="M125.571,181.608h-2.735v-14.286h2.735V181.608z"/>
	<path fill="#5F6163" d="M140.858,181.85c-1.985,0-3.505-0.422-4.561-1.267c-1.056-0.845-1.63-2.073-1.721-3.685h2.629
		c0.042,0.458,0.16,0.855,0.354,1.193c0.193,0.338,0.449,0.62,0.765,0.845c0.317,0.226,0.684,0.394,1.103,0.507
		c0.419,0.113,0.871,0.169,1.357,0.169c0.471,0,0.899-0.046,1.283-0.137c0.383-0.092,0.709-0.223,0.977-0.396
		c0.267-0.173,0.473-0.384,0.618-0.634c0.144-0.25,0.216-0.533,0.216-0.85c0-0.282-0.067-0.524-0.2-0.729
		c-0.134-0.204-0.333-0.385-0.597-0.544c-0.264-0.158-0.597-0.299-0.998-0.422c-0.401-0.123-0.869-0.251-1.404-0.385
		c-0.781-0.183-1.494-0.368-2.138-0.554c-0.644-0.186-1.205-0.415-1.684-0.686c-0.479-0.271-0.862-0.6-1.151-0.987
		c-0.289-0.387-0.472-0.88-0.549-1.478c-0.021-0.155-0.037-0.311-0.047-0.47c-0.011-0.158-0.009-0.322,0.005-0.491
		c0.042-0.556,0.199-1.065,0.47-1.526c0.271-0.461,0.641-0.857,1.109-1.188c0.468-0.331,1.024-0.59,1.668-0.776
		c0.644-0.186,1.357-0.28,2.138-0.28c0.852,0,1.626,0.099,2.323,0.296c0.697,0.197,1.294,0.486,1.79,0.866
		c0.496,0.38,0.885,0.843,1.167,1.388c0.282,0.546,0.44,1.167,0.475,1.864h-2.661c-0.141-1.457-1.144-2.186-3.009-2.186
		c-0.443,0-0.838,0.044-1.183,0.132c-0.345,0.088-0.637,0.211-0.876,0.37c-0.239,0.158-0.422,0.347-0.549,0.565
		c-0.127,0.218-0.19,0.465-0.19,0.739c0,0.26,0.054,0.482,0.164,0.665c0.109,0.183,0.285,0.343,0.528,0.48
		c0.243,0.137,0.554,0.266,0.935,0.385c0.38,0.12,0.845,0.24,1.394,0.359c0.507,0.113,1.001,0.225,1.484,0.338
		c0.482,0.113,0.938,0.246,1.367,0.401c0.429,0.155,0.825,0.335,1.188,0.539c0.362,0.204,0.672,0.452,0.929,0.744
		c0.257,0.292,0.457,0.637,0.602,1.035c0.144,0.398,0.217,0.864,0.217,1.399c0,0.683-0.144,1.295-0.433,1.837
		c-0.289,0.542-0.688,1.003-1.198,1.383c-0.51,0.38-1.114,0.67-1.811,0.871C142.452,181.75,141.689,181.85,140.858,181.85z"/>
	<path fill="#5F6163" d="M166.503,181.608h-10.897v-14.286h10.58v2.334h-7.845v3.495h7.328v2.334h-7.328v3.801h8.162V181.608z"/>
</g>
<g>
	<path fill="#5F6163" d="M9.957,144.973H2.735v3.79h6.198v2.334H2.735v5.828H0v-14.286h9.957V144.973z"/>
	<path fill="#5F6163" d="M27.414,156.925H16.518v-14.286h10.58v2.334h-7.845v3.495h7.328v2.334h-7.328v3.801h8.162V156.925z"/>
	<path fill="#5F6163" d="M34.049,142.639h4.709c2.478,0,4.341,0.583,5.591,1.748s1.874,2.937,1.874,5.316
		c0,4.815-2.488,7.222-7.465,7.222h-4.709V142.639z M36.783,154.602h1.953c0.922,0,1.686-0.107,2.291-0.322
		c0.605-0.215,1.073-0.533,1.404-0.956c0.648-0.866,0.971-2.073,0.971-3.621c0-1.499-0.324-2.664-0.971-3.495
		c-0.331-0.408-0.799-0.716-1.404-0.924c-0.606-0.208-1.369-0.311-2.291-0.311h-1.953V154.602z"/>
	<path fill="#5F6163" d="M63.765,156.925H52.868v-14.286h10.58v2.334h-7.845v3.495h7.328v2.334h-7.328v3.801h8.162V156.925z"/>
	<path fill="#5F6163" d="M82.669,156.925h-2.935l-1.256-3.558c-0.113-0.309-0.253-0.595-0.422-0.855s-0.368-0.482-0.596-0.665
		c-0.229-0.183-0.48-0.324-0.755-0.422c-0.275-0.098-0.577-0.148-0.908-0.148h-2.661v5.649h-2.735v-14.286h6.346
		c0.535,0,1.03,0.023,1.483,0.069c0.454,0.046,0.871,0.129,1.251,0.248c0.38,0.12,0.722,0.285,1.024,0.496
		c0.303,0.211,0.567,0.486,0.792,0.824c0.458,0.676,0.686,1.485,0.686,2.428c0,1.007-0.268,1.821-0.802,2.444
		c-0.535,0.623-1.288,1.047-2.26,1.272v0.032c0.549,0.183,1.005,0.498,1.367,0.945c0.362,0.447,0.684,1.033,0.966,1.758
		L82.669,156.925z M73.134,149.038h3.326c0.486,0,0.901-0.041,1.246-0.122c0.345-0.081,0.628-0.208,0.85-0.38
		c0.222-0.172,0.385-0.396,0.491-0.67c0.106-0.275,0.158-0.605,0.158-0.993c0-0.711-0.209-1.236-0.628-1.573
		c-0.419-0.338-1.051-0.507-1.895-0.507h-3.548V149.038z"/>
	<path fill="#5F6163" d="M100.928,156.925h-2.872l-1.299-3.653h-5.332l-1.246,3.653h-2.735l5.132-14.286h2.988L100.928,156.925z
		 M96.114,151.076l-2.059-6.071l-1.985,6.071H96.114z"/>
	<path fill="#5F6163" d="M116.918,145.004h-4.35v11.921h-2.735v-11.921h-4.308v-2.365h11.393V145.004z"/>
	<path fill="#5F6163" d="M125.897,156.925h-2.735v-14.286h2.735V156.925z"/>
	<path fill="#5F6163" d="M139.521,142.396c1.035,0,1.971,0.178,2.809,0.533s1.554,0.855,2.149,1.499
		c0.595,0.644,1.054,1.42,1.378,2.328c0.324,0.908,0.486,1.918,0.486,3.03c0,1.098-0.158,2.1-0.475,3.004s-0.771,1.682-1.362,2.333
		c-0.591,0.651-1.308,1.155-2.149,1.51c-0.841,0.355-1.786,0.533-2.835,0.533c-1.042,0-1.987-0.178-2.835-0.533
		c-0.848-0.355-1.572-0.857-2.17-1.505s-1.058-1.426-1.378-2.333c-0.32-0.908-0.481-1.911-0.481-3.009
		c0-1.112,0.162-2.122,0.486-3.03c0.324-0.908,0.785-1.684,1.383-2.328c0.598-0.644,1.32-1.144,2.164-1.499
		S138.479,142.396,139.521,142.396z M139.5,154.845c0.634,0,1.2-0.125,1.7-0.375c0.5-0.25,0.924-0.598,1.272-1.045
		c0.348-0.447,0.614-0.98,0.797-1.6c0.183-0.619,0.275-1.299,0.275-2.038c0-0.746-0.09-1.429-0.269-2.048
		c-0.18-0.619-0.442-1.152-0.787-1.6c-0.345-0.447-0.764-0.795-1.257-1.045c-0.493-0.25-1.056-0.375-1.689-0.375
		s-1.202,0.123-1.705,0.369c-0.503,0.247-0.931,0.593-1.283,1.04c-0.352,0.447-0.621,0.98-0.808,1.6
		c-0.187,0.619-0.28,1.306-0.28,2.059c0,0.739,0.093,1.419,0.28,2.038c0.186,0.619,0.456,1.152,0.808,1.6
		c0.352,0.447,0.776,0.795,1.272,1.045C138.323,154.72,138.88,154.845,139.5,154.845z"/>
	<path fill="#5F6163" d="M164.591,156.925h-2.756l-6.377-10.295l0.074,5.079v5.216h-2.576v-14.286h2.766l6.377,10.295l-0.074-5.089
		v-5.206h2.566V156.925z"/>
</g>
<g>
	<path fill="#5F6163" d="M0,192.493h4.709c2.478,0,4.341,0.583,5.591,1.748s1.874,2.937,1.874,5.316
		c0,4.815-2.488,7.222-7.465,7.222H0V192.493z M2.735,204.456h1.953c0.922,0,1.686-0.107,2.291-0.322
		c0.605-0.215,1.073-0.533,1.404-0.956c0.648-0.866,0.971-2.073,0.971-3.621c0-1.499-0.324-2.664-0.971-3.495
		c-0.331-0.408-0.799-0.716-1.404-0.924c-0.606-0.208-1.369-0.311-2.291-0.311H2.735V204.456z"/>
	<path fill="#5F6163" d="M32.635,206.779H21.739v-14.286h10.58v2.334h-7.845v3.495h7.328v2.334h-7.328v3.801h8.162V206.779z"/>
	<path fill="#5F6163" d="M65.966,202.566c0,1.344-0.445,2.383-1.336,3.115c-0.89,0.732-2.223,1.098-3.996,1.098h-5.564v-14.286
		h5.427c0.76,0,1.445,0.084,2.054,0.253c0.609,0.169,1.124,0.412,1.547,0.729c0.422,0.317,0.744,0.699,0.966,1.146
		c0.222,0.447,0.333,0.952,0.333,1.515c0,0.711-0.171,1.325-0.512,1.843c-0.341,0.517-0.86,0.938-1.557,1.262
		c0.45,0.113,0.839,0.276,1.167,0.491c0.327,0.215,0.602,0.465,0.824,0.75c0.222,0.285,0.385,0.606,0.491,0.961
		C65.913,201.797,65.966,202.172,65.966,202.566z M57.783,198.321h2.587c0.802,0,1.394-0.139,1.774-0.417
		c0.38-0.278,0.57-0.751,0.57-1.42c0-0.296-0.044-0.554-0.132-0.776c-0.088-0.222-0.231-0.405-0.428-0.549
		c-0.197-0.144-0.452-0.253-0.765-0.327c-0.313-0.074-0.699-0.111-1.156-0.111h-2.45V198.321z M57.783,204.551h2.692
		c0.908,0,1.584-0.164,2.027-0.491c0.443-0.327,0.665-0.829,0.665-1.505c0-0.352-0.049-0.655-0.148-0.908
		c-0.099-0.253-0.259-0.461-0.48-0.623c-0.222-0.162-0.516-0.281-0.882-0.359c-0.366-0.077-0.813-0.116-1.341-0.116h-2.534V204.551z
		"/>
	<path fill="#5F6163" d="M87.789,206.779h-2.935l-1.256-3.558c-0.113-0.309-0.253-0.595-0.422-0.855
		c-0.169-0.26-0.368-0.482-0.596-0.665c-0.229-0.183-0.48-0.324-0.755-0.422c-0.275-0.098-0.577-0.148-0.908-0.148h-2.661v5.649
		h-2.735v-14.286h6.346c0.535,0,1.03,0.023,1.483,0.069c0.454,0.046,0.871,0.129,1.251,0.248c0.38,0.12,0.722,0.285,1.024,0.496
		c0.303,0.211,0.567,0.486,0.792,0.824c0.458,0.676,0.686,1.485,0.686,2.428c0,1.007-0.268,1.821-0.802,2.444
		c-0.535,0.623-1.288,1.047-2.26,1.272v0.032c0.549,0.183,1.005,0.498,1.367,0.945c0.362,0.447,0.684,1.033,0.966,1.758
		L87.789,206.779z M78.254,198.892h3.326c0.486,0,0.901-0.041,1.246-0.122c0.345-0.081,0.628-0.208,0.85-0.38
		c0.222-0.172,0.385-0.396,0.491-0.67c0.106-0.275,0.158-0.605,0.158-0.993c0-0.711-0.209-1.236-0.628-1.573
		c-0.419-0.338-1.051-0.507-1.895-0.507h-3.548V198.892z"/>
	<path fill="#5F6163" d="M99.877,206.779h-2.735v-14.286h2.735V206.779z"/>
	<path fill="#5F6163" d="M110.117,192.493h4.709c2.477,0,4.341,0.583,5.591,1.748c1.249,1.165,1.874,2.937,1.874,5.316
		c0,4.815-2.488,7.222-7.465,7.222h-4.709V192.493z M112.852,204.456h1.953c0.922,0,1.686-0.107,2.291-0.322
		c0.605-0.215,1.073-0.533,1.404-0.956c0.648-0.866,0.971-2.073,0.971-3.621c0-1.499-0.324-2.664-0.971-3.495
		c-0.331-0.408-0.799-0.716-1.404-0.924c-0.605-0.208-1.369-0.311-2.291-0.311h-1.953V204.456z"/>
	<path fill="#5F6163" d="M138.201,207.022c-1.028,0-1.966-0.171-2.814-0.512c-0.848-0.342-1.575-0.831-2.18-1.468
		c-0.605-0.637-1.075-1.411-1.41-2.323c-0.334-0.911-0.501-1.937-0.501-3.078c0-1.098,0.155-2.101,0.465-3.009
		c0.31-0.908,0.76-1.686,1.352-2.333c0.591-0.648,1.313-1.151,2.164-1.51c0.852-0.359,1.812-0.538,2.883-0.538
		c0.88,0,1.686,0.113,2.418,0.338c0.732,0.225,1.369,0.547,1.911,0.966c0.542,0.419,0.978,0.924,1.309,1.515
		c0.331,0.591,0.535,1.257,0.612,1.996h-2.735c-0.035-0.387-0.142-0.735-0.322-1.045c-0.179-0.31-0.419-0.572-0.718-0.787
		c-0.299-0.215-0.656-0.378-1.072-0.491s-0.876-0.169-1.383-0.169c-0.619,0-1.179,0.111-1.679,0.333
		c-0.5,0.222-0.926,0.549-1.277,0.982c-0.352,0.433-0.627,0.964-0.824,1.594c-0.197,0.63-0.296,1.35-0.296,2.159
		c0,0.817,0.1,1.54,0.301,2.17c0.201,0.63,0.481,1.16,0.84,1.589c0.359,0.429,0.793,0.753,1.304,0.971
		c0.51,0.218,1.082,0.327,1.716,0.327c0.809,0,1.524-0.123,2.143-0.369s1.133-0.623,1.542-1.13v-1.774h-3.231v-2.133h5.902v7.486
		h-1.732l-0.401-1.256c-0.486,0.485-1.079,0.857-1.779,1.114C140.008,206.893,139.173,207.022,138.201,207.022z"/>
	<path fill="#5F6163" d="M165.409,206.779h-10.897v-14.286h10.58v2.334h-7.845v3.495h7.328v2.334h-7.328v3.801h8.162V206.779z"/>
</g>
</svg>
