<?xml version="1.0" encoding="utf-8"?>
<!-- Generator: Adobe Illustrator 17.0.0, SVG Export Plug-In . SVG Version: 6.00 Build 0)  -->
<!DOCTYPE svg PUBLIC "-//W3C//DTD SVG 1.1//EN" "http://www.w3.org/Graphics/SVG/1.1/DTD/svg11.dtd">
<svg version="1.1" id="Calque_1" xmlns="http://www.w3.org/2000/svg" xmlns:xlink="http://www.w3.org/1999/xlink" x="0px" y="0px"
	 viewBox="0 311.323 595.612 219.576" enable-background="new 0 311.323 595.612 219.576"
	 xml:space="preserve">
<g>
	<path fill="#FFFFFF" d="M184.032,403.671c3.322,6.976,5.315,14.948,5.315,23.585c0,29.565-23.585,53.814-52.486,53.814
		c-3.322,0-6.312-0.332-9.301-0.997l11.627-11.959l-3.654-3.654l-13.62,14.284c-0.332,0-0.332,0-0.664-0.332l3.986-4.318l-2.99-2.99
		l2.325-2.657l-3.986-3.986l11.294-9.633l-4.983-5.979l-23.253,19.931c-0.997-0.997-1.993-1.661-2.99-2.658c0,0.997,0,1.993,0,3.322
		c0,8.305,1.329,16.609,3.986,23.918l-14.616,15.281l2.658,2.658l13.62-13.952c0.664,1.661,1.329,2.99,1.993,4.318l-7.308,7.64
		l2.657,2.658l6.644-6.644c5.647,10.298,13.952,18.603,23.918,25.578H98.992l4.983-5.315l-2.657-2.658l-7.64,7.64h-5.315
		l4.983-5.315l-1.661-1.661l-6.644,6.976H52.153c5.315-3.654,9.966-7.64,14.284-11.959l9.301-4.983l-2.325-4.318
		c1.993-3.322,3.986-6.644,5.647-10.298l12.291-6.312l-4.318-8.969l-3.322,1.661c0.997-4.651,1.661-9.633,1.661-14.616l88.03-81.718
		c2.99,2.99,5.647,6.312,7.973,10.298c0.332,0.332,0.332,0.664,0.664,0.997l-15.945,16.277l2.658,2.658L184.032,403.671z
		 M115.269,433.9c0-2.658-0.332-4.983-0.664-7.308c0-0.332,0-0.664-0.332-0.997l2.99-3.654l-2.99-2.325l3.986-4.318l-1.993-1.993
		l-4.318,4.318c-0.332-1.329-0.997-2.658-1.329-3.986c-0.332-0.664-0.332-1.329-0.664-1.661l4.318-3.986l-4.318-4.651l-2.658,2.658
		l-1.661-3.654c-0.332-0.664-0.664-1.661-0.997-2.325l1.993-1.993l-2.99-3.654l-0.664,0.664c-0.332-0.664-0.332-0.997-0.664-1.661
		s-0.332-0.997-0.664-1.661l2.325,1.329l1.993-3.322l8.637-2.99l1.329,0.997l-4.983,5.647l4.318,3.986l14.284-15.945l12.955-4.651
		l-22.257,24.582l5.315,4.983l27.572-30.561c5.647,1.993,11.294,4.651,15.945,8.305L115.601,433.9
		C115.269,434.233,115.269,433.9,115.269,433.9z M138.854,373.442l7.973-1.993c0,0,0,0,0,0.332l-0.997,0.997
		c-4.651,0.997-8.969,1.661-12.623,2.658l-2.658-2.325l0.664-0.664l-6.312-5.647l-14.616,16.277l0.997,0.664
		c-0.997,0.332-1.993,0.997-2.99,1.661l2.99-4.983l-3.986-2.325l-6.976,11.294v-0.332c-0.332-0.332-0.997-0.997-1.329-1.329
		c-0.332-0.332-0.664-0.332-0.997-0.664l-0.997-0.332c-0.664-0.332-0.997-0.332-1.661-0.664l-2.325-0.997l12.955-21.26l-3.986-2.325
		L88.694,383.74c-0.664-0.332-1.329-0.664-1.993-0.664c-2.325-0.997-4.318-1.993-6.644-2.99l2.99-3.654l-3.322-3.322l-3.654,4.651
		c-1.661-0.664-3.654-1.661-5.315-2.325l-5.315-2.658l0,0l2.99-3.986l-6.312-4.983l-4.318,5.647
		c-0.997-0.664-2.325-0.997-3.322-1.661c-3.654-1.661-7.308-2.99-10.962-4.651l-1.329-0.332c0-3.654,0.664-6.976,1.329-10.298
		l21.924-22.921l-3.654-3.654l-13.62,14.284c8.637-17.274,26.243-28.9,46.506-28.9c10.298,0,19.931,2.99,28.236,8.305
		l-11.627,15.281l2.99,2.325l11.959-15.281c1.329,0.997,2.99,2.325,4.318,3.654l-12.955,13.62l4.651,4.651l12.623-13.62
		c3.654,4.651,6.644,9.633,8.969,15.281l-12.291,11.627l4.318,4.983l9.966-9.301c0.997,3.986,1.329,7.973,1.329,12.291l-9.633,2.325
		L138.854,373.442z M38.202,385.733l3.322,2.658l5.647-7.308c0.664,0.332,0.997,0.332,1.661,0.664
		c1.993,0.664,3.654,1.329,5.647,1.993c0.997,0.332,1.661,0.664,2.657,0.997l-7.972,10.298l3.322,2.658l8.969-11.627l3.654,1.329
		l-3.322,4.318l3.322,2.658l4.318-5.647c0.664,0.332,1.329,0.332,1.993,0.664c1.993,0.664,4.318,1.661,6.312,2.325l-3.322,3.986
		l8.305,6.644l4.983-6.312c0.332,0.332,0.664,0.332,0.997,0.664c0.332,0.332,0.664,0.332,1.329,0.664
		c0.332,0,0.332,0.332,0.664,0.332c0.332,0.332,0.664,0.664,0.664,0.997c0.664,0.997,1.329,1.661,1.993,2.658
		c0.664,0.997,1.329,1.661,1.993,2.658l-15.281,13.952l5.315,5.979l14.284-13.288c0,0.332,0.332,0.332,0.332,0.664
		c0.332,0.664,0.664,1.329,0.997,1.993l-3.654,3.654l3.654,3.986l-2.325,2.325l1.329,1.661l-19.599,17.938l4.318,4.651
		l17.606-16.277l-0.332,15.281l-34.215,31.89c-2.99,0.997-5.979,1.661-8.969,1.993l-10.63-9.301l-6.976,8.305
		c-2.325-0.664-4.651-1.329-6.976-1.993l16.942-18.27l-2.99-2.658l-11.627,12.623l-5.979-5.647l-7.308,8.305
		c-1.993-1.329-4.318-2.99-5.979-4.983l3.322-3.322l-1.993-2.325l7.973-7.308l-2.325-2.658l6.644-5.979l-2.99-3.654L9.966,458.15
		c-1.993-2.99-3.986-6.312-5.315-9.633l7.64-6.976l-3.986-3.986l36.541-33.551l-3.654-3.986L0.997,436.89
		C0.332,433.568,0,430.578,0,427.257c0-10.63,2.99-20.263,7.973-28.568c6.312-10.298,16.277-17.938,27.572-21.924
		c0.664,0.332,1.329,0.664,1.993,0.997c1.661,0.664,3.322,1.329,5.315,2.325L38.202,385.733z"/>
	<path fill="#FFFFFF" d="M337.503,477.417c7.64,5.315,12.291,12.955,12.291,21.592c0,15.613-16.277,28.568-36.208,28.568h-10.962
		h-13.62h-10.962l18.935-105.968l22.589-0.332c0.332,0,0.332,0,0.664,0c21.592,0,35.212,13.62,35.212,30.561
		C355.441,462.468,348.133,471.77,337.503,477.417z M305.28,510.968c1.329,0.332,2.99,0.664,4.318,0.664
		c8.969,0,16.277-7.308,16.277-15.945c0-8.969-2.99-13.62-15.945-13.62L305.28,510.968z M317.239,437.887l-4.983,31.226
		c1.661,0.332,2.99,0.664,4.651,0.664c8.969,0,16.277-7.308,16.277-15.945S326.208,437.887,317.239,437.887z M265.75,442.205
		l-4.983,22.921h17.274l-3.986,21.26h-17.938l-8.637,40.527h-25.911l22.921-105.968h20.928l0,0h25.578l-3.986,21.26H265.75z
		 M209.943,442.205l-4.983,22.921h17.274l-3.986,21.26h-17.938l-8.637,40.527h-25.578l22.589-105.968h20.928l0,0h25.578
		l-3.986,21.26H209.943z"/>
	<path fill="#FFFFFF" d="M590.629,447.852l-11.627-18.935l0,0v0.997c0,1.993,0.332,3.986,0.332,5.647v12.291h-3.654v-23.585h4.651
		l11.627,18.603l0,0c0-0.332,0-0.997,0-2.658s0-2.658,0-3.654v-12.291h3.654v23.585H590.629z M560.4,448.184
		c-3.654,0-6.312-0.997-8.305-3.322c-1.993-1.993-2.99-4.983-2.99-8.969c0-3.986,0.997-6.976,2.99-8.969
		c1.993-1.993,4.651-2.99,8.305-2.99c3.654,0,6.312,0.997,8.305,3.322c1.993,1.993,2.99,4.983,2.99,8.969
		c0,3.986-0.997,6.976-2.99,8.969C566.712,446.856,564.054,448.184,560.4,448.184z M565.715,429.25
		c-0.997-1.661-2.99-2.325-5.315-2.325c-2.325,0-3.986,0.664-5.315,2.325c-1.329,1.661-1.661,3.654-1.661,6.644
		c0,2.99,0.664,4.983,1.661,6.644c1.329,1.661,2.99,2.325,5.315,2.325s3.986-0.664,5.315-2.325c1.329-1.329,1.661-3.654,1.661-6.644
		C567.376,432.904,566.712,430.911,565.715,429.25z M552.096,468.116c-1.993-0.997-3.986-1.329-5.647-1.329
		c-1.329,0-2.325,0.332-2.99,0.664c-0.664,0.664-0.997,1.329-0.997,2.325c0,0.664,0,0.997,0.332,1.661
		c0.332,0.332,0.664,0.997,1.329,1.329s1.661,0.997,3.322,1.661c1.661,0.664,2.99,1.329,3.654,1.993
		c0.664,0.664,1.329,1.329,1.661,1.993s0.664,1.661,0.664,2.658c0,1.993-0.664,3.654-2.325,4.983
		c-1.661,1.329-3.654,1.661-6.312,1.661c-2.658,0-4.983-0.332-6.644-1.329v-3.654c0.997,0.664,2.325,0.997,3.322,1.329
		c1.329,0.332,2.325,0.332,3.322,0.332c1.661,0,2.658-0.332,3.322-0.997c0.664-0.664,0.997-1.329,0.997-2.325
		c0-0.997-0.332-1.661-0.997-2.325c-0.664-0.664-1.993-1.329-3.986-2.325c-1.993-0.997-3.654-1.993-4.651-2.99
		c-0.997-0.997-1.329-2.325-1.329-3.986c0-1.993,0.664-3.654,1.993-4.651c1.329-0.997,3.322-1.661,5.647-1.661
		s4.651,0.332,6.644,1.329L552.096,468.116z M541.133,423.935h3.986v23.585h-3.986V423.935z M531.5,447.852h-3.986v-20.263h-6.976
		v-3.322h17.606v3.322H531.5V447.852z M516.884,447.852l-2.325-6.644h-8.969l-2.325,6.644h-3.654h-0.664h-3.986l-5.647-9.301h-3.654
		v9.301h-3.986v-23.585h6.644c2.99,0,5.315,0.664,6.644,1.661c1.329,0.997,2.325,2.99,2.325,5.315c0,2.99-1.661,4.983-4.651,6.312
		l6.312,9.966l8.637-23.253h4.318l8.969,23.918h-3.986V447.852z M493.631,431.243c0-1.329-0.332-2.325-1.329-2.99
		c-0.997-0.664-2.325-0.997-3.986-0.997h-2.658v7.64h2.658c1.661,0,2.99-0.332,3.986-0.997
		C493.298,433.236,493.631,432.239,493.631,431.243z M511.237,431.243c0-0.332-0.332-0.997-0.664-1.993
		c-0.332-0.997-0.332-1.661-0.664-1.993c-0.332,1.329-0.664,2.658-1.329,4.318l-1.993,6.312h6.976L511.237,431.243z
		 M480.675,476.088v-12.291h3.654v23.585h-4.651l-11.627-18.935l0,0v0.997c0,1.993,0.332,3.986,0.332,5.647v12.291h-3.654v-23.585
		h4.651l11.627,18.602l0,0c0-0.332,0-0.997,0-2.658C480.675,478.413,480.675,477.085,480.675,476.088z M464.398,423.935h13.287
		v3.322h-9.633v6.312h8.969v3.322h-8.969v7.308h9.633v3.322h-13.287V423.935z M470.71,422.274h-2.325v-0.332
		c0.664-0.664,1.329-1.661,1.993-2.658c0.664-0.997,1.329-1.661,1.661-2.325h4.318v0.332c-0.664,0.664-1.329,1.661-2.658,2.658
		C472.703,420.945,471.706,421.609,470.71,422.274z M471.706,509.639c0,1.329-0.332,2.658-0.997,3.322
		c-0.664,0.997-1.661,1.329-2.99,1.661l0,0c1.661,0.332,2.99,0.997,3.654,1.993c0.664,0.997,1.329,2.325,1.329,3.654
		c0,1.993-0.664,3.654-2.325,4.983c-1.329,1.329-3.654,1.661-6.312,1.661h-8.637v-23.585h6.976c3.322,0,5.647,0.332,6.976,1.329
		C470.71,505.985,471.706,507.314,471.706,509.639z M459.083,523.923h3.986c1.661,0,2.99-0.332,3.654-0.997
		c0.664-0.664,1.329-1.661,1.329-2.99s-0.332-1.993-1.329-2.657c-0.997-0.664-1.993-0.997-3.986-0.997h-3.986v7.64H459.083z
		 M466.391,507.646c-0.664-0.332-1.993-0.664-3.654-0.664h-3.322v6.644h3.654c1.661,0,2.658-0.332,3.654-0.664
		c0.664-0.664,0.997-1.329,0.997-2.658C467.72,508.975,467.056,507.978,466.391,507.646z M455.761,481.071h-8.969l-2.325,6.644
		h-3.654h-0.664h-3.986l-5.647-9.301h-3.654v8.969h-3.986v-23.585h6.644c2.99,0,5.315,0.664,6.644,1.661
		c1.329,0.997,2.325,2.99,2.325,5.315c0,2.99-1.661,4.983-4.651,6.312l6.312,9.966l8.637-23.253h4.318l8.969,23.585h-3.986
		L455.761,481.071z M434.833,470.773c0-1.329-0.332-2.325-1.329-2.99c-0.997-0.664-2.325-0.997-3.986-0.997h-2.658v7.64h2.658
		c1.661,0,2.99-0.332,3.986-0.997C434.501,473.098,434.833,472.102,434.833,470.773z M452.772,471.105
		c0-0.332-0.332-0.997-0.664-1.993c-0.332-0.997-0.332-1.661-0.664-1.993c-0.332,1.329-0.664,2.658-1.329,4.318l-1.993,6.312h6.976
		L452.772,471.105z M447.457,447.852h-6.644v-23.585h7.308c3.654,0,6.644,0.997,8.637,2.99c1.993,1.993,2.99,4.983,2.99,8.637
		c0,3.986-0.997,6.976-3.322,8.969C454.765,446.523,451.443,447.852,447.457,447.852z M448.121,427.257h-3.322v17.274h2.658
		c5.647,0,8.637-2.99,8.637-8.637C456.094,430.246,453.436,427.257,448.121,427.257z M423.207,423.935h13.287v3.322h-9.633v6.312
		h8.969v3.322h-8.969v7.308h9.633v3.322h-13.287V423.935L423.207,423.935z M429.851,422.274h-2.658v-0.332
		c0.664-0.664,1.329-1.661,1.993-2.658c0.664-0.997,1.329-1.661,1.661-2.325h4.318v0.332c-0.664,0.664-1.329,1.661-2.658,2.658
		C431.512,420.945,430.515,421.609,429.851,422.274z M422.543,524.255c-2.325,1.993-5.315,2.99-9.301,2.99h-6.644V503.66h7.308
		c3.654,0,6.644,0.997,8.637,2.99c1.993,1.993,2.99,4.983,2.99,8.637C425.864,518.94,424.536,521.93,422.543,524.255z
		 M413.573,506.982h-3.322v16.942h2.658c5.647,0,8.637-2.99,8.637-8.637C421.546,509.639,418.888,506.982,413.573,506.982z
		 M410.252,474.427h8.969v3.322h-8.969v9.633h-3.986v-23.585h13.288v3.322h-9.633v7.308H410.252z M410.252,434.565h8.969v3.322
		h-8.969v9.633h-3.986v-23.585h13.288v3.322h-9.633v7.308H410.252z M443.47,506.982h-9.633v6.312h8.969v3.322h-8.969v7.308h9.633
		v3.322h-13.288V503.66h13.288V506.982z M489.644,505.321c1.329,0.997,2.325,2.99,2.325,5.315c0,2.99-1.661,4.983-4.651,6.312
		l6.644,10.63h-4.318l-5.647-9.301h-3.654v8.969h-3.986V503.66h6.644C485.99,503.66,488.316,504.324,489.644,505.321z
		 M480.343,506.982v7.64h2.658c1.661,0,2.99-0.332,3.986-0.997c0.664-0.664,1.329-1.661,1.329-2.99c0-1.329-0.332-2.325-1.329-2.99
		c-0.997-0.664-2.325-0.997-3.986-0.997h-2.658V506.982z M498.281,493.03c0.332-0.332,0.664-0.664,0.664-0.997
		c0-0.997-0.997-1.661-2.99-1.661l1.329-2.657c-2.658-0.332-4.651-1.329-5.979-2.99c-1.993-1.993-2.658-4.983-2.658-8.969
		c0-2.325,0.332-4.651,1.329-6.312c0.997-1.993,2.325-3.322,3.986-4.318s3.654-1.329,5.979-1.329c2.325,0,4.651,0.664,6.644,1.661
		l-1.329,3.322c-0.664-0.332-1.661-0.664-2.658-0.997s-1.661-0.332-2.658-0.332c-2.325,0-3.986,0.664-5.315,2.325
		c-1.329,1.661-1.993,3.654-1.993,6.644c0,2.99,0.664,4.983,1.993,6.644c1.329,1.329,2.99,2.325,5.315,2.325
		c0.997,0,1.993,0,2.99-0.332c0.997-0.332,1.993-0.332,2.99-0.664v3.322c-1.661,0.664-3.654,0.997-5.979,0.997l-0.664,0.997
		c0.997,0.332,1.661,0.664,1.993,0.997c0.332,0.664,0.664,0.997,0.664,1.993c0,2.325-1.661,3.654-4.983,3.654
		c-0.664,0-1.329,0-1.993-0.332v-2.325c0.664,0,1.329,0.332,1.993,0.332C497.617,493.362,497.949,493.03,498.281,493.03z
		 M500.607,527.245h-3.986V503.66h3.986V527.245z M521.867,506.649c1.993,1.993,2.99,4.983,2.99,8.637
		c0,3.986-0.997,6.976-3.322,8.969c-2.325,1.993-5.315,2.99-9.301,2.99h-6.644V503.66h7.308
		C516.884,503.66,519.873,504.656,521.867,506.649z M509.908,506.982v16.942h2.658c5.647,0,8.637-2.99,8.637-8.637
		c0-5.647-2.658-8.637-7.972-8.637h-3.322V506.982z M522.199,481.071h-8.969l-2.325,6.644h-3.986l8.969-23.585h4.318l8.969,23.585
		h-3.986L522.199,481.071z M518.877,471.105c0-0.332-0.332-0.997-0.664-1.993c-0.332-0.997-0.332-1.661-0.664-1.993
		c-0.332,1.329-0.664,2.658-1.329,4.318l-1.993,6.312h6.976L518.877,471.105z M530.836,463.797h3.986v23.585h-3.986V463.797z
		 M540.469,503.328c2.325,0,4.651,0.332,6.976,1.329l-1.329,3.322c-1.993-0.997-3.986-1.329-5.647-1.329
		c-2.658,0-4.651,0.664-5.979,2.325c-1.329,1.661-2.325,3.654-2.325,6.644s0.664,4.983,1.993,6.644s3.322,2.325,5.647,2.325
		c1.329,0,2.657,0,3.986-0.332v-5.979h-4.983v-3.322h8.637v11.959c-1.329,0.332-2.658,0.664-3.986,0.997
		c-1.329,0.332-2.657,0.332-4.318,0.332c-3.654,0-6.312-0.997-8.305-3.322c-1.993-1.993-2.99-4.983-2.99-8.969
		c0-3.654,0.997-6.644,3.322-8.969C533.493,504.324,536.815,503.328,540.469,503.328z M566.048,506.982h-9.633v6.312h8.969v3.322
		h-8.969v7.308h9.633v3.322H552.76V503.66h13.288V506.982z M570.698,484.061v3.322h-13.287v-23.585h13.287v3.322h-9.301v6.312h8.969
		v3.322h-8.969v7.308H570.698z"/>
	<path fill="#FFFFFF" d="M375.372,420.945h6.644v106.3h-6.644V420.945z"/>
</g>
</svg>
