<?xml version="1.0" encoding="utf-8"?>
<!-- Generator: Adobe Illustrator 18.1.1, SVG Export Plug-In . SVG Version: 6.00 Build 0)  -->
<svg version="1.1" id="Calque_1" xmlns="http://www.w3.org/2000/svg" xmlns:xlink="http://www.w3.org/1999/xlink" x="0px" y="0px"
	 viewBox="0 0 595.28 136" enable-background="new 0 0 595.28 136" xml:space="preserve">
<g>
	<path fill="#FFFFFF" d="M239.01,56.36c-20.26,0-19.54,17-16.77,32.75c0,0,4.46,27.98-6.69,36.81c-11.16,8.84-24.55,0-27.31-5.06
		c5.18,0.96,15.55,1.4,16.99-8.63c0.74-5.15,0.97-11.22-0.17-21.02c-1.06-9.14-3.86-13.03-3.34-21.88
		c1.56-28.46,23.73-35.39,35.36-35.39c24.38,0,32.32,11.05,34.3,26.37c1.99-15.32,9.91-26.37,34.3-26.37
		c11.63,0,33.8,6.93,35.36,35.39c0.52,8.85-2.27,12.74-3.34,21.87c-1.14,9.81-0.91,15.86-0.17,21.01c1.44,10.03,11.83,9.57,17,8.6
		c-2.76,5.07-16.15,13.84-27.3,5.01c-11.16-8.84-6.68-36.93-6.68-36.93c2.77-15.75,2.08-32.99-16.73-32.99
		c-18.82,0-13.99,26.49-32,26.49S259.27,56.36,239.01,56.36"/>
	<path fill="#FFFFFF" d="M49.67,128.32c-3.65,0-6.25-2.43-9.37-7.81C27.98,99.33,4.03,25.74,4.03,12.72c0-4.69,1.56-6.94,6.77-6.94
		c2.95,0,4.69,0.52,8.16,7.47c7.98,16.14,22.22,63.7,30.37,88.52c8.51-25.69,22.91-71.86,30.72-88.52c3.12-6.77,5.38-7.47,7.98-7.47
		c5.38,0,6.94,2.78,6.94,7.81c0,9.03-5.21,24.13-21.52,70.64c-4.34,12.32-10.59,27.6-15.1,36.1
		C55.4,125.89,53.32,128.32,49.67,128.32"/>
	<path fill="#FFFFFF" d="M168.25,116.17c-5.73,7.12-14.58,12.67-28.64,12.67c-18.05,0-39.57-9.37-39.57-43.22
		c0-26.38,13.02-47.91,39.75-47.91c11.8,0,21,3.99,28.29,13.71c0-5.38,0.35-12.32,8.33-12.32c3.47,0,6.94,1.74,7.46,11.11
		c0.69,12.15,1.04,21.35,1.04,31.59c0,12.67-0.17,22.57-1.04,34.54c-0.69,10.59-3.47,11.63-6.94,11.63
		C169.64,127.97,168.6,122.59,168.25,116.17 M140.65,54.55c-16.84,0-23.26,12.5-23.26,29.16c0,20.14,9.55,29.85,24.82,29.85
		c17.88,0,25.34-13.36,25.34-29.68C167.56,59.75,151.41,54.55,140.65,54.55"/>
	<path fill="#FFFFFF" d="M440.95,82.32c0,28.99-19.09,47.04-44.95,47.04c-28.12,0-43.22-21.17-43.22-45.13
		c0-26.21,17.88-44.95,45.82-44.95C424.98,39.28,440.95,55.94,440.95,82.32 M423.25,83.71c0-15.62-7.46-28.12-25.17-28.12
		c-17.88,0-27.08,12.5-27.08,29.33c0,16.84,8.85,28.47,25.69,28.47C415.61,113.39,423.25,98.81,423.25,83.71"/>
	<path fill="#FFFFFF" d="M519.06,51.6c0,3.47-1.91,6.42-6.08,6.42c-5.9,0-15.28-4.69-26.9-4.69c-9.55,0-16.49,2.95-16.49,9.37
		c0,7.46,9.55,9.89,21.17,12.67c14.41,3.47,29.51,8.68,29.51,26.9c0,17.01-13.36,27.95-38.36,27.95c-11.28,0-32.8-2.43-32.8-15.62
		c0-4.51,2.6-7.12,5.73-7.12c5.21,0,10.07,7.64,26.38,7.64c6.07,0,21.7-0.87,21.7-11.28c0-8.33-10.07-10.94-21.52-14.06
		c-13.54-3.82-28.81-8.33-28.81-25.17c0-15.97,13.71-27.94,34.37-27.94C496.85,36.67,519.06,39.45,519.06,51.6"/>
	<g>
		<path fill="#FFFFFF" d="M584.54,9.19c4.15,1.55,6.46,3.15,3.17,13.37c-3.65,11.18-7.18,22.04-11.12,32.56
			c-3.95,10.52-6.48,16.3-11.3,27.22c-3.71,8.43-7.33,8.89-11,7.51c-7.81-2.93-4.88-10.74,6.42-40.87
			c4.55-12.11,9.47-24.27,12.88-31.9C577.29,8.65,580.72,7.75,584.54,9.19z"/>
	</g>
	<path fill="#FFFFFF" d="M554.19,123.96c-1.91,5.1-8.63,7.49-13.89,5.52c-4.46-1.67-7.63-7.77-5.6-13.19
		c1.91-5.1,8.15-7.67,13.25-5.76C552.74,112.33,556.17,118.7,554.19,123.96z"/>
</g>
</svg>
