<?xml version="1.0" encoding="utf-8"?>
<!-- Generator: Adobe Illustrator 17.0.0, SVG Export Plug-In . SVG Version: 6.00 Build 0)  -->
<!DOCTYPE svg PUBLIC "-//W3C//DTD SVG 1.1//EN" "http://www.w3.org/Graphics/SVG/1.1/DTD/svg11.dtd">
<svg version="1.1" id="abstract" xmlns="http://www.w3.org/2000/svg" xmlns:xlink="http://www.w3.org/1999/xlink" x="0px" y="0px"
	 width="1838px" height="1866px" viewBox="-100 150 1800 1200" enable-background="new 0 0 1838 1500" xml:space="preserve">
<polygon id="triangle36" opacity="0.08" points="527,239 573,318 503,249 "/>
<polygon id="triangle36_1_" opacity="0.07" points="1189,1126 1215,850 996,1081 "/>
<polygon id="triangle36_2_" opacity="0.15" points="527,239 1042,208 622,256 "/>
<polygon id="triangle36_3_" opacity="0.17" points="527,239 573,318 622,256 "/>
<polygon id="triangle36_4_" opacity="0.16" points="573,318 616,422 595,318 "/>
<polygon id="triangle36_5_" opacity="0.12" points="573,318 622,256 595,318 "/>
<polygon id="triangle36_6_" opacity="0.13" points="616,422 622,256 595,318 "/>
<polygon id="triangle36_7_" opacity="0.07" points="1189,1126 1215,850 1281,1118 "/>
<polygon id="triangle36_8_" opacity="0.1" points="1189,1126 1349,1519 1281,1118 "/>
<polygon id="triangle36_9_" opacity="0.2" points="73,1086 178,1259 275,1266 "/>
<polygon id="triangle36_10_" opacity="0.08" points="178,1259 275,1266 228,1293 "/>
<polygon id="triangle36_11_" opacity="0.09" points="1215,850 1281,1118 1484,1005 "/>
<polygon id="triangle36_12_" opacity="0.16" points="1484,1005 1754,888 1741,1154 "/>
<polygon id="triangle36_13_" opacity="0.19" points="1754,888 1794,1124 1741,1154 "/>
<polygon id="triangle36_14_" opacity="0.09" points="950,1431 1028,1758 1156,1777 "/>
<polygon id="triangle36_15_" opacity="0.16" points="950,1431 1349,1519 1156,1777 "/>
<polygon id="triangle36_16_" opacity="0.1" points="324,556 331,667 575,639 "/>
<polygon id="triangle36_17_" opacity="0.2" points="1189,1126 1349,1519 1042,1202 "/>
<polygon id="triangle36_18_" opacity="0.08" points="860,1223 996,1081 1042,1202 "/>
<polygon id="triangle36_19_" opacity="0.14" points="950,1431 1349,1519 1042,1202 "/>
<polygon id="triangle36_20_" opacity="0.09" points="996,1081 1189,1126 1042,1202 "/>
<polygon id="triangle36_21_" opacity="0.11" points="1754,888 1794,1124 1813,534 "/>
<polygon id="triangle36_22_" opacity="0.16" points="72,1006 73,1086 56,878 "/>
<polygon id="triangle36_23_" opacity="0.12" points="56,878 156,714 137,246 "/>
<polygon id="triangle36_24_" opacity="0.07" points="1446,1659 1553,1575 1675,1543 "/>
<polygon id="triangle36_25_" opacity="0.13" points="1042,208 1285,482 962,410 "/>
<polygon id="triangle36_26_" opacity="0.14" points="616,422 622,256 962,410 "/>
<polygon id="triangle36_27_" opacity="0.14" points="616,422 774,535 962,410 "/>
<polygon id="triangle36_28_" opacity="0.12" points="622,256 1042,208 962,410 "/>
<polygon id="triangle36_29_" opacity="0.13" points="1553,1575 1675,1543 1661,1430 "/>
<polygon id="triangle36_30_" opacity="0.13" points="1675,1543 1794,1124 1661,1430 "/>
<polygon id="triangle36_31_" opacity="0.14" points="137,246 156,714 184,636 "/>
<polygon id="triangle36_32_" opacity="0.19" points="324,556 331,667 184,636 "/>
<polygon id="triangle36_33_" opacity="0.06" points="178,1259 228,1293 129,1408 "/>
<polygon id="triangle36_34_" opacity="0.19" points="228,1293 423,1542 129,1408 "/>
<polygon id="triangle36_35_" opacity="0.06" points="73,1086 178,1259 129,1408 "/>
<polygon id="triangle36_36_" opacity="0.19" points="228,1293 275,1266 456,1338 "/>
<polygon id="triangle36_37_" opacity="0.1" points="228,1293 423,1542 456,1338 "/>
<polygon id="triangle36_38_" opacity="0.14" points="275,1266 459,1106 456,1338 "/>
<polygon id="triangle36_39_" opacity="0.13" points="423,1542 503,1624 456,1338 "/>
<polygon id="triangle36_40_" opacity="0.1" points="459,1106 825,1233 456,1338 "/>
<polygon id="triangle36_41_" opacity="0.13" points="1349,1519 1446,1659 1509,1529 "/>
<polygon id="triangle36_42_" opacity="0.1" points="1446,1659 1553,1575 1509,1529 "/>
<polygon id="triangle36_43_" opacity="0.2" points="1553,1575 1661,1430 1509,1529 "/>
<polygon id="triangle36_44_" opacity="0.08" points="423,1542 503,1624 493,1680 "/>
<polygon id="triangle36_45_" opacity="0.07" points="1184,687 1215,850 722,889 "/>
<polygon id="triangle36_46_" opacity="0.09" points="825,1233 860,1223 722,889 "/>
<polygon id="triangle36_47_" opacity="0.1" points="860,1223 996,1081 722,889 "/>
<polygon id="triangle36_48_" opacity="0.12" points="996,1081 1215,850 722,889 "/>
<polygon id="triangle36_49_" opacity="0.2" points="1184,687 1215,850 1306,717 "/>
<polygon id="triangle36_50_" opacity="0.15" points="1184,687 1285,482 1306,717 "/>
<polygon id="triangle36_51_" opacity="0.09" points="1215,850 1484,1005 1306,717 "/>
<polygon id="triangle36_52_" opacity="0.15" points="1285,482 1813,534 1306,717 "/>
<polygon id="triangle36_53_" opacity="0.09" points="1484,1005 1754,888 1306,717 "/>
<polygon id="triangle36_54_" opacity="0.1" points="1754,888 1813,534 1306,717 "/>
<polygon id="triangle36_55_" opacity="0.17" points="459,1106 825,1233 647,944 "/>
<polygon id="triangle36_56_" opacity="0.2" points="625,879 722,889 647,944 "/>
<polygon id="triangle36_57_" opacity="0.11" points="722,889 825,1233 647,944 "/>
<polygon id="triangle36_58_" opacity="0.08" points="56,878 156,714 133,809 "/>
<polygon id="triangle36_59_" opacity="0.08" points="275,1266 459,1106 402,1008 "/>
<polygon id="triangle36_60_" opacity="0.16" points="321,915 625,879 402,1008 "/>
<polygon id="triangle36_61_" opacity="0.14" points="459,1106 647,944 402,1008 "/>
<polygon id="triangle36_62_" opacity="0.12" points="625,879 647,944 402,1008 "/>
<polygon id="triangle36_63_" opacity="0.07" points="73,1086 275,1266 402,1008 "/>
<polygon id="triangle36_64_" opacity="0.05" points="456,1338 825,1233 878,1373 "/>
<polygon id="triangle36_65_" opacity="0.05" points="825,1233 860,1223 878,1373 "/>
<polygon id="triangle36_66_" opacity="0.07" points="860,1223 1042,1202 878,1373 "/>
<polygon id="triangle36_67_" opacity="0.12" points="950,1431 1042,1202 878,1373 "/>
<polygon id="triangle36_68_" opacity="0.18" points="1028,1758 1156,1777 1201,1799 "/>
<polygon id="triangle36_69_" opacity="0.11" points="1156,1777 1349,1519 1201,1799 "/>
<polygon id="triangle36_70_" opacity="0.09" points="1349,1519 1446,1659 1201,1799 "/>
<polygon id="triangle36_71_" opacity="0.12" points="1446,1659 1675,1543 1201,1799 "/>
<polygon id="triangle36_72_" opacity="0.11" points="493,1680 1028,1758 1201,1799 "/>
<polygon id="triangle36_73_" opacity="0.16" points="423,1542 493,1680 20,1642 "/>
<polygon id="triangle36_74_" opacity="0.18" points="493,1680 1201,1799 20,1642 "/>
<polygon id="triangle36_75_" opacity="0.06" points="137,246 184,636 346,482 "/>
<polygon id="triangle36_76_" opacity="0.09" points="137,246 503,249 346,482 "/>
<polygon id="triangle36_77_" opacity="0.19" points="184,636 324,556 346,482 "/>
<polygon id="triangle36_78_" opacity="0.18" points="324,556 575,639 346,482 "/>
<polygon id="triangle36_79_" opacity="0.06" points="503,249 573,318 346,482 "/>
<polygon id="triangle36_80_" opacity="0.1" points="573,318 616,422 346,482 "/>
<polygon id="triangle36_81_" opacity="0.1" points="575,639 616,422 346,482 "/>
<polygon id="triangle36_82_" opacity="0.07" points="1436,223 1813,534 1376,115 "/>
<polygon id="triangle36_83_" opacity="0.05" points="527,239 1042,208 1376,115 "/>
<polygon id="triangle36_84_" opacity="0.18" points="1042,208 1285,482 1331,362 "/>
<polygon id="triangle36_85_" opacity="0.1" points="1042,208 1376,115 1331,362 "/>
<polygon id="triangle36_86_" opacity="0.14" points="1285,482 1813,534 1331,362 "/>
<polygon id="triangle36_87_" opacity="0.16" points="1376,115 1436,223 1331,362 "/>
<polygon id="triangle36_88_" opacity="0.12" points="1436,223 1813,534 1331,362 "/>
<polygon id="triangle36_89_" opacity="0.13" points="133,809 156,714 299,750 "/>
<polygon id="triangle36_90_" opacity="0.07" points="133,809 237,870 299,750 "/>
<polygon id="triangle36_91_" opacity="0.07" points="156,714 184,636 299,750 "/>
<polygon id="triangle36_92_" opacity="0.13" points="184,636 331,667 299,750 "/>
<polygon id="triangle36_93_" opacity="0.06" points="237,870 321,915 299,750 "/>
<polygon id="triangle36_94_" opacity="0.05" points="321,915 625,879 299,750 "/>
<polygon id="triangle36_95_" opacity="0.14" points="331,667 575,639 299,750 "/>
<polygon id="triangle36_96_" opacity="0.2" points="575,639 625,879 299,750 "/>
<polygon id="triangle36_97_" opacity="0.1" points="1281,1118 1349,1519 1512,1230 "/>
<polygon id="triangle36_98_" opacity="0.16" points="1281,1118 1484,1005 1512,1230 "/>
<polygon id="triangle36_99_" opacity="0.19" points="1349,1519 1509,1529 1512,1230 "/>
<polygon id="triangle36_100_" opacity="0.2" points="1509,1529 1661,1430 1512,1230 "/>
<polygon id="triangle36_101_" opacity="0.1" points="1184,687 1285,482 951,545 "/>
<polygon id="triangle36_102_" opacity="0.06" points="722,889 1184,687 951,545 "/>
<polygon id="triangle36_103_" opacity="0.09" points="774,535 962,410 951,545 "/>
<polygon id="triangle36_104_" opacity="0.2" points="962,410 1285,482 951,545 "/>
<polygon id="triangle36_105_" opacity="0.11" points="133,809 237,870 160,919 "/>
<polygon id="triangle36_106_" opacity="0.11" points="237,870 321,915 160,919 "/>
<polygon id="triangle36_107_" opacity="0.11" points="321,915 402,1008 160,919 "/>
<polygon id="triangle36_108_" opacity="0.17" points="56,878 133,809 160,919 "/>
<polygon id="triangle36_109_" opacity="0.16" points="56,878 72,1006 160,919 "/>
<polygon id="triangle36_110_" opacity="0.07" points="72,1006 73,1086 160,919 "/>
<polygon id="triangle36_111_" opacity="0.08" points="73,1086 402,1008 160,919 "/>
<polygon id="triangle36_112_" opacity="0.12" points="129,1408 423,1542 33,1539 "/>
<polygon id="triangle36_113_" opacity="0.06" points="20,1642 423,1542 33,1539 "/>
<polygon id="triangle36_114_" opacity="0.06" points="20,1642 56,878 33,1539 "/>
<polygon id="triangle36_115_" opacity="0.18" points="56,878 73,1086 33,1539 "/>
<polygon id="triangle36_116_" opacity="0.19" points="73,1086 129,1408 33,1539 "/>
<polygon id="triangle36_117_" opacity="0.09" points="137,246 503,249 134,185 "/>
<polygon id="triangle36_118_" opacity="0.16" points="503,249 527,239 134,185 "/>
<polygon id="triangle36_119_" opacity="0.11" points="527,239 1376,115 134,185 "/>
<polygon id="triangle36_120_" opacity="0.05" points="56,878 137,246 134,185 "/>
<polygon id="triangle36_121_" opacity="0.18" points="1484,1005 1512,1230 1542,1230 "/>
<polygon id="triangle36_122_" opacity="0.09" points="1484,1005 1741,1154 1542,1230 "/>
<polygon id="triangle36_123_" opacity="0.06" points="1512,1230 1661,1430 1542,1230 "/>
<polygon id="triangle36_124_" opacity="0.17" points="575,639 616,422 713,611 "/>
<polygon id="triangle36_125_" opacity="0.09" points="575,639 625,879 713,611 "/>
<polygon id="triangle36_126_" opacity="0.17" points="616,422 774,535 713,611 "/>
<polygon id="triangle36_127_" opacity="0.18" points="625,879 722,889 713,611 "/>
<polygon id="triangle36_128_" opacity="0.1" points="722,889 951,545 713,611 "/>
<polygon id="triangle36_129_" opacity="0.12" points="774,535 951,545 713,611 "/>
<polygon id="triangle36_130_" opacity="0.09" points="1542,1230 1661,1430 1695,1239 "/>
<polygon id="triangle36_131_" opacity="0.18" points="1542,1230 1741,1154 1695,1239 "/>
<polygon id="triangle36_132_" opacity="0.19" points="1661,1430 1794,1124 1695,1239 "/>
<polygon id="triangle36_133_" opacity="0.06" points="1741,1154 1794,1124 1695,1239 "/>
<polygon id="triangle36_134_" opacity="0.13" points="456,1338 503,1624 738,1595 "/>
<polygon id="triangle36_135_" opacity="0.05" points="456,1338 878,1373 738,1595 "/>
<polygon id="triangle36_136_" opacity="0.16" points="493,1680 1028,1758 738,1595 "/>
<polygon id="triangle36_137_" opacity="0.15" points="493,1680 503,1624 738,1595 "/>
<polygon id="triangle36_138_" opacity="0.06" points="878,1373 950,1431 738,1595 "/>
<polygon id="triangle36_139_" opacity="0.19" points="950,1431 1028,1758 738,1595 "/>
</svg>
