<?xml version="1.0" encoding="utf-8"?>
<!-- Generator: Adobe Illustrator 17.0.0, SVG Export Plug-In . SVG Version: 6.00 Build 0)  -->
<!DOCTYPE svg PUBLIC "-//W3C//DTD SVG 1.1//EN" "http://www.w3.org/Graphics/SVG/1.1/DTD/svg11.dtd">
<svg version="1.1" id="Calque_1" xmlns="http://www.w3.org/2000/svg" xmlns:xlink="http://www.w3.org/1999/xlink" x="0px" y="0px"
	 width="676.927px" height="270.842px" viewBox="0 0 676.927 270.842" enable-background="new 0 0 676.927 270.842"
	 xml:space="preserve">
<polygon fill="#F26E25" stroke="#F26E25" stroke-width="2" stroke-linecap="round" stroke-linejoin="round" stroke-miterlimit="10" points="
	276.289,269.387 145.782,77.534 178.023,69.542 313.442,269.387 "/>
<polygon fill="#394148" stroke="#384047" stroke-width="2" stroke-linecap="round" stroke-linejoin="round" stroke-miterlimit="10" points="
	498.715,269.387 467.575,269.387 467.553,130.415 497.788,130.415 "/>
<path fill="#394148" stroke="#384047" stroke-width="2" stroke-linecap="round" stroke-linejoin="round" stroke-miterlimit="10" d="
	M611.765,269.339c-22.444,1.761-46.074-0.595-62.861-15.095c-13.493-11.653-19.809-28.382-18.776-49.721
	c1.249-25.806,15.275-43.909,40.56-52.356c16.418-5.484,49.033-2.654,72.439,2.209c0.294-5.863,0.325-17.122-2.258-22.629
	c-6.346-13.535-60.896-27.604-112.435-30.869l0.231-28.769c56.417,2.603,124.233,18.366,140.585,49.125
	c9.873,18.571,6.031,114.959,5.497,124.669c-0.536,9.71-0.547,12.101-3.073,13.739c-2.525,1.637-9.561,2.914-9.561,2.914
	C648.329,266.017,627.332,268.118,611.765,269.339z M602.136,177.063c-6.97,0.546-13.165,1.552-18.611,3.371
	c-15.131,5.056-21.852,15.483-22.569,30.261c-0.515,10.661,4.254,20.034,9.451,23.952c10.012,7.548,19.304,7.167,34.461,6.556
	c12.474-0.499,27.431-2.812,37.825-5.642c1.835-11.294,3.407-28.645,1.662-51.393C632.91,180.14,612.212,176.273,602.136,177.063z"
	/>
<path fill="#010101" stroke="#010101" stroke-width="2" stroke-linecap="round" stroke-linejoin="round" stroke-miterlimit="10" d="
	M413.156,258.641"/>
<path fill="none" stroke="#010101" stroke-width="2" stroke-linecap="round" stroke-linejoin="round" stroke-miterlimit="10" d="
	M100.275,221.906"/>
<path fill="#F26E25" stroke="#F26E25" stroke-width="2" stroke-linecap="round" stroke-linejoin="round" stroke-miterlimit="10" d="
	M248.155,13.193c19.06,0,34.512,15.45,34.512,34.512c0,19.06-15.451,34.512-34.512,34.512c-19.061,0-34.512-15.451-34.512-34.512
	C213.643,28.643,229.093,13.193,248.155,13.193"/>
<path fill="#394148" stroke="#384047" stroke-width="2" stroke-linecap="round" stroke-linejoin="round" stroke-miterlimit="10" d="
	M368.813,1.057c0,0-5.526,35.627-16.381,125.089c-10.855,89.463,8.423,111.58,56.963,110.047
	c18.439-0.755,27.602-4.706,27.602-4.706v34.507c0,0-10.769,3.178-27.602,3.178c-20.893,0-58.453,1.263-73.386-19.858
	c-21.948-31.046-20.614-61.399-12.879-123.535C338.437,2.812,339.904,1,339.904,1L368.813,1.057z"/>
<path fill="#010101" stroke="#010101" stroke-width="2" stroke-linecap="round" stroke-linejoin="round" stroke-miterlimit="10" d="
	M409.395,236.335"/>
<g>
	<path fill="#394148" d="M499.229,101.327c-8.838,0-17.631-0.697-26.134-0.853c-2.03-0.038-4.063-0.053-6.104-0.096
		c-0.27-0.006-0.486-0.214-0.489-0.484l-0.296-30.166c-0.001-0.136,0.053-0.214,0.15-0.309c0.093-0.092,0.219-0.091,0.35-0.091
		c0.005,0,0.01,0,0.015,0c0.209,0,20.766,0.573,32.359,1.046c0.268,0.011,0.278,0.182,0.278,0.45v30.091
		c0,0.138,0.144,0.227,0.043,0.322c-0.093,0.087-0.013,0.092-0.14,0.092C499.25,101.327,499.239,101.327,499.229,101.327z"/>
	<g>
		<path fill="#384047" d="M466.755,69.728c0,0,20.603,0.617,32.603,1.096v30.091c-11-0.714-21.519-0.789-32.283-1.015
			L466.755,69.728 M466.706,68.327c-0.261,0-0.513,0.303-0.7,0.486c-0.194,0.19-0.303,0.552-0.3,0.824l0.296,30.222
			c0.005,0.54,0.439,1.004,0.979,1.015c2.036,0.043,4.066,0.093,6.092,0.13c8.501,0.156,17.292,0.324,26.122,0.902
			c0.022,0.001,0.044,0.005,0.065,0.005c0.253,0,0.546-0.095,0.732-0.269c0.202-0.189,0.365-0.452,0.365-0.728V70.823
			c0-0.536-0.472-1.178-1.008-1.2c-11.595-0.473-32.406-1.296-32.614-1.296C466.726,68.327,466.716,68.327,466.706,68.327
			L466.706,68.327z"/>
	</g>
</g>
<g>
	<path fill="none" d="M113.899,155.908c0.792-3.833,1.567-17.486-3.705-26.813c-3.257-5.763-7.975-17.391-32.79-17.391
		c-10.942,0-39.404,8.297-45.527,51.975C104.515,163.678,111.696,163.825,113.899,155.908z"/>
	<path fill="#394148" d="M81.488,238.917l-0.6-0.012c-10.278,0-25.367-1.319-34.893-10.258c-8.575-8.047-13.14-21.396-14.388-35.843
		c16.719,0.906,90.692,8.05,106.321-14.569l1.099-1.319l1.152-1.829c8.791-11.731,10.485-39.672-1.128-58.987
		c-12.083-20.097-30.367-33.339-57.841-33.339c-39.299,0-82.883,20.484-81.161,101.318c0.527,24.732,6.693,50.387,23.635,66.825
		c14.021,13.606,35.753,18.406,54.694,18.482c0.428,0.016,0.845,0.013,1.268,0.023c4.874-11.232,12.966-24.083,18.281-32.046
		C93.057,238.5,87.564,239.152,81.488,238.917z M77.405,111.703c24.815,0,29.533,11.627,32.79,17.391
		c5.272,9.327,4.497,22.98,3.705,26.813c-2.203,7.917-9.384,7.771-82.022,7.771C38,120.001,66.462,111.703,77.405,111.703z"/>
</g>
<path fill="#F26E25" stroke="#F26E25" stroke-width="2" stroke-linecap="round" stroke-linejoin="round" stroke-miterlimit="10" d="
	M134.056,269.387H91.698c0.799-2.026,27.309-60.377,80.27-107.756c30.985-27.718,66.993-50.685,107.388-65.95
	c50.325-19.019,96.916-27.492,158.928-25.953l-0.1,29.864c-130.807-3.277-199.001,48.123-243.864,88.259
	C145.98,231.093,134.056,269.387,134.056,269.387z"/>
<g>
</g>
<g>
</g>
<g>
</g>
<g>
</g>
<g>
</g>
<g>
</g>
<g>
</g>
<g>
</g>
<g>
</g>
<g>
</g>
<g>
</g>
<g>
</g>
<g>
</g>
<g>
</g>
<g>
</g>
</svg>
