<svg xmlns="http://www.w3.org/2000/svg" width="469.773" height="170.553" viewBox="0 0 469.773 170.553"><g id="theLittleX"><polygon fill="#F4DE00" points="354.626,56.144 408.092,108.171 363.312,80.052 353.79,80.052"/><polygon fill="#E58504" points="363.312,80.052 391.322,113.91 409.959,121.421 408.092,108.171"/><polygon fill="#E44658" points="409.959,121.421 365.03,143.822 391.322,113.91"/><polygon fill="#DE3214" points="409.959,121.421 410.853,137.1 383.877,167.736"/><polygon fill="#EFB400" points="408.092,108.171 383.628,56.144 354.626,56.144"/><polygon fill="#F9C800" points="408.092,108.171 411.857,90.242 383.628,56.144"/><polygon fill="#1B87BB" points="440.769,57.043 421.865,103.662 411.857,90.242"/><polygon fill="#E05611" points="421.865,103.662 408.092,108.171 409.959,121.421"/><polygon fill="#E86B48" points="421.865,103.662 422.033,119.075 410.853,137.1 409.959,121.421"/><polygon fill="#276244" points="422.033,119.075 435.757,166.836 410.853,137.1"/><polygon fill="#2A945B" points="422.033,119.075 455.633,142.922 465.375,142.922 465.955,166.836 435.757,166.836"/><polygon fill="#74BB92" points="422.033,119.075 431.382,113.913 455.633,142.922"/><polygon fill="#3B73B7" points="421.865,103.662 469.773,57.043 469.584,80.952 460.059,80.952"/><polygon fill="#008048" points="422.033,119.075 465.955,166.836 465.375,142.922 455.633,142.922"/><polygon fill="#B31918" points="383.877,167.736 355.096,167.736 409.959,121.421"/><polygon fill="#E68503" points="411.857,90.242 408.092,108.171 421.865,103.662"/><polygon fill="#1584B9" points="421.865,103.662 460.059,80.952 431.382,113.913 422.033,119.075"/><polygon fill="#1A5088" points="440.769,57.043 421.865,103.662 469.773,57.043"/><polygon fill="#D90F16" points="355.291,143.822 355.096,167.736 409.959,121.421 365.03,143.822"/></g><g fill="#232323"><path d="M41.56 94.292h12.313l34.304-36.503h31.664v23.749h-10.994l-27.487 28.586 28.146 33.863h10.335v23.749h-31.443l-34.304-41.78h-12.534v18.031h10.335v23.749h-41.78v-135.014s0-6.158-10.115-6.158v-23.528c13.194-5.498 41.56-4.179 41.56 15.172v76.084zM150.849 81.538h-10.335v-23.749h41.779v79.382c.221 3.52 1.319 6.816 10.335 6.816v23.749c-13.193 5.497-41.779 4.178-41.779-15.173v-71.025zM223.19 167.736v-134.135c0-7.256-10.335-7.037-10.335-7.037v-23.749c13.193-5.497 41.779-4.178 41.779 15.173v125.999h10.336v23.749h-41.78zM293.777 81.538h-10.335v-23.749h41.78v79.382c.22 3.52 1.318 6.816 10.335 6.816v23.749c-13.193 5.497-41.78 4.178-41.78-15.173v-71.025z"/></g><path fill="#232323" id="goutte1" d="M182.588 24.508c0 8.295-15.017 21.083-15.017 21.083s-15.017-12.788-15.017-21.083c0-8.294 6.723-15.017 15.017-15.017s15.017 6.723 15.017 15.017z"/><path fill="#232323" id="goutte2" d="M324.517 24.508c0 8.295-15.019 21.083-15.019 21.083s-15.018-12.788-15.018-21.083c0-8.294 6.725-15.017 15.019-15.017s15.018 6.723 15.018 15.017z"/></svg>