<?xml version="1.0" encoding="utf-8"?>
<!-- Generator: Adobe Illustrator 16.0.0, SVG Export Plug-In . SVG Version: 6.00 Build 0)  -->
<!DOCTYPE svg PUBLIC "-//W3C//DTD SVG 1.1 Tiny//EN" "http://www.w3.org/Graphics/SVG/1.1/DTD/svg11-tiny.dtd">
<svg version="1.1" baseProfile="tiny" id="Layer_1" xmlns="http://www.w3.org/2000/svg" xmlns:xlink="http://www.w3.org/1999/xlink"
	 x="0px" y="0px" width="469.773px" height="170.553px" viewBox="0 0 469.773 170.553" xml:space="preserve">
<g id="theLittleX">
	<polygon fill="#FDE59D" points="354.626,56.144 408.092,108.171 363.312,80.052 353.79,80.052 	"/>
	<polygon fill="#FFD46A" points="363.312,80.052 391.322,113.91 409.959,121.421 408.092,108.171 	"/>
	<polygon fill="#F7ADA4" points="409.959,121.421 365.03,143.822 391.322,113.91 	"/>
	<polygon fill="#F48779" points="409.959,121.421 410.853,137.101 383.877,167.735 	"/>
	<polygon fill="#FFD463" points="408.092,108.171 383.628,56.144 354.626,56.144 	"/>
	<polygon fill="#FFDA6D" points="408.092,108.171 411.857,90.242 383.628,56.144 	"/>
	<polygon fill="#9CBEE0" points="440.769,57.043 421.865,103.662 411.857,90.242 	"/>
	<polygon fill="#F9A735" points="421.865,103.662 408.092,108.171 409.959,121.421 	"/>
	<polygon fill="#FCBD67" points="421.865,103.662 422.033,119.075 410.853,137.101 409.959,121.421 	"/>
	<polygon fill="#25A79B" points="422.033,119.075 435.757,166.836 410.853,137.101 	"/>
	<polygon fill="#7BB9B1" points="422.033,119.075 455.633,142.922 465.375,142.922 465.955,166.836 435.757,166.836 	"/>
	<polygon fill="#8CC4BB" points="422.033,119.075 431.382,113.913 455.633,142.922 	"/>
	<polygon fill="#4C9AD0" points="421.865,103.662 469.773,57.043 469.584,80.952 460.059,80.952 	"/>
	<polygon fill="#54AFA4" points="422.033,119.075 465.955,166.836 465.375,142.922 455.633,142.922 	"/>
	<polygon fill="#F0624E" points="383.877,167.735 355.096,167.735 409.959,121.421 	"/>
	<polygon fill="#FDC23E" points="411.857,90.242 408.092,108.171 421.865,103.662 	"/>
	<polygon fill="#75AAD7" points="421.865,103.662 460.059,80.952 431.382,113.913 422.033,119.075 	"/>
	<polygon fill="#008BC2" points="440.769,57.043 421.865,103.662 469.773,57.043 	"/>
	<polygon fill="#F48779" points="355.291,143.822 355.096,167.735 409.959,121.421 365.03,143.822 	"/>
</g>
<g>
	<path fill="#FFFFFF" d="M41.56,94.292h12.313l34.304-36.503h31.664v23.749h-10.994L81.36,110.124l28.146,33.863h10.335v23.748
		H88.398l-34.304-41.779H41.56v18.031h10.335v23.748h-41.78V32.722c0,0,0-6.158-10.115-6.158V3.036
		c13.194-5.498,41.56-4.179,41.56,15.172V94.292z M150.849,81.538h-10.335V57.789h41.779v79.382
		c0.221,3.52,1.319,6.816,10.335,6.816v23.748c-13.193,5.498-41.779,4.179-41.779-15.172V81.538L150.849,81.538z M223.19,167.735
		V33.601c0-7.256-10.335-7.037-10.335-7.037V2.815c13.193-5.497,41.779-4.178,41.779,15.173v126h10.337v23.748H223.19z
		 M293.777,81.538h-10.336V57.789h41.78v79.382c0.221,3.52,1.318,6.816,10.335,6.816v23.748
		c-13.192,5.498-41.779,4.179-41.779-15.172V81.538L293.777,81.538z"/>
</g>
<path id="goutte1" fill="#FFFFFF" d="M182.588,24.508c0,8.295-15.017,21.083-15.017,21.083s-15.017-12.788-15.017-21.083
	c0-8.294,6.723-15.017,15.017-15.017C175.865,9.491,182.588,16.214,182.588,24.508z"/>
<path id="goutte2" fill="#FFFFFF" d="M324.517,24.508c0,8.295-15.019,21.083-15.019,21.083S294.48,32.803,294.48,24.508
	c0-8.294,6.725-15.017,15.019-15.017S324.517,16.214,324.517,24.508z"/>
</svg>
